<svg width="24" height="24" viewBox="0 0 24 24" fill="none" xmlns="http://www.w3.org/2000/svg">
<path d="M17.7656 13.3262C17.7696 12.2563 17.4875 11.2049 16.9484 10.2807C16.4094 9.3566 15.6331 8.59339 14.6999 8.07018C13.7668 7.54697 12.7106 7.28279 11.641 7.30501C10.5714 7.32722 9.52719 7.63503 8.61654 8.19654C7.70589 8.75804 6.96193 9.55283 6.46175 10.4986C5.96157 11.4443 5.72335 12.5065 5.77178 13.5753C5.8202 14.644 6.15351 15.6804 6.73716 16.577C7.32082 17.4736 8.1336 18.1979 9.0913 18.6747V21.6233C9.09577 21.7976 9.16818 21.9633 9.29308 22.085C9.41798 22.2067 9.58548 22.2748 9.75987 22.2747H13.7713C13.9457 22.2748 14.1132 22.2067 14.2381 22.085C14.363 21.9633 14.4354 21.7976 14.4399 21.6233V18.6233C15.4277 18.1316 16.2608 17.3769 16.8476 16.4424C17.4343 15.5078 17.7519 14.4296 17.7656 13.3262V13.3262Z" stroke="#3B4559" stroke-width="1.71429" stroke-linecap="round" stroke-linejoin="round"/>
<path d="M11.7656 1V3.57143" stroke="#3B4559" stroke-width="1.71429" stroke-linecap="round" stroke-linejoin="round"/>
<path d="M18.6218 3.45117L16.8047 5.28546" stroke="#3B4559" stroke-width="1.71429" stroke-linecap="round" stroke-linejoin="round"/>
<path d="M22.5324 8.76562H19.9609" stroke="#3B4559" stroke-width="1.71429" stroke-linecap="round" stroke-linejoin="round"/>
<path d="M4.90625 3.45117L6.72339 5.28546" stroke="#3B4559" stroke-width="1.71429" stroke-linecap="round" stroke-linejoin="round"/>
<path d="M1 8.76562H3.57143" stroke="#3B4559" stroke-width="1.71429" stroke-linecap="round" stroke-linejoin="round"/>
</svg>
