<svg width="22" height="27" viewBox="0 0 22 27" fill="none" xmlns="http://www.w3.org/2000/svg">
<path d="M1 18.8851H0.25H1ZM3.73291 22.0834L3.83592 21.3405H3.83592L3.73291 22.0834ZM13.9193 22.0834L13.8163 21.3405H13.8162L13.9193 22.0834ZM1.46647 17.1872L0.822315 16.8031L1.46647 17.1872ZM3.48914 12.087C3.48914 9.13944 5.87857 6.75 8.82609 6.75V5.25C5.05015 5.25 1.98914 8.31101 1.98914 12.087H3.48914ZM3.48914 14.1795V12.087H1.98914V14.1795H3.48914ZM1.75 18.8851C1.75 18.4037 1.88171 17.9552 2.11062 17.5714L0.822315 16.8031C0.458701 17.4128 0.25 18.1257 0.25 18.8851H1.75ZM3.83592 21.3405C2.63629 21.1742 1.75 20.1313 1.75 18.8851H0.25C0.25 20.8448 1.65411 22.5524 3.6299 22.8263L3.83592 21.3405ZM8.82609 21.772C7.33411 21.772 5.40652 21.5583 3.83592 21.3405L3.6299 22.8263C5.21268 23.0458 7.22537 23.272 8.82609 23.272V21.772ZM13.8162 21.3405C12.2457 21.5583 10.3181 21.772 8.82609 21.772V23.272C10.4268 23.272 12.4395 23.0458 14.0223 22.8263L13.8162 21.3405ZM15.9022 18.8851C15.9022 20.1313 15.0159 21.1742 13.8163 21.3405L14.0223 22.8263C15.9981 22.5524 17.4022 20.8448 17.4022 18.8851H15.9022ZM15.5416 17.5714C15.7705 17.9552 15.9022 18.4037 15.9022 18.8851H17.4022C17.4022 18.1257 17.1935 17.4128 16.8299 16.8031L15.5416 17.5714ZM14.1631 12.087V14.1795H15.6631V12.087H14.1631ZM8.82609 6.75C11.7736 6.75 14.1631 9.13944 14.1631 12.087H15.6631C15.6631 8.31101 12.602 5.25 8.82609 5.25V6.75ZM16.8299 16.8031C16.521 16.2851 16.2404 15.8701 16.0091 15.4066C15.7876 14.9629 15.6631 14.567 15.6631 14.1795H14.1631C14.1631 14.8924 14.3931 15.5278 14.667 16.0766C14.9311 16.6056 15.2869 17.1443 15.5416 17.5714L16.8299 16.8031ZM1.98914 14.1795C1.98914 14.567 1.86462 14.9629 1.64311 15.4066C1.41176 15.8701 1.13121 16.2851 0.822315 16.8031L2.11062 17.5714C2.36531 17.1443 2.7211 16.6056 2.98519 16.0766C3.25912 15.5278 3.48914 14.8923 3.48914 14.1795H1.98914Z" fill="#3B4559"/>
<path d="M11 24.8359C10.5326 25.5388 9.73347 26.0021 8.82609 26.0021C7.91871 26.0021 7.11954 25.5388 6.65218 24.8359" stroke="#3B4559" stroke-width="1.5" stroke-linecap="round"/>
<path d="M20.029 7V2.52L20.519 3.01H19.049V2.1H21.163V7H20.029Z" fill="#3B4559"/>
</svg>
