<svg width="10" height="26" viewBox="0 0 10 26" fill="none" xmlns="http://www.w3.org/2000/svg">
<path d="M4 24C3.4696 24 2.9609 23.7893 2.5858 23.4142C2.2107 23.0391 2 22.5304 2 22V3C2 2.46957 2.2107 1.96086 2.5858 1.58579C2.9609 1.21071 3.4696 1 4 1H6C6.5304 1 7.0391 1.21071 7.4142 1.58579C7.7893 1.96086 8 2.46957 8 3V22C8 22.5304 7.7893 23.0391 7.4142 23.4142C7.0391 23.7893 6.5304 24 6 24H4Z" stroke="#81D871" stroke-linecap="round" stroke-linejoin="round"/>
<path d="M4.75 5.25C4.75 5.11193 4.8619 5 5 5C5.1381 5 5.25 5.11193 5.25 5.25" stroke="#81D871"/>
<path d="M4.75 5.25C4.75 5.38807 4.8619 5.5 5 5.5C5.1381 5.5 5.25 5.38807 5.25 5.25" stroke="#81D871"/>
<path d="M4.75 8.75C4.75 8.61193 4.8619 8.5 5 8.5C5.1381 8.5 5.25 8.61193 5.25 8.75" stroke="#81D871"/>
<path d="M4.75 8.75C4.75 8.88807 4.8619 9 5 9C5.1381 9 5.25 8.88807 5.25 8.75" stroke="#81D871"/>
<path d="M9 25.5L7 24" stroke="#81D871" stroke-linecap="round" stroke-linejoin="round"/>
<path d="M3 24L1 25.5" stroke="#81D871" stroke-linecap="round" stroke-linejoin="round"/>
</svg>
