<svg width="149" height="40" viewBox="0 0 149 40" fill="none" xmlns="http://www.w3.org/2000/svg">
<rect x="0.5" y="0.5" width="148" height="39" rx="9.5" stroke="#285CED"/>
<path d="M11.3153 16.6359L11.0708 17.345L11.3153 16.6359ZM11.3153 21.3641L11.0708 20.655L11.3153 21.3641ZM30.6847 21.3641L30.9292 20.655L30.6847 21.3641ZM30.6847 16.6359L30.4403 15.9269L30.6847 16.6359ZM15 10.25C12.3766 10.25 10.25 12.3766 10.25 15H11.75C11.75 13.2051 13.2051 11.75 15 11.75V10.25ZM27 10.25H15V11.75H27V10.25ZM31.75 15C31.75 12.3766 29.6234 10.25 27 10.25V11.75C28.7949 11.75 30.25 13.2051 30.25 15H31.75ZM31.75 16.223V15H30.25V16.223H31.75ZM29.75 19C29.75 18.2345 30.242 17.5819 30.9292 17.345L30.4403 15.9269C29.1667 16.366 28.25 17.575 28.25 19H29.75ZM30.9292 20.655C30.242 20.4181 29.75 19.7655 29.75 19H28.25C28.25 20.425 29.1667 21.634 30.4403 22.0731L30.9292 20.655ZM31.75 23V21.777H30.25V23H31.75ZM27 27.75C29.6234 27.75 31.75 25.6234 31.75 23H30.25C30.25 24.7949 28.7949 26.25 27 26.25V27.75ZM15 27.75H27V26.25H15V27.75ZM10.25 23C10.25 25.6234 12.3766 27.75 15 27.75V26.25C13.2051 26.25 11.75 24.7949 11.75 23H10.25ZM10.25 21.777V23H11.75V21.777H10.25ZM11.5597 22.0731C12.8333 21.634 13.75 20.425 13.75 19H12.25C12.25 19.7655 11.758 20.4181 11.0708 20.655L11.5597 22.0731ZM13.75 19C13.75 17.575 12.8333 16.366 11.5597 15.9269L11.0708 17.345C11.758 17.5819 12.25 18.2345 12.25 19H13.75ZM10.25 15V16.223H11.75V15H10.25ZM11.5597 15.9269C11.6265 15.9499 11.75 16.038 11.75 16.223H10.25C10.25 16.7886 10.6443 17.1979 11.0708 17.345L11.5597 15.9269ZM11.75 21.777C11.75 21.962 11.6265 22.0501 11.5597 22.0731L11.0708 20.655C10.6443 20.8021 10.25 21.2114 10.25 21.777H11.75ZM30.4403 22.0731C30.3735 22.0501 30.25 21.962 30.25 21.777H31.75C31.75 21.2114 31.3557 20.8021 30.9292 20.655L30.4403 22.0731ZM30.25 16.223C30.25 16.038 30.3735 15.9499 30.4403 15.9269L30.9292 17.345C31.3557 17.1979 31.75 16.7886 31.75 16.223H30.25Z" fill="#285CED"/>
<path d="M22.9286 14L22.9286 11" stroke="#285CED" stroke-width="1.5" stroke-linecap="round" stroke-linejoin="round"/>
<path d="M22.9286 20.5L22.9286 17.5" stroke="#285CED" stroke-width="1.5" stroke-linecap="round" stroke-linejoin="round"/>
<path d="M22.9286 27L22.9286 24" stroke="#285CED" stroke-width="1.5" stroke-linecap="round" stroke-linejoin="round"/>
<path d="M57.434 25.13C56.7407 25.13 56.095 25.0173 55.497 24.792C54.9077 24.558 54.392 24.233 53.95 23.817C53.5167 23.3923 53.1787 22.894 52.936 22.322C52.6933 21.75 52.572 21.126 52.572 20.45C52.572 19.774 52.6933 19.15 52.936 18.578C53.1787 18.006 53.521 17.512 53.963 17.096C54.405 16.6713 54.9207 16.3463 55.51 16.121C56.0993 15.887 56.745 15.77 57.447 15.77C58.1923 15.77 58.8727 15.9 59.488 16.16C60.1033 16.4113 60.6233 16.7883 61.048 17.291L59.956 18.318C59.6267 17.9627 59.2583 17.6983 58.851 17.525C58.4437 17.343 58.0017 17.252 57.525 17.252C57.0483 17.252 56.6107 17.33 56.212 17.486C55.822 17.642 55.4797 17.863 55.185 18.149C54.899 18.435 54.6737 18.773 54.509 19.163C54.353 19.553 54.275 19.982 54.275 20.45C54.275 20.918 54.353 21.347 54.509 21.737C54.6737 22.127 54.899 22.465 55.185 22.751C55.4797 23.037 55.822 23.258 56.212 23.414C56.6107 23.57 57.0483 23.648 57.525 23.648C58.0017 23.648 58.4437 23.5613 58.851 23.388C59.2583 23.206 59.6267 22.933 59.956 22.569L61.048 23.609C60.6233 24.103 60.1033 24.48 59.488 24.74C58.8727 25 58.188 25.13 57.434 25.13ZM62.5113 25V18.058H64.0583V19.969L63.8763 19.41C64.0843 18.942 64.4093 18.5867 64.8513 18.344C65.302 18.1013 65.861 17.98 66.5283 17.98V19.527C66.459 19.5097 66.394 19.501 66.3333 19.501C66.2726 19.4923 66.212 19.488 66.1513 19.488C65.536 19.488 65.0463 19.67 64.6823 20.034C64.3183 20.3893 64.1363 20.9223 64.1363 21.633V25H62.5113ZM71.1063 25.091C70.335 25.091 69.659 24.9393 69.0783 24.636C68.5063 24.324 68.06 23.8993 67.7393 23.362C67.4273 22.8247 67.2713 22.2137 67.2713 21.529C67.2713 20.8357 67.423 20.2247 67.7263 19.696C68.0383 19.1587 68.463 18.7383 69.0003 18.435C69.5463 18.1317 70.166 17.98 70.8593 17.98C71.5353 17.98 72.1377 18.1273 72.6663 18.422C73.195 18.7167 73.611 19.1327 73.9143 19.67C74.2177 20.2073 74.3693 20.84 74.3693 21.568C74.3693 21.6373 74.365 21.7153 74.3563 21.802C74.3563 21.8887 74.352 21.971 74.3433 22.049H68.5583V20.97H73.4853L72.8483 21.308C72.857 20.9093 72.7747 20.5583 72.6013 20.255C72.428 19.9517 72.1897 19.7133 71.8863 19.54C71.5917 19.3667 71.2493 19.28 70.8593 19.28C70.4607 19.28 70.1097 19.3667 69.8063 19.54C69.5117 19.7133 69.2777 19.956 69.1043 20.268C68.9397 20.5713 68.8573 20.931 68.8573 21.347V21.607C68.8573 22.023 68.9527 22.3913 69.1433 22.712C69.334 23.0327 69.6027 23.2797 69.9493 23.453C70.296 23.6263 70.6947 23.713 71.1453 23.713C71.5353 23.713 71.8863 23.6523 72.1983 23.531C72.5103 23.4097 72.7877 23.219 73.0303 22.959L73.9013 23.96C73.5893 24.324 73.195 24.6057 72.7183 24.805C72.2503 24.9957 71.713 25.091 71.1063 25.091ZM80.0168 25V23.596L79.9258 23.297V20.84C79.9258 20.3633 79.7828 19.995 79.4968 19.735C79.2108 19.4663 78.7775 19.332 78.1968 19.332C77.8068 19.332 77.4212 19.3927 77.0398 19.514C76.6672 19.6353 76.3508 19.8043 76.0908 20.021L75.4538 18.838C75.8265 18.552 76.2685 18.3397 76.7798 18.201C77.2998 18.0537 77.8372 17.98 78.3918 17.98C79.3972 17.98 80.1728 18.2227 80.7188 18.708C81.2735 19.1847 81.5508 19.9257 81.5508 20.931V25H80.0168ZM77.8328 25.091C77.3128 25.091 76.8578 25.0043 76.4678 24.831C76.0778 24.649 75.7745 24.402 75.5578 24.09C75.3498 23.7693 75.2458 23.4097 75.2458 23.011C75.2458 22.621 75.3368 22.27 75.5188 21.958C75.7095 21.646 76.0172 21.399 76.4418 21.217C76.8665 21.035 77.4298 20.944 78.1318 20.944H80.1468V22.023H78.2488C77.6942 22.023 77.3215 22.114 77.1308 22.296C76.9402 22.4693 76.8448 22.686 76.8448 22.946C76.8448 23.2407 76.9618 23.4747 77.1958 23.648C77.4298 23.8213 77.7548 23.908 78.1708 23.908C78.5695 23.908 78.9248 23.817 79.2368 23.635C79.5575 23.453 79.7872 23.1843 79.9258 22.829L80.1988 23.804C80.0428 24.2113 79.7612 24.5277 79.3538 24.753C78.9552 24.9783 78.4482 25.091 77.8328 25.091ZM83.6363 25V18.058H85.1833V19.969L85.0013 19.41C85.2093 18.942 85.5343 18.5867 85.9763 18.344C86.427 18.1013 86.986 17.98 87.6533 17.98V19.527C87.584 19.5097 87.519 19.501 87.4583 19.501C87.3976 19.4923 87.337 19.488 87.2763 19.488C86.661 19.488 86.1713 19.67 85.8073 20.034C85.4433 20.3893 85.2613 20.9223 85.2613 21.633V25H83.6363ZM94.6901 25V17.33H91.6741V15.9H99.3961V17.33H96.3801V25H94.6901ZM100.508 25V18.058H102.133V25H100.508ZM101.327 16.914C101.024 16.914 100.773 16.8187 100.573 16.628C100.383 16.4373 100.287 16.2077 100.287 15.939C100.287 15.6617 100.383 15.432 100.573 15.25C100.773 15.0593 101.024 14.964 101.327 14.964C101.631 14.964 101.878 15.055 102.068 15.237C102.268 15.4103 102.367 15.6313 102.367 15.9C102.367 16.186 102.272 16.4287 102.081 16.628C101.891 16.8187 101.639 16.914 101.327 16.914ZM107.451 25.091C106.723 25.091 106.073 24.9393 105.501 24.636C104.938 24.324 104.496 23.8993 104.175 23.362C103.855 22.8247 103.694 22.2137 103.694 21.529C103.694 20.8357 103.855 20.2247 104.175 19.696C104.496 19.1587 104.938 18.7383 105.501 18.435C106.073 18.1317 106.723 17.98 107.451 17.98C108.127 17.98 108.721 18.1187 109.232 18.396C109.752 18.6647 110.147 19.0633 110.415 19.592L109.167 20.32C108.959 19.9907 108.704 19.748 108.4 19.592C108.106 19.436 107.785 19.358 107.438 19.358C107.04 19.358 106.68 19.4447 106.359 19.618C106.039 19.7913 105.787 20.0427 105.605 20.372C105.423 20.6927 105.332 21.0783 105.332 21.529C105.332 21.9797 105.423 22.3697 105.605 22.699C105.787 23.0197 106.039 23.2667 106.359 23.44C106.68 23.6133 107.04 23.7 107.438 23.7C107.785 23.7 108.106 23.622 108.4 23.466C108.704 23.31 108.959 23.0673 109.167 22.738L110.415 23.466C110.147 23.986 109.752 24.389 109.232 24.675C108.721 24.9523 108.127 25.091 107.451 25.091ZM113.082 23.453L113.121 21.412L116.748 18.058H118.698L115.617 21.152L114.759 21.867L113.082 23.453ZM111.756 25V15.354H113.381V25H111.756ZM116.995 25L114.46 21.867L115.487 20.567L118.971 25H116.995ZM123.005 25.091C122.233 25.091 121.557 24.9393 120.977 24.636C120.405 24.324 119.958 23.8993 119.638 23.362C119.326 22.8247 119.17 22.2137 119.17 21.529C119.17 20.8357 119.321 20.2247 119.625 19.696C119.937 19.1587 120.361 18.7383 120.899 18.435C121.445 18.1317 122.064 17.98 122.758 17.98C123.434 17.98 124.036 18.1273 124.565 18.422C125.093 18.7167 125.509 19.1327 125.813 19.67C126.116 20.2073 126.268 20.84 126.268 21.568C126.268 21.6373 126.263 21.7153 126.255 21.802C126.255 21.8887 126.25 21.971 126.242 22.049H120.457V20.97H125.384L124.747 21.308C124.755 20.9093 124.673 20.5583 124.5 20.255C124.326 19.9517 124.088 19.7133 123.785 19.54C123.49 19.3667 123.148 19.28 122.758 19.28C122.359 19.28 122.008 19.3667 121.705 19.54C121.41 19.7133 121.176 19.956 121.003 20.268C120.838 20.5713 120.756 20.931 120.756 21.347V21.607C120.756 22.023 120.851 22.3913 121.042 22.712C121.232 23.0327 121.501 23.2797 121.848 23.453C122.194 23.6263 122.593 23.713 123.044 23.713C123.434 23.713 123.785 23.6523 124.097 23.531C124.409 23.4097 124.686 23.219 124.929 22.959L125.8 23.96C125.488 24.324 125.093 24.6057 124.617 24.805C124.149 24.9957 123.611 25.091 123.005 25.091ZM130.442 25.091C129.679 25.091 129.09 24.896 128.674 24.506C128.258 24.1073 128.05 23.5223 128.05 22.751V16.524H129.675V22.712C129.675 23.0413 129.757 23.297 129.922 23.479C130.095 23.661 130.333 23.752 130.637 23.752C131.001 23.752 131.304 23.6567 131.547 23.466L132.002 24.623C131.811 24.779 131.577 24.896 131.3 24.974C131.022 25.052 130.736 25.091 130.442 25.091ZM126.906 19.41V18.11H131.534V19.41H126.906Z" fill="#285CED"/>
</svg>
