<svg width="29" height="27" viewBox="0 0 29 27" fill="none" xmlns="http://www.w3.org/2000/svg">
<path d="M23 13V10.6075C23 9.38194 22.4382 8.22401 21.4755 7.46554L14.4755 1.95039C13.0234 0.806341 10.9766 0.806341 9.52451 1.95038L2.52451 7.46554C1.56184 8.22401 1 9.38193 1 10.6075L1 19.1111C1 21.3202 2.79086 23.1111 5 23.1111H8.52632H16" stroke="#838383" stroke-width="1.5"/>
<path d="M20 14.5L20 11.6296C20 10.5251 19.1046 9.62965 18 9.62965L6 9.62965C4.89543 9.62965 4 10.5251 4 11.6296L4 17.2593C4 18.3638 4.89543 19.2593 6 19.2593L20 19.2593" stroke="#838383" stroke-width="1.5"/>
<ellipse cx="1" cy="0.962963" rx="1" ry="0.962963" transform="matrix(1 0 0 -1 15 15.4074)" stroke="#838383" stroke-width="1.5"/>
<path d="M7 14.4445H11.5" stroke="#838383" stroke-width="2" stroke-linecap="round"/>
<path d="M27.7819 16.2322C27.8515 16.3336 27.899 16.4485 27.9213 16.5694C28.075 17.3679 28.0043 18.1935 27.7169 18.9542C27.4296 19.715 26.9368 20.3811 26.2935 20.8785C25.6502 21.376 24.8815 21.6852 24.0729 21.7719C23.2643 21.8586 22.4475 21.7193 21.7134 21.3695L17.5316 25.4777C17.1909 25.8124 16.7324 26 16.2547 26H15.8536C15.6272 26 15.4101 25.9101 15.25 25.75C15.0899 25.5899 15 25.3728 15 25.1464V24.7499C15 24.2697 15.1907 23.8092 15.5302 23.4696L19.6479 19.3502C19.2799 18.6163 19.1253 17.7937 19.2018 16.9763C19.2783 16.1588 19.5828 15.3792 20.0806 14.7262C20.5784 14.0733 21.2496 13.5733 22.0176 13.283C22.7857 12.9928 23.6198 12.9241 24.425 13.0847C24.548 13.1217 24.6614 13.1854 24.7571 13.2711C24.8528 13.3569 24.9285 13.4626 24.9789 13.5808L22.6711 15.8886C22.4597 16.1043 22.3413 16.3943 22.3413 16.6963C22.3413 16.9983 22.4597 17.2843 22.6711 17.5L23.5481 18.2887C23.6557 18.4003 23.7847 18.4892 23.9275 18.5498C24.0702 18.6105 24.2237 18.6418 24.3789 18.6418C24.534 18.6418 24.6875 18.6105 24.8302 18.5498C24.973 18.4892 25.102 18.4003 25.2096 18.2887L27.5174 15.9809C27.6222 16.0452 27.7123 16.1308 27.7819 16.2322Z" stroke="#838383" stroke-width="1.5" stroke-linecap="round" stroke-linejoin="round"/>
</svg>
