<svg width="18" height="15" viewBox="0 0 18 15" fill="none" xmlns="http://www.w3.org/2000/svg">
<path d="M17 10.33V7.50552C17 6.17305 16.3365 4.92806 15.2304 4.18508L11.2304 1.4982C9.8815 0.59212 8.1185 0.592121 6.7696 1.4982L2.7696 4.18508C1.6635 4.92806 1 6.17305 1 7.50552V10.33C1 12.5391 2.79086 14.33 5 14.33H6.47368H11.5263H13C15.2091 14.33 17 12.5391 17 10.33Z" stroke="#697181" stroke-width="0.5"/>
<rect width="11.6364" height="5.97083" rx="2" transform="matrix(1 0 0 -1 3.18188 11.9414)" stroke="#697181" stroke-width="0.5"/>
<ellipse rx="0.727273" ry="0.597083" transform="matrix(1 0 0 -1 11.9094 8.9576)" stroke="#697181" stroke-width="0.5"/>
<path d="M5.36353 8.95703H8.63625" stroke="#697181" stroke-width="0.5" stroke-linecap="round"/>
</svg>
