<svg width="17" height="17" viewBox="0 0 17 17" fill="none" xmlns="http://www.w3.org/2000/svg">
<path d="M3.72727 9.18359H1" stroke="#697181" stroke-width="0.5" stroke-linecap="round" stroke-linejoin="round"/>
<path d="M1 7.81641H3.72727" stroke="#697181" stroke-width="0.5" stroke-linecap="round" stroke-linejoin="round"/>
<path d="M13.2729 7.81641H16.0002" stroke="#697181" stroke-width="0.5" stroke-linecap="round" stroke-linejoin="round"/>
<path d="M16.0002 9.18359H13.2729" stroke="#697181" stroke-width="0.5" stroke-linecap="round" stroke-linejoin="round"/>
<path d="M9.18188 3.72727V1" stroke="#697181" stroke-width="0.5" stroke-linecap="round" stroke-linejoin="round"/>
<path d="M7.81812 1V3.72727" stroke="#697181" stroke-width="0.5" stroke-linecap="round" stroke-linejoin="round"/>
<path d="M7.81836 13.2734V16.0007" stroke="#697181" stroke-width="0.5" stroke-linecap="round" stroke-linejoin="round"/>
<path d="M9.18164 16.0007V13.2734" stroke="#697181" stroke-width="0.5" stroke-linecap="round" stroke-linejoin="round"/>
<path d="M9.86341 13.272C10.0442 13.272 10.2177 13.2002 10.3455 13.0723C10.4734 12.9445 10.5452 12.771 10.5452 12.5902V11.2266C10.5452 11.0457 10.6171 10.8723 10.7449 10.7444C10.8728 10.6166 11.0462 10.5447 11.2271 10.5447H12.5907C12.7715 10.5447 12.9449 10.4729 13.0728 10.345C13.2007 10.2172 13.2725 10.0438 13.2725 9.86293V7.13565C13.2725 6.95482 13.2007 6.7814 13.0728 6.65354C12.9449 6.52567 12.7715 6.45384 12.5907 6.45384H11.2271C11.0462 6.45384 10.8728 6.382 10.7449 6.25414C10.6171 6.12627 10.5452 5.95285 10.5452 5.77202V4.40838C10.5452 4.22755 10.4734 4.05413 10.3455 3.92626C10.2177 3.7984 10.0442 3.72656 9.86341 3.72656H7.13614C6.95531 3.72656 6.78189 3.7984 6.65402 3.92626C6.52616 4.05413 6.45432 4.22755 6.45432 4.40838V5.77202C6.45432 5.95285 6.38249 6.12627 6.25462 6.25414C6.12676 6.382 5.95333 6.45384 5.77251 6.45384H4.40887C4.22804 6.45384 4.05462 6.52567 3.92675 6.65354C3.79889 6.7814 3.72705 6.95482 3.72705 7.13565V9.86293C3.72705 10.0438 3.79889 10.2172 3.92675 10.345C4.05462 10.4729 4.22804 10.5447 4.40887 10.5447H5.77251C5.95333 10.5447 6.12676 10.6166 6.25462 10.7444C6.38249 10.8723 6.45432 11.0457 6.45432 11.2266V12.5902C6.45432 12.771 6.52616 12.9445 6.65402 13.0723C6.78189 13.2002 6.95531 13.272 7.13614 13.272H9.86341Z" stroke="#697181" stroke-width="0.5" stroke-linecap="round" stroke-linejoin="round"/>
</svg>
