<svg width="24" height="5" viewBox="0 0 24 5" fill="none" xmlns="http://www.w3.org/2000/svg">
<path d="M2.36678 0C1.05913 0 0 1.02767 0 2.29646C0 3.56526 1.05913 4.59292 2.36678 4.59292C3.67443 4.59292 4.73356 3.56526 4.73356 2.29646C4.73356 1.02767 3.67443 0 2.36678 0ZM11.8339 0C10.5263 0 9.46712 1.02767 9.46712 2.29646C9.46712 3.56526 10.5263 4.59292 11.8339 4.59292C13.1416 4.59292 14.2007 3.56526 14.2007 2.29646C14.2007 1.02767 13.1416 0 11.8339 0ZM21.301 0C19.9934 0 18.9342 1.02767 18.9342 2.29646C18.9342 3.56526 19.9934 4.59292 21.301 4.59292C22.6087 4.59292 23.6678 3.56526 23.6678 2.29646C23.6678 1.02767 22.6087 0 21.301 0Z" fill="black"/>
</svg>
