<svg width="19" height="19" viewBox="0 0 19 19" fill="none" xmlns="http://www.w3.org/2000/svg">
<path d="M1 18H15.3782" stroke="#D0D0CE" stroke-width="1.71429" stroke-linecap="round" stroke-linejoin="round"/>
<path d="M9.35373 12.9128C9.02123 13.2463 8.59447 13.4698 8.13098 13.5533V13.5533C6.5656 13.835 5.19525 12.4673 5.45339 10.8979V10.8979C5.5322 10.4187 5.76021 9.97287 6.10411 9.62999L14.372 1.38664C14.4935 1.26413 14.6381 1.16689 14.7974 1.10053C14.9567 1.03417 15.1275 1 15.3001 1C15.4726 1 15.6435 1.03417 15.8028 1.10053C15.962 1.16689 16.1066 1.26413 16.2281 1.38664L17.6137 2.77218C17.7362 2.89369 17.8334 3.03826 17.8998 3.19754C17.9661 3.35682 18.0003 3.52767 18.0003 3.70022C18.0003 3.87278 17.9661 4.04362 17.8998 4.20291C17.8334 4.36219 17.7362 4.50676 17.6137 4.62827L9.35373 12.9128Z" stroke="#D0D0CE" stroke-width="1.71429" stroke-linecap="round" stroke-linejoin="round"/>
</svg>
