<svg width="19" height="19" viewBox="0 0 19 19" fill="none" xmlns="http://www.w3.org/2000/svg">
<path d="M1 18H15.3782" stroke="black" stroke-width="1.71429" stroke-linecap="round" stroke-linejoin="round"/>
<path d="M9.35398 12.9128C9.02147 13.2463 8.59471 13.4698 8.13122 13.5533V13.5533C6.56585 13.835 5.1955 12.4673 5.45363 10.8979V10.8979C5.53245 10.4187 5.76046 9.97287 6.10436 9.62999L14.3723 1.38664C14.4938 1.26413 14.6384 1.16689 14.7976 1.10053C14.9569 1.03417 15.1278 1 15.3003 1C15.4729 1 15.6437 1.03417 15.803 1.10053C15.9623 1.16689 16.1069 1.26413 16.2284 1.38664L17.6139 2.77218C17.7364 2.89369 17.8337 3.03826 17.9 3.19754C17.9664 3.35682 18.0005 3.52767 18.0005 3.70022C18.0005 3.87278 17.9664 4.04362 17.9 4.20291C17.8337 4.36219 17.7364 4.50676 17.6139 4.62827L9.35398 12.9128Z" stroke="black" stroke-width="1.71429" stroke-linecap="round" stroke-linejoin="round"/>
</svg>
