<svg width="489" height="468" viewBox="0 0 489 468" fill="none" xmlns="http://www.w3.org/2000/svg">
<g filter="url(#filter0_d_4064_37972)">
<rect x="4" width="481" height="460" rx="10" fill="#212238"/>
<rect x="4.5" y="0.5" width="480" height="459" rx="9.5" stroke="#354A5E"/>
</g>
<path d="M149.824 288V276.8H154.016C154.965 276.8 155.781 276.955 156.464 277.264C157.147 277.563 157.669 278 158.032 278.576C158.405 279.141 158.592 279.829 158.592 280.64C158.592 281.429 158.405 282.112 158.032 282.688C157.669 283.253 157.147 283.691 156.464 284C155.781 284.299 154.965 284.448 154.016 284.448H150.48L151.008 283.904V288H149.824ZM157.472 288L154.592 283.936H155.872L158.768 288H157.472ZM151.008 284L150.48 283.44H153.984C155.104 283.44 155.952 283.195 156.528 282.704C157.115 282.213 157.408 281.525 157.408 280.64C157.408 279.744 157.115 279.051 156.528 278.56C155.952 278.069 155.104 277.824 153.984 277.824H150.48L151.008 277.264V284ZM164.715 288.08C163.84 288.08 163.072 287.899 162.411 287.536C161.749 287.163 161.232 286.656 160.859 286.016C160.485 285.365 160.299 284.624 160.299 283.792C160.299 282.96 160.475 282.224 160.827 281.584C161.189 280.944 161.68 280.443 162.299 280.08C162.928 279.707 163.632 279.52 164.411 279.52C165.2 279.52 165.899 279.701 166.507 280.064C167.125 280.416 167.611 280.917 167.963 281.568C168.315 282.208 168.491 282.949 168.491 283.792C168.491 283.845 168.485 283.904 168.475 283.968C168.475 284.021 168.475 284.08 168.475 284.144H161.163V283.296H167.867L167.419 283.632C167.419 283.024 167.285 282.485 167.019 282.016C166.763 281.536 166.411 281.163 165.963 280.896C165.515 280.629 164.997 280.496 164.411 280.496C163.835 280.496 163.317 280.629 162.859 280.896C162.4 281.163 162.043 281.536 161.787 282.016C161.531 282.496 161.403 283.045 161.403 283.664V283.84C161.403 284.48 161.541 285.045 161.819 285.536C162.107 286.016 162.501 286.395 163.003 286.672C163.515 286.939 164.096 287.072 164.747 287.072C165.259 287.072 165.733 286.981 166.171 286.8C166.619 286.619 167.003 286.341 167.323 285.968L167.963 286.704C167.589 287.152 167.12 287.493 166.555 287.728C166 287.963 165.387 288.08 164.715 288.08ZM173.059 288.08C172.365 288.08 171.709 287.984 171.091 287.792C170.472 287.589 169.987 287.339 169.635 287.04L170.147 286.144C170.488 286.4 170.925 286.624 171.459 286.816C171.992 286.997 172.552 287.088 173.139 287.088C173.939 287.088 174.515 286.965 174.867 286.72C175.219 286.464 175.395 286.128 175.395 285.712C175.395 285.403 175.293 285.163 175.091 284.992C174.899 284.811 174.643 284.677 174.323 284.592C174.003 284.496 173.645 284.416 173.251 284.352C172.856 284.288 172.461 284.213 172.067 284.128C171.683 284.043 171.331 283.92 171.011 283.76C170.691 283.589 170.429 283.36 170.227 283.072C170.035 282.784 169.939 282.4 169.939 281.92C169.939 281.461 170.067 281.051 170.323 280.688C170.579 280.325 170.952 280.043 171.443 279.84C171.944 279.627 172.552 279.52 173.267 279.52C173.811 279.52 174.355 279.595 174.899 279.744C175.443 279.883 175.891 280.069 176.243 280.304L175.747 281.216C175.373 280.96 174.973 280.779 174.547 280.672C174.12 280.555 173.693 280.496 173.267 280.496C172.509 280.496 171.949 280.629 171.587 280.896C171.235 281.152 171.059 281.483 171.059 281.888C171.059 282.208 171.155 282.459 171.347 282.64C171.549 282.821 171.811 282.965 172.131 283.072C172.461 283.168 172.819 283.248 173.203 283.312C173.597 283.376 173.987 283.456 174.371 283.552C174.765 283.637 175.123 283.76 175.443 283.92C175.773 284.069 176.035 284.288 176.227 284.576C176.429 284.853 176.531 285.221 176.531 285.68C176.531 286.171 176.392 286.597 176.115 286.96C175.848 287.312 175.453 287.589 174.931 287.792C174.419 287.984 173.795 288.08 173.059 288.08ZM182.087 288.08C181.373 288.08 180.749 287.947 180.215 287.68C179.682 287.413 179.266 287.013 178.967 286.48C178.679 285.947 178.535 285.28 178.535 284.48V279.6H179.671V284.352C179.671 285.248 179.89 285.925 180.327 286.384C180.775 286.832 181.399 287.056 182.199 287.056C182.786 287.056 183.293 286.939 183.719 286.704C184.157 286.459 184.487 286.107 184.711 285.648C184.946 285.189 185.063 284.64 185.063 284V279.6H186.199V288H185.111V285.696L185.287 286.112C185.021 286.731 184.605 287.216 184.039 287.568C183.485 287.909 182.834 288.08 182.087 288.08ZM192.933 288.08C192.059 288.08 191.291 287.899 190.629 287.536C189.968 287.163 189.451 286.656 189.077 286.016C188.704 285.365 188.517 284.624 188.517 283.792C188.517 282.96 188.693 282.224 189.045 281.584C189.408 280.944 189.899 280.443 190.517 280.08C191.147 279.707 191.851 279.52 192.629 279.52C193.419 279.52 194.117 279.701 194.725 280.064C195.344 280.416 195.829 280.917 196.181 281.568C196.533 282.208 196.709 282.949 196.709 283.792C196.709 283.845 196.704 283.904 196.693 283.968C196.693 284.021 196.693 284.08 196.693 284.144H189.381V283.296H196.085L195.637 283.632C195.637 283.024 195.504 282.485 195.237 282.016C194.981 281.536 194.629 281.163 194.181 280.896C193.733 280.629 193.216 280.496 192.629 280.496C192.053 280.496 191.536 280.629 191.077 280.896C190.619 281.163 190.261 281.536 190.005 282.016C189.749 282.496 189.621 283.045 189.621 283.664V283.84C189.621 284.48 189.76 285.045 190.037 285.536C190.325 286.016 190.72 286.395 191.221 286.672C191.733 286.939 192.315 287.072 192.965 287.072C193.477 287.072 193.952 286.981 194.389 286.8C194.837 286.619 195.221 286.341 195.541 285.968L196.181 286.704C195.808 287.152 195.339 287.493 194.773 287.728C194.219 287.963 193.605 288.08 192.933 288.08ZM199.022 288V276.128H200.158V288H199.022ZM206.021 288.08C205.232 288.08 204.624 287.867 204.197 287.44C203.771 287.013 203.557 286.411 203.557 285.632V277.744H204.693V285.568C204.693 286.059 204.816 286.437 205.061 286.704C205.317 286.971 205.68 287.104 206.149 287.104C206.651 287.104 207.067 286.96 207.397 286.672L207.797 287.488C207.573 287.691 207.301 287.84 206.981 287.936C206.672 288.032 206.352 288.08 206.021 288.08ZM202.053 280.544V279.6H207.253V280.544H202.053ZM212.992 288.08C212.182 288.08 211.451 287.899 210.8 287.536C210.16 287.163 209.654 286.656 209.28 286.016C208.907 285.365 208.72 284.624 208.72 283.792C208.72 282.949 208.907 282.208 209.28 281.568C209.654 280.928 210.16 280.427 210.8 280.064C211.44 279.701 212.171 279.52 212.992 279.52C213.824 279.52 214.56 279.701 215.2 280.064C215.851 280.427 216.358 280.928 216.72 281.568C217.094 282.208 217.28 282.949 217.28 283.792C217.28 284.624 217.094 285.365 216.72 286.016C216.358 286.656 215.851 287.163 215.2 287.536C214.55 287.899 213.814 288.08 212.992 288.08ZM212.992 287.072C213.6 287.072 214.139 286.939 214.608 286.672C215.078 286.395 215.446 286.011 215.712 285.52C215.99 285.019 216.128 284.443 216.128 283.792C216.128 283.131 215.99 282.555 215.712 282.064C215.446 281.573 215.078 281.195 214.608 280.928C214.139 280.651 213.606 280.512 213.008 280.512C212.411 280.512 211.878 280.651 211.408 280.928C210.939 281.195 210.566 281.573 210.288 282.064C210.011 282.555 209.872 283.131 209.872 283.792C209.872 284.443 210.011 285.019 210.288 285.52C210.566 286.011 210.939 286.395 211.408 286.672C211.878 286.939 212.406 287.072 212.992 287.072ZM221.856 288.08C221.162 288.08 220.506 287.984 219.888 287.792C219.269 287.589 218.784 287.339 218.432 287.04L218.944 286.144C219.285 286.4 219.722 286.624 220.256 286.816C220.789 286.997 221.349 287.088 221.936 287.088C222.736 287.088 223.312 286.965 223.664 286.72C224.016 286.464 224.192 286.128 224.192 285.712C224.192 285.403 224.09 285.163 223.888 284.992C223.696 284.811 223.44 284.677 223.12 284.592C222.8 284.496 222.442 284.416 222.048 284.352C221.653 284.288 221.258 284.213 220.864 284.128C220.48 284.043 220.128 283.92 219.808 283.76C219.488 283.589 219.226 283.36 219.024 283.072C218.832 282.784 218.736 282.4 218.736 281.92C218.736 281.461 218.864 281.051 219.12 280.688C219.376 280.325 219.749 280.043 220.24 279.84C220.741 279.627 221.349 279.52 222.064 279.52C222.608 279.52 223.152 279.595 223.696 279.744C224.24 279.883 224.688 280.069 225.04 280.304L224.544 281.216C224.17 280.96 223.77 280.779 223.344 280.672C222.917 280.555 222.49 280.496 222.064 280.496C221.306 280.496 220.746 280.629 220.384 280.896C220.032 281.152 219.856 281.483 219.856 281.888C219.856 282.208 219.952 282.459 220.144 282.64C220.346 282.821 220.608 282.965 220.928 283.072C221.258 283.168 221.616 283.248 222 283.312C222.394 283.376 222.784 283.456 223.168 283.552C223.562 283.637 223.92 283.76 224.24 283.92C224.57 284.069 224.832 284.288 225.024 284.576C225.226 284.853 225.328 285.221 225.328 285.68C225.328 286.171 225.189 286.597 224.912 286.96C224.645 287.312 224.25 287.589 223.728 287.792C223.216 287.984 222.592 288.08 221.856 288.08Z" fill="#D0D0CE"/>
<path d="M109.18 291.216C108.304 291.216 107.434 291.102 106.57 290.874C105.706 290.634 104.974 290.298 104.374 289.866L105.508 287.634C105.988 287.982 106.546 288.258 107.182 288.462C107.818 288.666 108.46 288.768 109.108 288.768C109.84 288.768 110.416 288.624 110.836 288.336C111.256 288.048 111.466 287.652 111.466 287.148C111.466 286.668 111.28 286.29 110.908 286.014C110.536 285.738 109.936 285.6 109.108 285.6H107.776V283.674L111.286 279.696L111.61 280.74H105.004V278.4H113.824V280.29L110.332 284.268L108.856 283.422H109.702C111.25 283.422 112.42 283.77 113.212 284.466C114.004 285.162 114.4 286.056 114.4 287.148C114.4 287.856 114.214 288.522 113.842 289.146C113.47 289.758 112.9 290.256 112.132 290.64C111.364 291.024 110.38 291.216 109.18 291.216ZM119.744 291.216C118.868 291.216 117.998 291.102 117.134 290.874C116.27 290.634 115.538 290.298 114.938 289.866L116.072 287.634C116.552 287.982 117.11 288.258 117.746 288.462C118.382 288.666 119.024 288.768 119.672 288.768C120.404 288.768 120.98 288.624 121.4 288.336C121.82 288.048 122.03 287.652 122.03 287.148C122.03 286.668 121.844 286.29 121.472 286.014C121.1 285.738 120.5 285.6 119.672 285.6H118.34V283.674L121.85 279.696L122.174 280.74H115.568V278.4H124.388V280.29L120.896 284.268L119.42 283.422H120.266C121.814 283.422 122.984 283.77 123.776 284.466C124.568 285.162 124.964 286.056 124.964 287.148C124.964 287.856 124.778 288.522 124.406 289.146C124.034 289.758 123.464 290.256 122.696 290.64C121.928 291.024 120.944 291.216 119.744 291.216Z" fill="#D0D0CE"/>
<g opacity="0.5">
<rect x="300.899" y="269.913" width="2.12678" height="28.087" rx="0.941452" fill="#1A7F1C"/>
<rect x="353.846" y="269.913" width="2.12678" height="28.087" rx="0.941452" fill="#1A7F1C"/>
<rect x="284.016" y="269.913" width="2.12678" height="28.087" rx="0.941452" fill="#1A7F1C"/>
<rect x="336.965" y="269.913" width="2.12678" height="28.087" rx="0.941452" fill="#1A7F1C"/>
<rect x="389.911" y="269.913" width="2.12678" height="28.087" rx="0.941452" fill="#1A7F1C"/>
<rect x="318.933" y="260" width="2.12678" height="38" rx="0.941452" fill="#1A7F1C"/>
<rect x="371.88" y="260" width="2.12678" height="38" rx="0.941452" fill="#1A7F1C"/>
<rect x="306.911" y="280.651" width="2.12678" height="17.3478" rx="0.941452" fill="#1A7F1C"/>
<rect x="359.858" y="280.651" width="2.12678" height="17.3478" rx="0.941452" fill="#1A7F1C"/>
<rect x="290.03" y="280.651" width="2.12678" height="17.3478" rx="0.941452" fill="#1A7F1C"/>
<rect x="342.976" y="280.651" width="2.12678" height="17.3478" rx="0.941452" fill="#1A7F1C"/>
<rect x="395.923" y="280.651" width="2.12678" height="17.3478" rx="0.941452" fill="#1A7F1C"/>
<rect x="272" y="270.739" width="2.12678" height="27.2609" rx="0.941452" fill="#1A7F1C"/>
<rect x="324.943" y="270.739" width="2.12678" height="27.2609" rx="0.941452" fill="#1A7F1C"/>
<rect x="377.891" y="270.739" width="2.12678" height="27.2609" rx="0.941452" fill="#1A7F1C"/>
<rect x="312.923" y="285.609" width="2.12678" height="12.3913" rx="0.941452" fill="#1A7F1C"/>
<rect x="365.87" y="285.609" width="2.12678" height="12.3913" rx="0.941452" fill="#1A7F1C"/>
<rect x="296.04" y="285.609" width="2.12678" height="12.3913" rx="0.941452" fill="#1A7F1C"/>
<rect x="348.986" y="285.609" width="2.12678" height="12.3913" rx="0.941452" fill="#1A7F1C"/>
<rect x="401.933" y="285.609" width="2.12678" height="12.3913" rx="0.941452" fill="#1A7F1C"/>
<rect x="278.003" y="264.957" width="2.12678" height="33.0435" rx="0.941452" fill="#1A7F1C"/>
<rect x="330.953" y="264.957" width="2.12678" height="33.0435" rx="0.941452" fill="#1A7F1C"/>
<rect x="383.898" y="264.957" width="2.12678" height="33.0435" rx="0.941452" fill="#1A7F1C"/>
</g>
<path d="M150.88 104.808H156.8V105.816H150.88V104.808ZM151.008 109.976H157.744V111H149.824V99.8H157.504V100.824H151.008V109.976ZM164.575 102.52C165.258 102.52 165.855 102.653 166.367 102.92C166.89 103.176 167.295 103.571 167.583 104.104C167.882 104.637 168.031 105.309 168.031 106.12V111H166.895V106.232C166.895 105.347 166.671 104.68 166.223 104.232C165.786 103.773 165.167 103.544 164.367 103.544C163.77 103.544 163.247 103.667 162.799 103.912C162.362 104.147 162.02 104.493 161.775 104.952C161.54 105.4 161.423 105.944 161.423 106.584V111H160.287V102.6H161.375V104.904L161.199 104.472C161.466 103.864 161.892 103.389 162.479 103.048C163.066 102.696 163.764 102.52 164.575 102.52ZM178.775 111.08C177.943 111.08 177.196 110.899 176.535 110.536C175.884 110.163 175.372 109.656 174.999 109.016C174.626 108.365 174.439 107.624 174.439 106.792C174.439 105.949 174.626 105.208 174.999 104.568C175.372 103.928 175.884 103.427 176.535 103.064C177.196 102.701 177.943 102.52 178.775 102.52C179.49 102.52 180.135 102.659 180.711 102.936C181.287 103.213 181.74 103.629 182.071 104.184L181.223 104.76C180.935 104.333 180.578 104.019 180.151 103.816C179.724 103.613 179.26 103.512 178.759 103.512C178.162 103.512 177.623 103.651 177.143 103.928C176.663 104.195 176.284 104.573 176.007 105.064C175.73 105.555 175.591 106.131 175.591 106.792C175.591 107.453 175.73 108.029 176.007 108.52C176.284 109.011 176.663 109.395 177.143 109.672C177.623 109.939 178.162 110.072 178.759 110.072C179.26 110.072 179.724 109.971 180.151 109.768C180.578 109.565 180.935 109.256 181.223 108.84L182.071 109.416C181.74 109.96 181.287 110.376 180.711 110.664C180.135 110.941 179.49 111.08 178.775 111.08ZM187.775 111.08C187.06 111.08 186.436 110.947 185.903 110.68C185.369 110.413 184.953 110.013 184.655 109.48C184.367 108.947 184.223 108.28 184.223 107.48V102.6H185.359V107.352C185.359 108.248 185.577 108.925 186.015 109.384C186.463 109.832 187.087 110.056 187.887 110.056C188.473 110.056 188.98 109.939 189.407 109.704C189.844 109.459 190.175 109.107 190.399 108.648C190.633 108.189 190.751 107.64 190.751 107V102.6H191.887V111H190.799V108.696L190.975 109.112C190.708 109.731 190.292 110.216 189.727 110.568C189.172 110.909 188.521 111.08 187.775 111.08ZM195.053 111V102.6H196.141V104.888L196.029 104.488C196.263 103.848 196.658 103.363 197.213 103.032C197.767 102.691 198.455 102.52 199.277 102.52V103.624C199.234 103.624 199.191 103.624 199.149 103.624C199.106 103.613 199.063 103.608 199.021 103.608C198.135 103.608 197.442 103.88 196.941 104.424C196.439 104.957 196.189 105.72 196.189 106.712V111H195.053ZM203.699 111.08C203.006 111.08 202.35 110.984 201.731 110.792C201.113 110.589 200.627 110.339 200.275 110.04L200.787 109.144C201.129 109.4 201.566 109.624 202.099 109.816C202.633 109.997 203.193 110.088 203.779 110.088C204.579 110.088 205.155 109.965 205.507 109.72C205.859 109.464 206.035 109.128 206.035 108.712C206.035 108.403 205.934 108.163 205.731 107.992C205.539 107.811 205.283 107.677 204.963 107.592C204.643 107.496 204.286 107.416 203.891 107.352C203.497 107.288 203.102 107.213 202.707 107.128C202.323 107.043 201.971 106.92 201.651 106.76C201.331 106.589 201.07 106.36 200.867 106.072C200.675 105.784 200.579 105.4 200.579 104.92C200.579 104.461 200.707 104.051 200.963 103.688C201.219 103.325 201.593 103.043 202.083 102.84C202.585 102.627 203.193 102.52 203.907 102.52C204.451 102.52 204.995 102.595 205.539 102.744C206.083 102.883 206.531 103.069 206.883 103.304L206.387 104.216C206.014 103.96 205.614 103.779 205.187 103.672C204.761 103.555 204.334 103.496 203.907 103.496C203.15 103.496 202.59 103.629 202.227 103.896C201.875 104.152 201.699 104.483 201.699 104.888C201.699 105.208 201.795 105.459 201.987 105.64C202.19 105.821 202.451 105.965 202.771 106.072C203.102 106.168 203.459 106.248 203.843 106.312C204.238 106.376 204.627 106.456 205.011 106.552C205.406 106.637 205.763 106.76 206.083 106.92C206.414 107.069 206.675 107.288 206.867 107.576C207.07 107.853 207.171 108.221 207.171 108.68C207.171 109.171 207.033 109.597 206.755 109.96C206.489 110.312 206.094 110.589 205.571 110.792C205.059 110.984 204.435 111.08 203.699 111.08ZM212.68 111.08C211.869 111.08 211.139 110.899 210.488 110.536C209.848 110.163 209.341 109.656 208.968 109.016C208.595 108.365 208.408 107.624 208.408 106.792C208.408 105.949 208.595 105.208 208.968 104.568C209.341 103.928 209.848 103.427 210.488 103.064C211.128 102.701 211.859 102.52 212.68 102.52C213.512 102.52 214.248 102.701 214.888 103.064C215.539 103.427 216.045 103.928 216.408 104.568C216.781 105.208 216.968 105.949 216.968 106.792C216.968 107.624 216.781 108.365 216.408 109.016C216.045 109.656 215.539 110.163 214.888 110.536C214.237 110.899 213.501 111.08 212.68 111.08ZM212.68 110.072C213.288 110.072 213.827 109.939 214.296 109.672C214.765 109.395 215.133 109.011 215.4 108.52C215.677 108.019 215.816 107.443 215.816 106.792C215.816 106.131 215.677 105.555 215.4 105.064C215.133 104.573 214.765 104.195 214.296 103.928C213.827 103.651 213.293 103.512 212.696 103.512C212.099 103.512 211.565 103.651 211.096 103.928C210.627 104.195 210.253 104.573 209.976 105.064C209.699 105.555 209.56 106.131 209.56 106.792C209.56 107.443 209.699 108.019 209.976 108.52C210.253 109.011 210.627 109.395 211.096 109.672C211.565 109.939 212.093 110.072 212.68 110.072Z" fill="#D0D0CE"/>
<path d="M109.497 113.216C108.345 113.216 107.343 112.976 106.491 112.496C105.651 112.016 105.003 111.314 104.547 110.39C104.091 109.466 103.863 108.326 103.863 106.97C103.863 105.518 104.133 104.288 104.673 103.28C105.225 102.272 105.981 101.504 106.941 100.976C107.913 100.448 109.029 100.184 110.289 100.184C110.961 100.184 111.603 100.256 112.215 100.4C112.827 100.544 113.355 100.76 113.799 101.048L112.719 103.19C112.371 102.95 111.999 102.788 111.603 102.704C111.207 102.608 110.793 102.56 110.361 102.56C109.269 102.56 108.405 102.89 107.769 103.55C107.133 104.21 106.815 105.188 106.815 106.484C106.815 106.7 106.815 106.94 106.815 107.204C106.827 107.468 106.863 107.732 106.923 107.996L106.113 107.24C106.341 106.772 106.635 106.382 106.995 106.07C107.355 105.746 107.781 105.506 108.273 105.35C108.777 105.182 109.329 105.098 109.929 105.098C110.745 105.098 111.477 105.26 112.125 105.584C112.773 105.908 113.289 106.364 113.673 106.952C114.069 107.54 114.267 108.23 114.267 109.022C114.267 109.874 114.051 110.618 113.619 111.254C113.199 111.878 112.629 112.364 111.909 112.712C111.201 113.048 110.397 113.216 109.497 113.216ZM109.335 111.038C109.743 111.038 110.103 110.966 110.415 110.822C110.739 110.666 110.991 110.444 111.171 110.156C111.351 109.868 111.441 109.538 111.441 109.166C111.441 108.59 111.243 108.134 110.847 107.798C110.463 107.45 109.947 107.276 109.299 107.276C108.867 107.276 108.489 107.36 108.165 107.528C107.841 107.684 107.583 107.906 107.391 108.194C107.211 108.47 107.121 108.794 107.121 109.166C107.121 109.526 107.211 109.85 107.391 110.138C107.571 110.414 107.823 110.636 108.147 110.804C108.471 110.96 108.867 111.038 109.335 111.038ZM120.724 113.216C119.692 113.216 118.768 112.964 117.952 112.46C117.136 111.944 116.494 111.2 116.026 110.228C115.558 109.256 115.324 108.08 115.324 106.7C115.324 105.32 115.558 104.144 116.026 103.172C116.494 102.2 117.136 101.462 117.952 100.958C118.768 100.442 119.692 100.184 120.724 100.184C121.768 100.184 122.692 100.442 123.496 100.958C124.312 101.462 124.954 102.2 125.422 103.172C125.89 104.144 126.124 105.32 126.124 106.7C126.124 108.08 125.89 109.256 125.422 110.228C124.954 111.2 124.312 111.944 123.496 112.46C122.692 112.964 121.768 113.216 120.724 113.216ZM120.724 110.75C121.216 110.75 121.642 110.612 122.002 110.336C122.374 110.06 122.662 109.622 122.866 109.022C123.082 108.422 123.19 107.648 123.19 106.7C123.19 105.752 123.082 104.978 122.866 104.378C122.662 103.778 122.374 103.34 122.002 103.064C121.642 102.788 121.216 102.65 120.724 102.65C120.244 102.65 119.818 102.788 119.446 103.064C119.086 103.34 118.798 103.778 118.582 104.378C118.378 104.978 118.276 105.752 118.276 106.7C118.276 107.648 118.378 108.422 118.582 109.022C118.798 109.622 119.086 110.06 119.446 110.336C119.818 110.612 120.244 110.75 120.724 110.75Z" fill="#D0D0CE"/>
<g opacity="0.5">
<rect x="300.899" y="92.9126" width="2.12678" height="28.087" rx="0.941452" fill="#FDA700"/>
<rect x="353.846" y="92.9126" width="2.12678" height="28.087" rx="0.941452" fill="#FDA700"/>
<rect x="284.016" y="92.9126" width="2.12678" height="28.087" rx="0.941452" fill="#FDA700"/>
<rect x="336.965" y="92.9126" width="2.12678" height="28.087" rx="0.941452" fill="#FDA700"/>
<rect x="389.911" y="92.9126" width="2.12678" height="28.087" rx="0.941452" fill="#FDA700"/>
<rect x="318.933" y="83" width="2.12678" height="38" rx="0.941452" fill="#FDA700"/>
<rect x="371.88" y="83" width="2.12678" height="38" rx="0.941452" fill="#FDA700"/>
<rect x="306.911" y="103.651" width="2.12678" height="17.3478" rx="0.941452" fill="#FDA700"/>
<rect x="359.858" y="103.651" width="2.12678" height="17.3478" rx="0.941452" fill="#FDA700"/>
<rect x="290.03" y="103.651" width="2.12678" height="17.3478" rx="0.941452" fill="#FDA700"/>
<rect x="342.976" y="103.651" width="2.12678" height="17.3478" rx="0.941452" fill="#FDA700"/>
<rect x="395.923" y="103.651" width="2.12678" height="17.3478" rx="0.941452" fill="#FDA700"/>
<rect x="272" y="93.7388" width="2.12678" height="27.2609" rx="0.941452" fill="#FDA700"/>
<rect x="324.943" y="93.7388" width="2.12678" height="27.2609" rx="0.941452" fill="#FDA700"/>
<rect x="377.891" y="93.7388" width="2.12678" height="27.2609" rx="0.941452" fill="#FDA700"/>
<rect x="312.923" y="108.609" width="2.12678" height="12.3913" rx="0.941452" fill="#FDA700"/>
<rect x="365.87" y="108.609" width="2.12678" height="12.3913" rx="0.941452" fill="#FDA700"/>
<rect x="296.04" y="108.609" width="2.12678" height="12.3913" rx="0.941452" fill="#FDA700"/>
<rect x="348.986" y="108.609" width="2.12678" height="12.3913" rx="0.941452" fill="#FDA700"/>
<rect x="401.933" y="108.609" width="2.12678" height="12.3913" rx="0.941452" fill="#FDA700"/>
<rect x="278.003" y="87.9565" width="2.12678" height="33.0435" rx="0.941452" fill="#FDA700"/>
<rect x="330.953" y="87.9565" width="2.12678" height="33.0435" rx="0.941452" fill="#FDA700"/>
<rect x="383.898" y="87.9565" width="2.12678" height="33.0435" rx="0.941452" fill="#FDA700"/>
</g>
<path d="M453 110L455.293 107.707C455.683 107.317 455.683 106.683 455.293 106.293L453 104M455 107L448 107M452 117C457.523 117 462 112.523 462 107C462 101.477 457.523 97 452 97C446.477 97 442 101.477 442 107C442 112.523 446.477 117 452 117Z" stroke="#838383" stroke-width="1.5" stroke-linecap="round"/>
<path d="M149.824 200V188.8H154.016C154.965 188.8 155.781 188.955 156.464 189.264C157.147 189.563 157.669 190 158.032 190.576C158.405 191.141 158.592 191.829 158.592 192.64C158.592 193.429 158.405 194.112 158.032 194.688C157.669 195.253 157.147 195.691 156.464 196C155.781 196.309 154.965 196.464 154.016 196.464H150.48L151.008 195.904V200H149.824ZM151.008 196L150.48 195.424H153.984C155.104 195.424 155.952 195.184 156.528 194.704C157.115 194.213 157.408 193.525 157.408 192.64C157.408 191.744 157.115 191.051 156.528 190.56C155.952 190.069 155.104 189.824 153.984 189.824H150.48L151.008 189.264V196ZM164.433 200.08C163.559 200.08 162.791 199.899 162.129 199.536C161.468 199.163 160.951 198.656 160.577 198.016C160.204 197.365 160.017 196.624 160.017 195.792C160.017 194.96 160.193 194.224 160.545 193.584C160.908 192.944 161.399 192.443 162.017 192.08C162.647 191.707 163.351 191.52 164.129 191.52C164.919 191.52 165.617 191.701 166.225 192.064C166.844 192.416 167.329 192.917 167.681 193.568C168.033 194.208 168.209 194.949 168.209 195.792C168.209 195.845 168.204 195.904 168.193 195.968C168.193 196.021 168.193 196.08 168.193 196.144H160.881V195.296H167.585L167.137 195.632C167.137 195.024 167.004 194.485 166.737 194.016C166.481 193.536 166.129 193.163 165.681 192.896C165.233 192.629 164.716 192.496 164.129 192.496C163.553 192.496 163.036 192.629 162.577 192.896C162.119 193.163 161.761 193.536 161.505 194.016C161.249 194.496 161.121 195.045 161.121 195.664V195.84C161.121 196.48 161.26 197.045 161.537 197.536C161.825 198.016 162.22 198.395 162.721 198.672C163.233 198.939 163.815 199.072 164.465 199.072C164.977 199.072 165.452 198.981 165.889 198.8C166.337 198.619 166.721 198.341 167.041 197.968L167.681 198.704C167.308 199.152 166.839 199.493 166.273 199.728C165.719 199.963 165.105 200.08 164.433 200.08ZM174.81 191.52C175.492 191.52 176.09 191.653 176.602 191.92C177.124 192.176 177.53 192.571 177.818 193.104C178.116 193.637 178.266 194.309 178.266 195.12V200H177.13V195.232C177.13 194.347 176.906 193.68 176.458 193.232C176.02 192.773 175.402 192.544 174.602 192.544C174.004 192.544 173.482 192.667 173.034 192.912C172.596 193.147 172.255 193.493 172.01 193.952C171.775 194.4 171.658 194.944 171.658 195.584V200H170.522V191.6H171.61V193.904L171.434 193.472C171.7 192.864 172.127 192.389 172.714 192.048C173.3 191.696 173.999 191.52 174.81 191.52ZM184.678 200.08C183.878 200.08 183.158 199.899 182.518 199.536C181.889 199.173 181.393 198.672 181.03 198.032C180.667 197.381 180.486 196.635 180.486 195.792C180.486 194.939 180.667 194.192 181.03 193.552C181.393 192.912 181.889 192.416 182.518 192.064C183.158 191.701 183.878 191.52 184.678 191.52C185.414 191.52 186.07 191.685 186.646 192.016C187.233 192.347 187.697 192.832 188.038 193.472C188.39 194.101 188.566 194.875 188.566 195.792C188.566 196.699 188.395 197.472 188.054 198.112C187.713 198.752 187.249 199.243 186.662 199.584C186.086 199.915 185.425 200.08 184.678 200.08ZM184.758 199.072C185.355 199.072 185.889 198.939 186.358 198.672C186.838 198.395 187.211 198.011 187.478 197.52C187.755 197.019 187.894 196.443 187.894 195.792C187.894 195.131 187.755 194.555 187.478 194.064C187.211 193.573 186.838 193.195 186.358 192.928C185.889 192.651 185.355 192.512 184.758 192.512C184.171 192.512 183.643 192.651 183.174 192.928C182.705 193.195 182.331 193.573 182.054 194.064C181.777 194.555 181.638 195.131 181.638 195.792C181.638 196.443 181.777 197.019 182.054 197.52C182.331 198.011 182.705 198.395 183.174 198.672C183.643 198.939 184.171 199.072 184.758 199.072ZM187.926 200V197.472L188.038 195.776L187.878 194.08V188.128H189.014V200H187.926ZM192.178 200V191.6H193.314V200H192.178ZM192.754 189.744C192.519 189.744 192.322 189.664 192.162 189.504C192.002 189.344 191.922 189.152 191.922 188.928C191.922 188.704 192.002 188.517 192.162 188.368C192.322 188.208 192.519 188.128 192.754 188.128C192.988 188.128 193.186 188.203 193.346 188.352C193.506 188.501 193.586 188.688 193.586 188.912C193.586 189.147 193.506 189.344 193.346 189.504C193.196 189.664 192.999 189.744 192.754 189.744ZM200.043 200.08C199.168 200.08 198.4 199.899 197.739 199.536C197.077 199.163 196.56 198.656 196.187 198.016C195.813 197.365 195.627 196.624 195.627 195.792C195.627 194.96 195.803 194.224 196.155 193.584C196.517 192.944 197.008 192.443 197.627 192.08C198.256 191.707 198.96 191.52 199.739 191.52C200.528 191.52 201.227 191.701 201.835 192.064C202.453 192.416 202.939 192.917 203.291 193.568C203.643 194.208 203.819 194.949 203.819 195.792C203.819 195.845 203.813 195.904 203.803 195.968C203.803 196.021 203.803 196.08 203.803 196.144H196.491V195.296H203.195L202.747 195.632C202.747 195.024 202.613 194.485 202.347 194.016C202.091 193.536 201.739 193.163 201.291 192.896C200.843 192.629 200.325 192.496 199.739 192.496C199.163 192.496 198.645 192.629 198.187 192.896C197.728 193.163 197.371 193.536 197.115 194.016C196.859 194.496 196.731 195.045 196.731 195.664V195.84C196.731 196.48 196.869 197.045 197.147 197.536C197.435 198.016 197.829 198.395 198.331 198.672C198.843 198.939 199.424 199.072 200.075 199.072C200.587 199.072 201.061 198.981 201.499 198.8C201.947 198.619 202.331 198.341 202.651 197.968L203.291 198.704C202.917 199.152 202.448 199.493 201.883 199.728C201.328 199.963 200.715 200.08 200.043 200.08ZM210.419 191.52C211.102 191.52 211.699 191.653 212.211 191.92C212.734 192.176 213.139 192.571 213.427 193.104C213.726 193.637 213.875 194.309 213.875 195.12V200H212.739V195.232C212.739 194.347 212.515 193.68 212.067 193.232C211.63 192.773 211.011 192.544 210.211 192.544C209.614 192.544 209.091 192.667 208.643 192.912C208.206 193.147 207.864 193.493 207.619 193.952C207.384 194.4 207.267 194.944 207.267 195.584V200H206.131V191.6H207.219V193.904L207.043 193.472C207.31 192.864 207.736 192.389 208.323 192.048C208.91 191.696 209.608 191.52 210.419 191.52ZM219.599 200.08C218.81 200.08 218.202 199.867 217.775 199.44C217.349 199.013 217.135 198.411 217.135 197.632V189.744H218.271V197.568C218.271 198.059 218.394 198.437 218.639 198.704C218.895 198.971 219.258 199.104 219.727 199.104C220.229 199.104 220.645 198.96 220.975 198.672L221.375 199.488C221.151 199.691 220.879 199.84 220.559 199.936C220.25 200.032 219.93 200.08 219.599 200.08ZM215.631 192.544V191.6H220.831V192.544H215.631ZM226.715 200.08C225.84 200.08 225.072 199.899 224.411 199.536C223.749 199.163 223.232 198.656 222.859 198.016C222.485 197.365 222.299 196.624 222.299 195.792C222.299 194.96 222.475 194.224 222.827 193.584C223.189 192.944 223.68 192.443 224.299 192.08C224.928 191.707 225.632 191.52 226.411 191.52C227.2 191.52 227.899 191.701 228.507 192.064C229.125 192.416 229.611 192.917 229.963 193.568C230.315 194.208 230.491 194.949 230.491 195.792C230.491 195.845 230.485 195.904 230.475 195.968C230.475 196.021 230.475 196.08 230.475 196.144H223.163V195.296H229.867L229.419 195.632C229.419 195.024 229.285 194.485 229.019 194.016C228.763 193.536 228.411 193.163 227.963 192.896C227.515 192.629 226.997 192.496 226.411 192.496C225.835 192.496 225.317 192.629 224.859 192.896C224.4 193.163 224.043 193.536 223.787 194.016C223.531 194.496 223.403 195.045 223.403 195.664V195.84C223.403 196.48 223.541 197.045 223.819 197.536C224.107 198.016 224.501 198.395 225.003 198.672C225.515 198.939 226.096 199.072 226.747 199.072C227.259 199.072 227.733 198.981 228.171 198.8C228.619 198.619 229.003 198.341 229.323 197.968L229.963 198.704C229.589 199.152 229.12 199.493 228.555 199.728C228 199.963 227.387 200.08 226.715 200.08ZM235.059 200.08C234.365 200.08 233.709 199.984 233.091 199.792C232.472 199.589 231.987 199.339 231.635 199.04L232.147 198.144C232.488 198.4 232.925 198.624 233.459 198.816C233.992 198.997 234.552 199.088 235.139 199.088C235.939 199.088 236.515 198.965 236.867 198.72C237.219 198.464 237.395 198.128 237.395 197.712C237.395 197.403 237.293 197.163 237.091 196.992C236.899 196.811 236.643 196.677 236.323 196.592C236.003 196.496 235.645 196.416 235.251 196.352C234.856 196.288 234.461 196.213 234.067 196.128C233.683 196.043 233.331 195.92 233.011 195.76C232.691 195.589 232.429 195.36 232.227 195.072C232.035 194.784 231.939 194.4 231.939 193.92C231.939 193.461 232.067 193.051 232.323 192.688C232.579 192.325 232.952 192.043 233.443 191.84C233.944 191.627 234.552 191.52 235.267 191.52C235.811 191.52 236.355 191.595 236.899 191.744C237.443 191.883 237.891 192.069 238.243 192.304L237.747 193.216C237.373 192.96 236.973 192.779 236.547 192.672C236.12 192.555 235.693 192.496 235.267 192.496C234.509 192.496 233.949 192.629 233.587 192.896C233.235 193.152 233.059 193.483 233.059 193.888C233.059 194.208 233.155 194.459 233.347 194.64C233.549 194.821 233.811 194.965 234.131 195.072C234.461 195.168 234.819 195.248 235.203 195.312C235.597 195.376 235.987 195.456 236.371 195.552C236.765 195.637 237.123 195.76 237.443 195.92C237.773 196.069 238.035 196.288 238.227 196.576C238.429 196.853 238.531 197.221 238.531 197.68C238.531 198.171 238.392 198.597 238.115 198.96C237.848 199.312 237.453 199.589 236.931 199.792C236.419 199.984 235.795 200.08 235.059 200.08Z" fill="#D0D0CE"/>
<path d="M110.285 201V199.11L115.145 194.52C115.529 194.172 115.811 193.86 115.991 193.584C116.171 193.308 116.291 193.056 116.351 192.828C116.423 192.6 116.459 192.39 116.459 192.198C116.459 191.694 116.285 191.31 115.937 191.046C115.601 190.77 115.103 190.632 114.443 190.632C113.915 190.632 113.423 190.734 112.967 190.938C112.523 191.142 112.145 191.46 111.833 191.892L109.709 190.524C110.189 189.804 110.861 189.234 111.725 188.814C112.589 188.394 113.585 188.184 114.713 188.184C115.649 188.184 116.465 188.34 117.161 188.652C117.869 188.952 118.415 189.378 118.799 189.93C119.195 190.482 119.393 191.142 119.393 191.91C119.393 192.318 119.339 192.726 119.231 193.134C119.135 193.53 118.931 193.95 118.619 194.394C118.319 194.838 117.875 195.336 117.287 195.888L113.255 199.686L112.697 198.624H119.807V201H110.285Z" fill="#D0D0CE"/>
<g opacity="0.5">
<rect x="300.899" y="181.913" width="2.12678" height="28.087" rx="0.941452" fill="#F95A36"/>
<rect x="353.846" y="181.913" width="2.12678" height="28.087" rx="0.941452" fill="#F95A36"/>
<rect x="284.016" y="181.913" width="2.12678" height="28.087" rx="0.941452" fill="#F95A36"/>
<rect x="336.965" y="181.913" width="2.12678" height="28.087" rx="0.941452" fill="#F95A36"/>
<rect x="389.911" y="181.913" width="2.12678" height="28.087" rx="0.941452" fill="#F95A36"/>
<rect x="318.933" y="172" width="2.12678" height="38" rx="0.941452" fill="#F95A36"/>
<rect x="371.88" y="172" width="2.12678" height="38" rx="0.941452" fill="#F95A36"/>
<rect x="306.911" y="192.651" width="2.12678" height="17.3478" rx="0.941452" fill="#F95A36"/>
<rect x="359.858" y="192.651" width="2.12678" height="17.3478" rx="0.941452" fill="#F95A36"/>
<rect x="290.03" y="192.651" width="2.12678" height="17.3478" rx="0.941452" fill="#F95A36"/>
<rect x="342.976" y="192.651" width="2.12678" height="17.3478" rx="0.941452" fill="#F95A36"/>
<rect x="395.923" y="192.651" width="2.12678" height="17.3478" rx="0.941452" fill="#F95A36"/>
<rect x="272" y="182.739" width="2.12678" height="27.2609" rx="0.941452" fill="#F95A36"/>
<rect x="324.943" y="182.739" width="2.12678" height="27.2609" rx="0.941452" fill="#F95A36"/>
<rect x="377.891" y="182.739" width="2.12678" height="27.2609" rx="0.941452" fill="#F95A36"/>
<rect x="312.923" y="197.609" width="2.12678" height="12.3913" rx="0.941452" fill="#F95A36"/>
<rect x="365.87" y="197.609" width="2.12678" height="12.3913" rx="0.941452" fill="#F95A36"/>
<rect x="296.04" y="197.609" width="2.12678" height="12.3913" rx="0.941452" fill="#F95A36"/>
<rect x="348.986" y="197.609" width="2.12678" height="12.3913" rx="0.941452" fill="#F95A36"/>
<rect x="401.933" y="197.609" width="2.12678" height="12.3913" rx="0.941452" fill="#F95A36"/>
<rect x="278.003" y="176.957" width="2.12678" height="33.0435" rx="0.941452" fill="#F95A36"/>
<rect x="330.953" y="176.957" width="2.12678" height="33.0435" rx="0.941452" fill="#F95A36"/>
<rect x="383.898" y="176.957" width="2.12678" height="33.0435" rx="0.941452" fill="#F95A36"/>
</g>
<path d="M453 199L455.293 196.707C455.683 196.317 455.683 195.683 455.293 195.293L453 193M455 196L448 196M452 206C457.523 206 462 201.523 462 196C462 190.477 457.523 186 452 186C446.477 186 442 190.477 442 196C442 201.523 446.477 206 452 206Z" stroke="#838383" stroke-width="1.5" stroke-linecap="round"/>
<path d="M151.776 376V366.56H148.064V364.8H157.568V366.56H153.856V376H151.776ZM161.902 376.112C161.027 376.112 160.249 375.925 159.566 375.552C158.883 375.168 158.345 374.645 157.95 373.984C157.555 373.323 157.358 372.571 157.358 371.728C157.358 370.875 157.555 370.123 157.95 369.472C158.345 368.811 158.883 368.293 159.566 367.92C160.249 367.547 161.027 367.36 161.902 367.36C162.787 367.36 163.571 367.547 164.254 367.92C164.947 368.293 165.486 368.805 165.87 369.456C166.265 370.107 166.462 370.864 166.462 371.728C166.462 372.571 166.265 373.323 165.87 373.984C165.486 374.645 164.947 375.168 164.254 375.552C163.571 375.925 162.787 376.112 161.902 376.112ZM161.902 374.4C162.393 374.4 162.83 374.293 163.214 374.08C163.598 373.867 163.897 373.557 164.11 373.152C164.334 372.747 164.446 372.272 164.446 371.728C164.446 371.173 164.334 370.699 164.11 370.304C163.897 369.899 163.598 369.589 163.214 369.376C162.83 369.163 162.398 369.056 161.918 369.056C161.427 369.056 160.99 369.163 160.606 369.376C160.233 369.589 159.934 369.899 159.71 370.304C159.486 370.699 159.374 371.173 159.374 371.728C159.374 372.272 159.486 372.747 159.71 373.152C159.934 373.557 160.233 373.867 160.606 374.08C160.99 374.293 161.422 374.4 161.902 374.4ZM171.591 376.112C170.652 376.112 169.927 375.872 169.414 375.392C168.903 374.901 168.647 374.181 168.647 373.232V365.568H170.647V373.184C170.647 373.589 170.748 373.904 170.951 374.128C171.164 374.352 171.457 374.464 171.831 374.464C172.279 374.464 172.652 374.347 172.951 374.112L173.511 375.536C173.276 375.728 172.988 375.872 172.647 375.968C172.305 376.064 171.953 376.112 171.591 376.112ZM167.239 369.12V367.52H172.935V369.12H167.239ZM180.42 376V374.272L180.308 373.904V370.88C180.308 370.293 180.132 369.84 179.78 369.52C179.428 369.189 178.894 369.024 178.18 369.024C177.7 369.024 177.225 369.099 176.756 369.248C176.297 369.397 175.908 369.605 175.588 369.872L174.804 368.416C175.262 368.064 175.806 367.803 176.436 367.632C177.076 367.451 177.737 367.36 178.42 367.36C179.657 367.36 180.612 367.659 181.284 368.256C181.966 368.843 182.308 369.755 182.308 370.992V376H180.42ZM177.732 376.112C177.092 376.112 176.532 376.005 176.052 375.792C175.572 375.568 175.198 375.264 174.932 374.88C174.676 374.485 174.548 374.043 174.548 373.552C174.548 373.072 174.66 372.64 174.884 372.256C175.118 371.872 175.497 371.568 176.02 371.344C176.542 371.12 177.236 371.008 178.1 371.008H180.58V372.336H178.244C177.561 372.336 177.102 372.448 176.868 372.672C176.633 372.885 176.516 373.152 176.516 373.472C176.516 373.835 176.66 374.123 176.948 374.336C177.236 374.549 177.636 374.656 178.148 374.656C178.638 374.656 179.076 374.544 179.46 374.32C179.854 374.096 180.137 373.765 180.308 373.328L180.644 374.528C180.452 375.029 180.105 375.419 179.604 375.696C179.113 375.973 178.489 376.112 177.732 376.112ZM184.875 376V364.128H186.875V376H184.875Z" fill="#D0D0CE"/>
<path d="M102.775 377V365.48L104.035 366.74H100.255V364.4H105.691V377H102.775ZM113.28 377.216C112.248 377.216 111.324 376.964 110.508 376.46C109.692 375.944 109.05 375.2 108.582 374.228C108.114 373.256 107.88 372.08 107.88 370.7C107.88 369.32 108.114 368.144 108.582 367.172C109.05 366.2 109.692 365.462 110.508 364.958C111.324 364.442 112.248 364.184 113.28 364.184C114.324 364.184 115.248 364.442 116.052 364.958C116.868 365.462 117.51 366.2 117.978 367.172C118.446 368.144 118.68 369.32 118.68 370.7C118.68 372.08 118.446 373.256 117.978 374.228C117.51 375.2 116.868 375.944 116.052 376.46C115.248 376.964 114.324 377.216 113.28 377.216ZM113.28 374.75C113.772 374.75 114.198 374.612 114.558 374.336C114.93 374.06 115.218 373.622 115.422 373.022C115.638 372.422 115.746 371.648 115.746 370.7C115.746 369.752 115.638 368.978 115.422 368.378C115.218 367.778 114.93 367.34 114.558 367.064C114.198 366.788 113.772 366.65 113.28 366.65C112.8 366.65 112.374 366.788 112.002 367.064C111.642 367.34 111.354 367.778 111.138 368.378C110.934 368.978 110.832 369.752 110.832 370.7C110.832 371.648 110.934 372.422 111.138 373.022C111.354 373.622 111.642 374.06 112.002 374.336C112.374 374.612 112.8 374.75 113.28 374.75ZM124.007 377.216C123.131 377.216 122.261 377.102 121.397 376.874C120.533 376.634 119.801 376.298 119.201 375.866L120.335 373.634C120.815 373.982 121.373 374.258 122.009 374.462C122.645 374.666 123.287 374.768 123.935 374.768C124.667 374.768 125.243 374.624 125.663 374.336C126.083 374.048 126.293 373.652 126.293 373.148C126.293 372.668 126.107 372.29 125.735 372.014C125.363 371.738 124.763 371.6 123.935 371.6H122.603V369.674L126.113 365.696L126.437 366.74H119.831V364.4H128.651V366.29L125.159 370.268L123.683 369.422H124.529C126.077 369.422 127.247 369.77 128.039 370.466C128.831 371.162 129.227 372.056 129.227 373.148C129.227 373.856 129.041 374.522 128.669 375.146C128.297 375.758 127.727 376.256 126.959 376.64C126.191 377.024 125.207 377.216 124.007 377.216Z" fill="#D0D0CE"/>
<g opacity="0.5">
<rect x="297.899" y="357.913" width="2.12678" height="28.087" rx="0.941452" fill="#285CED"/>
<rect x="350.846" y="357.913" width="2.12678" height="28.087" rx="0.941452" fill="#285CED"/>
<rect x="281.016" y="357.913" width="2.12678" height="28.087" rx="0.941452" fill="#285CED"/>
<rect x="333.965" y="357.913" width="2.12678" height="28.087" rx="0.941452" fill="#285CED"/>
<rect x="386.911" y="357.913" width="2.12678" height="28.087" rx="0.941452" fill="#285CED"/>
<rect x="315.933" y="348" width="2.12678" height="38" rx="0.941452" fill="#285CED"/>
<rect x="368.88" y="348" width="2.12678" height="38" rx="0.941452" fill="#285CED"/>
<rect x="303.911" y="368.651" width="2.12678" height="17.3478" rx="0.941452" fill="#285CED"/>
<rect x="356.858" y="368.651" width="2.12678" height="17.3478" rx="0.941452" fill="#285CED"/>
<rect x="287.03" y="368.651" width="2.12678" height="17.3478" rx="0.941452" fill="#285CED"/>
<rect x="339.976" y="368.651" width="2.12678" height="17.3478" rx="0.941452" fill="#285CED"/>
<rect x="392.923" y="368.651" width="2.12678" height="17.3478" rx="0.941452" fill="#285CED"/>
<rect x="269" y="358.739" width="2.12678" height="27.2609" rx="0.941452" fill="#285CED"/>
<rect x="321.943" y="358.739" width="2.12678" height="27.2609" rx="0.941452" fill="#285CED"/>
<rect x="374.891" y="358.739" width="2.12678" height="27.2609" rx="0.941452" fill="#285CED"/>
<rect x="309.923" y="373.609" width="2.12678" height="12.3913" rx="0.941452" fill="#285CED"/>
<rect x="362.87" y="373.609" width="2.12678" height="12.3913" rx="0.941452" fill="#285CED"/>
<rect x="293.04" y="373.609" width="2.12678" height="12.3913" rx="0.941452" fill="#285CED"/>
<rect x="345.986" y="373.609" width="2.12678" height="12.3913" rx="0.941452" fill="#285CED"/>
<rect x="398.933" y="373.609" width="2.12678" height="12.3913" rx="0.941452" fill="#285CED"/>
<rect x="275.003" y="352.957" width="2.12678" height="33.0435" rx="0.941452" fill="#285CED"/>
<rect x="327.953" y="352.957" width="2.12678" height="33.0435" rx="0.941452" fill="#285CED"/>
<rect x="380.898" y="352.957" width="2.12678" height="33.0435" rx="0.941452" fill="#285CED"/>
</g>
<path d="M453 375L455.293 372.707C455.683 372.317 455.683 371.683 455.293 371.293L453 369M455 372L448 372M452 382C457.523 382 462 377.523 462 372C462 366.477 457.523 362 452 362C446.477 362 442 366.477 442 372C442 377.523 446.477 382 452 382Z" stroke="#838383" stroke-width="1.5" stroke-linecap="round"/>
<path d="M453 289L455.293 286.707C455.683 286.317 455.683 285.683 455.293 285.293L453 283M455 286L448 286M452 296C457.523 296 462 291.523 462 286C462 280.477 457.523 276 452 276C446.477 276 442 280.477 442 286C442 291.523 446.477 296 452 296Z" stroke="#838383" stroke-width="1.5" stroke-linecap="round"/>
<path d="M28.424 21.456H33.992V23.168H28.424V21.456ZM28.584 26.256H34.904V28H26.504V16.8H34.68V18.544H28.584V26.256ZM39.5926 28.112C38.878 28.112 38.19 28.0213 37.5286 27.84C36.878 27.648 36.3606 27.4187 35.9766 27.152L36.7446 25.632C37.1286 25.8773 37.5873 26.08 38.1206 26.24C38.654 26.4 39.1873 26.48 39.7206 26.48C40.35 26.48 40.8033 26.3947 41.0806 26.224C41.3686 26.0533 41.5126 25.824 41.5126 25.536C41.5126 25.3013 41.4166 25.1253 41.2246 25.008C41.0326 24.88 40.782 24.784 40.4726 24.72C40.1633 24.656 39.8166 24.5973 39.4326 24.544C39.0593 24.4907 38.6806 24.4213 38.2966 24.336C37.9233 24.24 37.582 24.1067 37.2726 23.936C36.9633 23.7547 36.7126 23.5147 36.5206 23.216C36.3286 22.9173 36.2326 22.5227 36.2326 22.032C36.2326 21.488 36.3873 21.0187 36.6966 20.624C37.006 20.2187 37.438 19.9093 37.9926 19.696C38.558 19.472 39.2246 19.36 39.9926 19.36C40.5686 19.36 41.15 19.424 41.7366 19.552C42.3233 19.68 42.8086 19.8613 43.1926 20.096L42.4246 21.616C42.0193 21.3707 41.6086 21.2053 41.1926 21.12C40.7873 21.024 40.382 20.976 39.9766 20.976C39.3686 20.976 38.9153 21.0667 38.6166 21.248C38.3286 21.4293 38.1846 21.6587 38.1846 21.936C38.1846 22.192 38.2806 22.384 38.4726 22.512C38.6646 22.64 38.9153 22.7413 39.2246 22.816C39.534 22.8907 39.8753 22.9547 40.2486 23.008C40.6326 23.0507 41.0113 23.12 41.3846 23.216C41.758 23.312 42.0993 23.4453 42.4086 23.616C42.7286 23.776 42.9846 24.0053 43.1766 24.304C43.3686 24.6027 43.4646 24.992 43.4646 25.472C43.4646 26.0053 43.3046 26.4693 42.9846 26.864C42.6753 27.2587 42.2326 27.568 41.6566 27.792C41.0806 28.0053 40.3926 28.112 39.5926 28.112ZM48.403 28.112C47.4643 28.112 46.739 27.872 46.227 27.392C45.715 26.9013 45.459 26.1813 45.459 25.232V17.568H47.459V25.184C47.459 25.5893 47.5603 25.904 47.763 26.128C47.9763 26.352 48.2697 26.464 48.643 26.464C49.091 26.464 49.4643 26.3467 49.763 26.112L50.323 27.536C50.0883 27.728 49.8003 27.872 49.459 27.968C49.1177 28.064 48.7657 28.112 48.403 28.112ZM44.051 21.12V19.52H49.747V21.12H44.051ZM57.2323 28V26.272L57.1203 25.904V22.88C57.1203 22.2933 56.9443 21.84 56.5923 21.52C56.2403 21.1893 55.7069 21.024 54.9923 21.024C54.5123 21.024 54.0376 21.0987 53.5683 21.248C53.1096 21.3973 52.7203 21.6053 52.4003 21.872L51.6163 20.416C52.0749 20.064 52.6189 19.8027 53.2483 19.632C53.8883 19.4507 54.5496 19.36 55.2323 19.36C56.4696 19.36 57.4243 19.6587 58.0963 20.256C58.7789 20.8427 59.1203 21.7547 59.1203 22.992V28H57.2323ZM54.5443 28.112C53.9043 28.112 53.3443 28.0053 52.8643 27.792C52.3843 27.568 52.0109 27.264 51.7443 26.88C51.4883 26.4853 51.3603 26.0427 51.3603 25.552C51.3603 25.072 51.4723 24.64 51.6963 24.256C51.9309 23.872 52.3096 23.568 52.8323 23.344C53.3549 23.12 54.0483 23.008 54.9123 23.008H57.3923V24.336H55.0563C54.3736 24.336 53.9149 24.448 53.6803 24.672C53.4456 24.8853 53.3283 25.152 53.3283 25.472C53.3283 25.8347 53.4723 26.1227 53.7603 26.336C54.0483 26.5493 54.4483 26.656 54.9603 26.656C55.4509 26.656 55.8883 26.544 56.2723 26.32C56.6669 26.096 56.9496 25.7653 57.1203 25.328L57.4563 26.528C57.2643 27.0293 56.9176 27.4187 56.4163 27.696C55.9256 27.9733 55.3016 28.112 54.5443 28.112ZM64.903 28.112C63.9643 28.112 63.239 27.872 62.727 27.392C62.215 26.9013 61.959 26.1813 61.959 25.232V17.568H63.959V25.184C63.959 25.5893 64.0603 25.904 64.263 26.128C64.4763 26.352 64.7697 26.464 65.143 26.464C65.591 26.464 65.9643 26.3467 66.263 26.112L66.823 27.536C66.5883 27.728 66.3003 27.872 65.959 27.968C65.6177 28.064 65.2657 28.112 64.903 28.112ZM60.551 21.12V19.52H66.247V21.12H60.551ZM72.0843 28.112C71.3589 28.112 70.7189 27.9787 70.1643 27.712C69.6096 27.4347 69.1776 27.0187 68.8683 26.464C68.5589 25.8987 68.4043 25.1893 68.4043 24.336V19.456H70.4043V24.064C70.4043 24.832 70.5749 25.408 70.9163 25.792C71.2683 26.1653 71.7643 26.352 72.4043 26.352C72.8736 26.352 73.2789 26.256 73.6203 26.064C73.9723 25.872 74.2443 25.584 74.4363 25.2C74.6389 24.816 74.7403 24.3413 74.7403 23.776V19.456H76.7403V28H74.8363V25.696L75.1723 26.4C74.8843 26.9547 74.4629 27.3813 73.9083 27.68C73.3536 27.968 72.7456 28.112 72.0843 28.112ZM81.9989 28.112C81.2842 28.112 80.5962 28.0213 79.9349 27.84C79.2842 27.648 78.7669 27.4187 78.3829 27.152L79.1509 25.632C79.5349 25.8773 79.9935 26.08 80.5269 26.24C81.0602 26.4 81.5935 26.48 82.1269 26.48C82.7562 26.48 83.2095 26.3947 83.4869 26.224C83.7749 26.0533 83.9189 25.824 83.9189 25.536C83.9189 25.3013 83.8229 25.1253 83.6309 25.008C83.4389 24.88 83.1882 24.784 82.8789 24.72C82.5695 24.656 82.2229 24.5973 81.8389 24.544C81.4655 24.4907 81.0869 24.4213 80.7029 24.336C80.3295 24.24 79.9882 24.1067 79.6789 23.936C79.3695 23.7547 79.1189 23.5147 78.9269 23.216C78.7349 22.9173 78.6389 22.5227 78.6389 22.032C78.6389 21.488 78.7935 21.0187 79.1029 20.624C79.4122 20.2187 79.8442 19.9093 80.3989 19.696C80.9642 19.472 81.6309 19.36 82.3989 19.36C82.9749 19.36 83.5562 19.424 84.1429 19.552C84.7295 19.68 85.2149 19.8613 85.5989 20.096L84.8309 21.616C84.4255 21.3707 84.0149 21.2053 83.5989 21.12C83.1935 21.024 82.7882 20.976 82.3829 20.976C81.7749 20.976 81.3215 21.0667 81.0229 21.248C80.7349 21.4293 80.5909 21.6587 80.5909 21.936C80.5909 22.192 80.6869 22.384 80.8789 22.512C81.0709 22.64 81.3215 22.7413 81.6309 22.816C81.9402 22.8907 82.2815 22.9547 82.6549 23.008C83.0389 23.0507 83.4175 23.12 83.7909 23.216C84.1642 23.312 84.5055 23.4453 84.8149 23.616C85.1349 23.776 85.3909 24.0053 85.5829 24.304C85.7749 24.6027 85.8709 24.992 85.8709 25.472C85.8709 26.0053 85.7109 26.4693 85.3909 26.864C85.0815 27.2587 84.6389 27.568 84.0629 27.792C83.4869 28.0053 82.7989 28.112 81.9989 28.112ZM95.8871 31.216C95.0978 31.216 94.3245 31.1093 93.5671 30.896C92.8205 30.6933 92.2071 30.3947 91.7271 30L92.6231 28.496C92.9965 28.8053 93.4658 29.0507 94.0311 29.232C94.6071 29.424 95.1885 29.52 95.7751 29.52C96.7138 29.52 97.4018 29.3013 97.8391 28.864C98.2765 28.4373 98.4951 27.792 98.4951 26.928V25.408L98.6551 23.472L98.5911 21.536V19.456H100.495V26.704C100.495 28.2507 100.1 29.3867 99.3111 30.112C98.5218 30.848 97.3805 31.216 95.8871 31.216ZM95.6311 27.616C94.8205 27.616 94.0845 27.4453 93.4231 27.104C92.7725 26.752 92.2551 26.2667 91.8711 25.648C91.4978 25.0293 91.3111 24.304 91.3111 23.472C91.3111 22.6507 91.4978 21.9307 91.8711 21.312C92.2551 20.6933 92.7725 20.2133 93.4231 19.872C94.0845 19.5307 94.8205 19.36 95.6311 19.36C96.3565 19.36 97.0071 19.504 97.5831 19.792C98.1591 20.08 98.6178 20.528 98.9591 21.136C99.3111 21.744 99.4871 22.5227 99.4871 23.472C99.4871 24.4213 99.3111 25.2053 98.9591 25.824C98.6178 26.432 98.1591 26.8853 97.5831 27.184C97.0071 27.472 96.3565 27.616 95.6311 27.616ZM95.9351 25.92C96.4365 25.92 96.8845 25.8187 97.2791 25.616C97.6738 25.4027 97.9778 25.1147 98.1911 24.752C98.4151 24.3787 98.5271 23.952 98.5271 23.472C98.5271 22.992 98.4151 22.5707 98.1911 22.208C97.9778 21.8347 97.6738 21.552 97.2791 21.36C96.8845 21.1573 96.4365 21.056 95.9351 21.056C95.4338 21.056 94.9805 21.1573 94.5751 21.36C94.1805 21.552 93.8711 21.8347 93.6471 22.208C93.4338 22.5707 93.3271 22.992 93.3271 23.472C93.3271 23.952 93.4338 24.3787 93.6471 24.752C93.8711 25.1147 94.1805 25.4027 94.5751 25.616C94.9805 25.8187 95.4338 25.92 95.9351 25.92ZM103.125 28V16.128H105.125V28H103.125ZM111.59 28.112C110.715 28.112 109.936 27.9253 109.254 27.552C108.571 27.168 108.032 26.6453 107.638 25.984C107.243 25.3227 107.046 24.5707 107.046 23.728C107.046 22.8747 107.243 22.1227 107.638 21.472C108.032 20.8107 108.571 20.2933 109.254 19.92C109.936 19.5467 110.715 19.36 111.59 19.36C112.475 19.36 113.259 19.5467 113.942 19.92C114.635 20.2933 115.174 20.8053 115.558 21.456C115.952 22.1067 116.15 22.864 116.15 23.728C116.15 24.5707 115.952 25.3227 115.558 25.984C115.174 26.6453 114.635 27.168 113.942 27.552C113.259 27.9253 112.475 28.112 111.59 28.112ZM111.59 26.4C112.08 26.4 112.518 26.2933 112.902 26.08C113.286 25.8667 113.584 25.5573 113.798 25.152C114.022 24.7467 114.134 24.272 114.134 23.728C114.134 23.1733 114.022 22.6987 113.798 22.304C113.584 21.8987 113.286 21.5893 112.902 21.376C112.518 21.1627 112.086 21.056 111.606 21.056C111.115 21.056 110.678 21.1627 110.294 21.376C109.92 21.5893 109.622 21.8987 109.398 22.304C109.174 22.6987 109.062 23.1733 109.062 23.728C109.062 24.272 109.174 24.7467 109.398 25.152C109.622 25.5573 109.92 25.8667 110.294 26.08C110.678 26.2933 111.11 26.4 111.59 26.4ZM123.217 28V26.272L123.105 25.904V22.88C123.105 22.2933 122.929 21.84 122.577 21.52C122.225 21.1893 121.691 21.024 120.977 21.024C120.497 21.024 120.022 21.0987 119.553 21.248C119.094 21.3973 118.705 21.6053 118.385 21.872L117.601 20.416C118.059 20.064 118.603 19.8027 119.233 19.632C119.873 19.4507 120.534 19.36 121.217 19.36C122.454 19.36 123.409 19.6587 124.081 20.256C124.763 20.8427 125.105 21.7547 125.105 22.992V28H123.217ZM120.529 28.112C119.889 28.112 119.329 28.0053 118.849 27.792C118.369 27.568 117.995 27.264 117.729 26.88C117.473 26.4853 117.345 26.0427 117.345 25.552C117.345 25.072 117.457 24.64 117.681 24.256C117.915 23.872 118.294 23.568 118.817 23.344C119.339 23.12 120.033 23.008 120.897 23.008H123.377V24.336H121.041C120.358 24.336 119.899 24.448 119.665 24.672C119.43 24.8853 119.313 25.152 119.313 25.472C119.313 25.8347 119.457 26.1227 119.745 26.336C120.033 26.5493 120.433 26.656 120.945 26.656C121.435 26.656 121.873 26.544 122.257 26.32C122.651 26.096 122.934 25.7653 123.105 25.328L123.441 26.528C123.249 27.0293 122.902 27.4187 122.401 27.696C121.91 27.9733 121.286 28.112 120.529 28.112ZM132.407 28.112C131.682 28.112 131.037 27.952 130.471 27.632C129.906 27.312 129.458 26.832 129.127 26.192C128.807 25.5413 128.647 24.72 128.647 23.728C128.647 22.7253 128.813 21.904 129.143 21.264C129.485 20.624 129.938 20.1493 130.503 19.84C131.079 19.52 131.714 19.36 132.407 19.36C133.25 19.36 133.991 19.5413 134.631 19.904C135.282 20.2667 135.794 20.7733 136.167 21.424C136.551 22.0747 136.743 22.8427 136.743 23.728C136.743 24.6133 136.551 25.3813 136.167 26.032C135.794 26.6827 135.282 27.1947 134.631 27.568C133.991 27.9307 133.25 28.112 132.407 28.112ZM127.671 28V16.128H129.671V21.44L129.511 23.712L129.575 25.984V28H127.671ZM132.183 26.4C132.663 26.4 133.09 26.2933 133.463 26.08C133.847 25.8667 134.151 25.5573 134.375 25.152C134.599 24.7467 134.711 24.272 134.711 23.728C134.711 23.1733 134.599 22.6987 134.375 22.304C134.151 21.8987 133.847 21.5893 133.463 21.376C133.09 21.1627 132.663 21.056 132.183 21.056C131.703 21.056 131.271 21.1627 130.887 21.376C130.503 21.5893 130.199 21.8987 129.975 22.304C129.751 22.6987 129.639 23.1733 129.639 23.728C129.639 24.272 129.751 24.7467 129.975 25.152C130.199 25.5573 130.503 25.8667 130.887 26.08C131.271 26.2933 131.703 26.4 132.183 26.4ZM143.795 28V26.272L143.683 25.904V22.88C143.683 22.2933 143.507 21.84 143.155 21.52C142.803 21.1893 142.269 21.024 141.555 21.024C141.075 21.024 140.6 21.0987 140.131 21.248C139.672 21.3973 139.283 21.6053 138.963 21.872L138.179 20.416C138.637 20.064 139.181 19.8027 139.811 19.632C140.451 19.4507 141.112 19.36 141.795 19.36C143.032 19.36 143.987 19.6587 144.659 20.256C145.341 20.8427 145.683 21.7547 145.683 22.992V28H143.795ZM141.107 28.112C140.467 28.112 139.907 28.0053 139.427 27.792C138.947 27.568 138.573 27.264 138.307 26.88C138.051 26.4853 137.923 26.0427 137.923 25.552C137.923 25.072 138.035 24.64 138.259 24.256C138.493 23.872 138.872 23.568 139.395 23.344C139.917 23.12 140.611 23.008 141.475 23.008H143.955V24.336H141.619C140.936 24.336 140.477 24.448 140.243 24.672C140.008 24.8853 139.891 25.152 139.891 25.472C139.891 25.8347 140.035 26.1227 140.323 26.336C140.611 26.5493 141.011 26.656 141.523 26.656C142.013 26.656 142.451 26.544 142.835 26.32C143.229 26.096 143.512 25.7653 143.683 25.328L144.019 26.528C143.827 27.0293 143.48 27.4187 142.979 27.696C142.488 27.9733 141.864 28.112 141.107 28.112ZM148.25 28V16.128H150.25V28H148.25Z" fill="#D0D0CE"/>
<g filter="url(#filter1_d_4064_37972)">
<circle cx="52.5" cy="106.5" r="26" stroke="#FDA700" shape-rendering="crispEdges"/>
</g>
<path d="M42.3153 103.636L42.0708 104.345L42.3153 103.636ZM42.3153 108.364L42.0708 107.655L42.3153 108.364ZM61.6847 108.364L61.9292 107.655L61.6847 108.364ZM61.6847 103.636L61.4403 102.927L61.6847 103.636ZM46 97.25C43.3766 97.25 41.25 99.3766 41.25 102H42.75C42.75 100.205 44.2051 98.75 46 98.75V97.25ZM58 97.25H46V98.75H58V97.25ZM62.75 102C62.75 99.3766 60.6234 97.25 58 97.25V98.75C59.7949 98.75 61.25 100.205 61.25 102H62.75ZM62.75 103.223V102H61.25V103.223H62.75ZM60.75 106C60.75 105.234 61.242 104.582 61.9292 104.345L61.4403 102.927C60.1667 103.366 59.25 104.575 59.25 106H60.75ZM61.9292 107.655C61.242 107.418 60.75 106.766 60.75 106H59.25C59.25 107.425 60.1667 108.634 61.4403 109.073L61.9292 107.655ZM62.75 110V108.777H61.25V110H62.75ZM58 114.75C60.6234 114.75 62.75 112.623 62.75 110H61.25C61.25 111.795 59.7949 113.25 58 113.25V114.75ZM46 114.75H58V113.25H46V114.75ZM41.25 110C41.25 112.623 43.3766 114.75 46 114.75V113.25C44.2051 113.25 42.75 111.795 42.75 110H41.25ZM41.25 108.777V110H42.75V108.777H41.25ZM42.5597 109.073C43.8333 108.634 44.75 107.425 44.75 106H43.25C43.25 106.766 42.758 107.418 42.0708 107.655L42.5597 109.073ZM44.75 106C44.75 104.575 43.8333 103.366 42.5597 102.927L42.0708 104.345C42.758 104.582 43.25 105.234 43.25 106H44.75ZM41.25 102V103.223H42.75V102H41.25ZM42.5597 102.927C42.6265 102.95 42.75 103.038 42.75 103.223H41.25C41.25 103.789 41.6443 104.198 42.0708 104.345L42.5597 102.927ZM42.75 108.777C42.75 108.962 42.6265 109.05 42.5597 109.073L42.0708 107.655C41.6443 107.802 41.25 108.211 41.25 108.777H42.75ZM61.4403 109.073C61.3735 109.05 61.25 108.962 61.25 108.777H62.75C62.75 108.211 62.3557 107.802 61.9292 107.655L61.4403 109.073ZM61.25 103.223C61.25 103.038 61.3735 102.95 61.4403 102.927L61.9292 104.345C62.3557 104.198 62.75 103.789 62.75 103.223H61.25Z" fill="#FDA700"/>
<path d="M51.6089 102.491C51.8091 102.24 52.1909 102.24 52.3911 102.491L54.1356 104.681C54.1666 104.72 54.1916 104.764 54.2098 104.81L55.2344 107.416C55.352 107.715 55.161 108.045 54.8433 108.093L52.0742 108.509C52.025 108.516 51.975 108.516 51.9258 108.509L49.1567 108.093C48.839 108.045 48.648 107.715 48.7656 107.416L49.7902 104.81C49.8084 104.764 49.8334 104.72 49.8644 104.681L51.6089 102.491Z" stroke="#FDA700" stroke-width="1.5"/>
<g filter="url(#filter2_d_4064_37972)">
<g filter="url(#filter3_d_4064_37972)">
<circle cx="52.5" cy="195.5" r="26" stroke="#F95A36" shape-rendering="crispEdges"/>
</g>
<path d="M42.3153 192.636L42.0708 193.345L42.3153 192.636ZM42.3153 197.364L42.0708 196.655L42.3153 197.364ZM61.6847 197.364L61.9292 196.655L61.6847 197.364ZM61.6847 192.636L61.4403 191.927L61.6847 192.636ZM46 186.25C43.3766 186.25 41.25 188.377 41.25 191H42.75C42.75 189.205 44.2051 187.75 46 187.75V186.25ZM58 186.25H46V187.75H58V186.25ZM62.75 191C62.75 188.377 60.6234 186.25 58 186.25V187.75C59.7949 187.75 61.25 189.205 61.25 191H62.75ZM62.75 192.223V191H61.25V192.223H62.75ZM60.75 195C60.75 194.234 61.242 193.582 61.9292 193.345L61.4403 191.927C60.1667 192.366 59.25 193.575 59.25 195H60.75ZM61.9292 196.655C61.242 196.418 60.75 195.766 60.75 195H59.25C59.25 196.425 60.1667 197.634 61.4403 198.073L61.9292 196.655ZM62.75 199V197.777H61.25V199H62.75ZM58 203.75C60.6234 203.75 62.75 201.623 62.75 199H61.25C61.25 200.795 59.7949 202.25 58 202.25V203.75ZM46 203.75H58V202.25H46V203.75ZM41.25 199C41.25 201.623 43.3766 203.75 46 203.75V202.25C44.2051 202.25 42.75 200.795 42.75 199H41.25ZM41.25 197.777V199H42.75V197.777H41.25ZM42.5597 198.073C43.8333 197.634 44.75 196.425 44.75 195H43.25C43.25 195.766 42.758 196.418 42.0708 196.655L42.5597 198.073ZM44.75 195C44.75 193.575 43.8333 192.366 42.5597 191.927L42.0708 193.345C42.758 193.582 43.25 194.234 43.25 195H44.75ZM41.25 191V192.223H42.75V191H41.25ZM42.5597 191.927C42.6265 191.95 42.75 192.038 42.75 192.223H41.25C41.25 192.789 41.6443 193.198 42.0708 193.345L42.5597 191.927ZM42.75 197.777C42.75 197.962 42.6265 198.05 42.5597 198.073L42.0708 196.655C41.6443 196.802 41.25 197.211 41.25 197.777H42.75ZM61.4403 198.073C61.3735 198.05 61.25 197.962 61.25 197.777H62.75C62.75 197.211 62.3557 196.802 61.9292 196.655L61.4403 198.073ZM61.25 192.223C61.25 192.038 61.3735 191.95 61.4403 191.927L61.9292 193.345C62.3557 193.198 62.75 192.789 62.75 192.223H61.25Z" fill="#F95A36"/>
<path d="M51.8571 190V195.143" stroke="#F95A36" stroke-width="2" stroke-linecap="round" stroke-linejoin="round"/>
<path d="M51.8571 199.714C52.3305 199.714 52.7143 199.331 52.7143 198.857C52.7143 198.384 52.3305 198 51.8571 198C51.3838 198 51 198.384 51 198.857C51 199.331 51.3838 199.714 51.8571 199.714Z" stroke="#F95A36" stroke-linecap="round" stroke-linejoin="round"/>
</g>
<g filter="url(#filter4_d_4064_37972)">
<circle cx="52.5" cy="285.5" r="26" stroke="#1A7F1C" shape-rendering="crispEdges"/>
</g>
<path d="M42.3153 282.636L42.0708 283.345L42.3153 282.636ZM42.3153 287.364L42.0708 286.655L42.3153 287.364ZM61.6847 287.364L61.9292 286.655L61.6847 287.364ZM61.6847 282.636L61.4403 281.927L61.6847 282.636ZM46 276.25C43.3766 276.25 41.25 278.377 41.25 281H42.75C42.75 279.205 44.2051 277.75 46 277.75V276.25ZM58 276.25H46V277.75H58V276.25ZM62.75 281C62.75 278.377 60.6234 276.25 58 276.25V277.75C59.7949 277.75 61.25 279.205 61.25 281H62.75ZM62.75 282.223V281H61.25V282.223H62.75ZM60.75 285C60.75 284.234 61.242 283.582 61.9292 283.345L61.4403 281.927C60.1667 282.366 59.25 283.575 59.25 285H60.75ZM61.9292 286.655C61.242 286.418 60.75 285.766 60.75 285H59.25C59.25 286.425 60.1667 287.634 61.4403 288.073L61.9292 286.655ZM62.75 289V287.777H61.25V289H62.75ZM58 293.75C60.6234 293.75 62.75 291.623 62.75 289H61.25C61.25 290.795 59.7949 292.25 58 292.25V293.75ZM46 293.75H58V292.25H46V293.75ZM41.25 289C41.25 291.623 43.3766 293.75 46 293.75V292.25C44.2051 292.25 42.75 290.795 42.75 289H41.25ZM41.25 287.777V289H42.75V287.777H41.25ZM42.5597 288.073C43.8333 287.634 44.75 286.425 44.75 285H43.25C43.25 285.766 42.758 286.418 42.0708 286.655L42.5597 288.073ZM44.75 285C44.75 283.575 43.8333 282.366 42.5597 281.927L42.0708 283.345C42.758 283.582 43.25 284.234 43.25 285H44.75ZM41.25 281V282.223H42.75V281H41.25ZM42.5597 281.927C42.6265 281.95 42.75 282.038 42.75 282.223H41.25C41.25 282.789 41.6443 283.198 42.0708 283.345L42.5597 281.927ZM42.75 287.777C42.75 287.962 42.6265 288.05 42.5597 288.073L42.0708 286.655C41.6443 286.802 41.25 287.211 41.25 287.777H42.75ZM61.4403 288.073C61.3735 288.05 61.25 287.962 61.25 287.777H62.75C62.75 287.211 62.3557 286.802 61.9292 286.655L61.4403 288.073ZM61.25 282.223C61.25 282.038 61.3735 281.95 61.4403 281.927L61.9292 283.345C62.3557 283.198 62.75 282.789 62.75 282.223H61.25Z" fill="#1A7F1C"/>
<path d="M50 285.857L51.4643 287.029C51.5036 287.061 51.5497 287.084 51.5991 287.097C51.6485 287.109 51.7001 287.11 51.75 287.1C51.8004 287.091 51.8482 287.07 51.8901 287.041C51.932 287.011 51.9671 286.973 51.9929 286.929L54.2857 283" stroke="#1A7F1C" stroke-width="1.71429" stroke-linecap="round" stroke-linejoin="round"/>
<g filter="url(#filter5_d_4064_37972)">
<circle cx="52.5" cy="370.5" r="26" stroke="#285CED" shape-rendering="crispEdges"/>
</g>
<path d="M42.3153 368.636L42.0708 369.345L42.3153 368.636ZM42.3153 373.364L42.0708 372.655L42.3153 373.364ZM61.6847 373.364L61.9292 372.655L61.6847 373.364ZM61.6847 368.636L61.4403 367.927L61.6847 368.636ZM46 362.25C43.3766 362.25 41.25 364.377 41.25 367H42.75C42.75 365.205 44.2051 363.75 46 363.75V362.25ZM58 362.25H46V363.75H58V362.25ZM62.75 367C62.75 364.377 60.6234 362.25 58 362.25V363.75C59.7949 363.75 61.25 365.205 61.25 367H62.75ZM62.75 368.223V367H61.25V368.223H62.75ZM60.75 371C60.75 370.234 61.242 369.582 61.9292 369.345L61.4403 367.927C60.1667 368.366 59.25 369.575 59.25 371H60.75ZM61.9292 372.655C61.242 372.418 60.75 371.766 60.75 371H59.25C59.25 372.425 60.1667 373.634 61.4403 374.073L61.9292 372.655ZM62.75 375V373.777H61.25V375H62.75ZM58 379.75C60.6234 379.75 62.75 377.623 62.75 375H61.25C61.25 376.795 59.7949 378.25 58 378.25V379.75ZM46 379.75H58V378.25H46V379.75ZM41.25 375C41.25 377.623 43.3766 379.75 46 379.75V378.25C44.2051 378.25 42.75 376.795 42.75 375H41.25ZM41.25 373.777V375H42.75V373.777H41.25ZM42.5597 374.073C43.8333 373.634 44.75 372.425 44.75 371H43.25C43.25 371.766 42.758 372.418 42.0708 372.655L42.5597 374.073ZM44.75 371C44.75 369.575 43.8333 368.366 42.5597 367.927L42.0708 369.345C42.758 369.582 43.25 370.234 43.25 371H44.75ZM41.25 367V368.223H42.75V367H41.25ZM42.5597 367.927C42.6265 367.95 42.75 368.038 42.75 368.223H41.25C41.25 368.789 41.6443 369.198 42.0708 369.345L42.5597 367.927ZM42.75 373.777C42.75 373.962 42.6265 374.05 42.5597 374.073L42.0708 372.655C41.6443 372.802 41.25 373.211 41.25 373.777H42.75ZM61.4403 374.073C61.3735 374.05 61.25 373.962 61.25 373.777H62.75C62.75 373.211 62.3557 372.802 61.9292 372.655L61.4403 374.073ZM61.25 368.223C61.25 368.038 61.3735 367.95 61.4403 367.927L61.9292 369.345C62.3557 369.198 62.75 368.789 62.75 368.223H61.25Z" fill="#285CED"/>
<path d="M53.9286 366L53.9286 363" stroke="#285CED" stroke-width="1.5" stroke-linecap="round" stroke-linejoin="round"/>
<path d="M53.9286 372.5L53.9286 369.5" stroke="#285CED" stroke-width="1.5" stroke-linecap="round" stroke-linejoin="round"/>
<path d="M53.9286 379L53.9286 376" stroke="#285CED" stroke-width="1.5" stroke-linecap="round" stroke-linejoin="round"/>
<defs>
<filter id="filter0_d_4064_37972" x="0" y="0" width="489" height="468" filterUnits="userSpaceOnUse" color-interpolation-filters="sRGB">
<feFlood flood-opacity="0" result="BackgroundImageFix"/>
<feColorMatrix in="SourceAlpha" type="matrix" values="0 0 0 0 0 0 0 0 0 0 0 0 0 0 0 0 0 0 127 0" result="hardAlpha"/>
<feOffset dy="4"/>
<feGaussianBlur stdDeviation="2"/>
<feComposite in2="hardAlpha" operator="out"/>
<feColorMatrix type="matrix" values="0 0 0 0 0 0 0 0 0 0 0 0 0 0 0 0 0 0 0.25 0"/>
<feBlend mode="normal" in2="BackgroundImageFix" result="effect1_dropShadow_4064_37972"/>
<feBlend mode="normal" in="SourceGraphic" in2="effect1_dropShadow_4064_37972" result="shape"/>
</filter>
<filter id="filter1_d_4064_37972" x="22" y="80" width="61" height="61" filterUnits="userSpaceOnUse" color-interpolation-filters="sRGB">
<feFlood flood-opacity="0" result="BackgroundImageFix"/>
<feColorMatrix in="SourceAlpha" type="matrix" values="0 0 0 0 0 0 0 0 0 0 0 0 0 0 0 0 0 0 127 0" result="hardAlpha"/>
<feOffset dy="4"/>
<feGaussianBlur stdDeviation="2"/>
<feComposite in2="hardAlpha" operator="out"/>
<feColorMatrix type="matrix" values="0 0 0 0 0 0 0 0 0 0 0 0 0 0 0 0 0 0 0.25 0"/>
<feBlend mode="normal" in2="BackgroundImageFix" result="effect1_dropShadow_4064_37972"/>
<feBlend mode="normal" in="SourceGraphic" in2="effect1_dropShadow_4064_37972" result="shape"/>
</filter>
<filter id="filter2_d_4064_37972" x="22" y="169" width="61" height="61" filterUnits="userSpaceOnUse" color-interpolation-filters="sRGB">
<feFlood flood-opacity="0" result="BackgroundImageFix"/>
<feColorMatrix in="SourceAlpha" type="matrix" values="0 0 0 0 0 0 0 0 0 0 0 0 0 0 0 0 0 0 127 0" result="hardAlpha"/>
<feOffset dy="4"/>
<feGaussianBlur stdDeviation="2"/>
<feComposite in2="hardAlpha" operator="out"/>
<feColorMatrix type="matrix" values="0 0 0 0 0 0 0 0 0 0 0 0 0 0 0 0 0 0 0.25 0"/>
<feBlend mode="normal" in2="BackgroundImageFix" result="effect1_dropShadow_4064_37972"/>
<feBlend mode="normal" in="SourceGraphic" in2="effect1_dropShadow_4064_37972" result="shape"/>
</filter>
<filter id="filter3_d_4064_37972" x="22" y="169" width="61" height="61" filterUnits="userSpaceOnUse" color-interpolation-filters="sRGB">
<feFlood flood-opacity="0" result="BackgroundImageFix"/>
<feColorMatrix in="SourceAlpha" type="matrix" values="0 0 0 0 0 0 0 0 0 0 0 0 0 0 0 0 0 0 127 0" result="hardAlpha"/>
<feOffset dy="4"/>
<feGaussianBlur stdDeviation="2"/>
<feComposite in2="hardAlpha" operator="out"/>
<feColorMatrix type="matrix" values="0 0 0 0 0 0 0 0 0 0 0 0 0 0 0 0 0 0 0.25 0"/>
<feBlend mode="normal" in2="BackgroundImageFix" result="effect1_dropShadow_4064_37972"/>
<feBlend mode="normal" in="SourceGraphic" in2="effect1_dropShadow_4064_37972" result="shape"/>
</filter>
<filter id="filter4_d_4064_37972" x="22" y="259" width="61" height="61" filterUnits="userSpaceOnUse" color-interpolation-filters="sRGB">
<feFlood flood-opacity="0" result="BackgroundImageFix"/>
<feColorMatrix in="SourceAlpha" type="matrix" values="0 0 0 0 0 0 0 0 0 0 0 0 0 0 0 0 0 0 127 0" result="hardAlpha"/>
<feOffset dy="4"/>
<feGaussianBlur stdDeviation="2"/>
<feComposite in2="hardAlpha" operator="out"/>
<feColorMatrix type="matrix" values="0 0 0 0 0 0 0 0 0 0 0 0 0 0 0 0 0 0 0.25 0"/>
<feBlend mode="normal" in2="BackgroundImageFix" result="effect1_dropShadow_4064_37972"/>
<feBlend mode="normal" in="SourceGraphic" in2="effect1_dropShadow_4064_37972" result="shape"/>
</filter>
<filter id="filter5_d_4064_37972" x="22" y="344" width="61" height="61" filterUnits="userSpaceOnUse" color-interpolation-filters="sRGB">
<feFlood flood-opacity="0" result="BackgroundImageFix"/>
<feColorMatrix in="SourceAlpha" type="matrix" values="0 0 0 0 0 0 0 0 0 0 0 0 0 0 0 0 0 0 127 0" result="hardAlpha"/>
<feOffset dy="4"/>
<feGaussianBlur stdDeviation="2"/>
<feComposite in2="hardAlpha" operator="out"/>
<feColorMatrix type="matrix" values="0 0 0 0 0 0 0 0 0 0 0 0 0 0 0 0 0 0 0.25 0"/>
<feBlend mode="normal" in2="BackgroundImageFix" result="effect1_dropShadow_4064_37972"/>
<feBlend mode="normal" in="SourceGraphic" in2="effect1_dropShadow_4064_37972" result="shape"/>
</filter>
</defs>
</svg>
