<svg width="489" height="468" viewBox="0 0 489 468" fill="none" xmlns="http://www.w3.org/2000/svg">
<g filter="url(#filter0_d_4064_37970)">
<rect x="4" width="481" height="460" rx="10" fill="#212238"/>
<rect x="4.5" y="0.5" width="480" height="459" rx="9.5" stroke="#354A5E"/>
</g>
<path d="M387.704 115V94.52L389.944 96.76H383.224V92.6H392.888V115H387.704ZM396.523 110.296V106.808L407.083 92.6H412.523L402.187 106.808L399.659 106.072H417.291V110.296H396.523ZM408.587 115V110.296L408.747 106.072V101.88H413.643V115H408.587ZM421.485 115V94.52L423.725 96.76H417.005V92.6H426.669V115H421.485ZM434.016 115V94.52L436.257 96.76H429.537V92.6H439.201V115H434.016Z" fill="#3B4559"/>
<path d="M368.75 112.444V100.626C368.75 99.39 368.178 98.2233 367.202 97.4656L357.452 89.902C356.009 88.7827 353.991 88.7827 352.548 89.902L342.798 97.4656C341.822 98.2233 341.25 99.39 341.25 100.626V112.444C341.25 114.654 343.041 116.444 345.25 116.444H350.658H359.342H364.75C366.959 116.444 368.75 114.654 368.75 112.444Z" stroke="#3B4559" stroke-width="1.5"/>
<rect width="20" height="11.8519" rx="2" transform="matrix(1 0 0 -1 345 111.704)" stroke="#3B4559" stroke-width="1.5"/>
<ellipse rx="1.25" ry="1.18519" transform="matrix(1 0 0 -1 360 105.779)" stroke="#3B4559" stroke-width="1.5"/>
<path d="M348.75 105.777H354.375" stroke="#3B4559" stroke-width="2" stroke-linecap="round"/>
<path d="M343 75V67.368H340.048V66.6H346.84V67.368H343.888V75H343ZM349.99 75.06C349.382 75.06 348.834 74.924 348.346 74.652C347.866 74.372 347.486 73.992 347.206 73.512C346.926 73.024 346.786 72.468 346.786 71.844C346.786 71.212 346.926 70.656 347.206 70.176C347.486 69.696 347.866 69.32 348.346 69.048C348.826 68.776 349.374 68.64 349.99 68.64C350.614 68.64 351.166 68.776 351.646 69.048C352.134 69.32 352.514 69.696 352.786 70.176C353.066 70.656 353.206 71.212 353.206 71.844C353.206 72.468 353.066 73.024 352.786 73.512C352.514 73.992 352.134 74.372 351.646 74.652C351.158 74.924 350.606 75.06 349.99 75.06ZM349.99 74.304C350.446 74.304 350.85 74.204 351.202 74.004C351.554 73.796 351.83 73.508 352.03 73.14C352.238 72.764 352.342 72.332 352.342 71.844C352.342 71.348 352.238 70.916 352.03 70.548C351.83 70.18 351.554 69.896 351.202 69.696C350.85 69.488 350.45 69.384 350.002 69.384C349.554 69.384 349.154 69.488 348.802 69.696C348.45 69.896 348.17 70.18 347.962 70.548C347.754 70.916 347.65 71.348 347.65 71.844C347.65 72.332 347.754 72.764 347.962 73.14C348.17 73.508 348.45 73.796 348.802 74.004C349.154 74.204 349.55 74.304 349.99 74.304ZM356.938 75.06C356.346 75.06 355.89 74.9 355.57 74.58C355.25 74.26 355.09 73.808 355.09 73.224V67.308H355.942V73.176C355.942 73.544 356.034 73.828 356.218 74.028C356.41 74.228 356.682 74.328 357.034 74.328C357.41 74.328 357.722 74.22 357.97 74.004L358.27 74.616C358.102 74.768 357.898 74.88 357.658 74.952C357.426 75.024 357.186 75.06 356.938 75.06ZM353.962 69.408V68.7H357.862V69.408H353.962ZM363.769 75V73.608L363.733 73.38V71.052C363.733 70.516 363.581 70.104 363.277 69.816C362.981 69.528 362.537 69.384 361.945 69.384C361.537 69.384 361.149 69.452 360.781 69.588C360.413 69.724 360.101 69.904 359.845 70.128L359.461 69.492C359.781 69.22 360.165 69.012 360.613 68.868C361.061 68.716 361.533 68.64 362.029 68.64C362.845 68.64 363.473 68.844 363.913 69.252C364.361 69.652 364.585 70.264 364.585 71.088V75H363.769ZM361.597 75.06C361.125 75.06 360.713 74.984 360.361 74.832C360.017 74.672 359.753 74.456 359.569 74.184C359.385 73.904 359.293 73.584 359.293 73.224C359.293 72.896 359.369 72.6 359.521 72.336C359.681 72.064 359.937 71.848 360.289 71.688C360.649 71.52 361.129 71.436 361.729 71.436H363.901V72.072H361.753C361.145 72.072 360.721 72.18 360.481 72.396C360.249 72.612 360.133 72.88 360.133 73.2C360.133 73.56 360.273 73.848 360.553 74.064C360.833 74.28 361.225 74.388 361.729 74.388C362.209 74.388 362.621 74.28 362.965 74.064C363.317 73.84 363.573 73.52 363.733 73.104L363.925 73.692C363.765 74.108 363.485 74.44 363.085 74.688C362.693 74.936 362.197 75.06 361.597 75.06ZM366.899 75V66.096H367.751V75H366.899ZM375.77 75.06C375.17 75.06 374.63 74.924 374.15 74.652C373.678 74.38 373.306 74.004 373.034 73.524C372.762 73.036 372.626 72.476 372.626 71.844C372.626 71.204 372.762 70.644 373.034 70.164C373.306 69.684 373.678 69.312 374.15 69.048C374.63 68.776 375.17 68.64 375.77 68.64C376.322 68.64 376.814 68.764 377.246 69.012C377.686 69.26 378.034 69.624 378.29 70.104C378.554 70.576 378.686 71.156 378.686 71.844C378.686 72.524 378.558 73.104 378.302 73.584C378.046 74.064 377.698 74.432 377.258 74.688C376.826 74.936 376.33 75.06 375.77 75.06ZM375.83 74.304C376.278 74.304 376.678 74.204 377.03 74.004C377.39 73.796 377.67 73.508 377.87 73.14C378.078 72.764 378.182 72.332 378.182 71.844C378.182 71.348 378.078 70.916 377.87 70.548C377.67 70.18 377.39 69.896 377.03 69.696C376.678 69.488 376.278 69.384 375.83 69.384C375.39 69.384 374.994 69.488 374.642 69.696C374.29 69.896 374.01 70.18 373.802 70.548C373.594 70.916 373.49 71.348 373.49 71.844C373.49 72.332 373.594 72.764 373.802 73.14C374.01 73.508 374.29 73.796 374.642 74.004C374.994 74.204 375.39 74.304 375.83 74.304ZM378.206 75V73.104L378.29 71.832L378.17 70.56V66.096H379.022V75H378.206ZM384.071 75.06C383.415 75.06 382.839 74.924 382.343 74.652C381.847 74.372 381.459 73.992 381.179 73.512C380.899 73.024 380.759 72.468 380.759 71.844C380.759 71.22 380.891 70.668 381.155 70.188C381.427 69.708 381.795 69.332 382.259 69.06C382.731 68.78 383.259 68.64 383.843 68.64C384.435 68.64 384.959 68.776 385.415 69.048C385.879 69.312 386.243 69.688 386.507 70.176C386.771 70.656 386.903 71.212 386.903 71.844C386.903 71.884 386.899 71.928 386.891 71.976C386.891 72.016 386.891 72.06 386.891 72.108H381.407V71.472H386.435L386.099 71.724C386.099 71.268 385.999 70.864 385.799 70.512C385.607 70.152 385.343 69.872 385.007 69.672C384.671 69.472 384.283 69.372 383.843 69.372C383.411 69.372 383.023 69.472 382.679 69.672C382.335 69.872 382.067 70.152 381.875 70.512C381.683 70.872 381.587 71.284 381.587 71.748V71.88C381.587 72.36 381.691 72.784 381.899 73.152C382.115 73.512 382.411 73.796 382.787 74.004C383.171 74.204 383.607 74.304 384.095 74.304C384.479 74.304 384.835 74.236 385.163 74.1C385.499 73.964 385.787 73.756 386.027 73.476L386.507 74.028C386.227 74.364 385.875 74.62 385.451 74.796C385.035 74.972 384.575 75.06 384.071 75.06ZM392.75 70.356H397.19V71.112H392.75V70.356ZM392.846 74.232H397.898V75H391.958V66.6H397.718V67.368H392.846V74.232ZM403.021 68.64C403.533 68.64 403.981 68.74 404.365 68.94C404.757 69.132 405.061 69.428 405.277 69.828C405.501 70.228 405.613 70.732 405.613 71.34V75H404.761V71.424C404.761 70.76 404.593 70.26 404.257 69.924C403.929 69.58 403.465 69.408 402.865 69.408C402.417 69.408 402.025 69.5 401.689 69.684C401.361 69.86 401.105 70.12 400.921 70.464C400.745 70.8 400.657 71.208 400.657 71.688V75H399.805V68.7H400.621V70.428L400.489 70.104C400.689 69.648 401.009 69.292 401.449 69.036C401.889 68.772 402.413 68.64 403.021 68.64ZM407.915 75V66.096H408.767V75H407.915ZM415.085 75V73.608L415.049 73.38V71.052C415.049 70.516 414.897 70.104 414.593 69.816C414.297 69.528 413.853 69.384 413.261 69.384C412.853 69.384 412.465 69.452 412.097 69.588C411.729 69.724 411.417 69.904 411.161 70.128L410.777 69.492C411.097 69.22 411.481 69.012 411.929 68.868C412.377 68.716 412.849 68.64 413.345 68.64C414.161 68.64 414.789 68.844 415.229 69.252C415.677 69.652 415.901 70.264 415.901 71.088V75H415.085ZM412.913 75.06C412.441 75.06 412.029 74.984 411.677 74.832C411.333 74.672 411.069 74.456 410.885 74.184C410.701 73.904 410.609 73.584 410.609 73.224C410.609 72.896 410.685 72.6 410.837 72.336C410.997 72.064 411.253 71.848 411.605 71.688C411.965 71.52 412.445 71.436 413.045 71.436H415.217V72.072H413.069C412.461 72.072 412.037 72.18 411.797 72.396C411.565 72.612 411.449 72.88 411.449 73.2C411.449 73.56 411.589 73.848 411.869 74.064C412.149 74.28 412.541 74.388 413.045 74.388C413.525 74.388 413.937 74.28 414.281 74.064C414.633 73.84 414.889 73.52 415.049 73.104L415.241 73.692C415.081 74.108 414.801 74.44 414.401 74.688C414.009 74.936 413.513 75.06 412.913 75.06ZM420.831 75.06C420.207 75.06 419.647 74.924 419.151 74.652C418.663 74.372 418.279 73.992 417.999 73.512C417.719 73.024 417.579 72.468 417.579 71.844C417.579 71.212 417.719 70.656 417.999 70.176C418.279 69.696 418.663 69.32 419.151 69.048C419.647 68.776 420.207 68.64 420.831 68.64C421.367 68.64 421.851 68.744 422.283 68.952C422.715 69.16 423.055 69.472 423.303 69.888L422.667 70.32C422.451 70 422.183 69.764 421.863 69.612C421.543 69.46 421.195 69.384 420.819 69.384C420.371 69.384 419.967 69.488 419.607 69.696C419.247 69.896 418.963 70.18 418.755 70.548C418.547 70.916 418.443 71.348 418.443 71.844C418.443 72.34 418.547 72.772 418.755 73.14C418.963 73.508 419.247 73.796 419.607 74.004C419.967 74.204 420.371 74.304 420.819 74.304C421.195 74.304 421.543 74.228 421.863 74.076C422.183 73.924 422.451 73.692 422.667 73.38L423.303 73.812C423.055 74.22 422.715 74.532 422.283 74.748C421.851 74.956 421.367 75.06 420.831 75.06ZM427.548 75.06C426.892 75.06 426.316 74.924 425.82 74.652C425.324 74.372 424.936 73.992 424.656 73.512C424.376 73.024 424.236 72.468 424.236 71.844C424.236 71.22 424.368 70.668 424.632 70.188C424.904 69.708 425.272 69.332 425.736 69.06C426.208 68.78 426.736 68.64 427.32 68.64C427.912 68.64 428.436 68.776 428.892 69.048C429.356 69.312 429.72 69.688 429.984 70.176C430.248 70.656 430.38 71.212 430.38 71.844C430.38 71.884 430.376 71.928 430.368 71.976C430.368 72.016 430.368 72.06 430.368 72.108H424.884V71.472H429.912L429.576 71.724C429.576 71.268 429.476 70.864 429.276 70.512C429.084 70.152 428.82 69.872 428.484 69.672C428.148 69.472 427.76 69.372 427.32 69.372C426.888 69.372 426.5 69.472 426.156 69.672C425.812 69.872 425.544 70.152 425.352 70.512C425.16 70.872 425.064 71.284 425.064 71.748V71.88C425.064 72.36 425.168 72.784 425.376 73.152C425.592 73.512 425.888 73.796 426.264 74.004C426.648 74.204 427.084 74.304 427.572 74.304C427.956 74.304 428.312 74.236 428.64 74.1C428.976 73.964 429.264 73.756 429.504 73.476L429.984 74.028C429.704 74.364 429.352 74.62 428.928 74.796C428.512 74.972 428.052 75.06 427.548 75.06ZM433.806 75.06C433.286 75.06 432.794 74.988 432.33 74.844C431.866 74.692 431.502 74.504 431.238 74.28L431.622 73.608C431.878 73.8 432.206 73.968 432.606 74.112C433.006 74.248 433.426 74.316 433.866 74.316C434.466 74.316 434.898 74.224 435.162 74.04C435.426 73.848 435.558 73.596 435.558 73.284C435.558 73.052 435.482 72.872 435.33 72.744C435.186 72.608 434.994 72.508 434.754 72.444C434.514 72.372 434.246 72.312 433.95 72.264C433.654 72.216 433.358 72.16 433.062 72.096C432.774 72.032 432.51 71.94 432.27 71.82C432.03 71.692 431.834 71.52 431.682 71.304C431.538 71.088 431.466 70.8 431.466 70.44C431.466 70.096 431.562 69.788 431.754 69.516C431.946 69.244 432.226 69.032 432.594 68.88C432.97 68.72 433.426 68.64 433.962 68.64C434.37 68.64 434.778 68.696 435.186 68.808C435.594 68.912 435.93 69.052 436.194 69.228L435.822 69.912C435.542 69.72 435.242 69.584 434.922 69.504C434.602 69.416 434.282 69.372 433.962 69.372C433.394 69.372 432.974 69.472 432.702 69.672C432.438 69.864 432.306 70.112 432.306 70.416C432.306 70.656 432.378 70.844 432.522 70.98C432.674 71.116 432.87 71.224 433.11 71.304C433.358 71.376 433.626 71.436 433.914 71.484C434.21 71.532 434.502 71.592 434.79 71.664C435.086 71.728 435.354 71.82 435.594 71.94C435.842 72.052 436.038 72.216 436.182 72.432C436.334 72.64 436.41 72.916 436.41 73.26C436.41 73.628 436.306 73.948 436.098 74.22C435.898 74.484 435.602 74.692 435.21 74.844C434.826 74.988 434.358 75.06 433.806 75.06Z" fill="#D0D0CE"/>
<path opacity="0.1" d="M89.7195 137H90.3697V298.223H89.7195V137Z" fill="#8F92A1"/>
<path d="M82.5843 313.365V307.065H83.2503V312.789H86.7783V313.365H82.5843ZM89.439 313.41C89.037 313.41 88.686 313.335 88.386 313.185C88.086 313.035 87.852 312.81 87.684 312.51C87.522 312.21 87.441 311.835 87.441 311.385V308.64H88.08V311.313C88.08 311.817 88.203 312.198 88.449 312.456C88.701 312.708 89.052 312.834 89.502 312.834C89.832 312.834 90.117 312.768 90.357 312.636C90.603 312.498 90.789 312.3 90.915 312.042C91.047 311.784 91.113 311.475 91.113 311.115V308.64H91.752V313.365H91.14V312.069L91.239 312.303C91.089 312.651 90.855 312.924 90.537 313.122C90.225 313.314 89.859 313.41 89.439 313.41ZM95.7521 308.595C96.1361 308.595 96.4721 308.67 96.7601 308.82C97.0541 308.964 97.2821 309.186 97.4441 309.486C97.6121 309.786 97.6961 310.164 97.6961 310.62V313.365H97.0571V310.683C97.0571 310.185 96.9311 309.81 96.6791 309.558C96.4331 309.3 96.0851 309.171 95.6351 309.171C95.2991 309.171 95.0051 309.24 94.7531 309.378C94.5071 309.51 94.3151 309.705 94.1771 309.963C94.0451 310.215 93.9791 310.521 93.9791 310.881V313.365H93.3401V308.64H93.9521V309.936L93.8531 309.693C94.0031 309.351 94.2431 309.084 94.5731 308.892C94.9031 308.694 95.2961 308.595 95.7521 308.595Z" fill="#D0D0CE"/>
<rect opacity="0.1" x="144.986" y="137" width="0.650202" height="161.223" fill="#8F92A1"/>
<path d="M137.772 313.365V307.065H138.321L141.201 311.979H140.913L143.766 307.065H144.315V313.365H143.676V308.064H143.829L141.201 312.564H140.886L138.24 308.064H138.411V313.365H137.772ZM149.001 313.365V312.321L148.974 312.15V310.404C148.974 310.002 148.86 309.693 148.632 309.477C148.41 309.261 148.077 309.153 147.633 309.153C147.327 309.153 147.036 309.204 146.76 309.306C146.484 309.408 146.25 309.543 146.058 309.711L145.77 309.234C146.01 309.03 146.298 308.874 146.634 308.766C146.97 308.652 147.324 308.595 147.696 308.595C148.308 308.595 148.779 308.748 149.109 309.054C149.445 309.354 149.613 309.813 149.613 310.431V313.365H149.001ZM147.372 313.41C147.018 313.41 146.709 313.353 146.445 313.239C146.187 313.119 145.989 312.957 145.851 312.753C145.713 312.543 145.644 312.303 145.644 312.033C145.644 311.787 145.701 311.565 145.815 311.367C145.935 311.163 146.127 311.001 146.391 310.881C146.661 310.755 147.021 310.692 147.471 310.692H149.1V311.169H147.489C147.033 311.169 146.715 311.25 146.535 311.412C146.361 311.574 146.274 311.775 146.274 312.015C146.274 312.285 146.379 312.501 146.589 312.663C146.799 312.825 147.093 312.906 147.471 312.906C147.831 312.906 148.14 312.825 148.398 312.663C148.662 312.495 148.854 312.255 148.974 311.943L149.118 312.384C148.998 312.696 148.788 312.945 148.488 313.131C148.194 313.317 147.822 313.41 147.372 313.41ZM151.156 313.365V308.64H151.768V309.927L151.705 309.702C151.837 309.342 152.059 309.069 152.371 308.883C152.683 308.691 153.07 308.595 153.532 308.595V309.216C153.508 309.216 153.484 309.216 153.46 309.216C153.436 309.21 153.412 309.207 153.388 309.207C152.89 309.207 152.5 309.36 152.218 309.666C151.936 309.966 151.795 310.395 151.795 310.953V313.365H151.156Z" fill="#D0D0CE"/>
<rect opacity="0.1" x="200.253" y="137" width="0.650202" height="161.223" fill="#8F92A1"/>
<path d="M193.576 313.365V307.065H194.125L197.005 311.979H196.717L199.57 307.065H200.119V313.365H199.48V308.064H199.633L197.005 312.564H196.69L194.044 308.064H194.215V313.365H193.576ZM201.843 313.365V308.64H202.482V313.365H201.843ZM202.167 307.596C202.035 307.596 201.924 307.551 201.834 307.461C201.744 307.371 201.699 307.263 201.699 307.137C201.699 307.011 201.744 306.906 201.834 306.822C201.924 306.732 202.035 306.687 202.167 306.687C202.299 306.687 202.41 306.729 202.5 306.813C202.59 306.897 202.635 307.002 202.635 307.128C202.635 307.26 202.59 307.371 202.5 307.461C202.416 307.551 202.305 307.596 202.167 307.596ZM206.075 313.41C205.583 313.41 205.151 313.308 204.779 313.104C204.407 312.894 204.116 312.609 203.906 312.249C203.696 311.883 203.591 311.466 203.591 310.998C203.591 310.53 203.69 310.116 203.888 309.756C204.092 309.396 204.368 309.114 204.716 308.91C205.07 308.7 205.466 308.595 205.904 308.595C206.348 308.595 206.741 308.697 207.083 308.901C207.431 309.099 207.704 309.381 207.902 309.747C208.1 310.107 208.199 310.524 208.199 310.998C208.199 311.028 208.196 311.061 208.19 311.097C208.19 311.127 208.19 311.16 208.19 311.196H204.077V310.719H207.848L207.596 310.908C207.596 310.566 207.521 310.263 207.371 309.999C207.227 309.729 207.029 309.519 206.777 309.369C206.525 309.219 206.234 309.144 205.904 309.144C205.58 309.144 205.289 309.219 205.031 309.369C204.773 309.519 204.572 309.729 204.428 309.999C204.284 310.269 204.212 310.578 204.212 310.926V311.025C204.212 311.385 204.29 311.703 204.446 311.979C204.608 312.249 204.83 312.462 205.112 312.618C205.4 312.768 205.727 312.843 206.093 312.843C206.381 312.843 206.648 312.792 206.894 312.69C207.146 312.588 207.362 312.432 207.542 312.222L207.902 312.636C207.692 312.888 207.428 313.08 207.11 313.212C206.798 313.344 206.453 313.41 206.075 313.41Z" fill="#D0D0CE"/>
<rect opacity="0.1" x="255.522" y="137" width="0.650202" height="161.223" fill="#8F92A1"/>
<path d="M249.747 313.419C249.393 313.419 249.06 313.341 248.748 313.185C248.442 313.029 248.196 312.807 248.01 312.519L248.397 312.069C248.571 312.321 248.772 312.513 249 312.645C249.228 312.777 249.48 312.843 249.756 312.843C250.536 312.843 250.926 312.381 250.926 311.457V307.641H248.622V307.065H251.583V311.43C251.583 312.096 251.427 312.594 251.115 312.924C250.809 313.254 250.353 313.419 249.747 313.419ZM255.206 313.41C254.804 313.41 254.453 313.335 254.153 313.185C253.853 313.035 253.619 312.81 253.451 312.51C253.289 312.21 253.208 311.835 253.208 311.385V308.64H253.847V311.313C253.847 311.817 253.97 312.198 254.216 312.456C254.468 312.708 254.819 312.834 255.269 312.834C255.599 312.834 255.884 312.768 256.124 312.636C256.37 312.498 256.556 312.3 256.682 312.042C256.814 311.784 256.88 311.475 256.88 311.115V308.64H257.519V313.365H256.907V312.069L257.006 312.303C256.856 312.651 256.622 312.924 256.304 313.122C255.992 313.314 255.626 313.41 255.206 313.41ZM261.114 313.41C260.622 313.41 260.19 313.308 259.818 313.104C259.446 312.894 259.155 312.609 258.945 312.249C258.735 311.883 258.63 311.466 258.63 310.998C258.63 310.53 258.729 310.116 258.927 309.756C259.131 309.396 259.407 309.114 259.755 308.91C260.109 308.7 260.505 308.595 260.943 308.595C261.387 308.595 261.78 308.697 262.122 308.901C262.47 309.099 262.743 309.381 262.941 309.747C263.139 310.107 263.238 310.524 263.238 310.998C263.238 311.028 263.235 311.061 263.229 311.097C263.229 311.127 263.229 311.16 263.229 311.196H259.116V310.719H262.887L262.635 310.908C262.635 310.566 262.56 310.263 262.41 309.999C262.266 309.729 262.068 309.519 261.816 309.369C261.564 309.219 261.273 309.144 260.943 309.144C260.619 309.144 260.328 309.219 260.07 309.369C259.812 309.519 259.611 309.729 259.467 309.999C259.323 310.269 259.251 310.578 259.251 310.926V311.025C259.251 311.385 259.329 311.703 259.485 311.979C259.647 312.249 259.869 312.462 260.151 312.618C260.439 312.768 260.766 312.843 261.132 312.843C261.42 312.843 261.687 312.792 261.933 312.69C262.185 312.588 262.401 312.432 262.581 312.222L262.941 312.636C262.731 312.888 262.467 313.08 262.149 313.212C261.837 313.344 261.492 313.41 261.114 313.41Z" fill="#D0D0CE"/>
<rect opacity="0.1" x="310.788" y="137" width="0.650202" height="161.223" fill="#8F92A1"/>
<path d="M307.136 313.365L304.346 307.065H305.066L307.676 312.996H307.28L309.908 307.065H310.583L307.793 313.365H307.136ZM311.143 313.365V308.64H311.782V313.365H311.143ZM311.467 307.596C311.335 307.596 311.224 307.551 311.134 307.461C311.044 307.371 310.999 307.263 310.999 307.137C310.999 307.011 311.044 306.906 311.134 306.822C311.224 306.732 311.335 306.687 311.467 306.687C311.599 306.687 311.71 306.729 311.8 306.813C311.89 306.897 311.935 307.002 311.935 307.128C311.935 307.26 311.89 307.371 311.8 307.461C311.716 307.551 311.605 307.596 311.467 307.596ZM315.374 313.41C314.882 313.41 314.45 313.308 314.078 313.104C313.706 312.894 313.415 312.609 313.205 312.249C312.995 311.883 312.89 311.466 312.89 310.998C312.89 310.53 312.989 310.116 313.187 309.756C313.391 309.396 313.667 309.114 314.015 308.91C314.369 308.7 314.765 308.595 315.203 308.595C315.647 308.595 316.04 308.697 316.382 308.901C316.73 309.099 317.003 309.381 317.201 309.747C317.399 310.107 317.498 310.524 317.498 310.998C317.498 311.028 317.495 311.061 317.489 311.097C317.489 311.127 317.489 311.16 317.489 311.196H313.376V310.719H317.147L316.895 310.908C316.895 310.566 316.82 310.263 316.67 309.999C316.526 309.729 316.328 309.519 316.076 309.369C315.824 309.219 315.533 309.144 315.203 309.144C314.879 309.144 314.588 309.219 314.33 309.369C314.072 309.519 313.871 309.729 313.727 309.999C313.583 310.269 313.511 310.578 313.511 310.926V311.025C313.511 311.385 313.589 311.703 313.745 311.979C313.907 312.249 314.129 312.462 314.411 312.618C314.699 312.768 315.026 312.843 315.392 312.843C315.68 312.843 315.947 312.792 316.193 312.69C316.445 312.588 316.661 312.432 316.841 312.222L317.201 312.636C316.991 312.888 316.727 313.08 316.409 313.212C316.097 313.344 315.752 313.41 315.374 313.41Z" fill="#D0D0CE"/>
<rect opacity="0.1" x="366.055" y="137" width="0.650202" height="161.223" fill="#8F92A1"/>
<path d="M360.864 313.419C360.396 313.419 359.946 313.344 359.514 313.194C359.088 313.038 358.758 312.84 358.524 312.6L358.785 312.087C359.007 312.303 359.304 312.486 359.676 312.636C360.054 312.78 360.45 312.852 360.864 312.852C361.26 312.852 361.581 312.804 361.827 312.708C362.079 312.606 362.262 312.471 362.376 312.303C362.496 312.135 362.556 311.949 362.556 311.745C362.556 311.499 362.484 311.301 362.34 311.151C362.202 311.001 362.019 310.884 361.791 310.8C361.563 310.71 361.311 310.632 361.035 310.566C360.759 310.5 360.483 310.431 360.207 310.359C359.931 310.281 359.676 310.179 359.442 310.053C359.214 309.927 359.028 309.762 358.884 309.558C358.746 309.348 358.677 309.075 358.677 308.739C358.677 308.427 358.758 308.142 358.92 307.884C359.088 307.62 359.343 307.41 359.685 307.254C360.027 307.092 360.465 307.011 360.999 307.011C361.353 307.011 361.704 307.062 362.052 307.164C362.4 307.26 362.7 307.395 362.952 307.569L362.727 308.1C362.457 307.92 362.169 307.788 361.863 307.704C361.563 307.62 361.272 307.578 360.99 307.578C360.612 307.578 360.3 307.629 360.054 307.731C359.808 307.833 359.625 307.971 359.505 308.145C359.391 308.313 359.334 308.505 359.334 308.721C359.334 308.967 359.403 309.165 359.541 309.315C359.685 309.465 359.871 309.582 360.099 309.666C360.333 309.75 360.588 309.825 360.864 309.891C361.14 309.957 361.413 310.029 361.683 310.107C361.959 310.185 362.211 310.287 362.439 310.413C362.673 310.533 362.859 310.695 362.997 310.899C363.141 311.103 363.213 311.37 363.213 311.7C363.213 312.006 363.129 312.291 362.961 312.555C362.793 312.813 362.535 313.023 362.187 313.185C361.845 313.341 361.404 313.419 360.864 313.419ZM367.297 313.365V312.321L367.27 312.15V310.404C367.27 310.002 367.156 309.693 366.928 309.477C366.706 309.261 366.373 309.153 365.929 309.153C365.623 309.153 365.332 309.204 365.056 309.306C364.78 309.408 364.546 309.543 364.354 309.711L364.066 309.234C364.306 309.03 364.594 308.874 364.93 308.766C365.266 308.652 365.62 308.595 365.992 308.595C366.604 308.595 367.075 308.748 367.405 309.054C367.741 309.354 367.909 309.813 367.909 310.431V313.365H367.297ZM365.668 313.41C365.314 313.41 365.005 313.353 364.741 313.239C364.483 313.119 364.285 312.957 364.147 312.753C364.009 312.543 363.94 312.303 363.94 312.033C363.94 311.787 363.997 311.565 364.111 311.367C364.231 311.163 364.423 311.001 364.687 310.881C364.957 310.755 365.317 310.692 365.767 310.692H367.396V311.169H365.785C365.329 311.169 365.011 311.25 364.831 311.412C364.657 311.574 364.57 311.775 364.57 312.015C364.57 312.285 364.675 312.501 364.885 312.663C365.095 312.825 365.389 312.906 365.767 312.906C366.127 312.906 366.436 312.825 366.694 312.663C366.958 312.495 367.15 312.255 367.27 311.943L367.414 312.384C367.294 312.696 367.084 312.945 366.784 313.131C366.49 313.317 366.118 313.41 365.668 313.41ZM371.891 313.41C371.477 313.41 371.105 313.317 370.775 313.131C370.445 312.939 370.184 312.663 369.992 312.303C369.8 311.943 369.704 311.508 369.704 310.998C369.704 310.482 369.8 310.047 369.992 309.693C370.19 309.333 370.454 309.06 370.784 308.874C371.114 308.688 371.483 308.595 371.891 308.595C372.341 308.595 372.743 308.697 373.097 308.901C373.457 309.099 373.739 309.378 373.943 309.738C374.147 310.098 374.249 310.518 374.249 310.998C374.249 311.472 374.147 311.892 373.943 312.258C373.739 312.618 373.457 312.9 373.097 313.104C372.743 313.308 372.341 313.41 371.891 313.41ZM369.452 313.365V306.687H370.091V310.035L370.001 310.989L370.064 311.943V313.365H369.452ZM371.846 312.843C372.182 312.843 372.482 312.768 372.746 312.618C373.01 312.462 373.22 312.246 373.376 311.97C373.532 311.688 373.61 311.364 373.61 310.998C373.61 310.626 373.532 310.302 373.376 310.026C373.22 309.75 373.01 309.537 372.746 309.387C372.482 309.231 372.182 309.153 371.846 309.153C371.51 309.153 371.207 309.231 370.937 309.387C370.673 309.537 370.463 309.75 370.307 310.026C370.157 310.302 370.082 310.626 370.082 310.998C370.082 311.364 370.157 311.688 370.307 311.97C370.463 312.246 370.673 312.462 370.937 312.618C371.207 312.768 371.51 312.843 371.846 312.843Z" fill="#D0D0CE"/>
<rect opacity="0.05" x="394.014" y="137" width="55.2672" height="161.223" rx="11.5667" fill="url(#paint0_linear_4064_37970)"/>
<rect opacity="0.1" x="421.322" y="137" width="0.650202" height="161.223" fill="#8F92A1"/>
<path d="M418.62 307.065H419.277V313.365H418.62V307.065ZM414.678 313.365H414.012V307.065H414.678V313.365ZM418.683 310.458H414.606V309.873H418.683V310.458ZM422.931 313.41C422.475 313.41 422.064 313.308 421.698 313.104C421.338 312.894 421.053 312.609 420.843 312.249C420.633 311.883 420.528 311.466 420.528 310.998C420.528 310.524 420.633 310.107 420.843 309.747C421.053 309.387 421.338 309.105 421.698 308.901C422.058 308.697 422.469 308.595 422.931 308.595C423.399 308.595 423.813 308.697 424.173 308.901C424.539 309.105 424.824 309.387 425.028 309.747C425.238 310.107 425.343 310.524 425.343 310.998C425.343 311.466 425.238 311.883 425.028 312.249C424.824 312.609 424.539 312.894 424.173 313.104C423.807 313.308 423.393 313.41 422.931 313.41ZM422.931 312.843C423.273 312.843 423.576 312.768 423.84 312.618C424.104 312.462 424.311 312.246 424.461 311.97C424.617 311.688 424.695 311.364 424.695 310.998C424.695 310.626 424.617 310.302 424.461 310.026C424.311 309.75 424.104 309.537 423.84 309.387C423.576 309.231 423.276 309.153 422.94 309.153C422.604 309.153 422.304 309.231 422.04 309.387C421.776 309.537 421.566 309.75 421.41 310.026C421.254 310.302 421.176 310.626 421.176 310.998C421.176 311.364 421.254 311.688 421.41 311.97C421.566 312.246 421.776 312.462 422.04 312.618C422.304 312.768 422.601 312.843 422.931 312.843ZM426.359 315.156C426.137 315.156 425.924 315.12 425.72 315.048C425.522 314.976 425.351 314.868 425.207 314.724L425.504 314.247C425.624 314.361 425.753 314.448 425.891 314.508C426.035 314.574 426.194 314.607 426.368 314.607C426.578 314.607 426.758 314.547 426.908 314.427C427.064 314.313 427.211 314.109 427.349 313.815L427.655 313.122L427.727 313.023L429.671 308.64H430.301L427.934 313.932C427.802 314.238 427.655 314.481 427.493 314.661C427.337 314.841 427.166 314.967 426.98 315.039C426.794 315.117 426.587 315.156 426.359 315.156ZM427.619 313.5L425.441 308.64H426.107L428.033 312.978L427.619 313.5Z" fill="#285CED"/>
<path d="M28.648 302.433C28.216 302.433 27.832 302.321 27.496 302.097C27.16 301.867 26.896 301.542 26.704 301.121C26.512 300.694 26.416 300.182 26.416 299.585C26.416 298.987 26.512 298.478 26.704 298.057C26.896 297.63 27.16 297.305 27.496 297.081C27.832 296.851 28.216 296.737 28.648 296.737C29.08 296.737 29.464 296.851 29.8 297.081C30.136 297.305 30.4 297.63 30.592 298.057C30.7893 298.478 30.888 298.987 30.888 299.585C30.888 300.182 30.7893 300.694 30.592 301.121C30.4 301.542 30.136 301.867 29.8 302.097C29.464 302.321 29.08 302.433 28.648 302.433ZM28.648 301.905C28.9787 301.905 29.2667 301.817 29.512 301.641C29.7573 301.459 29.9493 301.198 30.088 300.857C30.2267 300.51 30.296 300.086 30.296 299.585C30.296 299.083 30.2267 298.662 30.088 298.321C29.9493 297.974 29.7573 297.713 29.512 297.537C29.2667 297.355 28.9787 297.265 28.648 297.265C28.328 297.265 28.0427 297.355 27.792 297.537C27.5413 297.713 27.3467 297.974 27.208 298.321C27.0693 298.662 27 299.083 27 299.585C27 300.086 27.0693 300.51 27.208 300.857C27.3467 301.198 27.5413 301.459 27.792 301.641C28.0427 301.817 28.328 301.905 28.648 301.905Z" fill="#D0D0CE"/>
<path d="M26.312 275.514V275.106L28.64 272.826C28.8533 272.618 29.0133 272.436 29.12 272.282C29.2267 272.122 29.2987 271.972 29.336 271.834C29.3733 271.695 29.392 271.564 29.392 271.442C29.392 271.116 29.28 270.86 29.056 270.674C28.8373 270.487 28.512 270.394 28.08 270.394C27.7493 270.394 27.456 270.444 27.2 270.546C26.9493 270.647 26.7333 270.804 26.552 271.018L26.144 270.666C26.3627 270.41 26.6427 270.212 26.984 270.074C27.3253 269.935 27.7067 269.866 28.128 269.866C28.5067 269.866 28.8347 269.927 29.112 270.05C29.3893 270.167 29.6027 270.34 29.752 270.57C29.9067 270.799 29.984 271.068 29.984 271.378C29.984 271.559 29.9573 271.738 29.904 271.914C29.856 272.09 29.7653 272.276 29.632 272.474C29.504 272.666 29.3147 272.884 29.064 273.13L26.928 275.226L26.768 275.002H30.24V275.514H26.312ZM32.9865 275.562C32.5545 275.562 32.1705 275.45 31.8345 275.226C31.4985 274.996 31.2345 274.671 31.0425 274.25C30.8505 273.823 30.7545 273.311 30.7545 272.714C30.7545 272.116 30.8505 271.607 31.0425 271.186C31.2345 270.759 31.4985 270.434 31.8345 270.21C32.1705 269.98 32.5545 269.866 32.9865 269.866C33.4185 269.866 33.8025 269.98 34.1385 270.21C34.4745 270.434 34.7385 270.759 34.9305 271.186C35.1278 271.607 35.2265 272.116 35.2265 272.714C35.2265 273.311 35.1278 273.823 34.9305 274.25C34.7385 274.671 34.4745 274.996 34.1385 275.226C33.8025 275.45 33.4185 275.562 32.9865 275.562ZM32.9865 275.034C33.3171 275.034 33.6051 274.946 33.8505 274.77C34.0958 274.588 34.2878 274.327 34.4265 273.986C34.5651 273.639 34.6345 273.215 34.6345 272.714C34.6345 272.212 34.5651 271.791 34.4265 271.45C34.2878 271.103 34.0958 270.842 33.8505 270.666C33.6051 270.484 33.3171 270.394 32.9865 270.394C32.6665 270.394 32.3811 270.484 32.1305 270.666C31.8798 270.842 31.6851 271.103 31.5465 271.45C31.4078 271.791 31.3385 272.212 31.3385 272.714C31.3385 273.215 31.4078 273.639 31.5465 273.986C31.6851 274.327 31.8798 274.588 32.1305 274.77C32.3811 274.946 32.6665 275.034 32.9865 275.034ZM38.0906 275.562C37.6586 275.562 37.2746 275.45 36.9386 275.226C36.6026 274.996 36.3386 274.671 36.1466 274.25C35.9546 273.823 35.8586 273.311 35.8586 272.714C35.8586 272.116 35.9546 271.607 36.1466 271.186C36.3386 270.759 36.6026 270.434 36.9386 270.21C37.2746 269.98 37.6586 269.866 38.0906 269.866C38.5226 269.866 38.9066 269.98 39.2426 270.21C39.5786 270.434 39.8426 270.759 40.0346 271.186C40.2319 271.607 40.3306 272.116 40.3306 272.714C40.3306 273.311 40.2319 273.823 40.0346 274.25C39.8426 274.671 39.5786 274.996 39.2426 275.226C38.9066 275.45 38.5226 275.562 38.0906 275.562ZM38.0906 275.034C38.4212 275.034 38.7092 274.946 38.9546 274.77C39.1999 274.588 39.3919 274.327 39.5306 273.986C39.6692 273.639 39.7386 273.215 39.7386 272.714C39.7386 272.212 39.6692 271.791 39.5306 271.45C39.3919 271.103 39.1999 270.842 38.9546 270.666C38.7092 270.484 38.4212 270.394 38.0906 270.394C37.7706 270.394 37.4852 270.484 37.2346 270.666C36.9839 270.842 36.7892 271.103 36.6506 271.45C36.5119 271.791 36.4426 272.212 36.4426 272.714C36.4426 273.215 36.5119 273.639 36.6506 273.986C36.7892 274.327 36.9839 274.588 37.2346 274.77C37.4852 274.946 37.7706 275.034 38.0906 275.034Z" fill="#D0D0CE"/>
<path d="M26.32 247.172V246.756L29.288 243.044H29.928L26.984 246.756L26.672 246.66H31.176V247.172H26.32ZM29.48 248.644V247.172L29.496 246.66V245.364H30.056V248.644H29.48ZM33.7443 248.692C33.3123 248.692 32.9283 248.58 32.5923 248.356C32.2563 248.126 31.9923 247.801 31.8003 247.38C31.6083 246.953 31.5123 246.441 31.5123 245.844C31.5123 245.246 31.6083 244.737 31.8003 244.316C31.9923 243.889 32.2563 243.564 32.5923 243.34C32.9283 243.11 33.3123 242.996 33.7443 242.996C34.1763 242.996 34.5603 243.11 34.8963 243.34C35.2323 243.564 35.4963 243.889 35.6883 244.316C35.8856 244.737 35.9843 245.246 35.9843 245.844C35.9843 246.441 35.8856 246.953 35.6883 247.38C35.4963 247.801 35.2323 248.126 34.8963 248.356C34.5603 248.58 34.1763 248.692 33.7443 248.692ZM33.7443 248.164C34.075 248.164 34.363 248.076 34.6083 247.9C34.8536 247.718 35.0456 247.457 35.1843 247.116C35.323 246.769 35.3923 246.345 35.3923 245.844C35.3923 245.342 35.323 244.921 35.1843 244.58C35.0456 244.233 34.8536 243.972 34.6083 243.796C34.363 243.614 34.075 243.524 33.7443 243.524C33.4243 243.524 33.139 243.614 32.8883 243.796C32.6376 243.972 32.443 244.233 32.3043 244.58C32.1656 244.921 32.0963 245.342 32.0963 245.844C32.0963 246.345 32.1656 246.769 32.3043 247.116C32.443 247.457 32.6376 247.718 32.8883 247.9C33.139 248.076 33.4243 248.164 33.7443 248.164ZM38.8484 248.692C38.4164 248.692 38.0324 248.58 37.6964 248.356C37.3604 248.126 37.0964 247.801 36.9044 247.38C36.7124 246.953 36.6164 246.441 36.6164 245.844C36.6164 245.246 36.7124 244.737 36.9044 244.316C37.0964 243.889 37.3604 243.564 37.6964 243.34C38.0324 243.11 38.4164 242.996 38.8484 242.996C39.2804 242.996 39.6644 243.11 40.0004 243.34C40.3364 243.564 40.6004 243.889 40.7924 244.316C40.9897 244.737 41.0884 245.246 41.0884 245.844C41.0884 246.441 40.9897 246.953 40.7924 247.38C40.6004 247.801 40.3364 248.126 40.0004 248.356C39.6644 248.58 39.2804 248.692 38.8484 248.692ZM38.8484 248.164C39.179 248.164 39.467 248.076 39.7124 247.9C39.9577 247.718 40.1497 247.457 40.2884 247.116C40.427 246.769 40.4964 246.345 40.4964 245.844C40.4964 245.342 40.427 244.921 40.2884 244.58C40.1497 244.233 39.9577 243.972 39.7124 243.796C39.467 243.614 39.179 243.524 38.8484 243.524C38.5284 243.524 38.243 243.614 37.9924 243.796C37.7417 243.972 37.547 244.233 37.4084 244.58C37.2697 244.921 37.2004 245.342 37.2004 245.844C37.2004 246.345 37.2697 246.769 37.4084 247.116C37.547 247.457 37.7417 247.718 37.9924 247.9C38.243 248.076 38.5284 248.164 38.8484 248.164Z" fill="#D0D0CE"/>
<path d="M28.712 221.82C28.216 221.82 27.7973 221.711 27.456 221.492C27.1147 221.268 26.856 220.948 26.68 220.532C26.504 220.111 26.416 219.607 26.416 219.02C26.416 218.386 26.5227 217.855 26.736 217.428C26.9547 216.996 27.256 216.671 27.64 216.452C28.024 216.234 28.4693 216.124 28.976 216.124C29.2267 216.124 29.4667 216.148 29.696 216.196C29.9253 216.244 30.128 216.322 30.304 216.428L30.072 216.892C29.928 216.796 29.7627 216.73 29.576 216.692C29.3893 216.65 29.192 216.628 28.984 216.628C28.3813 216.628 27.8987 216.82 27.536 217.204C27.1787 217.588 27 218.162 27 218.924C27 219.042 27.0053 219.188 27.016 219.364C27.032 219.535 27.064 219.706 27.112 219.876L26.912 219.724C26.9707 219.447 27.0853 219.212 27.256 219.02C27.4267 218.823 27.64 218.674 27.896 218.572C28.152 218.471 28.432 218.42 28.736 218.42C29.1093 218.42 29.4373 218.49 29.72 218.628C30.0027 218.767 30.224 218.962 30.384 219.212C30.544 219.463 30.624 219.759 30.624 220.1C30.624 220.447 30.5413 220.751 30.376 221.012C30.2107 221.268 29.9813 221.468 29.688 221.612C29.4 221.751 29.0747 221.82 28.712 221.82ZM28.688 221.332C28.9547 221.332 29.1893 221.284 29.392 221.188C29.6 221.087 29.7627 220.946 29.88 220.764C29.9973 220.578 30.056 220.362 30.056 220.116C30.056 219.748 29.928 219.455 29.672 219.236C29.4213 219.018 29.08 218.908 28.648 218.908C28.36 218.908 28.1093 218.962 27.896 219.068C27.6827 219.175 27.5147 219.322 27.392 219.508C27.2693 219.69 27.208 219.898 27.208 220.132C27.208 220.335 27.264 220.53 27.376 220.716C27.488 220.898 27.6533 221.047 27.872 221.164C28.096 221.276 28.368 221.332 28.688 221.332ZM33.3302 221.82C32.8982 221.82 32.5142 221.708 32.1782 221.484C31.8422 221.255 31.5782 220.93 31.3862 220.508C31.1942 220.082 31.0982 219.57 31.0982 218.972C31.0982 218.375 31.1942 217.866 31.3862 217.444C31.5782 217.018 31.8422 216.692 32.1782 216.468C32.5142 216.239 32.8982 216.124 33.3302 216.124C33.7622 216.124 34.1462 216.239 34.4822 216.468C34.8182 216.692 35.0822 217.018 35.2742 217.444C35.4716 217.866 35.5702 218.375 35.5702 218.972C35.5702 219.57 35.4716 220.082 35.2742 220.508C35.0822 220.93 34.8182 221.255 34.4822 221.484C34.1462 221.708 33.7622 221.82 33.3302 221.82ZM33.3302 221.292C33.6609 221.292 33.9489 221.204 34.1942 221.028C34.4396 220.847 34.6316 220.586 34.7702 220.244C34.9089 219.898 34.9782 219.474 34.9782 218.972C34.9782 218.471 34.9089 218.05 34.7702 217.708C34.6316 217.362 34.4396 217.1 34.1942 216.924C33.9489 216.743 33.6609 216.652 33.3302 216.652C33.0102 216.652 32.7249 216.743 32.4742 216.924C32.2236 217.1 32.0289 217.362 31.8902 217.708C31.7516 218.05 31.6822 218.471 31.6822 218.972C31.6822 219.474 31.7516 219.898 31.8902 220.244C32.0289 220.586 32.2236 220.847 32.4742 221.028C32.7249 221.204 33.0102 221.292 33.3302 221.292ZM38.4343 221.82C38.0023 221.82 37.6183 221.708 37.2823 221.484C36.9463 221.255 36.6823 220.93 36.4903 220.508C36.2983 220.082 36.2023 219.57 36.2023 218.972C36.2023 218.375 36.2983 217.866 36.4903 217.444C36.6823 217.018 36.9463 216.692 37.2823 216.468C37.6183 216.239 38.0023 216.124 38.4343 216.124C38.8663 216.124 39.2503 216.239 39.5863 216.468C39.9223 216.692 40.1863 217.018 40.3783 217.444C40.5757 217.866 40.6743 218.375 40.6743 218.972C40.6743 219.57 40.5757 220.082 40.3783 220.508C40.1863 220.93 39.9223 221.255 39.5863 221.484C39.2503 221.708 38.8663 221.82 38.4343 221.82ZM38.4343 221.292C38.765 221.292 39.053 221.204 39.2983 221.028C39.5437 220.847 39.7357 220.586 39.8743 220.244C40.013 219.898 40.0823 219.474 40.0823 218.972C40.0823 218.471 40.013 218.05 39.8743 217.708C39.7357 217.362 39.5437 217.1 39.2983 216.924C39.053 216.743 38.765 216.652 38.4343 216.652C38.1143 216.652 37.829 216.743 37.5783 216.924C37.3277 217.1 37.133 217.362 36.9943 217.708C36.8557 218.05 36.7863 218.471 36.7863 218.972C36.7863 219.474 36.8557 219.898 36.9943 220.244C37.133 220.586 37.3277 220.847 37.5783 221.028C37.829 221.204 38.1143 221.292 38.4343 221.292Z" fill="#D0D0CE"/>
<path d="M28.544 194.95C28.096 194.95 27.7093 194.886 27.384 194.758C27.064 194.63 26.816 194.446 26.64 194.206C26.4693 193.961 26.384 193.673 26.384 193.342C26.384 193.022 26.4667 192.75 26.632 192.526C26.8027 192.297 27.048 192.121 27.368 191.998C27.6933 191.876 28.0853 191.814 28.544 191.814C28.9973 191.814 29.3867 191.876 29.712 191.998C30.0373 192.121 30.2853 192.297 30.456 192.526C30.632 192.75 30.72 193.022 30.72 193.342C30.72 193.673 30.632 193.961 30.456 194.206C30.28 194.446 30.0293 194.63 29.704 194.758C29.3787 194.886 28.992 194.95 28.544 194.95ZM28.544 194.462C29.04 194.462 29.4267 194.361 29.704 194.158C29.9867 193.956 30.128 193.681 30.128 193.334C30.128 192.988 29.9867 192.716 29.704 192.518C29.4267 192.316 29.04 192.214 28.544 192.214C28.048 192.214 27.6613 192.316 27.384 192.518C27.1067 192.716 26.968 192.988 26.968 193.334C26.968 193.681 27.1067 193.956 27.384 194.158C27.6613 194.361 28.048 194.462 28.544 194.462ZM28.544 192.142C28.128 192.142 27.7733 192.086 27.48 191.974C27.192 191.862 26.9707 191.702 26.816 191.494C26.6613 191.281 26.584 191.028 26.584 190.734C26.584 190.425 26.664 190.161 26.824 189.942C26.9893 189.718 27.2187 189.548 27.512 189.43C27.8053 189.313 28.1493 189.254 28.544 189.254C28.9387 189.254 29.2827 189.313 29.576 189.43C29.8747 189.548 30.1067 189.718 30.272 189.942C30.4373 190.161 30.52 190.425 30.52 190.734C30.52 191.028 30.4427 191.281 30.288 191.494C30.1333 191.702 29.9067 191.862 29.608 191.974C29.3147 192.086 28.96 192.142 28.544 192.142ZM28.544 191.758C28.9813 191.758 29.3227 191.668 29.568 191.486C29.8133 191.305 29.936 191.062 29.936 190.758C29.936 190.438 29.808 190.19 29.552 190.014C29.3013 189.833 28.9653 189.742 28.544 189.742C28.1227 189.742 27.7867 189.833 27.536 190.014C27.2853 190.19 27.16 190.436 27.16 190.75C27.16 191.06 27.28 191.305 27.52 191.486C27.7653 191.668 28.1067 191.758 28.544 191.758ZM33.5568 194.95C33.1248 194.95 32.7408 194.838 32.4048 194.614C32.0688 194.385 31.8048 194.06 31.6128 193.638C31.4208 193.212 31.3248 192.7 31.3248 192.102C31.3248 191.505 31.4208 190.996 31.6128 190.574C31.8048 190.148 32.0688 189.822 32.4048 189.598C32.7408 189.369 33.1248 189.254 33.5568 189.254C33.9888 189.254 34.3728 189.369 34.7088 189.598C35.0448 189.822 35.3088 190.148 35.5008 190.574C35.6981 190.996 35.7968 191.505 35.7968 192.102C35.7968 192.7 35.6981 193.212 35.5008 193.638C35.3088 194.06 35.0448 194.385 34.7088 194.614C34.3728 194.838 33.9888 194.95 33.5568 194.95ZM33.5568 194.422C33.8875 194.422 34.1755 194.334 34.4208 194.158C34.6661 193.977 34.8581 193.716 34.9968 193.374C35.1355 193.028 35.2048 192.604 35.2048 192.102C35.2048 191.601 35.1355 191.18 34.9968 190.838C34.8581 190.492 34.6661 190.23 34.4208 190.054C34.1755 189.873 33.8875 189.782 33.5568 189.782C33.2368 189.782 32.9515 189.873 32.7008 190.054C32.4501 190.23 32.2555 190.492 32.1168 190.838C31.9781 191.18 31.9088 191.601 31.9088 192.102C31.9088 192.604 31.9781 193.028 32.1168 193.374C32.2555 193.716 32.4501 193.977 32.7008 194.158C32.9515 194.334 33.2368 194.422 33.5568 194.422ZM38.6609 194.95C38.2289 194.95 37.8449 194.838 37.5089 194.614C37.1729 194.385 36.9089 194.06 36.7169 193.638C36.5249 193.212 36.4289 192.7 36.4289 192.102C36.4289 191.505 36.5249 190.996 36.7169 190.574C36.9089 190.148 37.1729 189.822 37.5089 189.598C37.8449 189.369 38.2289 189.254 38.6609 189.254C39.0929 189.254 39.4769 189.369 39.8129 189.598C40.1489 189.822 40.4129 190.148 40.6049 190.574C40.8022 190.996 40.9009 191.505 40.9009 192.102C40.9009 192.7 40.8022 193.212 40.6049 193.638C40.4129 194.06 40.1489 194.385 39.8129 194.614C39.4769 194.838 39.0929 194.95 38.6609 194.95ZM38.6609 194.422C38.9915 194.422 39.2795 194.334 39.5249 194.158C39.7702 193.977 39.9622 193.716 40.1009 193.374C40.2395 193.028 40.3089 192.604 40.3089 192.102C40.3089 191.601 40.2395 191.18 40.1009 190.838C39.9622 190.492 39.7702 190.23 39.5249 190.054C39.2795 189.873 38.9915 189.782 38.6609 189.782C38.3409 189.782 38.0555 189.873 37.8049 190.054C37.5542 190.23 37.3595 190.492 37.2209 190.838C37.0822 191.18 37.0129 191.601 37.0129 192.102C37.0129 192.604 37.0822 193.028 37.2209 193.374C37.3595 193.716 37.5542 193.977 37.8049 194.158C38.0555 194.334 38.3409 194.422 38.6609 194.422Z" fill="#D0D0CE"/>
<path d="M27.392 168.032V162.672L27.648 162.944H26.072V162.432H27.968V168.032H27.392ZM31.3458 168.08C30.9138 168.08 30.5298 167.968 30.1938 167.744C29.8578 167.515 29.5938 167.19 29.4018 166.768C29.2098 166.342 29.1138 165.83 29.1138 165.232C29.1138 164.635 29.2098 164.126 29.4018 163.704C29.5938 163.278 29.8578 162.952 30.1938 162.728C30.5298 162.499 30.9138 162.384 31.3458 162.384C31.7778 162.384 32.1618 162.499 32.4978 162.728C32.8338 162.952 33.0978 163.278 33.2898 163.704C33.4872 164.126 33.5858 164.635 33.5858 165.232C33.5858 165.83 33.4872 166.342 33.2898 166.768C33.0978 167.19 32.8338 167.515 32.4978 167.744C32.1618 167.968 31.7778 168.08 31.3458 168.08ZM31.3458 167.552C31.6765 167.552 31.9645 167.464 32.2098 167.288C32.4552 167.107 32.6472 166.846 32.7858 166.504C32.9245 166.158 32.9938 165.734 32.9938 165.232C32.9938 164.731 32.9245 164.31 32.7858 163.968C32.6472 163.622 32.4552 163.36 32.2098 163.184C31.9645 163.003 31.6765 162.912 31.3458 162.912C31.0258 162.912 30.7405 163.003 30.4898 163.184C30.2392 163.36 30.0445 163.622 29.9058 163.968C29.7672 164.31 29.6978 164.731 29.6978 165.232C29.6978 165.734 29.7672 166.158 29.9058 166.504C30.0445 166.846 30.2392 167.107 30.4898 167.288C30.7405 167.464 31.0258 167.552 31.3458 167.552ZM36.4499 168.08C36.0179 168.08 35.6339 167.968 35.2979 167.744C34.9619 167.515 34.6979 167.19 34.5059 166.768C34.3139 166.342 34.2179 165.83 34.2179 165.232C34.2179 164.635 34.3139 164.126 34.5059 163.704C34.6979 163.278 34.9619 162.952 35.2979 162.728C35.6339 162.499 36.0179 162.384 36.4499 162.384C36.8819 162.384 37.2659 162.499 37.6019 162.728C37.9379 162.952 38.2019 163.278 38.3939 163.704C38.5913 164.126 38.6899 164.635 38.6899 165.232C38.6899 165.83 38.5913 166.342 38.3939 166.768C38.2019 167.19 37.9379 167.515 37.6019 167.744C37.2659 167.968 36.8819 168.08 36.4499 168.08ZM36.4499 167.552C36.7806 167.552 37.0686 167.464 37.3139 167.288C37.5593 167.107 37.7513 166.846 37.8899 166.504C38.0286 166.158 38.0979 165.734 38.0979 165.232C38.0979 164.731 38.0286 164.31 37.8899 163.968C37.7513 163.622 37.5593 163.36 37.3139 163.184C37.0686 163.003 36.7806 162.912 36.4499 162.912C36.1299 162.912 35.8446 163.003 35.5939 163.184C35.3433 163.36 35.1486 163.622 35.0099 163.968C34.8713 164.31 34.8019 164.731 34.8019 165.232C34.8019 165.734 34.8713 166.158 35.0099 166.504C35.1486 166.846 35.3433 167.107 35.5939 167.288C35.8446 167.464 36.1299 167.552 36.4499 167.552ZM41.554 168.08C41.122 168.08 40.738 167.968 40.402 167.744C40.066 167.515 39.802 167.19 39.61 166.768C39.418 166.342 39.322 165.83 39.322 165.232C39.322 164.635 39.418 164.126 39.61 163.704C39.802 163.278 40.066 162.952 40.402 162.728C40.738 162.499 41.122 162.384 41.554 162.384C41.986 162.384 42.37 162.499 42.706 162.728C43.042 162.952 43.306 163.278 43.498 163.704C43.6954 164.126 43.794 164.635 43.794 165.232C43.794 165.83 43.6954 166.342 43.498 166.768C43.306 167.19 43.042 167.515 42.706 167.744C42.37 167.968 41.986 168.08 41.554 168.08ZM41.554 167.552C41.8847 167.552 42.1727 167.464 42.418 167.288C42.6634 167.107 42.8554 166.846 42.994 166.504C43.1327 166.158 43.202 165.734 43.202 165.232C43.202 164.731 43.1327 164.31 42.994 163.968C42.8554 163.622 42.6634 163.36 42.418 163.184C42.1727 163.003 41.8847 162.912 41.554 162.912C41.234 162.912 40.9487 163.003 40.698 163.184C40.4474 163.36 40.2527 163.622 40.114 163.968C39.9754 164.31 39.906 164.731 39.906 165.232C39.906 165.734 39.9754 166.158 40.114 166.504C40.2527 166.846 40.4474 167.107 40.698 167.288C40.9487 167.464 41.234 167.552 41.554 167.552Z" fill="#D0D0CE"/>
<path d="M27.392 145.385V140.025L27.648 140.297H26.072V139.785H27.968V145.385H27.392ZM29.0098 145.385V144.977L31.3378 142.697C31.5512 142.489 31.7112 142.307 31.8178 142.153C31.9245 141.993 31.9965 141.843 32.0338 141.705C32.0712 141.566 32.0898 141.435 32.0898 141.313C32.0898 140.987 31.9778 140.731 31.7538 140.545C31.5352 140.358 31.2098 140.265 30.7778 140.265C30.4472 140.265 30.1538 140.315 29.8978 140.417C29.6472 140.518 29.4312 140.675 29.2498 140.889L28.8418 140.537C29.0605 140.281 29.3405 140.083 29.6818 139.945C30.0232 139.806 30.4045 139.737 30.8258 139.737C31.2045 139.737 31.5325 139.798 31.8098 139.921C32.0872 140.038 32.3005 140.211 32.4498 140.441C32.6045 140.67 32.6818 140.939 32.6818 141.249C32.6818 141.43 32.6552 141.609 32.6018 141.785C32.5538 141.961 32.4632 142.147 32.3298 142.345C32.2018 142.537 32.0125 142.755 31.7618 143.001L29.6258 145.097L29.4658 144.873H32.9378V145.385H29.0098ZM35.6843 145.433C35.2523 145.433 34.8683 145.321 34.5323 145.097C34.1963 144.867 33.9323 144.542 33.7403 144.121C33.5483 143.694 33.4523 143.182 33.4523 142.585C33.4523 141.987 33.5483 141.478 33.7403 141.057C33.9323 140.63 34.1963 140.305 34.5323 140.081C34.8683 139.851 35.2523 139.737 35.6843 139.737C36.1163 139.737 36.5003 139.851 36.8363 140.081C37.1723 140.305 37.4363 140.63 37.6283 141.057C37.8257 141.478 37.9243 141.987 37.9243 142.585C37.9243 143.182 37.8257 143.694 37.6283 144.121C37.4363 144.542 37.1723 144.867 36.8363 145.097C36.5003 145.321 36.1163 145.433 35.6843 145.433ZM35.6843 144.905C36.015 144.905 36.303 144.817 36.5483 144.641C36.7937 144.459 36.9857 144.198 37.1243 143.857C37.263 143.51 37.3323 143.086 37.3323 142.585C37.3323 142.083 37.263 141.662 37.1243 141.321C36.9857 140.974 36.7937 140.713 36.5483 140.537C36.303 140.355 36.015 140.265 35.6843 140.265C35.3643 140.265 35.079 140.355 34.8283 140.537C34.5777 140.713 34.383 140.974 34.2443 141.321C34.1057 141.662 34.0363 142.083 34.0363 142.585C34.0363 143.086 34.1057 143.51 34.2443 143.857C34.383 144.198 34.5777 144.459 34.8283 144.641C35.079 144.817 35.3643 144.905 35.6843 144.905ZM40.7884 145.433C40.3564 145.433 39.9724 145.321 39.6364 145.097C39.3004 144.867 39.0364 144.542 38.8444 144.121C38.6524 143.694 38.5564 143.182 38.5564 142.585C38.5564 141.987 38.6524 141.478 38.8444 141.057C39.0364 140.63 39.3004 140.305 39.6364 140.081C39.9724 139.851 40.3564 139.737 40.7884 139.737C41.2204 139.737 41.6044 139.851 41.9404 140.081C42.2764 140.305 42.5404 140.63 42.7324 141.057C42.9297 141.478 43.0284 141.987 43.0284 142.585C43.0284 143.182 42.9297 143.694 42.7324 144.121C42.5404 144.542 42.2764 144.867 41.9404 145.097C41.6044 145.321 41.2204 145.433 40.7884 145.433ZM40.7884 144.905C41.1191 144.905 41.4071 144.817 41.6524 144.641C41.8977 144.459 42.0897 144.198 42.2284 143.857C42.3671 143.51 42.4364 143.086 42.4364 142.585C42.4364 142.083 42.3671 141.662 42.2284 141.321C42.0897 140.974 41.8977 140.713 41.6524 140.537C41.4071 140.355 41.1191 140.265 40.7884 140.265C40.4684 140.265 40.1831 140.355 39.9324 140.537C39.6817 140.713 39.4871 140.974 39.3484 141.321C39.2097 141.662 39.1404 142.083 39.1404 142.585C39.1404 143.086 39.2097 143.51 39.3484 143.857C39.4871 144.198 39.6817 144.459 39.9324 144.641C40.1831 144.817 40.4684 144.905 40.7884 144.905Z" fill="#D0D0CE"/>
<rect opacity="0.2" x="380.774" y="181.049" width="83.2259" height="30.7092" rx="7.71115" fill="#285CED"/>
<path d="M415.683 201.483C415.05 201.483 414.506 201.349 414.053 201.083C413.6 200.809 413.253 200.416 413.013 199.903C412.773 199.389 412.653 198.756 412.653 198.003C412.653 197.203 412.796 196.526 413.083 195.973C413.376 195.419 413.78 194.999 414.293 194.713C414.813 194.426 415.41 194.283 416.083 194.283C416.436 194.283 416.773 194.319 417.093 194.393C417.42 194.466 417.696 194.579 417.923 194.733L417.443 195.713C417.25 195.586 417.04 195.499 416.813 195.453C416.593 195.399 416.36 195.373 416.113 195.373C415.453 195.373 414.93 195.576 414.543 195.983C414.156 196.389 413.963 196.989 413.963 197.783C413.963 197.909 413.966 198.059 413.973 198.233C413.98 198.399 414.003 198.569 414.043 198.743L413.643 198.303C413.763 198.029 413.926 197.803 414.133 197.623C414.346 197.436 414.596 197.296 414.883 197.203C415.176 197.109 415.493 197.063 415.833 197.063C416.293 197.063 416.703 197.153 417.063 197.333C417.423 197.506 417.71 197.756 417.923 198.083C418.136 198.403 418.243 198.779 418.243 199.213C418.243 199.673 418.13 200.073 417.903 200.413C417.676 200.753 417.37 201.016 416.983 201.203C416.596 201.389 416.163 201.483 415.683 201.483ZM415.613 200.463C415.88 200.463 416.116 200.416 416.323 200.323C416.53 200.223 416.69 200.083 416.803 199.903C416.923 199.723 416.983 199.513 416.983 199.273C416.983 198.906 416.856 198.616 416.603 198.403C416.35 198.189 416.01 198.083 415.583 198.083C415.303 198.083 415.056 198.136 414.843 198.243C414.636 198.343 414.47 198.483 414.343 198.663C414.223 198.843 414.163 199.049 414.163 199.283C414.163 199.496 414.22 199.693 414.333 199.873C414.446 200.053 414.61 200.196 414.823 200.303C415.043 200.409 415.306 200.463 415.613 200.463ZM421.05 201.483C420.557 201.483 420.073 201.413 419.6 201.273C419.133 201.126 418.74 200.926 418.42 200.673L418.97 199.663C419.223 199.869 419.53 200.036 419.89 200.163C420.257 200.289 420.637 200.353 421.03 200.353C421.49 200.353 421.85 200.256 422.11 200.063C422.377 199.869 422.51 199.609 422.51 199.283C422.51 199.063 422.453 198.869 422.34 198.703C422.233 198.536 422.04 198.409 421.76 198.323C421.487 198.236 421.11 198.193 420.63 198.193H418.94L419.3 194.383H423.41V195.473H419.78L420.46 194.853L420.19 197.703L419.51 197.093H420.92C421.613 197.093 422.17 197.186 422.59 197.373C423.017 197.553 423.327 197.806 423.52 198.133C423.72 198.453 423.82 198.819 423.82 199.233C423.82 199.639 423.72 200.013 423.52 200.353C423.32 200.693 423.013 200.966 422.6 201.173C422.193 201.379 421.677 201.483 421.05 201.483ZM426.737 194.283C427.377 194.283 427.92 194.419 428.367 194.693C428.82 194.959 429.167 195.349 429.407 195.863C429.647 196.376 429.767 197.009 429.767 197.763C429.767 198.563 429.62 199.239 429.327 199.793C429.04 200.346 428.64 200.766 428.127 201.053C427.614 201.339 427.017 201.483 426.337 201.483C425.984 201.483 425.647 201.446 425.327 201.373C425.007 201.299 424.73 201.186 424.497 201.033L424.977 200.053C425.17 200.179 425.38 200.269 425.607 200.323C425.834 200.369 426.067 200.393 426.307 200.393C426.967 200.393 427.49 200.189 427.877 199.783C428.264 199.376 428.457 198.776 428.457 197.983C428.457 197.856 428.454 197.709 428.447 197.543C428.44 197.369 428.417 197.196 428.377 197.023L428.777 197.463C428.664 197.736 428.5 197.966 428.287 198.153C428.074 198.333 427.824 198.469 427.537 198.563C427.25 198.656 426.934 198.703 426.587 198.703C426.134 198.703 425.724 198.616 425.357 198.443C424.997 198.263 424.71 198.013 424.497 197.693C424.284 197.366 424.177 196.986 424.177 196.553C424.177 196.086 424.29 195.686 424.517 195.353C424.744 195.013 425.05 194.749 425.437 194.563C425.83 194.376 426.264 194.283 426.737 194.283ZM426.807 195.303C426.54 195.303 426.304 195.353 426.097 195.453C425.89 195.546 425.727 195.683 425.607 195.863C425.494 196.036 425.437 196.246 425.437 196.493C425.437 196.859 425.564 197.149 425.817 197.363C426.07 197.576 426.41 197.683 426.837 197.683C427.117 197.683 427.364 197.633 427.577 197.533C427.79 197.426 427.957 197.283 428.077 197.103C428.197 196.916 428.257 196.709 428.257 196.483C428.257 196.263 428.2 196.066 428.087 195.893C427.974 195.713 427.81 195.569 427.597 195.463C427.384 195.356 427.12 195.303 426.807 195.303Z" fill="#C4C4C4"/>
<path opacity="0.35" d="M130.444 244.914C111.609 243.253 106.069 236.244 90 223.321V294.383H452.849V259.863C426.259 254.88 414.072 244.914 395.049 226.13C376.442 207.758 355.502 237.986 349.812 231.627C323.743 206.341 295.129 193.213 263.394 221.659C236.5 239.383 226.449 240.043 215.395 233.885C202.1 226.19 190.804 226.378 186.763 228.112C175.403 232.986 178.073 234.478 168.394 235.54C159.334 235.88 151.796 234.181 148.582 236.244C145.368 238.306 133.971 243.766 130.444 244.914Z" fill="url(#paint1_linear_4064_37970)"/>
<g filter="url(#filter1_d_4064_37970)">
<path d="M90 221.166C97.1551 229.519 115.55 246.237 133.981 242.589V242.589C142.669 240.869 150.938 233.902 159.666 235.4C162.687 235.918 165.739 236.154 168.394 235.812C175.974 234.837 175.403 233.238 186.763 228.326C190.804 226.579 202.1 226.389 215.395 234.144C223.368 238.62 236.108 237.298 250.947 227.938C263.907 219.762 275.955 209.149 291.029 206.397C317.569 201.551 329.319 214.931 345.381 228.328C362.48 242.589 376.377 205.486 395.049 226.329C434.015 269.827 442.674 253.585 453.957 261.522" stroke="#285CED" stroke-width="1.5"/>
</g>
<rect opacity="0.05" x="216.5" y="343.5" width="45" height="43.8205" rx="6.5" fill="#FCEAEC" stroke="#354A5E"/>
<path d="M239.666 358.528V370.807M239.666 370.807L235.796 367.035M239.666 370.807L243.537 367.035" stroke="#DA5263" stroke-width="2"/>
<path d="M218.368 400V391.6H219.256V400H218.368ZM224.785 393.64C225.297 393.64 225.745 393.74 226.129 393.94C226.521 394.132 226.825 394.428 227.041 394.828C227.265 395.228 227.377 395.732 227.377 396.34V400H226.525V396.424C226.525 395.76 226.357 395.26 226.021 394.924C225.693 394.58 225.229 394.408 224.629 394.408C224.181 394.408 223.789 394.5 223.453 394.684C223.125 394.86 222.869 395.12 222.685 395.464C222.509 395.8 222.421 396.208 222.421 396.688V400H221.569V393.7H222.385V395.428L222.253 395.104C222.453 394.648 222.773 394.292 223.213 394.036C223.653 393.772 224.177 393.64 224.785 393.64ZM233.386 400V398.608L233.35 398.38V396.052C233.35 395.516 233.198 395.104 232.894 394.816C232.598 394.528 232.154 394.384 231.562 394.384C231.154 394.384 230.766 394.452 230.398 394.588C230.03 394.724 229.718 394.904 229.462 395.128L229.078 394.492C229.398 394.22 229.782 394.012 230.23 393.868C230.678 393.716 231.15 393.64 231.646 393.64C232.462 393.64 233.09 393.844 233.53 394.252C233.978 394.652 234.202 395.264 234.202 396.088V400H233.386ZM231.214 400.06C230.742 400.06 230.33 399.984 229.978 399.832C229.634 399.672 229.37 399.456 229.186 399.184C229.002 398.904 228.91 398.584 228.91 398.224C228.91 397.896 228.986 397.6 229.138 397.336C229.298 397.064 229.554 396.848 229.906 396.688C230.266 396.52 230.746 396.436 231.346 396.436H233.518V397.072H231.37C230.762 397.072 230.338 397.18 230.098 397.396C229.866 397.612 229.75 397.88 229.75 398.2C229.75 398.56 229.89 398.848 230.17 399.064C230.45 399.28 230.842 399.388 231.346 399.388C231.826 399.388 232.238 399.28 232.582 399.064C232.934 398.84 233.19 398.52 233.35 398.104L233.542 398.692C233.382 399.108 233.102 399.44 232.702 399.688C232.31 399.936 231.814 400.06 231.214 400.06ZM238.893 400.06C238.269 400.06 237.709 399.924 237.213 399.652C236.725 399.372 236.341 398.992 236.061 398.512C235.781 398.024 235.641 397.468 235.641 396.844C235.641 396.212 235.781 395.656 236.061 395.176C236.341 394.696 236.725 394.32 237.213 394.048C237.709 393.776 238.269 393.64 238.893 393.64C239.429 393.64 239.913 393.744 240.345 393.952C240.777 394.16 241.117 394.472 241.365 394.888L240.729 395.32C240.513 395 240.245 394.764 239.925 394.612C239.605 394.46 239.257 394.384 238.881 394.384C238.433 394.384 238.029 394.488 237.669 394.696C237.309 394.896 237.025 395.18 236.817 395.548C236.609 395.916 236.505 396.348 236.505 396.844C236.505 397.34 236.609 397.772 236.817 398.14C237.025 398.508 237.309 398.796 237.669 399.004C238.029 399.204 238.433 399.304 238.881 399.304C239.257 399.304 239.605 399.228 239.925 399.076C240.245 398.924 240.513 398.692 240.729 398.38L241.365 398.812C241.117 399.22 240.777 399.532 240.345 399.748C239.913 399.956 239.429 400.06 238.893 400.06ZM244.861 400.06C244.269 400.06 243.813 399.9 243.493 399.58C243.173 399.26 243.013 398.808 243.013 398.224V392.308H243.865V398.176C243.865 398.544 243.957 398.828 244.141 399.028C244.333 399.228 244.605 399.328 244.957 399.328C245.333 399.328 245.645 399.22 245.893 399.004L246.193 399.616C246.025 399.768 245.821 399.88 245.581 399.952C245.349 400.024 245.109 400.06 244.861 400.06ZM241.885 394.408V393.7H245.785V394.408H241.885ZM247.504 400V393.7H248.356V400H247.504ZM247.936 392.308C247.76 392.308 247.612 392.248 247.492 392.128C247.372 392.008 247.312 391.864 247.312 391.696C247.312 391.528 247.372 391.388 247.492 391.276C247.612 391.156 247.76 391.096 247.936 391.096C248.112 391.096 248.26 391.152 248.38 391.264C248.5 391.376 248.56 391.516 248.56 391.684C248.56 391.86 248.5 392.008 248.38 392.128C248.268 392.248 248.12 392.308 247.936 392.308ZM252.106 400L249.31 393.7H250.198L252.766 399.544H252.346L254.95 393.7H255.79L252.982 400H252.106ZM259.142 400.06C258.534 400.06 257.986 399.924 257.498 399.652C257.018 399.372 256.638 398.992 256.358 398.512C256.078 398.024 255.938 397.468 255.938 396.844C255.938 396.212 256.078 395.656 256.358 395.176C256.638 394.696 257.018 394.32 257.498 394.048C257.978 393.776 258.526 393.64 259.142 393.64C259.766 393.64 260.318 393.776 260.798 394.048C261.286 394.32 261.666 394.696 261.938 395.176C262.218 395.656 262.358 396.212 262.358 396.844C262.358 397.468 262.218 398.024 261.938 398.512C261.666 398.992 261.286 399.372 260.798 399.652C260.31 399.924 259.758 400.06 259.142 400.06ZM259.142 399.304C259.598 399.304 260.002 399.204 260.354 399.004C260.706 398.796 260.982 398.508 261.182 398.14C261.39 397.764 261.494 397.332 261.494 396.844C261.494 396.348 261.39 395.916 261.182 395.548C260.982 395.18 260.706 394.896 260.354 394.696C260.002 394.488 259.602 394.384 259.154 394.384C258.706 394.384 258.306 394.488 257.954 394.696C257.602 394.896 257.322 395.18 257.114 395.548C256.906 395.916 256.802 396.348 256.802 396.844C256.802 397.332 256.906 397.764 257.114 398.14C257.322 398.508 257.602 398.796 257.954 399.004C258.306 399.204 258.702 399.304 259.142 399.304ZM265.55 400.06C265.03 400.06 264.538 399.988 264.074 399.844C263.61 399.692 263.246 399.504 262.982 399.28L263.366 398.608C263.622 398.8 263.95 398.968 264.35 399.112C264.75 399.248 265.17 399.316 265.61 399.316C266.21 399.316 266.642 399.224 266.906 399.04C267.17 398.848 267.302 398.596 267.302 398.284C267.302 398.052 267.226 397.872 267.074 397.744C266.93 397.608 266.738 397.508 266.498 397.444C266.258 397.372 265.99 397.312 265.694 397.264C265.398 397.216 265.102 397.16 264.806 397.096C264.518 397.032 264.254 396.94 264.014 396.82C263.774 396.692 263.578 396.52 263.426 396.304C263.282 396.088 263.21 395.8 263.21 395.44C263.21 395.096 263.306 394.788 263.498 394.516C263.69 394.244 263.97 394.032 264.338 393.88C264.714 393.72 265.17 393.64 265.706 393.64C266.114 393.64 266.522 393.696 266.93 393.808C267.338 393.912 267.674 394.052 267.938 394.228L267.566 394.912C267.286 394.72 266.986 394.584 266.666 394.504C266.346 394.416 266.026 394.372 265.706 394.372C265.138 394.372 264.718 394.472 264.446 394.672C264.182 394.864 264.05 395.112 264.05 395.416C264.05 395.656 264.122 395.844 264.266 395.98C264.418 396.116 264.614 396.224 264.854 396.304C265.102 396.376 265.37 396.436 265.658 396.484C265.954 396.532 266.246 396.592 266.534 396.664C266.83 396.728 267.098 396.82 267.338 396.94C267.586 397.052 267.782 397.216 267.926 397.432C268.078 397.64 268.154 397.916 268.154 398.26C268.154 398.628 268.05 398.948 267.842 399.22C267.642 399.484 267.346 399.692 266.954 399.844C266.57 399.988 266.102 400.06 265.55 400.06Z" fill="#DA5263"/>
<path d="M273.666 373V371.776L278.796 366.826C279.252 366.394 279.588 366.016 279.804 365.692C280.032 365.356 280.182 365.05 280.254 364.774C280.338 364.486 280.38 364.21 280.38 363.946C280.38 363.298 280.152 362.788 279.696 362.416C279.24 362.044 278.574 361.858 277.698 361.858C277.026 361.858 276.42 361.972 275.88 362.2C275.34 362.416 274.872 362.758 274.476 363.226L273.252 362.164C273.732 361.552 274.374 361.084 275.178 360.76C275.994 360.424 276.888 360.256 277.86 360.256C278.736 360.256 279.498 360.4 280.146 360.688C280.794 360.964 281.292 361.366 281.64 361.894C282 362.422 282.18 363.046 282.18 363.766C282.18 364.174 282.126 364.576 282.018 364.972C281.91 365.368 281.706 365.788 281.406 366.232C281.106 366.676 280.674 367.174 280.11 367.726L275.538 372.136L275.106 371.434H282.72V373H273.666ZM287.908 373.144C287.02 373.144 286.156 373.006 285.316 372.73C284.488 372.454 283.81 372.082 283.282 371.614L284.11 370.192C284.53 370.588 285.076 370.912 285.748 371.164C286.42 371.416 287.134 371.542 287.89 371.542C288.85 371.542 289.588 371.338 290.104 370.93C290.62 370.522 290.878 369.976 290.878 369.292C290.878 368.824 290.764 368.416 290.536 368.068C290.308 367.72 289.912 367.456 289.348 367.276C288.796 367.084 288.034 366.988 287.062 366.988H284.2L284.866 360.4H291.976V361.966H285.532L286.468 361.084L285.946 366.286L285.01 365.422H287.44C288.7 365.422 289.714 365.584 290.482 365.908C291.25 366.232 291.808 366.682 292.156 367.258C292.504 367.822 292.678 368.476 292.678 369.22C292.678 369.94 292.504 370.6 292.156 371.2C291.808 371.788 291.28 372.262 290.572 372.622C289.876 372.97 288.988 373.144 287.908 373.144ZM299.108 373.144C297.992 373.144 297.038 372.898 296.246 372.406C295.454 371.914 294.848 371.206 294.428 370.282C294.02 369.346 293.816 368.206 293.816 366.862C293.816 365.434 294.068 364.228 294.572 363.244C295.076 362.26 295.778 361.516 296.678 361.012C297.578 360.508 298.61 360.256 299.774 360.256C300.374 360.256 300.944 360.316 301.484 360.436C302.036 360.556 302.51 360.742 302.906 360.994L302.222 362.398C301.898 362.17 301.526 362.014 301.106 361.93C300.698 361.846 300.266 361.804 299.81 361.804C298.526 361.804 297.506 362.206 296.75 363.01C295.994 363.802 295.616 364.984 295.616 366.556C295.616 366.808 295.628 367.108 295.652 367.456C295.676 367.804 295.736 368.146 295.832 368.482L295.22 367.87C295.4 367.318 295.682 366.856 296.066 366.484C296.462 366.1 296.93 365.818 297.47 365.638C298.022 365.446 298.616 365.35 299.252 365.35C300.092 365.35 300.836 365.506 301.484 365.818C302.132 366.13 302.642 366.574 303.014 367.15C303.386 367.714 303.572 368.386 303.572 369.166C303.572 369.97 303.374 370.672 302.978 371.272C302.582 371.872 302.048 372.334 301.376 372.658C300.704 372.982 299.948 373.144 299.108 373.144ZM299.036 371.686C299.588 371.686 300.068 371.584 300.476 371.38C300.896 371.176 301.226 370.894 301.466 370.534C301.706 370.162 301.826 369.73 301.826 369.238C301.826 368.494 301.568 367.906 301.052 367.474C300.536 367.03 299.834 366.808 298.946 366.808C298.37 366.808 297.866 366.916 297.434 367.132C297.002 367.348 296.66 367.642 296.408 368.014C296.168 368.374 296.048 368.788 296.048 369.256C296.048 369.688 296.162 370.09 296.39 370.462C296.618 370.822 296.954 371.116 297.398 371.344C297.842 371.572 298.388 371.686 299.036 371.686Z" fill="#DA5263"/>
<path d="M38.024 402L41.864 393.6H42.74L46.58 402H45.644L42.116 394.116H42.476L38.948 402H38.024ZM39.536 399.756L39.8 399.036H44.684L44.948 399.756H39.536ZM50.107 402.06C49.483 402.06 48.923 401.924 48.427 401.652C47.939 401.372 47.555 400.992 47.275 400.512C46.995 400.024 46.855 399.468 46.855 398.844C46.855 398.212 46.995 397.656 47.275 397.176C47.555 396.696 47.939 396.32 48.427 396.048C48.923 395.776 49.483 395.64 50.107 395.64C50.643 395.64 51.127 395.744 51.559 395.952C51.991 396.16 52.331 396.472 52.579 396.888L51.943 397.32C51.727 397 51.459 396.764 51.139 396.612C50.819 396.46 50.471 396.384 50.095 396.384C49.647 396.384 49.243 396.488 48.883 396.696C48.523 396.896 48.239 397.18 48.031 397.548C47.823 397.916 47.719 398.348 47.719 398.844C47.719 399.34 47.823 399.772 48.031 400.14C48.239 400.508 48.523 400.796 48.883 401.004C49.243 401.204 49.647 401.304 50.095 401.304C50.471 401.304 50.819 401.228 51.139 401.076C51.459 400.924 51.727 400.692 51.943 400.38L52.579 400.812C52.331 401.22 51.991 401.532 51.559 401.748C51.127 401.956 50.643 402.06 50.107 402.06ZM56.075 402.06C55.483 402.06 55.027 401.9 54.707 401.58C54.387 401.26 54.227 400.808 54.227 400.224V394.308H55.079V400.176C55.079 400.544 55.171 400.828 55.355 401.028C55.547 401.228 55.819 401.328 56.171 401.328C56.547 401.328 56.859 401.22 57.107 401.004L57.407 401.616C57.239 401.768 57.035 401.88 56.795 401.952C56.563 402.024 56.323 402.06 56.075 402.06ZM53.099 396.408V395.7H56.999V396.408H53.099ZM58.718 402V395.7H59.57V402H58.718ZM59.15 394.308C58.974 394.308 58.826 394.248 58.706 394.128C58.586 394.008 58.526 393.864 58.526 393.696C58.526 393.528 58.586 393.388 58.706 393.276C58.826 393.156 58.974 393.096 59.15 393.096C59.326 393.096 59.474 393.152 59.594 393.264C59.714 393.376 59.774 393.516 59.774 393.684C59.774 393.86 59.714 394.008 59.594 394.128C59.482 394.248 59.334 394.308 59.15 394.308ZM63.3207 402L60.5247 395.7H61.4127L63.9807 401.544H63.5607L66.1647 395.7H67.0047L64.1967 402H63.3207ZM70.3568 402.06C69.7488 402.06 69.2008 401.924 68.7128 401.652C68.2328 401.372 67.8528 400.992 67.5728 400.512C67.2928 400.024 67.1528 399.468 67.1528 398.844C67.1528 398.212 67.2928 397.656 67.5728 397.176C67.8528 396.696 68.2328 396.32 68.7128 396.048C69.1928 395.776 69.7408 395.64 70.3568 395.64C70.9808 395.64 71.5328 395.776 72.0128 396.048C72.5008 396.32 72.8808 396.696 73.1528 397.176C73.4328 397.656 73.5728 398.212 73.5728 398.844C73.5728 399.468 73.4328 400.024 73.1528 400.512C72.8808 400.992 72.5008 401.372 72.0128 401.652C71.5248 401.924 70.9728 402.06 70.3568 402.06ZM70.3568 401.304C70.8128 401.304 71.2168 401.204 71.5688 401.004C71.9208 400.796 72.1968 400.508 72.3968 400.14C72.6048 399.764 72.7088 399.332 72.7088 398.844C72.7088 398.348 72.6048 397.916 72.3968 397.548C72.1968 397.18 71.9208 396.896 71.5688 396.696C71.2168 396.488 70.8168 396.384 70.3688 396.384C69.9208 396.384 69.5208 396.488 69.1688 396.696C68.8168 396.896 68.5368 397.18 68.3288 397.548C68.1208 397.916 68.0168 398.348 68.0168 398.844C68.0168 399.332 68.1208 399.764 68.3288 400.14C68.5368 400.508 68.8168 400.796 69.1688 401.004C69.5208 401.204 69.9168 401.304 70.3568 401.304ZM76.7642 402.06C76.2442 402.06 75.7522 401.988 75.2882 401.844C74.8242 401.692 74.4602 401.504 74.1962 401.28L74.5802 400.608C74.8362 400.8 75.1642 400.968 75.5642 401.112C75.9642 401.248 76.3842 401.316 76.8242 401.316C77.4242 401.316 77.8562 401.224 78.1202 401.04C78.3842 400.848 78.5162 400.596 78.5162 400.284C78.5162 400.052 78.4402 399.872 78.2882 399.744C78.1442 399.608 77.9522 399.508 77.7122 399.444C77.4722 399.372 77.2042 399.312 76.9082 399.264C76.6122 399.216 76.3162 399.16 76.0202 399.096C75.7322 399.032 75.4682 398.94 75.2282 398.82C74.9882 398.692 74.7922 398.52 74.6402 398.304C74.4962 398.088 74.4242 397.8 74.4242 397.44C74.4242 397.096 74.5202 396.788 74.7122 396.516C74.9042 396.244 75.1842 396.032 75.5522 395.88C75.9282 395.72 76.3842 395.64 76.9202 395.64C77.3282 395.64 77.7362 395.696 78.1442 395.808C78.5522 395.912 78.8882 396.052 79.1522 396.228L78.7802 396.912C78.5002 396.72 78.2002 396.584 77.8802 396.504C77.5602 396.416 77.2402 396.372 76.9202 396.372C76.3522 396.372 75.9322 396.472 75.6602 396.672C75.3962 396.864 75.2642 397.112 75.2642 397.416C75.2642 397.656 75.3362 397.844 75.4802 397.98C75.6322 398.116 75.8282 398.224 76.0682 398.304C76.3162 398.376 76.5842 398.436 76.8722 398.484C77.1682 398.532 77.4602 398.592 77.7482 398.664C78.0442 398.728 78.3122 398.82 78.5522 398.94C78.8002 399.052 78.9962 399.216 79.1402 399.432C79.2922 399.64 79.3682 399.916 79.3682 400.26C79.3682 400.628 79.2642 400.948 79.0562 401.22C78.8562 401.484 78.5602 401.692 78.1682 401.844C77.7842 401.988 77.3162 402.06 76.7642 402.06Z" fill="#285CED"/>
<path d="M99.778 373.144C98.758 373.144 97.876 372.994 97.132 372.694C96.388 372.394 95.812 371.968 95.404 371.416C94.996 370.852 94.792 370.192 94.792 369.436C94.792 368.692 94.984 368.062 95.368 367.546C95.764 367.018 96.334 366.622 97.078 366.358C97.822 366.082 98.722 365.944 99.778 365.944C100.834 365.944 101.734 366.082 102.478 366.358C103.234 366.622 103.81 367.018 104.206 367.546C104.602 368.074 104.8 368.704 104.8 369.436C104.8 370.192 104.596 370.852 104.188 371.416C103.78 371.968 103.198 372.394 102.442 372.694C101.686 372.994 100.798 373.144 99.778 373.144ZM99.778 371.686C100.786 371.686 101.572 371.482 102.136 371.074C102.712 370.654 103 370.09 103 369.382C103 368.686 102.712 368.14 102.136 367.744C101.572 367.336 100.786 367.132 99.778 367.132C98.782 367.132 98.002 367.336 97.438 367.744C96.874 368.14 96.592 368.686 96.592 369.382C96.592 370.09 96.874 370.654 97.438 371.074C98.002 371.482 98.782 371.686 99.778 371.686ZM99.778 366.916C98.818 366.916 98.002 366.79 97.33 366.538C96.658 366.274 96.142 365.902 95.782 365.422C95.422 364.93 95.242 364.348 95.242 363.676C95.242 362.968 95.428 362.362 95.8 361.858C96.184 361.342 96.718 360.946 97.402 360.67C98.086 360.394 98.878 360.256 99.778 360.256C100.69 360.256 101.488 360.394 102.172 360.67C102.856 360.946 103.39 361.342 103.774 361.858C104.158 362.362 104.35 362.968 104.35 363.676C104.35 364.348 104.17 364.93 103.81 365.422C103.45 365.902 102.928 366.274 102.244 366.538C101.56 366.79 100.738 366.916 99.778 366.916ZM99.778 365.764C100.654 365.764 101.338 365.584 101.83 365.224C102.334 364.864 102.586 364.372 102.586 363.748C102.586 363.112 102.328 362.614 101.812 362.254C101.296 361.894 100.618 361.714 99.778 361.714C98.938 361.714 98.266 361.894 97.762 362.254C97.27 362.614 97.024 363.112 97.024 363.748C97.024 364.372 97.264 364.864 97.744 365.224C98.236 365.584 98.914 365.764 99.778 365.764ZM109.94 373.144C109.052 373.144 108.188 373.006 107.348 372.73C106.52 372.454 105.842 372.082 105.314 371.614L106.142 370.192C106.562 370.588 107.108 370.912 107.78 371.164C108.452 371.416 109.172 371.542 109.94 371.542C110.876 371.542 111.602 371.344 112.118 370.948C112.646 370.54 112.91 369.994 112.91 369.31C112.91 368.65 112.658 368.122 112.154 367.726C111.662 367.318 110.876 367.114 109.796 367.114H108.788V365.854L112.532 361.246L112.784 361.966H105.89V360.4H114.206V361.624L110.48 366.214L109.544 365.656H110.138C111.662 365.656 112.802 365.998 113.558 366.682C114.326 367.366 114.71 368.236 114.71 369.292C114.71 370 114.536 370.648 114.188 371.236C113.84 371.824 113.312 372.292 112.604 372.64C111.908 372.976 111.02 373.144 109.94 373.144ZM115.849 369.904V368.644L122.293 360.4H124.237L117.847 368.644L116.929 368.356H126.991V369.904H115.849ZM122.851 373V369.904L122.905 368.356V365.62H124.597V373H122.851Z" fill="#285CED"/>
<g filter="url(#filter2_d_4064_37970)">
<rect opacity="0.05" x="38.5" y="343.5" width="45" height="43.8205" rx="6.5" fill="#EEF1F8" stroke="#354A5E"/>
<path d="M61.0003 371.549V359.271M61.0003 359.271L57.1299 363.042M61.0003 359.271L64.8707 363.042" stroke="#285CED" stroke-width="2"/>
</g>
<rect opacity="0.05" x="377.5" y="343.5" width="45" height="43.8205" rx="6.5" fill="#DBDBDB" stroke="#354A5E"/>
<path d="M388.092 394.6V403H387.24V396.28L383.94 401.932H383.52L380.22 396.316V403H379.368V394.6H380.1L383.748 400.828L387.36 394.6H388.092ZM392.617 396.64C393.441 396.64 394.073 396.848 394.513 397.264C394.953 397.672 395.173 398.28 395.173 399.088V403H394.357V402.016C394.165 402.344 393.881 402.6 393.505 402.784C393.137 402.968 392.697 403.06 392.185 403.06C391.481 403.06 390.921 402.892 390.505 402.556C390.089 402.22 389.881 401.776 389.881 401.224C389.881 400.688 390.073 400.256 390.457 399.928C390.849 399.6 391.469 399.436 392.317 399.436H394.321V399.052C394.321 398.508 394.169 398.096 393.865 397.816C393.561 397.528 393.117 397.384 392.533 397.384C392.133 397.384 391.749 397.452 391.381 397.588C391.013 397.716 390.697 397.896 390.433 398.128L390.049 397.492C390.369 397.22 390.753 397.012 391.201 396.868C391.649 396.716 392.121 396.64 392.617 396.64ZM392.317 402.388C392.797 402.388 393.209 402.28 393.553 402.064C393.897 401.84 394.153 401.52 394.321 401.104V400.072H392.341C391.261 400.072 390.721 400.448 390.721 401.2C390.721 401.568 390.861 401.86 391.141 402.076C391.421 402.284 391.813 402.388 392.317 402.388ZM400.463 396.64C401.255 396.64 401.883 396.872 402.347 397.336C402.819 397.792 403.055 398.46 403.055 399.34V403H402.203V399.424C402.203 398.768 402.039 398.268 401.711 397.924C401.383 397.58 400.915 397.408 400.307 397.408C399.627 397.408 399.087 397.612 398.687 398.02C398.295 398.42 398.099 398.976 398.099 399.688V403H397.247V396.688H398.063V397.852C398.295 397.468 398.615 397.172 399.023 396.964C399.439 396.748 399.919 396.64 400.463 396.64ZM408.452 402.616C408.292 402.76 408.092 402.872 407.852 402.952C407.62 403.024 407.376 403.06 407.12 403.06C406.528 403.06 406.072 402.9 405.752 402.58C405.432 402.26 405.272 401.808 405.272 401.224V397.408H404.144V396.688H405.272V395.308H406.124V396.688H408.044V397.408H406.124V401.176C406.124 401.552 406.216 401.84 406.4 402.04C406.592 402.232 406.864 402.328 407.216 402.328C407.392 402.328 407.56 402.3 407.72 402.244C407.888 402.188 408.032 402.108 408.152 402.004L408.452 402.616ZM415.037 400.108H409.757C409.805 400.764 410.057 401.296 410.513 401.704C410.969 402.104 411.545 402.304 412.241 402.304C412.633 402.304 412.993 402.236 413.321 402.1C413.649 401.956 413.933 401.748 414.173 401.476L414.653 402.028C414.373 402.364 414.021 402.62 413.597 402.796C413.181 402.972 412.721 403.06 412.217 403.06C411.569 403.06 410.993 402.924 410.489 402.652C409.993 402.372 409.605 401.988 409.325 401.5C409.045 401.012 408.905 400.46 408.905 399.844C408.905 399.228 409.037 398.676 409.301 398.188C409.573 397.7 409.941 397.32 410.405 397.048C410.877 396.776 411.405 396.64 411.989 396.64C412.573 396.64 413.097 396.776 413.561 397.048C414.025 397.32 414.389 397.7 414.653 398.188C414.917 398.668 415.049 399.22 415.049 399.844L415.037 400.108ZM411.989 397.372C411.381 397.372 410.869 397.568 410.453 397.96C410.045 398.344 409.813 398.848 409.757 399.472H414.233C414.177 398.848 413.941 398.344 413.525 397.96C413.117 397.568 412.605 397.372 411.989 397.372ZM419.759 396.64C420.551 396.64 421.179 396.872 421.643 397.336C422.115 397.792 422.351 398.46 422.351 399.34V403H421.499V399.424C421.499 398.768 421.335 398.268 421.007 397.924C420.679 397.58 420.211 397.408 419.603 397.408C418.923 397.408 418.383 397.612 417.983 398.02C417.591 398.42 417.395 398.976 417.395 399.688V403H416.543V396.688H417.359V397.852C417.591 397.468 417.911 397.172 418.319 396.964C418.735 396.748 419.215 396.64 419.759 396.64ZM424.424 396.688H425.276V403H424.424V396.688ZM424.856 395.308C424.68 395.308 424.532 395.248 424.412 395.128C424.292 395.008 424.232 394.864 424.232 394.696C424.232 394.536 424.292 394.396 424.412 394.276C424.532 394.156 424.68 394.096 424.856 394.096C425.032 394.096 425.18 394.156 425.3 394.276C425.42 394.388 425.48 394.524 425.48 394.684C425.48 394.86 425.42 395.008 425.3 395.128C425.18 395.248 425.032 395.308 424.856 395.308ZM435.278 396.64C436.07 396.64 436.69 396.868 437.138 397.324C437.594 397.78 437.822 398.452 437.822 399.34V403H436.97V399.424C436.97 398.768 436.81 398.268 436.49 397.924C436.178 397.58 435.734 397.408 435.158 397.408C434.502 397.408 433.986 397.612 433.61 398.02C433.234 398.42 433.046 398.976 433.046 399.688V403H432.194V399.424C432.194 398.768 432.034 398.268 431.714 397.924C431.402 397.58 430.954 397.408 430.37 397.408C429.722 397.408 429.206 397.612 428.822 398.02C428.446 398.42 428.258 398.976 428.258 399.688V403H427.406V396.688H428.222V397.84C428.446 397.456 428.758 397.16 429.158 396.952C429.558 396.744 430.018 396.64 430.538 396.64C431.066 396.64 431.522 396.752 431.906 396.976C432.298 397.2 432.59 397.532 432.782 397.972C433.014 397.556 433.346 397.232 433.778 397C434.218 396.76 434.718 396.64 435.278 396.64ZM439.893 396.688H440.745V403H439.893V396.688ZM440.325 395.308C440.149 395.308 440.001 395.248 439.881 395.128C439.761 395.008 439.701 394.864 439.701 394.696C439.701 394.536 439.761 394.396 439.881 394.276C440.001 394.156 440.149 394.096 440.325 394.096C440.501 394.096 440.649 394.156 440.769 394.276C440.889 394.388 440.949 394.524 440.949 394.684C440.949 394.86 440.889 395.008 440.769 395.128C440.649 395.248 440.501 395.308 440.325 395.308ZM448.372 400.108H443.092C443.14 400.764 443.392 401.296 443.848 401.704C444.304 402.104 444.88 402.304 445.576 402.304C445.968 402.304 446.328 402.236 446.656 402.1C446.984 401.956 447.268 401.748 447.508 401.476L447.988 402.028C447.708 402.364 447.356 402.62 446.932 402.796C446.516 402.972 446.056 403.06 445.552 403.06C444.904 403.06 444.328 402.924 443.824 402.652C443.328 402.372 442.94 401.988 442.66 401.5C442.38 401.012 442.24 400.46 442.24 399.844C442.24 399.228 442.372 398.676 442.636 398.188C442.908 397.7 443.276 397.32 443.74 397.048C444.212 396.776 444.74 396.64 445.324 396.64C445.908 396.64 446.432 396.776 446.896 397.048C447.36 397.32 447.724 397.7 447.988 398.188C448.252 398.668 448.384 399.22 448.384 399.844L448.372 400.108ZM445.324 397.372C444.716 397.372 444.204 397.568 443.788 397.96C443.38 398.344 443.148 398.848 443.092 399.472H447.568C447.512 398.848 447.276 398.344 446.86 397.96C446.452 397.568 445.94 397.372 445.324 397.372ZM453.094 396.64C453.886 396.64 454.514 396.872 454.978 397.336C455.45 397.792 455.686 398.46 455.686 399.34V403H454.834V399.424C454.834 398.768 454.67 398.268 454.342 397.924C454.014 397.58 453.546 397.408 452.938 397.408C452.258 397.408 451.718 397.612 451.318 398.02C450.926 398.42 450.73 398.976 450.73 399.688V403H449.878V396.688H450.694V397.852C450.926 397.468 451.246 397.172 451.654 396.964C452.07 396.748 452.55 396.64 453.094 396.64ZM461.083 402.616C460.923 402.76 460.723 402.872 460.483 402.952C460.251 403.024 460.007 403.06 459.751 403.06C459.159 403.06 458.703 402.9 458.383 402.58C458.063 402.26 457.903 401.808 457.903 401.224V397.408H456.775V396.688H457.903V395.308H458.755V396.688H460.675V397.408H458.755V401.176C458.755 401.552 458.847 401.84 459.031 402.04C459.223 402.232 459.495 402.328 459.847 402.328C460.023 402.328 460.191 402.3 460.351 402.244C460.519 402.188 460.663 402.108 460.783 402.004L461.083 402.616ZM464.751 403.06C464.143 403.06 463.595 402.924 463.107 402.652C462.619 402.372 462.235 401.988 461.955 401.5C461.675 401.012 461.535 400.46 461.535 399.844C461.535 399.228 461.675 398.676 461.955 398.188C462.235 397.7 462.619 397.32 463.107 397.048C463.595 396.776 464.143 396.64 464.751 396.64C465.359 396.64 465.907 396.776 466.395 397.048C466.883 397.32 467.263 397.7 467.535 398.188C467.815 398.676 467.955 399.228 467.955 399.844C467.955 400.46 467.815 401.012 467.535 401.5C467.263 401.988 466.883 402.372 466.395 402.652C465.907 402.924 465.359 403.06 464.751 403.06ZM464.751 402.304C465.199 402.304 465.599 402.204 465.951 402.004C466.311 401.796 466.591 401.504 466.791 401.128C466.991 400.752 467.091 400.324 467.091 399.844C467.091 399.364 466.991 398.936 466.791 398.56C466.591 398.184 466.311 397.896 465.951 397.696C465.599 397.488 465.199 397.384 464.751 397.384C464.303 397.384 463.899 397.488 463.539 397.696C463.187 397.896 462.907 398.184 462.699 398.56C462.499 398.936 462.399 399.364 462.399 399.844C462.399 400.324 462.499 400.752 462.699 401.128C462.907 401.504 463.187 401.796 463.539 402.004C463.899 402.204 464.303 402.304 464.751 402.304Z" fill="#838383"/>
<path d="M436.688 366.692C437.924 366.812 438.866 367.196 439.514 367.844C440.162 368.48 440.486 369.296 440.486 370.292C440.486 371.012 440.306 371.666 439.946 372.254C439.586 372.83 439.046 373.292 438.326 373.64C437.618 373.976 436.748 374.144 435.716 374.144C434.816 374.144 433.952 374.012 433.124 373.748C432.296 373.472 431.618 373.094 431.09 372.614L431.918 371.192C432.35 371.6 432.902 371.93 433.574 372.182C434.246 372.422 434.96 372.542 435.716 372.542C436.652 372.542 437.378 372.344 437.894 371.948C438.422 371.552 438.686 371.006 438.686 370.31C438.686 369.614 438.428 369.074 437.912 368.69C437.396 368.306 436.616 368.114 435.572 368.114H434.564V366.854L437.732 362.966H431.666V361.4H439.982V362.624L436.688 366.692ZM450.573 372.434V374H441.519V372.776L446.649 367.826C447.273 367.226 447.693 366.71 447.909 366.278C448.125 365.834 448.233 365.39 448.233 364.946C448.233 364.286 447.999 363.776 447.531 363.416C447.075 363.044 446.415 362.858 445.551 362.858C444.159 362.858 443.085 363.314 442.329 364.226L441.105 363.164C441.597 362.564 442.239 362.096 443.031 361.76C443.835 361.424 444.729 361.256 445.713 361.256C447.033 361.256 448.083 361.574 448.863 362.21C449.643 362.834 450.033 363.686 450.033 364.766C450.033 365.438 449.889 366.074 449.601 366.674C449.313 367.274 448.767 367.958 447.963 368.726L444.111 372.434H450.573ZM455.599 361.4V374H453.817V362.966H450.973V361.4H455.599Z" fill="#838383"/>
<path d="M411 365V362.608C411 361.382 410.438 360.224 409.475 359.466L402.475 353.95C401.023 352.806 398.977 352.806 397.525 353.95L390.525 359.466C389.562 360.224 389 361.382 389 362.608L389 371.111C389 373.32 390.791 375.111 393 375.111H396.526H404" stroke="#354A5E" stroke-width="1.5"/>
<path d="M408 366.5V363.629C408 362.525 407.105 361.629 406 361.629H394C392.895 361.629 392 362.525 392 363.629V369.259C392 370.363 392.895 371.259 394 371.259H408" stroke="#354A5E" stroke-width="1.5"/>
<ellipse rx="1" ry="0.962963" transform="matrix(1 0 0 -1 404 366.444)" stroke="#354A5E" stroke-width="1.5"/>
<path d="M395 366.444H399.5" stroke="#354A5E" stroke-width="2" stroke-linecap="round"/>
<path d="M415.782 368.232C415.851 368.334 415.899 368.448 415.921 368.569C416.075 369.368 416.004 370.193 415.717 370.954C415.43 371.715 414.937 372.381 414.293 372.879C413.65 373.376 412.881 373.685 412.073 373.772C411.264 373.859 410.448 373.719 409.713 373.37L405.532 377.478C405.191 377.812 404.732 378 404.255 378H403.854C403.627 378 403.41 377.91 403.25 377.75C403.09 377.59 403 377.373 403 377.146V376.75C403 376.27 403.191 375.809 403.53 375.47L407.648 371.35C407.28 370.616 407.125 369.794 407.202 368.976C407.278 368.159 407.583 367.379 408.081 366.726C408.578 366.073 409.25 365.573 410.018 365.283C410.786 364.993 411.62 364.924 412.425 365.085C412.548 365.122 412.661 365.185 412.757 365.271C412.853 365.357 412.929 365.463 412.979 365.581L410.671 367.889C410.46 368.104 410.341 368.394 410.341 368.696C410.341 368.998 410.46 369.284 410.671 369.5L411.548 370.289C411.656 370.4 411.785 370.489 411.927 370.55C412.07 370.611 412.224 370.642 412.379 370.642C412.534 370.642 412.687 370.611 412.83 370.55C412.973 370.489 413.102 370.4 413.21 370.289L415.517 367.981C415.622 368.045 415.712 368.131 415.782 368.232Z" stroke="#354A5E" stroke-width="1.5" stroke-linecap="round" stroke-linejoin="round"/>
<path d="M31.736 28.16C30.8613 28.16 30.056 28.0213 29.32 27.744C28.5947 27.456 27.96 27.056 27.416 26.544C26.872 26.0213 26.4507 25.408 26.152 24.704C25.8533 24 25.704 23.232 25.704 22.4C25.704 21.568 25.8533 20.8 26.152 20.096C26.4507 19.392 26.872 18.784 27.416 18.272C27.9707 17.7493 28.616 17.3493 29.352 17.072C30.088 16.784 30.8933 16.64 31.768 16.64C32.7173 16.64 33.5707 16.7947 34.328 17.104C35.096 17.4133 35.7413 17.8667 36.264 18.464L34.952 19.744C34.5147 19.3067 34.04 18.9867 33.528 18.784C33.0267 18.5707 32.472 18.464 31.864 18.464C31.2773 18.464 30.7333 18.56 30.232 18.752C29.7307 18.944 29.2987 19.216 28.936 19.568C28.5733 19.92 28.2907 20.336 28.088 20.816C27.896 21.296 27.8 21.824 27.8 22.4C27.8 22.9653 27.896 23.488 28.088 23.968C28.2907 24.448 28.5733 24.8693 28.936 25.232C29.2987 25.584 29.7253 25.856 30.216 26.048C30.7067 26.24 31.2507 26.336 31.848 26.336C32.4027 26.336 32.936 26.2507 33.448 26.08C33.9707 25.8987 34.4667 25.6 34.936 25.184L36.12 26.736C35.5333 27.2053 34.8507 27.5627 34.072 27.808C33.304 28.0427 32.5253 28.16 31.736 28.16ZM34.152 26.464V22.272H36.12V26.736L34.152 26.464ZM38.6714 28V19.456H40.5754V21.808L40.3514 21.12C40.6074 20.544 41.0074 20.1067 41.5514 19.808C42.106 19.5093 42.794 19.36 43.6154 19.36V21.264C43.53 21.2427 43.45 21.232 43.3754 21.232C43.3007 21.2213 43.226 21.216 43.1514 21.216C42.394 21.216 41.7914 21.44 41.3434 21.888C40.8954 22.3253 40.6714 22.9813 40.6714 23.856V28H38.6714ZM49.9666 28V26.272L49.8546 25.904V22.88C49.8546 22.2933 49.6786 21.84 49.3266 21.52C48.9746 21.1893 48.4413 21.024 47.7266 21.024C47.2466 21.024 46.772 21.0987 46.3026 21.248C45.844 21.3973 45.4546 21.6053 45.1346 21.872L44.3506 20.416C44.8093 20.064 45.3533 19.8027 45.9826 19.632C46.6226 19.4507 47.284 19.36 47.9666 19.36C49.204 19.36 50.1586 19.6587 50.8306 20.256C51.5133 20.8427 51.8546 21.7547 51.8546 22.992V28H49.9666ZM47.2786 28.112C46.6386 28.112 46.0786 28.0053 45.5986 27.792C45.1186 27.568 44.7453 27.264 44.4786 26.88C44.2226 26.4853 44.0946 26.0427 44.0946 25.552C44.0946 25.072 44.2066 24.64 44.4306 24.256C44.6653 23.872 45.044 23.568 45.5666 23.344C46.0893 23.12 46.7826 23.008 47.6466 23.008H50.1266V24.336H47.7906C47.108 24.336 46.6493 24.448 46.4146 24.672C46.18 24.8853 46.0626 25.152 46.0626 25.472C46.0626 25.8347 46.2066 26.1227 46.4946 26.336C46.7826 26.5493 47.1826 26.656 47.6946 26.656C48.1853 26.656 48.6226 26.544 49.0066 26.32C49.4013 26.096 49.684 25.7653 49.8546 25.328L50.1906 26.528C49.9986 27.0293 49.652 27.4187 49.1506 27.696C48.66 27.9733 48.036 28.112 47.2786 28.112ZM46.7986 18.288L48.9586 16.096H51.3106L48.5266 18.288H46.7986ZM54.6934 28V18.976C54.6934 18.08 54.9547 17.3653 55.4774 16.832C56.0107 16.288 56.768 16.016 57.7494 16.016C58.1014 16.016 58.432 16.0533 58.7414 16.128C59.0614 16.2027 59.328 16.32 59.5414 16.48L58.9974 17.984C58.848 17.8667 58.6774 17.7813 58.4854 17.728C58.2934 17.664 58.096 17.632 57.8934 17.632C57.4774 17.632 57.1627 17.7493 56.9494 17.984C56.736 18.208 56.6294 18.5493 56.6294 19.008V19.968L56.6934 20.864V28H54.6934ZM53.2854 21.12V19.52H58.9814V21.12H53.2854ZM60.3745 28V19.456H62.3745V28H60.3745ZM61.3825 18.048C61.0092 18.048 60.6998 17.9307 60.4545 17.696C60.2198 17.4613 60.1025 17.1787 60.1025 16.848C60.1025 16.5067 60.2198 16.224 60.4545 16C60.6998 15.7653 61.0092 15.648 61.3825 15.648C61.7558 15.648 62.0598 15.76 62.2945 15.984C62.5398 16.1973 62.6625 16.4693 62.6625 16.8C62.6625 17.152 62.5452 17.4507 62.3105 17.696C62.0758 17.9307 61.7665 18.048 61.3825 18.048ZM68.9195 28.112C68.0235 28.112 67.2235 27.9253 66.5195 27.552C65.8262 27.168 65.2822 26.6453 64.8875 25.984C64.4928 25.3227 64.2955 24.5707 64.2955 23.728C64.2955 22.8747 64.4928 22.1227 64.8875 21.472C65.2822 20.8107 65.8262 20.2933 66.5195 19.92C67.2235 19.5467 68.0235 19.36 68.9195 19.36C69.7515 19.36 70.4822 19.5307 71.1115 19.872C71.7515 20.2027 72.2368 20.6933 72.5675 21.344L71.0315 22.24C70.7755 21.8347 70.4608 21.536 70.0875 21.344C69.7248 21.152 69.3302 21.056 68.9035 21.056C68.4128 21.056 67.9702 21.1627 67.5755 21.376C67.1808 21.5893 66.8715 21.8987 66.6475 22.304C66.4235 22.6987 66.3115 23.1733 66.3115 23.728C66.3115 24.2827 66.4235 24.7627 66.6475 25.168C66.8715 25.5627 67.1808 25.8667 67.5755 26.08C67.9702 26.2933 68.4128 26.4 68.9035 26.4C69.3302 26.4 69.7248 26.304 70.0875 26.112C70.4608 25.92 70.7755 25.6213 71.0315 25.216L72.5675 26.112C72.2368 26.752 71.7515 27.248 71.1115 27.6C70.4822 27.9413 69.7515 28.112 68.9195 28.112ZM78.0114 28.112C77.1367 28.112 76.358 27.9253 75.6754 27.552C74.9927 27.168 74.454 26.6453 74.0594 25.984C73.6647 25.3227 73.4674 24.5707 73.4674 23.728C73.4674 22.8747 73.6647 22.1227 74.0594 21.472C74.454 20.8107 74.9927 20.2933 75.6754 19.92C76.358 19.5467 77.1367 19.36 78.0114 19.36C78.8967 19.36 79.6807 19.5467 80.3634 19.92C81.0567 20.2933 81.5954 20.8053 81.9794 21.456C82.374 22.1067 82.5714 22.864 82.5714 23.728C82.5714 24.5707 82.374 25.3227 81.9794 25.984C81.5954 26.6453 81.0567 27.168 80.3634 27.552C79.6807 27.9253 78.8967 28.112 78.0114 28.112ZM78.0114 26.4C78.502 26.4 78.9394 26.2933 79.3234 26.08C79.7074 25.8667 80.006 25.5573 80.2194 25.152C80.4434 24.7467 80.5554 24.272 80.5554 23.728C80.5554 23.1733 80.4434 22.6987 80.2194 22.304C80.006 21.8987 79.7074 21.5893 79.3234 21.376C78.9394 21.1627 78.5074 21.056 78.0274 21.056C77.5367 21.056 77.0994 21.1627 76.7154 21.376C76.342 21.5893 76.0434 21.8987 75.8194 22.304C75.5954 22.6987 75.4834 23.1733 75.4834 23.728C75.4834 24.272 75.5954 24.7467 75.8194 25.152C76.0434 25.5573 76.342 25.8667 76.7154 26.08C77.0994 26.2933 77.5314 26.4 78.0114 26.4ZM92.5218 28.112C91.7004 28.112 90.9591 27.9307 90.2978 27.568C89.6471 27.1947 89.1351 26.6827 88.7618 26.032C88.3884 25.3813 88.2018 24.6133 88.2018 23.728C88.2018 22.8427 88.3884 22.0747 88.7618 21.424C89.1351 20.7733 89.6471 20.2667 90.2978 19.904C90.9591 19.5413 91.7004 19.36 92.5218 19.36C93.2364 19.36 93.8764 19.52 94.4418 19.84C95.0071 20.1493 95.4551 20.624 95.7858 21.264C96.1164 21.904 96.2818 22.7253 96.2818 23.728C96.2818 24.72 96.1218 25.5413 95.8018 26.192C95.4818 26.832 95.0391 27.312 94.4738 27.632C93.9084 27.952 93.2578 28.112 92.5218 28.112ZM92.7618 26.4C93.2418 26.4 93.6684 26.2933 94.0418 26.08C94.4258 25.8667 94.7298 25.5573 94.9538 25.152C95.1884 24.7467 95.3058 24.272 95.3058 23.728C95.3058 23.1733 95.1884 22.6987 94.9538 22.304C94.7298 21.8987 94.4258 21.5893 94.0418 21.376C93.6684 21.1627 93.2418 21.056 92.7618 21.056C92.2818 21.056 91.8498 21.1627 91.4658 21.376C91.0924 21.5893 90.7884 21.8987 90.5538 22.304C90.3298 22.6987 90.2178 23.1733 90.2178 23.728C90.2178 24.272 90.3298 24.7467 90.5538 25.152C90.7884 25.5573 91.0924 25.8667 91.4658 26.08C91.8498 26.2933 92.2818 26.4 92.7618 26.4ZM95.3538 28V25.984L95.4338 23.712L95.2738 21.44V16.128H97.2578V28H95.3538ZM103.906 28.112C102.957 28.112 102.125 27.9253 101.41 27.552C100.706 27.168 100.157 26.6453 99.7621 25.984C99.3781 25.3227 99.1861 24.5707 99.1861 23.728C99.1861 22.8747 99.3728 22.1227 99.7461 21.472C100.13 20.8107 100.653 20.2933 101.314 19.92C101.986 19.5467 102.749 19.36 103.602 19.36C104.434 19.36 105.175 19.5413 105.826 19.904C106.477 20.2667 106.989 20.7787 107.362 21.44C107.735 22.1013 107.922 22.88 107.922 23.776C107.922 23.8613 107.917 23.9573 107.906 24.064C107.906 24.1707 107.901 24.272 107.89 24.368H100.77V23.04H106.834L106.05 23.456C106.061 22.9653 105.959 22.5333 105.746 22.16C105.533 21.7867 105.239 21.4933 104.866 21.28C104.503 21.0667 104.082 20.96 103.602 20.96C103.111 20.96 102.679 21.0667 102.306 21.28C101.943 21.4933 101.655 21.792 101.442 22.176C101.239 22.5493 101.138 22.992 101.138 23.504V23.824C101.138 24.336 101.255 24.7893 101.49 25.184C101.725 25.5787 102.055 25.8827 102.482 26.096C102.909 26.3093 103.399 26.416 103.954 26.416C104.434 26.416 104.866 26.3413 105.25 26.192C105.634 26.0427 105.975 25.808 106.274 25.488L107.346 26.72C106.962 27.168 106.477 27.5147 105.89 27.76C105.314 27.9947 104.653 28.112 103.906 28.112ZM114.265 28V16.128H116.265V28H114.265ZM118.89 28V19.456H120.89V28H118.89ZM118.554 18.288L120.714 16.096H123.066L120.282 18.288H118.554ZM128.363 19.36C129.046 19.36 129.654 19.4933 130.187 19.76C130.731 20.0267 131.158 20.4373 131.467 20.992C131.776 21.536 131.931 22.24 131.931 23.104V28H129.931V23.36C129.931 22.6027 129.75 22.0373 129.387 21.664C129.035 21.2907 128.539 21.104 127.899 21.104C127.43 21.104 127.014 21.2 126.651 21.392C126.288 21.584 126.006 21.872 125.803 22.256C125.611 22.6293 125.515 23.104 125.515 23.68V28H123.515V19.456H125.419V21.76L125.083 21.056C125.382 20.512 125.814 20.096 126.379 19.808C126.955 19.5093 127.616 19.36 128.363 19.36ZM138.5 28.112C137.551 28.112 136.719 27.9253 136.004 27.552C135.3 27.168 134.751 26.6453 134.356 25.984C133.972 25.3227 133.78 24.5707 133.78 23.728C133.78 22.8747 133.967 22.1227 134.34 21.472C134.724 20.8107 135.247 20.2933 135.908 19.92C136.58 19.5467 137.343 19.36 138.196 19.36C139.028 19.36 139.769 19.5413 140.42 19.904C141.071 20.2667 141.583 20.7787 141.956 21.44C142.329 22.1013 142.516 22.88 142.516 23.776C142.516 23.8613 142.511 23.9573 142.5 24.064C142.5 24.1707 142.495 24.272 142.484 24.368H135.364V23.04H141.428L140.644 23.456C140.655 22.9653 140.553 22.5333 140.34 22.16C140.127 21.7867 139.833 21.4933 139.46 21.28C139.097 21.0667 138.676 20.96 138.196 20.96C137.705 20.96 137.273 21.0667 136.9 21.28C136.537 21.4933 136.249 21.792 136.036 22.176C135.833 22.5493 135.732 22.992 135.732 23.504V23.824C135.732 24.336 135.849 24.7893 136.084 25.184C136.319 25.5787 136.649 25.8827 137.076 26.096C137.503 26.3093 137.993 26.416 138.548 26.416C139.028 26.416 139.46 26.3413 139.844 26.192C140.228 26.0427 140.569 25.808 140.868 25.488L141.94 26.72C141.556 27.168 141.071 27.5147 140.484 27.76C139.908 27.9947 139.247 28.112 138.5 28.112ZM149.467 28V26.272L149.355 25.904V22.88C149.355 22.2933 149.179 21.84 148.827 21.52C148.475 21.1893 147.941 21.024 147.227 21.024C146.747 21.024 146.272 21.0987 145.803 21.248C145.344 21.3973 144.955 21.6053 144.635 21.872L143.851 20.416C144.309 20.064 144.853 19.8027 145.483 19.632C146.123 19.4507 146.784 19.36 147.467 19.36C148.704 19.36 149.659 19.6587 150.331 20.256C151.013 20.8427 151.355 21.7547 151.355 22.992V28H149.467ZM146.779 28.112C146.139 28.112 145.579 28.0053 145.099 27.792C144.619 27.568 144.245 27.264 143.979 26.88C143.723 26.4853 143.595 26.0427 143.595 25.552C143.595 25.072 143.707 24.64 143.931 24.256C144.165 23.872 144.544 23.568 145.067 23.344C145.589 23.12 146.283 23.008 147.147 23.008H149.627V24.336H147.291C146.608 24.336 146.149 24.448 145.915 24.672C145.68 24.8853 145.563 25.152 145.563 25.472C145.563 25.8347 145.707 26.1227 145.995 26.336C146.283 26.5493 146.683 26.656 147.195 26.656C147.685 26.656 148.123 26.544 148.507 26.32C148.901 26.096 149.184 25.7653 149.355 25.328L149.691 26.528C149.499 27.0293 149.152 27.4187 148.651 27.696C148.16 27.9733 147.536 28.112 146.779 28.112Z" fill="#D0D0CE"/>
<defs>
<filter id="filter0_d_4064_37970" x="0" y="0" width="489" height="468" filterUnits="userSpaceOnUse" color-interpolation-filters="sRGB">
<feFlood flood-opacity="0" result="BackgroundImageFix"/>
<feColorMatrix in="SourceAlpha" type="matrix" values="0 0 0 0 0 0 0 0 0 0 0 0 0 0 0 0 0 0 127 0" result="hardAlpha"/>
<feOffset dy="4"/>
<feGaussianBlur stdDeviation="2"/>
<feComposite in2="hardAlpha" operator="out"/>
<feColorMatrix type="matrix" values="0 0 0 0 0 0 0 0 0 0 0 0 0 0 0 0 0 0 0.25 0"/>
<feBlend mode="normal" in2="BackgroundImageFix" result="effect1_dropShadow_4064_37970"/>
<feBlend mode="normal" in="SourceGraphic" in2="effect1_dropShadow_4064_37970" result="shape"/>
</filter>
<filter id="filter1_d_4064_37970" x="76.4587" y="199.073" width="390.902" height="83.4464" filterUnits="userSpaceOnUse" color-interpolation-filters="sRGB">
<feFlood flood-opacity="0" result="BackgroundImageFix"/>
<feColorMatrix in="SourceAlpha" type="matrix" values="0 0 0 0 0 0 0 0 0 0 0 0 0 0 0 0 0 0 127 0" result="hardAlpha"/>
<feOffset dy="7.41243"/>
<feGaussianBlur stdDeviation="6.48588"/>
<feColorMatrix type="matrix" values="0 0 0 0 0.317647 0 0 0 0 0.270588 0 0 0 0 0.619608 0 0 0 0.5 0"/>
<feBlend mode="normal" in2="BackgroundImageFix" result="effect1_dropShadow_4064_37970"/>
<feBlend mode="normal" in="SourceGraphic" in2="effect1_dropShadow_4064_37970" result="shape"/>
</filter>
<filter id="filter2_d_4064_37970" x="34" y="343" width="54" height="52.8203" filterUnits="userSpaceOnUse" color-interpolation-filters="sRGB">
<feFlood flood-opacity="0" result="BackgroundImageFix"/>
<feColorMatrix in="SourceAlpha" type="matrix" values="0 0 0 0 0 0 0 0 0 0 0 0 0 0 0 0 0 0 127 0" result="hardAlpha"/>
<feOffset dy="4"/>
<feGaussianBlur stdDeviation="2"/>
<feComposite in2="hardAlpha" operator="out"/>
<feColorMatrix type="matrix" values="0 0 0 0 0 0 0 0 0 0 0 0 0 0 0 0 0 0 0.25 0"/>
<feBlend mode="normal" in2="BackgroundImageFix" result="effect1_dropShadow_4064_37970"/>
<feBlend mode="normal" in="SourceGraphic" in2="effect1_dropShadow_4064_37970" result="shape"/>
</filter>
<linearGradient id="paint0_linear_4064_37970" x1="394.014" y1="137" x2="394.014" y2="298.223" gradientUnits="userSpaceOnUse">
<stop stop-color="white"/>
<stop offset="1" stop-color="#1B1C31"/>
</linearGradient>
<linearGradient id="paint1_linear_4064_37970" x1="303.825" y1="119.013" x2="303.825" y2="291.752" gradientUnits="userSpaceOnUse">
<stop stop-color="#285CED"/>
<stop offset="1" stop-color="#20273D"/>
<stop offset="1" stop-color="#20273D"/>
</linearGradient>
</defs>
</svg>
