<svg width="489" height="468" viewBox="0 0 489 468" fill="none" xmlns="http://www.w3.org/2000/svg">
<g filter="url(#filter0_d_4064_37966)">
<rect x="4" width="481" height="460" rx="10" fill="white"/>
</g>
<path d="M27.736 29.16C26.8613 29.16 26.056 29.0213 25.32 28.744C24.5947 28.456 23.96 28.056 23.416 27.544C22.872 27.0213 22.4507 26.408 22.152 25.704C21.8533 25 21.704 24.232 21.704 23.4C21.704 22.568 21.8533 21.8 22.152 21.096C22.4507 20.392 22.872 19.784 23.416 19.272C23.9707 18.7493 24.616 18.3493 25.352 18.072C26.088 17.784 26.8933 17.64 27.768 17.64C28.7173 17.64 29.5707 17.7947 30.328 18.104C31.096 18.4133 31.7413 18.8667 32.264 19.464L30.952 20.744C30.5147 20.3067 30.04 19.9867 29.528 19.784C29.0267 19.5707 28.472 19.464 27.864 19.464C27.2773 19.464 26.7333 19.56 26.232 19.752C25.7307 19.944 25.2987 20.216 24.936 20.568C24.5733 20.92 24.2907 21.336 24.088 21.816C23.896 22.296 23.8 22.824 23.8 23.4C23.8 23.9653 23.896 24.488 24.088 24.968C24.2907 25.448 24.5733 25.8693 24.936 26.232C25.2987 26.584 25.7253 26.856 26.216 27.048C26.7067 27.24 27.2507 27.336 27.848 27.336C28.4027 27.336 28.936 27.2507 29.448 27.08C29.9707 26.8987 30.4667 26.6 30.936 26.184L32.12 27.736C31.5333 28.2053 30.8507 28.5627 30.072 28.808C29.304 29.0427 28.5253 29.16 27.736 29.16ZM30.152 27.464V23.272H32.12V27.736L30.152 27.464ZM34.6714 29V20.456H36.5754V22.808L36.3514 22.12C36.6074 21.544 37.0074 21.1067 37.5514 20.808C38.106 20.5093 38.794 20.36 39.6154 20.36V22.264C39.53 22.2427 39.45 22.232 39.3754 22.232C39.3007 22.2213 39.226 22.216 39.1514 22.216C38.394 22.216 37.7914 22.44 37.3434 22.888C36.8954 23.3253 36.6714 23.9813 36.6714 24.856V29H34.6714ZM45.9666 29V27.272L45.8546 26.904V23.88C45.8546 23.2933 45.6786 22.84 45.3266 22.52C44.9746 22.1893 44.4413 22.024 43.7266 22.024C43.2466 22.024 42.772 22.0987 42.3026 22.248C41.844 22.3973 41.4546 22.6053 41.1346 22.872L40.3506 21.416C40.8093 21.064 41.3533 20.8027 41.9826 20.632C42.6226 20.4507 43.284 20.36 43.9666 20.36C45.204 20.36 46.1586 20.6587 46.8306 21.256C47.5133 21.8427 47.8546 22.7547 47.8546 23.992V29H45.9666ZM43.2786 29.112C42.6386 29.112 42.0786 29.0053 41.5986 28.792C41.1186 28.568 40.7453 28.264 40.4786 27.88C40.2226 27.4853 40.0946 27.0427 40.0946 26.552C40.0946 26.072 40.2066 25.64 40.4306 25.256C40.6653 24.872 41.044 24.568 41.5666 24.344C42.0893 24.12 42.7826 24.008 43.6466 24.008H46.1266V25.336H43.7906C43.108 25.336 42.6493 25.448 42.4146 25.672C42.18 25.8853 42.0626 26.152 42.0626 26.472C42.0626 26.8347 42.2066 27.1227 42.4946 27.336C42.7826 27.5493 43.1826 27.656 43.6946 27.656C44.1853 27.656 44.6226 27.544 45.0066 27.32C45.4013 27.096 45.684 26.7653 45.8546 26.328L46.1906 27.528C45.9986 28.0293 45.652 28.4187 45.1506 28.696C44.66 28.9733 44.036 29.112 43.2786 29.112ZM42.7986 19.288L44.9586 17.096H47.3106L44.5266 19.288H42.7986ZM50.6934 29V19.976C50.6934 19.08 50.9547 18.3653 51.4774 17.832C52.0107 17.288 52.768 17.016 53.7494 17.016C54.1014 17.016 54.432 17.0533 54.7414 17.128C55.0614 17.2027 55.328 17.32 55.5414 17.48L54.9974 18.984C54.848 18.8667 54.6774 18.7813 54.4854 18.728C54.2934 18.664 54.096 18.632 53.8934 18.632C53.4774 18.632 53.1627 18.7493 52.9494 18.984C52.736 19.208 52.6294 19.5493 52.6294 20.008V20.968L52.6934 21.864V29H50.6934ZM49.2854 22.12V20.52H54.9814V22.12H49.2854ZM56.3745 29V20.456H58.3745V29H56.3745ZM57.3825 19.048C57.0092 19.048 56.6998 18.9307 56.4545 18.696C56.2198 18.4613 56.1025 18.1787 56.1025 17.848C56.1025 17.5067 56.2198 17.224 56.4545 17C56.6998 16.7653 57.0092 16.648 57.3825 16.648C57.7558 16.648 58.0598 16.76 58.2945 16.984C58.5398 17.1973 58.6625 17.4693 58.6625 17.8C58.6625 18.152 58.5452 18.4507 58.3105 18.696C58.0758 18.9307 57.7665 19.048 57.3825 19.048ZM64.9195 29.112C64.0235 29.112 63.2235 28.9253 62.5195 28.552C61.8262 28.168 61.2822 27.6453 60.8875 26.984C60.4928 26.3227 60.2955 25.5707 60.2955 24.728C60.2955 23.8747 60.4928 23.1227 60.8875 22.472C61.2822 21.8107 61.8262 21.2933 62.5195 20.92C63.2235 20.5467 64.0235 20.36 64.9195 20.36C65.7515 20.36 66.4822 20.5307 67.1115 20.872C67.7515 21.2027 68.2368 21.6933 68.5675 22.344L67.0315 23.24C66.7755 22.8347 66.4608 22.536 66.0875 22.344C65.7248 22.152 65.3302 22.056 64.9035 22.056C64.4128 22.056 63.9702 22.1627 63.5755 22.376C63.1808 22.5893 62.8715 22.8987 62.6475 23.304C62.4235 23.6987 62.3115 24.1733 62.3115 24.728C62.3115 25.2827 62.4235 25.7627 62.6475 26.168C62.8715 26.5627 63.1808 26.8667 63.5755 27.08C63.9702 27.2933 64.4128 27.4 64.9035 27.4C65.3302 27.4 65.7248 27.304 66.0875 27.112C66.4608 26.92 66.7755 26.6213 67.0315 26.216L68.5675 27.112C68.2368 27.752 67.7515 28.248 67.1115 28.6C66.4822 28.9413 65.7515 29.112 64.9195 29.112ZM74.0114 29.112C73.1367 29.112 72.358 28.9253 71.6754 28.552C70.9927 28.168 70.454 27.6453 70.0594 26.984C69.6647 26.3227 69.4674 25.5707 69.4674 24.728C69.4674 23.8747 69.6647 23.1227 70.0594 22.472C70.454 21.8107 70.9927 21.2933 71.6754 20.92C72.358 20.5467 73.1367 20.36 74.0114 20.36C74.8967 20.36 75.6807 20.5467 76.3634 20.92C77.0567 21.2933 77.5954 21.8053 77.9794 22.456C78.374 23.1067 78.5714 23.864 78.5714 24.728C78.5714 25.5707 78.374 26.3227 77.9794 26.984C77.5954 27.6453 77.0567 28.168 76.3634 28.552C75.6807 28.9253 74.8967 29.112 74.0114 29.112ZM74.0114 27.4C74.502 27.4 74.9394 27.2933 75.3234 27.08C75.7074 26.8667 76.006 26.5573 76.2194 26.152C76.4434 25.7467 76.5554 25.272 76.5554 24.728C76.5554 24.1733 76.4434 23.6987 76.2194 23.304C76.006 22.8987 75.7074 22.5893 75.3234 22.376C74.9394 22.1627 74.5074 22.056 74.0274 22.056C73.5367 22.056 73.0994 22.1627 72.7154 22.376C72.342 22.5893 72.0434 22.8987 71.8194 23.304C71.5954 23.6987 71.4834 24.1733 71.4834 24.728C71.4834 25.272 71.5954 25.7467 71.8194 26.152C72.0434 26.5573 72.342 26.8667 72.7154 27.08C73.0994 27.2933 73.5314 27.4 74.0114 27.4ZM88.5218 29.112C87.7004 29.112 86.9591 28.9307 86.2978 28.568C85.6471 28.1947 85.1351 27.6827 84.7618 27.032C84.3884 26.3813 84.2018 25.6133 84.2018 24.728C84.2018 23.8427 84.3884 23.0747 84.7618 22.424C85.1351 21.7733 85.6471 21.2667 86.2978 20.904C86.9591 20.5413 87.7004 20.36 88.5218 20.36C89.2364 20.36 89.8764 20.52 90.4418 20.84C91.0071 21.1493 91.4551 21.624 91.7858 22.264C92.1164 22.904 92.2818 23.7253 92.2818 24.728C92.2818 25.72 92.1218 26.5413 91.8018 27.192C91.4818 27.832 91.0391 28.312 90.4738 28.632C89.9084 28.952 89.2578 29.112 88.5218 29.112ZM88.7618 27.4C89.2418 27.4 89.6684 27.2933 90.0418 27.08C90.4258 26.8667 90.7298 26.5573 90.9538 26.152C91.1884 25.7467 91.3058 25.272 91.3058 24.728C91.3058 24.1733 91.1884 23.6987 90.9538 23.304C90.7298 22.8987 90.4258 22.5893 90.0418 22.376C89.6684 22.1627 89.2418 22.056 88.7618 22.056C88.2818 22.056 87.8498 22.1627 87.4658 22.376C87.0924 22.5893 86.7884 22.8987 86.5538 23.304C86.3298 23.6987 86.2178 24.1733 86.2178 24.728C86.2178 25.272 86.3298 25.7467 86.5538 26.152C86.7884 26.5573 87.0924 26.8667 87.4658 27.08C87.8498 27.2933 88.2818 27.4 88.7618 27.4ZM91.3538 29V26.984L91.4338 24.712L91.2738 22.44V17.128H93.2578V29H91.3538ZM99.9061 29.112C98.9568 29.112 98.1248 28.9253 97.4101 28.552C96.7061 28.168 96.1568 27.6453 95.7621 26.984C95.3781 26.3227 95.1861 25.5707 95.1861 24.728C95.1861 23.8747 95.3728 23.1227 95.7461 22.472C96.1301 21.8107 96.6528 21.2933 97.3141 20.92C97.9861 20.5467 98.7488 20.36 99.6021 20.36C100.434 20.36 101.175 20.5413 101.826 20.904C102.477 21.2667 102.989 21.7787 103.362 22.44C103.735 23.1013 103.922 23.88 103.922 24.776C103.922 24.8613 103.917 24.9573 103.906 25.064C103.906 25.1707 103.901 25.272 103.89 25.368H96.7701V24.04H102.834L102.05 24.456C102.061 23.9653 101.959 23.5333 101.746 23.16C101.533 22.7867 101.239 22.4933 100.866 22.28C100.503 22.0667 100.082 21.96 99.6021 21.96C99.1115 21.96 98.6795 22.0667 98.3061 22.28C97.9435 22.4933 97.6555 22.792 97.4421 23.176C97.2395 23.5493 97.1381 23.992 97.1381 24.504V24.824C97.1381 25.336 97.2555 25.7893 97.4901 26.184C97.7248 26.5787 98.0555 26.8827 98.4821 27.096C98.9088 27.3093 99.3995 27.416 99.9541 27.416C100.434 27.416 100.866 27.3413 101.25 27.192C101.634 27.0427 101.975 26.808 102.274 26.488L103.346 27.72C102.962 28.168 102.477 28.5147 101.89 28.76C101.314 28.9947 100.653 29.112 99.9061 29.112ZM115.529 29V27.272L115.417 26.904V23.88C115.417 23.2933 115.241 22.84 114.889 22.52C114.537 22.1893 114.004 22.024 113.289 22.024C112.809 22.024 112.334 22.0987 111.865 22.248C111.406 22.3973 111.017 22.6053 110.697 22.872L109.913 21.416C110.372 21.064 110.916 20.8027 111.545 20.632C112.185 20.4507 112.846 20.36 113.529 20.36C114.766 20.36 115.721 20.6587 116.393 21.256C117.076 21.8427 117.417 22.7547 117.417 23.992V29H115.529ZM112.841 29.112C112.201 29.112 111.641 29.0053 111.161 28.792C110.681 28.568 110.308 28.264 110.041 27.88C109.785 27.4853 109.657 27.0427 109.657 26.552C109.657 26.072 109.769 25.64 109.993 25.256C110.228 24.872 110.606 24.568 111.129 24.344C111.652 24.12 112.345 24.008 113.209 24.008H115.689V25.336H113.353C112.67 25.336 112.212 25.448 111.977 25.672C111.742 25.8853 111.625 26.152 111.625 26.472C111.625 26.8347 111.769 27.1227 112.057 27.336C112.345 27.5493 112.745 27.656 113.257 27.656C113.748 27.656 114.185 27.544 114.569 27.32C114.964 27.096 115.246 26.7653 115.417 26.328L115.753 27.528C115.561 28.0293 115.214 28.4187 114.713 28.696C114.222 28.9733 113.598 29.112 112.841 29.112ZM112.361 19.288L114.521 17.096H116.873L114.089 19.288H112.361ZM119.984 29V20.456H121.888V22.808L121.664 22.12C121.92 21.544 122.32 21.1067 122.864 20.808C123.419 20.5093 124.107 20.36 124.928 20.36V22.264C124.843 22.2427 124.763 22.232 124.688 22.232C124.613 22.2213 124.539 22.216 124.464 22.216C123.707 22.216 123.104 22.44 122.656 22.888C122.208 23.3253 121.984 23.9813 121.984 24.856V29H119.984ZM130.562 29.112C129.613 29.112 128.781 28.9253 128.066 28.552C127.362 28.168 126.813 27.6453 126.418 26.984C126.034 26.3227 125.842 25.5707 125.842 24.728C125.842 23.8747 126.029 23.1227 126.402 22.472C126.786 21.8107 127.309 21.2933 127.97 20.92C128.642 20.5467 129.405 20.36 130.258 20.36C131.09 20.36 131.832 20.5413 132.482 20.904C133.133 21.2667 133.645 21.7787 134.018 22.44C134.392 23.1013 134.578 23.88 134.578 24.776C134.578 24.8613 134.573 24.9573 134.562 25.064C134.562 25.1707 134.557 25.272 134.546 25.368H127.426V24.04H133.49L132.706 24.456C132.717 23.9653 132.616 23.5333 132.402 23.16C132.189 22.7867 131.896 22.4933 131.522 22.28C131.16 22.0667 130.738 21.96 130.258 21.96C129.768 21.96 129.336 22.0667 128.962 22.28C128.6 22.4933 128.312 22.792 128.098 23.176C127.896 23.5493 127.794 23.992 127.794 24.504V24.824C127.794 25.336 127.912 25.7893 128.146 26.184C128.381 26.5787 128.712 26.8827 129.138 27.096C129.565 27.3093 130.056 27.416 130.61 27.416C131.09 27.416 131.522 27.3413 131.906 27.192C132.29 27.0427 132.632 26.808 132.93 26.488L134.002 27.72C133.618 28.168 133.133 28.5147 132.546 28.76C131.97 28.9947 131.309 29.112 130.562 29.112ZM141.529 29V27.272L141.417 26.904V23.88C141.417 23.2933 141.241 22.84 140.889 22.52C140.537 22.1893 140.004 22.024 139.289 22.024C138.809 22.024 138.334 22.0987 137.865 22.248C137.406 22.3973 137.017 22.6053 136.697 22.872L135.913 21.416C136.372 21.064 136.916 20.8027 137.545 20.632C138.185 20.4507 138.846 20.36 139.529 20.36C140.766 20.36 141.721 20.6587 142.393 21.256C143.076 21.8427 143.417 22.7547 143.417 23.992V29H141.529ZM138.841 29.112C138.201 29.112 137.641 29.0053 137.161 28.792C136.681 28.568 136.308 28.264 136.041 27.88C135.785 27.4853 135.657 27.0427 135.657 26.552C135.657 26.072 135.769 25.64 135.993 25.256C136.228 24.872 136.606 24.568 137.129 24.344C137.652 24.12 138.345 24.008 139.209 24.008H141.689V25.336H139.353C138.67 25.336 138.212 25.448 137.977 25.672C137.742 25.8853 137.625 26.152 137.625 26.472C137.625 26.8347 137.769 27.1227 138.057 27.336C138.345 27.5493 138.745 27.656 139.257 27.656C139.748 27.656 140.185 27.544 140.569 27.32C140.964 27.096 141.246 26.7653 141.417 26.328L141.753 27.528C141.561 28.0293 141.214 28.4187 140.713 28.696C140.222 28.9733 139.598 29.112 138.841 29.112Z" fill="#0B112A"/>
<g filter="url(#filter1_d_4064_37966)">
<g opacity="0.2" filter="url(#filter2_d_4064_37966)">
<circle cx="47.5" cy="108.5" r="26.5" fill="#FDA700"/>
</g>
<path d="M38.3153 105.636L38.0708 106.345L38.3153 105.636ZM38.3153 110.364L38.0708 109.655L38.3153 110.364ZM57.6847 110.364L57.9292 109.655L57.6847 110.364ZM57.6847 105.636L57.4403 104.927L57.6847 105.636ZM42 99.25C39.3766 99.25 37.25 101.377 37.25 104H38.75C38.75 102.205 40.2051 100.75 42 100.75V99.25ZM54 99.25H42V100.75H54V99.25ZM58.75 104C58.75 101.377 56.6234 99.25 54 99.25V100.75C55.7949 100.75 57.25 102.205 57.25 104H58.75ZM58.75 105.223V104H57.25V105.223H58.75ZM56.75 108C56.75 107.234 57.242 106.582 57.9292 106.345L57.4403 104.927C56.1667 105.366 55.25 106.575 55.25 108H56.75ZM57.9292 109.655C57.242 109.418 56.75 108.766 56.75 108H55.25C55.25 109.425 56.1667 110.634 57.4403 111.073L57.9292 109.655ZM58.75 112V110.777H57.25V112H58.75ZM54 116.75C56.6234 116.75 58.75 114.623 58.75 112H57.25C57.25 113.795 55.7949 115.25 54 115.25V116.75ZM42 116.75H54V115.25H42V116.75ZM37.25 112C37.25 114.623 39.3766 116.75 42 116.75V115.25C40.2051 115.25 38.75 113.795 38.75 112H37.25ZM37.25 110.777V112H38.75V110.777H37.25ZM38.5597 111.073C39.8333 110.634 40.75 109.425 40.75 108H39.25C39.25 108.766 38.758 109.418 38.0708 109.655L38.5597 111.073ZM40.75 108C40.75 106.575 39.8333 105.366 38.5597 104.927L38.0708 106.345C38.758 106.582 39.25 107.234 39.25 108H40.75ZM37.25 104V105.223H38.75V104H37.25ZM38.5597 104.927C38.6265 104.95 38.75 105.038 38.75 105.223H37.25C37.25 105.789 37.6443 106.198 38.0708 106.345L38.5597 104.927ZM38.75 110.777C38.75 110.962 38.6265 111.05 38.5597 111.073L38.0708 109.655C37.6443 109.802 37.25 110.211 37.25 110.777H38.75ZM57.4403 111.073C57.3735 111.05 57.25 110.962 57.25 110.777H58.75C58.75 110.211 58.3557 109.802 57.9292 109.655L57.4403 111.073ZM57.25 105.223C57.25 105.038 57.3735 104.95 57.4403 104.927L57.9292 106.345C58.3557 106.198 58.75 105.789 58.75 105.223H57.25Z" fill="#FDA700"/>
<path d="M47.6089 104.491C47.8091 104.24 48.1909 104.24 48.3911 104.491L50.1356 106.681C50.1666 106.72 50.1916 106.764 50.2098 106.81L51.2344 109.416C51.352 109.715 51.161 110.045 50.8433 110.093L48.0742 110.509C48.025 110.516 47.975 110.516 47.9258 110.509L45.1567 110.093C44.839 110.045 44.648 109.715 44.7656 109.416L45.7902 106.81C45.8084 106.764 45.8334 106.72 45.8644 106.681L47.6089 104.491Z" stroke="#FDA700" stroke-width="1.5"/>
</g>
<g filter="url(#filter3_d_4064_37966)">
<g filter="url(#filter4_d_4064_37966)">
<circle cx="150.5" cy="108.5" r="26.5" fill="white"/>
</g>
<path d="M142.315 105.636L142.071 106.345L142.315 105.636ZM142.315 110.364L142.071 109.655L142.315 110.364ZM161.685 110.364L161.929 109.655L161.685 110.364ZM161.685 105.636L161.44 104.927L161.685 105.636ZM146 99.25C143.377 99.25 141.25 101.377 141.25 104H142.75C142.75 102.205 144.205 100.75 146 100.75V99.25ZM158 99.25H146V100.75H158V99.25ZM162.75 104C162.75 101.377 160.623 99.25 158 99.25V100.75C159.795 100.75 161.25 102.205 161.25 104H162.75ZM162.75 105.223V104H161.25V105.223H162.75ZM160.75 108C160.75 107.234 161.242 106.582 161.929 106.345L161.44 104.927C160.167 105.366 159.25 106.575 159.25 108H160.75ZM161.929 109.655C161.242 109.418 160.75 108.766 160.75 108H159.25C159.25 109.425 160.167 110.634 161.44 111.073L161.929 109.655ZM162.75 112V110.777H161.25V112H162.75ZM158 116.75C160.623 116.75 162.75 114.623 162.75 112H161.25C161.25 113.795 159.795 115.25 158 115.25V116.75ZM146 116.75H158V115.25H146V116.75ZM141.25 112C141.25 114.623 143.377 116.75 146 116.75V115.25C144.205 115.25 142.75 113.795 142.75 112H141.25ZM141.25 110.777V112H142.75V110.777H141.25ZM142.56 111.073C143.833 110.634 144.75 109.425 144.75 108H143.25C143.25 108.766 142.758 109.418 142.071 109.655L142.56 111.073ZM144.75 108C144.75 106.575 143.833 105.366 142.56 104.927L142.071 106.345C142.758 106.582 143.25 107.234 143.25 108H144.75ZM141.25 104V105.223H142.75V104H141.25ZM142.56 104.927C142.627 104.95 142.75 105.038 142.75 105.223H141.25C141.25 105.789 141.644 106.198 142.071 106.345L142.56 104.927ZM142.75 110.777C142.75 110.962 142.627 111.05 142.56 111.073L142.071 109.655C141.644 109.802 141.25 110.211 141.25 110.777H142.75ZM161.44 111.073C161.373 111.05 161.25 110.962 161.25 110.777H162.75C162.75 110.211 162.356 109.802 161.929 109.655L161.44 111.073ZM161.25 105.223C161.25 105.038 161.373 104.95 161.44 104.927L161.929 106.345C162.356 106.198 162.75 105.789 162.75 105.223H161.25Z" fill="#F95A36"/>
<path d="M151.857 103V108.143" stroke="#F95A36" stroke-width="2" stroke-linecap="round" stroke-linejoin="round"/>
<path d="M151.857 112.714C152.331 112.714 152.714 112.331 152.714 111.857C152.714 111.384 152.331 111 151.857 111C151.384 111 151 111.384 151 111.857C151 112.331 151.384 112.714 151.857 112.714Z" stroke="#F95A36" stroke-linecap="round" stroke-linejoin="round"/>
</g>
<g filter="url(#filter5_d_4064_37966)">
<circle cx="356.5" cy="108.5" r="26.5" fill="white"/>
</g>
<path d="M347.315 105.636L347.071 106.345L347.315 105.636ZM347.315 110.364L347.071 109.655L347.315 110.364ZM366.685 110.364L366.929 109.655L366.685 110.364ZM366.685 105.636L366.44 104.927L366.685 105.636ZM351 99.25C348.377 99.25 346.25 101.377 346.25 104H347.75C347.75 102.205 349.205 100.75 351 100.75V99.25ZM363 99.25H351V100.75H363V99.25ZM367.75 104C367.75 101.377 365.623 99.25 363 99.25V100.75C364.795 100.75 366.25 102.205 366.25 104H367.75ZM367.75 105.223V104H366.25V105.223H367.75ZM365.75 108C365.75 107.234 366.242 106.582 366.929 106.345L366.44 104.927C365.167 105.366 364.25 106.575 364.25 108H365.75ZM366.929 109.655C366.242 109.418 365.75 108.766 365.75 108H364.25C364.25 109.425 365.167 110.634 366.44 111.073L366.929 109.655ZM367.75 112V110.777H366.25V112H367.75ZM363 116.75C365.623 116.75 367.75 114.623 367.75 112H366.25C366.25 113.795 364.795 115.25 363 115.25V116.75ZM351 116.75H363V115.25H351V116.75ZM346.25 112C346.25 114.623 348.377 116.75 351 116.75V115.25C349.205 115.25 347.75 113.795 347.75 112H346.25ZM346.25 110.777V112H347.75V110.777H346.25ZM347.56 111.073C348.833 110.634 349.75 109.425 349.75 108H348.25C348.25 108.766 347.758 109.418 347.071 109.655L347.56 111.073ZM349.75 108C349.75 106.575 348.833 105.366 347.56 104.927L347.071 106.345C347.758 106.582 348.25 107.234 348.25 108H349.75ZM346.25 104V105.223H347.75V104H346.25ZM347.56 104.927C347.627 104.95 347.75 105.038 347.75 105.223H346.25C346.25 105.789 346.644 106.198 347.071 106.345L347.56 104.927ZM347.75 110.777C347.75 110.962 347.627 111.05 347.56 111.073L347.071 109.655C346.644 109.802 346.25 110.211 346.25 110.777H347.75ZM366.44 111.073C366.373 111.05 366.25 110.962 366.25 110.777H367.75C367.75 110.211 367.356 109.802 366.929 109.655L366.44 111.073ZM366.25 105.223C366.25 105.038 366.373 104.95 366.44 104.927L366.929 106.345C367.356 106.198 367.75 105.789 367.75 105.223H366.25Z" fill="#1A7F1C"/>
<path d="M355 108.857L356.464 110.029C356.504 110.061 356.55 110.084 356.599 110.097C356.649 110.109 356.7 110.11 356.75 110.1C356.8 110.091 356.848 110.07 356.89 110.041C356.932 110.011 356.967 109.973 356.993 109.929L359.286 106" stroke="#1A7F1C" stroke-width="1.71429" stroke-linecap="round" stroke-linejoin="round"/>
<g filter="url(#filter6_d_4064_37966)">
<circle cx="253.5" cy="108.5" r="26.5" fill="white"/>
</g>
<path d="M244.315 105.636L244.071 106.345L244.315 105.636ZM244.315 110.364L244.071 109.655L244.315 110.364ZM263.685 110.364L263.929 109.655L263.685 110.364ZM263.685 105.636L263.44 104.927L263.685 105.636ZM248 99.25C245.377 99.25 243.25 101.377 243.25 104H244.75C244.75 102.205 246.205 100.75 248 100.75V99.25ZM260 99.25H248V100.75H260V99.25ZM264.75 104C264.75 101.377 262.623 99.25 260 99.25V100.75C261.795 100.75 263.25 102.205 263.25 104H264.75ZM264.75 105.223V104H263.25V105.223H264.75ZM262.75 108C262.75 107.234 263.242 106.582 263.929 106.345L263.44 104.927C262.167 105.366 261.25 106.575 261.25 108H262.75ZM263.929 109.655C263.242 109.418 262.75 108.766 262.75 108H261.25C261.25 109.425 262.167 110.634 263.44 111.073L263.929 109.655ZM264.75 112V110.777H263.25V112H264.75ZM260 116.75C262.623 116.75 264.75 114.623 264.75 112H263.25C263.25 113.795 261.795 115.25 260 115.25V116.75ZM248 116.75H260V115.25H248V116.75ZM243.25 112C243.25 114.623 245.377 116.75 248 116.75V115.25C246.205 115.25 244.75 113.795 244.75 112H243.25ZM243.25 110.777V112H244.75V110.777H243.25ZM244.56 111.073C245.833 110.634 246.75 109.425 246.75 108H245.25C245.25 108.766 244.758 109.418 244.071 109.655L244.56 111.073ZM246.75 108C246.75 106.575 245.833 105.366 244.56 104.927L244.071 106.345C244.758 106.582 245.25 107.234 245.25 108H246.75ZM243.25 104V105.223H244.75V104H243.25ZM244.56 104.927C244.627 104.95 244.75 105.038 244.75 105.223H243.25C243.25 105.789 243.644 106.198 244.071 106.345L244.56 104.927ZM244.75 110.777C244.75 110.962 244.627 111.05 244.56 111.073L244.071 109.655C243.644 109.802 243.25 110.211 243.25 110.777H244.75ZM263.44 111.073C263.373 111.05 263.25 110.962 263.25 110.777H264.75C264.75 110.211 264.356 109.802 263.929 109.655L263.44 111.073ZM263.25 105.223C263.25 105.038 263.373 104.95 263.44 104.927L263.929 106.345C264.356 106.198 264.75 105.789 264.75 105.223H263.25Z" fill="#285CED"/>
<path d="M255.928 103L255.928 100" stroke="#285CED" stroke-width="1.5" stroke-linecap="round" stroke-linejoin="round"/>
<path d="M255.928 109.5L255.928 106.5" stroke="#285CED" stroke-width="1.5" stroke-linecap="round" stroke-linejoin="round"/>
<path d="M255.928 116L255.928 113" stroke="#285CED" stroke-width="1.5" stroke-linecap="round" stroke-linejoin="round"/>
<g filter="url(#filter7_d_4064_37966)">
<path d="M23.744 193.428H28.784V194.618H23.744V193.428ZM23.87 197.782H29.582V199H22.47V189.2H29.386V190.418H23.87V197.782ZM35.3349 191.51C35.9416 191.51 36.4736 191.627 36.9309 191.86C37.3976 192.093 37.7616 192.448 38.0229 192.924C38.2842 193.4 38.4149 194.002 38.4149 194.73V199H37.0709V194.884C37.0709 194.165 36.8936 193.624 36.5389 193.26C36.1936 192.896 35.7036 192.714 35.0689 192.714C34.5929 192.714 34.1776 192.807 33.8229 192.994C33.4682 193.181 33.1929 193.456 32.9969 193.82C32.8102 194.184 32.7169 194.637 32.7169 195.178V199H31.3729V191.58H32.6609V193.582L32.4509 193.05C32.6936 192.565 33.0669 192.187 33.5709 191.916C34.0749 191.645 34.6629 191.51 35.3349 191.51ZM47.336 199.084C46.58 199.084 45.9033 198.921 45.306 198.594C44.718 198.267 44.256 197.819 43.92 197.25C43.584 196.681 43.416 196.027 43.416 195.29C43.416 194.553 43.584 193.899 43.92 193.33C44.256 192.761 44.718 192.317 45.306 192C45.9033 191.673 46.58 191.51 47.336 191.51C48.008 191.51 48.6053 191.645 49.128 191.916C49.66 192.177 50.0706 192.569 50.36 193.092L49.338 193.75C49.0953 193.386 48.7966 193.12 48.442 192.952C48.0966 192.775 47.7233 192.686 47.322 192.686C46.8366 192.686 46.4026 192.793 46.02 193.008C45.6373 193.223 45.334 193.526 45.11 193.918C44.886 194.301 44.774 194.758 44.774 195.29C44.774 195.822 44.886 196.284 45.11 196.676C45.334 197.068 45.6373 197.371 46.02 197.586C46.4026 197.801 46.8366 197.908 47.322 197.908C47.7233 197.908 48.0966 197.824 48.442 197.656C48.7966 197.479 49.0953 197.208 49.338 196.844L50.36 197.488C50.0706 198.001 49.66 198.398 49.128 198.678C48.6053 198.949 48.008 199.084 47.336 199.084ZM54.942 199.084C54.3073 199.084 53.7473 198.967 53.262 198.734C52.786 198.501 52.4127 198.146 52.142 197.67C51.8807 197.185 51.75 196.578 51.75 195.85V191.58H53.094V195.696C53.094 196.424 53.2667 196.97 53.612 197.334C53.9667 197.698 54.4613 197.88 55.096 197.88C55.5627 197.88 55.9687 197.787 56.314 197.6C56.6593 197.404 56.9253 197.124 57.112 196.76C57.2987 196.387 57.392 195.939 57.392 195.416V191.58H58.736V199H57.462V196.998L57.672 197.53C57.4293 198.025 57.0653 198.407 56.58 198.678C56.0947 198.949 55.5487 199.084 54.942 199.084ZM61.0146 199V191.58H62.3026V193.596L62.1766 193.092C62.382 192.579 62.7273 192.187 63.2126 191.916C63.698 191.645 64.2953 191.51 65.0046 191.51V192.812C64.9486 192.803 64.8926 192.798 64.8366 192.798C64.79 192.798 64.7433 192.798 64.6966 192.798C63.978 192.798 63.4086 193.013 62.9886 193.442C62.5686 193.871 62.3586 194.492 62.3586 195.304V199H61.0146ZM68.5911 199.084C67.9751 199.084 67.3871 199 66.8271 198.832C66.2765 198.664 65.8425 198.459 65.5251 198.216L66.0851 197.152C66.4025 197.367 66.7945 197.549 67.2611 197.698C67.7278 197.847 68.2038 197.922 68.6891 197.922C69.3145 197.922 69.7625 197.833 70.0331 197.656C70.3131 197.479 70.4531 197.231 70.4531 196.914C70.4531 196.681 70.3691 196.499 70.2011 196.368C70.0331 196.237 69.8091 196.139 69.5291 196.074C69.2585 196.009 68.9551 195.953 68.6191 195.906C68.2831 195.85 67.9471 195.785 67.6111 195.71C67.2751 195.626 66.9671 195.514 66.6871 195.374C66.4071 195.225 66.1831 195.024 66.0151 194.772C65.8471 194.511 65.7631 194.165 65.7631 193.736C65.7631 193.288 65.8891 192.896 66.1411 192.56C66.3931 192.224 66.7478 191.967 67.2051 191.79C67.6718 191.603 68.2225 191.51 68.8571 191.51C69.3425 191.51 69.8325 191.571 70.3271 191.692C70.8311 191.804 71.2418 191.967 71.5591 192.182L70.9851 193.246C70.6491 193.022 70.2991 192.868 69.9351 192.784C69.5711 192.7 69.2071 192.658 68.8431 192.658C68.2551 192.658 67.8165 192.756 67.5271 192.952C67.2378 193.139 67.0931 193.381 67.0931 193.68C67.0931 193.932 67.1771 194.128 67.3451 194.268C67.5225 194.399 67.7465 194.501 68.0171 194.576C68.2971 194.651 68.6051 194.716 68.9411 194.772C69.2771 194.819 69.6131 194.884 69.9491 194.968C70.2851 195.043 70.5885 195.15 70.8591 195.29C71.1391 195.43 71.3631 195.626 71.5311 195.878C71.7085 196.13 71.7971 196.466 71.7971 196.886C71.7971 197.334 71.6665 197.721 71.4051 198.048C71.1438 198.375 70.7751 198.631 70.2991 198.818C69.8231 198.995 69.2538 199.084 68.5911 199.084ZM76.3748 199.084C75.6281 199.084 74.9655 198.921 74.3868 198.594C73.8081 198.267 73.3508 197.819 73.0148 197.25C72.6788 196.671 72.5108 196.018 72.5108 195.29C72.5108 194.553 72.6788 193.899 73.0148 193.33C73.3508 192.761 73.8081 192.317 74.3868 192C74.9655 191.673 75.6281 191.51 76.3748 191.51C77.1121 191.51 77.7701 191.673 78.3488 192C78.9368 192.317 79.3941 192.761 79.7208 193.33C80.0568 193.89 80.2248 194.543 80.2248 195.29C80.2248 196.027 80.0568 196.681 79.7208 197.25C79.3941 197.819 78.9368 198.267 78.3488 198.594C77.7701 198.921 77.1121 199.084 76.3748 199.084ZM76.3748 197.908C76.8508 197.908 77.2755 197.801 77.6488 197.586C78.0315 197.371 78.3301 197.068 78.5448 196.676C78.7595 196.275 78.8668 195.813 78.8668 195.29C78.8668 194.758 78.7595 194.301 78.5448 193.918C78.3301 193.526 78.0315 193.223 77.6488 193.008C77.2755 192.793 76.8508 192.686 76.3748 192.686C75.8988 192.686 75.4741 192.793 75.1008 193.008C74.7275 193.223 74.4288 193.526 74.2048 193.918C73.9808 194.301 73.8688 194.758 73.8688 195.29C73.8688 195.813 73.9808 196.275 74.2048 196.676C74.4288 197.068 74.7275 197.371 75.1008 197.586C75.4741 197.801 75.8988 197.908 76.3748 197.908Z" fill="#0B112A"/>
</g>
<path d="M27.384 236.288C26.216 236.288 25.056 236.136 23.904 235.832C22.752 235.512 21.776 235.064 20.976 234.488L22.488 231.512C23.128 231.976 23.872 232.344 24.72 232.616C25.568 232.888 26.424 233.024 27.288 233.024C28.264 233.024 29.032 232.832 29.592 232.448C30.152 232.064 30.432 231.536 30.432 230.864C30.432 230.224 30.184 229.72 29.688 229.352C29.192 228.984 28.392 228.8 27.288 228.8H25.512V226.232L30.192 220.928L30.624 222.32H21.816V219.2H33.576V221.72L28.92 227.024L26.952 225.896H28.08C30.144 225.896 31.704 226.36 32.76 227.288C33.816 228.216 34.344 229.408 34.344 230.864C34.344 231.808 34.096 232.696 33.6 233.528C33.104 234.344 32.344 235.008 31.32 235.52C30.296 236.032 28.984 236.288 27.384 236.288ZM42.0431 218.912C43.5951 218.912 44.9311 219.232 46.0511 219.872C47.1711 220.512 48.0351 221.448 48.6431 222.68C49.2511 223.896 49.5551 225.416 49.5551 227.24C49.5551 229.176 49.1871 230.816 48.4511 232.16C47.7311 233.504 46.7311 234.528 45.4511 235.232C44.1711 235.936 42.6831 236.288 40.9871 236.288C40.1071 236.288 39.2591 236.192 38.4431 236C37.6271 235.808 36.9231 235.52 36.3311 235.136L37.7711 232.28C38.2351 232.6 38.7311 232.824 39.2591 232.952C39.7871 233.064 40.3391 233.12 40.9151 233.12C42.3551 233.12 43.4991 232.68 44.3471 231.8C45.2111 230.92 45.6431 229.616 45.6431 227.888C45.6431 227.6 45.6351 227.28 45.6191 226.928C45.6031 226.576 45.5631 226.224 45.4991 225.872L46.5551 226.88C46.2831 227.504 45.8991 228.032 45.4031 228.464C44.9071 228.88 44.3311 229.2 43.6751 229.424C43.0191 229.632 42.2831 229.736 41.4671 229.736C40.3951 229.736 39.4191 229.52 38.5391 229.088C37.6751 228.656 36.9791 228.048 36.4511 227.264C35.9391 226.48 35.6831 225.56 35.6831 224.504C35.6831 223.352 35.9631 222.36 36.5231 221.528C37.0991 220.696 37.8671 220.056 38.8271 219.608C39.8031 219.144 40.8751 218.912 42.0431 218.912ZM42.2831 221.816C41.7231 221.816 41.2351 221.92 40.8191 222.128C40.4031 222.32 40.0751 222.608 39.8351 222.992C39.5951 223.36 39.4751 223.8 39.4751 224.312C39.4751 225.08 39.7311 225.696 40.2431 226.16C40.7711 226.608 41.4671 226.832 42.3311 226.832C42.8911 226.832 43.3871 226.728 43.8191 226.52C44.2671 226.296 44.6111 225.992 44.8511 225.608C45.0911 225.224 45.2111 224.792 45.2111 224.312C45.2111 223.832 45.0911 223.408 44.8511 223.04C44.6271 222.656 44.2991 222.36 43.8671 222.152C43.4351 221.928 42.9071 221.816 42.2831 221.816Z" fill="#292D3F"/>
<path d="M66.9005 225H68.5205V232H66.9005V225ZM63.7205 232H62.1005V225H63.7205V232ZM67.0205 229.13H63.6005V227.76H67.0205V229.13ZM72.6267 232.08C72.0533 232.08 71.5433 231.96 71.0967 231.72C70.6567 231.48 70.3067 231.153 70.0467 230.74C69.7933 230.32 69.6667 229.843 69.6667 229.31C69.6667 228.77 69.7933 228.293 70.0467 227.88C70.3067 227.46 70.6567 227.133 71.0967 226.9C71.5433 226.66 72.0533 226.54 72.6267 226.54C73.1933 226.54 73.7 226.66 74.1467 226.9C74.5933 227.133 74.9433 227.457 75.1967 227.87C75.45 228.283 75.5767 228.763 75.5767 229.31C75.5767 229.843 75.45 230.32 75.1967 230.74C74.9433 231.153 74.5933 231.48 74.1467 231.72C73.7 231.96 73.1933 232.08 72.6267 232.08ZM72.6267 230.8C72.8867 230.8 73.12 230.74 73.3267 230.62C73.5333 230.5 73.6967 230.33 73.8167 230.11C73.9367 229.883 73.9967 229.617 73.9967 229.31C73.9967 228.997 73.9367 228.73 73.8167 228.51C73.6967 228.29 73.5333 228.12 73.3267 228C73.12 227.88 72.8867 227.82 72.6267 227.82C72.3667 227.82 72.1333 227.88 71.9267 228C71.72 228.12 71.5533 228.29 71.4267 228.51C71.3067 228.73 71.2467 228.997 71.2467 229.31C71.2467 229.617 71.3067 229.883 71.4267 230.11C71.5533 230.33 71.72 230.5 71.9267 230.62C72.1333 230.74 72.3667 230.8 72.6267 230.8ZM77.1529 234.02C76.8729 234.02 76.5963 233.977 76.3229 233.89C76.0496 233.803 75.8263 233.683 75.6529 233.53L76.2229 232.42C76.3429 232.527 76.4796 232.61 76.6329 232.67C76.7929 232.73 76.9496 232.76 77.1029 232.76C77.3229 232.76 77.4963 232.707 77.6229 232.6C77.7563 232.5 77.8763 232.33 77.9829 232.09L78.2629 231.43L78.3829 231.26L80.3129 226.62H81.8129L79.3829 232.33C79.2096 232.763 79.0096 233.103 78.7829 233.35C78.5629 233.597 78.3163 233.77 78.0429 233.87C77.7763 233.97 77.4796 234.02 77.1529 234.02ZM78.0729 232.21L75.6729 226.62H77.2829L79.1429 231.12L78.0729 232.21Z" fill="#356AF0"/>
<path d="M34.8103 365.144L2.64477 405.914C2.22714 406.443 2 407.098 2 407.772V450.001C2 455.524 6.47716 460.001 12 460.001H326.949H481.848C483.504 460.001 485 458.658 485 457.001V293.174C485 290.511 481.789 289.169 479.893 291.039L413.066 356.975C412.104 357.924 410.625 358.113 409.455 357.435L360.242 328.907C359.073 328.23 357.595 328.417 356.633 329.365L326.949 358.583L301.648 368.527C301.148 368.724 300.604 368.782 300.074 368.697L263.757 362.858C263.046 362.744 262.317 362.889 261.705 363.268L226.888 384.77C226.414 385.063 225.868 385.218 225.311 385.218H175.148C174.428 385.218 173.732 385.477 173.188 385.947L127.885 425.054C126.542 426.214 124.491 425.96 123.47 424.509L96.7318 386.492C96.17 385.693 95.2545 385.218 94.278 385.218H63.9365C63.216 385.218 62.5195 384.959 61.9744 384.487L39.1277 364.733C37.8343 363.615 35.8693 363.802 34.8103 365.144Z" fill="url(#paint0_linear_4064_37966)"/>
<path d="M4.09668 406.731L36.6782 365.167C37.7376 363.815 39.7132 363.627 41.0086 364.755L63.6769 384.482C64.2229 384.957 64.9224 385.219 65.6463 385.219H95.7634C96.7432 385.219 97.6613 385.697 98.2225 386.5L124.767 424.487C125.788 425.947 127.849 426.202 129.194 425.033L174.172 385.954C174.718 385.48 175.417 385.219 176.14 385.219H225.957C226.517 385.219 227.065 385.062 227.541 384.766L262.116 363.274C262.731 362.892 263.464 362.745 264.179 362.861L300.214 368.692C300.762 368.781 301.325 368.715 301.838 368.504C310.874 364.779 316.246 362.564 325.343 358.814C325.71 358.663 326.046 358.439 326.326 358.159L356.018 328.423C356.99 327.449 358.5 327.262 359.681 327.969L408.887 357.412C410.044 358.104 411.521 357.939 412.498 357.009L483.85 288.983" stroke="#FDA700" stroke-width="1.5" stroke-linecap="round"/>
<g filter="url(#filter8_d_4064_37966)">
<path d="M270 339C270 343.259 266.691 346.711 262.61 346.711C258.529 346.711 255.221 343.259 255.221 339C255.221 334.741 258.529 331.289 262.61 331.289C266.691 331.289 270 334.741 270 339Z" fill="#FDA700"/>
<path d="M268.072 339C268.072 342.272 265.55 344.784 262.61 344.784C259.67 344.784 257.148 342.272 257.148 339C257.148 335.728 259.67 333.217 262.61 333.217C265.55 333.217 268.072 335.728 268.072 339Z" stroke="white" stroke-width="3.85557"/>
</g>
<rect opacity="0.2" x="234" y="286" width="59.1163" height="38.5557" rx="7.71115" fill="#FDA700"/>
<path d="M250.071 300V299.49L252.981 296.64C253.247 296.38 253.447 296.153 253.581 295.96C253.714 295.76 253.804 295.573 253.851 295.4C253.897 295.227 253.921 295.063 253.921 294.91C253.921 294.503 253.781 294.183 253.501 293.95C253.227 293.717 252.821 293.6 252.281 293.6C251.867 293.6 251.501 293.663 251.181 293.79C250.867 293.917 250.597 294.113 250.371 294.38L249.861 293.94C250.134 293.62 250.484 293.373 250.911 293.2C251.337 293.027 251.814 292.94 252.341 292.94C252.814 292.94 253.224 293.017 253.571 293.17C253.917 293.317 254.184 293.533 254.371 293.82C254.564 294.107 254.661 294.443 254.661 294.83C254.661 295.057 254.627 295.28 254.561 295.5C254.501 295.72 254.387 295.953 254.221 296.2C254.061 296.44 253.824 296.713 253.511 297.02L250.841 299.64L250.641 299.36H254.981V300H250.071ZM256.912 300V293.3L257.232 293.64H255.262V293H257.632V300H256.912ZM264.147 300.05C263.64 300.05 263.183 299.937 262.777 299.71C262.377 299.477 262.06 299.16 261.827 298.76C261.593 298.353 261.477 297.89 261.477 297.37C261.477 296.843 261.593 296.38 261.827 295.98C262.06 295.58 262.377 295.267 262.777 295.04C263.177 294.813 263.633 294.7 264.147 294.7C264.667 294.7 265.127 294.813 265.527 295.04C265.933 295.267 266.25 295.58 266.477 295.98C266.71 296.38 266.827 296.843 266.827 297.37C266.827 297.89 266.71 298.353 266.477 298.76C266.25 299.16 265.933 299.477 265.527 299.71C265.12 299.937 264.66 300.05 264.147 300.05ZM264.147 299.42C264.527 299.42 264.863 299.337 265.157 299.17C265.45 298.997 265.68 298.757 265.847 298.45C266.02 298.137 266.107 297.777 266.107 297.37C266.107 296.957 266.02 296.597 265.847 296.29C265.68 295.983 265.45 295.747 265.157 295.58C264.863 295.407 264.53 295.32 264.157 295.32C263.783 295.32 263.45 295.407 263.157 295.58C262.863 295.747 262.63 295.983 262.457 296.29C262.283 296.597 262.197 296.957 262.197 297.37C262.197 297.777 262.283 298.137 262.457 298.45C262.63 298.757 262.863 298.997 263.157 299.17C263.45 299.337 263.78 299.42 264.147 299.42ZM270.263 300.05C269.743 300.05 269.277 299.937 268.863 299.71C268.457 299.477 268.137 299.16 267.903 298.76C267.67 298.353 267.553 297.89 267.553 297.37C267.553 296.843 267.67 296.38 267.903 295.98C268.137 295.58 268.457 295.267 268.863 295.04C269.277 294.813 269.743 294.7 270.263 294.7C270.71 294.7 271.113 294.787 271.473 294.96C271.833 295.133 272.117 295.393 272.323 295.74L271.793 296.1C271.613 295.833 271.39 295.637 271.123 295.51C270.857 295.383 270.567 295.32 270.253 295.32C269.88 295.32 269.543 295.407 269.243 295.58C268.943 295.747 268.707 295.983 268.533 296.29C268.36 296.597 268.273 296.957 268.273 297.37C268.273 297.783 268.36 298.143 268.533 298.45C268.707 298.757 268.943 298.997 269.243 299.17C269.543 299.337 269.88 299.42 270.253 299.42C270.567 299.42 270.857 299.357 271.123 299.23C271.39 299.103 271.613 298.91 271.793 298.65L272.323 299.01C272.117 299.35 271.833 299.61 271.473 299.79C271.113 299.963 270.71 300.05 270.263 300.05ZM275.244 300.05C274.751 300.05 274.371 299.917 274.104 299.65C273.837 299.383 273.704 299.007 273.704 298.52V293.59H274.414V298.48C274.414 298.787 274.491 299.023 274.644 299.19C274.804 299.357 275.031 299.44 275.324 299.44C275.637 299.44 275.897 299.35 276.104 299.17L276.354 299.68C276.214 299.807 276.044 299.9 275.844 299.96C275.651 300.02 275.451 300.05 275.244 300.05ZM272.764 295.34V294.75H276.014V295.34H272.764Z" fill="#0B112A"/>
<path d="M257.385 317V316.13L260.165 313.49C260.398 313.27 260.571 313.077 260.685 312.91C260.798 312.743 260.871 312.59 260.905 312.45C260.945 312.303 260.965 312.167 260.965 312.04C260.965 311.72 260.855 311.473 260.635 311.3C260.415 311.12 260.091 311.03 259.665 311.03C259.325 311.03 259.015 311.09 258.735 311.21C258.461 311.33 258.225 311.513 258.025 311.76L257.115 311.06C257.388 310.693 257.755 310.41 258.215 310.21C258.681 310.003 259.201 309.9 259.775 309.9C260.281 309.9 260.721 309.983 261.095 310.15C261.475 310.31 261.765 310.54 261.965 310.84C262.171 311.14 262.275 311.497 262.275 311.91C262.275 312.137 262.245 312.363 262.185 312.59C262.125 312.81 262.011 313.043 261.845 313.29C261.678 313.537 261.435 313.813 261.115 314.12L258.725 316.39L258.455 315.9H262.545V317H257.385ZM262.856 315.41V314.51L266.306 310H267.696L264.296 314.51L263.646 314.31H269.196V315.41H262.856ZM266.696 317V315.41L266.736 314.31V312.9H267.956V317H266.696Z" fill="#0B112A"/>
<defs>
<filter id="filter0_d_4064_37966" x="0" y="0" width="489" height="468" filterUnits="userSpaceOnUse" color-interpolation-filters="sRGB">
<feFlood flood-opacity="0" result="BackgroundImageFix"/>
<feColorMatrix in="SourceAlpha" type="matrix" values="0 0 0 0 0 0 0 0 0 0 0 0 0 0 0 0 0 0 127 0" result="hardAlpha"/>
<feOffset dy="4"/>
<feGaussianBlur stdDeviation="2"/>
<feComposite in2="hardAlpha" operator="out"/>
<feColorMatrix type="matrix" values="0 0 0 0 0 0 0 0 0 0 0 0 0 0 0 0 0 0 0.25 0"/>
<feBlend mode="normal" in2="BackgroundImageFix" result="effect1_dropShadow_4064_37966"/>
<feBlend mode="normal" in="SourceGraphic" in2="effect1_dropShadow_4064_37966" result="shape"/>
</filter>
<filter id="filter1_d_4064_37966" x="17" y="82" width="61" height="61" filterUnits="userSpaceOnUse" color-interpolation-filters="sRGB">
<feFlood flood-opacity="0" result="BackgroundImageFix"/>
<feColorMatrix in="SourceAlpha" type="matrix" values="0 0 0 0 0 0 0 0 0 0 0 0 0 0 0 0 0 0 127 0" result="hardAlpha"/>
<feOffset dy="4"/>
<feGaussianBlur stdDeviation="2"/>
<feComposite in2="hardAlpha" operator="out"/>
<feColorMatrix type="matrix" values="0 0 0 0 0 0 0 0 0 0 0 0 0 0 0 0 0 0 0.08 0"/>
<feBlend mode="normal" in2="BackgroundImageFix" result="effect1_dropShadow_4064_37966"/>
<feBlend mode="normal" in="SourceGraphic" in2="effect1_dropShadow_4064_37966" result="shape"/>
</filter>
<filter id="filter2_d_4064_37966" x="17" y="82" width="61" height="61" filterUnits="userSpaceOnUse" color-interpolation-filters="sRGB">
<feFlood flood-opacity="0" result="BackgroundImageFix"/>
<feColorMatrix in="SourceAlpha" type="matrix" values="0 0 0 0 0 0 0 0 0 0 0 0 0 0 0 0 0 0 127 0" result="hardAlpha"/>
<feOffset dy="4"/>
<feGaussianBlur stdDeviation="2"/>
<feComposite in2="hardAlpha" operator="out"/>
<feColorMatrix type="matrix" values="0 0 0 0 0 0 0 0 0 0 0 0 0 0 0 0 0 0 0.25 0"/>
<feBlend mode="normal" in2="BackgroundImageFix" result="effect1_dropShadow_4064_37966"/>
<feBlend mode="normal" in="SourceGraphic" in2="effect1_dropShadow_4064_37966" result="shape"/>
</filter>
<filter id="filter3_d_4064_37966" x="120" y="82" width="61" height="61" filterUnits="userSpaceOnUse" color-interpolation-filters="sRGB">
<feFlood flood-opacity="0" result="BackgroundImageFix"/>
<feColorMatrix in="SourceAlpha" type="matrix" values="0 0 0 0 0 0 0 0 0 0 0 0 0 0 0 0 0 0 127 0" result="hardAlpha"/>
<feOffset dy="4"/>
<feGaussianBlur stdDeviation="2"/>
<feComposite in2="hardAlpha" operator="out"/>
<feColorMatrix type="matrix" values="0 0 0 0 0 0 0 0 0 0 0 0 0 0 0 0 0 0 0.02 0"/>
<feBlend mode="normal" in2="BackgroundImageFix" result="effect1_dropShadow_4064_37966"/>
<feBlend mode="normal" in="SourceGraphic" in2="effect1_dropShadow_4064_37966" result="shape"/>
</filter>
<filter id="filter4_d_4064_37966" x="120" y="82" width="61" height="61" filterUnits="userSpaceOnUse" color-interpolation-filters="sRGB">
<feFlood flood-opacity="0" result="BackgroundImageFix"/>
<feColorMatrix in="SourceAlpha" type="matrix" values="0 0 0 0 0 0 0 0 0 0 0 0 0 0 0 0 0 0 127 0" result="hardAlpha"/>
<feOffset dy="4"/>
<feGaussianBlur stdDeviation="2"/>
<feComposite in2="hardAlpha" operator="out"/>
<feColorMatrix type="matrix" values="0 0 0 0 0 0 0 0 0 0 0 0 0 0 0 0 0 0 0.25 0"/>
<feBlend mode="normal" in2="BackgroundImageFix" result="effect1_dropShadow_4064_37966"/>
<feBlend mode="normal" in="SourceGraphic" in2="effect1_dropShadow_4064_37966" result="shape"/>
</filter>
<filter id="filter5_d_4064_37966" x="326" y="82" width="61" height="61" filterUnits="userSpaceOnUse" color-interpolation-filters="sRGB">
<feFlood flood-opacity="0" result="BackgroundImageFix"/>
<feColorMatrix in="SourceAlpha" type="matrix" values="0 0 0 0 0 0 0 0 0 0 0 0 0 0 0 0 0 0 127 0" result="hardAlpha"/>
<feOffset dy="4"/>
<feGaussianBlur stdDeviation="2"/>
<feComposite in2="hardAlpha" operator="out"/>
<feColorMatrix type="matrix" values="0 0 0 0 0 0 0 0 0 0 0 0 0 0 0 0 0 0 0.25 0"/>
<feBlend mode="normal" in2="BackgroundImageFix" result="effect1_dropShadow_4064_37966"/>
<feBlend mode="normal" in="SourceGraphic" in2="effect1_dropShadow_4064_37966" result="shape"/>
</filter>
<filter id="filter6_d_4064_37966" x="223" y="82" width="61" height="61" filterUnits="userSpaceOnUse" color-interpolation-filters="sRGB">
<feFlood flood-opacity="0" result="BackgroundImageFix"/>
<feColorMatrix in="SourceAlpha" type="matrix" values="0 0 0 0 0 0 0 0 0 0 0 0 0 0 0 0 0 0 127 0" result="hardAlpha"/>
<feOffset dy="4"/>
<feGaussianBlur stdDeviation="2"/>
<feComposite in2="hardAlpha" operator="out"/>
<feColorMatrix type="matrix" values="0 0 0 0 0 0 0 0 0 0 0 0 0 0 0 0 0 0 0.25 0"/>
<feBlend mode="normal" in2="BackgroundImageFix" result="effect1_dropShadow_4064_37966"/>
<feBlend mode="normal" in="SourceGraphic" in2="effect1_dropShadow_4064_37966" result="shape"/>
</filter>
<filter id="filter7_d_4064_37966" x="18.47" y="189.2" width="65.7549" height="17.8838" filterUnits="userSpaceOnUse" color-interpolation-filters="sRGB">
<feFlood flood-opacity="0" result="BackgroundImageFix"/>
<feColorMatrix in="SourceAlpha" type="matrix" values="0 0 0 0 0 0 0 0 0 0 0 0 0 0 0 0 0 0 127 0" result="hardAlpha"/>
<feOffset dy="4"/>
<feGaussianBlur stdDeviation="2"/>
<feComposite in2="hardAlpha" operator="out"/>
<feColorMatrix type="matrix" values="0 0 0 0 0 0 0 0 0 0 0 0 0 0 0 0 0 0 0.25 0"/>
<feBlend mode="normal" in2="BackgroundImageFix" result="effect1_dropShadow_4064_37966"/>
<feBlend mode="normal" in="SourceGraphic" in2="effect1_dropShadow_4064_37966" result="shape"/>
</filter>
<filter id="filter8_d_4064_37966" x="247.51" y="327.433" width="30.2013" height="30.8442" filterUnits="userSpaceOnUse" color-interpolation-filters="sRGB">
<feFlood flood-opacity="0" result="BackgroundImageFix"/>
<feColorMatrix in="SourceAlpha" type="matrix" values="0 0 0 0 0 0 0 0 0 0 0 0 0 0 0 0 0 0 127 0" result="hardAlpha"/>
<feOffset dy="3.85557"/>
<feGaussianBlur stdDeviation="3.85557"/>
<feColorMatrix type="matrix" values="0 0 0 0 0.321569 0 0 0 0 0.262745 0 0 0 0 0.666667 0 0 0 0.32 0"/>
<feBlend mode="normal" in2="BackgroundImageFix" result="effect1_dropShadow_4064_37966"/>
<feBlend mode="normal" in="SourceGraphic" in2="effect1_dropShadow_4064_37966" result="shape"/>
</filter>
<linearGradient id="paint0_linear_4064_37966" x1="612.65" y1="204.468" x2="614.369" y2="459.993" gradientUnits="userSpaceOnUse">
<stop stop-color="#FFFAEF"/>
<stop offset="1" stop-color="#FDA700" stop-opacity="0.1"/>
</linearGradient>
</defs>
</svg>
