<svg width="489" height="468" viewBox="0 0 489 468" fill="none" xmlns="http://www.w3.org/2000/svg">
<g filter="url(#filter0_d_4064_37974)">
<rect x="4" width="481" height="460" rx="10" fill="#212238"/>
<rect x="4.5" y="0.5" width="480" height="459" rx="9.5" stroke="#354A5E"/>
</g>
<path d="M26.504 28V16.8H28.584V26.24H34.44V28H26.504ZM35.8901 28V19.456H37.8901V28H35.8901ZM35.5541 18.288L37.7141 16.096H40.0661L37.2821 18.288H35.5541ZM45.3631 19.36C46.0458 19.36 46.6538 19.4933 47.1871 19.76C47.7311 20.0267 48.1578 20.4373 48.4671 20.992C48.7765 21.536 48.9311 22.24 48.9311 23.104V28H46.9311V23.36C46.9311 22.6027 46.7498 22.0373 46.3871 21.664C46.0351 21.2907 45.5391 21.104 44.8991 21.104C44.4298 21.104 44.0138 21.2 43.6511 21.392C43.2885 21.584 43.0058 21.872 42.8031 22.256C42.6111 22.6293 42.5151 23.104 42.5151 23.68V28H40.5151V19.456H42.4191V21.76L42.0831 21.056C42.3818 20.512 42.8138 20.096 43.3791 19.808C43.9551 19.5093 44.6165 19.36 45.3631 19.36ZM55.4999 28.112C54.5505 28.112 53.7185 27.9253 53.0039 27.552C52.2999 27.168 51.7505 26.6453 51.3559 25.984C50.9719 25.3227 50.7799 24.5707 50.7799 23.728C50.7799 22.8747 50.9665 22.1227 51.3399 21.472C51.7239 20.8107 52.2465 20.2933 52.9079 19.92C53.5799 19.5467 54.3425 19.36 55.1959 19.36C56.0279 19.36 56.7692 19.5413 57.4199 19.904C58.0705 20.2667 58.5825 20.7787 58.9559 21.44C59.3292 22.1013 59.5159 22.88 59.5159 23.776C59.5159 23.8613 59.5105 23.9573 59.4999 24.064C59.4999 24.1707 59.4945 24.272 59.4839 24.368H52.3639V23.04H58.4279L57.6439 23.456C57.6545 22.9653 57.5532 22.5333 57.3399 22.16C57.1265 21.7867 56.8332 21.4933 56.4599 21.28C56.0972 21.0667 55.6759 20.96 55.1959 20.96C54.7052 20.96 54.2732 21.0667 53.8999 21.28C53.5372 21.4933 53.2492 21.792 53.0359 22.176C52.8332 22.5493 52.7319 22.992 52.7319 23.504V23.824C52.7319 24.336 52.8492 24.7893 53.0839 25.184C53.3185 25.5787 53.6492 25.8827 54.0759 26.096C54.5025 26.3093 54.9932 26.416 55.5479 26.416C56.0279 26.416 56.4599 26.3413 56.8439 26.192C57.2279 26.0427 57.5692 25.808 57.8679 25.488L58.9399 26.72C58.5559 27.168 58.0705 27.5147 57.4839 27.76C56.9079 27.9947 56.2465 28.112 55.4999 28.112ZM66.4666 28V26.272L66.3546 25.904V22.88C66.3546 22.2933 66.1786 21.84 65.8266 21.52C65.4746 21.1893 64.9413 21.024 64.2266 21.024C63.7466 21.024 63.272 21.0987 62.8026 21.248C62.344 21.3973 61.9546 21.6053 61.6346 21.872L60.8506 20.416C61.3093 20.064 61.8533 19.8027 62.4826 19.632C63.1226 19.4507 63.784 19.36 64.4666 19.36C65.704 19.36 66.6586 19.6587 67.3306 20.256C68.0133 20.8427 68.3546 21.7547 68.3546 22.992V28H66.4666ZM63.7786 28.112C63.1386 28.112 62.5786 28.0053 62.0986 27.792C61.6186 27.568 61.2453 27.264 60.9786 26.88C60.7226 26.4853 60.5946 26.0427 60.5946 25.552C60.5946 25.072 60.7066 24.64 60.9306 24.256C61.1653 23.872 61.544 23.568 62.0666 23.344C62.5893 23.12 63.2826 23.008 64.1466 23.008H66.6266V24.336H64.2906C63.608 24.336 63.1493 24.448 62.9146 24.672C62.68 24.8853 62.5626 25.152 62.5626 25.472C62.5626 25.8347 62.7066 26.1227 62.9946 26.336C63.2826 26.5493 63.6826 26.656 64.1946 26.656C64.6853 26.656 65.1226 26.544 65.5066 26.32C65.9013 26.096 66.184 25.7653 66.3546 25.328L66.6906 26.528C66.4986 27.0293 66.152 27.4187 65.6506 27.696C65.16 27.9733 64.536 28.112 63.7786 28.112ZM79.2633 28.112C78.3673 28.112 77.5673 27.9253 76.8633 27.552C76.1699 27.168 75.6259 26.6453 75.2313 25.984C74.8366 25.3227 74.6393 24.5707 74.6393 23.728C74.6393 22.8747 74.8366 22.1227 75.2313 21.472C75.6259 20.8107 76.1699 20.2933 76.8633 19.92C77.5673 19.5467 78.3673 19.36 79.2633 19.36C80.0953 19.36 80.8259 19.5307 81.4553 19.872C82.0953 20.2027 82.5806 20.6933 82.9113 21.344L81.3753 22.24C81.1193 21.8347 80.8046 21.536 80.4313 21.344C80.0686 21.152 79.6739 21.056 79.2473 21.056C78.7566 21.056 78.3139 21.1627 77.9193 21.376C77.5246 21.5893 77.2153 21.8987 76.9913 22.304C76.7673 22.6987 76.6553 23.1733 76.6553 23.728C76.6553 24.2827 76.7673 24.7627 76.9913 25.168C77.2153 25.5627 77.5246 25.8667 77.9193 26.08C78.3139 26.2933 78.7566 26.4 79.2473 26.4C79.6739 26.4 80.0686 26.304 80.4313 26.112C80.8046 25.92 81.1193 25.6213 81.3753 25.216L82.9113 26.112C82.5806 26.752 82.0953 27.248 81.4553 27.6C80.8259 27.9413 80.0953 28.112 79.2633 28.112ZM88.3551 28.112C87.4805 28.112 86.7018 27.9253 86.0191 27.552C85.3365 27.168 84.7978 26.6453 84.4031 25.984C84.0085 25.3227 83.8111 24.5707 83.8111 23.728C83.8111 22.8747 84.0085 22.1227 84.4031 21.472C84.7978 20.8107 85.3365 20.2933 86.0191 19.92C86.7018 19.5467 87.4805 19.36 88.3551 19.36C89.2405 19.36 90.0245 19.5467 90.7071 19.92C91.4005 20.2933 91.9391 20.8053 92.3231 21.456C92.7178 22.1067 92.9151 22.864 92.9151 23.728C92.9151 24.5707 92.7178 25.3227 92.3231 25.984C91.9391 26.6453 91.4005 27.168 90.7071 27.552C90.0245 27.9253 89.2405 28.112 88.3551 28.112ZM88.3551 26.4C88.8458 26.4 89.2831 26.2933 89.6671 26.08C90.0511 25.8667 90.3498 25.5573 90.5631 25.152C90.7871 24.7467 90.8991 24.272 90.8991 23.728C90.8991 23.1733 90.7871 22.6987 90.5631 22.304C90.3498 21.8987 90.0511 21.5893 89.6671 21.376C89.2831 21.1627 88.8511 21.056 88.3711 21.056C87.8805 21.056 87.4431 21.1627 87.0591 21.376C86.6858 21.5893 86.3871 21.8987 86.1631 22.304C85.9391 22.6987 85.8271 23.1733 85.8271 23.728C85.8271 24.272 85.9391 24.7467 86.1631 25.152C86.3871 25.5573 86.6858 25.8667 87.0591 26.08C87.4431 26.2933 87.8751 26.4 88.3551 26.4ZM105.612 19.36C106.294 19.36 106.897 19.4933 107.42 19.76C107.953 20.0267 108.369 20.4373 108.668 20.992C108.966 21.536 109.116 22.24 109.116 23.104V28H107.116V23.36C107.116 22.6027 106.95 22.0373 106.62 21.664C106.289 21.2907 105.814 21.104 105.196 21.104C104.758 21.104 104.369 21.2 104.028 21.392C103.697 21.584 103.436 21.8667 103.244 22.24C103.062 22.6133 102.972 23.088 102.972 23.664V28H100.972V23.36C100.972 22.6027 100.806 22.0373 100.476 21.664C100.145 21.2907 99.6703 21.104 99.0516 21.104C98.6143 21.104 98.225 21.2 97.8836 21.392C97.553 21.584 97.2916 21.8667 97.0996 22.24C96.9183 22.6133 96.8276 23.088 96.8276 23.664V28H94.8276V19.456H96.7316V21.728L96.3956 21.056C96.6836 20.5013 97.0996 20.08 97.6436 19.792C98.1983 19.504 98.8276 19.36 99.5316 19.36C100.332 19.36 101.025 19.5573 101.612 19.952C102.209 20.3467 102.604 20.944 102.796 21.744L102.012 21.472C102.289 20.832 102.748 20.32 103.388 19.936C104.028 19.552 104.769 19.36 105.612 19.36ZM116.407 28.112C115.714 28.112 115.079 27.952 114.503 27.632C113.938 27.312 113.485 26.832 113.143 26.192C112.813 25.5413 112.647 24.72 112.647 23.728C112.647 22.7253 112.807 21.904 113.127 21.264C113.458 20.624 113.906 20.1493 114.471 19.84C115.037 19.52 115.682 19.36 116.407 19.36C117.25 19.36 117.991 19.5413 118.631 19.904C119.282 20.2667 119.794 20.7733 120.167 21.424C120.551 22.0747 120.743 22.8427 120.743 23.728C120.743 24.6133 120.551 25.3867 120.167 26.048C119.794 26.6987 119.282 27.2053 118.631 27.568C117.991 27.9307 117.25 28.112 116.407 28.112ZM111.671 31.104V19.456H113.575V21.472L113.511 23.744L113.671 26.016V31.104H111.671ZM116.183 26.4C116.663 26.4 117.09 26.2933 117.463 26.08C117.847 25.8667 118.151 25.5573 118.375 25.152C118.599 24.7467 118.711 24.272 118.711 23.728C118.711 23.1733 118.599 22.6987 118.375 22.304C118.151 21.8987 117.847 21.5893 117.463 21.376C117.09 21.1627 116.663 21.056 116.183 21.056C115.703 21.056 115.271 21.1627 114.887 21.376C114.503 21.5893 114.199 21.8987 113.975 22.304C113.751 22.6987 113.639 23.1733 113.639 23.728C113.639 24.272 113.751 24.7467 113.975 25.152C114.199 25.5573 114.503 25.8667 114.887 26.08C115.271 26.2933 115.703 26.4 116.183 26.4ZM127.795 28V26.272L127.683 25.904V22.88C127.683 22.2933 127.507 21.84 127.155 21.52C126.803 21.1893 126.269 21.024 125.555 21.024C125.075 21.024 124.6 21.0987 124.131 21.248C123.672 21.3973 123.283 21.6053 122.963 21.872L122.179 20.416C122.637 20.064 123.181 19.8027 123.811 19.632C124.451 19.4507 125.112 19.36 125.795 19.36C127.032 19.36 127.987 19.6587 128.659 20.256C129.341 20.8427 129.683 21.7547 129.683 22.992V28H127.795ZM125.107 28.112C124.467 28.112 123.907 28.0053 123.427 27.792C122.947 27.568 122.573 27.264 122.307 26.88C122.051 26.4853 121.923 26.0427 121.923 25.552C121.923 25.072 122.035 24.64 122.259 24.256C122.493 23.872 122.872 23.568 123.395 23.344C123.917 23.12 124.611 23.008 125.475 23.008H127.955V24.336H125.619C124.936 24.336 124.477 24.448 124.243 24.672C124.008 24.8853 123.891 25.152 123.891 25.472C123.891 25.8347 124.035 26.1227 124.323 26.336C124.611 26.5493 125.011 26.656 125.523 26.656C126.013 26.656 126.451 26.544 126.835 26.32C127.229 26.096 127.512 25.7653 127.683 25.328L128.019 26.528C127.827 27.0293 127.48 27.4187 126.979 27.696C126.488 27.9733 125.864 28.112 125.107 28.112ZM132.25 28V19.456H134.154V21.808L133.93 21.12C134.186 20.544 134.586 20.1067 135.13 19.808C135.684 19.5093 136.372 19.36 137.194 19.36V21.264C137.108 21.2427 137.028 21.232 136.954 21.232C136.879 21.2213 136.804 21.216 136.73 21.216C135.972 21.216 135.37 21.44 134.922 21.888C134.474 22.3253 134.25 22.9813 134.25 23.856V28H132.25ZM143.545 28V26.272L143.433 25.904V22.88C143.433 22.2933 143.257 21.84 142.905 21.52C142.553 21.1893 142.019 21.024 141.305 21.024C140.825 21.024 140.35 21.0987 139.881 21.248C139.422 21.3973 139.033 21.6053 138.713 21.872L137.929 20.416C138.387 20.064 138.931 19.8027 139.561 19.632C140.201 19.4507 140.862 19.36 141.545 19.36C142.782 19.36 143.737 19.6587 144.409 20.256C145.091 20.8427 145.433 21.7547 145.433 22.992V28H143.545ZM140.857 28.112C140.217 28.112 139.657 28.0053 139.177 27.792C138.697 27.568 138.323 27.264 138.057 26.88C137.801 26.4853 137.673 26.0427 137.673 25.552C137.673 25.072 137.785 24.64 138.009 24.256C138.243 23.872 138.622 23.568 139.145 23.344C139.667 23.12 140.361 23.008 141.225 23.008H143.705V24.336H141.369C140.686 24.336 140.227 24.448 139.993 24.672C139.758 24.8853 139.641 25.152 139.641 25.472C139.641 25.8347 139.785 26.1227 140.073 26.336C140.361 26.5493 140.761 26.656 141.273 26.656C141.763 26.656 142.201 26.544 142.585 26.32C142.979 26.096 143.262 25.7653 143.433 25.328L143.769 26.528C143.577 27.0293 143.23 27.4187 142.729 27.696C142.238 27.9733 141.614 28.112 140.857 28.112ZM151.216 28.112C150.277 28.112 149.552 27.872 149.039 27.392C148.528 26.9013 148.272 26.1813 148.272 25.232V17.568H150.272V25.184C150.272 25.5893 150.373 25.904 150.576 26.128C150.789 26.352 151.082 26.464 151.456 26.464C151.904 26.464 152.277 26.3467 152.576 26.112L153.136 27.536C152.901 27.728 152.613 27.872 152.272 27.968C151.93 28.064 151.578 28.112 151.216 28.112ZM146.864 21.12V19.52H152.56V21.12H146.864ZM154.781 28V19.456H156.781V28H154.781ZM155.789 18.048C155.415 18.048 155.106 17.9307 154.861 17.696C154.626 17.4613 154.509 17.1787 154.509 16.848C154.509 16.5067 154.626 16.224 154.861 16C155.106 15.7653 155.415 15.648 155.789 15.648C156.162 15.648 156.466 15.76 156.701 15.984C156.946 16.1973 157.069 16.4693 157.069 16.8C157.069 17.152 156.951 17.4507 156.717 17.696C156.482 17.9307 156.173 18.048 155.789 18.048ZM161.678 28L158.014 19.456H160.094L163.246 26.992H162.222L165.486 19.456H167.406L163.742 28H161.678ZM173.654 28V26.272L173.542 25.904V22.88C173.542 22.2933 173.366 21.84 173.014 21.52C172.662 21.1893 172.129 21.024 171.414 21.024C170.934 21.024 170.459 21.0987 169.99 21.248C169.531 21.3973 169.142 21.6053 168.822 21.872L168.038 20.416C168.497 20.064 169.041 19.8027 169.67 19.632C170.31 19.4507 170.971 19.36 171.654 19.36C172.891 19.36 173.846 19.6587 174.518 20.256C175.201 20.8427 175.542 21.7547 175.542 22.992V28H173.654ZM170.966 28.112C170.326 28.112 169.766 28.0053 169.286 27.792C168.806 27.568 168.433 27.264 168.166 26.88C167.91 26.4853 167.782 26.0427 167.782 25.552C167.782 25.072 167.894 24.64 168.118 24.256C168.353 23.872 168.731 23.568 169.254 23.344C169.777 23.12 170.47 23.008 171.334 23.008H173.814V24.336H171.478C170.795 24.336 170.337 24.448 170.102 24.672C169.867 24.8853 169.75 25.152 169.75 25.472C169.75 25.8347 169.894 26.1227 170.182 26.336C170.47 26.5493 170.87 26.656 171.382 26.656C171.873 26.656 172.31 26.544 172.694 26.32C173.089 26.096 173.371 25.7653 173.542 25.328L173.878 26.528C173.686 27.0293 173.339 27.4187 172.838 27.696C172.347 27.9733 171.723 28.112 170.966 28.112Z" fill="#D0D0CE"/>
<g filter="url(#filter1_d_4064_37974)">
<path d="M23.744 193.428H28.784V194.618H23.744V193.428ZM23.87 197.782H29.582V199H22.47V189.2H29.386V190.418H23.87V197.782ZM35.3349 191.51C35.9416 191.51 36.4736 191.627 36.9309 191.86C37.3976 192.093 37.7616 192.448 38.0229 192.924C38.2842 193.4 38.4149 194.002 38.4149 194.73V199H37.0709V194.884C37.0709 194.165 36.8936 193.624 36.5389 193.26C36.1936 192.896 35.7036 192.714 35.0689 192.714C34.5929 192.714 34.1776 192.807 33.8229 192.994C33.4682 193.181 33.1929 193.456 32.9969 193.82C32.8102 194.184 32.7169 194.637 32.7169 195.178V199H31.3729V191.58H32.6609V193.582L32.4509 193.05C32.6936 192.565 33.0669 192.187 33.5709 191.916C34.0749 191.645 34.6629 191.51 35.3349 191.51ZM47.336 199.084C46.58 199.084 45.9033 198.921 45.306 198.594C44.718 198.267 44.256 197.819 43.92 197.25C43.584 196.681 43.416 196.027 43.416 195.29C43.416 194.553 43.584 193.899 43.92 193.33C44.256 192.761 44.718 192.317 45.306 192C45.9033 191.673 46.58 191.51 47.336 191.51C48.008 191.51 48.6053 191.645 49.128 191.916C49.66 192.177 50.0706 192.569 50.36 193.092L49.338 193.75C49.0953 193.386 48.7966 193.12 48.442 192.952C48.0966 192.775 47.7233 192.686 47.322 192.686C46.8366 192.686 46.4026 192.793 46.02 193.008C45.6373 193.223 45.334 193.526 45.11 193.918C44.886 194.301 44.774 194.758 44.774 195.29C44.774 195.822 44.886 196.284 45.11 196.676C45.334 197.068 45.6373 197.371 46.02 197.586C46.4026 197.801 46.8366 197.908 47.322 197.908C47.7233 197.908 48.0966 197.824 48.442 197.656C48.7966 197.479 49.0953 197.208 49.338 196.844L50.36 197.488C50.0706 198.001 49.66 198.398 49.128 198.678C48.6053 198.949 48.008 199.084 47.336 199.084ZM54.942 199.084C54.3073 199.084 53.7473 198.967 53.262 198.734C52.786 198.501 52.4127 198.146 52.142 197.67C51.8807 197.185 51.75 196.578 51.75 195.85V191.58H53.094V195.696C53.094 196.424 53.2667 196.97 53.612 197.334C53.9667 197.698 54.4613 197.88 55.096 197.88C55.5627 197.88 55.9687 197.787 56.314 197.6C56.6593 197.404 56.9253 197.124 57.112 196.76C57.2987 196.387 57.392 195.939 57.392 195.416V191.58H58.736V199H57.462V196.998L57.672 197.53C57.4293 198.025 57.0653 198.407 56.58 198.678C56.0947 198.949 55.5487 199.084 54.942 199.084ZM61.0146 199V191.58H62.3026V193.596L62.1766 193.092C62.382 192.579 62.7273 192.187 63.2126 191.916C63.698 191.645 64.2953 191.51 65.0046 191.51V192.812C64.9486 192.803 64.8926 192.798 64.8366 192.798C64.79 192.798 64.7433 192.798 64.6966 192.798C63.978 192.798 63.4086 193.013 62.9886 193.442C62.5686 193.871 62.3586 194.492 62.3586 195.304V199H61.0146ZM68.5911 199.084C67.9751 199.084 67.3871 199 66.8271 198.832C66.2765 198.664 65.8425 198.459 65.5251 198.216L66.0851 197.152C66.4025 197.367 66.7945 197.549 67.2611 197.698C67.7278 197.847 68.2038 197.922 68.6891 197.922C69.3145 197.922 69.7625 197.833 70.0331 197.656C70.3131 197.479 70.4531 197.231 70.4531 196.914C70.4531 196.681 70.3691 196.499 70.2011 196.368C70.0331 196.237 69.8091 196.139 69.5291 196.074C69.2585 196.009 68.9551 195.953 68.6191 195.906C68.2831 195.85 67.9471 195.785 67.6111 195.71C67.2751 195.626 66.9671 195.514 66.6871 195.374C66.4071 195.225 66.1831 195.024 66.0151 194.772C65.8471 194.511 65.7631 194.165 65.7631 193.736C65.7631 193.288 65.8891 192.896 66.1411 192.56C66.3931 192.224 66.7478 191.967 67.2051 191.79C67.6718 191.603 68.2225 191.51 68.8571 191.51C69.3425 191.51 69.8325 191.571 70.3271 191.692C70.8311 191.804 71.2418 191.967 71.5591 192.182L70.9851 193.246C70.6491 193.022 70.2991 192.868 69.9351 192.784C69.5711 192.7 69.2071 192.658 68.8431 192.658C68.2551 192.658 67.8165 192.756 67.5271 192.952C67.2378 193.139 67.0931 193.381 67.0931 193.68C67.0931 193.932 67.1771 194.128 67.3451 194.268C67.5225 194.399 67.7465 194.501 68.0171 194.576C68.2971 194.651 68.6051 194.716 68.9411 194.772C69.2771 194.819 69.6131 194.884 69.9491 194.968C70.2851 195.043 70.5885 195.15 70.8591 195.29C71.1391 195.43 71.3631 195.626 71.5311 195.878C71.7085 196.13 71.7971 196.466 71.7971 196.886C71.7971 197.334 71.6665 197.721 71.4051 198.048C71.1438 198.375 70.7751 198.631 70.2991 198.818C69.8231 198.995 69.2538 199.084 68.5911 199.084ZM76.3748 199.084C75.6281 199.084 74.9655 198.921 74.3868 198.594C73.8081 198.267 73.3508 197.819 73.0148 197.25C72.6788 196.671 72.5108 196.018 72.5108 195.29C72.5108 194.553 72.6788 193.899 73.0148 193.33C73.3508 192.761 73.8081 192.317 74.3868 192C74.9655 191.673 75.6281 191.51 76.3748 191.51C77.1121 191.51 77.7701 191.673 78.3488 192C78.9368 192.317 79.3941 192.761 79.7208 193.33C80.0568 193.89 80.2248 194.543 80.2248 195.29C80.2248 196.027 80.0568 196.681 79.7208 197.25C79.3941 197.819 78.9368 198.267 78.3488 198.594C77.7701 198.921 77.1121 199.084 76.3748 199.084ZM76.3748 197.908C76.8508 197.908 77.2755 197.801 77.6488 197.586C78.0315 197.371 78.3301 197.068 78.5448 196.676C78.7595 196.275 78.8668 195.813 78.8668 195.29C78.8668 194.758 78.7595 194.301 78.5448 193.918C78.3301 193.526 78.0315 193.223 77.6488 193.008C77.2755 192.793 76.8508 192.686 76.3748 192.686C75.8988 192.686 75.4741 192.793 75.1008 193.008C74.7275 193.223 74.4288 193.526 74.2048 193.918C73.9808 194.301 73.8688 194.758 73.8688 195.29C73.8688 195.813 73.9808 196.275 74.2048 196.676C74.4288 197.068 74.7275 197.371 75.1008 197.586C75.4741 197.801 75.8988 197.908 76.3748 197.908Z" fill="#7B8AA0"/>
</g>
<path d="M27.384 236.288C26.216 236.288 25.056 236.136 23.904 235.832C22.752 235.512 21.776 235.064 20.976 234.488L22.488 231.512C23.128 231.976 23.872 232.344 24.72 232.616C25.568 232.888 26.424 233.024 27.288 233.024C28.264 233.024 29.032 232.832 29.592 232.448C30.152 232.064 30.432 231.536 30.432 230.864C30.432 230.224 30.184 229.72 29.688 229.352C29.192 228.984 28.392 228.8 27.288 228.8H25.512V226.232L30.192 220.928L30.624 222.32H21.816V219.2H33.576V221.72L28.92 227.024L26.952 225.896H28.08C30.144 225.896 31.704 226.36 32.76 227.288C33.816 228.216 34.344 229.408 34.344 230.864C34.344 231.808 34.096 232.696 33.6 233.528C33.104 234.344 32.344 235.008 31.32 235.52C30.296 236.032 28.984 236.288 27.384 236.288ZM42.0431 218.912C43.5951 218.912 44.9311 219.232 46.0511 219.872C47.1711 220.512 48.0351 221.448 48.6431 222.68C49.2511 223.896 49.5551 225.416 49.5551 227.24C49.5551 229.176 49.1871 230.816 48.4511 232.16C47.7311 233.504 46.7311 234.528 45.4511 235.232C44.1711 235.936 42.6831 236.288 40.9871 236.288C40.1071 236.288 39.2591 236.192 38.4431 236C37.6271 235.808 36.9231 235.52 36.3311 235.136L37.7711 232.28C38.2351 232.6 38.7311 232.824 39.2591 232.952C39.7871 233.064 40.3391 233.12 40.9151 233.12C42.3551 233.12 43.4991 232.68 44.3471 231.8C45.2111 230.92 45.6431 229.616 45.6431 227.888C45.6431 227.6 45.6351 227.28 45.6191 226.928C45.6031 226.576 45.5631 226.224 45.4991 225.872L46.5551 226.88C46.2831 227.504 45.8991 228.032 45.4031 228.464C44.9071 228.88 44.3311 229.2 43.6751 229.424C43.0191 229.632 42.2831 229.736 41.4671 229.736C40.3951 229.736 39.4191 229.52 38.5391 229.088C37.6751 228.656 36.9791 228.048 36.4511 227.264C35.9391 226.48 35.6831 225.56 35.6831 224.504C35.6831 223.352 35.9631 222.36 36.5231 221.528C37.0991 220.696 37.8671 220.056 38.8271 219.608C39.8031 219.144 40.8751 218.912 42.0431 218.912ZM42.2831 221.816C41.7231 221.816 41.2351 221.92 40.8191 222.128C40.4031 222.32 40.0751 222.608 39.8351 222.992C39.5951 223.36 39.4751 223.8 39.4751 224.312C39.4751 225.08 39.7311 225.696 40.2431 226.16C40.7711 226.608 41.4671 226.832 42.3311 226.832C42.8911 226.832 43.3871 226.728 43.8191 226.52C44.2671 226.296 44.6111 225.992 44.8511 225.608C45.0911 225.224 45.2111 224.792 45.2111 224.312C45.2111 223.832 45.0911 223.408 44.8511 223.04C44.6271 222.656 44.2991 222.36 43.8671 222.152C43.4351 221.928 42.9071 221.816 42.2831 221.816Z" fill="#7B8AA0"/>
<path d="M66.9005 225H68.5205V232H66.9005V225ZM63.7205 232H62.1005V225H63.7205V232ZM67.0205 229.13H63.6005V227.76H67.0205V229.13ZM72.6267 232.08C72.0533 232.08 71.5433 231.96 71.0967 231.72C70.6567 231.48 70.3067 231.153 70.0467 230.74C69.7933 230.32 69.6667 229.843 69.6667 229.31C69.6667 228.77 69.7933 228.293 70.0467 227.88C70.3067 227.46 70.6567 227.133 71.0967 226.9C71.5433 226.66 72.0533 226.54 72.6267 226.54C73.1933 226.54 73.7 226.66 74.1467 226.9C74.5933 227.133 74.9433 227.457 75.1967 227.87C75.45 228.283 75.5767 228.763 75.5767 229.31C75.5767 229.843 75.45 230.32 75.1967 230.74C74.9433 231.153 74.5933 231.48 74.1467 231.72C73.7 231.96 73.1933 232.08 72.6267 232.08ZM72.6267 230.8C72.8867 230.8 73.12 230.74 73.3267 230.62C73.5333 230.5 73.6967 230.33 73.8167 230.11C73.9367 229.883 73.9967 229.617 73.9967 229.31C73.9967 228.997 73.9367 228.73 73.8167 228.51C73.6967 228.29 73.5333 228.12 73.3267 228C73.12 227.88 72.8867 227.82 72.6267 227.82C72.3667 227.82 72.1333 227.88 71.9267 228C71.72 228.12 71.5533 228.29 71.4267 228.51C71.3067 228.73 71.2467 228.997 71.2467 229.31C71.2467 229.617 71.3067 229.883 71.4267 230.11C71.5533 230.33 71.72 230.5 71.9267 230.62C72.1333 230.74 72.3667 230.8 72.6267 230.8ZM77.1529 234.02C76.8729 234.02 76.5963 233.977 76.3229 233.89C76.0496 233.803 75.8263 233.683 75.6529 233.53L76.2229 232.42C76.3429 232.527 76.4796 232.61 76.6329 232.67C76.7929 232.73 76.9496 232.76 77.1029 232.76C77.3229 232.76 77.4963 232.707 77.6229 232.6C77.7563 232.5 77.8763 232.33 77.9829 232.09L78.2629 231.43L78.3829 231.26L80.3129 226.62H81.8129L79.3829 232.33C79.2096 232.763 79.0096 233.103 78.7829 233.35C78.5629 233.597 78.3163 233.77 78.0429 233.87C77.7763 233.97 77.4796 234.02 77.1529 234.02ZM78.0729 232.21L75.6729 226.62H77.2829L79.1429 231.12L78.0729 232.21Z" fill="#356AF0"/>
<path d="M34.8103 365.144L2.64477 405.914C2.22714 406.443 2 407.098 2 407.772V450.001C2 455.524 6.47717 460.001 12 460.001H326.949H481.848C483.504 460.001 485 458.658 485 457.001V293.174C485 290.511 481.789 289.169 479.893 291.039L413.066 356.975C412.104 357.924 410.625 358.113 409.455 357.435L360.242 328.907C359.073 328.23 357.595 328.417 356.633 329.365L326.949 358.583L301.648 368.527C301.148 368.724 300.604 368.782 300.074 368.697L263.757 362.858C263.046 362.744 262.317 362.889 261.705 363.268L226.888 384.77C226.414 385.063 225.868 385.218 225.311 385.218H175.148C174.428 385.218 173.732 385.477 173.188 385.947L127.885 425.054C126.542 426.214 124.491 425.96 123.47 424.509L96.7318 386.492C96.17 385.693 95.2545 385.218 94.278 385.218H63.9365C63.216 385.218 62.5195 384.959 61.9744 384.487L39.1277 364.733C37.8343 363.615 35.8693 363.802 34.8103 365.144Z" fill="url(#paint0_linear_4064_37974)"/>
<path d="M4.09668 406.731L36.6782 365.166C37.7376 363.815 39.7132 363.627 41.0086 364.754L63.6769 384.481C64.2229 384.956 64.9224 385.218 65.6463 385.218H95.7634C96.7432 385.218 97.6613 385.697 98.2225 386.5L124.767 424.486C125.788 425.947 127.849 426.201 129.194 425.033L174.172 385.953C174.718 385.479 175.417 385.218 176.14 385.218H225.957C226.517 385.218 227.065 385.061 227.541 384.766L262.116 363.274C262.731 362.892 263.464 362.745 264.179 362.86L300.214 368.692C300.762 368.78 301.325 368.715 301.838 368.503C310.874 364.778 316.246 362.564 325.343 358.813C325.71 358.662 326.046 358.439 326.326 358.158L356.018 328.423C356.99 327.449 358.5 327.261 359.681 327.968L408.887 357.411C410.044 358.104 411.521 357.939 412.498 357.008L483.85 288.983" stroke="#FDA700" stroke-width="1.5" stroke-linecap="round"/>
<g filter="url(#filter2_d_4064_37974)">
<g opacity="0.2" filter="url(#filter3_d_4064_37974)">
<circle cx="47.5" cy="106.5" r="26.5" fill="#FDA700"/>
</g>
<path d="M38.3153 103.636L38.0708 104.345L38.3153 103.636ZM38.3153 108.364L38.0708 107.655L38.3153 108.364ZM57.6847 108.364L57.9292 107.655L57.6847 108.364ZM57.6847 103.636L57.4403 102.927L57.6847 103.636ZM42 97.25C39.3766 97.25 37.25 99.3766 37.25 102H38.75C38.75 100.205 40.2051 98.75 42 98.75V97.25ZM54 97.25H42V98.75H54V97.25ZM58.75 102C58.75 99.3766 56.6234 97.25 54 97.25V98.75C55.7949 98.75 57.25 100.205 57.25 102H58.75ZM58.75 103.223V102H57.25V103.223H58.75ZM56.75 106C56.75 105.234 57.242 104.582 57.9292 104.345L57.4403 102.927C56.1667 103.366 55.25 104.575 55.25 106H56.75ZM57.9292 107.655C57.242 107.418 56.75 106.766 56.75 106H55.25C55.25 107.425 56.1667 108.634 57.4403 109.073L57.9292 107.655ZM58.75 110V108.777H57.25V110H58.75ZM54 114.75C56.6234 114.75 58.75 112.623 58.75 110H57.25C57.25 111.795 55.7949 113.25 54 113.25V114.75ZM42 114.75H54V113.25H42V114.75ZM37.25 110C37.25 112.623 39.3766 114.75 42 114.75V113.25C40.2051 113.25 38.75 111.795 38.75 110H37.25ZM37.25 108.777V110H38.75V108.777H37.25ZM38.5597 109.073C39.8333 108.634 40.75 107.425 40.75 106H39.25C39.25 106.766 38.758 107.418 38.0708 107.655L38.5597 109.073ZM40.75 106C40.75 104.575 39.8333 103.366 38.5597 102.927L38.0708 104.345C38.758 104.582 39.25 105.234 39.25 106H40.75ZM37.25 102V103.223H38.75V102H37.25ZM38.5597 102.927C38.6265 102.95 38.75 103.038 38.75 103.223H37.25C37.25 103.789 37.6443 104.198 38.0708 104.345L38.5597 102.927ZM38.75 108.777C38.75 108.962 38.6265 109.05 38.5597 109.073L38.0708 107.655C37.6443 107.802 37.25 108.211 37.25 108.777H38.75ZM57.4403 109.073C57.3735 109.05 57.25 108.962 57.25 108.777H58.75C58.75 108.211 58.3557 107.802 57.9292 107.655L57.4403 109.073ZM57.25 103.223C57.25 103.038 57.3735 102.95 57.4403 102.927L57.9292 104.345C58.3557 104.198 58.75 103.789 58.75 103.223H57.25Z" fill="#FDA700"/>
<path d="M47.6089 102.491C47.8091 102.24 48.1909 102.24 48.3911 102.491L50.1356 104.681C50.1666 104.72 50.1916 104.764 50.2098 104.81L51.2344 107.416C51.352 107.715 51.161 108.045 50.8433 108.093L48.0742 108.509C48.025 108.516 47.975 108.516 47.9258 108.509L45.1567 108.093C44.839 108.045 44.648 107.715 44.7656 107.416L45.7902 104.81C45.8084 104.764 45.8334 104.72 45.8644 104.681L47.6089 102.491Z" stroke="#FDA700" stroke-width="1.5"/>
</g>
<g filter="url(#filter4_d_4064_37974)">
<g filter="url(#filter5_d_4064_37974)">
<circle cx="150.5" cy="106.5" r="26" stroke="#F95A36" shape-rendering="crispEdges"/>
</g>
<path d="M140.315 103.636L140.071 104.345L140.315 103.636ZM140.315 108.364L140.071 107.655L140.315 108.364ZM159.685 108.364L159.929 107.655L159.685 108.364ZM159.685 103.636L159.44 102.927L159.685 103.636ZM144 97.25C141.377 97.25 139.25 99.3766 139.25 102H140.75C140.75 100.205 142.205 98.75 144 98.75V97.25ZM156 97.25H144V98.75H156V97.25ZM160.75 102C160.75 99.3766 158.623 97.25 156 97.25V98.75C157.795 98.75 159.25 100.205 159.25 102H160.75ZM160.75 103.223V102H159.25V103.223H160.75ZM158.75 106C158.75 105.234 159.242 104.582 159.929 104.345L159.44 102.927C158.167 103.366 157.25 104.575 157.25 106H158.75ZM159.929 107.655C159.242 107.418 158.75 106.766 158.75 106H157.25C157.25 107.425 158.167 108.634 159.44 109.073L159.929 107.655ZM160.75 110V108.777H159.25V110H160.75ZM156 114.75C158.623 114.75 160.75 112.623 160.75 110H159.25C159.25 111.795 157.795 113.25 156 113.25V114.75ZM144 114.75H156V113.25H144V114.75ZM139.25 110C139.25 112.623 141.377 114.75 144 114.75V113.25C142.205 113.25 140.75 111.795 140.75 110H139.25ZM139.25 108.777V110H140.75V108.777H139.25ZM140.56 109.073C141.833 108.634 142.75 107.425 142.75 106H141.25C141.25 106.766 140.758 107.418 140.071 107.655L140.56 109.073ZM142.75 106C142.75 104.575 141.833 103.366 140.56 102.927L140.071 104.345C140.758 104.582 141.25 105.234 141.25 106H142.75ZM139.25 102V103.223H140.75V102H139.25ZM140.56 102.927C140.627 102.95 140.75 103.038 140.75 103.223H139.25C139.25 103.789 139.644 104.198 140.071 104.345L140.56 102.927ZM140.75 108.777C140.75 108.962 140.627 109.05 140.56 109.073L140.071 107.655C139.644 107.802 139.25 108.211 139.25 108.777H140.75ZM159.44 109.073C159.373 109.05 159.25 108.962 159.25 108.777H160.75C160.75 108.211 160.356 107.802 159.929 107.655L159.44 109.073ZM159.25 103.223C159.25 103.038 159.373 102.95 159.44 102.927L159.929 104.345C160.356 104.198 160.75 103.789 160.75 103.223H159.25Z" fill="#F95A36"/>
<path d="M149.857 101V106.143" stroke="#F95A36" stroke-width="2" stroke-linecap="round" stroke-linejoin="round"/>
<path d="M149.857 110.714C150.331 110.714 150.714 110.331 150.714 109.857C150.714 109.384 150.331 109 149.857 109C149.384 109 149 109.384 149 109.857C149 110.331 149.384 110.714 149.857 110.714Z" stroke="#F95A36" stroke-linecap="round" stroke-linejoin="round"/>
</g>
<g filter="url(#filter6_d_4064_37974)">
<circle cx="251.5" cy="106.5" r="26" stroke="#1A7F1C" shape-rendering="crispEdges"/>
</g>
<path d="M241.315 103.636L241.071 104.345L241.315 103.636ZM241.315 108.364L241.071 107.655L241.315 108.364ZM260.685 108.364L260.929 107.655L260.685 108.364ZM260.685 103.636L260.44 102.927L260.685 103.636ZM245 97.25C242.377 97.25 240.25 99.3766 240.25 102H241.75C241.75 100.205 243.205 98.75 245 98.75V97.25ZM257 97.25H245V98.75H257V97.25ZM261.75 102C261.75 99.3766 259.623 97.25 257 97.25V98.75C258.795 98.75 260.25 100.205 260.25 102H261.75ZM261.75 103.223V102H260.25V103.223H261.75ZM259.75 106C259.75 105.234 260.242 104.582 260.929 104.345L260.44 102.927C259.167 103.366 258.25 104.575 258.25 106H259.75ZM260.929 107.655C260.242 107.418 259.75 106.766 259.75 106H258.25C258.25 107.425 259.167 108.634 260.44 109.073L260.929 107.655ZM261.75 110V108.777H260.25V110H261.75ZM257 114.75C259.623 114.75 261.75 112.623 261.75 110H260.25C260.25 111.795 258.795 113.25 257 113.25V114.75ZM245 114.75H257V113.25H245V114.75ZM240.25 110C240.25 112.623 242.377 114.75 245 114.75V113.25C243.205 113.25 241.75 111.795 241.75 110H240.25ZM240.25 108.777V110H241.75V108.777H240.25ZM241.56 109.073C242.833 108.634 243.75 107.425 243.75 106H242.25C242.25 106.766 241.758 107.418 241.071 107.655L241.56 109.073ZM243.75 106C243.75 104.575 242.833 103.366 241.56 102.927L241.071 104.345C241.758 104.582 242.25 105.234 242.25 106H243.75ZM240.25 102V103.223H241.75V102H240.25ZM241.56 102.927C241.627 102.95 241.75 103.038 241.75 103.223H240.25C240.25 103.789 240.644 104.198 241.071 104.345L241.56 102.927ZM241.75 108.777C241.75 108.962 241.627 109.05 241.56 109.073L241.071 107.655C240.644 107.802 240.25 108.211 240.25 108.777H241.75ZM260.44 109.073C260.373 109.05 260.25 108.962 260.25 108.777H261.75C261.75 108.211 261.356 107.802 260.929 107.655L260.44 109.073ZM260.25 103.223C260.25 103.038 260.373 102.95 260.44 102.927L260.929 104.345C261.356 104.198 261.75 103.789 261.75 103.223H260.25Z" fill="#1A7F1C"/>
<path d="M249 106.857L250.464 108.029C250.504 108.061 250.55 108.084 250.599 108.097C250.649 108.109 250.7 108.11 250.75 108.1C250.8 108.091 250.848 108.07 250.89 108.041C250.932 108.011 250.967 107.973 250.993 107.929L253.286 104" stroke="#1A7F1C" stroke-width="1.71429" stroke-linecap="round" stroke-linejoin="round"/>
<g filter="url(#filter7_d_4064_37974)">
<circle cx="352.5" cy="106.5" r="26" stroke="#285CED" shape-rendering="crispEdges"/>
</g>
<path d="M342.315 104.636L342.071 105.345L342.315 104.636ZM342.315 109.364L342.071 108.655L342.315 109.364ZM361.685 109.364L361.929 108.655L361.685 109.364ZM361.685 104.636L361.44 103.927L361.685 104.636ZM346 98.25C343.377 98.25 341.25 100.377 341.25 103H342.75C342.75 101.205 344.205 99.75 346 99.75V98.25ZM358 98.25H346V99.75H358V98.25ZM362.75 103C362.75 100.377 360.623 98.25 358 98.25V99.75C359.795 99.75 361.25 101.205 361.25 103H362.75ZM362.75 104.223V103H361.25V104.223H362.75ZM360.75 107C360.75 106.234 361.242 105.582 361.929 105.345L361.44 103.927C360.167 104.366 359.25 105.575 359.25 107H360.75ZM361.929 108.655C361.242 108.418 360.75 107.766 360.75 107H359.25C359.25 108.425 360.167 109.634 361.44 110.073L361.929 108.655ZM362.75 111V109.777H361.25V111H362.75ZM358 115.75C360.623 115.75 362.75 113.623 362.75 111H361.25C361.25 112.795 359.795 114.25 358 114.25V115.75ZM346 115.75H358V114.25H346V115.75ZM341.25 111C341.25 113.623 343.377 115.75 346 115.75V114.25C344.205 114.25 342.75 112.795 342.75 111H341.25ZM341.25 109.777V111H342.75V109.777H341.25ZM342.56 110.073C343.833 109.634 344.75 108.425 344.75 107H343.25C343.25 107.766 342.758 108.418 342.071 108.655L342.56 110.073ZM344.75 107C344.75 105.575 343.833 104.366 342.56 103.927L342.071 105.345C342.758 105.582 343.25 106.234 343.25 107H344.75ZM341.25 103V104.223H342.75V103H341.25ZM342.56 103.927C342.627 103.95 342.75 104.038 342.75 104.223H341.25C341.25 104.789 341.644 105.198 342.071 105.345L342.56 103.927ZM342.75 109.777C342.75 109.962 342.627 110.05 342.56 110.073L342.071 108.655C341.644 108.802 341.25 109.211 341.25 109.777H342.75ZM361.44 110.073C361.373 110.05 361.25 109.962 361.25 109.777H362.75C362.75 109.211 362.356 108.802 361.929 108.655L361.44 110.073ZM361.25 104.223C361.25 104.038 361.373 103.95 361.44 103.927L361.929 105.345C362.356 105.198 362.75 104.789 362.75 104.223H361.25Z" fill="#285CED"/>
<path d="M353.928 102L353.928 99" stroke="#285CED" stroke-width="1.5" stroke-linecap="round" stroke-linejoin="round"/>
<path d="M353.928 108.5L353.928 105.5" stroke="#285CED" stroke-width="1.5" stroke-linecap="round" stroke-linejoin="round"/>
<path d="M353.928 115L353.928 112" stroke="#285CED" stroke-width="1.5" stroke-linecap="round" stroke-linejoin="round"/>
<defs>
<filter id="filter0_d_4064_37974" x="0" y="0" width="489" height="468" filterUnits="userSpaceOnUse" color-interpolation-filters="sRGB">
<feFlood flood-opacity="0" result="BackgroundImageFix"/>
<feColorMatrix in="SourceAlpha" type="matrix" values="0 0 0 0 0 0 0 0 0 0 0 0 0 0 0 0 0 0 127 0" result="hardAlpha"/>
<feOffset dy="4"/>
<feGaussianBlur stdDeviation="2"/>
<feComposite in2="hardAlpha" operator="out"/>
<feColorMatrix type="matrix" values="0 0 0 0 0 0 0 0 0 0 0 0 0 0 0 0 0 0 0.25 0"/>
<feBlend mode="normal" in2="BackgroundImageFix" result="effect1_dropShadow_4064_37974"/>
<feBlend mode="normal" in="SourceGraphic" in2="effect1_dropShadow_4064_37974" result="shape"/>
</filter>
<filter id="filter1_d_4064_37974" x="18.47" y="189.2" width="65.7549" height="17.8838" filterUnits="userSpaceOnUse" color-interpolation-filters="sRGB">
<feFlood flood-opacity="0" result="BackgroundImageFix"/>
<feColorMatrix in="SourceAlpha" type="matrix" values="0 0 0 0 0 0 0 0 0 0 0 0 0 0 0 0 0 0 127 0" result="hardAlpha"/>
<feOffset dy="4"/>
<feGaussianBlur stdDeviation="2"/>
<feComposite in2="hardAlpha" operator="out"/>
<feColorMatrix type="matrix" values="0 0 0 0 0 0 0 0 0 0 0 0 0 0 0 0 0 0 0.25 0"/>
<feBlend mode="normal" in2="BackgroundImageFix" result="effect1_dropShadow_4064_37974"/>
<feBlend mode="normal" in="SourceGraphic" in2="effect1_dropShadow_4064_37974" result="shape"/>
</filter>
<filter id="filter2_d_4064_37974" x="17" y="80" width="61" height="61" filterUnits="userSpaceOnUse" color-interpolation-filters="sRGB">
<feFlood flood-opacity="0" result="BackgroundImageFix"/>
<feColorMatrix in="SourceAlpha" type="matrix" values="0 0 0 0 0 0 0 0 0 0 0 0 0 0 0 0 0 0 127 0" result="hardAlpha"/>
<feOffset dy="4"/>
<feGaussianBlur stdDeviation="2"/>
<feComposite in2="hardAlpha" operator="out"/>
<feColorMatrix type="matrix" values="0 0 0 0 0 0 0 0 0 0 0 0 0 0 0 0 0 0 0.08 0"/>
<feBlend mode="normal" in2="BackgroundImageFix" result="effect1_dropShadow_4064_37974"/>
<feBlend mode="normal" in="SourceGraphic" in2="effect1_dropShadow_4064_37974" result="shape"/>
</filter>
<filter id="filter3_d_4064_37974" x="17" y="80" width="61" height="61" filterUnits="userSpaceOnUse" color-interpolation-filters="sRGB">
<feFlood flood-opacity="0" result="BackgroundImageFix"/>
<feColorMatrix in="SourceAlpha" type="matrix" values="0 0 0 0 0 0 0 0 0 0 0 0 0 0 0 0 0 0 127 0" result="hardAlpha"/>
<feOffset dy="4"/>
<feGaussianBlur stdDeviation="2"/>
<feComposite in2="hardAlpha" operator="out"/>
<feColorMatrix type="matrix" values="0 0 0 0 0 0 0 0 0 0 0 0 0 0 0 0 0 0 0.25 0"/>
<feBlend mode="normal" in2="BackgroundImageFix" result="effect1_dropShadow_4064_37974"/>
<feBlend mode="normal" in="SourceGraphic" in2="effect1_dropShadow_4064_37974" result="shape"/>
</filter>
<filter id="filter4_d_4064_37974" x="120" y="80" width="61" height="61" filterUnits="userSpaceOnUse" color-interpolation-filters="sRGB">
<feFlood flood-opacity="0" result="BackgroundImageFix"/>
<feColorMatrix in="SourceAlpha" type="matrix" values="0 0 0 0 0 0 0 0 0 0 0 0 0 0 0 0 0 0 127 0" result="hardAlpha"/>
<feOffset dy="4"/>
<feGaussianBlur stdDeviation="2"/>
<feComposite in2="hardAlpha" operator="out"/>
<feColorMatrix type="matrix" values="0 0 0 0 0 0 0 0 0 0 0 0 0 0 0 0 0 0 0.25 0"/>
<feBlend mode="normal" in2="BackgroundImageFix" result="effect1_dropShadow_4064_37974"/>
<feBlend mode="normal" in="SourceGraphic" in2="effect1_dropShadow_4064_37974" result="shape"/>
</filter>
<filter id="filter5_d_4064_37974" x="120" y="80" width="61" height="61" filterUnits="userSpaceOnUse" color-interpolation-filters="sRGB">
<feFlood flood-opacity="0" result="BackgroundImageFix"/>
<feColorMatrix in="SourceAlpha" type="matrix" values="0 0 0 0 0 0 0 0 0 0 0 0 0 0 0 0 0 0 127 0" result="hardAlpha"/>
<feOffset dy="4"/>
<feGaussianBlur stdDeviation="2"/>
<feComposite in2="hardAlpha" operator="out"/>
<feColorMatrix type="matrix" values="0 0 0 0 0 0 0 0 0 0 0 0 0 0 0 0 0 0 0.25 0"/>
<feBlend mode="normal" in2="BackgroundImageFix" result="effect1_dropShadow_4064_37974"/>
<feBlend mode="normal" in="SourceGraphic" in2="effect1_dropShadow_4064_37974" result="shape"/>
</filter>
<filter id="filter6_d_4064_37974" x="221" y="80" width="61" height="61" filterUnits="userSpaceOnUse" color-interpolation-filters="sRGB">
<feFlood flood-opacity="0" result="BackgroundImageFix"/>
<feColorMatrix in="SourceAlpha" type="matrix" values="0 0 0 0 0 0 0 0 0 0 0 0 0 0 0 0 0 0 127 0" result="hardAlpha"/>
<feOffset dy="4"/>
<feGaussianBlur stdDeviation="2"/>
<feComposite in2="hardAlpha" operator="out"/>
<feColorMatrix type="matrix" values="0 0 0 0 0 0 0 0 0 0 0 0 0 0 0 0 0 0 0.25 0"/>
<feBlend mode="normal" in2="BackgroundImageFix" result="effect1_dropShadow_4064_37974"/>
<feBlend mode="normal" in="SourceGraphic" in2="effect1_dropShadow_4064_37974" result="shape"/>
</filter>
<filter id="filter7_d_4064_37974" x="322" y="80" width="61" height="61" filterUnits="userSpaceOnUse" color-interpolation-filters="sRGB">
<feFlood flood-opacity="0" result="BackgroundImageFix"/>
<feColorMatrix in="SourceAlpha" type="matrix" values="0 0 0 0 0 0 0 0 0 0 0 0 0 0 0 0 0 0 127 0" result="hardAlpha"/>
<feOffset dy="4"/>
<feGaussianBlur stdDeviation="2"/>
<feComposite in2="hardAlpha" operator="out"/>
<feColorMatrix type="matrix" values="0 0 0 0 0 0 0 0 0 0 0 0 0 0 0 0 0 0 0.25 0"/>
<feBlend mode="normal" in2="BackgroundImageFix" result="effect1_dropShadow_4064_37974"/>
<feBlend mode="normal" in="SourceGraphic" in2="effect1_dropShadow_4064_37974" result="shape"/>
</filter>
<linearGradient id="paint0_linear_4064_37974" x1="612.65" y1="204.468" x2="614.369" y2="459.993" gradientUnits="userSpaceOnUse">
<stop/>
<stop offset="1" stop-color="#FDA700" stop-opacity="0.1"/>
</linearGradient>
</defs>
</svg>
