<svg width="489" height="468" viewBox="0 0 489 468" fill="none" xmlns="http://www.w3.org/2000/svg">
<g filter="url(#filter0_d_6120_95351)">
<rect x="4" width="481" height="460" rx="10" fill="#212238"/>
<rect x="4.5" y="0.5" width="480" height="459" rx="9.5" stroke="#354A5E"/>
</g>
<path d="M31.736 28.16C30.8613 28.16 30.056 28.0213 29.32 27.744C28.5947 27.456 27.96 27.056 27.416 26.544C26.872 26.0213 26.4507 25.408 26.152 24.704C25.8533 24 25.704 23.232 25.704 22.4C25.704 21.568 25.8533 20.8 26.152 20.096C26.4507 19.392 26.872 18.784 27.416 18.272C27.9707 17.7493 28.616 17.3493 29.352 17.072C30.088 16.784 30.8933 16.64 31.768 16.64C32.7173 16.64 33.5707 16.7947 34.328 17.104C35.096 17.4133 35.7413 17.8667 36.264 18.464L34.952 19.744C34.5147 19.3067 34.04 18.9867 33.528 18.784C33.0267 18.5707 32.472 18.464 31.864 18.464C31.2773 18.464 30.7333 18.56 30.232 18.752C29.7307 18.944 29.2987 19.216 28.936 19.568C28.5733 19.92 28.2907 20.336 28.088 20.816C27.896 21.296 27.8 21.824 27.8 22.4C27.8 22.9653 27.896 23.488 28.088 23.968C28.2907 24.448 28.5733 24.8693 28.936 25.232C29.2987 25.584 29.7253 25.856 30.216 26.048C30.7067 26.24 31.2507 26.336 31.848 26.336C32.4027 26.336 32.936 26.2507 33.448 26.08C33.9707 25.8987 34.4667 25.6 34.936 25.184L36.12 26.736C35.5333 27.2053 34.8507 27.5627 34.072 27.808C33.304 28.0427 32.5253 28.16 31.736 28.16ZM34.152 26.464V22.272H36.12V26.736L34.152 26.464ZM38.6714 28V19.456H40.5754V21.808L40.3514 21.12C40.6074 20.544 41.0074 20.1067 41.5514 19.808C42.106 19.5093 42.794 19.36 43.6154 19.36V21.264C43.53 21.2427 43.45 21.232 43.3754 21.232C43.3007 21.2213 43.226 21.216 43.1514 21.216C42.394 21.216 41.7914 21.44 41.3434 21.888C40.8954 22.3253 40.6714 22.9813 40.6714 23.856V28H38.6714ZM49.9666 28V26.272L49.8546 25.904V22.88C49.8546 22.2933 49.6786 21.84 49.3266 21.52C48.9746 21.1893 48.4413 21.024 47.7266 21.024C47.2466 21.024 46.772 21.0987 46.3026 21.248C45.844 21.3973 45.4546 21.6053 45.1346 21.872L44.3506 20.416C44.8093 20.064 45.3533 19.8027 45.9826 19.632C46.6226 19.4507 47.284 19.36 47.9666 19.36C49.204 19.36 50.1586 19.6587 50.8306 20.256C51.5133 20.8427 51.8546 21.7547 51.8546 22.992V28H49.9666ZM47.2786 28.112C46.6386 28.112 46.0786 28.0053 45.5986 27.792C45.1186 27.568 44.7453 27.264 44.4786 26.88C44.2226 26.4853 44.0946 26.0427 44.0946 25.552C44.0946 25.072 44.2066 24.64 44.4306 24.256C44.6653 23.872 45.044 23.568 45.5666 23.344C46.0893 23.12 46.7826 23.008 47.6466 23.008H50.1266V24.336H47.7906C47.108 24.336 46.6493 24.448 46.4146 24.672C46.18 24.8853 46.0626 25.152 46.0626 25.472C46.0626 25.8347 46.2066 26.1227 46.4946 26.336C46.7826 26.5493 47.1826 26.656 47.6946 26.656C48.1853 26.656 48.6226 26.544 49.0066 26.32C49.4013 26.096 49.684 25.7653 49.8546 25.328L50.1906 26.528C49.9986 27.0293 49.652 27.4187 49.1506 27.696C48.66 27.9733 48.036 28.112 47.2786 28.112ZM46.7986 18.288L48.9586 16.096H51.3106L48.5266 18.288H46.7986ZM54.6934 28V18.976C54.6934 18.08 54.9547 17.3653 55.4774 16.832C56.0107 16.288 56.768 16.016 57.7494 16.016C58.1014 16.016 58.432 16.0533 58.7414 16.128C59.0614 16.2027 59.328 16.32 59.5414 16.48L58.9974 17.984C58.848 17.8667 58.6774 17.7813 58.4854 17.728C58.2934 17.664 58.096 17.632 57.8934 17.632C57.4774 17.632 57.1627 17.7493 56.9494 17.984C56.736 18.208 56.6294 18.5493 56.6294 19.008V19.968L56.6934 20.864V28H54.6934ZM53.2854 21.12V19.52H58.9814V21.12H53.2854ZM60.3745 28V19.456H62.3745V28H60.3745ZM61.3825 18.048C61.0092 18.048 60.6998 17.9307 60.4545 17.696C60.2198 17.4613 60.1025 17.1787 60.1025 16.848C60.1025 16.5067 60.2198 16.224 60.4545 16C60.6998 15.7653 61.0092 15.648 61.3825 15.648C61.7558 15.648 62.0598 15.76 62.2945 15.984C62.5398 16.1973 62.6625 16.4693 62.6625 16.8C62.6625 17.152 62.5452 17.4507 62.3105 17.696C62.0758 17.9307 61.7665 18.048 61.3825 18.048ZM68.9195 28.112C68.0235 28.112 67.2235 27.9253 66.5195 27.552C65.8262 27.168 65.2822 26.6453 64.8875 25.984C64.4928 25.3227 64.2955 24.5707 64.2955 23.728C64.2955 22.8747 64.4928 22.1227 64.8875 21.472C65.2822 20.8107 65.8262 20.2933 66.5195 19.92C67.2235 19.5467 68.0235 19.36 68.9195 19.36C69.7515 19.36 70.4822 19.5307 71.1115 19.872C71.7515 20.2027 72.2368 20.6933 72.5675 21.344L71.0315 22.24C70.7755 21.8347 70.4608 21.536 70.0875 21.344C69.7248 21.152 69.3302 21.056 68.9035 21.056C68.4128 21.056 67.9702 21.1627 67.5755 21.376C67.1808 21.5893 66.8715 21.8987 66.6475 22.304C66.4235 22.6987 66.3115 23.1733 66.3115 23.728C66.3115 24.2827 66.4235 24.7627 66.6475 25.168C66.8715 25.5627 67.1808 25.8667 67.5755 26.08C67.9702 26.2933 68.4128 26.4 68.9035 26.4C69.3302 26.4 69.7248 26.304 70.0875 26.112C70.4608 25.92 70.7755 25.6213 71.0315 25.216L72.5675 26.112C72.2368 26.752 71.7515 27.248 71.1115 27.6C70.4822 27.9413 69.7515 28.112 68.9195 28.112ZM78.0114 28.112C77.1367 28.112 76.358 27.9253 75.6754 27.552C74.9927 27.168 74.454 26.6453 74.0594 25.984C73.6647 25.3227 73.4674 24.5707 73.4674 23.728C73.4674 22.8747 73.6647 22.1227 74.0594 21.472C74.454 20.8107 74.9927 20.2933 75.6754 19.92C76.358 19.5467 77.1367 19.36 78.0114 19.36C78.8967 19.36 79.6807 19.5467 80.3634 19.92C81.0567 20.2933 81.5954 20.8053 81.9794 21.456C82.374 22.1067 82.5714 22.864 82.5714 23.728C82.5714 24.5707 82.374 25.3227 81.9794 25.984C81.5954 26.6453 81.0567 27.168 80.3634 27.552C79.6807 27.9253 78.8967 28.112 78.0114 28.112ZM78.0114 26.4C78.502 26.4 78.9394 26.2933 79.3234 26.08C79.7074 25.8667 80.006 25.5573 80.2194 25.152C80.4434 24.7467 80.5554 24.272 80.5554 23.728C80.5554 23.1733 80.4434 22.6987 80.2194 22.304C80.006 21.8987 79.7074 21.5893 79.3234 21.376C78.9394 21.1627 78.5074 21.056 78.0274 21.056C77.5367 21.056 77.0994 21.1627 76.7154 21.376C76.342 21.5893 76.0434 21.8987 75.8194 22.304C75.5954 22.6987 75.4834 23.1733 75.4834 23.728C75.4834 24.272 75.5954 24.7467 75.8194 25.152C76.0434 25.5573 76.342 25.8667 76.7154 26.08C77.0994 26.2933 77.5314 26.4 78.0114 26.4ZM92.5218 28.112C91.7004 28.112 90.9591 27.9307 90.2978 27.568C89.6471 27.1947 89.1351 26.6827 88.7618 26.032C88.3884 25.3813 88.2018 24.6133 88.2018 23.728C88.2018 22.8427 88.3884 22.0747 88.7618 21.424C89.1351 20.7733 89.6471 20.2667 90.2978 19.904C90.9591 19.5413 91.7004 19.36 92.5218 19.36C93.2364 19.36 93.8764 19.52 94.4418 19.84C95.0071 20.1493 95.4551 20.624 95.7858 21.264C96.1164 21.904 96.2818 22.7253 96.2818 23.728C96.2818 24.72 96.1218 25.5413 95.8018 26.192C95.4818 26.832 95.0391 27.312 94.4738 27.632C93.9084 27.952 93.2578 28.112 92.5218 28.112ZM92.7618 26.4C93.2418 26.4 93.6684 26.2933 94.0418 26.08C94.4258 25.8667 94.7298 25.5573 94.9538 25.152C95.1884 24.7467 95.3058 24.272 95.3058 23.728C95.3058 23.1733 95.1884 22.6987 94.9538 22.304C94.7298 21.8987 94.4258 21.5893 94.0418 21.376C93.6684 21.1627 93.2418 21.056 92.7618 21.056C92.2818 21.056 91.8498 21.1627 91.4658 21.376C91.0924 21.5893 90.7884 21.8987 90.5538 22.304C90.3298 22.6987 90.2178 23.1733 90.2178 23.728C90.2178 24.272 90.3298 24.7467 90.5538 25.152C90.7884 25.5573 91.0924 25.8667 91.4658 26.08C91.8498 26.2933 92.2818 26.4 92.7618 26.4ZM95.3538 28V25.984L95.4338 23.712L95.2738 21.44V16.128H97.2578V28H95.3538ZM103.906 28.112C102.957 28.112 102.125 27.9253 101.41 27.552C100.706 27.168 100.157 26.6453 99.7621 25.984C99.3781 25.3227 99.1861 24.5707 99.1861 23.728C99.1861 22.8747 99.3728 22.1227 99.7461 21.472C100.13 20.8107 100.653 20.2933 101.314 19.92C101.986 19.5467 102.749 19.36 103.602 19.36C104.434 19.36 105.175 19.5413 105.826 19.904C106.477 20.2667 106.989 20.7787 107.362 21.44C107.735 22.1013 107.922 22.88 107.922 23.776C107.922 23.8613 107.917 23.9573 107.906 24.064C107.906 24.1707 107.901 24.272 107.89 24.368H100.77V23.04H106.834L106.05 23.456C106.061 22.9653 105.959 22.5333 105.746 22.16C105.533 21.7867 105.239 21.4933 104.866 21.28C104.503 21.0667 104.082 20.96 103.602 20.96C103.111 20.96 102.679 21.0667 102.306 21.28C101.943 21.4933 101.655 21.792 101.442 22.176C101.239 22.5493 101.138 22.992 101.138 23.504V23.824C101.138 24.336 101.255 24.7893 101.49 25.184C101.725 25.5787 102.055 25.8827 102.482 26.096C102.909 26.3093 103.399 26.416 103.954 26.416C104.434 26.416 104.866 26.3413 105.25 26.192C105.634 26.0427 105.975 25.808 106.274 25.488L107.346 26.72C106.962 27.168 106.477 27.5147 105.89 27.76C105.314 27.9947 104.653 28.112 103.906 28.112ZM119.001 28.112C118.276 28.112 117.63 27.952 117.065 27.632C116.5 27.312 116.052 26.832 115.721 26.192C115.401 25.5413 115.241 24.72 115.241 23.728C115.241 22.7253 115.406 21.904 115.737 21.264C116.078 20.624 116.532 20.1493 117.097 19.84C117.673 19.52 118.308 19.36 119.001 19.36C119.844 19.36 120.585 19.5413 121.225 19.904C121.876 20.2667 122.388 20.7733 122.761 21.424C123.145 22.0747 123.337 22.8427 123.337 23.728C123.337 24.6133 123.145 25.3813 122.761 26.032C122.388 26.6827 121.876 27.1947 121.225 27.568C120.585 27.9307 119.844 28.112 119.001 28.112ZM114.265 28V16.128H116.265V21.44L116.105 23.712L116.169 25.984V28H114.265ZM118.777 26.4C119.257 26.4 119.684 26.2933 120.057 26.08C120.441 25.8667 120.745 25.5573 120.969 25.152C121.193 24.7467 121.305 24.272 121.305 23.728C121.305 23.1733 121.193 22.6987 120.969 22.304C120.745 21.8987 120.441 21.5893 120.057 21.376C119.684 21.1627 119.257 21.056 118.777 21.056C118.297 21.056 117.865 21.1627 117.481 21.376C117.097 21.5893 116.793 21.8987 116.569 22.304C116.345 22.6987 116.233 23.1733 116.233 23.728C116.233 24.272 116.345 24.7467 116.569 25.152C116.793 25.5573 117.097 25.8667 117.481 26.08C117.865 26.2933 118.297 26.4 118.777 26.4ZM130.389 28V26.272L130.277 25.904V22.88C130.277 22.2933 130.101 21.84 129.749 21.52C129.397 21.1893 128.863 21.024 128.149 21.024C127.669 21.024 127.194 21.0987 126.725 21.248C126.266 21.3973 125.877 21.6053 125.557 21.872L124.773 20.416C125.231 20.064 125.775 19.8027 126.405 19.632C127.045 19.4507 127.706 19.36 128.389 19.36C129.626 19.36 130.581 19.6587 131.253 20.256C131.935 20.8427 132.277 21.7547 132.277 22.992V28H130.389ZM127.701 28.112C127.061 28.112 126.501 28.0053 126.021 27.792C125.541 27.568 125.167 27.264 124.901 26.88C124.645 26.4853 124.517 26.0427 124.517 25.552C124.517 25.072 124.629 24.64 124.853 24.256C125.087 23.872 125.466 23.568 125.989 23.344C126.511 23.12 127.205 23.008 128.069 23.008H130.549V24.336H128.213C127.53 24.336 127.071 24.448 126.837 24.672C126.602 24.8853 126.485 25.152 126.485 25.472C126.485 25.8347 126.629 26.1227 126.917 26.336C127.205 26.5493 127.605 26.656 128.117 26.656C128.607 26.656 129.045 26.544 129.429 26.32C129.823 26.096 130.106 25.7653 130.277 25.328L130.613 26.528C130.421 27.0293 130.074 27.4187 129.573 27.696C129.082 27.9733 128.458 28.112 127.701 28.112ZM134.843 28V19.456H136.747V21.808L136.523 21.12C136.779 20.544 137.179 20.1067 137.723 19.808C138.278 19.5093 138.966 19.36 139.787 19.36V21.264C139.702 21.2427 139.622 21.232 139.547 21.232C139.473 21.2213 139.398 21.216 139.323 21.216C138.566 21.216 137.963 21.44 137.515 21.888C137.067 22.3253 136.843 22.9813 136.843 23.856V28H134.843ZM141.484 28V19.456H143.388V21.808L143.164 21.12C143.42 20.544 143.82 20.1067 144.364 19.808C144.919 19.5093 145.607 19.36 146.428 19.36V21.264C146.343 21.2427 146.263 21.232 146.188 21.232C146.113 21.2213 146.039 21.216 145.964 21.216C145.207 21.216 144.604 21.44 144.156 21.888C143.708 22.3253 143.484 22.9813 143.484 23.856V28H141.484ZM152.779 28V26.272L152.667 25.904V22.88C152.667 22.2933 152.491 21.84 152.139 21.52C151.787 21.1893 151.254 21.024 150.539 21.024C150.059 21.024 149.584 21.0987 149.115 21.248C148.656 21.3973 148.267 21.6053 147.947 21.872L147.163 20.416C147.622 20.064 148.166 19.8027 148.795 19.632C149.435 19.4507 150.096 19.36 150.779 19.36C152.016 19.36 152.971 19.6587 153.643 20.256C154.326 20.8427 154.667 21.7547 154.667 22.992V28H152.779ZM150.091 28.112C149.451 28.112 148.891 28.0053 148.411 27.792C147.931 27.568 147.558 27.264 147.291 26.88C147.035 26.4853 146.907 26.0427 146.907 25.552C146.907 25.072 147.019 24.64 147.243 24.256C147.478 23.872 147.856 23.568 148.379 23.344C148.902 23.12 149.595 23.008 150.459 23.008H152.939V24.336H150.603C149.92 24.336 149.462 24.448 149.227 24.672C148.992 24.8853 148.875 25.152 148.875 25.472C148.875 25.8347 149.019 26.1227 149.307 26.336C149.595 26.5493 149.995 26.656 150.507 26.656C150.998 26.656 151.435 26.544 151.819 26.32C152.214 26.096 152.496 25.7653 152.667 25.328L153.003 26.528C152.811 27.0293 152.464 27.4187 151.963 27.696C151.472 27.9733 150.848 28.112 150.091 28.112ZM159.874 28.112C159.159 28.112 158.471 28.0213 157.81 27.84C157.159 27.648 156.642 27.4187 156.258 27.152L157.026 25.632C157.41 25.8773 157.869 26.08 158.402 26.24C158.935 26.4 159.469 26.48 160.002 26.48C160.631 26.48 161.085 26.3947 161.362 26.224C161.65 26.0533 161.794 25.824 161.794 25.536C161.794 25.3013 161.698 25.1253 161.506 25.008C161.314 24.88 161.063 24.784 160.754 24.72C160.445 24.656 160.098 24.5973 159.714 24.544C159.341 24.4907 158.962 24.4213 158.578 24.336C158.205 24.24 157.863 24.1067 157.554 23.936C157.245 23.7547 156.994 23.5147 156.802 23.216C156.61 22.9173 156.514 22.5227 156.514 22.032C156.514 21.488 156.669 21.0187 156.978 20.624C157.287 20.2187 157.719 19.9093 158.274 19.696C158.839 19.472 159.506 19.36 160.274 19.36C160.85 19.36 161.431 19.424 162.018 19.552C162.605 19.68 163.09 19.8613 163.474 20.096L162.706 21.616C162.301 21.3707 161.89 21.2053 161.474 21.12C161.069 21.024 160.663 20.976 160.258 20.976C159.65 20.976 159.197 21.0667 158.898 21.248C158.61 21.4293 158.466 21.6587 158.466 21.936C158.466 22.192 158.562 22.384 158.754 22.512C158.946 22.64 159.197 22.7413 159.506 22.816C159.815 22.8907 160.157 22.9547 160.53 23.008C160.914 23.0507 161.293 23.12 161.666 23.216C162.039 23.312 162.381 23.4453 162.69 23.616C163.01 23.776 163.266 24.0053 163.458 24.304C163.65 24.6027 163.746 24.992 163.746 25.472C163.746 26.0053 163.586 26.4693 163.266 26.864C162.957 27.2587 162.514 27.568 161.938 27.792C161.362 28.0053 160.674 28.112 159.874 28.112Z" fill="#D0D0CE"/>
<path d="M61.0177 313.961H455" stroke="#8F92A1" stroke-opacity="0.1"/>
<path d="M61.0177 184.809H455" stroke="#8F92A1" stroke-opacity="0.1"/>
<path d="M61.0177 122H455" stroke="#8F92A1" stroke-opacity="0.1"/>
<path d="M61.0177 249.387H455" stroke="#8F92A1" stroke-opacity="0.1"/>
<path d="M61.0177 352H455" stroke="#8F92A1"/>
<path d="M62.7266 366V359.97L63.0146 360.276H61.2416V359.7H63.3746V366H62.7266ZM70.0711 361.23C70.4551 361.23 70.7911 361.305 71.0791 361.455C71.3731 361.599 71.6011 361.821 71.7631 362.121C71.9311 362.421 72.0151 362.799 72.0151 363.255V366H71.3761V363.318C71.3761 362.82 71.2501 362.445 70.9981 362.193C70.7521 361.935 70.4041 361.806 69.9541 361.806C69.6181 361.806 69.3241 361.875 69.0721 362.013C68.8261 362.145 68.6341 362.34 68.4961 362.598C68.3641 362.85 68.2981 363.156 68.2981 363.516V366H67.6591V359.322H68.2981V362.571L68.1721 362.328C68.3221 361.986 68.5621 361.719 68.8921 361.527C69.2221 361.329 69.6151 361.23 70.0711 361.23ZM73.7411 366V361.275H74.3531V362.562L74.2901 362.337C74.4221 361.977 74.6441 361.704 74.9561 361.518C75.2681 361.326 75.6551 361.23 76.1171 361.23V361.851C76.0931 361.851 76.0691 361.851 76.0451 361.851C76.0211 361.845 75.9971 361.842 75.9731 361.842C75.4751 361.842 75.0851 361.995 74.8031 362.301C74.5211 362.601 74.3801 363.03 74.3801 363.588V366H73.7411ZM78.6048 366.045C78.2148 366.045 77.8458 365.991 77.4978 365.883C77.1498 365.769 76.8768 365.628 76.6788 365.46L76.9668 364.956C77.1588 365.1 77.4048 365.226 77.7048 365.334C78.0048 365.436 78.3198 365.487 78.6498 365.487C79.0998 365.487 79.4238 365.418 79.6218 365.28C79.8198 365.136 79.9188 364.947 79.9188 364.713C79.9188 364.539 79.8618 364.404 79.7478 364.308C79.6398 364.206 79.4958 364.131 79.3158 364.083C79.1358 364.029 78.9348 363.984 78.7128 363.948C78.4908 363.912 78.2688 363.87 78.0468 363.822C77.8308 363.774 77.6328 363.705 77.4528 363.615C77.2728 363.519 77.1258 363.39 77.0118 363.228C76.9038 363.066 76.8498 362.85 76.8498 362.58C76.8498 362.322 76.9218 362.091 77.0658 361.887C77.2098 361.683 77.4198 361.524 77.6958 361.41C77.9778 361.29 78.3198 361.23 78.7218 361.23C79.0278 361.23 79.3338 361.272 79.6398 361.356C79.9458 361.434 80.1978 361.539 80.3958 361.671L80.1168 362.184C79.9068 362.04 79.6818 361.938 79.4418 361.878C79.2018 361.812 78.9618 361.779 78.7218 361.779C78.2958 361.779 77.9808 361.854 77.7768 362.004C77.5788 362.148 77.4798 362.334 77.4798 362.562C77.4798 362.742 77.5338 362.883 77.6418 362.985C77.7558 363.087 77.9028 363.168 78.0828 363.228C78.2688 363.282 78.4698 363.327 78.6858 363.363C78.9078 363.399 79.1268 363.444 79.3428 363.498C79.5648 363.546 79.7658 363.615 79.9458 363.705C80.1318 363.789 80.2788 363.912 80.3868 364.074C80.5008 364.23 80.5578 364.437 80.5578 364.695C80.5578 364.971 80.4798 365.211 80.3238 365.415C80.1738 365.613 79.9518 365.769 79.6578 365.883C79.3698 365.991 79.0188 366.045 78.6048 366.045Z" fill="#697181"/>
<path d="M96.5196 366V365.541L99.1386 362.976C99.3786 362.742 99.5586 362.538 99.6786 362.364C99.7986 362.184 99.8796 362.016 99.9216 361.86C99.9636 361.704 99.9846 361.557 99.9846 361.419C99.9846 361.053 99.8586 360.765 99.6066 360.555C99.3606 360.345 98.9946 360.24 98.5086 360.24C98.1366 360.24 97.8066 360.297 97.5186 360.411C97.2366 360.525 96.9936 360.702 96.7896 360.942L96.3306 360.546C96.5766 360.258 96.8916 360.036 97.2756 359.88C97.6596 359.724 98.0886 359.646 98.5626 359.646C98.9886 359.646 99.3576 359.715 99.6696 359.853C99.9816 359.985 100.222 360.18 100.39 360.438C100.564 360.696 100.651 360.999 100.651 361.347C100.651 361.551 100.621 361.752 100.561 361.95C100.507 362.148 100.405 362.358 100.255 362.58C100.111 362.796 99.8976 363.042 99.6156 363.318L97.2126 365.676L97.0326 365.424H100.939V366H96.5196ZM106.942 361.23C107.326 361.23 107.662 361.305 107.95 361.455C108.244 361.599 108.472 361.821 108.634 362.121C108.802 362.421 108.886 362.799 108.886 363.255V366H108.247V363.318C108.247 362.82 108.121 362.445 107.869 362.193C107.623 361.935 107.275 361.806 106.825 361.806C106.489 361.806 106.195 361.875 105.943 362.013C105.697 362.145 105.505 362.34 105.367 362.598C105.235 362.85 105.169 363.156 105.169 363.516V366H104.53V359.322H105.169V362.571L105.043 362.328C105.193 361.986 105.433 361.719 105.763 361.527C106.093 361.329 106.486 361.23 106.942 361.23ZM110.612 366V361.275H111.224V362.562L111.161 362.337C111.293 361.977 111.515 361.704 111.827 361.518C112.139 361.326 112.526 361.23 112.988 361.23V361.851C112.964 361.851 112.94 361.851 112.916 361.851C112.892 361.845 112.868 361.842 112.844 361.842C112.346 361.842 111.956 361.995 111.674 362.301C111.392 362.601 111.251 363.03 111.251 363.588V366H110.612ZM115.476 366.045C115.086 366.045 114.717 365.991 114.369 365.883C114.021 365.769 113.748 365.628 113.55 365.46L113.838 364.956C114.03 365.1 114.276 365.226 114.576 365.334C114.876 365.436 115.191 365.487 115.521 365.487C115.971 365.487 116.295 365.418 116.493 365.28C116.691 365.136 116.79 364.947 116.79 364.713C116.79 364.539 116.733 364.404 116.619 364.308C116.511 364.206 116.367 364.131 116.187 364.083C116.007 364.029 115.806 363.984 115.584 363.948C115.362 363.912 115.14 363.87 114.918 363.822C114.702 363.774 114.504 363.705 114.324 363.615C114.144 363.519 113.997 363.39 113.883 363.228C113.775 363.066 113.721 362.85 113.721 362.58C113.721 362.322 113.793 362.091 113.937 361.887C114.081 361.683 114.291 361.524 114.567 361.41C114.849 361.29 115.191 361.23 115.593 361.23C115.899 361.23 116.205 361.272 116.511 361.356C116.817 361.434 117.069 361.539 117.267 361.671L116.988 362.184C116.778 362.04 116.553 361.938 116.313 361.878C116.073 361.812 115.833 361.779 115.593 361.779C115.167 361.779 114.852 361.854 114.648 362.004C114.45 362.148 114.351 362.334 114.351 362.562C114.351 362.742 114.405 362.883 114.513 362.985C114.627 363.087 114.774 363.168 114.954 363.228C115.14 363.282 115.341 363.327 115.557 363.363C115.779 363.399 115.998 363.444 116.214 363.498C116.436 363.546 116.637 363.615 116.817 363.705C117.003 363.789 117.15 363.912 117.258 364.074C117.372 364.23 117.429 364.437 117.429 364.695C117.429 364.971 117.351 365.211 117.195 365.415C117.045 365.613 116.823 365.769 116.529 365.883C116.241 365.991 115.89 366.045 115.476 366.045Z" fill="#697181"/>
<path d="M131.245 366.054C130.789 366.054 130.357 365.982 129.949 365.838C129.547 365.688 129.223 365.49 128.977 365.244L129.292 364.731C129.496 364.941 129.769 365.115 130.111 365.253C130.459 365.391 130.837 365.46 131.245 365.46C131.767 365.46 132.166 365.346 132.442 365.118C132.724 364.89 132.865 364.584 132.865 364.2C132.865 363.816 132.727 363.51 132.451 363.282C132.181 363.054 131.752 362.94 131.164 362.94H130.714V362.463L132.658 360.024L132.748 360.276H129.238V359.7H133.288V360.159L131.344 362.598L131.029 362.391H131.272C132.028 362.391 132.592 362.559 132.964 362.895C133.342 363.231 133.531 363.663 133.531 364.191C133.531 364.545 133.447 364.863 133.279 365.145C133.111 365.427 132.856 365.649 132.514 365.811C132.178 365.973 131.755 366.054 131.245 366.054ZM139.634 361.23C140.018 361.23 140.354 361.305 140.642 361.455C140.936 361.599 141.164 361.821 141.326 362.121C141.494 362.421 141.578 362.799 141.578 363.255V366H140.939V363.318C140.939 362.82 140.813 362.445 140.561 362.193C140.315 361.935 139.967 361.806 139.517 361.806C139.181 361.806 138.887 361.875 138.635 362.013C138.389 362.145 138.197 362.34 138.059 362.598C137.927 362.85 137.861 363.156 137.861 363.516V366H137.222V359.322H137.861V362.571L137.735 362.328C137.885 361.986 138.125 361.719 138.455 361.527C138.785 361.329 139.178 361.23 139.634 361.23ZM143.304 366V361.275H143.916V362.562L143.853 362.337C143.985 361.977 144.207 361.704 144.519 361.518C144.831 361.326 145.218 361.23 145.68 361.23V361.851C145.656 361.851 145.632 361.851 145.608 361.851C145.584 361.845 145.56 361.842 145.536 361.842C145.038 361.842 144.648 361.995 144.366 362.301C144.084 362.601 143.943 363.03 143.943 363.588V366H143.304ZM148.168 366.045C147.778 366.045 147.409 365.991 147.061 365.883C146.713 365.769 146.44 365.628 146.242 365.46L146.53 364.956C146.722 365.1 146.968 365.226 147.268 365.334C147.568 365.436 147.883 365.487 148.213 365.487C148.663 365.487 148.987 365.418 149.185 365.28C149.383 365.136 149.482 364.947 149.482 364.713C149.482 364.539 149.425 364.404 149.311 364.308C149.203 364.206 149.059 364.131 148.879 364.083C148.699 364.029 148.498 363.984 148.276 363.948C148.054 363.912 147.832 363.87 147.61 363.822C147.394 363.774 147.196 363.705 147.016 363.615C146.836 363.519 146.689 363.39 146.575 363.228C146.467 363.066 146.413 362.85 146.413 362.58C146.413 362.322 146.485 362.091 146.629 361.887C146.773 361.683 146.983 361.524 147.259 361.41C147.541 361.29 147.883 361.23 148.285 361.23C148.591 361.23 148.897 361.272 149.203 361.356C149.509 361.434 149.761 361.539 149.959 361.671L149.68 362.184C149.47 362.04 149.245 361.938 149.005 361.878C148.765 361.812 148.525 361.779 148.285 361.779C147.859 361.779 147.544 361.854 147.34 362.004C147.142 362.148 147.043 362.334 147.043 362.562C147.043 362.742 147.097 362.883 147.205 362.985C147.319 363.087 147.466 363.168 147.646 363.228C147.832 363.282 148.033 363.327 148.249 363.363C148.471 363.399 148.69 363.444 148.906 363.498C149.128 363.546 149.329 363.615 149.509 363.705C149.695 363.789 149.842 363.912 149.95 364.074C150.064 364.23 150.121 364.437 150.121 364.695C150.121 364.971 150.043 365.211 149.887 365.415C149.737 365.613 149.515 365.769 149.221 365.883C148.933 365.991 148.582 366.045 148.168 366.045Z" fill="#697181"/>
<path d="M162.773 364.344V363.876L166.112 359.7H166.832L163.52 363.876L163.169 363.768H168.236V364.344H162.773ZM166.328 366V364.344L166.346 363.768V362.31H166.976V366H166.328ZM174.022 361.23C174.406 361.23 174.742 361.305 175.03 361.455C175.324 361.599 175.552 361.821 175.714 362.121C175.882 362.421 175.966 362.799 175.966 363.255V366H175.327V363.318C175.327 362.82 175.201 362.445 174.949 362.193C174.703 361.935 174.355 361.806 173.905 361.806C173.569 361.806 173.275 361.875 173.023 362.013C172.777 362.145 172.585 362.34 172.447 362.598C172.315 362.85 172.249 363.156 172.249 363.516V366H171.61V359.322H172.249V362.571L172.123 362.328C172.273 361.986 172.513 361.719 172.843 361.527C173.173 361.329 173.566 361.23 174.022 361.23ZM177.692 366V361.275H178.304V362.562L178.241 362.337C178.373 361.977 178.595 361.704 178.907 361.518C179.219 361.326 179.606 361.23 180.068 361.23V361.851C180.044 361.851 180.02 361.851 179.996 361.851C179.972 361.845 179.948 361.842 179.924 361.842C179.426 361.842 179.036 361.995 178.754 362.301C178.472 362.601 178.331 363.03 178.331 363.588V366H177.692ZM182.556 366.045C182.166 366.045 181.797 365.991 181.449 365.883C181.101 365.769 180.828 365.628 180.63 365.46L180.918 364.956C181.11 365.1 181.356 365.226 181.656 365.334C181.956 365.436 182.271 365.487 182.601 365.487C183.051 365.487 183.375 365.418 183.573 365.28C183.771 365.136 183.87 364.947 183.87 364.713C183.87 364.539 183.813 364.404 183.699 364.308C183.591 364.206 183.447 364.131 183.267 364.083C183.087 364.029 182.886 363.984 182.664 363.948C182.442 363.912 182.22 363.87 181.998 363.822C181.782 363.774 181.584 363.705 181.404 363.615C181.224 363.519 181.077 363.39 180.963 363.228C180.855 363.066 180.801 362.85 180.801 362.58C180.801 362.322 180.873 362.091 181.017 361.887C181.161 361.683 181.371 361.524 181.647 361.41C181.929 361.29 182.271 361.23 182.673 361.23C182.979 361.23 183.285 361.272 183.591 361.356C183.897 361.434 184.149 361.539 184.347 361.671L184.068 362.184C183.858 362.04 183.633 361.938 183.393 361.878C183.153 361.812 182.913 361.779 182.673 361.779C182.247 361.779 181.932 361.854 181.728 362.004C181.53 362.148 181.431 362.334 181.431 362.562C181.431 362.742 181.485 362.883 181.593 362.985C181.707 363.087 181.854 363.168 182.034 363.228C182.22 363.282 182.421 363.327 182.637 363.363C182.859 363.399 183.078 363.444 183.294 363.498C183.516 363.546 183.717 363.615 183.897 363.705C184.083 363.789 184.23 363.912 184.338 364.074C184.452 364.23 184.509 364.437 184.509 364.695C184.509 364.971 184.431 365.211 184.275 365.415C184.125 365.613 183.903 365.769 183.609 365.883C183.321 365.991 182.97 366.045 182.556 366.045Z" fill="#697181"/>
<path d="M198.249 366.054C197.799 366.054 197.37 365.982 196.962 365.838C196.554 365.688 196.23 365.49 195.99 365.244L196.305 364.731C196.503 364.941 196.773 365.115 197.115 365.253C197.463 365.391 197.838 365.46 198.24 365.46C198.774 365.46 199.179 365.343 199.455 365.109C199.737 364.869 199.878 364.557 199.878 364.173C199.878 363.903 199.812 363.672 199.68 363.48C199.554 363.282 199.338 363.129 199.032 363.021C198.726 362.913 198.306 362.859 197.772 362.859H196.431L196.755 359.7H200.202V360.276H197.016L197.349 359.961L197.07 362.607L196.737 362.283H197.916C198.552 362.283 199.062 362.361 199.446 362.517C199.83 362.673 200.106 362.892 200.274 363.174C200.448 363.45 200.535 363.774 200.535 364.146C200.535 364.5 200.451 364.824 200.283 365.118C200.115 365.406 199.863 365.634 199.527 365.802C199.191 365.97 198.765 366.054 198.249 366.054ZM206.549 361.23C206.933 361.23 207.269 361.305 207.557 361.455C207.851 361.599 208.079 361.821 208.241 362.121C208.409 362.421 208.493 362.799 208.493 363.255V366H207.854V363.318C207.854 362.82 207.728 362.445 207.476 362.193C207.23 361.935 206.882 361.806 206.432 361.806C206.096 361.806 205.802 361.875 205.55 362.013C205.304 362.145 205.112 362.34 204.974 362.598C204.842 362.85 204.776 363.156 204.776 363.516V366H204.137V359.322H204.776V362.571L204.65 362.328C204.8 361.986 205.04 361.719 205.37 361.527C205.7 361.329 206.093 361.23 206.549 361.23ZM210.219 366V361.275H210.831V362.562L210.768 362.337C210.9 361.977 211.122 361.704 211.434 361.518C211.746 361.326 212.133 361.23 212.595 361.23V361.851C212.571 361.851 212.547 361.851 212.523 361.851C212.499 361.845 212.475 361.842 212.451 361.842C211.953 361.842 211.563 361.995 211.281 362.301C210.999 362.601 210.858 363.03 210.858 363.588V366H210.219ZM215.082 366.045C214.692 366.045 214.323 365.991 213.975 365.883C213.627 365.769 213.354 365.628 213.156 365.46L213.444 364.956C213.636 365.1 213.882 365.226 214.182 365.334C214.482 365.436 214.797 365.487 215.127 365.487C215.577 365.487 215.901 365.418 216.099 365.28C216.297 365.136 216.396 364.947 216.396 364.713C216.396 364.539 216.339 364.404 216.225 364.308C216.117 364.206 215.973 364.131 215.793 364.083C215.613 364.029 215.412 363.984 215.19 363.948C214.968 363.912 214.746 363.87 214.524 363.822C214.308 363.774 214.11 363.705 213.93 363.615C213.75 363.519 213.603 363.39 213.489 363.228C213.381 363.066 213.327 362.85 213.327 362.58C213.327 362.322 213.399 362.091 213.543 361.887C213.687 361.683 213.897 361.524 214.173 361.41C214.455 361.29 214.797 361.23 215.199 361.23C215.505 361.23 215.811 361.272 216.117 361.356C216.423 361.434 216.675 361.539 216.873 361.671L216.594 362.184C216.384 362.04 216.159 361.938 215.919 361.878C215.679 361.812 215.439 361.779 215.199 361.779C214.773 361.779 214.458 361.854 214.254 362.004C214.056 362.148 213.957 362.334 213.957 362.562C213.957 362.742 214.011 362.883 214.119 362.985C214.233 363.087 214.38 363.168 214.56 363.228C214.746 363.282 214.947 363.327 215.163 363.363C215.385 363.399 215.604 363.444 215.82 363.498C216.042 363.546 216.243 363.615 216.423 363.705C216.609 363.789 216.756 363.912 216.864 364.074C216.978 364.23 217.035 364.437 217.035 364.695C217.035 364.971 216.957 365.211 216.801 365.415C216.651 365.613 216.429 365.769 216.135 365.883C215.847 365.991 215.496 366.045 215.082 366.045Z" fill="#697181"/>
<path d="M232.846 366.054C232.288 366.054 231.817 365.931 231.433 365.685C231.049 365.433 230.758 365.073 230.56 364.605C230.362 364.131 230.263 363.564 230.263 362.904C230.263 362.19 230.383 361.593 230.623 361.113C230.869 360.627 231.208 360.261 231.64 360.015C232.072 359.769 232.573 359.646 233.143 359.646C233.425 359.646 233.695 359.673 233.953 359.727C234.211 359.781 234.439 359.868 234.637 359.988L234.376 360.51C234.214 360.402 234.028 360.327 233.818 360.285C233.608 360.237 233.386 360.213 233.152 360.213C232.474 360.213 231.931 360.429 231.523 360.861C231.121 361.293 230.92 361.938 230.92 362.796C230.92 362.928 230.926 363.093 230.938 363.291C230.956 363.483 230.992 363.675 231.046 363.867L230.821 363.696C230.887 363.384 231.016 363.12 231.208 362.904C231.4 362.682 231.64 362.514 231.928 362.4C232.216 362.286 232.531 362.229 232.873 362.229C233.293 362.229 233.662 362.307 233.98 362.463C234.298 362.619 234.547 362.838 234.727 363.12C234.907 363.402 234.997 363.735 234.997 364.119C234.997 364.509 234.904 364.851 234.718 365.145C234.532 365.433 234.274 365.658 233.944 365.82C233.62 365.976 233.254 366.054 232.846 366.054ZM232.819 365.505C233.119 365.505 233.383 365.451 233.611 365.343C233.845 365.229 234.028 365.07 234.16 364.866C234.292 364.656 234.358 364.413 234.358 364.137C234.358 363.723 234.214 363.393 233.926 363.147C233.644 362.901 233.26 362.778 232.774 362.778C232.45 362.778 232.168 362.838 231.928 362.958C231.688 363.078 231.499 363.243 231.361 363.453C231.223 363.657 231.154 363.891 231.154 364.155C231.154 364.383 231.217 364.602 231.343 364.812C231.469 365.016 231.655 365.184 231.901 365.316C232.153 365.442 232.459 365.505 232.819 365.505ZM240.938 361.23C241.322 361.23 241.658 361.305 241.946 361.455C242.24 361.599 242.468 361.821 242.63 362.121C242.798 362.421 242.882 362.799 242.882 363.255V366H242.243V363.318C242.243 362.82 242.117 362.445 241.865 362.193C241.619 361.935 241.271 361.806 240.821 361.806C240.485 361.806 240.191 361.875 239.939 362.013C239.693 362.145 239.501 362.34 239.363 362.598C239.231 362.85 239.165 363.156 239.165 363.516V366H238.526V359.322H239.165V362.571L239.039 362.328C239.189 361.986 239.429 361.719 239.759 361.527C240.089 361.329 240.482 361.23 240.938 361.23ZM244.608 366V361.275H245.22V362.562L245.157 362.337C245.289 361.977 245.511 361.704 245.823 361.518C246.135 361.326 246.522 361.23 246.984 361.23V361.851C246.96 361.851 246.936 361.851 246.912 361.851C246.888 361.845 246.864 361.842 246.84 361.842C246.342 361.842 245.952 361.995 245.67 362.301C245.388 362.601 245.247 363.03 245.247 363.588V366H244.608ZM249.472 366.045C249.082 366.045 248.713 365.991 248.365 365.883C248.017 365.769 247.744 365.628 247.546 365.46L247.834 364.956C248.026 365.1 248.272 365.226 248.572 365.334C248.872 365.436 249.187 365.487 249.517 365.487C249.967 365.487 250.291 365.418 250.489 365.28C250.687 365.136 250.786 364.947 250.786 364.713C250.786 364.539 250.729 364.404 250.615 364.308C250.507 364.206 250.363 364.131 250.183 364.083C250.003 364.029 249.802 363.984 249.58 363.948C249.358 363.912 249.136 363.87 248.914 363.822C248.698 363.774 248.5 363.705 248.32 363.615C248.14 363.519 247.993 363.39 247.879 363.228C247.771 363.066 247.717 362.85 247.717 362.58C247.717 362.322 247.789 362.091 247.933 361.887C248.077 361.683 248.287 361.524 248.563 361.41C248.845 361.29 249.187 361.23 249.589 361.23C249.895 361.23 250.201 361.272 250.507 361.356C250.813 361.434 251.065 361.539 251.263 361.671L250.984 362.184C250.774 362.04 250.549 361.938 250.309 361.878C250.069 361.812 249.829 361.779 249.589 361.779C249.163 361.779 248.848 361.854 248.644 362.004C248.446 362.148 248.347 362.334 248.347 362.562C248.347 362.742 248.401 362.883 248.509 362.985C248.623 363.087 248.77 363.168 248.95 363.228C249.136 363.282 249.337 363.327 249.553 363.363C249.775 363.399 249.994 363.444 250.21 363.498C250.432 363.546 250.633 363.615 250.813 363.705C250.999 363.789 251.146 363.912 251.254 364.074C251.368 364.23 251.425 364.437 251.425 364.695C251.425 364.971 251.347 365.211 251.191 365.415C251.041 365.613 250.819 365.769 250.525 365.883C250.237 365.991 249.886 366.045 249.472 366.045Z" fill="#697181"/>
<path d="M263.741 366L266.459 359.988L266.657 360.276H262.76L263.093 359.961V361.455H262.454V359.7H267.08V360.159L264.443 366H263.741ZM273.124 361.23C273.508 361.23 273.844 361.305 274.132 361.455C274.426 361.599 274.654 361.821 274.816 362.121C274.984 362.421 275.068 362.799 275.068 363.255V366H274.429V363.318C274.429 362.82 274.303 362.445 274.051 362.193C273.805 361.935 273.457 361.806 273.007 361.806C272.671 361.806 272.377 361.875 272.125 362.013C271.879 362.145 271.687 362.34 271.549 362.598C271.417 362.85 271.351 363.156 271.351 363.516V366H270.712V359.322H271.351V362.571L271.225 362.328C271.375 361.986 271.615 361.719 271.945 361.527C272.275 361.329 272.668 361.23 273.124 361.23ZM276.794 366V361.275H277.406V362.562L277.343 362.337C277.475 361.977 277.697 361.704 278.009 361.518C278.321 361.326 278.708 361.23 279.17 361.23V361.851C279.146 361.851 279.122 361.851 279.098 361.851C279.074 361.845 279.05 361.842 279.026 361.842C278.528 361.842 278.138 361.995 277.856 362.301C277.574 362.601 277.433 363.03 277.433 363.588V366H276.794ZM281.658 366.045C281.268 366.045 280.899 365.991 280.551 365.883C280.203 365.769 279.93 365.628 279.732 365.46L280.02 364.956C280.212 365.1 280.458 365.226 280.758 365.334C281.058 365.436 281.373 365.487 281.703 365.487C282.153 365.487 282.477 365.418 282.675 365.28C282.873 365.136 282.972 364.947 282.972 364.713C282.972 364.539 282.915 364.404 282.801 364.308C282.693 364.206 282.549 364.131 282.369 364.083C282.189 364.029 281.988 363.984 281.766 363.948C281.544 363.912 281.322 363.87 281.1 363.822C280.884 363.774 280.686 363.705 280.506 363.615C280.326 363.519 280.179 363.39 280.065 363.228C279.957 363.066 279.903 362.85 279.903 362.58C279.903 362.322 279.975 362.091 280.119 361.887C280.263 361.683 280.473 361.524 280.749 361.41C281.031 361.29 281.373 361.23 281.775 361.23C282.081 361.23 282.387 361.272 282.693 361.356C282.999 361.434 283.251 361.539 283.449 361.671L283.17 362.184C282.96 362.04 282.735 361.938 282.495 361.878C282.255 361.812 282.015 361.779 281.775 361.779C281.349 361.779 281.034 361.854 280.83 362.004C280.632 362.148 280.533 362.334 280.533 362.562C280.533 362.742 280.587 362.883 280.695 362.985C280.809 363.087 280.956 363.168 281.136 363.228C281.322 363.282 281.523 363.327 281.739 363.363C281.961 363.399 282.18 363.444 282.396 363.498C282.618 363.546 282.819 363.615 282.999 363.705C283.185 363.789 283.332 363.912 283.44 364.074C283.554 364.23 283.611 364.437 283.611 364.695C283.611 364.971 283.533 365.211 283.377 365.415C283.227 365.613 283.005 365.769 282.711 365.883C282.423 365.991 282.072 366.045 281.658 366.045Z" fill="#697181"/>
<path d="M299.936 366.054C299.432 366.054 298.997 365.982 298.631 365.838C298.271 365.694 297.992 365.487 297.794 365.217C297.602 364.941 297.506 364.617 297.506 364.245C297.506 363.885 297.599 363.579 297.785 363.327C297.977 363.069 298.253 362.871 298.613 362.733C298.979 362.595 299.42 362.526 299.936 362.526C300.446 362.526 300.884 362.595 301.25 362.733C301.616 362.871 301.895 363.069 302.087 363.327C302.285 363.579 302.384 363.885 302.384 364.245C302.384 364.617 302.285 364.941 302.087 365.217C301.889 365.487 301.607 365.694 301.241 365.838C300.875 365.982 300.44 366.054 299.936 366.054ZM299.936 365.505C300.494 365.505 300.929 365.391 301.241 365.163C301.559 364.935 301.718 364.626 301.718 364.236C301.718 363.846 301.559 363.54 301.241 363.318C300.929 363.09 300.494 362.976 299.936 362.976C299.378 362.976 298.943 363.09 298.631 363.318C298.319 363.54 298.163 363.846 298.163 364.236C298.163 364.626 298.319 364.935 298.631 365.163C298.943 365.391 299.378 365.505 299.936 365.505ZM299.936 362.895C299.468 362.895 299.069 362.832 298.739 362.706C298.415 362.58 298.166 362.4 297.992 362.166C297.818 361.926 297.731 361.641 297.731 361.311C297.731 360.963 297.821 360.666 298.001 360.42C298.187 360.168 298.445 359.976 298.775 359.844C299.105 359.712 299.492 359.646 299.936 359.646C300.38 359.646 300.767 359.712 301.097 359.844C301.433 359.976 301.694 360.168 301.88 360.42C302.066 360.666 302.159 360.963 302.159 361.311C302.159 361.641 302.072 361.926 301.898 362.166C301.724 362.4 301.469 362.58 301.133 362.706C300.803 362.832 300.404 362.895 299.936 362.895ZM299.936 362.463C300.428 362.463 300.812 362.361 301.088 362.157C301.364 361.953 301.502 361.68 301.502 361.338C301.502 360.978 301.358 360.699 301.07 360.501C300.788 360.297 300.41 360.195 299.936 360.195C299.462 360.195 299.084 360.297 298.802 360.501C298.52 360.699 298.379 360.975 298.379 361.329C298.379 361.677 298.514 361.953 298.784 362.157C299.06 362.361 299.444 362.463 299.936 362.463ZM308.471 361.23C308.855 361.23 309.191 361.305 309.479 361.455C309.773 361.599 310.001 361.821 310.163 362.121C310.331 362.421 310.415 362.799 310.415 363.255V366H309.776V363.318C309.776 362.82 309.65 362.445 309.398 362.193C309.152 361.935 308.804 361.806 308.354 361.806C308.018 361.806 307.724 361.875 307.472 362.013C307.226 362.145 307.034 362.34 306.896 362.598C306.764 362.85 306.698 363.156 306.698 363.516V366H306.059V359.322H306.698V362.571L306.572 362.328C306.722 361.986 306.962 361.719 307.292 361.527C307.622 361.329 308.015 361.23 308.471 361.23ZM312.141 366V361.275H312.753V362.562L312.69 362.337C312.822 361.977 313.044 361.704 313.356 361.518C313.668 361.326 314.055 361.23 314.517 361.23V361.851C314.493 361.851 314.469 361.851 314.445 361.851C314.421 361.845 314.397 361.842 314.373 361.842C313.875 361.842 313.485 361.995 313.203 362.301C312.921 362.601 312.78 363.03 312.78 363.588V366H312.141ZM317.005 366.045C316.615 366.045 316.246 365.991 315.898 365.883C315.55 365.769 315.277 365.628 315.079 365.46L315.367 364.956C315.559 365.1 315.805 365.226 316.105 365.334C316.405 365.436 316.72 365.487 317.05 365.487C317.5 365.487 317.824 365.418 318.022 365.28C318.22 365.136 318.319 364.947 318.319 364.713C318.319 364.539 318.262 364.404 318.148 364.308C318.04 364.206 317.896 364.131 317.716 364.083C317.536 364.029 317.335 363.984 317.113 363.948C316.891 363.912 316.669 363.87 316.447 363.822C316.231 363.774 316.033 363.705 315.853 363.615C315.673 363.519 315.526 363.39 315.412 363.228C315.304 363.066 315.25 362.85 315.25 362.58C315.25 362.322 315.322 362.091 315.466 361.887C315.61 361.683 315.82 361.524 316.096 361.41C316.378 361.29 316.72 361.23 317.122 361.23C317.428 361.23 317.734 361.272 318.04 361.356C318.346 361.434 318.598 361.539 318.796 361.671L318.517 362.184C318.307 362.04 318.082 361.938 317.842 361.878C317.602 361.812 317.362 361.779 317.122 361.779C316.696 361.779 316.381 361.854 316.177 362.004C315.979 362.148 315.88 362.334 315.88 362.562C315.88 362.742 315.934 362.883 316.042 362.985C316.156 363.087 316.303 363.168 316.483 363.228C316.669 363.282 316.87 363.327 317.086 363.363C317.308 363.399 317.527 363.444 317.743 363.498C317.965 363.546 318.166 363.615 318.346 363.705C318.532 363.789 318.679 363.912 318.787 364.074C318.901 364.23 318.958 364.437 318.958 364.695C318.958 364.971 318.88 365.211 318.724 365.415C318.574 365.613 318.352 365.769 318.058 365.883C317.77 365.991 317.419 366.045 317.005 366.045Z" fill="#697181"/>
<path d="M333.327 359.646C333.885 359.646 334.356 359.772 334.74 360.024C335.124 360.27 335.415 360.627 335.613 361.095C335.811 361.563 335.91 362.13 335.91 362.796C335.91 363.504 335.787 364.101 335.541 364.587C335.301 365.073 334.965 365.439 334.533 365.685C334.101 365.931 333.6 366.054 333.03 366.054C332.748 366.054 332.478 366.027 332.22 365.973C331.968 365.919 331.74 365.832 331.536 365.712L331.797 365.19C331.959 365.298 332.145 365.376 332.355 365.424C332.571 365.466 332.793 365.487 333.021 365.487C333.699 365.487 334.239 365.271 334.641 364.839C335.049 364.407 335.253 363.762 335.253 362.904C335.253 362.766 335.244 362.601 335.226 362.409C335.214 362.217 335.181 362.025 335.127 361.833L335.352 362.004C335.292 362.316 335.163 362.583 334.965 362.805C334.773 363.021 334.533 363.186 334.245 363.3C333.963 363.414 333.648 363.471 333.3 363.471C332.886 363.471 332.517 363.393 332.193 363.237C331.875 363.081 331.626 362.862 331.446 362.58C331.266 362.298 331.176 361.965 331.176 361.581C331.176 361.185 331.269 360.843 331.455 360.555C331.641 360.267 331.896 360.045 332.22 359.889C332.55 359.727 332.919 359.646 333.327 359.646ZM333.354 360.195C333.054 360.195 332.787 360.252 332.553 360.366C332.325 360.474 332.145 360.63 332.013 360.834C331.881 361.038 331.815 361.281 331.815 361.563C331.815 361.977 331.956 362.307 332.238 362.553C332.526 362.799 332.913 362.922 333.399 362.922C333.723 362.922 334.005 362.862 334.245 362.742C334.491 362.622 334.68 362.457 334.812 362.247C334.95 362.037 335.019 361.803 335.019 361.545C335.019 361.311 334.956 361.092 334.83 360.888C334.704 360.684 334.518 360.519 334.272 360.393C334.026 360.261 333.72 360.195 333.354 360.195ZM342.04 361.23C342.424 361.23 342.76 361.305 343.048 361.455C343.342 361.599 343.57 361.821 343.732 362.121C343.9 362.421 343.984 362.799 343.984 363.255V366H343.345V363.318C343.345 362.82 343.219 362.445 342.967 362.193C342.721 361.935 342.373 361.806 341.923 361.806C341.587 361.806 341.293 361.875 341.041 362.013C340.795 362.145 340.603 362.34 340.465 362.598C340.333 362.85 340.267 363.156 340.267 363.516V366H339.628V359.322H340.267V362.571L340.141 362.328C340.291 361.986 340.531 361.719 340.861 361.527C341.191 361.329 341.584 361.23 342.04 361.23ZM345.71 366V361.275H346.322V362.562L346.259 362.337C346.391 361.977 346.613 361.704 346.925 361.518C347.237 361.326 347.624 361.23 348.086 361.23V361.851C348.062 361.851 348.038 361.851 348.014 361.851C347.99 361.845 347.966 361.842 347.942 361.842C347.444 361.842 347.054 361.995 346.772 362.301C346.49 362.601 346.349 363.03 346.349 363.588V366H345.71ZM350.574 366.045C350.184 366.045 349.815 365.991 349.467 365.883C349.119 365.769 348.846 365.628 348.648 365.46L348.936 364.956C349.128 365.1 349.374 365.226 349.674 365.334C349.974 365.436 350.289 365.487 350.619 365.487C351.069 365.487 351.393 365.418 351.591 365.28C351.789 365.136 351.888 364.947 351.888 364.713C351.888 364.539 351.831 364.404 351.717 364.308C351.609 364.206 351.465 364.131 351.285 364.083C351.105 364.029 350.904 363.984 350.682 363.948C350.46 363.912 350.238 363.87 350.016 363.822C349.8 363.774 349.602 363.705 349.422 363.615C349.242 363.519 349.095 363.39 348.981 363.228C348.873 363.066 348.819 362.85 348.819 362.58C348.819 362.322 348.891 362.091 349.035 361.887C349.179 361.683 349.389 361.524 349.665 361.41C349.947 361.29 350.289 361.23 350.691 361.23C350.997 361.23 351.303 361.272 351.609 361.356C351.915 361.434 352.167 361.539 352.365 361.671L352.086 362.184C351.876 362.04 351.651 361.938 351.411 361.878C351.171 361.812 350.931 361.779 350.691 361.779C350.265 361.779 349.95 361.854 349.746 362.004C349.548 362.148 349.449 362.334 349.449 362.562C349.449 362.742 349.503 362.883 349.611 362.985C349.725 363.087 349.872 363.168 350.052 363.228C350.238 363.282 350.439 363.327 350.655 363.363C350.877 363.399 351.096 363.444 351.312 363.498C351.534 363.546 351.735 363.615 351.915 363.705C352.101 363.789 352.248 363.912 352.356 364.074C352.47 364.23 352.527 364.437 352.527 364.695C352.527 364.971 352.449 365.211 352.293 365.415C352.143 365.613 351.921 365.769 351.627 365.883C351.339 365.991 350.988 366.045 350.574 366.045Z" fill="#697181"/>
<path d="M398.616 366V359.97L398.904 360.276H397.131V359.7H399.264V366H398.616ZM401.868 366V359.97L402.156 360.276H400.383V359.7H402.516V366H401.868ZM409.212 361.23C409.596 361.23 409.932 361.305 410.22 361.455C410.514 361.599 410.742 361.821 410.904 362.121C411.072 362.421 411.156 362.799 411.156 363.255V366H410.517V363.318C410.517 362.82 410.391 362.445 410.139 362.193C409.893 361.935 409.545 361.806 409.095 361.806C408.759 361.806 408.465 361.875 408.213 362.013C407.967 362.145 407.775 362.34 407.637 362.598C407.505 362.85 407.439 363.156 407.439 363.516V366H406.8V359.322H407.439V362.571L407.313 362.328C407.463 361.986 407.703 361.719 408.033 361.527C408.363 361.329 408.756 361.23 409.212 361.23ZM412.882 366V361.275H413.494V362.562L413.431 362.337C413.563 361.977 413.785 361.704 414.097 361.518C414.409 361.326 414.796 361.23 415.258 361.23V361.851C415.234 361.851 415.21 361.851 415.186 361.851C415.162 361.845 415.138 361.842 415.114 361.842C414.616 361.842 414.226 361.995 413.944 362.301C413.662 362.601 413.521 363.03 413.521 363.588V366H412.882ZM417.746 366.045C417.356 366.045 416.987 365.991 416.639 365.883C416.291 365.769 416.018 365.628 415.82 365.46L416.108 364.956C416.3 365.1 416.546 365.226 416.846 365.334C417.146 365.436 417.461 365.487 417.791 365.487C418.241 365.487 418.565 365.418 418.763 365.28C418.961 365.136 419.06 364.947 419.06 364.713C419.06 364.539 419.003 364.404 418.889 364.308C418.781 364.206 418.637 364.131 418.457 364.083C418.277 364.029 418.076 363.984 417.854 363.948C417.632 363.912 417.41 363.87 417.188 363.822C416.972 363.774 416.774 363.705 416.594 363.615C416.414 363.519 416.267 363.39 416.153 363.228C416.045 363.066 415.991 362.85 415.991 362.58C415.991 362.322 416.063 362.091 416.207 361.887C416.351 361.683 416.561 361.524 416.837 361.41C417.119 361.29 417.461 361.23 417.863 361.23C418.169 361.23 418.475 361.272 418.781 361.356C419.087 361.434 419.339 361.539 419.537 361.671L419.258 362.184C419.048 362.04 418.823 361.938 418.583 361.878C418.343 361.812 418.103 361.779 417.863 361.779C417.437 361.779 417.122 361.854 416.918 362.004C416.72 362.148 416.621 362.334 416.621 362.562C416.621 362.742 416.675 362.883 416.783 362.985C416.897 363.087 417.044 363.168 417.224 363.228C417.41 363.282 417.611 363.327 417.827 363.363C418.049 363.399 418.268 363.444 418.484 363.498C418.706 363.546 418.907 363.615 419.087 363.705C419.273 363.789 419.42 363.912 419.528 364.074C419.642 364.23 419.699 364.437 419.699 364.695C419.699 364.971 419.621 365.211 419.465 365.415C419.315 365.613 419.093 365.769 418.799 365.883C418.511 365.991 418.16 366.045 417.746 366.045Z" fill="#697181"/>
<path d="M366.796 366V359.97L367.084 360.276H365.311V359.7H367.444V366H366.796ZM371.461 366.054C370.975 366.054 370.543 365.928 370.165 365.676C369.787 365.418 369.49 365.052 369.274 364.578C369.058 364.098 368.95 363.522 368.95 362.85C368.95 362.178 369.058 361.605 369.274 361.131C369.49 360.651 369.787 360.285 370.165 360.033C370.543 359.775 370.975 359.646 371.461 359.646C371.947 359.646 372.379 359.775 372.757 360.033C373.135 360.285 373.432 360.651 373.648 361.131C373.87 361.605 373.981 362.178 373.981 362.85C373.981 363.522 373.87 364.098 373.648 364.578C373.432 365.052 373.135 365.418 372.757 365.676C372.379 365.928 371.947 366.054 371.461 366.054ZM371.461 365.46C371.833 365.46 372.157 365.361 372.433 365.163C372.709 364.959 372.925 364.665 373.081 364.281C373.237 363.891 373.315 363.414 373.315 362.85C373.315 362.286 373.237 361.812 373.081 361.428C372.925 361.038 372.709 360.744 372.433 360.546C372.157 360.342 371.833 360.24 371.461 360.24C371.101 360.24 370.78 360.342 370.498 360.546C370.216 360.744 369.997 361.038 369.841 361.428C369.685 361.812 369.607 362.286 369.607 362.85C369.607 363.414 369.685 363.891 369.841 364.281C369.997 364.665 370.216 364.959 370.498 365.163C370.78 365.361 371.101 365.46 371.461 365.46ZM380.1 361.23C380.484 361.23 380.82 361.305 381.108 361.455C381.402 361.599 381.63 361.821 381.792 362.121C381.96 362.421 382.044 362.799 382.044 363.255V366H381.405V363.318C381.405 362.82 381.279 362.445 381.027 362.193C380.781 361.935 380.433 361.806 379.983 361.806C379.647 361.806 379.353 361.875 379.101 362.013C378.855 362.145 378.663 362.34 378.525 362.598C378.393 362.85 378.327 363.156 378.327 363.516V366H377.688V359.322H378.327V362.571L378.201 362.328C378.351 361.986 378.591 361.719 378.921 361.527C379.251 361.329 379.644 361.23 380.1 361.23ZM383.77 366V361.275H384.382V362.562L384.319 362.337C384.451 361.977 384.673 361.704 384.985 361.518C385.297 361.326 385.684 361.23 386.146 361.23V361.851C386.122 361.851 386.098 361.851 386.074 361.851C386.05 361.845 386.026 361.842 386.002 361.842C385.504 361.842 385.114 361.995 384.832 362.301C384.55 362.601 384.409 363.03 384.409 363.588V366H383.77ZM388.633 366.045C388.243 366.045 387.874 365.991 387.526 365.883C387.178 365.769 386.905 365.628 386.707 365.46L386.995 364.956C387.187 365.1 387.433 365.226 387.733 365.334C388.033 365.436 388.348 365.487 388.678 365.487C389.128 365.487 389.452 365.418 389.65 365.28C389.848 365.136 389.947 364.947 389.947 364.713C389.947 364.539 389.89 364.404 389.776 364.308C389.668 364.206 389.524 364.131 389.344 364.083C389.164 364.029 388.963 363.984 388.741 363.948C388.519 363.912 388.297 363.87 388.075 363.822C387.859 363.774 387.661 363.705 387.481 363.615C387.301 363.519 387.154 363.39 387.04 363.228C386.932 363.066 386.878 362.85 386.878 362.58C386.878 362.322 386.95 362.091 387.094 361.887C387.238 361.683 387.448 361.524 387.724 361.41C388.006 361.29 388.348 361.23 388.75 361.23C389.056 361.23 389.362 361.272 389.668 361.356C389.974 361.434 390.226 361.539 390.424 361.671L390.145 362.184C389.935 362.04 389.71 361.938 389.47 361.878C389.23 361.812 388.99 361.779 388.75 361.779C388.324 361.779 388.009 361.854 387.805 362.004C387.607 362.148 387.508 362.334 387.508 362.562C387.508 362.742 387.562 362.883 387.67 362.985C387.784 363.087 387.931 363.168 388.111 363.228C388.297 363.282 388.498 363.327 388.714 363.363C388.936 363.399 389.155 363.444 389.371 363.498C389.593 363.546 389.794 363.615 389.974 363.705C390.16 363.789 390.307 363.912 390.415 364.074C390.529 364.23 390.586 364.437 390.586 364.695C390.586 364.971 390.508 365.211 390.352 365.415C390.202 365.613 389.98 365.769 389.686 365.883C389.398 365.991 389.047 366.045 388.633 366.045Z" fill="#697181"/>
<path d="M429.811 366V360.24L430.441 360.87H428.551V359.7H431.269V366H429.811ZM432.309 366V365.055L434.739 362.76C434.931 362.586 435.072 362.43 435.162 362.292C435.252 362.154 435.312 362.028 435.342 361.914C435.378 361.8 435.396 361.695 435.396 361.599C435.396 361.347 435.309 361.155 435.135 361.023C434.967 360.885 434.718 360.816 434.388 360.816C434.124 360.816 433.878 360.867 433.65 360.969C433.428 361.071 433.239 361.23 433.083 361.446L432.021 360.762C432.261 360.402 432.597 360.117 433.029 359.907C433.461 359.697 433.959 359.592 434.523 359.592C434.991 359.592 435.399 359.67 435.747 359.826C436.101 359.976 436.374 360.189 436.566 360.465C436.764 360.741 436.863 361.071 436.863 361.455C436.863 361.659 436.836 361.863 436.782 362.067C436.734 362.265 436.632 362.475 436.476 362.697C436.326 362.919 436.104 363.168 435.81 363.444L433.794 365.343L433.515 364.812H437.07V366H432.309ZM443.461 361.086C443.845 361.086 444.187 361.164 444.487 361.32C444.793 361.47 445.033 361.704 445.207 362.022C445.381 362.334 445.468 362.736 445.468 363.228V366H444.064V363.444C444.064 363.054 443.977 362.766 443.803 362.58C443.635 362.394 443.395 362.301 443.083 362.301C442.861 362.301 442.66 362.349 442.48 362.445C442.306 362.535 442.168 362.676 442.066 362.868C441.97 363.06 441.922 363.306 441.922 363.606V366H440.518V359.322H441.922V362.499L441.607 362.094C441.781 361.77 442.03 361.521 442.354 361.347C442.678 361.173 443.047 361.086 443.461 361.086ZM446.741 366V361.158H448.082V362.526L447.893 362.13C448.037 361.788 448.268 361.53 448.586 361.356C448.904 361.176 449.291 361.086 449.747 361.086V362.382C449.687 362.376 449.633 362.373 449.585 362.373C449.537 362.367 449.486 362.364 449.432 362.364C449.048 362.364 448.736 362.475 448.496 362.697C448.262 362.913 448.145 363.252 448.145 363.714V366H446.741ZM452.246 366.072C451.832 366.072 451.433 366.024 451.049 365.928C450.671 365.826 450.371 365.7 450.149 365.55L450.617 364.542C450.839 364.68 451.1 364.794 451.4 364.884C451.706 364.968 452.006 365.01 452.3 365.01C452.624 365.01 452.852 364.971 452.984 364.893C453.122 364.815 453.191 364.707 453.191 364.569C453.191 364.455 453.137 364.371 453.029 364.317C452.927 364.257 452.789 364.212 452.615 364.182C452.441 364.152 452.249 364.122 452.039 364.092C451.835 364.062 451.628 364.023 451.418 363.975C451.208 363.921 451.016 363.843 450.842 363.741C450.668 363.639 450.527 363.501 450.419 363.327C450.317 363.153 450.266 362.928 450.266 362.652C450.266 362.346 450.353 362.076 450.527 361.842C450.707 361.608 450.965 361.425 451.301 361.293C451.637 361.155 452.039 361.086 452.507 361.086C452.837 361.086 453.173 361.122 453.515 361.194C453.857 361.266 454.142 361.371 454.37 361.509L453.902 362.508C453.668 362.37 453.431 362.277 453.191 362.229C452.957 362.175 452.729 362.148 452.507 362.148C452.195 362.148 451.967 362.19 451.823 362.274C451.679 362.358 451.607 362.466 451.607 362.598C451.607 362.718 451.658 362.808 451.76 362.868C451.868 362.928 452.009 362.976 452.183 363.012C452.357 363.048 452.546 363.081 452.75 363.111C452.96 363.135 453.17 363.174 453.38 363.228C453.59 363.282 453.779 363.36 453.947 363.462C454.121 363.558 454.262 363.693 454.37 363.867C454.478 364.035 454.532 364.257 454.532 364.533C454.532 364.833 454.442 365.1 454.262 365.334C454.082 365.562 453.821 365.742 453.479 365.874C453.143 366.006 452.732 366.072 452.246 366.072Z" fill="#3969ED"/>
<g filter="url(#filter1_d_6120_95351)">
<line x1="61.9994" y1="140" x2="455.001" y2="140" stroke="#285CED" stroke-dasharray="2 2"/>
</g>
<path d="M24.9384 118.161C25.832 118.161 26.6013 118.345 27.2462 118.714C27.891 119.082 28.3885 119.621 28.7386 120.33C29.0887 121.031 29.2637 121.906 29.2637 122.956C29.2637 124.071 29.0518 125.015 28.6281 125.789C28.2135 126.563 27.6377 127.152 26.9007 127.558C26.1637 127.963 25.3069 128.166 24.3304 128.166C23.8237 128.166 23.3354 128.111 22.8656 128C22.3957 127.889 21.9904 127.724 21.6495 127.503L22.4786 125.858C22.7458 126.042 23.0314 126.171 23.3354 126.245C23.6394 126.309 23.9573 126.342 24.2889 126.342C25.118 126.342 25.7767 126.088 26.265 125.582C26.7625 125.075 27.0112 124.324 27.0112 123.329C27.0112 123.163 27.0066 122.979 26.9974 122.776C26.9882 122.574 26.9652 122.371 26.9283 122.168L27.5364 122.749C27.3797 123.108 27.1586 123.412 26.8731 123.661C26.5875 123.9 26.2558 124.085 25.8781 124.214C25.5004 124.333 25.0766 124.393 24.6067 124.393C23.9895 124.393 23.4275 124.269 22.9208 124.02C22.4234 123.771 22.0226 123.421 21.7186 122.97C21.4238 122.518 21.2764 121.989 21.2764 121.381C21.2764 120.717 21.4376 120.146 21.76 119.667C22.0917 119.188 22.5339 118.82 23.0867 118.562C23.6486 118.294 24.2659 118.161 24.9384 118.161ZM25.0766 119.833C24.7541 119.833 24.4732 119.893 24.2336 120.013C23.9941 120.123 23.8052 120.289 23.6671 120.51C23.5289 120.722 23.4598 120.975 23.4598 121.27C23.4598 121.712 23.6072 122.067 23.902 122.334C24.206 122.592 24.6067 122.721 25.1042 122.721C25.4267 122.721 25.7123 122.661 25.961 122.542C26.219 122.413 26.417 122.238 26.5552 122.016C26.6934 121.795 26.7625 121.547 26.7625 121.27C26.7625 120.994 26.6934 120.75 26.5552 120.538C26.4262 120.317 26.2374 120.146 25.9886 120.026C25.7399 119.897 25.4359 119.833 25.0766 119.833ZM34.4834 128.166C33.6911 128.166 32.9817 127.972 32.3553 127.585C31.7288 127.189 31.2359 126.618 30.8767 125.872C30.5174 125.126 30.3377 124.223 30.3377 123.163C30.3377 122.104 30.5174 121.201 30.8767 120.455C31.2359 119.709 31.7288 119.142 32.3553 118.755C32.9817 118.359 33.6911 118.161 34.4834 118.161C35.2849 118.161 35.9943 118.359 36.6115 118.755C37.238 119.142 37.7309 119.709 38.0901 120.455C38.4494 121.201 38.6291 122.104 38.6291 123.163C38.6291 124.223 38.4494 125.126 38.0901 125.872C37.7309 126.618 37.238 127.189 36.6115 127.585C35.9943 127.972 35.2849 128.166 34.4834 128.166ZM34.4834 126.273C34.8611 126.273 35.1882 126.167 35.4645 125.955C35.7501 125.743 35.9712 125.407 36.1279 124.946C36.2937 124.485 36.3766 123.891 36.3766 123.163C36.3766 122.436 36.2937 121.841 36.1279 121.381C35.9712 120.92 35.7501 120.584 35.4645 120.372C35.1882 120.16 34.8611 120.054 34.4834 120.054C34.1149 120.054 33.7878 120.16 33.5023 120.372C33.2259 120.584 33.0048 120.92 32.8389 121.381C32.6823 121.841 32.604 122.436 32.604 123.163C32.604 123.891 32.6823 124.485 32.8389 124.946C33.0048 125.407 33.2259 125.743 33.5023 125.955C33.7878 126.167 34.1149 126.273 34.4834 126.273ZM41.1125 128L47.718 118.327H49.3624L42.757 128H41.1125ZM41.9555 123.55C41.4856 123.55 41.071 123.444 40.7117 123.232C40.3525 123.011 40.0669 122.703 39.855 122.307C39.6523 121.901 39.551 121.427 39.551 120.883C39.551 120.34 39.6523 119.87 39.855 119.474C40.0669 119.078 40.3525 118.769 40.7117 118.548C41.071 118.327 41.4856 118.216 41.9555 118.216C42.4253 118.216 42.8399 118.327 43.1992 118.548C43.5585 118.769 43.8394 119.078 44.0421 119.474C44.2448 119.87 44.3461 120.34 44.3461 120.883C44.3461 121.427 44.2448 121.901 44.0421 122.307C43.8394 122.703 43.5585 123.011 43.1992 123.232C42.8399 123.444 42.4253 123.55 41.9555 123.55ZM41.9555 122.417C42.2595 122.417 42.5036 122.293 42.6879 122.044C42.8721 121.786 42.9642 121.399 42.9642 120.883C42.9642 120.367 42.8721 119.985 42.6879 119.736C42.5036 119.478 42.2595 119.349 41.9555 119.349C41.6607 119.349 41.4165 119.478 41.2231 119.736C41.0388 119.985 40.9467 120.367 40.9467 120.883C40.9467 121.39 41.0388 121.772 41.2231 122.03C41.4165 122.288 41.6607 122.417 41.9555 122.417ZM48.5195 128.111C48.0588 128.111 47.6443 128.005 47.2757 127.793C46.9165 127.572 46.6355 127.263 46.4328 126.867C46.2301 126.461 46.1288 125.987 46.1288 125.443C46.1288 124.9 46.2301 124.43 46.4328 124.034C46.6355 123.638 46.9165 123.329 47.2757 123.108C47.6443 122.887 48.0588 122.776 48.5195 122.776C48.9985 122.776 49.4177 122.887 49.777 123.108C50.1363 123.329 50.4173 123.638 50.6199 124.034C50.8226 124.43 50.9239 124.9 50.9239 125.443C50.9239 125.987 50.8226 126.461 50.6199 126.867C50.4173 127.263 50.1363 127.572 49.777 127.793C49.4177 128.005 48.9985 128.111 48.5195 128.111ZM48.5195 126.977C48.8235 126.977 49.0676 126.853 49.2519 126.604C49.4361 126.346 49.5282 125.959 49.5282 125.443C49.5282 124.937 49.4361 124.554 49.2519 124.297C49.0676 124.039 48.8235 123.91 48.5195 123.91C48.2246 123.91 47.9805 124.039 47.787 124.297C47.6028 124.545 47.5107 124.928 47.5107 125.443C47.5107 125.959 47.6028 126.346 47.787 126.604C47.9805 126.853 48.2246 126.977 48.5195 126.977Z" fill="#3969ED"/>
<path d="M25.3944 190.153C24.6206 190.153 23.9526 190.043 23.3907 189.822C22.8379 189.6 22.4095 189.283 22.1055 188.868C21.8107 188.444 21.6633 187.947 21.6633 187.376C21.6633 186.823 21.8061 186.353 22.0917 185.966C22.3865 185.57 22.8103 185.266 23.363 185.054C23.925 184.842 24.6021 184.736 25.3944 184.736C26.1775 184.736 26.85 184.842 27.412 185.054C27.974 185.266 28.4023 185.57 28.6972 185.966C29.0012 186.353 29.1532 186.823 29.1532 187.376C29.1532 187.947 29.0012 188.444 28.6972 188.868C28.3931 189.283 27.9601 189.6 27.3982 189.822C26.8362 190.043 26.1683 190.153 25.3944 190.153ZM25.3944 189.31C26.2512 189.31 26.9191 189.135 27.3982 188.785C27.8864 188.435 28.1306 187.961 28.1306 187.362C28.1306 186.763 27.8864 186.293 27.3982 185.952C26.9191 185.602 26.2512 185.427 25.3944 185.427C24.5376 185.427 23.8697 185.602 23.3907 185.952C22.9116 186.293 22.6721 186.763 22.6721 187.362C22.6721 187.961 22.9116 188.435 23.3907 188.785C23.8697 189.135 24.5376 189.31 25.3944 189.31ZM25.3944 185.303C24.6758 185.303 24.0632 185.206 23.5565 185.013C23.059 184.819 22.6767 184.543 22.4095 184.183C22.1424 183.815 22.0088 183.377 22.0088 182.871C22.0088 182.336 22.147 181.88 22.4234 181.503C22.7089 181.116 23.1051 180.821 23.6118 180.618C24.1185 180.415 24.7127 180.314 25.3944 180.314C26.0762 180.314 26.6704 180.415 27.1771 180.618C27.693 180.821 28.0937 181.116 28.3793 181.503C28.6649 181.88 28.8077 182.336 28.8077 182.871C28.8077 183.377 28.6741 183.815 28.407 184.183C28.1398 184.543 27.7483 184.819 27.2323 185.013C26.7256 185.206 26.113 185.303 25.3944 185.303ZM25.3944 184.639C26.1499 184.639 26.7395 184.483 27.1632 184.17C27.587 183.856 27.7989 183.437 27.7989 182.912C27.7989 182.359 27.5778 181.931 27.1356 181.627C26.7026 181.314 26.1222 181.157 25.3944 181.157C24.6666 181.157 24.0862 181.314 23.6532 181.627C23.2202 181.931 23.0037 182.355 23.0037 182.898C23.0037 183.433 23.211 183.856 23.6256 184.17C24.0494 184.483 24.639 184.639 25.3944 184.639ZM34.3863 190.153C33.6401 190.153 32.9768 189.96 32.3964 189.573C31.816 189.177 31.36 188.615 31.0283 187.887C30.6967 187.15 30.5309 186.265 30.5309 185.234C30.5309 184.202 30.6967 183.322 31.0283 182.594C31.36 181.857 31.816 181.295 32.3964 180.908C32.9768 180.512 33.6401 180.314 34.3863 180.314C35.1326 180.314 35.7959 180.512 36.3763 180.908C36.9567 181.295 37.4127 181.857 37.7443 182.594C38.0852 183.322 38.2556 184.202 38.2556 185.234C38.2556 186.265 38.0852 187.15 37.7443 187.887C37.4127 188.615 36.9567 189.177 36.3763 189.573C35.7959 189.96 35.1326 190.153 34.3863 190.153ZM34.3863 189.241C34.9575 189.241 35.455 189.089 35.8788 188.785C36.3026 188.472 36.6342 188.021 36.8738 187.431C37.1133 186.832 37.233 186.1 37.233 185.234C37.233 184.368 37.1133 183.64 36.8738 183.05C36.6342 182.451 36.3026 182 35.8788 181.696C35.455 181.383 34.9575 181.226 34.3863 181.226C33.8336 181.226 33.3407 181.383 32.9077 181.696C32.4747 182 32.1385 182.451 31.8989 183.05C31.6594 183.64 31.5396 184.368 31.5396 185.234C31.5396 186.1 31.6594 186.832 31.8989 187.431C32.1385 188.021 32.4747 188.472 32.9077 188.785C33.3407 189.089 33.8336 189.241 34.3863 189.241ZM40.9795 190.07L47.5849 180.397H48.4003L41.7948 190.07H40.9795ZM41.7257 185.579C41.2927 185.579 40.9104 185.473 40.5787 185.261C40.2471 185.04 39.9891 184.732 39.8049 184.335C39.6298 183.939 39.5423 183.479 39.5423 182.954C39.5423 182.428 39.6298 181.968 39.8049 181.572C39.9891 181.176 40.2471 180.872 40.5787 180.66C40.9104 180.439 41.2927 180.328 41.7257 180.328C42.1587 180.328 42.5364 180.439 42.8589 180.66C43.1905 180.872 43.4485 181.176 43.6327 181.572C43.817 181.968 43.9091 182.428 43.9091 182.954C43.9091 183.479 43.817 183.939 43.6327 184.335C43.4485 184.732 43.1905 185.04 42.8589 185.261C42.5364 185.473 42.1587 185.579 41.7257 185.579ZM41.7257 184.957C42.1771 184.957 42.5364 184.782 42.8036 184.432C43.08 184.073 43.2182 183.58 43.2182 182.954C43.2182 182.327 43.08 181.839 42.8036 181.489C42.5364 181.129 42.1771 180.95 41.7257 180.95C41.2651 180.95 40.9012 181.129 40.634 181.489C40.3669 181.839 40.2333 182.327 40.2333 182.954C40.2333 183.58 40.3669 184.073 40.634 184.432C40.9012 184.782 41.2651 184.957 41.7257 184.957ZM47.654 190.139C47.2303 190.139 46.8525 190.033 46.5209 189.822C46.1892 189.6 45.9313 189.292 45.747 188.896C45.5628 188.5 45.4706 188.039 45.4706 187.514C45.4706 186.989 45.5628 186.528 45.747 186.132C45.9313 185.736 46.1892 185.432 46.5209 185.22C46.8525 184.999 47.2303 184.888 47.654 184.888C48.0962 184.888 48.4786 184.999 48.801 185.22C49.1327 185.432 49.386 185.736 49.5611 186.132C49.7453 186.528 49.8374 186.989 49.8374 187.514C49.8374 188.039 49.7453 188.5 49.5611 188.896C49.386 189.292 49.1327 189.6 48.801 189.822C48.4786 190.033 48.0962 190.139 47.654 190.139ZM47.654 189.518C48.1055 189.518 48.4648 189.343 48.7319 188.992C49.0083 188.633 49.1465 188.14 49.1465 187.514C49.1465 186.887 49.0083 186.399 48.7319 186.049C48.4648 185.69 48.1055 185.51 47.654 185.51C47.2026 185.51 46.8387 185.69 46.5623 186.049C46.2952 186.399 46.1616 186.887 46.1616 187.514C46.1616 188.14 46.2952 188.633 46.5623 188.992C46.8387 189.343 47.2026 189.518 47.654 189.518Z" fill="#697181"/>
<path d="M28.5451 242.467V243.172L24.4962 252.141H23.4183L27.3982 243.352H22.4234V245.162H21.4422V242.467H28.5451ZM33.4417 252.224C32.6955 252.224 32.0276 252.025 31.4379 251.629C30.8575 251.233 30.4015 250.667 30.0699 249.93C29.7474 249.183 29.5862 248.308 29.5862 247.304C29.5862 246.3 29.7474 245.429 30.0699 244.692C30.4015 243.946 30.8575 243.375 31.4379 242.979C32.0276 242.583 32.6955 242.384 33.4417 242.384C34.1879 242.384 34.8512 242.583 35.4316 242.979C36.0212 243.375 36.4819 243.946 36.8135 244.692C37.1452 245.429 37.311 246.3 37.311 247.304C37.311 248.308 37.1452 249.183 36.8135 249.93C36.4819 250.667 36.0212 251.233 35.4316 251.629C34.8512 252.025 34.1879 252.224 33.4417 252.224ZM33.4417 251.311C34.0037 251.311 34.4965 251.155 34.9203 250.842C35.3533 250.528 35.6896 250.072 35.9291 249.474C36.1686 248.875 36.2884 248.152 36.2884 247.304C36.2884 246.456 36.1686 245.733 35.9291 245.134C35.6896 244.536 35.3533 244.08 34.9203 243.766C34.4965 243.453 34.0037 243.297 33.4417 243.297C32.8797 243.297 32.3822 243.453 31.9492 243.766C31.5255 244.08 31.1938 244.536 30.9543 245.134C30.7148 245.733 30.595 246.456 30.595 247.304C30.595 248.152 30.7148 248.875 30.9543 249.474C31.1938 250.072 31.5255 250.528 31.9492 250.842C32.3822 251.155 32.8797 251.311 33.4417 251.311ZM40.7811 247.649C40.127 247.649 39.5972 247.41 39.1919 246.931C38.7957 246.443 38.5977 245.807 38.5977 245.024C38.5977 244.241 38.7957 243.61 39.1919 243.131C39.5972 242.642 40.127 242.398 40.7811 242.398C41.4259 242.398 41.9511 242.638 42.3564 243.117C42.7618 243.596 42.9645 244.232 42.9645 245.024C42.9645 245.816 42.7618 246.452 42.3564 246.931C41.9511 247.41 41.4259 247.649 40.7811 247.649ZM46.6403 242.467H47.4556L40.8502 252.141H40.0348L46.6403 242.467ZM40.7811 247.028C41.2325 247.028 41.5918 246.853 41.8589 246.502C42.1353 246.143 42.2735 245.65 42.2735 245.024C42.2735 244.397 42.1353 243.909 41.8589 243.559C41.5918 243.2 41.2325 243.02 40.7811 243.02C40.3204 243.02 39.9565 243.2 39.6894 243.559C39.4222 243.918 39.2886 244.407 39.2886 245.024C39.2886 245.641 39.4222 246.129 39.6894 246.489C39.9565 246.848 40.3204 247.028 40.7811 247.028ZM46.7094 252.21C46.0645 252.21 45.5394 251.97 45.134 251.491C44.7287 251.003 44.526 250.367 44.526 249.584C44.526 248.801 44.7287 248.17 45.134 247.691C45.5394 247.203 46.0645 246.959 46.7094 246.959C47.3635 246.959 47.8886 247.203 48.2847 247.691C48.6901 248.17 48.8928 248.801 48.8928 249.584C48.8928 250.367 48.6901 251.003 48.2847 251.491C47.8886 251.97 47.3635 252.21 46.7094 252.21ZM46.7094 251.588C47.17 251.588 47.5339 251.408 47.8011 251.049C48.0683 250.69 48.2018 250.201 48.2018 249.584C48.2018 248.967 48.0683 248.479 47.8011 248.119C47.5339 247.76 47.17 247.58 46.7094 247.58C46.258 247.58 45.8941 247.76 45.6177 248.119C45.3505 248.469 45.2169 248.958 45.2169 249.584C45.2169 250.211 45.3505 250.703 45.6177 251.063C45.8941 251.413 46.258 251.588 46.7094 251.588Z" fill="#697181"/>
<path d="M25.7261 308.421C26.3617 308.421 26.9237 308.541 27.412 308.78C27.9095 309.02 28.2964 309.36 28.5728 309.803C28.8492 310.236 28.9873 310.742 28.9873 311.323C28.9873 311.912 28.8446 312.433 28.559 312.884C28.2734 313.336 27.8772 313.686 27.3705 313.935C26.8731 314.174 26.3111 314.294 25.6846 314.294C24.4041 314.294 23.4229 313.875 22.7412 313.036C22.0595 312.189 21.7186 310.996 21.7186 309.457C21.7186 308.379 21.9028 307.467 22.2713 306.721C22.6398 305.975 23.1558 305.413 23.8191 305.035C24.4824 304.648 25.2562 304.455 26.1406 304.455C27.0988 304.455 27.8634 304.63 28.4346 304.98L28.0338 305.781C27.5732 305.477 26.9468 305.325 26.1545 305.325C25.0858 305.325 24.2475 305.666 23.6394 306.348C23.0314 307.02 22.7274 308.002 22.7274 309.291C22.7274 309.522 22.7412 309.784 22.7688 310.079C23.0084 309.554 23.3907 309.149 23.9158 308.863C24.4409 308.568 25.0443 308.421 25.7261 308.421ZM25.6432 313.451C26.3433 313.451 26.9099 313.262 27.3429 312.884C27.7851 312.497 28.0062 311.986 28.0062 311.35C28.0062 310.715 27.7851 310.208 27.3429 309.83C26.9099 309.453 26.3203 309.264 25.5741 309.264C25.0858 309.264 24.6528 309.356 24.2751 309.54C23.9066 309.724 23.6164 309.978 23.4045 310.3C23.1926 310.623 23.0867 310.982 23.0867 311.378C23.0867 311.747 23.1834 312.087 23.3769 312.401C23.5795 312.714 23.8743 312.967 24.2613 313.161C24.6482 313.354 25.1088 313.451 25.6432 313.451ZM33.995 314.294C33.2488 314.294 32.5808 314.096 31.9912 313.7C31.4108 313.303 30.9548 312.737 30.6232 312C30.3007 311.254 30.1395 310.378 30.1395 309.374C30.1395 308.37 30.3007 307.5 30.6232 306.763C30.9548 306.016 31.4108 305.445 31.9912 305.049C32.5808 304.653 33.2488 304.455 33.995 304.455C34.7412 304.455 35.4045 304.653 35.9849 305.049C36.5745 305.445 37.0352 306.016 37.3668 306.763C37.6985 307.5 37.8643 308.37 37.8643 309.374C37.8643 310.378 37.6985 311.254 37.3668 312C37.0352 312.737 36.5745 313.303 35.9849 313.7C35.4045 314.096 34.7412 314.294 33.995 314.294ZM33.995 313.382C34.557 313.382 35.0498 313.225 35.4736 312.912C35.9066 312.599 36.2429 312.143 36.4824 311.544C36.7219 310.945 36.8417 310.222 36.8417 309.374C36.8417 308.527 36.7219 307.804 36.4824 307.205C36.2429 306.606 35.9066 306.15 35.4736 305.837C35.0498 305.523 34.557 305.367 33.995 305.367C33.433 305.367 32.9355 305.523 32.5025 305.837C32.0788 306.15 31.7471 306.606 31.5076 307.205C31.268 307.804 31.1483 308.527 31.1483 309.374C31.1483 310.222 31.268 310.945 31.5076 311.544C31.7471 312.143 32.0788 312.599 32.5025 312.912C32.9355 313.225 33.433 313.382 33.995 313.382ZM41.3344 309.72C40.6803 309.72 40.1505 309.48 39.7452 309.001C39.349 308.513 39.151 307.877 39.151 307.094C39.151 306.311 39.349 305.68 39.7452 305.201C40.1505 304.713 40.6803 304.469 41.3344 304.469C41.9792 304.469 42.5044 304.708 42.9097 305.187C43.3151 305.666 43.5177 306.302 43.5177 307.094C43.5177 307.886 43.3151 308.522 42.9097 309.001C42.5044 309.48 41.9792 309.72 41.3344 309.72ZM47.1936 304.538H48.0089L41.4035 314.211H40.5881L47.1936 304.538ZM41.3344 309.098C41.7858 309.098 42.1451 308.923 42.4122 308.573C42.6886 308.214 42.8268 307.721 42.8268 307.094C42.8268 306.468 42.6886 305.979 42.4122 305.629C42.1451 305.27 41.7858 305.09 41.3344 305.09C40.8737 305.09 40.5098 305.27 40.2427 305.629C39.9755 305.989 39.8419 306.477 39.8419 307.094C39.8419 307.711 39.9755 308.2 40.2427 308.559C40.5098 308.918 40.8737 309.098 41.3344 309.098ZM47.2627 314.28C46.6178 314.28 46.0927 314.041 45.6873 313.561C45.282 313.073 45.0793 312.438 45.0793 311.654C45.0793 310.871 45.282 310.24 45.6873 309.761C46.0927 309.273 46.6178 309.029 47.2627 309.029C47.9168 309.029 48.4419 309.273 48.838 309.761C49.2434 310.24 49.4461 310.871 49.4461 311.654C49.4461 312.438 49.2434 313.073 48.838 313.561C48.4419 314.041 47.9168 314.28 47.2627 314.28ZM47.2627 313.658C47.7233 313.658 48.0872 313.479 48.3544 313.119C48.6215 312.76 48.7551 312.272 48.7551 311.654C48.7551 311.037 48.6215 310.549 48.3544 310.19C48.0872 309.83 47.7233 309.651 47.2627 309.651C46.8113 309.651 46.4474 309.83 46.171 310.19C45.9038 310.54 45.7702 311.028 45.7702 311.654C45.7702 312.281 45.9038 312.774 46.171 313.133C46.4474 313.483 46.8113 313.658 47.2627 313.658Z" fill="#697181"/>
<path d="M460.507 144.08C459.94 144.08 459.45 143.997 459.037 143.83C458.624 143.663 458.304 143.427 458.077 143.12C457.85 142.807 457.737 142.44 457.737 142.02C457.737 141.607 457.844 141.257 458.057 140.97C458.277 140.677 458.594 140.457 459.007 140.31C459.42 140.157 459.92 140.08 460.507 140.08C461.094 140.08 461.594 140.157 462.007 140.31C462.427 140.457 462.747 140.677 462.967 140.97C463.187 141.263 463.297 141.613 463.297 142.02C463.297 142.44 463.184 142.807 462.957 143.12C462.73 143.427 462.407 143.663 461.987 143.83C461.567 143.997 461.074 144.08 460.507 144.08ZM460.507 143.27C461.067 143.27 461.504 143.157 461.817 142.93C462.137 142.697 462.297 142.383 462.297 141.99C462.297 141.603 462.137 141.3 461.817 141.08C461.504 140.853 461.067 140.74 460.507 140.74C459.954 140.74 459.52 140.853 459.207 141.08C458.894 141.3 458.737 141.603 458.737 141.99C458.737 142.383 458.894 142.697 459.207 142.93C459.52 143.157 459.954 143.27 460.507 143.27ZM460.507 140.62C459.974 140.62 459.52 140.55 459.147 140.41C458.774 140.263 458.487 140.057 458.287 139.79C458.087 139.517 457.987 139.193 457.987 138.82C457.987 138.427 458.09 138.09 458.297 137.81C458.51 137.523 458.807 137.303 459.187 137.15C459.567 136.997 460.007 136.92 460.507 136.92C461.014 136.92 461.457 136.997 461.837 137.15C462.217 137.303 462.514 137.523 462.727 137.81C462.94 138.09 463.047 138.427 463.047 138.82C463.047 139.193 462.947 139.517 462.747 139.79C462.547 140.057 462.257 140.263 461.877 140.41C461.497 140.55 461.04 140.62 460.507 140.62ZM460.507 139.98C460.994 139.98 461.374 139.88 461.647 139.68C461.927 139.48 462.067 139.207 462.067 138.86C462.067 138.507 461.924 138.23 461.637 138.03C461.35 137.83 460.974 137.73 460.507 137.73C460.04 137.73 459.667 137.83 459.387 138.03C459.114 138.23 458.977 138.507 458.977 138.86C458.977 139.207 459.11 139.48 459.377 139.68C459.65 139.88 460.027 139.98 460.507 139.98ZM464.102 144V143.32L466.952 140.57C467.206 140.33 467.392 140.12 467.512 139.94C467.639 139.753 467.722 139.583 467.762 139.43C467.809 139.27 467.832 139.117 467.832 138.97C467.832 138.61 467.706 138.327 467.452 138.12C467.199 137.913 466.829 137.81 466.342 137.81C465.969 137.81 465.632 137.873 465.332 138C465.032 138.12 464.772 138.31 464.552 138.57L463.872 137.98C464.139 137.64 464.496 137.38 464.942 137.2C465.396 137.013 465.892 136.92 466.432 136.92C466.919 136.92 467.342 137 467.702 137.16C468.062 137.313 468.339 137.537 468.532 137.83C468.732 138.123 468.832 138.47 468.832 138.87C468.832 139.097 468.802 139.32 468.742 139.54C468.682 139.76 468.569 139.993 468.402 140.24C468.236 140.487 467.996 140.763 467.682 141.07L465.142 143.52L464.902 143.13H469.132V144H464.102ZM471.012 144L475.792 137H476.562L471.782 144H471.012ZM471.572 140.76C471.252 140.76 470.969 140.68 470.722 140.52C470.476 140.36 470.282 140.137 470.142 139.85C470.009 139.563 469.942 139.23 469.942 138.85C469.942 138.47 470.009 138.137 470.142 137.85C470.282 137.563 470.476 137.34 470.722 137.18C470.969 137.02 471.252 136.94 471.572 136.94C471.899 136.94 472.182 137.02 472.422 137.18C472.669 137.34 472.859 137.563 472.992 137.85C473.126 138.137 473.192 138.47 473.192 138.85C473.192 139.23 473.126 139.563 472.992 139.85C472.859 140.137 472.669 140.36 472.422 140.52C472.182 140.68 471.899 140.76 471.572 140.76ZM471.572 140.19C471.879 140.19 472.119 140.073 472.292 139.84C472.466 139.6 472.552 139.27 472.552 138.85C472.552 138.43 472.466 138.103 472.292 137.87C472.119 137.63 471.879 137.51 471.572 137.51C471.272 137.51 471.032 137.63 470.852 137.87C470.679 138.103 470.592 138.43 470.592 138.85C470.592 139.263 470.679 139.59 470.852 139.83C471.032 140.07 471.272 140.19 471.572 140.19ZM476.002 144.06C475.682 144.06 475.399 143.98 475.152 143.82C474.906 143.66 474.716 143.437 474.582 143.15C474.449 142.863 474.382 142.53 474.382 142.15C474.382 141.77 474.449 141.437 474.582 141.15C474.716 140.863 474.906 140.64 475.152 140.48C475.399 140.32 475.682 140.24 476.002 140.24C476.329 140.24 476.612 140.32 476.852 140.48C477.099 140.64 477.289 140.863 477.422 141.15C477.562 141.437 477.632 141.77 477.632 142.15C477.632 142.53 477.562 142.863 477.422 143.15C477.289 143.437 477.099 143.66 476.852 143.82C476.612 143.98 476.329 144.06 476.002 144.06ZM476.002 143.49C476.302 143.49 476.539 143.373 476.712 143.14C476.892 142.9 476.982 142.57 476.982 142.15C476.982 141.737 476.892 141.41 476.712 141.17C476.539 140.93 476.302 140.81 476.002 140.81C475.702 140.81 475.462 140.93 475.282 141.17C475.109 141.403 475.022 141.73 475.022 142.15C475.022 142.57 475.109 142.9 475.282 143.14C475.462 143.373 475.702 143.49 476.002 143.49ZM461.617 156.08C461.084 156.08 460.574 156 460.087 155.84C459.601 155.673 459.217 155.46 458.937 155.2L459.307 154.42C459.574 154.653 459.914 154.847 460.327 155C460.741 155.153 461.171 155.23 461.617 155.23C462.024 155.23 462.354 155.183 462.607 155.09C462.861 154.997 463.047 154.87 463.167 154.71C463.287 154.543 463.347 154.357 463.347 154.15C463.347 153.91 463.267 153.717 463.107 153.57C462.954 153.423 462.751 153.307 462.497 153.22C462.251 153.127 461.977 153.047 461.677 152.98C461.377 152.913 461.074 152.837 460.767 152.75C460.467 152.657 460.191 152.54 459.937 152.4C459.691 152.26 459.491 152.073 459.337 151.84C459.184 151.6 459.107 151.293 459.107 150.92C459.107 150.56 459.201 150.23 459.387 149.93C459.581 149.623 459.874 149.38 460.267 149.2C460.667 149.013 461.174 148.92 461.787 148.92C462.194 148.92 462.597 148.973 462.997 149.08C463.397 149.187 463.744 149.34 464.037 149.54L463.707 150.34C463.407 150.14 463.091 149.997 462.757 149.91C462.424 149.817 462.101 149.77 461.787 149.77C461.394 149.77 461.071 149.82 460.817 149.92C460.564 150.02 460.377 150.153 460.257 150.32C460.144 150.487 460.087 150.673 460.087 150.88C460.087 151.127 460.164 151.323 460.317 151.47C460.477 151.617 460.681 151.733 460.927 151.82C461.181 151.907 461.457 151.987 461.757 152.06C462.057 152.127 462.357 152.203 462.657 152.29C462.964 152.377 463.241 152.49 463.487 152.63C463.741 152.77 463.944 152.957 464.097 153.19C464.251 153.423 464.327 153.723 464.327 154.09C464.327 154.443 464.231 154.773 464.037 155.08C463.844 155.38 463.544 155.623 463.137 155.81C462.737 155.99 462.231 156.08 461.617 156.08ZM465.788 156V149H466.788V155.13H470.578V156H465.788ZM470.666 156L473.836 149H474.826L478.006 156H476.956L474.126 149.56H474.526L471.696 156H470.666ZM472.016 154.25L472.286 153.45H476.226L476.516 154.25H472.016Z" fill="#285CED"/>
<g opacity="0.8">
<rect x="61" y="243.715" width="24.908" height="108.288" rx="3.58156" fill="#3969ED"/>
<g filter="url(#filter2_d_6120_95351)">
<rect x="94.2108" y="189.566" width="25.6628" height="162.432" rx="3.58156" fill="#3969ED"/>
</g>
<g filter="url(#filter3_d_6120_95351)">
<rect x="128.176" y="135.422" width="24.908" height="216.576" rx="3.58156" fill="#3969ED"/>
</g>
<g filter="url(#filter4_d_6120_95351)">
<rect x="161.387" y="146.164" width="24.908" height="205.836" rx="3.58156" fill="#3969ED"/>
</g>
<g filter="url(#filter5_d_6120_95351)">
<rect x="195.352" y="122" width="24.908" height="230" rx="3.58156" fill="#3969ED"/>
</g>
<g filter="url(#filter6_d_6120_95351)">
<rect x="228.563" y="229.391" width="24.908" height="122.607" rx="3.58156" fill="#3969ED"/>
</g>
<g filter="url(#filter7_d_6120_95351)">
<rect x="328.95" y="229.391" width="24.908" height="122.607" rx="3.58156" fill="#3969ED"/>
</g>
<g filter="url(#filter8_d_6120_95351)">
<rect x="362.916" y="229.391" width="24.908" height="122.607" rx="3.58156" fill="#3969ED"/>
</g>
<g filter="url(#filter9_d_6120_95351)">
<rect x="261.774" y="271.008" width="25.6628" height="80.9921" rx="3.58156" fill="#3969ED"/>
</g>
<g filter="url(#filter10_d_6120_95351)">
<rect x="295.74" y="271.008" width="24.908" height="80.9921" rx="3.58156" fill="#3969ED"/>
</g>
<rect x="396.126" y="243.715" width="24.908" height="108.288" rx="3.58156" fill="#3969ED"/>
<g filter="url(#filter11_d_6120_95351)">
<rect x="429.337" y="189.566" width="25.6628" height="162.432" rx="3.58156" fill="#3969ED"/>
</g>
</g>
<defs>
<filter id="filter0_d_6120_95351" x="0" y="0" width="489" height="468" filterUnits="userSpaceOnUse" color-interpolation-filters="sRGB">
<feFlood flood-opacity="0" result="BackgroundImageFix"/>
<feColorMatrix in="SourceAlpha" type="matrix" values="0 0 0 0 0 0 0 0 0 0 0 0 0 0 0 0 0 0 127 0" result="hardAlpha"/>
<feOffset dy="4"/>
<feGaussianBlur stdDeviation="2"/>
<feComposite in2="hardAlpha" operator="out"/>
<feColorMatrix type="matrix" values="0 0 0 0 0 0 0 0 0 0 0 0 0 0 0 0 0 0 0.25 0"/>
<feBlend mode="normal" in2="BackgroundImageFix" result="effect1_dropShadow_6120_95351"/>
<feBlend mode="normal" in="SourceGraphic" in2="effect1_dropShadow_6120_95351" result="shape"/>
</filter>
<filter id="filter1_d_6120_95351" x="57.9994" y="139.5" width="401.001" height="9" filterUnits="userSpaceOnUse" color-interpolation-filters="sRGB">
<feFlood flood-opacity="0" result="BackgroundImageFix"/>
<feColorMatrix in="SourceAlpha" type="matrix" values="0 0 0 0 0 0 0 0 0 0 0 0 0 0 0 0 0 0 127 0" result="hardAlpha"/>
<feOffset dy="4"/>
<feGaussianBlur stdDeviation="2"/>
<feComposite in2="hardAlpha" operator="out"/>
<feColorMatrix type="matrix" values="0 0 0 0 0 0 0 0 0 0 0 0 0 0 0 0 0 0 0.25 0"/>
<feBlend mode="normal" in2="BackgroundImageFix" result="effect1_dropShadow_6120_95351"/>
<feBlend mode="normal" in="SourceGraphic" in2="effect1_dropShadow_6120_95351" result="shape"/>
</filter>
<filter id="filter2_d_6120_95351" x="69.1399" y="178.822" width="61.4784" height="198.249" filterUnits="userSpaceOnUse" color-interpolation-filters="sRGB">
<feFlood flood-opacity="0" result="BackgroundImageFix"/>
<feColorMatrix in="SourceAlpha" type="matrix" values="0 0 0 0 0 0 0 0 0 0 0 0 0 0 0 0 0 0 127 0" result="hardAlpha"/>
<feOffset dx="-7.16312" dy="7.16312"/>
<feGaussianBlur stdDeviation="8.9539"/>
<feColorMatrix type="matrix" values="0 0 0 0 0.156863 0 0 0 0 0.360784 0 0 0 0 0.929412 0 0 0 0.15 0"/>
<feBlend mode="normal" in2="BackgroundImageFix" result="effect1_dropShadow_6120_95351"/>
<feBlend mode="normal" in="SourceGraphic" in2="effect1_dropShadow_6120_95351" result="shape"/>
</filter>
<filter id="filter3_d_6120_95351" x="103.105" y="124.677" width="60.7237" height="252.39" filterUnits="userSpaceOnUse" color-interpolation-filters="sRGB">
<feFlood flood-opacity="0" result="BackgroundImageFix"/>
<feColorMatrix in="SourceAlpha" type="matrix" values="0 0 0 0 0 0 0 0 0 0 0 0 0 0 0 0 0 0 127 0" result="hardAlpha"/>
<feOffset dx="-7.16312" dy="7.16312"/>
<feGaussianBlur stdDeviation="8.9539"/>
<feColorMatrix type="matrix" values="0 0 0 0 0.156863 0 0 0 0 0.360784 0 0 0 0 0.929412 0 0 0 0.15 0"/>
<feBlend mode="normal" in2="BackgroundImageFix" result="effect1_dropShadow_6120_95351"/>
<feBlend mode="normal" in="SourceGraphic" in2="effect1_dropShadow_6120_95351" result="shape"/>
</filter>
<filter id="filter4_d_6120_95351" x="136.316" y="135.419" width="60.7237" height="241.652" filterUnits="userSpaceOnUse" color-interpolation-filters="sRGB">
<feFlood flood-opacity="0" result="BackgroundImageFix"/>
<feColorMatrix in="SourceAlpha" type="matrix" values="0 0 0 0 0 0 0 0 0 0 0 0 0 0 0 0 0 0 127 0" result="hardAlpha"/>
<feOffset dx="-7.16312" dy="7.16312"/>
<feGaussianBlur stdDeviation="8.9539"/>
<feColorMatrix type="matrix" values="0 0 0 0 0.156863 0 0 0 0 0.360784 0 0 0 0 0.929412 0 0 0 0.15 0"/>
<feBlend mode="normal" in2="BackgroundImageFix" result="effect1_dropShadow_6120_95351"/>
<feBlend mode="normal" in="SourceGraphic" in2="effect1_dropShadow_6120_95351" result="shape"/>
</filter>
<filter id="filter5_d_6120_95351" x="170.281" y="111.255" width="60.7237" height="265.816" filterUnits="userSpaceOnUse" color-interpolation-filters="sRGB">
<feFlood flood-opacity="0" result="BackgroundImageFix"/>
<feColorMatrix in="SourceAlpha" type="matrix" values="0 0 0 0 0 0 0 0 0 0 0 0 0 0 0 0 0 0 127 0" result="hardAlpha"/>
<feOffset dx="-7.16312" dy="7.16312"/>
<feGaussianBlur stdDeviation="8.9539"/>
<feColorMatrix type="matrix" values="0 0 0 0 0.156863 0 0 0 0 0.360784 0 0 0 0 0.929412 0 0 0 0.15 0"/>
<feBlend mode="normal" in2="BackgroundImageFix" result="effect1_dropShadow_6120_95351"/>
<feBlend mode="normal" in="SourceGraphic" in2="effect1_dropShadow_6120_95351" result="shape"/>
</filter>
<filter id="filter6_d_6120_95351" x="203.492" y="218.646" width="60.7237" height="158.421" filterUnits="userSpaceOnUse" color-interpolation-filters="sRGB">
<feFlood flood-opacity="0" result="BackgroundImageFix"/>
<feColorMatrix in="SourceAlpha" type="matrix" values="0 0 0 0 0 0 0 0 0 0 0 0 0 0 0 0 0 0 127 0" result="hardAlpha"/>
<feOffset dx="-7.16312" dy="7.16312"/>
<feGaussianBlur stdDeviation="8.9539"/>
<feColorMatrix type="matrix" values="0 0 0 0 0.156863 0 0 0 0 0.360784 0 0 0 0 0.929412 0 0 0 0.15 0"/>
<feBlend mode="normal" in2="BackgroundImageFix" result="effect1_dropShadow_6120_95351"/>
<feBlend mode="normal" in="SourceGraphic" in2="effect1_dropShadow_6120_95351" result="shape"/>
</filter>
<filter id="filter7_d_6120_95351" x="303.879" y="218.646" width="60.7237" height="158.421" filterUnits="userSpaceOnUse" color-interpolation-filters="sRGB">
<feFlood flood-opacity="0" result="BackgroundImageFix"/>
<feColorMatrix in="SourceAlpha" type="matrix" values="0 0 0 0 0 0 0 0 0 0 0 0 0 0 0 0 0 0 127 0" result="hardAlpha"/>
<feOffset dx="-7.16312" dy="7.16312"/>
<feGaussianBlur stdDeviation="8.9539"/>
<feColorMatrix type="matrix" values="0 0 0 0 0.156863 0 0 0 0 0.360784 0 0 0 0 0.929412 0 0 0 0.15 0"/>
<feBlend mode="normal" in2="BackgroundImageFix" result="effect1_dropShadow_6120_95351"/>
<feBlend mode="normal" in="SourceGraphic" in2="effect1_dropShadow_6120_95351" result="shape"/>
</filter>
<filter id="filter8_d_6120_95351" x="337.845" y="218.646" width="60.7237" height="158.421" filterUnits="userSpaceOnUse" color-interpolation-filters="sRGB">
<feFlood flood-opacity="0" result="BackgroundImageFix"/>
<feColorMatrix in="SourceAlpha" type="matrix" values="0 0 0 0 0 0 0 0 0 0 0 0 0 0 0 0 0 0 127 0" result="hardAlpha"/>
<feOffset dx="-7.16312" dy="7.16312"/>
<feGaussianBlur stdDeviation="8.9539"/>
<feColorMatrix type="matrix" values="0 0 0 0 0.156863 0 0 0 0 0.360784 0 0 0 0 0.929412 0 0 0 0.15 0"/>
<feBlend mode="normal" in2="BackgroundImageFix" result="effect1_dropShadow_6120_95351"/>
<feBlend mode="normal" in="SourceGraphic" in2="effect1_dropShadow_6120_95351" result="shape"/>
</filter>
<filter id="filter9_d_6120_95351" x="236.703" y="260.263" width="61.4784" height="116.808" filterUnits="userSpaceOnUse" color-interpolation-filters="sRGB">
<feFlood flood-opacity="0" result="BackgroundImageFix"/>
<feColorMatrix in="SourceAlpha" type="matrix" values="0 0 0 0 0 0 0 0 0 0 0 0 0 0 0 0 0 0 127 0" result="hardAlpha"/>
<feOffset dx="-7.16312" dy="7.16312"/>
<feGaussianBlur stdDeviation="8.9539"/>
<feColorMatrix type="matrix" values="0 0 0 0 0.156863 0 0 0 0 0.360784 0 0 0 0 0.929412 0 0 0 0.15 0"/>
<feBlend mode="normal" in2="BackgroundImageFix" result="effect1_dropShadow_6120_95351"/>
<feBlend mode="normal" in="SourceGraphic" in2="effect1_dropShadow_6120_95351" result="shape"/>
</filter>
<filter id="filter10_d_6120_95351" x="270.669" y="260.263" width="60.7237" height="116.808" filterUnits="userSpaceOnUse" color-interpolation-filters="sRGB">
<feFlood flood-opacity="0" result="BackgroundImageFix"/>
<feColorMatrix in="SourceAlpha" type="matrix" values="0 0 0 0 0 0 0 0 0 0 0 0 0 0 0 0 0 0 127 0" result="hardAlpha"/>
<feOffset dx="-7.16312" dy="7.16312"/>
<feGaussianBlur stdDeviation="8.9539"/>
<feColorMatrix type="matrix" values="0 0 0 0 0.156863 0 0 0 0 0.360784 0 0 0 0 0.929412 0 0 0 0.15 0"/>
<feBlend mode="normal" in2="BackgroundImageFix" result="effect1_dropShadow_6120_95351"/>
<feBlend mode="normal" in="SourceGraphic" in2="effect1_dropShadow_6120_95351" result="shape"/>
</filter>
<filter id="filter11_d_6120_95351" x="404.266" y="178.822" width="61.4784" height="198.249" filterUnits="userSpaceOnUse" color-interpolation-filters="sRGB">
<feFlood flood-opacity="0" result="BackgroundImageFix"/>
<feColorMatrix in="SourceAlpha" type="matrix" values="0 0 0 0 0 0 0 0 0 0 0 0 0 0 0 0 0 0 127 0" result="hardAlpha"/>
<feOffset dx="-7.16312" dy="7.16312"/>
<feGaussianBlur stdDeviation="8.9539"/>
<feColorMatrix type="matrix" values="0 0 0 0 0.156863 0 0 0 0 0.360784 0 0 0 0 0.929412 0 0 0 0.15 0"/>
<feBlend mode="normal" in2="BackgroundImageFix" result="effect1_dropShadow_6120_95351"/>
<feBlend mode="normal" in="SourceGraphic" in2="effect1_dropShadow_6120_95351" result="shape"/>
</filter>
</defs>
</svg>
