<svg width="490" height="468" viewBox="0 0 490 468" fill="none" xmlns="http://www.w3.org/2000/svg">
<g filter="url(#filter0_d_4111_40595)">
<rect x="4" width="481" height="460" rx="10" fill="#212238"/>
<rect x="4.5" y="0.5" width="480" height="459" rx="9.5" stroke="#354A5E"/>
</g>
<path d="M31.736 28.16C30.8613 28.16 30.056 28.0213 29.32 27.744C28.5947 27.456 27.96 27.056 27.416 26.544C26.872 26.0213 26.4507 25.408 26.152 24.704C25.8533 24 25.704 23.232 25.704 22.4C25.704 21.568 25.8533 20.8 26.152 20.096C26.4507 19.392 26.872 18.784 27.416 18.272C27.9707 17.7493 28.616 17.3493 29.352 17.072C30.088 16.784 30.8933 16.64 31.768 16.64C32.7173 16.64 33.5707 16.7947 34.328 17.104C35.096 17.4133 35.7413 17.8667 36.264 18.464L34.952 19.744C34.5147 19.3067 34.04 18.9867 33.528 18.784C33.0267 18.5707 32.472 18.464 31.864 18.464C31.2773 18.464 30.7333 18.56 30.232 18.752C29.7307 18.944 29.2987 19.216 28.936 19.568C28.5733 19.92 28.2907 20.336 28.088 20.816C27.896 21.296 27.8 21.824 27.8 22.4C27.8 22.9653 27.896 23.488 28.088 23.968C28.2907 24.448 28.5733 24.8693 28.936 25.232C29.2987 25.584 29.7253 25.856 30.216 26.048C30.7067 26.24 31.2507 26.336 31.848 26.336C32.4027 26.336 32.936 26.2507 33.448 26.08C33.9707 25.8987 34.4667 25.6 34.936 25.184L36.12 26.736C35.5333 27.2053 34.8507 27.5627 34.072 27.808C33.304 28.0427 32.5253 28.16 31.736 28.16ZM34.152 26.464V22.272H36.12V26.736L34.152 26.464ZM38.6714 28V19.456H40.5754V21.808L40.3514 21.12C40.6074 20.544 41.0074 20.1067 41.5514 19.808C42.106 19.5093 42.794 19.36 43.6154 19.36V21.264C43.53 21.2427 43.45 21.232 43.3754 21.232C43.3007 21.2213 43.226 21.216 43.1514 21.216C42.394 21.216 41.7914 21.44 41.3434 21.888C40.8954 22.3253 40.6714 22.9813 40.6714 23.856V28H38.6714ZM49.9666 28V26.272L49.8546 25.904V22.88C49.8546 22.2933 49.6786 21.84 49.3266 21.52C48.9746 21.1893 48.4413 21.024 47.7266 21.024C47.2466 21.024 46.772 21.0987 46.3026 21.248C45.844 21.3973 45.4546 21.6053 45.1346 21.872L44.3506 20.416C44.8093 20.064 45.3533 19.8027 45.9826 19.632C46.6226 19.4507 47.284 19.36 47.9666 19.36C49.204 19.36 50.1586 19.6587 50.8306 20.256C51.5133 20.8427 51.8546 21.7547 51.8546 22.992V28H49.9666ZM47.2786 28.112C46.6386 28.112 46.0786 28.0053 45.5986 27.792C45.1186 27.568 44.7453 27.264 44.4786 26.88C44.2226 26.4853 44.0946 26.0427 44.0946 25.552C44.0946 25.072 44.2066 24.64 44.4306 24.256C44.6653 23.872 45.044 23.568 45.5666 23.344C46.0893 23.12 46.7826 23.008 47.6466 23.008H50.1266V24.336H47.7906C47.108 24.336 46.6493 24.448 46.4146 24.672C46.18 24.8853 46.0626 25.152 46.0626 25.472C46.0626 25.8347 46.2066 26.1227 46.4946 26.336C46.7826 26.5493 47.1826 26.656 47.6946 26.656C48.1853 26.656 48.6226 26.544 49.0066 26.32C49.4013 26.096 49.684 25.7653 49.8546 25.328L50.1906 26.528C49.9986 27.0293 49.652 27.4187 49.1506 27.696C48.66 27.9733 48.036 28.112 47.2786 28.112ZM46.7986 18.288L48.9586 16.096H51.3106L48.5266 18.288H46.7986ZM54.6934 28V18.976C54.6934 18.08 54.9547 17.3653 55.4774 16.832C56.0107 16.288 56.768 16.016 57.7494 16.016C58.1014 16.016 58.432 16.0533 58.7414 16.128C59.0614 16.2027 59.328 16.32 59.5414 16.48L58.9974 17.984C58.848 17.8667 58.6774 17.7813 58.4854 17.728C58.2934 17.664 58.096 17.632 57.8934 17.632C57.4774 17.632 57.1627 17.7493 56.9494 17.984C56.736 18.208 56.6294 18.5493 56.6294 19.008V19.968L56.6934 20.864V28H54.6934ZM53.2854 21.12V19.52H58.9814V21.12H53.2854ZM60.3745 28V19.456H62.3745V28H60.3745ZM61.3825 18.048C61.0092 18.048 60.6998 17.9307 60.4545 17.696C60.2198 17.4613 60.1025 17.1787 60.1025 16.848C60.1025 16.5067 60.2198 16.224 60.4545 16C60.6998 15.7653 61.0092 15.648 61.3825 15.648C61.7558 15.648 62.0598 15.76 62.2945 15.984C62.5398 16.1973 62.6625 16.4693 62.6625 16.8C62.6625 17.152 62.5452 17.4507 62.3105 17.696C62.0758 17.9307 61.7665 18.048 61.3825 18.048ZM68.9195 28.112C68.0235 28.112 67.2235 27.9253 66.5195 27.552C65.8262 27.168 65.2822 26.6453 64.8875 25.984C64.4928 25.3227 64.2955 24.5707 64.2955 23.728C64.2955 22.8747 64.4928 22.1227 64.8875 21.472C65.2822 20.8107 65.8262 20.2933 66.5195 19.92C67.2235 19.5467 68.0235 19.36 68.9195 19.36C69.7515 19.36 70.4822 19.5307 71.1115 19.872C71.7515 20.2027 72.2368 20.6933 72.5675 21.344L71.0315 22.24C70.7755 21.8347 70.4608 21.536 70.0875 21.344C69.7248 21.152 69.3302 21.056 68.9035 21.056C68.4128 21.056 67.9702 21.1627 67.5755 21.376C67.1808 21.5893 66.8715 21.8987 66.6475 22.304C66.4235 22.6987 66.3115 23.1733 66.3115 23.728C66.3115 24.2827 66.4235 24.7627 66.6475 25.168C66.8715 25.5627 67.1808 25.8667 67.5755 26.08C67.9702 26.2933 68.4128 26.4 68.9035 26.4C69.3302 26.4 69.7248 26.304 70.0875 26.112C70.4608 25.92 70.7755 25.6213 71.0315 25.216L72.5675 26.112C72.2368 26.752 71.7515 27.248 71.1115 27.6C70.4822 27.9413 69.7515 28.112 68.9195 28.112ZM78.0114 28.112C77.1367 28.112 76.358 27.9253 75.6754 27.552C74.9927 27.168 74.454 26.6453 74.0594 25.984C73.6647 25.3227 73.4674 24.5707 73.4674 23.728C73.4674 22.8747 73.6647 22.1227 74.0594 21.472C74.454 20.8107 74.9927 20.2933 75.6754 19.92C76.358 19.5467 77.1367 19.36 78.0114 19.36C78.8967 19.36 79.6807 19.5467 80.3634 19.92C81.0567 20.2933 81.5954 20.8053 81.9794 21.456C82.374 22.1067 82.5714 22.864 82.5714 23.728C82.5714 24.5707 82.374 25.3227 81.9794 25.984C81.5954 26.6453 81.0567 27.168 80.3634 27.552C79.6807 27.9253 78.8967 28.112 78.0114 28.112ZM78.0114 26.4C78.502 26.4 78.9394 26.2933 79.3234 26.08C79.7074 25.8667 80.006 25.5573 80.2194 25.152C80.4434 24.7467 80.5554 24.272 80.5554 23.728C80.5554 23.1733 80.4434 22.6987 80.2194 22.304C80.006 21.8987 79.7074 21.5893 79.3234 21.376C78.9394 21.1627 78.5074 21.056 78.0274 21.056C77.5367 21.056 77.0994 21.1627 76.7154 21.376C76.342 21.5893 76.0434 21.8987 75.8194 22.304C75.5954 22.6987 75.4834 23.1733 75.4834 23.728C75.4834 24.272 75.5954 24.7467 75.8194 25.152C76.0434 25.5573 76.342 25.8667 76.7154 26.08C77.0994 26.2933 77.5314 26.4 78.0114 26.4ZM92.5218 28.112C91.7004 28.112 90.9591 27.9307 90.2978 27.568C89.6471 27.1947 89.1351 26.6827 88.7618 26.032C88.3884 25.3813 88.2018 24.6133 88.2018 23.728C88.2018 22.8427 88.3884 22.0747 88.7618 21.424C89.1351 20.7733 89.6471 20.2667 90.2978 19.904C90.9591 19.5413 91.7004 19.36 92.5218 19.36C93.2364 19.36 93.8764 19.52 94.4418 19.84C95.0071 20.1493 95.4551 20.624 95.7858 21.264C96.1164 21.904 96.2818 22.7253 96.2818 23.728C96.2818 24.72 96.1218 25.5413 95.8018 26.192C95.4818 26.832 95.0391 27.312 94.4738 27.632C93.9084 27.952 93.2578 28.112 92.5218 28.112ZM92.7618 26.4C93.2418 26.4 93.6684 26.2933 94.0418 26.08C94.4258 25.8667 94.7298 25.5573 94.9538 25.152C95.1884 24.7467 95.3058 24.272 95.3058 23.728C95.3058 23.1733 95.1884 22.6987 94.9538 22.304C94.7298 21.8987 94.4258 21.5893 94.0418 21.376C93.6684 21.1627 93.2418 21.056 92.7618 21.056C92.2818 21.056 91.8498 21.1627 91.4658 21.376C91.0924 21.5893 90.7884 21.8987 90.5538 22.304C90.3298 22.6987 90.2178 23.1733 90.2178 23.728C90.2178 24.272 90.3298 24.7467 90.5538 25.152C90.7884 25.5573 91.0924 25.8667 91.4658 26.08C91.8498 26.2933 92.2818 26.4 92.7618 26.4ZM95.3538 28V25.984L95.4338 23.712L95.2738 21.44V16.128H97.2578V28H95.3538ZM103.906 28.112C102.957 28.112 102.125 27.9253 101.41 27.552C100.706 27.168 100.157 26.6453 99.7621 25.984C99.3781 25.3227 99.1861 24.5707 99.1861 23.728C99.1861 22.8747 99.3728 22.1227 99.7461 21.472C100.13 20.8107 100.653 20.2933 101.314 19.92C101.986 19.5467 102.749 19.36 103.602 19.36C104.434 19.36 105.175 19.5413 105.826 19.904C106.477 20.2667 106.989 20.7787 107.362 21.44C107.735 22.1013 107.922 22.88 107.922 23.776C107.922 23.8613 107.917 23.9573 107.906 24.064C107.906 24.1707 107.901 24.272 107.89 24.368H100.77V23.04H106.834L106.05 23.456C106.061 22.9653 105.959 22.5333 105.746 22.16C105.533 21.7867 105.239 21.4933 104.866 21.28C104.503 21.0667 104.082 20.96 103.602 20.96C103.111 20.96 102.679 21.0667 102.306 21.28C101.943 21.4933 101.655 21.792 101.442 22.176C101.239 22.5493 101.138 22.992 101.138 23.504V23.824C101.138 24.336 101.255 24.7893 101.49 25.184C101.725 25.5787 102.055 25.8827 102.482 26.096C102.909 26.3093 103.399 26.416 103.954 26.416C104.434 26.416 104.866 26.3413 105.25 26.192C105.634 26.0427 105.975 25.808 106.274 25.488L107.346 26.72C106.962 27.168 106.477 27.5147 105.89 27.76C105.314 27.9947 104.653 28.112 103.906 28.112ZM116.537 28L112.873 19.456H114.953L118.105 26.992H117.081L120.345 19.456H122.265L118.601 28H116.537ZM127.297 28.112C126.347 28.112 125.515 27.9253 124.801 27.552C124.097 27.168 123.547 26.6453 123.153 25.984C122.769 25.3227 122.577 24.5707 122.577 23.728C122.577 22.8747 122.763 22.1227 123.137 21.472C123.521 20.8107 124.043 20.2933 124.705 19.92C125.377 19.5467 126.139 19.36 126.993 19.36C127.825 19.36 128.566 19.5413 129.217 19.904C129.867 20.2667 130.379 20.7787 130.753 21.44C131.126 22.1013 131.313 22.88 131.313 23.776C131.313 23.8613 131.307 23.9573 131.297 24.064C131.297 24.1707 131.291 24.272 131.281 24.368H124.161V23.04H130.225L129.441 23.456C129.451 22.9653 129.35 22.5333 129.137 22.16C128.923 21.7867 128.63 21.4933 128.257 21.28C127.894 21.0667 127.473 20.96 126.993 20.96C126.502 20.96 126.07 21.0667 125.697 21.28C125.334 21.4933 125.046 21.792 124.833 22.176C124.63 22.5493 124.529 22.992 124.529 23.504V23.824C124.529 24.336 124.646 24.7893 124.881 25.184C125.115 25.5787 125.446 25.8827 125.873 26.096C126.299 26.3093 126.79 26.416 127.345 26.416C127.825 26.416 128.257 26.3413 128.641 26.192C129.025 26.0427 129.366 25.808 129.665 25.488L130.737 26.72C130.353 27.168 129.867 27.5147 129.281 27.76C128.705 27.9947 128.043 28.112 127.297 28.112ZM133.234 28V16.128H135.234V28H133.234ZM143.123 28V26.272L143.011 25.904V22.88C143.011 22.2933 142.835 21.84 142.483 21.52C142.131 21.1893 141.598 21.024 140.883 21.024C140.403 21.024 139.928 21.0987 139.459 21.248C139 21.3973 138.611 21.6053 138.291 21.872L137.507 20.416C137.966 20.064 138.51 19.8027 139.139 19.632C139.779 19.4507 140.44 19.36 141.123 19.36C142.36 19.36 143.315 19.6587 143.987 20.256C144.67 20.8427 145.011 21.7547 145.011 22.992V28H143.123ZM140.435 28.112C139.795 28.112 139.235 28.0053 138.755 27.792C138.275 27.568 137.902 27.264 137.635 26.88C137.379 26.4853 137.251 26.0427 137.251 25.552C137.251 25.072 137.363 24.64 137.587 24.256C137.822 23.872 138.2 23.568 138.723 23.344C139.246 23.12 139.939 23.008 140.803 23.008H143.283V24.336H140.947C140.264 24.336 139.806 24.448 139.571 24.672C139.336 24.8853 139.219 25.152 139.219 25.472C139.219 25.8347 139.363 26.1227 139.651 26.336C139.939 26.5493 140.339 26.656 140.851 26.656C141.342 26.656 141.779 26.544 142.163 26.32C142.558 26.096 142.84 25.7653 143.011 25.328L143.347 26.528C143.155 27.0293 142.808 27.4187 142.307 27.696C141.816 27.9733 141.192 28.112 140.435 28.112ZM150.218 28.112C149.503 28.112 148.815 28.0213 148.154 27.84C147.503 27.648 146.986 27.4187 146.602 27.152L147.37 25.632C147.754 25.8773 148.212 26.08 148.746 26.24C149.279 26.4 149.812 26.48 150.346 26.48C150.975 26.48 151.428 26.3947 151.706 26.224C151.994 26.0533 152.138 25.824 152.138 25.536C152.138 25.3013 152.042 25.1253 151.85 25.008C151.658 24.88 151.407 24.784 151.098 24.72C150.788 24.656 150.442 24.5973 150.058 24.544C149.684 24.4907 149.306 24.4213 148.922 24.336C148.548 24.24 148.207 24.1067 147.898 23.936C147.588 23.7547 147.338 23.5147 147.146 23.216C146.954 22.9173 146.858 22.5227 146.858 22.032C146.858 21.488 147.012 21.0187 147.322 20.624C147.631 20.2187 148.063 19.9093 148.618 19.696C149.183 19.472 149.85 19.36 150.618 19.36C151.194 19.36 151.775 19.424 152.362 19.552C152.948 19.68 153.434 19.8613 153.818 20.096L153.05 21.616C152.644 21.3707 152.234 21.2053 151.818 21.12C151.412 21.024 151.007 20.976 150.602 20.976C149.994 20.976 149.54 21.0667 149.242 21.248C148.954 21.4293 148.81 21.6587 148.81 21.936C148.81 22.192 148.906 22.384 149.098 22.512C149.29 22.64 149.54 22.7413 149.85 22.816C150.159 22.8907 150.5 22.9547 150.874 23.008C151.258 23.0507 151.636 23.12 152.01 23.216C152.383 23.312 152.724 23.4453 153.034 23.616C153.354 23.776 153.61 24.0053 153.802 24.304C153.994 24.6027 154.09 24.992 154.09 25.472C154.09 26.0053 153.93 26.4693 153.61 26.864C153.3 27.2587 152.858 27.568 152.282 27.792C151.706 28.0053 151.018 28.112 150.218 28.112Z" fill="#D0D0CE"/>
<path d="M20.9384 149.188C21.832 149.188 22.6013 149.373 23.2462 149.741C23.891 150.11 24.3885 150.648 24.7386 151.358C25.0887 152.058 25.2637 152.933 25.2637 153.983C25.2637 155.098 25.0518 156.042 24.6281 156.816C24.2135 157.59 23.6377 158.18 22.9007 158.585C22.1637 158.99 21.3069 159.193 20.3304 159.193C19.8237 159.193 19.3354 159.138 18.8656 159.027C18.3957 158.917 17.9904 158.751 17.6495 158.53L18.4786 156.885C18.7458 157.07 19.0314 157.199 19.3354 157.272C19.6394 157.337 19.9573 157.369 20.2889 157.369C21.118 157.369 21.7767 157.116 22.265 156.609C22.7625 156.102 23.0112 155.352 23.0112 154.357C23.0112 154.191 23.0066 154.006 22.9974 153.804C22.9882 153.601 22.9652 153.398 22.9283 153.196L23.5364 153.776C23.3797 154.135 23.1586 154.439 22.8731 154.688C22.5875 154.928 22.2558 155.112 21.8781 155.241C21.5004 155.361 21.0766 155.421 20.6067 155.421C19.9895 155.421 19.4275 155.296 18.9208 155.047C18.4234 154.799 18.0226 154.449 17.7186 153.997C17.4238 153.546 17.2764 153.016 17.2764 152.408C17.2764 151.745 17.4376 151.174 17.76 150.695C18.0917 150.215 18.5339 149.847 19.0867 149.589C19.6486 149.322 20.2659 149.188 20.9384 149.188ZM21.0766 150.86C20.7541 150.86 20.4732 150.92 20.2336 151.04C19.9941 151.151 19.8052 151.316 19.6671 151.537C19.5289 151.749 19.4598 152.003 19.4598 152.298C19.4598 152.74 19.6072 153.094 19.902 153.362C20.206 153.62 20.6067 153.749 21.1042 153.749C21.4267 153.749 21.7123 153.689 21.961 153.569C22.219 153.44 22.417 153.265 22.5552 153.044C22.6934 152.823 22.7625 152.574 22.7625 152.298C22.7625 152.021 22.6934 151.777 22.5552 151.565C22.4262 151.344 22.2374 151.174 21.9886 151.054C21.7399 150.925 21.4359 150.86 21.0766 150.86ZM30.4834 159.193C29.6911 159.193 28.9817 159 28.3553 158.613C27.7288 158.217 27.2359 157.645 26.8767 156.899C26.5174 156.153 26.3377 155.25 26.3377 154.191C26.3377 153.131 26.5174 152.228 26.8767 151.482C27.2359 150.736 27.7288 150.169 28.3553 149.782C28.9817 149.386 29.6911 149.188 30.4834 149.188C31.2849 149.188 31.9943 149.386 32.6115 149.782C33.238 150.169 33.7309 150.736 34.0901 151.482C34.4494 152.228 34.6291 153.131 34.6291 154.191C34.6291 155.25 34.4494 156.153 34.0901 156.899C33.7309 157.645 33.238 158.217 32.6115 158.613C31.9943 159 31.2849 159.193 30.4834 159.193ZM30.4834 157.3C30.8611 157.3 31.1882 157.194 31.4645 156.982C31.7501 156.77 31.9712 156.434 32.1279 155.973C32.2937 155.513 32.3766 154.919 32.3766 154.191C32.3766 153.463 32.2937 152.869 32.1279 152.408C31.9712 151.947 31.7501 151.611 31.4645 151.399C31.1882 151.187 30.8611 151.081 30.4834 151.081C30.1149 151.081 29.7878 151.187 29.5023 151.399C29.2259 151.611 29.0048 151.947 28.8389 152.408C28.6823 152.869 28.604 153.463 28.604 154.191C28.604 154.919 28.6823 155.513 28.8389 155.973C29.0048 156.434 29.2259 156.77 29.5023 156.982C29.7878 157.194 30.1149 157.3 30.4834 157.3ZM44.9092 159.193C44.1445 159.193 43.4398 159.073 42.7949 158.834C42.1592 158.585 41.6019 158.235 41.1228 157.784C40.653 157.332 40.2845 156.802 40.0173 156.194C39.7593 155.586 39.6304 154.919 39.6304 154.191C39.6304 153.463 39.7593 152.795 40.0173 152.187C40.2845 151.579 40.6576 151.049 41.1366 150.598C41.6157 150.146 42.1776 149.801 42.8225 149.561C43.4674 149.313 44.1768 149.188 44.9506 149.188C45.8074 149.188 46.5767 149.331 47.2584 149.617C47.9494 149.902 48.5298 150.317 48.9996 150.86L47.5624 152.187C47.2123 151.818 46.83 151.547 46.4155 151.372C46.0009 151.187 45.5495 151.095 45.0612 151.095C44.5914 151.095 44.163 151.169 43.776 151.316C43.3891 151.464 43.0528 151.676 42.7673 151.952C42.4909 152.228 42.2744 152.555 42.1178 152.933C41.9704 153.311 41.8967 153.73 41.8967 154.191C41.8967 154.642 41.9704 155.057 42.1178 155.434C42.2744 155.812 42.4909 156.144 42.7673 156.429C43.0528 156.706 43.3845 156.918 43.7622 157.065C44.1491 157.212 44.5729 157.286 45.0336 157.286C45.4758 157.286 45.9042 157.217 46.3187 157.079C46.7425 156.931 47.1525 156.687 47.5486 156.346L48.82 157.963C48.2948 158.359 47.6822 158.663 46.982 158.875C46.2911 159.087 45.6001 159.193 44.9092 159.193ZM46.7747 157.673V154.039H48.82V157.963L46.7747 157.673ZM50.8995 159.027V149.354H55.6256C56.8416 149.354 57.7537 149.584 58.3617 150.045C58.979 150.506 59.2876 151.114 59.2876 151.869C59.2876 152.376 59.1632 152.818 58.9145 153.196C58.6657 153.564 58.3249 153.85 57.8919 154.053C57.4589 154.255 56.9614 154.357 56.3994 154.357L56.662 153.79C57.27 153.79 57.809 153.891 58.2788 154.094C58.7486 154.287 59.1125 154.578 59.3705 154.965C59.6377 155.352 59.7712 155.826 59.7712 156.388C59.7712 157.217 59.4442 157.867 58.7901 158.336C58.136 158.797 57.1733 159.027 55.9019 159.027H50.8995ZM53.1243 157.341H55.7361C56.3165 157.341 56.7541 157.249 57.0489 157.065C57.3529 156.872 57.5049 156.568 57.5049 156.153C57.5049 155.748 57.3529 155.448 57.0489 155.255C56.7541 155.052 56.3165 154.951 55.7361 154.951H52.9585V153.32H55.3492C55.8927 153.32 56.3073 153.228 56.5929 153.044C56.8877 152.85 57.0351 152.56 57.0351 152.173C57.0351 151.795 56.8877 151.514 56.5929 151.33C56.3073 151.137 55.8927 151.04 55.3492 151.04H53.1243V157.341Z" fill="#3969ED"/>
<path d="M21.3944 231.11C20.6206 231.11 19.9526 231 19.3907 230.779C18.8379 230.557 18.4095 230.24 18.1055 229.825C17.8107 229.401 17.6633 228.904 17.6633 228.333C17.6633 227.78 17.8061 227.31 18.0917 226.923C18.3865 226.527 18.8103 226.223 19.363 226.011C19.925 225.799 20.6021 225.693 21.3944 225.693C22.1775 225.693 22.85 225.799 23.412 226.011C23.974 226.223 24.4023 226.527 24.6972 226.923C25.0012 227.31 25.1532 227.78 25.1532 228.333C25.1532 228.904 25.0012 229.401 24.6972 229.825C24.3931 230.24 23.9601 230.557 23.3982 230.779C22.8362 231 22.1683 231.11 21.3944 231.11ZM21.3944 230.267C22.2512 230.267 22.9191 230.092 23.3982 229.742C23.8864 229.392 24.1306 228.918 24.1306 228.319C24.1306 227.72 23.8864 227.25 23.3982 226.909C22.9191 226.559 22.2512 226.384 21.3944 226.384C20.5376 226.384 19.8697 226.559 19.3907 226.909C18.9116 227.25 18.6721 227.72 18.6721 228.319C18.6721 228.918 18.9116 229.392 19.3907 229.742C19.8697 230.092 20.5376 230.267 21.3944 230.267ZM21.3944 226.26C20.6758 226.26 20.0632 226.163 19.5565 225.97C19.059 225.776 18.6767 225.5 18.4095 225.14C18.1424 224.772 18.0088 224.334 18.0088 223.828C18.0088 223.293 18.147 222.837 18.4234 222.46C18.7089 222.073 19.1051 221.778 19.6118 221.575C20.1185 221.373 20.7127 221.271 21.3944 221.271C22.0762 221.271 22.6704 221.373 23.1771 221.575C23.693 221.778 24.0937 222.073 24.3793 222.46C24.6649 222.837 24.8077 223.293 24.8077 223.828C24.8077 224.334 24.6741 224.772 24.407 225.14C24.1398 225.5 23.7483 225.776 23.2323 225.97C22.7256 226.163 22.113 226.26 21.3944 226.26ZM21.3944 225.596C22.1499 225.596 22.7395 225.44 23.1632 225.127C23.587 224.813 23.7989 224.394 23.7989 223.869C23.7989 223.316 23.5778 222.888 23.1356 222.584C22.7026 222.271 22.1222 222.114 21.3944 222.114C20.6666 222.114 20.0862 222.271 19.6532 222.584C19.2202 222.888 19.0037 223.312 19.0037 223.855C19.0037 224.39 19.211 224.813 19.6256 225.127C20.0494 225.44 20.639 225.596 21.3944 225.596ZM30.3863 231.11C29.6401 231.11 28.9768 230.917 28.3964 230.53C27.816 230.134 27.36 229.572 27.0283 228.844C26.6967 228.107 26.5309 227.223 26.5309 226.191C26.5309 225.159 26.6967 224.279 27.0283 223.551C27.36 222.814 27.816 222.252 28.3964 221.865C28.9768 221.469 29.6401 221.271 30.3863 221.271C31.1326 221.271 31.7959 221.469 32.3763 221.865C32.9567 222.252 33.4127 222.814 33.7443 223.551C34.0852 224.279 34.2556 225.159 34.2556 226.191C34.2556 227.223 34.0852 228.107 33.7443 228.844C33.4127 229.572 32.9567 230.134 32.3763 230.53C31.7959 230.917 31.1326 231.11 30.3863 231.11ZM30.3863 230.198C30.9575 230.198 31.455 230.046 31.8788 229.742C32.3026 229.429 32.6342 228.978 32.8738 228.388C33.1133 227.789 33.233 227.057 33.233 226.191C33.233 225.325 33.1133 224.597 32.8738 224.007C32.6342 223.409 32.3026 222.957 31.8788 222.653C31.455 222.34 30.9575 222.183 30.3863 222.183C29.8336 222.183 29.3407 222.34 28.9077 222.653C28.4747 222.957 28.1385 223.409 27.8989 224.007C27.6594 224.597 27.5396 225.325 27.5396 226.191C27.5396 227.057 27.6594 227.789 27.8989 228.388C28.1385 228.978 28.4747 229.429 28.9077 229.742C29.3407 230.046 29.8336 230.198 30.3863 230.198ZM44.3964 231.11C43.6594 231.11 42.9776 230.99 42.3512 230.751C41.7339 230.502 41.195 230.157 40.7344 229.715C40.2829 229.272 39.9283 228.752 39.6703 228.153C39.4216 227.554 39.2972 226.9 39.2972 226.191C39.2972 225.481 39.4216 224.827 39.6703 224.228C39.9283 223.63 40.2875 223.109 40.7482 222.667C41.2088 222.225 41.7477 221.884 42.365 221.644C42.9915 221.396 43.6732 221.271 44.4102 221.271C45.1472 221.271 45.8197 221.386 46.4278 221.617C47.045 221.847 47.5701 222.197 48.0031 222.667L47.3674 223.316C46.9621 222.911 46.5153 222.621 46.027 222.446C45.5387 222.271 45.0136 222.183 44.4517 222.183C43.8528 222.183 43.3001 222.285 42.7934 222.487C42.2959 222.681 41.8583 222.962 41.4806 223.33C41.1121 223.689 40.8219 224.113 40.61 224.602C40.4073 225.081 40.306 225.61 40.306 226.191C40.306 226.762 40.4073 227.292 40.61 227.78C40.8219 228.268 41.1121 228.697 41.4806 229.065C41.8583 229.424 42.2959 229.705 42.7934 229.908C43.3001 230.101 43.8482 230.198 44.4378 230.198C44.9906 230.198 45.5111 230.115 45.9994 229.949C46.4969 229.784 46.9529 229.503 47.3674 229.107L47.9478 229.88C47.4872 230.286 46.9483 230.594 46.331 230.806C45.7138 231.009 45.0689 231.11 44.3964 231.11ZM46.9667 229.756V226.191H47.9478V229.88L46.9667 229.756ZM50.8421 231.027V221.354H55.0154C56.0933 221.354 56.927 221.571 57.5166 222.004C58.1154 222.437 58.4148 223.049 58.4148 223.841C58.4148 224.367 58.2905 224.809 58.0417 225.168C57.8022 225.527 57.4705 225.799 57.0468 225.983C56.6322 226.168 56.1762 226.26 55.6787 226.26L55.9136 225.928C56.5309 225.928 57.0606 226.025 57.5028 226.218C57.9542 226.403 58.3043 226.684 58.553 227.061C58.8018 227.43 58.9261 227.89 58.9261 228.443C58.9261 229.263 58.6221 229.899 58.0141 230.35C57.4153 230.802 56.5078 231.027 55.2918 231.027H50.8421ZM51.8647 230.184H55.2779C56.1255 230.184 56.775 230.042 57.2264 229.756C57.6778 229.461 57.9035 228.996 57.9035 228.36C57.9035 227.734 57.6778 227.278 57.2264 226.992C56.775 226.697 56.1255 226.55 55.2779 226.55H51.7541V225.707H54.9463C55.7201 225.707 56.319 225.56 56.7427 225.265C57.1757 224.97 57.3922 224.532 57.3922 223.952C57.3922 223.362 57.1757 222.925 56.7427 222.639C56.319 222.344 55.7201 222.197 54.9463 222.197H51.8647V230.184Z" fill="#697181"/>
<path d="M19.4183 303.027L23.5916 293.796L23.8957 294.238H17.9121L18.4234 293.755V296.049H17.4422V293.354H24.5451V294.059L20.4962 303.027H19.4183ZM29.4417 303.11C28.6955 303.11 28.0322 302.917 27.4518 302.53C26.8714 302.134 26.4153 301.572 26.0837 300.844C25.752 300.107 25.5862 299.223 25.5862 298.191C25.5862 297.159 25.752 296.279 26.0837 295.551C26.4153 294.814 26.8714 294.252 27.4518 293.865C28.0322 293.469 28.6955 293.271 29.4417 293.271C30.1879 293.271 30.8512 293.469 31.4316 293.865C32.012 294.252 32.468 294.814 32.7997 295.551C33.1406 296.279 33.311 297.159 33.311 298.191C33.311 299.223 33.1406 300.107 32.7997 300.844C32.468 301.572 32.012 302.134 31.4316 302.53C30.8512 302.917 30.1879 303.11 29.4417 303.11ZM29.4417 302.198C30.0129 302.198 30.5104 302.046 30.9341 301.742C31.3579 301.429 31.6896 300.978 31.9291 300.388C32.1686 299.789 32.2884 299.057 32.2884 298.191C32.2884 297.325 32.1686 296.597 31.9291 296.007C31.6896 295.409 31.3579 294.957 30.9341 294.653C30.5104 294.34 30.0129 294.183 29.4417 294.183C28.8889 294.183 28.3961 294.34 27.9631 294.653C27.5301 294.957 27.1938 295.409 26.9543 296.007C26.7148 296.597 26.595 297.325 26.595 298.191C26.595 299.057 26.7148 299.789 26.9543 300.388C27.1938 300.978 27.5301 301.429 27.9631 301.742C28.3961 302.046 28.8889 302.198 29.4417 302.198ZM43.4517 303.11C42.7147 303.11 42.033 302.99 41.4065 302.751C40.7893 302.502 40.2503 302.157 39.7897 301.715C39.3383 301.272 38.9836 300.752 38.7256 300.153C38.4769 299.554 38.3525 298.9 38.3525 298.191C38.3525 297.481 38.4769 296.827 38.7256 296.228C38.9836 295.63 39.3429 295.109 39.8035 294.667C40.2642 294.225 40.8031 293.884 41.4203 293.644C42.0468 293.396 42.7285 293.271 43.4655 293.271C44.2026 293.271 44.8751 293.386 45.4831 293.617C46.1004 293.847 46.6255 294.197 47.0585 294.667L46.4228 295.316C46.0174 294.911 45.5706 294.621 45.0824 294.446C44.5941 294.271 44.069 294.183 43.507 294.183C42.9082 294.183 42.3554 294.285 41.8487 294.487C41.3512 294.681 40.9136 294.962 40.5359 295.33C40.1674 295.689 39.8772 296.113 39.6653 296.602C39.4627 297.081 39.3613 297.61 39.3613 298.191C39.3613 298.762 39.4627 299.292 39.6653 299.78C39.8772 300.268 40.1674 300.697 40.5359 301.065C40.9136 301.424 41.3512 301.705 41.8487 301.908C42.3554 302.101 42.9036 302.198 43.4932 302.198C44.0459 302.198 44.5665 302.115 45.0547 301.949C45.5522 301.784 46.0082 301.503 46.4228 301.107L47.0032 301.88C46.5426 302.286 46.0036 302.594 45.3864 302.806C44.7691 303.009 44.1242 303.11 43.4517 303.11ZM46.022 301.756V298.191H47.0032V301.88L46.022 301.756ZM49.8974 303.027V293.354H54.0707C55.1486 293.354 55.9823 293.571 56.5719 294.004C57.1708 294.437 57.4702 295.049 57.4702 295.841C57.4702 296.367 57.3458 296.809 57.0971 297.168C56.8575 297.527 56.5259 297.799 56.1021 297.983C55.6875 298.168 55.2315 298.26 54.734 298.26L54.9689 297.928C55.5862 297.928 56.1159 298.025 56.5581 298.218C57.0095 298.403 57.3596 298.684 57.6084 299.061C57.8571 299.43 57.9815 299.89 57.9815 300.443C57.9815 301.263 57.6775 301.899 57.0694 302.35C56.4706 302.802 55.5632 303.027 54.3471 303.027H49.8974ZM50.92 302.184H54.3333C55.1808 302.184 55.8303 302.042 56.2817 301.756C56.7332 301.461 56.9589 300.996 56.9589 300.36C56.9589 299.734 56.7332 299.278 56.2817 298.992C55.8303 298.697 55.1808 298.55 54.3333 298.55H50.8094V297.707H54.0016C54.7755 297.707 55.3743 297.56 55.7981 297.265C56.2311 296.97 56.4476 296.532 56.4476 295.952C56.4476 295.362 56.2311 294.925 55.7981 294.639C55.3743 294.344 54.7755 294.197 54.0016 294.197H50.92V302.184Z" fill="#697181"/>
<path d="M21.6846 375.11C20.8278 375.11 20.1047 374.921 19.515 374.544C18.9254 374.157 18.4786 373.604 18.1746 372.885C17.8706 372.158 17.7186 371.287 17.7186 370.274C17.7186 369.177 17.9028 368.261 18.2713 367.524C18.6491 366.777 19.1696 366.215 19.8329 365.838C20.4962 365.46 21.2654 365.271 22.1406 365.271C22.5736 365.271 22.9882 365.313 23.3844 365.396C23.7805 365.478 24.1306 365.612 24.4346 365.796L24.0338 366.598C23.7851 366.432 23.4995 366.317 23.1771 366.252C22.8546 366.179 22.5138 366.142 22.1545 366.142C21.1134 366.142 20.2797 366.473 19.6532 367.137C19.036 367.8 18.7274 368.79 18.7274 370.108C18.7274 370.31 18.7366 370.564 18.755 370.868C18.7826 371.163 18.8379 371.457 18.9208 371.752L18.5754 371.49C18.6767 371.011 18.8748 370.605 19.1696 370.274C19.4644 369.933 19.8329 369.675 20.2751 369.5C20.7173 369.325 21.201 369.237 21.7261 369.237C22.371 369.237 22.9375 369.357 23.4258 369.596C23.9141 369.836 24.2964 370.172 24.5728 370.605C24.8492 371.038 24.9873 371.55 24.9873 372.139C24.9873 372.738 24.8446 373.263 24.559 373.715C24.2734 374.157 23.8772 374.502 23.3705 374.751C22.8731 374.99 22.3111 375.11 21.6846 375.11ZM21.6432 374.267C22.1038 374.267 22.5092 374.184 22.8592 374.019C23.2185 373.844 23.4995 373.599 23.7022 373.286C23.9049 372.964 24.0062 372.591 24.0062 372.167C24.0062 371.531 23.7851 371.024 23.3429 370.647C22.9099 370.269 22.3203 370.08 21.5741 370.08C21.0766 370.08 20.6436 370.172 20.2751 370.357C19.9066 370.541 19.6164 370.794 19.4045 371.117C19.1926 371.43 19.0867 371.789 19.0867 372.194C19.0867 372.545 19.1834 372.881 19.3769 373.203C19.5703 373.516 19.8559 373.774 20.2336 373.977C20.6206 374.171 21.0904 374.267 21.6432 374.267ZM29.995 375.11C29.2488 375.11 28.5855 374.917 28.0051 374.53C27.4247 374.134 26.9686 373.572 26.637 372.844C26.3053 372.107 26.1395 371.223 26.1395 370.191C26.1395 369.159 26.3053 368.279 26.637 367.551C26.9686 366.814 27.4247 366.252 28.0051 365.865C28.5855 365.469 29.2488 365.271 29.995 365.271C30.7412 365.271 31.4045 365.469 31.9849 365.865C32.5653 366.252 33.0213 366.814 33.353 367.551C33.6939 368.279 33.8643 369.159 33.8643 370.191C33.8643 371.223 33.6939 372.107 33.353 372.844C33.0213 373.572 32.5653 374.134 31.9849 374.53C31.4045 374.917 30.7412 375.11 29.995 375.11ZM29.995 374.198C30.5662 374.198 31.0637 374.046 31.4874 373.742C31.9112 373.429 32.2429 372.978 32.4824 372.388C32.7219 371.789 32.8417 371.057 32.8417 370.191C32.8417 369.325 32.7219 368.597 32.4824 368.007C32.2429 367.409 31.9112 366.957 31.4874 366.653C31.0637 366.34 30.5662 366.183 29.995 366.183C29.4422 366.183 28.9494 366.34 28.5164 366.653C28.0834 366.957 27.7471 367.409 27.5076 368.007C27.268 368.597 27.1483 369.325 27.1483 370.191C27.1483 371.057 27.268 371.789 27.5076 372.388C27.7471 372.978 28.0834 373.429 28.5164 373.742C28.9494 374.046 29.4422 374.198 29.995 374.198ZM44.005 375.11C43.268 375.11 42.5863 374.99 41.9598 374.751C41.3426 374.502 40.8036 374.157 40.343 373.715C39.8916 373.272 39.5369 372.752 39.2789 372.153C39.0302 371.554 38.9058 370.9 38.9058 370.191C38.9058 369.481 39.0302 368.827 39.2789 368.228C39.5369 367.63 39.8962 367.109 40.3568 366.667C40.8174 366.225 41.3564 365.884 41.9736 365.644C42.6001 365.396 43.2818 365.271 44.0188 365.271C44.7558 365.271 45.4284 365.386 46.0364 365.617C46.6537 365.847 47.1788 366.197 47.6118 366.667L46.9761 367.316C46.5707 366.911 46.1239 366.621 45.6357 366.446C45.1474 366.271 44.6223 366.183 44.0603 366.183C43.4615 366.183 42.9087 366.285 42.402 366.487C41.9045 366.681 41.4669 366.962 41.0892 367.33C40.7207 367.689 40.4305 368.113 40.2186 368.602C40.016 369.081 39.9146 369.61 39.9146 370.191C39.9146 370.762 40.016 371.292 40.2186 371.78C40.4305 372.268 40.7207 372.697 41.0892 373.065C41.4669 373.424 41.9045 373.705 42.402 373.908C42.9087 374.101 43.4569 374.198 44.0465 374.198C44.5992 374.198 45.1197 374.115 45.608 373.949C46.1055 373.784 46.5615 373.503 46.9761 373.107L47.5565 373.88C47.0959 374.286 46.5569 374.594 45.9397 374.806C45.3224 375.009 44.6775 375.11 44.005 375.11ZM46.5753 373.756V370.191H47.5565V373.88L46.5753 373.756ZM50.4507 375.027V365.354H54.624C55.7019 365.354 56.5356 365.571 57.1252 366.004C57.7241 366.437 58.0235 367.049 58.0235 367.841C58.0235 368.367 57.8991 368.809 57.6504 369.168C57.4108 369.527 57.0792 369.799 56.6554 369.983C56.2408 370.168 55.7848 370.26 55.2873 370.26L55.5222 369.928C56.1395 369.928 56.6692 370.025 57.1114 370.218C57.5628 370.403 57.9129 370.684 58.1617 371.061C58.4104 371.43 58.5348 371.89 58.5348 372.443C58.5348 373.263 58.2308 373.899 57.6227 374.35C57.0239 374.802 56.1165 375.027 54.9004 375.027H50.4507ZM51.4733 374.184H54.8866C55.7341 374.184 56.3836 374.042 56.835 373.756C57.2865 373.461 57.5122 372.996 57.5122 372.36C57.5122 371.734 57.2865 371.278 56.835 370.992C56.3836 370.697 55.7341 370.55 54.8866 370.55H51.3627V369.707H54.5549C55.3288 369.707 55.9276 369.56 56.3514 369.265C56.7844 368.97 57.0009 368.532 57.0009 367.952C57.0009 367.362 56.7844 366.925 56.3514 366.639C55.9276 366.344 55.3288 366.197 54.5549 366.197H51.4733V374.184Z" fill="#697181"/>
<path d="M68.2138 430V423.3L68.5338 423.64H66.5638V423H68.9338V430H68.2138ZM76.3743 424.7C76.801 424.7 77.1743 424.783 77.4943 424.95C77.821 425.11 78.0743 425.357 78.2543 425.69C78.441 426.023 78.5343 426.443 78.5343 426.95V430H77.8243V427.02C77.8243 426.467 77.6843 426.05 77.4043 425.77C77.131 425.483 76.7443 425.34 76.2443 425.34C75.871 425.34 75.5443 425.417 75.2643 425.57C74.991 425.717 74.7776 425.933 74.6243 426.22C74.4776 426.5 74.4043 426.84 74.4043 427.24V430H73.6943V422.58H74.4043V426.19L74.2643 425.92C74.431 425.54 74.6976 425.243 75.0643 425.03C75.431 424.81 75.8676 424.7 76.3743 424.7ZM80.4521 430V424.75H81.1321V426.18L81.0621 425.93C81.2088 425.53 81.4554 425.227 81.8021 425.02C82.1488 424.807 82.5788 424.7 83.0921 424.7V425.39C83.0654 425.39 83.0388 425.39 83.0121 425.39C82.9854 425.383 82.9588 425.38 82.9321 425.38C82.3788 425.38 81.9454 425.55 81.6321 425.89C81.3188 426.223 81.1621 426.7 81.1621 427.32V430H80.4521ZM85.8562 430.05C85.4229 430.05 85.0129 429.99 84.6262 429.87C84.2396 429.743 83.9362 429.587 83.7162 429.4L84.0362 428.84C84.2496 429 84.5229 429.14 84.8562 429.26C85.1896 429.373 85.5396 429.43 85.9062 429.43C86.4062 429.43 86.7662 429.353 86.9862 429.2C87.2062 429.04 87.3162 428.83 87.3162 428.57C87.3162 428.377 87.2529 428.227 87.1262 428.12C87.0062 428.007 86.8462 427.923 86.6462 427.87C86.4462 427.81 86.2229 427.76 85.9762 427.72C85.7296 427.68 85.4829 427.633 85.2362 427.58C84.9962 427.527 84.7762 427.45 84.5762 427.35C84.3762 427.243 84.2129 427.1 84.0862 426.92C83.9662 426.74 83.9062 426.5 83.9062 426.2C83.9062 425.913 83.9862 425.657 84.1462 425.43C84.3062 425.203 84.5396 425.027 84.8462 424.9C85.1596 424.767 85.5396 424.7 85.9862 424.7C86.3262 424.7 86.6662 424.747 87.0062 424.84C87.3462 424.927 87.6262 425.043 87.8462 425.19L87.5362 425.76C87.3029 425.6 87.0529 425.487 86.7862 425.42C86.5196 425.347 86.2529 425.31 85.9862 425.31C85.5129 425.31 85.1629 425.393 84.9362 425.56C84.7162 425.72 84.6062 425.927 84.6062 426.18C84.6062 426.38 84.6662 426.537 84.7862 426.65C84.9129 426.763 85.0762 426.853 85.2762 426.92C85.4829 426.98 85.7062 427.03 85.9462 427.07C86.1929 427.11 86.4362 427.16 86.6762 427.22C86.9229 427.273 87.1462 427.35 87.3462 427.45C87.5529 427.543 87.7162 427.68 87.8362 427.86C87.9629 428.033 88.0262 428.263 88.0262 428.55C88.0262 428.857 87.9396 429.123 87.7662 429.35C87.5996 429.57 87.3529 429.743 87.0262 429.87C86.7062 429.99 86.3162 430.05 85.8562 430.05Z" fill="#697181"/>
<path d="M101.225 430V429.49L104.135 426.64C104.401 426.38 104.601 426.153 104.735 425.96C104.868 425.76 104.958 425.573 105.005 425.4C105.051 425.227 105.075 425.063 105.075 424.91C105.075 424.503 104.935 424.183 104.655 423.95C104.381 423.717 103.975 423.6 103.435 423.6C103.021 423.6 102.655 423.663 102.335 423.79C102.021 423.917 101.751 424.113 101.525 424.38L101.015 423.94C101.288 423.62 101.638 423.373 102.065 423.2C102.491 423.027 102.968 422.94 103.495 422.94C103.968 422.94 104.378 423.017 104.725 423.17C105.071 423.317 105.338 423.533 105.525 423.82C105.718 424.107 105.815 424.443 105.815 424.83C105.815 425.057 105.781 425.28 105.715 425.5C105.655 425.72 105.541 425.953 105.375 426.2C105.215 426.44 104.978 426.713 104.665 427.02L101.995 429.64L101.795 429.36H106.135V430H101.225ZM112.805 424.7C113.232 424.7 113.605 424.783 113.925 424.95C114.252 425.11 114.505 425.357 114.685 425.69C114.872 426.023 114.965 426.443 114.965 426.95V430H114.255V427.02C114.255 426.467 114.115 426.05 113.835 425.77C113.562 425.483 113.175 425.34 112.675 425.34C112.302 425.34 111.975 425.417 111.695 425.57C111.422 425.717 111.209 425.933 111.055 426.22C110.909 426.5 110.835 426.84 110.835 427.24V430H110.125V422.58H110.835V426.19L110.695 425.92C110.862 425.54 111.129 425.243 111.495 425.03C111.862 424.81 112.299 424.7 112.805 424.7ZM116.883 430V424.75H117.563V426.18L117.493 425.93C117.64 425.53 117.887 425.227 118.233 425.02C118.58 424.807 119.01 424.7 119.523 424.7V425.39C119.497 425.39 119.47 425.39 119.443 425.39C119.417 425.383 119.39 425.38 119.363 425.38C118.81 425.38 118.377 425.55 118.063 425.89C117.75 426.223 117.593 426.7 117.593 427.32V430H116.883ZM122.287 430.05C121.854 430.05 121.444 429.99 121.057 429.87C120.671 429.743 120.367 429.587 120.147 429.4L120.467 428.84C120.681 429 120.954 429.14 121.287 429.26C121.621 429.373 121.971 429.43 122.337 429.43C122.837 429.43 123.197 429.353 123.417 429.2C123.637 429.04 123.747 428.83 123.747 428.57C123.747 428.377 123.684 428.227 123.557 428.12C123.437 428.007 123.277 427.923 123.077 427.87C122.877 427.81 122.654 427.76 122.407 427.72C122.161 427.68 121.914 427.633 121.667 427.58C121.427 427.527 121.207 427.45 121.007 427.35C120.807 427.243 120.644 427.1 120.517 426.92C120.397 426.74 120.337 426.5 120.337 426.2C120.337 425.913 120.417 425.657 120.577 425.43C120.737 425.203 120.971 425.027 121.277 424.9C121.591 424.767 121.971 424.7 122.417 424.7C122.757 424.7 123.097 424.747 123.437 424.84C123.777 424.927 124.057 425.043 124.277 425.19L123.967 425.76C123.734 425.6 123.484 425.487 123.217 425.42C122.951 425.347 122.684 425.31 122.417 425.31C121.944 425.31 121.594 425.393 121.367 425.56C121.147 425.72 121.037 425.927 121.037 426.18C121.037 426.38 121.097 426.537 121.217 426.65C121.344 426.763 121.507 426.853 121.707 426.92C121.914 426.98 122.137 427.03 122.377 427.07C122.624 427.11 122.867 427.16 123.107 427.22C123.354 427.273 123.577 427.35 123.777 427.45C123.984 427.543 124.147 427.68 124.267 427.86C124.394 428.033 124.457 428.263 124.457 428.55C124.457 428.857 124.371 429.123 124.197 429.35C124.031 429.57 123.784 429.743 123.457 429.87C123.137 429.99 122.747 430.05 122.287 430.05Z" fill="#697181"/>
<path d="M135.567 430.06C135.06 430.06 134.58 429.98 134.127 429.82C133.68 429.653 133.32 429.433 133.047 429.16L133.397 428.59C133.624 428.823 133.927 429.017 134.307 429.17C134.694 429.323 135.114 429.4 135.567 429.4C136.147 429.4 136.59 429.273 136.897 429.02C137.21 428.767 137.367 428.427 137.367 428C137.367 427.573 137.214 427.233 136.907 426.98C136.607 426.727 136.13 426.6 135.477 426.6H134.977V426.07L137.137 423.36L137.237 423.64H133.337V423H137.837V423.51L135.677 426.22L135.327 425.99H135.597C136.437 425.99 137.064 426.177 137.477 426.55C137.897 426.923 138.107 427.403 138.107 427.99C138.107 428.383 138.014 428.737 137.827 429.05C137.64 429.363 137.357 429.61 136.977 429.79C136.604 429.97 136.134 430.06 135.567 430.06ZM144.889 424.7C145.315 424.7 145.689 424.783 146.009 424.95C146.335 425.11 146.589 425.357 146.769 425.69C146.955 426.023 147.049 426.443 147.049 426.95V430H146.339V427.02C146.339 426.467 146.199 426.05 145.919 425.77C145.645 425.483 145.259 425.34 144.759 425.34C144.385 425.34 144.059 425.417 143.779 425.57C143.505 425.717 143.292 425.933 143.139 426.22C142.992 426.5 142.919 426.84 142.919 427.24V430H142.209V422.58H142.919V426.19L142.779 425.92C142.945 425.54 143.212 425.243 143.579 425.03C143.945 424.81 144.382 424.7 144.889 424.7ZM148.967 430V424.75H149.647V426.18L149.577 425.93C149.723 425.53 149.97 425.227 150.317 425.02C150.663 424.807 151.093 424.7 151.607 424.7V425.39C151.58 425.39 151.553 425.39 151.527 425.39C151.5 425.383 151.473 425.38 151.447 425.38C150.893 425.38 150.46 425.55 150.147 425.89C149.833 426.223 149.677 426.7 149.677 427.32V430H148.967ZM154.371 430.05C153.937 430.05 153.527 429.99 153.141 429.87C152.754 429.743 152.451 429.587 152.231 429.4L152.551 428.84C152.764 429 153.037 429.14 153.371 429.26C153.704 429.373 154.054 429.43 154.421 429.43C154.921 429.43 155.281 429.353 155.501 429.2C155.721 429.04 155.831 428.83 155.831 428.57C155.831 428.377 155.767 428.227 155.641 428.12C155.521 428.007 155.361 427.923 155.161 427.87C154.961 427.81 154.737 427.76 154.491 427.72C154.244 427.68 153.997 427.633 153.751 427.58C153.511 427.527 153.291 427.45 153.091 427.35C152.891 427.243 152.727 427.1 152.601 426.92C152.481 426.74 152.421 426.5 152.421 426.2C152.421 425.913 152.501 425.657 152.661 425.43C152.821 425.203 153.054 425.027 153.361 424.9C153.674 424.767 154.054 424.7 154.501 424.7C154.841 424.7 155.181 424.747 155.521 424.84C155.861 424.927 156.141 425.043 156.361 425.19L156.051 425.76C155.817 425.6 155.567 425.487 155.301 425.42C155.034 425.347 154.767 425.31 154.501 425.31C154.027 425.31 153.677 425.393 153.451 425.56C153.231 425.72 153.121 425.927 153.121 426.18C153.121 426.38 153.181 426.537 153.301 426.65C153.427 426.763 153.591 426.853 153.791 426.92C153.997 426.98 154.221 427.03 154.461 427.07C154.707 427.11 154.951 427.16 155.191 427.22C155.437 427.273 155.661 427.35 155.861 427.45C156.067 427.543 156.231 427.68 156.351 427.86C156.477 428.033 156.541 428.263 156.541 428.55C156.541 428.857 156.454 429.123 156.281 429.35C156.114 429.57 155.867 429.743 155.541 429.87C155.221 429.99 154.831 430.05 154.371 430.05Z" fill="#697181"/>
<path d="M167.005 428.16V427.64L170.715 423H171.515L167.835 427.64L167.445 427.52H173.075V428.16H167.005ZM170.955 430V428.16L170.975 427.52V425.9H171.675V430H170.955ZM179.504 424.7C179.93 424.7 180.304 424.783 180.624 424.95C180.95 425.11 181.204 425.357 181.384 425.69C181.57 426.023 181.664 426.443 181.664 426.95V430H180.954V427.02C180.954 426.467 180.814 426.05 180.534 425.77C180.26 425.483 179.874 425.34 179.374 425.34C179 425.34 178.674 425.417 178.394 425.57C178.12 425.717 177.907 425.933 177.754 426.22C177.607 426.5 177.534 426.84 177.534 427.24V430H176.824V422.58H177.534V426.19L177.394 425.92C177.56 425.54 177.827 425.243 178.194 425.03C178.56 424.81 178.997 424.7 179.504 424.7ZM183.582 430V424.75H184.262V426.18L184.192 425.93C184.338 425.53 184.585 425.227 184.932 425.02C185.278 424.807 185.708 424.7 186.222 424.7V425.39C186.195 425.39 186.168 425.39 186.142 425.39C186.115 425.383 186.088 425.38 186.062 425.38C185.508 425.38 185.075 425.55 184.762 425.89C184.448 426.223 184.292 426.7 184.292 427.32V430H183.582ZM188.986 430.05C188.552 430.05 188.142 429.99 187.756 429.87C187.369 429.743 187.066 429.587 186.846 429.4L187.166 428.84C187.379 429 187.652 429.14 187.986 429.26C188.319 429.373 188.669 429.43 189.036 429.43C189.536 429.43 189.896 429.353 190.116 429.2C190.336 429.04 190.446 428.83 190.446 428.57C190.446 428.377 190.382 428.227 190.256 428.12C190.136 428.007 189.976 427.923 189.776 427.87C189.576 427.81 189.352 427.76 189.106 427.72C188.859 427.68 188.612 427.633 188.366 427.58C188.126 427.527 187.906 427.45 187.706 427.35C187.506 427.243 187.342 427.1 187.216 426.92C187.096 426.74 187.036 426.5 187.036 426.2C187.036 425.913 187.116 425.657 187.276 425.43C187.436 425.203 187.669 425.027 187.976 424.9C188.289 424.767 188.669 424.7 189.116 424.7C189.456 424.7 189.796 424.747 190.136 424.84C190.476 424.927 190.756 425.043 190.976 425.19L190.666 425.76C190.432 425.6 190.182 425.487 189.916 425.42C189.649 425.347 189.382 425.31 189.116 425.31C188.642 425.31 188.292 425.393 188.066 425.56C187.846 425.72 187.736 425.927 187.736 426.18C187.736 426.38 187.796 426.537 187.916 426.65C188.042 426.763 188.206 426.853 188.406 426.92C188.612 426.98 188.836 427.03 189.076 427.07C189.322 427.11 189.566 427.16 189.806 427.22C190.052 427.273 190.276 427.35 190.476 427.45C190.682 427.543 190.846 427.68 190.966 427.86C191.092 428.033 191.156 428.263 191.156 428.55C191.156 428.857 191.069 429.123 190.896 429.35C190.729 429.57 190.482 429.743 190.156 429.87C189.836 429.99 189.446 430.05 188.986 430.05Z" fill="#697181"/>
<path d="M202.94 430.06C202.44 430.06 201.964 429.98 201.51 429.82C201.057 429.653 200.697 429.433 200.43 429.16L200.78 428.59C201 428.823 201.3 429.017 201.68 429.17C202.067 429.323 202.484 429.4 202.93 429.4C203.524 429.4 203.974 429.27 204.28 429.01C204.594 428.743 204.75 428.397 204.75 427.97C204.75 427.67 204.677 427.413 204.53 427.2C204.39 426.98 204.15 426.81 203.81 426.69C203.47 426.57 203.004 426.51 202.41 426.51H200.92L201.28 423H205.11V423.64H201.57L201.94 423.29L201.63 426.23L201.26 425.87H202.57C203.277 425.87 203.844 425.957 204.27 426.13C204.697 426.303 205.004 426.547 205.19 426.86C205.384 427.167 205.48 427.527 205.48 427.94C205.48 428.333 205.387 428.693 205.2 429.02C205.014 429.34 204.734 429.593 204.36 429.78C203.987 429.967 203.514 430.06 202.94 430.06ZM212.162 424.7C212.588 424.7 212.962 424.783 213.282 424.95C213.608 425.11 213.862 425.357 214.042 425.69C214.228 426.023 214.322 426.443 214.322 426.95V430H213.612V427.02C213.612 426.467 213.472 426.05 213.192 425.77C212.918 425.483 212.532 425.34 212.032 425.34C211.658 425.34 211.332 425.417 211.052 425.57C210.778 425.717 210.565 425.933 210.412 426.22C210.265 426.5 210.192 426.84 210.192 427.24V430H209.482V422.58H210.192V426.19L210.052 425.92C210.218 425.54 210.485 425.243 210.852 425.03C211.218 424.81 211.655 424.7 212.162 424.7ZM216.24 430V424.75H216.92V426.18L216.85 425.93C216.996 425.53 217.243 425.227 217.59 425.02C217.936 424.807 218.366 424.7 218.88 424.7V425.39C218.853 425.39 218.826 425.39 218.8 425.39C218.773 425.383 218.746 425.38 218.72 425.38C218.166 425.38 217.733 425.55 217.42 425.89C217.106 426.223 216.95 426.7 216.95 427.32V430H216.24ZM221.644 430.05C221.21 430.05 220.8 429.99 220.414 429.87C220.027 429.743 219.724 429.587 219.504 429.4L219.824 428.84C220.037 429 220.31 429.14 220.644 429.26C220.977 429.373 221.327 429.43 221.694 429.43C222.194 429.43 222.554 429.353 222.774 429.2C222.994 429.04 223.104 428.83 223.104 428.57C223.104 428.377 223.04 428.227 222.914 428.12C222.794 428.007 222.634 427.923 222.434 427.87C222.234 427.81 222.01 427.76 221.764 427.72C221.517 427.68 221.27 427.633 221.024 427.58C220.784 427.527 220.564 427.45 220.364 427.35C220.164 427.243 220 427.1 219.874 426.92C219.754 426.74 219.694 426.5 219.694 426.2C219.694 425.913 219.774 425.657 219.934 425.43C220.094 425.203 220.327 425.027 220.634 424.9C220.947 424.767 221.327 424.7 221.774 424.7C222.114 424.7 222.454 424.747 222.794 424.84C223.134 424.927 223.414 425.043 223.634 425.19L223.324 425.76C223.09 425.6 222.84 425.487 222.574 425.42C222.307 425.347 222.04 425.31 221.774 425.31C221.3 425.31 220.95 425.393 220.724 425.56C220.504 425.72 220.394 425.927 220.394 426.18C220.394 426.38 220.454 426.537 220.574 426.65C220.7 426.763 220.864 426.853 221.064 426.92C221.27 426.98 221.494 427.03 221.734 427.07C221.98 427.11 222.224 427.16 222.464 427.22C222.71 427.273 222.934 427.35 223.134 427.45C223.34 427.543 223.504 427.68 223.624 427.86C223.75 428.033 223.814 428.263 223.814 428.55C223.814 428.857 223.727 429.123 223.554 429.35C223.387 429.57 223.14 429.743 222.814 429.87C222.494 429.99 222.104 430.05 221.644 430.05Z" fill="#697181"/>
<path d="M238.282 430.06C237.662 430.06 237.138 429.923 236.712 429.65C236.285 429.37 235.962 428.97 235.742 428.45C235.522 427.923 235.412 427.293 235.412 426.56C235.412 425.767 235.545 425.103 235.812 424.57C236.085 424.03 236.462 423.623 236.942 423.35C237.422 423.077 237.978 422.94 238.612 422.94C238.925 422.94 239.225 422.97 239.512 423.03C239.798 423.09 240.052 423.187 240.272 423.32L239.982 423.9C239.802 423.78 239.595 423.697 239.362 423.65C239.128 423.597 238.882 423.57 238.622 423.57C237.868 423.57 237.265 423.81 236.812 424.29C236.365 424.77 236.142 425.487 236.142 426.44C236.142 426.587 236.148 426.77 236.162 426.99C236.182 427.203 236.222 427.417 236.282 427.63L236.032 427.44C236.105 427.093 236.248 426.8 236.462 426.56C236.675 426.313 236.942 426.127 237.262 426C237.582 425.873 237.932 425.81 238.312 425.81C238.778 425.81 239.188 425.897 239.542 426.07C239.895 426.243 240.172 426.487 240.372 426.8C240.572 427.113 240.672 427.483 240.672 427.91C240.672 428.343 240.568 428.723 240.362 429.05C240.155 429.37 239.868 429.62 239.502 429.8C239.142 429.973 238.735 430.06 238.282 430.06ZM238.252 429.45C238.585 429.45 238.878 429.39 239.132 429.27C239.392 429.143 239.595 428.967 239.742 428.74C239.888 428.507 239.962 428.237 239.962 427.93C239.962 427.47 239.802 427.103 239.482 426.83C239.168 426.557 238.742 426.42 238.202 426.42C237.842 426.42 237.528 426.487 237.262 426.62C236.995 426.753 236.785 426.937 236.632 427.17C236.478 427.397 236.402 427.657 236.402 427.95C236.402 428.203 236.472 428.447 236.612 428.68C236.752 428.907 236.958 429.093 237.232 429.24C237.512 429.38 237.852 429.45 238.252 429.45ZM247.273 424.7C247.699 424.7 248.073 424.783 248.393 424.95C248.719 425.11 248.973 425.357 249.153 425.69C249.339 426.023 249.433 426.443 249.433 426.95V430H248.723V427.02C248.723 426.467 248.583 426.05 248.303 425.77C248.029 425.483 247.643 425.34 247.143 425.34C246.769 425.34 246.443 425.417 246.163 425.57C245.889 425.717 245.676 425.933 245.523 426.22C245.376 426.5 245.303 426.84 245.303 427.24V430H244.593V422.58H245.303V426.19L245.163 425.92C245.329 425.54 245.596 425.243 245.963 425.03C246.329 424.81 246.766 424.7 247.273 424.7ZM251.35 430V424.75H252.03V426.18L251.96 425.93C252.107 425.53 252.354 425.227 252.7 425.02C253.047 424.807 253.477 424.7 253.99 424.7V425.39C253.964 425.39 253.937 425.39 253.91 425.39C253.884 425.383 253.857 425.38 253.83 425.38C253.277 425.38 252.844 425.55 252.53 425.89C252.217 426.223 252.06 426.7 252.06 427.32V430H251.35ZM256.754 430.05C256.321 430.05 255.911 429.99 255.524 429.87C255.138 429.743 254.834 429.587 254.614 429.4L254.934 428.84C255.148 429 255.421 429.14 255.754 429.26C256.088 429.373 256.438 429.43 256.804 429.43C257.304 429.43 257.664 429.353 257.884 429.2C258.104 429.04 258.214 428.83 258.214 428.57C258.214 428.377 258.151 428.227 258.024 428.12C257.904 428.007 257.744 427.923 257.544 427.87C257.344 427.81 257.121 427.76 256.874 427.72C256.628 427.68 256.381 427.633 256.134 427.58C255.894 427.527 255.674 427.45 255.474 427.35C255.274 427.243 255.111 427.1 254.984 426.92C254.864 426.74 254.804 426.5 254.804 426.2C254.804 425.913 254.884 425.657 255.044 425.43C255.204 425.203 255.438 425.027 255.744 424.9C256.058 424.767 256.438 424.7 256.884 424.7C257.224 424.7 257.564 424.747 257.904 424.84C258.244 424.927 258.524 425.043 258.744 425.19L258.434 425.76C258.201 425.6 257.951 425.487 257.684 425.42C257.418 425.347 257.151 425.31 256.884 425.31C256.411 425.31 256.061 425.393 255.834 425.56C255.614 425.72 255.504 425.927 255.504 426.18C255.504 426.38 255.564 426.537 255.684 426.65C255.811 426.763 255.974 426.853 256.174 426.92C256.381 426.98 256.604 427.03 256.844 427.07C257.091 427.11 257.334 427.16 257.574 427.22C257.821 427.273 258.044 427.35 258.244 427.45C258.451 427.543 258.614 427.68 258.734 427.86C258.861 428.033 258.924 428.263 258.924 428.55C258.924 428.857 258.838 429.123 258.664 429.35C258.498 429.57 258.251 429.743 257.924 429.87C257.604 429.99 257.214 430.05 256.754 430.05Z" fill="#697181"/>
<path d="M271.18 430L274.2 423.32L274.42 423.64H270.09L270.46 423.29V424.95H269.75V423H274.89V423.51L271.96 430H271.18ZM281.606 424.7C282.032 424.7 282.406 424.783 282.726 424.95C283.052 425.11 283.306 425.357 283.486 425.69C283.672 426.023 283.766 426.443 283.766 426.95V430H283.056V427.02C283.056 426.467 282.916 426.05 282.636 425.77C282.362 425.483 281.976 425.34 281.476 425.34C281.102 425.34 280.776 425.417 280.496 425.57C280.222 425.717 280.009 425.933 279.856 426.22C279.709 426.5 279.636 426.84 279.636 427.24V430H278.926V422.58H279.636V426.19L279.496 425.92C279.662 425.54 279.929 425.243 280.296 425.03C280.662 424.81 281.099 424.7 281.606 424.7ZM285.683 430V424.75H286.363V426.18L286.293 425.93C286.44 425.53 286.687 425.227 287.033 425.02C287.38 424.807 287.81 424.7 288.323 424.7V425.39C288.297 425.39 288.27 425.39 288.243 425.39C288.217 425.383 288.19 425.38 288.163 425.38C287.61 425.38 287.177 425.55 286.863 425.89C286.55 426.223 286.393 426.7 286.393 427.32V430H285.683ZM291.088 430.05C290.654 430.05 290.244 429.99 289.858 429.87C289.471 429.743 289.168 429.587 288.948 429.4L289.268 428.84C289.481 429 289.754 429.14 290.088 429.26C290.421 429.373 290.771 429.43 291.138 429.43C291.638 429.43 291.998 429.353 292.218 429.2C292.438 429.04 292.548 428.83 292.548 428.57C292.548 428.377 292.484 428.227 292.358 428.12C292.238 428.007 292.078 427.923 291.878 427.87C291.678 427.81 291.454 427.76 291.208 427.72C290.961 427.68 290.714 427.633 290.468 427.58C290.228 427.527 290.008 427.45 289.808 427.35C289.608 427.243 289.444 427.1 289.318 426.92C289.198 426.74 289.138 426.5 289.138 426.2C289.138 425.913 289.218 425.657 289.378 425.43C289.538 425.203 289.771 425.027 290.078 424.9C290.391 424.767 290.771 424.7 291.218 424.7C291.558 424.7 291.898 424.747 292.238 424.84C292.578 424.927 292.858 425.043 293.078 425.19L292.768 425.76C292.534 425.6 292.284 425.487 292.018 425.42C291.751 425.347 291.484 425.31 291.218 425.31C290.744 425.31 290.394 425.393 290.168 425.56C289.948 425.72 289.838 425.927 289.838 426.18C289.838 426.38 289.898 426.537 290.018 426.65C290.144 426.763 290.308 426.853 290.508 426.92C290.714 426.98 290.938 427.03 291.178 427.07C291.424 427.11 291.668 427.16 291.908 427.22C292.154 427.273 292.378 427.35 292.578 427.45C292.784 427.543 292.948 427.68 293.068 427.86C293.194 428.033 293.258 428.263 293.258 428.55C293.258 428.857 293.171 429.123 292.998 429.35C292.831 429.57 292.584 429.743 292.258 429.87C291.938 429.99 291.548 430.05 291.088 430.05Z" fill="#697181"/>
<path d="M305.958 430.06C305.398 430.06 304.914 429.98 304.508 429.82C304.108 429.66 303.798 429.43 303.578 429.13C303.364 428.823 303.258 428.463 303.258 428.05C303.258 427.65 303.361 427.31 303.568 427.03C303.781 426.743 304.088 426.523 304.488 426.37C304.894 426.217 305.384 426.14 305.958 426.14C306.524 426.14 307.011 426.217 307.418 426.37C307.824 426.523 308.134 426.743 308.348 427.03C308.568 427.31 308.678 427.65 308.678 428.05C308.678 428.463 308.568 428.823 308.348 429.13C308.128 429.43 307.814 429.66 307.408 429.82C307.001 429.98 306.518 430.06 305.958 430.06ZM305.958 429.45C306.578 429.45 307.061 429.323 307.408 429.07C307.761 428.817 307.938 428.473 307.938 428.04C307.938 427.607 307.761 427.267 307.408 427.02C307.061 426.767 306.578 426.64 305.958 426.64C305.338 426.64 304.854 426.767 304.508 427.02C304.161 427.267 303.988 427.607 303.988 428.04C303.988 428.473 304.161 428.817 304.508 429.07C304.854 429.323 305.338 429.45 305.958 429.45ZM305.958 426.55C305.438 426.55 304.994 426.48 304.628 426.34C304.268 426.2 303.991 426 303.798 425.74C303.604 425.473 303.508 425.157 303.508 424.79C303.508 424.403 303.608 424.073 303.808 423.8C304.014 423.52 304.301 423.307 304.668 423.16C305.034 423.013 305.464 422.94 305.958 422.94C306.451 422.94 306.881 423.013 307.248 423.16C307.621 423.307 307.911 423.52 308.118 423.8C308.324 424.073 308.428 424.403 308.428 424.79C308.428 425.157 308.331 425.473 308.138 425.74C307.944 426 307.661 426.2 307.288 426.34C306.921 426.48 306.478 426.55 305.958 426.55ZM305.958 426.07C306.504 426.07 306.931 425.957 307.238 425.73C307.544 425.503 307.698 425.2 307.698 424.82C307.698 424.42 307.538 424.11 307.218 423.89C306.904 423.663 306.484 423.55 305.958 423.55C305.431 423.55 305.011 423.663 304.698 423.89C304.384 424.11 304.228 424.417 304.228 424.81C304.228 425.197 304.378 425.503 304.678 425.73C304.984 425.957 305.411 426.07 305.958 426.07ZM315.442 424.7C315.868 424.7 316.242 424.783 316.562 424.95C316.888 425.11 317.142 425.357 317.322 425.69C317.508 426.023 317.602 426.443 317.602 426.95V430H316.892V427.02C316.892 426.467 316.752 426.05 316.472 425.77C316.198 425.483 315.812 425.34 315.312 425.34C314.938 425.34 314.612 425.417 314.332 425.57C314.058 425.717 313.845 425.933 313.692 426.22C313.545 426.5 313.472 426.84 313.472 427.24V430H312.762V422.58H313.472V426.19L313.332 425.92C313.498 425.54 313.765 425.243 314.132 425.03C314.498 424.81 314.935 424.7 315.442 424.7ZM319.519 430V424.75H320.199V426.18L320.129 425.93C320.276 425.53 320.523 425.227 320.869 425.02C321.216 424.807 321.646 424.7 322.159 424.7V425.39C322.133 425.39 322.106 425.39 322.079 425.39C322.053 425.383 322.026 425.38 321.999 425.38C321.446 425.38 321.013 425.55 320.699 425.89C320.386 426.223 320.229 426.7 320.229 427.32V430H319.519ZM324.924 430.05C324.49 430.05 324.08 429.99 323.694 429.87C323.307 429.743 323.004 429.587 322.784 429.4L323.104 428.84C323.317 429 323.59 429.14 323.924 429.26C324.257 429.373 324.607 429.43 324.974 429.43C325.474 429.43 325.834 429.353 326.054 429.2C326.274 429.04 326.384 428.83 326.384 428.57C326.384 428.377 326.32 428.227 326.194 428.12C326.074 428.007 325.914 427.923 325.714 427.87C325.514 427.81 325.29 427.76 325.044 427.72C324.797 427.68 324.55 427.633 324.304 427.58C324.064 427.527 323.844 427.45 323.644 427.35C323.444 427.243 323.28 427.1 323.154 426.92C323.034 426.74 322.974 426.5 322.974 426.2C322.974 425.913 323.054 425.657 323.214 425.43C323.374 425.203 323.607 425.027 323.914 424.9C324.227 424.767 324.607 424.7 325.054 424.7C325.394 424.7 325.734 424.747 326.074 424.84C326.414 424.927 326.694 425.043 326.914 425.19L326.604 425.76C326.37 425.6 326.12 425.487 325.854 425.42C325.587 425.347 325.32 425.31 325.054 425.31C324.58 425.31 324.23 425.393 324.004 425.56C323.784 425.72 323.674 425.927 323.674 426.18C323.674 426.38 323.734 426.537 323.854 426.65C323.98 426.763 324.144 426.853 324.344 426.92C324.55 426.98 324.774 427.03 325.014 427.07C325.26 427.11 325.504 427.16 325.744 427.22C325.99 427.273 326.214 427.35 326.414 427.45C326.62 427.543 326.784 427.68 326.904 427.86C327.03 428.033 327.094 428.263 327.094 428.55C327.094 428.857 327.007 429.123 326.834 429.35C326.667 429.57 326.42 429.743 326.094 429.87C325.774 429.99 325.384 430.05 324.924 430.05Z" fill="#697181"/>
<path d="M340.015 422.94C340.635 422.94 341.158 423.08 341.585 423.36C342.012 423.633 342.335 424.03 342.555 424.55C342.775 425.07 342.885 425.7 342.885 426.44C342.885 427.227 342.748 427.89 342.475 428.43C342.208 428.97 341.835 429.377 341.355 429.65C340.875 429.923 340.318 430.06 339.685 430.06C339.372 430.06 339.072 430.03 338.785 429.97C338.505 429.91 338.252 429.813 338.025 429.68L338.315 429.1C338.495 429.22 338.702 429.307 338.935 429.36C339.175 429.407 339.422 429.43 339.675 429.43C340.428 429.43 341.028 429.19 341.475 428.71C341.928 428.23 342.155 427.513 342.155 426.56C342.155 426.407 342.145 426.223 342.125 426.01C342.112 425.797 342.075 425.583 342.015 425.37L342.265 425.56C342.198 425.907 342.055 426.203 341.835 426.45C341.622 426.69 341.355 426.873 341.035 427C340.722 427.127 340.372 427.19 339.985 427.19C339.525 427.19 339.115 427.103 338.755 426.93C338.402 426.757 338.125 426.513 337.925 426.2C337.725 425.887 337.625 425.517 337.625 425.09C337.625 424.65 337.728 424.27 337.935 423.95C338.142 423.63 338.425 423.383 338.785 423.21C339.152 423.03 339.562 422.94 340.015 422.94ZM340.045 423.55C339.712 423.55 339.415 423.613 339.155 423.74C338.902 423.86 338.702 424.033 338.555 424.26C338.408 424.487 338.335 424.757 338.335 425.07C338.335 425.53 338.492 425.897 338.805 426.17C339.125 426.443 339.555 426.58 340.095 426.58C340.455 426.58 340.768 426.513 341.035 426.38C341.308 426.247 341.518 426.063 341.665 425.83C341.818 425.597 341.895 425.337 341.895 425.05C341.895 424.79 341.825 424.547 341.685 424.32C341.545 424.093 341.338 423.91 341.065 423.77C340.792 423.623 340.452 423.55 340.045 423.55ZM349.696 424.7C350.123 424.7 350.496 424.783 350.816 424.95C351.143 425.11 351.396 425.357 351.576 425.69C351.763 426.023 351.856 426.443 351.856 426.95V430H351.146V427.02C351.146 426.467 351.006 426.05 350.726 425.77C350.453 425.483 350.066 425.34 349.566 425.34C349.193 425.34 348.866 425.417 348.586 425.57C348.313 425.717 348.099 425.933 347.946 426.22C347.799 426.5 347.726 426.84 347.726 427.24V430H347.016V422.58H347.726V426.19L347.586 425.92C347.753 425.54 348.019 425.243 348.386 425.03C348.753 424.81 349.189 424.7 349.696 424.7ZM353.774 430V424.75H354.454V426.18L354.384 425.93C354.53 425.53 354.777 425.227 355.124 425.02C355.47 424.807 355.9 424.7 356.414 424.7V425.39C356.387 425.39 356.36 425.39 356.334 425.39C356.307 425.383 356.28 425.38 356.254 425.38C355.7 425.38 355.267 425.55 354.954 425.89C354.64 426.223 354.484 426.7 354.484 427.32V430H353.774ZM359.178 430.05C358.745 430.05 358.335 429.99 357.948 429.87C357.561 429.743 357.258 429.587 357.038 429.4L357.358 428.84C357.571 429 357.845 429.14 358.178 429.26C358.511 429.373 358.861 429.43 359.228 429.43C359.728 429.43 360.088 429.353 360.308 429.2C360.528 429.04 360.638 428.83 360.638 428.57C360.638 428.377 360.575 428.227 360.448 428.12C360.328 428.007 360.168 427.923 359.968 427.87C359.768 427.81 359.545 427.76 359.298 427.72C359.051 427.68 358.805 427.633 358.558 427.58C358.318 427.527 358.098 427.45 357.898 427.35C357.698 427.243 357.535 427.1 357.408 426.92C357.288 426.74 357.228 426.5 357.228 426.2C357.228 425.913 357.308 425.657 357.468 425.43C357.628 425.203 357.861 425.027 358.168 424.9C358.481 424.767 358.861 424.7 359.308 424.7C359.648 424.7 359.988 424.747 360.328 424.84C360.668 424.927 360.948 425.043 361.168 425.19L360.858 425.76C360.625 425.6 360.375 425.487 360.108 425.42C359.841 425.347 359.575 425.31 359.308 425.31C358.835 425.31 358.485 425.393 358.258 425.56C358.038 425.72 357.928 425.927 357.928 426.18C357.928 426.38 357.988 426.537 358.108 426.65C358.235 426.763 358.398 426.853 358.598 426.92C358.805 426.98 359.028 427.03 359.268 427.07C359.515 427.11 359.758 427.16 359.998 427.22C360.245 427.273 360.468 427.35 360.668 427.45C360.875 427.543 361.038 427.68 361.158 427.86C361.285 428.033 361.348 428.263 361.348 428.55C361.348 428.857 361.261 429.123 361.088 429.35C360.921 429.57 360.675 429.743 360.348 429.87C360.028 429.99 359.638 430.05 359.178 430.05Z" fill="#697181"/>
<path d="M407.781 430V423.3L408.101 423.64H406.131V423H408.501V430H407.781ZM411.394 430V423.3L411.714 423.64H409.744V423H412.114V430H411.394ZM419.554 424.7C419.981 424.7 420.354 424.783 420.674 424.95C421.001 425.11 421.254 425.357 421.434 425.69C421.621 426.023 421.714 426.443 421.714 426.95V430H421.004V427.02C421.004 426.467 420.864 426.05 420.584 425.77C420.311 425.483 419.924 425.34 419.424 425.34C419.051 425.34 418.724 425.417 418.444 425.57C418.171 425.717 417.958 425.933 417.804 426.22C417.658 426.5 417.584 426.84 417.584 427.24V430H416.874V422.58H417.584V426.19L417.444 425.92C417.611 425.54 417.878 425.243 418.244 425.03C418.611 424.81 419.048 424.7 419.554 424.7ZM423.632 430V424.75H424.312V426.18L424.242 425.93C424.389 425.53 424.635 425.227 424.982 425.02C425.329 424.807 425.759 424.7 426.272 424.7V425.39C426.245 425.39 426.219 425.39 426.192 425.39C426.165 425.383 426.139 425.38 426.112 425.38C425.559 425.38 425.125 425.55 424.812 425.89C424.499 426.223 424.342 426.7 424.342 427.32V430H423.632ZM429.036 430.05C428.603 430.05 428.193 429.99 427.806 429.87C427.42 429.743 427.116 429.587 426.896 429.4L427.216 428.84C427.43 429 427.703 429.14 428.036 429.26C428.37 429.373 428.72 429.43 429.086 429.43C429.586 429.43 429.946 429.353 430.166 429.2C430.386 429.04 430.496 428.83 430.496 428.57C430.496 428.377 430.433 428.227 430.306 428.12C430.186 428.007 430.026 427.923 429.826 427.87C429.626 427.81 429.403 427.76 429.156 427.72C428.91 427.68 428.663 427.633 428.416 427.58C428.176 427.527 427.956 427.45 427.756 427.35C427.556 427.243 427.393 427.1 427.266 426.92C427.146 426.74 427.086 426.5 427.086 426.2C427.086 425.913 427.166 425.657 427.326 425.43C427.486 425.203 427.72 425.027 428.026 424.9C428.34 424.767 428.72 424.7 429.166 424.7C429.506 424.7 429.846 424.747 430.186 424.84C430.526 424.927 430.806 425.043 431.026 425.19L430.716 425.76C430.483 425.6 430.233 425.487 429.966 425.42C429.7 425.347 429.433 425.31 429.166 425.31C428.693 425.31 428.343 425.393 428.116 425.56C427.896 425.72 427.786 425.927 427.786 426.18C427.786 426.38 427.846 426.537 427.966 426.65C428.093 426.763 428.256 426.853 428.456 426.92C428.663 426.98 428.886 427.03 429.126 427.07C429.373 427.11 429.616 427.16 429.856 427.22C430.103 427.273 430.326 427.35 430.526 427.45C430.733 427.543 430.896 427.68 431.016 427.86C431.143 428.033 431.206 428.263 431.206 428.55C431.206 428.857 431.12 429.123 430.946 429.35C430.78 429.57 430.533 429.743 430.206 429.87C429.886 429.99 429.496 430.05 429.036 430.05Z" fill="#697181"/>
<path d="M373.381 430V423.3L373.701 423.64H371.731V423H374.101V430H373.381ZM378.564 430.06C378.024 430.06 377.544 429.92 377.124 429.64C376.704 429.353 376.374 428.947 376.134 428.42C375.894 427.887 375.774 427.247 375.774 426.5C375.774 425.753 375.894 425.117 376.134 424.59C376.374 424.057 376.704 423.65 377.124 423.37C377.544 423.083 378.024 422.94 378.564 422.94C379.104 422.94 379.584 423.083 380.004 423.37C380.424 423.65 380.754 424.057 380.994 424.59C381.241 425.117 381.364 425.753 381.364 426.5C381.364 427.247 381.241 427.887 380.994 428.42C380.754 428.947 380.424 429.353 380.004 429.64C379.584 429.92 379.104 430.06 378.564 430.06ZM378.564 429.4C378.977 429.4 379.337 429.29 379.644 429.07C379.951 428.843 380.191 428.517 380.364 428.09C380.537 427.657 380.624 427.127 380.624 426.5C380.624 425.873 380.537 425.347 380.364 424.92C380.191 424.487 379.951 424.16 379.644 423.94C379.337 423.713 378.977 423.6 378.564 423.6C378.164 423.6 377.807 423.713 377.494 423.94C377.181 424.16 376.937 424.487 376.764 424.92C376.591 425.347 376.504 425.873 376.504 426.5C376.504 427.127 376.591 427.657 376.764 428.09C376.937 428.517 377.181 428.843 377.494 429.07C377.807 429.29 378.164 429.4 378.564 429.4ZM388.162 424.7C388.589 424.7 388.962 424.783 389.282 424.95C389.609 425.11 389.862 425.357 390.042 425.69C390.229 426.023 390.322 426.443 390.322 426.95V430H389.612V427.02C389.612 426.467 389.472 426.05 389.192 425.77C388.919 425.483 388.532 425.34 388.032 425.34C387.659 425.34 387.332 425.417 387.052 425.57C386.779 425.717 386.566 425.933 386.412 426.22C386.266 426.5 386.192 426.84 386.192 427.24V430H385.482V422.58H386.192V426.19L386.052 425.92C386.219 425.54 386.486 425.243 386.852 425.03C387.219 424.81 387.656 424.7 388.162 424.7ZM392.24 430V424.75H392.92V426.18L392.85 425.93C392.997 425.53 393.243 425.227 393.59 425.02C393.937 424.807 394.367 424.7 394.88 424.7V425.39C394.853 425.39 394.827 425.39 394.8 425.39C394.773 425.383 394.747 425.38 394.72 425.38C394.167 425.38 393.733 425.55 393.42 425.89C393.107 426.223 392.95 426.7 392.95 427.32V430H392.24ZM397.644 430.05C397.211 430.05 396.801 429.99 396.414 429.87C396.028 429.743 395.724 429.587 395.504 429.4L395.824 428.84C396.038 429 396.311 429.14 396.644 429.26C396.978 429.373 397.328 429.43 397.694 429.43C398.194 429.43 398.554 429.353 398.774 429.2C398.994 429.04 399.104 428.83 399.104 428.57C399.104 428.377 399.041 428.227 398.914 428.12C398.794 428.007 398.634 427.923 398.434 427.87C398.234 427.81 398.011 427.76 397.764 427.72C397.518 427.68 397.271 427.633 397.024 427.58C396.784 427.527 396.564 427.45 396.364 427.35C396.164 427.243 396.001 427.1 395.874 426.92C395.754 426.74 395.694 426.5 395.694 426.2C395.694 425.913 395.774 425.657 395.934 425.43C396.094 425.203 396.328 425.027 396.634 424.9C396.948 424.767 397.328 424.7 397.774 424.7C398.114 424.7 398.454 424.747 398.794 424.84C399.134 424.927 399.414 425.043 399.634 425.19L399.324 425.76C399.091 425.6 398.841 425.487 398.574 425.42C398.308 425.347 398.041 425.31 397.774 425.31C397.301 425.31 396.951 425.393 396.724 425.56C396.504 425.72 396.394 425.927 396.394 426.18C396.394 426.38 396.454 426.537 396.574 426.65C396.701 426.763 396.864 426.853 397.064 426.92C397.271 426.98 397.494 427.03 397.734 427.07C397.981 427.11 398.224 427.16 398.464 427.22C398.711 427.273 398.934 427.35 399.134 427.45C399.341 427.543 399.504 427.68 399.624 427.86C399.751 428.033 399.814 428.263 399.814 428.55C399.814 428.857 399.728 429.123 399.554 429.35C399.388 429.57 399.141 429.743 398.814 429.87C398.494 429.99 398.104 430.05 397.644 430.05Z" fill="#697181"/>
<path d="M442.88 430V423.6L443.58 424.3H441.48V423H444.5V430H442.88ZM445.656 430V428.95L448.356 426.4C448.57 426.207 448.726 426.033 448.826 425.88C448.926 425.727 448.993 425.587 449.026 425.46C449.066 425.333 449.086 425.217 449.086 425.11C449.086 424.83 448.99 424.617 448.796 424.47C448.61 424.317 448.333 424.24 447.966 424.24C447.673 424.24 447.4 424.297 447.146 424.41C446.9 424.523 446.69 424.7 446.516 424.94L445.336 424.18C445.603 423.78 445.976 423.463 446.456 423.23C446.936 422.997 447.49 422.88 448.116 422.88C448.636 422.88 449.09 422.967 449.476 423.14C449.87 423.307 450.173 423.543 450.386 423.85C450.606 424.157 450.716 424.523 450.716 424.95C450.716 425.177 450.686 425.403 450.626 425.63C450.573 425.85 450.46 426.083 450.286 426.33C450.12 426.577 449.873 426.853 449.546 427.16L447.306 429.27L446.996 428.68H450.946V430H445.656ZM458.047 424.54C458.473 424.54 458.853 424.627 459.187 424.8C459.527 424.967 459.793 425.227 459.987 425.58C460.18 425.927 460.277 426.373 460.277 426.92V430H458.717V427.16C458.717 426.727 458.62 426.407 458.427 426.2C458.24 425.993 457.973 425.89 457.627 425.89C457.38 425.89 457.157 425.943 456.957 426.05C456.763 426.15 456.61 426.307 456.497 426.52C456.39 426.733 456.337 427.007 456.337 427.34V430H454.777V422.58H456.337V426.11L455.987 425.66C456.18 425.3 456.457 425.023 456.817 424.83C457.177 424.637 457.587 424.54 458.047 424.54ZM461.691 430V424.62H463.181V426.14L462.971 425.7C463.131 425.32 463.387 425.033 463.741 424.84C464.094 424.64 464.524 424.54 465.031 424.54V425.98C464.964 425.973 464.904 425.97 464.851 425.97C464.797 425.963 464.741 425.96 464.681 425.96C464.254 425.96 463.907 426.083 463.641 426.33C463.381 426.57 463.251 426.947 463.251 427.46V430H461.691ZM467.807 430.08C467.347 430.08 466.904 430.027 466.477 429.92C466.057 429.807 465.724 429.667 465.477 429.5L465.997 428.38C466.244 428.533 466.534 428.66 466.867 428.76C467.207 428.853 467.541 428.9 467.867 428.9C468.227 428.9 468.481 428.857 468.627 428.77C468.781 428.683 468.857 428.563 468.857 428.41C468.857 428.283 468.797 428.19 468.677 428.13C468.564 428.063 468.411 428.013 468.217 427.98C468.024 427.947 467.811 427.913 467.577 427.88C467.351 427.847 467.121 427.803 466.887 427.75C466.654 427.69 466.441 427.603 466.247 427.49C466.054 427.377 465.897 427.223 465.777 427.03C465.664 426.837 465.607 426.587 465.607 426.28C465.607 425.94 465.704 425.64 465.897 425.38C466.097 425.12 466.384 424.917 466.757 424.77C467.131 424.617 467.577 424.54 468.097 424.54C468.464 424.54 468.837 424.58 469.217 424.66C469.597 424.74 469.914 424.857 470.167 425.01L469.647 426.12C469.387 425.967 469.124 425.863 468.857 425.81C468.597 425.75 468.344 425.72 468.097 425.72C467.751 425.72 467.497 425.767 467.337 425.86C467.177 425.953 467.097 426.073 467.097 426.22C467.097 426.353 467.154 426.453 467.267 426.52C467.387 426.587 467.544 426.64 467.737 426.68C467.931 426.72 468.141 426.757 468.367 426.79C468.601 426.817 468.834 426.86 469.067 426.92C469.301 426.98 469.511 427.067 469.697 427.18C469.891 427.287 470.047 427.437 470.167 427.63C470.287 427.817 470.347 428.063 470.347 428.37C470.347 428.703 470.247 429 470.047 429.26C469.847 429.513 469.557 429.713 469.177 429.86C468.804 430.007 468.347 430.08 467.807 430.08Z" fill="#356AF0"/>
<path opacity="0.25" d="M70.9926 371H469.986" stroke="#838383"/>
<path opacity="0.25" d="M70.9926 225H469.986" stroke="#838383"/>
<path opacity="0.25" d="M70.9926 154H469.986" stroke="#838383"/>
<path opacity="0.25" d="M70.9926 298H469.986" stroke="#838383"/>
<path d="M70.9926 414H469.986" stroke="#838383"/>
<g filter="url(#filter1_d_4111_40595)">
<path d="M79.782 208V303.513" stroke="#356AF0" stroke-width="0.812879"/>
<rect x="70.9926" y="211.252" width="17.5802" height="82.1008" rx="2.43864" fill="#356AF0"/>
</g>
<g filter="url(#filter2_d_4111_40595)">
<path d="M213.544 180V321.513" stroke="#356AF0" stroke-width="0.812879"/>
<rect x="204.755" y="184.818" width="17.5802" height="121.641" rx="2.43864" fill="#356AF0"/>
</g>
<g filter="url(#filter3_d_4111_40595)">
<path d="M247.94 204V299.513" stroke="#356AF0" stroke-width="0.812879"/>
<rect x="239.151" y="207.252" width="17.5802" height="82.1008" rx="2.43864" fill="#356AF0"/>
</g>
<g filter="url(#filter4_d_4111_40595)">
<path d="M281.572 195V356" stroke="#356AF0" stroke-width="0.812879"/>
<rect x="272.782" y="200.482" width="17.5802" height="138.391" rx="2.43864" fill="#356AF0"/>
</g>
<g filter="url(#filter5_d_4111_40595)">
<path d="M315.968 195V401" stroke="#356AF0" stroke-width="0.812879"/>
<rect x="307.178" y="202.014" width="17.5802" height="177.072" rx="2.43864" fill="#356AF0"/>
</g>
<g filter="url(#filter6_d_4111_40595)">
<path d="M451.258 158V375" stroke="#356AF0" stroke-width="0.812879"/>
<rect x="442.469" y="165.389" width="17.5802" height="186.528" rx="2.43864" fill="#356AF0"/>
</g>
<g filter="url(#filter7_d_4111_40595)">
<path d="M79.782 208V303.513" stroke="#356AF0" stroke-width="0.812879"/>
</g>
<g filter="url(#filter8_d_4111_40595)">
<path d="M115.707 213V340.513" stroke="#DB5262" stroke-width="0.812879"/>
<rect x="106.917" y="222.768" width="17.5802" height="82.4767" rx="2.43864" fill="#DB5262"/>
</g>
<g filter="url(#filter9_d_4111_40595)">
<path d="M146.281 269V380" stroke="#DB5262" stroke-width="0.812879"/>
<rect x="137.491" y="277.503" width="17.5802" height="71.7957" rx="2.43864" fill="#DB5262"/>
</g>
<g filter="url(#filter10_d_4111_40595)">
<path d="M179.913 224V365.513" stroke="#DB5262" stroke-width="0.812879"/>
<rect x="171.123" y="234.84" width="17.5802" height="91.532" rx="2.43864" fill="#DB5262"/>
</g>
<g filter="url(#filter11_d_4111_40595)">
<path d="M350.364 221V362" stroke="#DB5262" stroke-width="0.812879"/>
<rect x="341.574" y="231.801" width="17.5802" height="91.2" rx="2.43864" fill="#DB5262"/>
</g>
<g filter="url(#filter12_d_4111_40595)">
<path d="M384.76 232V327.513" stroke="#DB5262" stroke-width="0.812879"/>
<rect x="375.97" y="239.316" width="17.5802" height="61.7788" rx="2.43864" fill="#DB5262"/>
</g>
<g filter="url(#filter13_d_4111_40595)">
<path d="M419.92 236V395" stroke="#DB5262" stroke-width="0.812879"/>
<rect x="411.13" y="248.18" width="17.5802" height="102.843" rx="2.43864" fill="#DB5262"/>
</g>
<g filter="url(#filter14_d_4111_40595)">
<rect opacity="0.05" x="417" y="73" width="50.41" height="29" rx="10.4351" fill="white"/>
<path d="M424.12 93V83.62L424.568 84.096H421.81V83.2H425.128V93H424.12ZM434.704 93.084C433.976 93.084 433.276 92.9673 432.604 92.734C431.942 92.4913 431.428 92.1833 431.064 91.81L431.47 91.012C431.816 91.348 432.278 91.6327 432.856 91.866C433.444 92.09 434.06 92.202 434.704 92.202C435.32 92.202 435.82 92.1273 436.202 91.978C436.594 91.8193 436.879 91.6093 437.056 91.348C437.243 91.0867 437.336 90.7973 437.336 90.48C437.336 90.0973 437.224 89.7893 437 89.556C436.786 89.3227 436.501 89.1407 436.146 89.01C435.792 88.87 435.4 88.7487 434.97 88.646C434.541 88.5433 434.112 88.436 433.682 88.324C433.253 88.2027 432.856 88.044 432.492 87.848C432.138 87.652 431.848 87.3953 431.624 87.078C431.41 86.7513 431.302 86.3267 431.302 85.804C431.302 85.3187 431.428 84.8753 431.68 84.474C431.942 84.0633 432.338 83.7367 432.87 83.494C433.402 83.242 434.084 83.116 434.914 83.116C435.465 83.116 436.011 83.1953 436.552 83.354C437.094 83.5033 437.56 83.7133 437.952 83.984L437.602 84.81C437.182 84.53 436.734 84.3247 436.258 84.194C435.792 84.0633 435.339 83.998 434.9 83.998C434.312 83.998 433.827 84.0773 433.444 84.236C433.062 84.3947 432.777 84.6093 432.59 84.88C432.413 85.1413 432.324 85.44 432.324 85.776C432.324 86.1587 432.432 86.4667 432.646 86.7C432.87 86.9333 433.16 87.1153 433.514 87.246C433.878 87.3767 434.275 87.4933 434.704 87.596C435.134 87.6987 435.558 87.8107 435.978 87.932C436.408 88.0533 436.8 88.212 437.154 88.408C437.518 88.5947 437.808 88.8467 438.022 89.164C438.246 89.4813 438.358 89.8967 438.358 90.41C438.358 90.886 438.228 91.3293 437.966 91.74C437.705 92.1413 437.304 92.468 436.762 92.72C436.23 92.9627 435.544 93.084 434.704 93.084ZM443.528 93.07C442.762 93.07 442.09 92.9113 441.512 92.594C440.933 92.2673 440.48 91.824 440.154 91.264C439.827 90.6947 439.664 90.046 439.664 89.318C439.664 88.59 439.818 87.946 440.126 87.386C440.443 86.826 440.872 86.3873 441.414 86.07C441.964 85.7433 442.58 85.58 443.262 85.58C443.952 85.58 444.564 85.7387 445.096 86.056C445.637 86.364 446.062 86.8027 446.37 87.372C446.678 87.932 446.832 88.5807 446.832 89.318C446.832 89.3647 446.827 89.416 446.818 89.472C446.818 89.5187 446.818 89.57 446.818 89.626H440.42V88.884H446.286L445.894 89.178C445.894 88.646 445.777 88.1747 445.544 87.764C445.32 87.344 445.012 87.0173 444.62 86.784C444.228 86.5507 443.775 86.434 443.262 86.434C442.758 86.434 442.305 86.5507 441.904 86.784C441.502 87.0173 441.19 87.344 440.966 87.764C440.742 88.184 440.63 88.6647 440.63 89.206V89.36C440.63 89.92 440.751 90.4147 440.994 90.844C441.246 91.264 441.591 91.5953 442.03 91.838C442.478 92.0713 442.986 92.188 443.556 92.188C444.004 92.188 444.419 92.1087 444.802 91.95C445.194 91.7913 445.53 91.5487 445.81 91.222L446.37 91.866C446.043 92.258 445.632 92.5567 445.138 92.762C444.652 92.9673 444.116 93.07 443.528 93.07ZM458.039 85.58C458.636 85.58 459.154 85.6967 459.593 85.93C460.041 86.154 460.386 86.4993 460.629 86.966C460.881 87.4327 461.007 88.0207 461.007 88.73V93H460.013V88.828C460.013 88.0533 459.826 87.47 459.453 87.078C459.089 86.6767 458.571 86.476 457.899 86.476C457.395 86.476 456.956 86.5833 456.583 86.798C456.219 87.0033 455.934 87.3067 455.729 87.708C455.533 88.1 455.435 88.576 455.435 89.136V93H454.441V88.828C454.441 88.0533 454.254 87.47 453.881 87.078C453.507 86.6767 452.985 86.476 452.313 86.476C451.818 86.476 451.384 86.5833 451.011 86.798C450.637 87.0033 450.348 87.3067 450.143 87.708C449.947 88.1 449.849 88.576 449.849 89.136V93H448.855V85.65H449.807V87.638L449.653 87.288C449.877 86.756 450.236 86.3407 450.731 86.042C451.235 85.734 451.827 85.58 452.509 85.58C453.227 85.58 453.839 85.762 454.343 86.126C454.847 86.4807 455.173 87.0173 455.323 87.736L454.931 87.582C455.145 86.9847 455.523 86.504 456.065 86.14C456.615 85.7667 457.273 85.58 458.039 85.58Z" fill="white"/>
<rect x="357" y="73" width="50.4098" height="29.3405" rx="10.4351" fill="#285CED"/>
<path d="M364.175 93V83.9L364.973 84.726H362.103V83.2H365.995V93H364.175ZM367.813 93V91.782L371.705 88.086C372.032 87.778 372.275 87.5073 372.433 87.274C372.592 87.0407 372.695 86.826 372.741 86.63C372.797 86.4247 372.825 86.2333 372.825 86.056C372.825 85.608 372.671 85.2627 372.363 85.02C372.055 84.768 371.603 84.642 371.005 84.642C370.529 84.642 370.095 84.726 369.703 84.894C369.321 85.062 368.989 85.3187 368.709 85.664L367.435 84.684C367.818 84.1707 368.331 83.774 368.975 83.494C369.629 83.2047 370.357 83.06 371.159 83.06C371.869 83.06 372.485 83.1767 373.007 83.41C373.539 83.634 373.945 83.956 374.225 84.376C374.515 84.796 374.659 85.2953 374.659 85.874C374.659 86.1913 374.617 86.5087 374.533 86.826C374.449 87.134 374.291 87.4607 374.057 87.806C373.824 88.1513 373.483 88.5387 373.035 88.968L369.689 92.146L369.311 91.46H375.037V93H367.813ZM384.731 85.44C385.328 85.44 385.86 85.5567 386.327 85.79C386.803 86.0233 387.176 86.3827 387.447 86.868C387.717 87.344 387.853 87.96 387.853 88.716V93H386.103V88.94C386.103 88.2773 385.944 87.7827 385.627 87.456C385.319 87.1293 384.885 86.966 384.325 86.966C383.914 86.966 383.55 87.05 383.233 87.218C382.915 87.386 382.668 87.638 382.491 87.974C382.323 88.3007 382.239 88.716 382.239 89.22V93H380.489V82.612H382.239V87.54L381.861 86.924C382.122 86.448 382.5 86.084 382.995 85.832C383.499 85.5707 384.077 85.44 384.731 85.44ZM390.073 93V85.524H391.739V87.582L391.543 86.98C391.767 86.476 392.117 86.0933 392.593 85.832C393.078 85.5707 393.68 85.44 394.399 85.44V87.106C394.324 87.0873 394.254 87.078 394.189 87.078C394.123 87.0687 394.058 87.064 393.993 87.064C393.33 87.064 392.803 87.26 392.411 87.652C392.019 88.0347 391.823 88.6087 391.823 89.374V93H390.073ZM398.262 93.098C397.636 93.098 397.034 93.0187 396.456 92.86C395.886 92.692 395.434 92.4913 395.098 92.258L395.77 90.928C396.106 91.1427 396.507 91.32 396.974 91.46C397.44 91.6 397.907 91.67 398.374 91.67C398.924 91.67 399.321 91.5953 399.564 91.446C399.816 91.2967 399.942 91.096 399.942 90.844C399.942 90.6387 399.858 90.4847 399.69 90.382C399.522 90.27 399.302 90.186 399.032 90.13C398.761 90.074 398.458 90.0227 398.122 89.976C397.795 89.9293 397.464 89.8687 397.128 89.794C396.801 89.71 396.502 89.5933 396.232 89.444C395.961 89.2853 395.742 89.0753 395.574 88.814C395.406 88.5527 395.322 88.2073 395.322 87.778C395.322 87.302 395.457 86.8913 395.728 86.546C395.998 86.1913 396.376 85.9207 396.862 85.734C397.356 85.538 397.94 85.44 398.612 85.44C399.116 85.44 399.624 85.496 400.138 85.608C400.651 85.72 401.076 85.8787 401.412 86.084L400.74 87.414C400.385 87.1993 400.026 87.0547 399.662 86.98C399.307 86.896 398.952 86.854 398.598 86.854C398.066 86.854 397.669 86.9333 397.408 87.092C397.156 87.2507 397.03 87.4513 397.03 87.694C397.03 87.918 397.114 88.086 397.282 88.198C397.45 88.31 397.669 88.3987 397.94 88.464C398.21 88.5293 398.509 88.5853 398.836 88.632C399.172 88.6693 399.503 88.73 399.83 88.814C400.156 88.898 400.455 89.0147 400.726 89.164C401.006 89.304 401.23 89.5047 401.398 89.766C401.566 90.0273 401.65 90.368 401.65 90.788C401.65 91.2547 401.51 91.6607 401.23 92.006C400.959 92.3513 400.572 92.622 400.068 92.818C399.564 93.0047 398.962 93.098 398.262 93.098Z" fill="white"/>
<rect opacity="0.05" x="309" y="73" width="38.1147" height="29.3405" rx="10.4351" fill="white"/>
<path d="M318.535 93V83.62L318.983 84.096H316.225V83.2H319.543V93H318.535ZM329.959 85.58C330.557 85.58 331.079 85.6967 331.527 85.93C331.985 86.154 332.339 86.4993 332.591 86.966C332.853 87.4327 332.983 88.0207 332.983 88.73V93H331.989V88.828C331.989 88.0533 331.793 87.47 331.401 87.078C331.019 86.6767 330.477 86.476 329.777 86.476C329.255 86.476 328.797 86.5833 328.405 86.798C328.023 87.0033 327.724 87.3067 327.509 87.708C327.304 88.1 327.201 88.576 327.201 89.136V93H326.207V82.612H327.201V87.666L327.005 87.288C327.239 86.756 327.612 86.3407 328.125 86.042C328.639 85.734 329.25 85.58 329.959 85.58ZM335.668 93V85.65H336.62V87.652L336.522 87.302C336.728 86.742 337.073 86.3173 337.558 86.028C338.044 85.7293 338.646 85.58 339.364 85.58V86.546C339.327 86.546 339.29 86.546 339.252 86.546C339.215 86.5367 339.178 86.532 339.14 86.532C338.366 86.532 337.759 86.77 337.32 87.246C336.882 87.7127 336.662 88.38 336.662 89.248V93H335.668Z" fill="white"/>
</g>
<g filter="url(#filter15_d_4111_40595)">
<g opacity="0.05" filter="url(#filter16_d_4111_40595)">
<rect x="21" y="67" width="168" height="35" rx="10.4351" fill="#F8FDFF"/>
</g>
<path d="M38.688 90.128C37.8347 90.128 37.0453 89.9893 36.32 89.712C35.6053 89.424 34.9813 89.024 34.448 88.512C33.9253 87.9893 33.5147 87.3813 33.216 86.688C32.9173 85.9947 32.768 85.232 32.768 84.4C32.768 83.568 32.9173 82.8053 33.216 82.112C33.5147 81.4187 33.9307 80.816 34.464 80.304C34.9973 79.7813 35.6213 79.3813 36.336 79.104C37.0613 78.816 37.8507 78.672 38.704 78.672C39.568 78.672 40.3627 78.8213 41.088 79.12C41.824 79.408 42.448 79.84 42.96 80.416L41.92 81.424C41.4933 80.976 41.0133 80.6453 40.48 80.432C39.9467 80.208 39.376 80.096 38.768 80.096C38.1387 80.096 37.552 80.2027 37.008 80.416C36.4747 80.6293 36.0107 80.928 35.616 81.312C35.2213 81.696 34.912 82.1547 34.688 82.688C34.4747 83.2107 34.368 83.7813 34.368 84.4C34.368 85.0187 34.4747 85.5947 34.688 86.128C34.912 86.6507 35.2213 87.104 35.616 87.488C36.0107 87.872 36.4747 88.1707 37.008 88.384C37.552 88.5973 38.1387 88.704 38.768 88.704C39.376 88.704 39.9467 88.5973 40.48 88.384C41.0133 88.16 41.4933 87.8187 41.92 87.36L42.96 88.368C42.448 88.944 41.824 89.3813 41.088 89.68C40.3627 89.9787 39.5627 90.128 38.688 90.128ZM48.2911 90.096C47.4378 90.096 46.6805 89.9093 46.0191 89.536C45.3578 89.1627 44.8351 88.6507 44.4511 88C44.0671 87.3387 43.8751 86.592 43.8751 85.76C43.8751 84.9173 44.0671 84.1707 44.4511 83.52C44.8351 82.8693 45.3578 82.3627 46.0191 82C46.6805 81.6267 47.4378 81.44 48.2911 81.44C49.1338 81.44 49.8858 81.6267 50.5471 82C51.2191 82.3627 51.7418 82.8693 52.1151 83.52C52.4991 84.16 52.6911 84.9067 52.6911 85.76C52.6911 86.6027 52.4991 87.3493 52.1151 88C51.7418 88.6507 51.2191 89.1627 50.5471 89.536C49.8858 89.9093 49.1338 90.096 48.2911 90.096ZM48.2911 88.752C48.8351 88.752 49.3205 88.6293 49.7471 88.384C50.1845 88.1387 50.5258 87.792 50.7711 87.344C51.0165 86.8853 51.1391 86.3573 51.1391 85.76C51.1391 85.152 51.0165 84.6293 50.7711 84.192C50.5258 83.744 50.1845 83.3973 49.7471 83.152C49.3205 82.9067 48.8351 82.784 48.2911 82.784C47.7471 82.784 47.2618 82.9067 46.8351 83.152C46.4085 83.3973 46.0671 83.744 45.8111 84.192C45.5551 84.6293 45.4271 85.152 45.4271 85.76C45.4271 86.3573 45.5551 86.8853 45.8111 87.344C46.0671 87.792 46.4085 88.1387 46.8351 88.384C47.2618 88.6293 47.7471 88.752 48.2911 88.752ZM59.3434 81.44C60.0367 81.44 60.6447 81.5733 61.1674 81.84C61.7007 82.1067 62.1167 82.512 62.4154 83.056C62.714 83.6 62.8634 84.288 62.8634 85.12V90H61.3274V85.296C61.3274 84.4747 61.1247 83.856 60.7194 83.44C60.3247 83.024 59.7647 82.816 59.0394 82.816C58.4954 82.816 58.0207 82.9227 57.6154 83.136C57.21 83.3493 56.8954 83.664 56.6714 84.08C56.458 84.496 56.3514 85.0133 56.3514 85.632V90H54.8154V81.52H56.2874V83.808L56.0474 83.2C56.3247 82.6453 56.7514 82.2133 57.3274 81.904C57.9034 81.5947 58.5754 81.44 59.3434 81.44ZM68.138 90.096C67.434 90.096 66.762 90 66.122 89.808C65.4927 89.616 64.9967 89.3813 64.634 89.104L65.274 87.888C65.6367 88.1333 66.0847 88.3413 66.618 88.512C67.1513 88.6827 67.6953 88.768 68.25 88.768C68.9647 88.768 69.4767 88.6667 69.786 88.464C70.106 88.2613 70.266 87.9787 70.266 87.616C70.266 87.3493 70.17 87.1413 69.978 86.992C69.786 86.8427 69.53 86.7307 69.21 86.656C68.9007 86.5813 68.554 86.5173 68.17 86.464C67.786 86.4 67.402 86.3253 67.018 86.24C66.634 86.144 66.282 86.016 65.962 85.856C65.642 85.6853 65.386 85.456 65.194 85.168C65.002 84.8693 64.906 84.4747 64.906 83.984C64.906 83.472 65.05 83.024 65.338 82.64C65.626 82.256 66.0313 81.9627 66.554 81.76C67.0873 81.5467 67.7167 81.44 68.442 81.44C68.9967 81.44 69.5567 81.5093 70.122 81.648C70.698 81.776 71.1673 81.9627 71.53 82.208L70.874 83.424C70.49 83.168 70.09 82.992 69.674 82.896C69.258 82.8 68.842 82.752 68.426 82.752C67.754 82.752 67.2527 82.864 66.922 83.088C66.5913 83.3013 66.426 83.5787 66.426 83.92C66.426 84.208 66.522 84.432 66.714 84.592C66.9167 84.7413 67.1727 84.8587 67.482 84.944C67.802 85.0293 68.154 85.104 68.538 85.168C68.922 85.2213 69.306 85.296 69.69 85.392C70.074 85.4773 70.4207 85.6 70.73 85.76C71.05 85.92 71.306 86.144 71.498 86.432C71.7007 86.72 71.802 87.104 71.802 87.584C71.802 88.096 71.6527 88.5387 71.354 88.912C71.0553 89.2853 70.634 89.5787 70.09 89.792C69.546 89.9947 68.8953 90.096 68.138 90.096ZM77.2896 90.096C76.5643 90.096 75.9243 89.9627 75.3696 89.696C74.8256 89.4293 74.399 89.024 74.0896 88.48C73.791 87.9253 73.6416 87.232 73.6416 86.4V81.52H75.1776V86.224C75.1776 87.056 75.375 87.68 75.7696 88.096C76.175 88.512 76.7403 88.72 77.4656 88.72C77.999 88.72 78.463 88.6133 78.8576 88.4C79.2523 88.176 79.5563 87.856 79.7696 87.44C79.983 87.0133 80.0896 86.5013 80.0896 85.904V81.52H81.6256V90H80.1696V87.712L80.4096 88.32C80.1323 88.8853 79.7163 89.3227 79.1616 89.632C78.607 89.9413 77.983 90.096 77.2896 90.096ZM95.1578 81.44C95.8404 81.44 96.4431 81.5733 96.9658 81.84C97.4884 82.1067 97.8938 82.512 98.1818 83.056C98.4804 83.6 98.6298 84.288 98.6298 85.12V90H97.0938V85.296C97.0938 84.4747 96.9018 83.856 96.5178 83.44C96.1338 83.024 95.5951 82.816 94.9018 82.816C94.3898 82.816 93.9418 82.9227 93.5578 83.136C93.1738 83.3493 92.8751 83.664 92.6618 84.08C92.4591 84.496 92.3578 85.0133 92.3578 85.632V90H90.8218V85.296C90.8218 84.4747 90.6298 83.856 90.2458 83.44C89.8724 83.024 89.3338 82.816 88.6298 82.816C88.1284 82.816 87.6858 82.9227 87.3018 83.136C86.9178 83.3493 86.6191 83.664 86.4058 84.08C86.1924 84.496 86.0858 85.0133 86.0858 85.632V90H84.5498V81.52H86.0218V83.776L85.7818 83.2C86.0484 82.6453 86.4591 82.2133 87.0138 81.904C87.5684 81.5947 88.2138 81.44 88.9498 81.44C89.7604 81.44 90.4591 81.6427 91.0458 82.048C91.6324 82.4427 92.0164 83.0453 92.1978 83.856L91.5738 83.6C91.8298 82.9493 92.2778 82.4267 92.9178 82.032C93.5578 81.6373 94.3044 81.44 95.1578 81.44ZM105.088 90.096C104.235 90.096 103.477 89.9093 102.816 89.536C102.155 89.1627 101.632 88.6507 101.248 88C100.864 87.3387 100.672 86.592 100.672 85.76C100.672 84.9173 100.864 84.1707 101.248 83.52C101.632 82.8693 102.155 82.3627 102.816 82C103.477 81.6267 104.235 81.44 105.088 81.44C105.931 81.44 106.683 81.6267 107.344 82C108.016 82.3627 108.539 82.8693 108.912 83.52C109.296 84.16 109.488 84.9067 109.488 85.76C109.488 86.6027 109.296 87.3493 108.912 88C108.539 88.6507 108.016 89.1627 107.344 89.536C106.683 89.9093 105.931 90.096 105.088 90.096ZM105.088 88.752C105.632 88.752 106.117 88.6293 106.544 88.384C106.981 88.1387 107.323 87.792 107.568 87.344C107.813 86.8853 107.936 86.3573 107.936 85.76C107.936 85.152 107.813 84.6293 107.568 84.192C107.323 83.744 106.981 83.3973 106.544 83.152C106.117 82.9067 105.632 82.784 105.088 82.784C104.544 82.784 104.059 82.9067 103.632 83.152C103.205 83.3973 102.864 83.744 102.608 84.192C102.352 84.6293 102.224 85.152 102.224 85.76C102.224 86.3573 102.352 86.8853 102.608 87.344C102.864 87.792 103.205 88.1387 103.632 88.384C104.059 88.6293 104.544 88.752 105.088 88.752Z" fill="#D0D0CE"/>
<path d="M176.787 83H170.201C169.756 83 169.533 83.5386 169.848 83.8536L173.141 87.1464C173.336 87.3417 173.652 87.3417 173.848 87.1464L177.141 83.8536C177.456 83.5386 177.232 83 176.787 83Z" fill="#D0D0CE"/>
</g>
<defs>
<filter id="filter0_d_4111_40595" x="0" y="0" width="489" height="468" filterUnits="userSpaceOnUse" color-interpolation-filters="sRGB">
<feFlood flood-opacity="0" result="BackgroundImageFix"/>
<feColorMatrix in="SourceAlpha" type="matrix" values="0 0 0 0 0 0 0 0 0 0 0 0 0 0 0 0 0 0 127 0" result="hardAlpha"/>
<feOffset dy="4"/>
<feGaussianBlur stdDeviation="2"/>
<feComposite in2="hardAlpha" operator="out"/>
<feColorMatrix type="matrix" values="0 0 0 0 0 0 0 0 0 0 0 0 0 0 0 0 0 0 0.25 0"/>
<feBlend mode="normal" in2="BackgroundImageFix" result="effect1_dropShadow_4111_40595"/>
<feBlend mode="normal" in="SourceGraphic" in2="effect1_dropShadow_4111_40595" result="shape"/>
</filter>
<filter id="filter1_d_4111_40595" x="41.7289" y="178.736" width="76.1074" height="154.041" filterUnits="userSpaceOnUse" color-interpolation-filters="sRGB">
<feFlood flood-opacity="0" result="BackgroundImageFix"/>
<feColorMatrix in="SourceAlpha" type="matrix" values="0 0 0 0 0 0 0 0 0 0 0 0 0 0 0 0 0 0 127 0" result="hardAlpha"/>
<feOffset/>
<feGaussianBlur stdDeviation="14.6318"/>
<feColorMatrix type="matrix" values="0 0 0 0 0.207843 0 0 0 0 0.415686 0 0 0 0 0.941176 0 0 0 0.5 0"/>
<feBlend mode="normal" in2="BackgroundImageFix" result="effect1_dropShadow_4111_40595"/>
<feBlend mode="normal" in="SourceGraphic" in2="effect1_dropShadow_4111_40595" result="shape"/>
</filter>
<filter id="filter2_d_4111_40595" x="175.491" y="150.736" width="76.1074" height="200.041" filterUnits="userSpaceOnUse" color-interpolation-filters="sRGB">
<feFlood flood-opacity="0" result="BackgroundImageFix"/>
<feColorMatrix in="SourceAlpha" type="matrix" values="0 0 0 0 0 0 0 0 0 0 0 0 0 0 0 0 0 0 127 0" result="hardAlpha"/>
<feOffset/>
<feGaussianBlur stdDeviation="14.6318"/>
<feColorMatrix type="matrix" values="0 0 0 0 0.207843 0 0 0 0 0.415686 0 0 0 0 0.941176 0 0 0 0.5 0"/>
<feBlend mode="normal" in2="BackgroundImageFix" result="effect1_dropShadow_4111_40595"/>
<feBlend mode="normal" in="SourceGraphic" in2="effect1_dropShadow_4111_40595" result="shape"/>
</filter>
<filter id="filter3_d_4111_40595" x="209.887" y="174.736" width="76.1074" height="154.041" filterUnits="userSpaceOnUse" color-interpolation-filters="sRGB">
<feFlood flood-opacity="0" result="BackgroundImageFix"/>
<feColorMatrix in="SourceAlpha" type="matrix" values="0 0 0 0 0 0 0 0 0 0 0 0 0 0 0 0 0 0 127 0" result="hardAlpha"/>
<feOffset/>
<feGaussianBlur stdDeviation="14.6318"/>
<feColorMatrix type="matrix" values="0 0 0 0 0.207843 0 0 0 0 0.415686 0 0 0 0 0.941176 0 0 0 0.5 0"/>
<feBlend mode="normal" in2="BackgroundImageFix" result="effect1_dropShadow_4111_40595"/>
<feBlend mode="normal" in="SourceGraphic" in2="effect1_dropShadow_4111_40595" result="shape"/>
</filter>
<filter id="filter4_d_4111_40595" x="243.519" y="165.736" width="76.1074" height="219.527" filterUnits="userSpaceOnUse" color-interpolation-filters="sRGB">
<feFlood flood-opacity="0" result="BackgroundImageFix"/>
<feColorMatrix in="SourceAlpha" type="matrix" values="0 0 0 0 0 0 0 0 0 0 0 0 0 0 0 0 0 0 127 0" result="hardAlpha"/>
<feOffset/>
<feGaussianBlur stdDeviation="14.6318"/>
<feColorMatrix type="matrix" values="0 0 0 0 0.207843 0 0 0 0 0.415686 0 0 0 0 0.941176 0 0 0 0.5 0"/>
<feBlend mode="normal" in2="BackgroundImageFix" result="effect1_dropShadow_4111_40595"/>
<feBlend mode="normal" in="SourceGraphic" in2="effect1_dropShadow_4111_40595" result="shape"/>
</filter>
<filter id="filter5_d_4111_40595" x="277.914" y="165.736" width="76.1074" height="264.527" filterUnits="userSpaceOnUse" color-interpolation-filters="sRGB">
<feFlood flood-opacity="0" result="BackgroundImageFix"/>
<feColorMatrix in="SourceAlpha" type="matrix" values="0 0 0 0 0 0 0 0 0 0 0 0 0 0 0 0 0 0 127 0" result="hardAlpha"/>
<feOffset/>
<feGaussianBlur stdDeviation="14.6318"/>
<feColorMatrix type="matrix" values="0 0 0 0 0.207843 0 0 0 0 0.415686 0 0 0 0 0.941176 0 0 0 0.5 0"/>
<feBlend mode="normal" in2="BackgroundImageFix" result="effect1_dropShadow_4111_40595"/>
<feBlend mode="normal" in="SourceGraphic" in2="effect1_dropShadow_4111_40595" result="shape"/>
</filter>
<filter id="filter6_d_4111_40595" x="413.205" y="128.736" width="76.1075" height="275.527" filterUnits="userSpaceOnUse" color-interpolation-filters="sRGB">
<feFlood flood-opacity="0" result="BackgroundImageFix"/>
<feColorMatrix in="SourceAlpha" type="matrix" values="0 0 0 0 0 0 0 0 0 0 0 0 0 0 0 0 0 0 127 0" result="hardAlpha"/>
<feOffset/>
<feGaussianBlur stdDeviation="14.6318"/>
<feColorMatrix type="matrix" values="0 0 0 0 0.207843 0 0 0 0 0.415686 0 0 0 0 0.941176 0 0 0 0.5 0"/>
<feBlend mode="normal" in2="BackgroundImageFix" result="effect1_dropShadow_4111_40595"/>
<feBlend mode="normal" in="SourceGraphic" in2="effect1_dropShadow_4111_40595" result="shape"/>
</filter>
<filter id="filter7_d_4111_40595" x="50.1119" y="178.736" width="59.3402" height="154.041" filterUnits="userSpaceOnUse" color-interpolation-filters="sRGB">
<feFlood flood-opacity="0" result="BackgroundImageFix"/>
<feColorMatrix in="SourceAlpha" type="matrix" values="0 0 0 0 0 0 0 0 0 0 0 0 0 0 0 0 0 0 127 0" result="hardAlpha"/>
<feOffset/>
<feGaussianBlur stdDeviation="14.6318"/>
<feColorMatrix type="matrix" values="0 0 0 0 0.207843 0 0 0 0 0.415686 0 0 0 0 0.941176 0 0 0 0.5 0"/>
<feBlend mode="normal" in2="BackgroundImageFix" result="effect1_dropShadow_4111_40595"/>
<feBlend mode="normal" in="SourceGraphic" in2="effect1_dropShadow_4111_40595" result="shape"/>
</filter>
<filter id="filter8_d_4111_40595" x="77.6535" y="183.736" width="76.1074" height="186.041" filterUnits="userSpaceOnUse" color-interpolation-filters="sRGB">
<feFlood flood-opacity="0" result="BackgroundImageFix"/>
<feColorMatrix in="SourceAlpha" type="matrix" values="0 0 0 0 0 0 0 0 0 0 0 0 0 0 0 0 0 0 127 0" result="hardAlpha"/>
<feOffset/>
<feGaussianBlur stdDeviation="14.6318"/>
<feColorMatrix type="matrix" values="0 0 0 0 0.858824 0 0 0 0 0.321569 0 0 0 0 0.384314 0 0 0 0.5 0"/>
<feBlend mode="normal" in2="BackgroundImageFix" result="effect1_dropShadow_4111_40595"/>
<feBlend mode="normal" in="SourceGraphic" in2="effect1_dropShadow_4111_40595" result="shape"/>
</filter>
<filter id="filter9_d_4111_40595" x="108.228" y="239.736" width="76.1074" height="169.527" filterUnits="userSpaceOnUse" color-interpolation-filters="sRGB">
<feFlood flood-opacity="0" result="BackgroundImageFix"/>
<feColorMatrix in="SourceAlpha" type="matrix" values="0 0 0 0 0 0 0 0 0 0 0 0 0 0 0 0 0 0 127 0" result="hardAlpha"/>
<feOffset/>
<feGaussianBlur stdDeviation="14.6318"/>
<feColorMatrix type="matrix" values="0 0 0 0 0.858824 0 0 0 0 0.321569 0 0 0 0 0.384314 0 0 0 0.5 0"/>
<feBlend mode="normal" in2="BackgroundImageFix" result="effect1_dropShadow_4111_40595"/>
<feBlend mode="normal" in="SourceGraphic" in2="effect1_dropShadow_4111_40595" result="shape"/>
</filter>
<filter id="filter10_d_4111_40595" x="141.859" y="194.736" width="76.1074" height="200.041" filterUnits="userSpaceOnUse" color-interpolation-filters="sRGB">
<feFlood flood-opacity="0" result="BackgroundImageFix"/>
<feColorMatrix in="SourceAlpha" type="matrix" values="0 0 0 0 0 0 0 0 0 0 0 0 0 0 0 0 0 0 127 0" result="hardAlpha"/>
<feOffset/>
<feGaussianBlur stdDeviation="14.6318"/>
<feColorMatrix type="matrix" values="0 0 0 0 0.858824 0 0 0 0 0.321569 0 0 0 0 0.384314 0 0 0 0.5 0"/>
<feBlend mode="normal" in2="BackgroundImageFix" result="effect1_dropShadow_4111_40595"/>
<feBlend mode="normal" in="SourceGraphic" in2="effect1_dropShadow_4111_40595" result="shape"/>
</filter>
<filter id="filter11_d_4111_40595" x="312.31" y="191.736" width="76.1075" height="199.527" filterUnits="userSpaceOnUse" color-interpolation-filters="sRGB">
<feFlood flood-opacity="0" result="BackgroundImageFix"/>
<feColorMatrix in="SourceAlpha" type="matrix" values="0 0 0 0 0 0 0 0 0 0 0 0 0 0 0 0 0 0 127 0" result="hardAlpha"/>
<feOffset/>
<feGaussianBlur stdDeviation="14.6318"/>
<feColorMatrix type="matrix" values="0 0 0 0 0.858824 0 0 0 0 0.321569 0 0 0 0 0.384314 0 0 0 0.5 0"/>
<feBlend mode="normal" in2="BackgroundImageFix" result="effect1_dropShadow_4111_40595"/>
<feBlend mode="normal" in="SourceGraphic" in2="effect1_dropShadow_4111_40595" result="shape"/>
</filter>
<filter id="filter12_d_4111_40595" x="346.706" y="202.736" width="76.1075" height="154.041" filterUnits="userSpaceOnUse" color-interpolation-filters="sRGB">
<feFlood flood-opacity="0" result="BackgroundImageFix"/>
<feColorMatrix in="SourceAlpha" type="matrix" values="0 0 0 0 0 0 0 0 0 0 0 0 0 0 0 0 0 0 127 0" result="hardAlpha"/>
<feOffset/>
<feGaussianBlur stdDeviation="14.6318"/>
<feColorMatrix type="matrix" values="0 0 0 0 0.858824 0 0 0 0 0.321569 0 0 0 0 0.384314 0 0 0 0.5 0"/>
<feBlend mode="normal" in2="BackgroundImageFix" result="effect1_dropShadow_4111_40595"/>
<feBlend mode="normal" in="SourceGraphic" in2="effect1_dropShadow_4111_40595" result="shape"/>
</filter>
<filter id="filter13_d_4111_40595" x="381.867" y="206.736" width="76.1074" height="217.527" filterUnits="userSpaceOnUse" color-interpolation-filters="sRGB">
<feFlood flood-opacity="0" result="BackgroundImageFix"/>
<feColorMatrix in="SourceAlpha" type="matrix" values="0 0 0 0 0 0 0 0 0 0 0 0 0 0 0 0 0 0 127 0" result="hardAlpha"/>
<feOffset/>
<feGaussianBlur stdDeviation="14.6318"/>
<feColorMatrix type="matrix" values="0 0 0 0 0.858824 0 0 0 0 0.321569 0 0 0 0 0.384314 0 0 0 0.5 0"/>
<feBlend mode="normal" in2="BackgroundImageFix" result="effect1_dropShadow_4111_40595"/>
<feBlend mode="normal" in="SourceGraphic" in2="effect1_dropShadow_4111_40595" result="shape"/>
</filter>
<filter id="filter14_d_4111_40595" x="305" y="73" width="166.41" height="37.3405" filterUnits="userSpaceOnUse" color-interpolation-filters="sRGB">
<feFlood flood-opacity="0" result="BackgroundImageFix"/>
<feColorMatrix in="SourceAlpha" type="matrix" values="0 0 0 0 0 0 0 0 0 0 0 0 0 0 0 0 0 0 127 0" result="hardAlpha"/>
<feOffset dy="4"/>
<feGaussianBlur stdDeviation="2"/>
<feComposite in2="hardAlpha" operator="out"/>
<feColorMatrix type="matrix" values="0 0 0 0 0 0 0 0 0 0 0 0 0 0 0 0 0 0 0.25 0"/>
<feBlend mode="normal" in2="BackgroundImageFix" result="effect1_dropShadow_4111_40595"/>
<feBlend mode="normal" in="SourceGraphic" in2="effect1_dropShadow_4111_40595" result="shape"/>
</filter>
<filter id="filter15_d_4111_40595" x="17" y="67" width="176" height="43" filterUnits="userSpaceOnUse" color-interpolation-filters="sRGB">
<feFlood flood-opacity="0" result="BackgroundImageFix"/>
<feColorMatrix in="SourceAlpha" type="matrix" values="0 0 0 0 0 0 0 0 0 0 0 0 0 0 0 0 0 0 127 0" result="hardAlpha"/>
<feOffset dy="4"/>
<feGaussianBlur stdDeviation="2"/>
<feComposite in2="hardAlpha" operator="out"/>
<feColorMatrix type="matrix" values="0 0 0 0 0 0 0 0 0 0 0 0 0 0 0 0 0 0 0.25 0"/>
<feBlend mode="normal" in2="BackgroundImageFix" result="effect1_dropShadow_4111_40595"/>
<feBlend mode="normal" in="SourceGraphic" in2="effect1_dropShadow_4111_40595" result="shape"/>
</filter>
<filter id="filter16_d_4111_40595" x="17" y="67" width="176" height="43" filterUnits="userSpaceOnUse" color-interpolation-filters="sRGB">
<feFlood flood-opacity="0" result="BackgroundImageFix"/>
<feColorMatrix in="SourceAlpha" type="matrix" values="0 0 0 0 0 0 0 0 0 0 0 0 0 0 0 0 0 0 127 0" result="hardAlpha"/>
<feOffset dy="4"/>
<feGaussianBlur stdDeviation="2"/>
<feComposite in2="hardAlpha" operator="out"/>
<feColorMatrix type="matrix" values="0 0 0 0 0 0 0 0 0 0 0 0 0 0 0 0 0 0 0.25 0"/>
<feBlend mode="normal" in2="BackgroundImageFix" result="effect1_dropShadow_4111_40595"/>
<feBlend mode="normal" in="SourceGraphic" in2="effect1_dropShadow_4111_40595" result="shape"/>
</filter>
</defs>
</svg>
