<svg xmlns="http://www.w3.org/2000/svg" width="40" height="40" viewBox="0 0 40 40" fill="none">
<rect width="40" height="40" rx="8" fill="#7b8aa0"/>
<path d="M12 22.8851H11.25H12ZM14.7329 26.0834L14.8359 25.3405H14.8359L14.7329 26.0834ZM24.9193 26.0834L24.8163 25.3405H24.8162L24.9193 26.0834ZM12.4665 21.1872L11.8223 20.8031L12.4665 21.1872ZM14.4891 16.087C14.4891 13.1394 16.8786 10.75 19.8261 10.75V9.25C16.0501 9.25 12.9891 12.311 12.9891 16.087H14.4891ZM14.4891 18.1795V16.087H12.9891V18.1795H14.4891ZM12.75 22.8851C12.75 22.4037 12.8817 21.9552 13.1106 21.5714L11.8223 20.8031C11.4587 21.4128 11.25 22.1257 11.25 22.8851H12.75ZM14.8359 25.3405C13.6363 25.1742 12.75 24.1313 12.75 22.8851H11.25C11.25 24.8448 12.6541 26.5524 14.6299 26.8263L14.8359 25.3405ZM19.8261 25.772C18.3341 25.772 16.4065 25.5583 14.8359 25.3405L14.6299 26.8263C16.2127 27.0458 18.2254 27.272 19.8261 27.272V25.772ZM24.8162 25.3405C23.2457 25.5583 21.3181 25.772 19.8261 25.772V27.272C21.4268 27.272 23.4395 27.0458 25.0223 26.8263L24.8162 25.3405ZM26.9022 22.8851C26.9022 24.1313 26.0159 25.1742 24.8163 25.3405L25.0223 26.8263C26.9981 26.5524 28.4022 24.8448 28.4022 22.8851H26.9022ZM26.5416 21.5714C26.7705 21.9552 26.9022 22.4037 26.9022 22.8851H28.4022C28.4022 22.1257 28.1935 21.4128 27.8299 20.8031L26.5416 21.5714ZM25.1631 16.087V18.1795H26.6631V16.087H25.1631ZM19.8261 10.75C22.7736 10.75 25.1631 13.1394 25.1631 16.087H26.6631C26.6631 12.311 23.602 9.25 19.8261 9.25V10.75ZM27.8299 20.8031C27.521 20.2851 27.2404 19.8701 27.0091 19.4066C26.7876 18.9629 26.6631 18.567 26.6631 18.1795H25.1631C25.1631 18.8924 25.3931 19.5278 25.667 20.0766C25.9311 20.6056 26.2869 21.1443 26.5416 21.5714L27.8299 20.8031ZM12.9891 18.1795C12.9891 18.567 12.8646 18.9629 12.6431 19.4066C12.4118 19.8701 12.1312 20.2851 11.8223 20.8031L13.1106 21.5714C13.3653 21.1443 13.7211 20.6056 13.9852 20.0766C14.2591 19.5278 14.4891 18.8923 14.4891 18.1795H12.9891Z" fill="#3B4559"/>
<path d="M22 28.834C21.5326 29.5369 20.7335 30.0002 19.8261 30.0002C18.9187 30.0002 18.1195 29.5369 17.6522 28.834" stroke="#3B4559" stroke-width="1.5" stroke-linecap="round" fill="#7b8aa0"/>
</svg>