<svg width="26" height="19" viewBox="0 0 26 19" fill="none" xmlns="http://www.w3.org/2000/svg">
<path d="M17 6.50052L17 3.63014C17 2.52557 16.1046 1.63014 15 1.63014L3 1.63014C1.89543 1.63014 1 2.52557 1 3.63014L1 9.25977C1 10.3643 1.89543 11.2598 3 11.2598L17 11.2598" stroke="#838383" stroke-width="1.5"/>
<ellipse cx="1" cy="0.962963" rx="1" ry="0.962963" transform="matrix(1 0 0 -1 12 7.4082)" stroke="#838383" stroke-width="1.5"/>
<path d="M4 6.44434H8.5" stroke="#838383" stroke-width="2" stroke-linecap="round"/>
<path d="M24.7819 8.23221C24.8515 8.33359 24.899 8.44847 24.9213 8.56939C25.075 9.36793 25.0043 10.1935 24.7169 10.9542C24.4296 11.715 23.9368 12.3811 23.2935 12.8785C22.6502 13.376 21.8815 13.6852 21.0729 13.7719C20.2643 13.8586 19.4475 13.7193 18.7134 13.3695L14.5316 17.4777C14.1909 17.8124 13.7324 18 13.2547 18H12.8536C12.6272 18 12.4101 17.9101 12.25 17.75C12.0899 17.5899 12 17.3728 12 17.1464V16.7499C12 16.2697 12.1907 15.8092 12.5302 15.4696L16.6479 11.3502C16.2799 10.6163 16.1253 9.79375 16.2018 8.97626C16.2783 8.15877 16.5828 7.37917 17.0806 6.72624C17.5784 6.07331 18.2496 5.57327 19.0176 5.28305C19.7857 4.99283 20.6198 4.9241 21.425 5.08467C21.548 5.12175 21.6614 5.1854 21.7571 5.27114C21.8528 5.35688 21.9285 5.46261 21.9789 5.58084L19.6711 7.8886C19.4597 8.1043 19.3413 8.39429 19.3413 8.69632C19.3413 8.99835 19.4597 9.28431 19.6711 9.5L20.5481 10.2887C20.6557 10.4003 20.7847 10.4892 20.9275 10.5498C21.0702 10.6105 21.2237 10.6418 21.3789 10.6418C21.534 10.6418 21.6875 10.6105 21.8302 10.5498C21.973 10.4892 22.102 10.4003 22.2096 10.2887L24.5174 7.98091C24.6222 8.04521 24.7123 8.13082 24.7819 8.23221Z" stroke="#838383" stroke-width="1.5" stroke-linecap="round" stroke-linejoin="round"/>
</svg>
