<svg width="15" height="16" viewBox="0 0 15 16" fill="none" xmlns="http://www.w3.org/2000/svg">
<path d="M12.8696 1H2.13043C1.50611 1 1 1.54504 1 2.21739V13.7826C1 14.455 1.50611 15 2.13043 15H12.8696C13.4939 15 14 14.455 14 13.7826V2.21739C14 1.54504 13.4939 1 12.8696 1Z" stroke="black" stroke-linecap="round" stroke-linejoin="round"/>
<path d="M2 8.73874H3.37442C4.65158 8.73874 4.541 7.67053 5.47774 3.22776C5.4913 3.16339 5.52688 3.10561 5.57849 3.06413C5.63011 3.02265 5.69461 3 5.76113 3C5.82766 3 5.89215 3.02265 5.94377 3.06413C5.99538 3.10561 6.03096 3.16339 6.04453 3.22776L7.81726 11.7712C7.83044 11.8349 7.86522 11.8923 7.91587 11.9339C7.96651 11.9755 8.03 11.9988 8.09584 12C8.16169 12.0011 8.22595 11.98 8.27804 11.9402C8.33012 11.9003 8.3669 11.8442 8.38232 11.7809L9.60332 6.75337C9.61757 6.69422 9.65052 6.64109 9.69739 6.6017C9.74425 6.56231 9.80261 6.5387 9.86397 6.5343C9.92534 6.5299 9.98652 6.54494 10.0387 6.57723C10.0908 6.60952 10.1312 6.65739 10.1539 6.71389C10.5841 7.77695 10.756 8.73989 11.7576 8.73989H13" stroke="black" stroke-linecap="round" stroke-linejoin="round"/>
</svg>
