<svg width="25" height="25" viewBox="0 0 25 25" fill="none" xmlns="http://www.w3.org/2000/svg">
<path d="M10.1 8.22202C9.20941 7.97244 8.27309 7.93266 7.36454 8.10581C6.45599 8.27896 5.59993 8.66033 4.86356 9.21997C4.12719 9.77961 3.53054 10.5023 3.12045 11.3313C2.71036 12.1603 2.49799 13.0731 2.5 13.998V19.498C2.5 19.8958 2.34196 20.2774 2.06066 20.5587C1.77936 20.84 1.39782 20.998 1 20.998H16C15.6022 20.998 15.2206 20.84 14.9393 20.5587C14.658 20.2774 14.5 19.8958 14.5 19.498V14.184" stroke="white" stroke-linecap="round" stroke-linejoin="round"/>
<path d="M9.91494 22.998C9.81166 23.2907 9.62015 23.5441 9.36681 23.7234C9.11348 23.9026 8.81078 23.9989 8.50044 23.9989C8.1901 23.9989 7.8874 23.9026 7.63406 23.7234C7.38072 23.5441 7.18922 23.2907 7.08594 22.998" stroke="white" stroke-linecap="round" stroke-linejoin="round"/>
<path d="M8.5 5.99902V7.99902" stroke="white" stroke-linecap="round" stroke-linejoin="round"/>
<path d="M12 7C12 8.5913 12.6321 10.1174 13.7574 11.2426C14.8826 12.3679 16.4087 13 18 13C19.5913 13 21.1174 12.3679 22.2426 11.2426C23.3679 10.1174 24 8.5913 24 7C24 5.4087 23.3679 3.88258 22.2426 2.75736C21.1174 1.63214 19.5913 1 18 1C16.4087 1 14.8826 1.63214 13.7574 2.75736C12.6321 3.88258 12 5.4087 12 7V7Z" stroke="white" stroke-linecap="round" stroke-linejoin="round"/>
<path d="M20.6739 5.2561L17.7689 9.1291C17.7043 9.21494 17.6221 9.28594 17.5277 9.33731C17.4333 9.38868 17.329 9.41923 17.2219 9.42691C17.1147 9.43458 17.0071 9.4192 16.9064 9.3818C16.8057 9.34441 16.7141 9.28586 16.6379 9.2101L15.1379 7.7101" stroke="white" stroke-linecap="round" stroke-linejoin="round"/>
</svg>
