<svg width="25" height="25" viewBox="0 0 25 25" fill="none" xmlns="http://www.w3.org/2000/svg">
<path d="M12 18C12 19.5913 12.6321 21.1174 13.7574 22.2426C14.8826 23.3679 16.4087 24 18 24C19.5913 24 21.1174 23.3679 22.2426 22.2426C23.3679 21.1174 24 19.5913 24 18C24 16.4087 23.3679 14.8826 22.2426 13.7574C21.1174 12.6321 19.5913 12 18 12C16.4087 12 14.8826 12.6321 13.7574 13.7574C12.6321 14.8826 12 16.4087 12 18Z" stroke="white" stroke-linecap="round" stroke-linejoin="round"/>
<path d="M18 15V21" stroke="white" stroke-linecap="round" stroke-linejoin="round"/>
<path d="M21 18H15" stroke="white" stroke-linecap="round" stroke-linejoin="round"/>
<path d="M9 18H1C0.999951 16.7431 1.33832 15.5094 1.97957 14.4284C2.62082 13.3474 3.54131 12.459 4.64436 11.8565C5.74742 11.254 6.99236 10.9596 8.24846 11.0042C9.50455 11.0488 10.7255 11.4308 11.783 12.11" stroke="white" stroke-linecap="round" stroke-linejoin="round"/>
<path d="M3.75 5.25C3.75 6.37717 4.19777 7.45817 4.9948 8.2552C5.79183 9.05223 6.87283 9.5 8 9.5C9.12717 9.5 10.2082 9.05223 11.0052 8.2552C11.8022 7.45817 12.25 6.37717 12.25 5.25C12.25 4.12283 11.8022 3.04183 11.0052 2.2448C10.2082 1.44777 9.12717 1 8 1C6.87283 1 5.79183 1.44777 4.9948 2.2448C4.19777 3.04183 3.75 4.12283 3.75 5.25V5.25Z" stroke="white" stroke-linecap="round" stroke-linejoin="round"/>
</svg>
