<svg width="25" height="25" viewBox="0 0 25 25" fill="none" xmlns="http://www.w3.org/2000/svg">
<path d="M12 18C12 19.5913 12.6321 21.1174 13.7574 22.2426C14.8826 23.3679 16.4087 24 18 24C19.5913 24 21.1174 23.3679 22.2426 22.2426C23.3679 21.1174 24 19.5913 24 18C24 16.4087 23.3679 14.8826 22.2426 13.7574C21.1174 12.6321 19.5913 12 18 12C16.4087 12 14.8826 12.6321 13.7574 13.7574C12.6321 14.8826 12 16.4087 12 18Z" stroke="white" stroke-linecap="round" stroke-linejoin="round"/>
<path d="M18 15V21" stroke="white" stroke-linecap="round" stroke-linejoin="round"/>
<path d="M21 18H15" stroke="white" stroke-linecap="round" stroke-linejoin="round"/>
<path d="M5 9H14.5" stroke="white" stroke-linecap="round" stroke-linejoin="round"/>
<path d="M5 12H11" stroke="white" stroke-linecap="round" stroke-linejoin="round"/>
<path d="M5 6H12" stroke="white" stroke-linecap="round" stroke-linejoin="round"/>
<path d="M5 15H9" stroke="white" stroke-linecap="round" stroke-linejoin="round"/>
<path d="M5 18H9" stroke="white" stroke-linecap="round" stroke-linejoin="round"/>
<path d="M11 24H2C1.73478 24 1.48043 23.8946 1.29289 23.7071C1.10536 23.5196 1 23.2652 1 23V2C1 1.73478 1.10536 1.48043 1.29289 1.29289C1.48043 1.10536 1.73478 1 2 1H15.293C15.5582 1.00006 15.8125 1.10545 16 1.293L19.707 5C19.8946 5.18749 19.9999 5.4418 20 5.707V9" stroke="white" stroke-linecap="round" stroke-linejoin="round"/>
</svg>
