<svg width="25" height="25" viewBox="0 0 25 25" fill="none" xmlns="http://www.w3.org/2000/svg">
<path d="M23.378 15.623L15.747 23.253L11.997 24.003L12.747 20.253L20.378 12.623C20.5743 12.4263 20.8074 12.2703 21.064 12.1639C21.3206 12.0575 21.5957 12.0027 21.8735 12.0027C22.1513 12.0027 22.4264 12.0575 22.683 12.1639C22.9396 12.2703 23.1727 12.4263 23.369 12.623L23.378 12.631C23.7747 13.0278 23.9975 13.5659 23.9975 14.127C23.9975 14.688 23.7747 15.2261 23.378 15.623V15.623Z" stroke="white" stroke-linecap="round" stroke-linejoin="round"/>
<path d="M9 24H2C1.73478 24 1.48043 23.8946 1.29289 23.7071C1.10536 23.5196 1 23.2652 1 23V2C1 1.73478 1.10536 1.48043 1.29289 1.29289C1.48043 1.10536 1.73478 1 2 1H15.29C15.4223 1.00055 15.5532 1.02735 15.6751 1.07885C15.7969 1.13034 15.9074 1.20551 16 1.3L19.7 5C19.8876 5.18749 19.9929 5.4418 19.993 5.707V9" stroke="white" stroke-linecap="round" stroke-linejoin="round"/>
<path d="M3.99699 16.0029H12.997" stroke="white" stroke-linecap="round" stroke-linejoin="round"/>
<path d="M5.5 11H6.5C6.63261 11 6.75979 11.0527 6.85355 11.1464C6.94732 11.2402 7 11.3674 7 11.5V16H5V11.5C5 11.3674 5.05268 11.2402 5.14645 11.1464C5.24021 11.0527 5.36739 11 5.5 11V11Z" stroke="white" stroke-linecap="round" stroke-linejoin="round"/>
<path d="M11 16V8.5C11 8.36739 10.9473 8.24021 10.8536 8.14645C10.7598 8.05268 10.6326 8 10.5 8H9.5C9.36739 8 9.24021 8.05268 9.14645 8.14645C9.05268 8.24021 9 8.36739 9 8.5V16" stroke="white" stroke-linecap="round" stroke-linejoin="round"/>
<path d="M15 13V10.5C15 10.3674 14.9473 10.2402 14.8536 10.1464C14.7598 10.0527 14.6326 10 14.5 10H13.5C13.3674 10 13.2402 10.0527 13.1464 10.1464C13.0527 10.2402 13 10.3674 13 10.5V16" stroke="white" stroke-linecap="round" stroke-linejoin="round"/>
</svg>
