<svg width="25" height="25" viewBox="0 0 25 25" fill="none" xmlns="http://www.w3.org/2000/svg">
<path d="M10 17H2C1.44772 17 1 17.4477 1 18V23C1 23.5523 1.44772 24 2 24H10C10.5523 24 11 23.5523 11 23V18C11 17.4477 10.5523 17 10 17Z" stroke="white" stroke-linecap="round" stroke-linejoin="round"/>
<path d="M15 24H23C23.5523 24 24 23.5523 24 23V12C24 11.4477 23.5523 11 23 11L15 11C14.4477 11 14 11.4477 14 12L14 23C14 23.5523 14.4477 24 15 24Z" stroke="white" stroke-linecap="round" stroke-linejoin="round"/>
<path d="M15 8L23 8C23.5523 8 24 7.55228 24 7V2C24 1.44772 23.5523 1 23 1L15 1C14.4477 1 14 1.44772 14 2V7C14 7.55228 14.4477 8 15 8Z" stroke="white" stroke-linecap="round" stroke-linejoin="round"/>
<path d="M10 1H2C1.44772 1 1 1.44772 1 2V13C1 13.5523 1.44772 14 2 14H10C10.5523 14 11 13.5523 11 13V2C11 1.44772 10.5523 1 10 1Z" stroke="white" stroke-linecap="round" stroke-linejoin="round"/>
</svg>
