<svg width="26" height="19" viewBox="0 0 26 19" fill="none" xmlns="http://www.w3.org/2000/svg">
<path d="M11.4346 12.9998C11.4346 13.4149 11.5995 13.813 11.893 14.1066C12.1865 14.4001 12.5847 14.565 12.9998 14.565C13.4149 14.565 13.813 14.4001 14.1066 14.1066C14.4001 13.813 14.565 13.4149 14.565 12.9998C14.565 12.5847 14.4001 12.1865 14.1066 11.893C13.813 11.5995 13.4149 11.4346 12.9998 11.4346C12.5847 11.4346 12.1865 11.5995 11.893 11.893C11.5995 12.1865 11.4346 12.5847 11.4346 12.9998V12.9998Z" stroke="black" stroke-linecap="round" stroke-linejoin="round"/>
<path d="M14.1055 11.8932L19.2717 6.729" stroke="black" stroke-linecap="round" stroke-linejoin="round"/>
<path d="M3.08691 13.522H5.17387" stroke="black" stroke-linecap="round" stroke-linejoin="round"/>
<path d="M22.9131 13.522H20.8262" stroke="black" stroke-linecap="round" stroke-linejoin="round"/>
<path d="M22.1568 9.20703L20.2295 10.0053" stroke="black" stroke-linecap="round" stroke-linejoin="round"/>
<path d="M16.7934 3.84131L15.9951 5.76966" stroke="black" stroke-linecap="round" stroke-linejoin="round"/>
<path d="M13 3.08691V5.17387" stroke="black" stroke-linecap="round" stroke-linejoin="round"/>
<path d="M9.20703 3.84131L10.0053 5.76966" stroke="black" stroke-linecap="round" stroke-linejoin="round"/>
<path d="M5.99121 5.99023L7.4646 7.46676" stroke="black" stroke-linecap="round" stroke-linejoin="round"/>
<path d="M3.8418 9.20703L5.76806 10.0053" stroke="black" stroke-linecap="round" stroke-linejoin="round"/>
<path d="M13 1C9.8174 1 6.76516 2.26428 4.51472 4.51472C2.26428 6.76515 1 9.8174 1 13V16.6522C1 16.9289 1.10994 17.1943 1.30563 17.39C1.50132 17.5857 1.76673 17.6957 2.04348 17.6957H23.9565C24.2333 17.6957 24.4987 17.5857 24.6944 17.39C24.8901 17.1943 25 16.9289 25 16.6522V13C25 9.8174 23.7357 6.76515 21.4853 4.51472C19.2348 2.26428 16.1826 1 13 1V1Z" stroke="black" stroke-linecap="round" stroke-linejoin="round"/>
</svg>
