<svg width="26" height="26" viewBox="0 0 26 26" fill="none" xmlns="http://www.w3.org/2000/svg">
<path d="M13.0939 1.0009C13.8024 0.987732 14.5061 1.11897 15.1623 1.38661C15.8184 1.65425 16.4132 2.05269 16.9103 2.55766C17.4075 3.06262 17.7966 3.66352 18.054 4.32375C18.3113 4.98397 18.4316 5.68969 18.4074 6.3979C18.4074 9.0703 14.7433 14.7492 13.501 16.4403C13.4561 16.507 13.3955 16.5617 13.3245 16.5995C13.2535 16.6373 13.1743 16.6571 13.0939 16.6571C13.0134 16.6571 12.9342 16.6373 12.8632 16.5995C12.7923 16.5617 12.7316 16.507 12.6868 16.4403C11.4445 14.7387 7.78039 9.0703 7.78039 6.3979C7.75618 5.68969 7.87642 4.98397 8.1338 4.32375C8.39118 3.66352 8.7803 3.06262 9.27745 2.55766C9.77459 2.05269 10.3694 1.65425 11.0255 1.38661C11.6816 1.11897 12.3854 0.987732 13.0939 1.0009V1.0009Z" stroke="black" stroke-linecap="round" stroke-linejoin="round"/>
<path d="M15.0873 6.31417C15.0873 6.70852 14.9704 7.09402 14.7513 7.4219C14.5322 7.74979 14.2208 8.00535 13.8565 8.15626C13.4922 8.30717 13.0913 8.34666 12.7045 8.26972C12.3177 8.19279 11.9624 8.00289 11.6836 7.72405C11.4048 7.4452 11.2149 7.08993 11.1379 6.70316C11.061 6.31639 11.1005 5.91549 11.2514 5.55116C11.4023 5.18683 11.6579 4.87543 11.9857 4.65634C12.3136 4.43725 12.6991 4.32031 13.0935 4.32031C13.6214 4.32306 14.127 4.534 14.5003 4.90733C14.8736 5.28066 15.0846 5.78622 15.0873 6.31417V6.31417Z" stroke="black" stroke-linecap="round" stroke-linejoin="round"/>
<path d="M20.3073 5.17677H22.0924C22.3521 5.17547 22.603 5.27101 22.796 5.44473C22.989 5.61846 23.1104 5.8579 23.1363 6.11629L24.9945 23.8627C25.0094 24.0075 24.9939 24.1538 24.949 24.2922C24.904 24.4306 24.8306 24.5581 24.7335 24.6665C24.6359 24.7747 24.5168 24.8612 24.3837 24.9205C24.2507 24.9798 24.1067 25.0107 23.961 25.011H2.03898C1.89331 25.0107 1.74932 24.9798 1.61628 24.9205C1.48324 24.8612 1.36409 24.7747 1.26649 24.6665C1.16936 24.5581 1.09597 24.4306 1.05102 24.2922C1.00608 24.1538 0.990576 24.0075 1.00551 23.8627L2.86367 6.11629C2.88963 5.8579 3.01098 5.61846 3.204 5.44473C3.39703 5.27101 3.64788 5.17547 3.90757 5.17677H5.69265" stroke="black" stroke-linecap="round" stroke-linejoin="round"/>
<path d="M1.53809 18.7476H24.4623" stroke="black" stroke-linecap="round" stroke-linejoin="round"/>
<path d="M19.2637 11.4399H23.6898" stroke="black" stroke-linecap="round" stroke-linejoin="round"/>
<path d="M2.30957 11.4399H6.73573" stroke="black" stroke-linecap="round" stroke-linejoin="round"/>
<path d="M7.78027 25.0108L8.49013 14.0498" stroke="black" stroke-linecap="round" stroke-linejoin="round"/>
<path d="M18.4071 25.0108L17.6973 14.0498" stroke="black" stroke-linecap="round" stroke-linejoin="round"/>
</svg>
