<svg width="26" height="26" viewBox="0 0 26 26" fill="none" xmlns="http://www.w3.org/2000/svg">
<path d="M5.69531 13V16.1304" stroke="black" stroke-linecap="round" stroke-linejoin="round"/>
<path d="M7.78261 25L8.30435 19.7827H10.3913V15.6087C10.3913 14.3634 9.89658 13.169 9.01598 12.2884C8.13537 11.4078 6.94102 10.9131 5.69565 10.9131C4.45029 10.9131 3.25593 11.4078 2.37532 12.2884C1.49472 13.169 1 14.3634 1 15.6087V19.7827H3.08696L3.6087 25" stroke="black" stroke-linecap="round" stroke-linejoin="round"/>
<path d="M3.01367 4.65234C3.49934 5.14783 4.07896 5.54146 4.7186 5.81022C5.35825 6.07898 6.04508 6.21746 6.73889 6.21756C7.45656 6.22001 8.16702 6.07436 8.82585 5.78974" stroke="black" stroke-linecap="round" stroke-linejoin="round"/>
<path d="M5.70594 9.34778C7.42907 9.34778 8.82594 7.94624 8.82594 6.21735C8.82594 4.48846 7.42907 3.08691 5.70594 3.08691C3.98281 3.08691 2.58594 4.48846 2.58594 6.21735C2.58594 7.94624 3.98281 9.34778 5.70594 9.34778Z" stroke="black" stroke-linecap="round" stroke-linejoin="round"/>
<path d="M8.82617 1H23.9566C24.2334 1 24.4988 1.10994 24.6945 1.30563C24.8901 1.50132 25.0001 1.76673 25.0001 2.04348V12.4783C25.0001 12.755 24.8901 13.0204 24.6945 13.2161C24.4988 13.4118 24.2334 13.5217 23.9566 13.5217H13.0001" stroke="black" stroke-linecap="round" stroke-linejoin="round"/>
<path d="M15.6084 13.522V19.7828" stroke="black" stroke-linecap="round" stroke-linejoin="round"/>
<path d="M13.5215 19.7827H17.6954" stroke="black" stroke-linecap="round" stroke-linejoin="round"/>
<path d="M11.9561 8.30431L15.0865 5.17387L16.6517 6.73909L20.3039 3.08691" stroke="black" stroke-linecap="round" stroke-linejoin="round"/>
<path d="M17.6953 3.08691H20.304V5.69561" stroke="black" stroke-linecap="round" stroke-linejoin="round"/>
<path d="M18.7393 9.34766H20.8262" stroke="black" stroke-linecap="round" stroke-linejoin="round"/>
<path d="M18.7393 11.4346H21.8697" stroke="black" stroke-linecap="round" stroke-linejoin="round"/>
</svg>
