<svg width="19" height="12" viewBox="0 0 19 12" fill="none" xmlns="http://www.w3.org/2000/svg">
<path d="M18 9.5C18 9.8978 17.842 10.2794 17.5607 10.5607C17.2794 10.842 16.8978 11 16.5 11H2.5C2.10218 11 1.72064 10.842 1.43934 10.5607C1.15804 10.2794 1 9.8978 1 9.5V7.5C1 7.1022 1.15804 6.7206 1.43934 6.4393C1.72064 6.158 2.10218 6 2.5 6H16.5C16.8978 6 17.2794 6.158 17.5607 6.4393C17.842 6.7206 18 7.1022 18 7.5V9.5Z" stroke="#3B4559" stroke-linecap="round" stroke-linejoin="round"/>
<path d="M4.25 3.75C4.11193 3.75 4 3.6381 4 3.5C4 3.3619 4.11193 3.25 4.25 3.25" stroke="#3B4559"/>
<path d="M4.25 3.75C4.38807 3.75 4.5 3.6381 4.5 3.5C4.5 3.3619 4.38807 3.25 4.25 3.25" stroke="#3B4559"/>
<path d="M4.25 8.74805C4.11193 8.74805 4 8.63615 4 8.49805C4 8.36005 4.11193 8.24805 4.25 8.24805" stroke="#3B4559"/>
<path d="M4.25 8.74805C4.38807 8.74805 4.5 8.63615 4.5 8.49805C4.5 8.36005 4.38807 8.24805 4.25 8.24805" stroke="#3B4559"/>
<path d="M6.75 8.74805C6.61193 8.74805 6.5 8.63615 6.5 8.49805C6.5 8.36005 6.61193 8.24805 6.75 8.24805" stroke="#3B4559"/>
<path d="M6.75 8.74805C6.88807 8.74805 7 8.63615 7 8.49805C7 8.36005 6.88807 8.24805 6.75 8.24805" stroke="#3B4559"/>
<path d="M6.75 3.75C6.61193 3.75 6.5 3.6381 6.5 3.5C6.5 3.3619 6.61193 3.25 6.75 3.25" stroke="#3B4559"/>
<path d="M6.75 3.75C6.88807 3.75 7 3.6381 7 3.5C7 3.3619 6.88807 3.25 6.75 3.25" stroke="#3B4559"/>
<path d="M18 4.5C18 4.8978 17.842 5.2794 17.5607 5.5607C17.2794 5.842 16.8978 6 16.5 6H2.5C2.10218 6 1.72064 5.842 1.43934 5.5607C1.15804 5.2794 1 4.8978 1 4.5V2.5C1 2.1022 1.15804 1.7206 1.43934 1.4393C1.72064 1.158 2.10218 1 2.5 1H16.5C16.8978 1 17.2794 1.158 17.5607 1.4393C17.842 1.7206 18 2.1022 18 2.5V4.5Z" stroke="#3B4559" stroke-linecap="round" stroke-linejoin="round"/>
</svg>
