<svg width="26" height="26" viewBox="0 0 26 26" fill="none" xmlns="http://www.w3.org/2000/svg">
<path d="M20.0905 25H5.90871L4.06508 17.6254C4.02572 17.4636 4.02394 17.2949 4.05987 17.1323C4.09579 16.9697 4.16848 16.8174 4.27235 16.6873C4.37394 16.5587 4.50319 16.4547 4.6505 16.3829C4.79781 16.3111 4.9594 16.2735 5.12326 16.2727H20.876C21.0417 16.2718 21.2054 16.3087 21.3547 16.3805C21.5041 16.4524 21.6351 16.5573 21.7378 16.6873C21.8398 16.8184 21.9105 16.971 21.9445 17.1336C21.9786 17.2962 21.975 17.4644 21.9342 17.6254L20.0905 25Z" stroke="#3B4559" stroke-linecap="round" stroke-linejoin="round"/>
<path d="M1 25H25" stroke="#3B4559" stroke-linecap="round" stroke-linejoin="round"/>
<path d="M13 13V14.6364" stroke="#3B4559" stroke-linecap="round" stroke-linejoin="round"/>
<path d="M9.72754 2.88721C10.3178 3.49731 11.0247 3.9826 11.8061 4.31429C12.5876 4.64599 13.4277 4.81732 14.2766 4.81812C15.1411 4.80637 15.9944 4.62087 16.7857 4.27266" stroke="#3B4559" stroke-linecap="round" stroke-linejoin="round"/>
<path d="M12.9998 8.63636C15.1085 8.63636 16.818 6.92691 16.818 4.81818C16.818 2.70946 15.1085 1 12.9998 1C10.8911 1 9.18164 2.70946 9.18164 4.81818C9.18164 6.92691 10.8911 8.63636 12.9998 8.63636Z" stroke="#3B4559" stroke-linecap="round" stroke-linejoin="round"/>
<path d="M13.0004 21.7273C13.7535 21.7273 14.364 21.1168 14.364 20.3636C14.364 19.6105 13.7535 19 13.0004 19C12.2472 19 11.6367 19.6105 11.6367 20.3636C11.6367 21.1168 12.2472 21.7273 13.0004 21.7273Z" stroke="#3B4559" stroke-linecap="round" stroke-linejoin="round"/>
<path d="M18.182 14.091C17.8233 12.9997 17.1292 12.0495 16.1988 11.3759C15.2683 10.7023 14.1489 10.3396 13.0002 10.3396C11.8515 10.3396 10.7321 10.7023 9.80158 11.3759C8.87111 12.0495 8.17705 12.9997 7.81836 14.091" stroke="#3B4559" stroke-linecap="round" stroke-linejoin="round"/>
</svg>
