<svg width="50" height="50" viewBox="0 0 50 50" fill="none" xmlns="http://www.w3.org/2000/svg">
<path d="M18.75 35.4167V31.25V35.4167ZM25 35.4167V27.0833V35.4167ZM31.25 35.4167V22.9167V35.4167ZM35.4166 43.75H14.5833C13.4782 43.75 12.4184 43.311 11.637 42.5296C10.8556 41.7482 10.4166 40.6884 10.4166 39.5833V10.4167C10.4166 9.3116 10.8556 8.25179 11.637 7.47039C12.4184 6.68899 13.4782 6.25 14.5833 6.25H26.2208C26.7733 6.25012 27.3031 6.46969 27.6937 6.86042L38.9729 18.1396C39.3636 18.5302 39.5832 19.06 39.5833 19.6125V39.5833C39.5833 40.6884 39.1443 41.7482 38.3629 42.5296C37.5815 43.311 36.5217 43.75 35.4166 43.75Z" stroke="black" stroke-width="2" stroke-linecap="round" stroke-linejoin="round"/>
</svg>
