<svg width="24" height="24" viewBox="0 0 24 24" fill="none" xmlns="http://www.w3.org/2000/svg">
<circle cx="12" cy="12" r="10" stroke="#3B4559" stroke-width="1.5"/>
<path d="M5.84003 13.8402L4.39879 12.399C4.17863 12.1788 4.17863 11.8219 4.39879 11.6017L5.84003 10.1605M4.61337 12.0004L8.90643 12.0004M18.1608 13.84L19.602 12.3988C19.8222 12.1786 19.8222 11.8217 19.602 11.6015L18.1608 10.1603M19.3873 12.0002H15.0943" stroke="#3B4559" stroke-width="1.5" stroke-linecap="round"/>
<path d="M13.9629 8.30227L12.6886 9.57658C12.2981 9.96711 11.6649 9.96711 11.2744 9.57658L10.0001 8.30227" stroke="#3B4559" stroke-width="1.5" stroke-linecap="round"/>
<path d="M11.9814 9.62331L11.9814 5" stroke="#3B4559" stroke-width="1.5" stroke-linecap="round"/>
<path d="M13.9629 15.9814L12.6886 14.7071C12.2981 14.3166 11.6649 14.3166 11.2744 14.7071L10.0001 15.9814" stroke="#3B4559" stroke-width="1.5" stroke-linecap="round"/>
<path d="M11.9814 14.6609L11.9814 19.2842" stroke="#3B4559" stroke-width="1.5" stroke-linecap="round"/>
</svg>
