<svg width="40" height="40" viewBox="0 0 40 40" fill="none" xmlns="http://www.w3.org/2000/svg">
<rect width="40" height="40" rx="8" fill="#D3E3FE"/>
<path d="M25.7189 17.5273L27.8442 18.677L28.2891 18.9269C29.237 19.4595 29.237 20.8325 28.2891 21.365L22.2525 24.7566C20.8524 25.5432 19.1476 25.5432 17.7475 24.7566L11.7109 21.365C10.763 20.8325 10.763 19.4595 11.7109 18.9269L12.1558 18.677L14.1633 17.5273M26.1811 22.6461L28.1129 23.6185C29.1092 24.1201 29.1412 25.5398 28.1685 26.0862L22.2525 29.4101C20.8524 30.1966 19.1476 30.1966 17.7475 29.4101L11.9178 26.1347C10.9284 25.5789 10.9829 24.1278 12.0112 23.6487L14.1633 22.6461M22.2525 19.8112L28.2891 16.4196C29.237 15.887 29.237 14.5141 28.2891 13.9815L22.2525 10.5899C20.8524 9.80336 19.1476 9.80336 17.7475 10.5899L11.7109 13.9815C10.763 14.514 10.763 15.887 11.7109 16.4196L17.7475 19.8112C19.1476 20.5977 20.8524 20.5977 22.2525 19.8112Z" stroke="#285CED" stroke-width="1.5"/>
</svg>
