<svg width="26" height="26" viewBox="0 0 26 26" fill="none" xmlns="http://www.w3.org/2000/svg">
<path d="M5.64636 16.9286L24.7901 1.12207" stroke="#3B4559" stroke-linecap="round" stroke-linejoin="round"/>
<path d="M10.1104 18.8435L17.9251 22.192C18.0716 22.2548 18.2298 22.2854 18.3892 22.2819C18.5485 22.2784 18.7053 22.2407 18.8488 22.1715C18.9924 22.1023 19.1195 22.0031 19.2215 21.8807C19.3235 21.7582 19.3981 21.6153 19.4402 21.4616L24.9791 1.70975C25.0088 1.6042 25.0068 1.49222 24.9733 1.38779C24.9399 1.28337 24.8763 1.19111 24.7908 1.12255C24.7052 1.05399 24.6013 1.01216 24.4921 1.00227C24.3828 0.992388 24.2731 1.01489 24.1766 1.06697L1.58725 13.2171C1.40225 13.3169 1.24912 13.4667 1.14544 13.6496C1.04177 13.8324 0.991741 14.0407 1.00111 14.2507C1.01048 14.4606 1.07887 14.6637 1.19842 14.8366C1.31797 15.0094 1.48384 15.145 1.67699 15.2279L5.64224 16.9288" stroke="#3B4559" stroke-linecap="round" stroke-linejoin="round"/>
<path d="M5.64636 16.9277L8.35942 24.4407C8.41233 24.5876 8.50515 24.7169 8.62745 24.814C8.74976 24.9111 8.8967 24.9722 9.0518 24.9904C9.20689 25.0086 9.36399 24.9832 9.50545 24.9171C9.64692 24.8509 9.76715 24.7467 9.85265 24.616L12.8673 20.0248" stroke="#3B4559" stroke-linecap="round" stroke-linejoin="round"/>
<path d="M24.7901 1.12207L10.1104 18.8423L9.15454 24.9998" stroke="#3B4559" stroke-linecap="round" stroke-linejoin="round"/>
</svg>
