<svg width="307" height="216" viewBox="0 0 307 216" fill="none" xmlns="http://www.w3.org/2000/svg">
<path opacity="0.15" d="M127.409 0.654238L13 205.502C13 205.502 80.8085 227.943 298 207.203L184.521 -2.99897e-05C184.521 -2.99897e-05 178.661 1.50476 156.244 1.96275C135.316 2.35531 127.409 0.654238 127.409 0.654238Z" fill="white"/>
<g opacity="0.7">
<g opacity="0.7">
<path opacity="0.7" d="M304.664 204.434C304.664 209.913 237.576 214.464 154.784 214.464C71.9925 214.464 4.9043 210.006 4.9043 204.434C4.9043 198.861 71.9925 194.403 154.784 194.403C237.576 194.496 304.664 198.954 304.664 204.434Z" fill="#3B4559"/>
</g>
</g>
<path d="M239.024 199.706C240.708 195.133 238.365 190.062 233.79 188.379C229.215 186.696 224.141 189.038 222.457 193.611C220.773 198.184 223.117 203.255 227.692 204.938C232.267 206.621 237.341 204.279 239.024 199.706Z" fill="#3B4559"/>
<path d="M230.791 144.159C225.867 144.159 221.964 140.165 221.871 135.336C221.871 130.414 225.867 126.513 230.698 126.42C235.623 126.42 239.526 130.414 239.619 135.243C239.619 140.258 235.623 144.159 230.791 144.159Z" fill="#3B4559"/>
<path d="M284.128 166.17C287.101 166.635 290.167 166.913 292.676 168.678C294.07 169.607 295.278 170.814 296.114 172.207C296.858 173.414 296.858 174.436 298.158 175.179C298.809 175.55 299.459 175.179 299.738 174.529C300.946 171.464 296.393 167.656 294.07 166.356C291.004 164.591 287.194 163.663 284.035 165.613C283.756 165.706 283.756 166.17 284.128 166.17Z" fill="#3B4559"/>
<path d="M294.349 177.315C297.23 184.745 308.845 180.287 305.871 172.765C302.991 165.335 291.469 169.885 294.349 177.315Z" fill="#697181"/>
<path d="M143.169 207.221C131.925 208.056 120.682 208.614 109.439 208.335C98.1955 208.056 87.0451 205.642 75.8018 205.549C74.6868 205.549 74.5009 207.221 75.523 207.499C86.023 210.843 98.4743 210.75 109.439 211.028C120.868 211.214 132.111 210.564 143.355 208.892C144.377 208.799 144.191 207.128 143.169 207.221Z" fill="#697181"/>
<path d="M25.5329 199.419C39.378 200.254 53.1302 200.347 66.9752 200.162C79.5195 199.976 93.4575 200.997 105.723 198.397C106.652 198.211 106.373 196.911 105.537 196.818C98.661 196.075 91.692 197.19 84.8159 197.375C78.4044 197.561 71.9929 197.654 65.5814 197.654C52.201 197.747 38.9134 197.561 25.5329 197.561C24.325 197.561 24.325 199.326 25.5329 199.419Z" fill="#697181"/>
<path d="M150.602 146.48L150.509 185.116L145.491 185.116L136.85 165.798L147.071 146.48L150.602 146.48Z" fill="#F1EFE8"/>
<path d="M109.531 193.382L109.624 119.918C109.624 115.832 112.876 112.581 116.965 112.581L178.013 112.674C182.102 112.674 185.354 115.925 185.354 120.011L185.261 193.475C185.261 197.561 182.009 200.812 177.92 200.812L116.872 200.719C112.783 200.719 109.531 197.468 109.531 193.382Z" fill="#697181"/>
<path d="M111.855 167.377L133.412 122.519C134.062 121.219 135.549 120.661 136.85 121.311L142.332 123.912C143.633 124.562 144.191 126.048 143.54 127.348L121.983 172.207C121.332 173.507 119.846 174.064 118.545 173.414L113.063 170.814C111.762 170.256 111.204 168.677 111.855 167.377Z" fill="#3B4559"/>
<path d="M132.946 128.184C130.995 132.178 137.221 135.243 139.172 131.156C141.123 127.163 134.898 124.098 132.946 128.184Z" fill="#3B4559"/>
<path d="M126.813 141.001C124.862 144.995 131.088 148.06 133.039 143.973C134.99 139.98 128.672 137.008 126.813 141.001Z" fill="#3B4559"/>
<path d="M120.96 153.075C119.009 157.068 125.234 160.133 127.186 156.047C129.137 152.053 122.911 148.988 120.96 153.075Z" fill="#3B4559"/>
<path d="M115.942 163.569C113.991 167.563 120.217 170.627 122.168 166.541C124.119 162.547 117.894 159.482 115.942 163.569Z" fill="#3B4559"/>
<path d="M160.172 200.812C160.358 200.812 160.637 200.812 160.823 200.812C161.009 200.812 161.287 200.812 161.473 200.812L162.124 194.868C162.402 194.868 162.681 194.775 162.867 194.775L164.725 200.533C165.097 200.441 165.562 200.348 165.933 200.255L165.283 194.311C165.562 194.218 165.748 194.125 166.026 194.032L169 199.233C169.371 199.047 169.743 198.862 170.115 198.676L168.256 192.918C168.442 192.825 168.721 192.639 168.907 192.546L172.902 197.004C173.274 196.726 173.553 196.54 173.924 196.261L170.951 191.06C171.137 190.874 171.323 190.689 171.509 190.503L176.34 194.032C176.619 193.754 176.898 193.382 177.177 193.103L173.181 188.645C173.367 188.46 173.46 188.274 173.646 187.995L179.128 190.41C179.314 190.039 179.593 189.667 179.778 189.296L174.947 185.766C175.04 185.488 175.132 185.302 175.225 185.023L181.079 186.324C181.265 185.952 181.358 185.488 181.451 185.116L175.969 182.702C176.062 182.423 176.062 182.237 176.155 181.959L182.194 181.959C182.287 181.587 182.287 181.123 182.287 180.658L176.433 179.451C176.433 179.358 176.433 179.172 176.433 179.079C176.433 178.987 176.433 178.801 176.433 178.708L182.287 177.501C182.287 177.036 182.194 176.665 182.194 176.2L176.155 176.2C176.062 175.922 176.062 175.643 175.969 175.457L181.451 173.043C181.358 172.671 181.172 172.207 181.079 171.835L175.225 173.043C175.132 172.764 175.04 172.578 174.947 172.3L179.778 168.77C179.593 168.399 179.407 168.027 179.128 167.656L173.646 170.071C173.46 169.885 173.367 169.606 173.181 169.42L177.177 164.962C176.898 164.684 176.619 164.312 176.34 164.034L171.509 167.563C171.323 167.377 171.137 167.191 170.951 167.006L174.017 161.805C173.646 161.526 173.367 161.34 172.995 161.062L169 165.52C168.814 165.427 168.535 165.241 168.349 165.148L170.208 159.39C169.836 159.204 169.464 159.019 169.093 158.833L166.119 164.034C165.84 163.941 165.655 163.848 165.376 163.755L166.026 157.811C165.655 157.718 165.19 157.625 164.818 157.533L162.96 163.291C162.681 163.291 162.402 163.198 162.217 163.198L161.566 157.254C161.38 157.254 161.102 157.254 160.916 157.254C160.73 157.254 160.451 157.254 160.265 157.254L159.615 163.198C159.336 163.198 159.057 163.291 158.871 163.291L157.013 157.533C156.641 157.625 156.177 157.718 155.805 157.811L156.456 163.755C156.177 163.848 155.991 163.941 155.712 164.034L152.739 158.833C152.367 159.019 151.995 159.204 151.624 159.39L153.482 165.148C153.296 165.241 153.017 165.427 152.832 165.52L148.836 161.062C148.464 161.34 148.186 161.526 147.814 161.805L150.787 167.006C150.602 167.191 150.416 167.377 150.23 167.563L145.398 164.034C145.119 164.312 144.841 164.684 144.562 164.963L148.557 169.42C148.371 169.606 148.279 169.792 148.093 170.071L142.61 167.656C142.425 168.027 142.146 168.399 141.96 168.77L146.792 172.3C146.699 172.578 146.606 172.764 146.513 173.043L140.659 171.742C140.473 172.114 140.38 172.578 140.287 172.95L145.77 175.364C145.677 175.643 145.677 175.829 145.584 176.107L139.544 176.107C139.451 176.479 139.451 176.943 139.451 177.408L145.305 178.615C145.305 178.708 145.305 178.894 145.305 178.987C145.305 179.079 145.305 179.265 145.305 179.358L139.451 180.565C139.451 181.03 139.544 181.401 139.544 181.866L145.584 181.866C145.677 182.144 145.677 182.423 145.77 182.609L140.287 185.023C140.38 185.395 140.566 185.859 140.659 186.231L146.513 185.023C146.606 185.302 146.699 185.488 146.792 185.766L141.867 189.296C142.053 189.667 142.239 190.039 142.518 190.41L148 187.995C148.186 188.181 148.279 188.46 148.464 188.645L144.469 193.103C144.748 193.382 145.026 193.754 145.305 194.032L150.137 190.503C150.323 190.689 150.509 190.874 150.694 191.06L147.628 196.261C148 196.54 148.279 196.726 148.65 197.004L152.646 192.546C152.832 192.639 153.11 192.825 153.296 192.918L151.438 198.676C151.81 198.862 152.181 199.047 152.553 199.233L155.526 194.032C155.805 194.125 155.991 194.218 156.27 194.311L155.619 200.255C155.991 200.348 156.456 200.441 156.827 200.533L158.686 194.775C158.964 194.775 159.243 194.868 159.429 194.868L160.172 200.812ZM163.239 179.172C163.239 180.473 162.217 181.494 160.916 181.494C159.615 181.494 158.593 180.473 158.593 179.172C158.593 177.872 159.615 176.85 160.916 176.85C162.217 176.758 163.239 177.872 163.239 179.172ZM160.916 167.284C167.048 167.284 172.066 171.928 172.717 177.872L166.398 177.872C165.84 175.364 163.61 173.507 160.916 173.507C160.358 173.507 159.801 173.6 159.336 173.693L156.177 168.213C157.571 167.656 159.243 167.284 160.916 167.284ZM149.022 179.172C149.022 175.272 150.973 171.742 153.854 169.606L157.013 175.086C155.898 176.107 155.248 177.593 155.248 179.172C155.248 180.751 155.898 182.237 157.013 183.259L153.854 188.738C150.88 186.602 149.022 183.073 149.022 179.172ZM156.084 190.039L159.243 184.559C159.708 184.745 160.265 184.838 160.823 184.838C163.517 184.838 165.748 182.98 166.305 180.473L172.624 180.473C171.973 186.416 166.955 191.06 160.823 191.06C159.15 191.06 157.571 190.689 156.084 190.039Z" fill="#3B4559"/>
<path d="M175.784 179.172C175.784 170.907 169.093 164.22 160.823 164.22C152.554 164.22 145.863 170.907 145.863 179.172C145.863 187.438 152.554 194.125 160.823 194.125C169.093 194.125 175.784 187.438 175.784 179.172ZM160.916 181.494C159.615 181.494 158.593 180.473 158.593 179.172C158.593 177.872 159.615 176.851 160.916 176.851C162.217 176.851 163.239 177.872 163.239 179.172C163.239 180.473 162.217 181.494 160.916 181.494ZM156.177 168.213C157.664 167.563 159.244 167.192 160.916 167.192C167.049 167.192 172.067 171.835 172.717 177.779L166.399 177.779C165.841 175.272 163.611 173.414 160.916 173.414C160.359 173.414 159.801 173.507 159.337 173.6L156.177 168.213ZM149.023 179.172C149.023 175.272 150.974 171.743 153.854 169.606L157.014 175.086C155.899 176.108 155.248 177.594 155.248 179.172C155.248 180.751 155.899 182.237 157.014 183.259L153.854 188.739C150.881 186.602 149.023 183.073 149.023 179.172ZM159.337 184.559C159.801 184.745 160.359 184.838 160.916 184.838C163.611 184.838 165.841 182.98 166.399 180.473L172.717 180.473C172.067 186.417 167.049 191.06 160.916 191.06C159.244 191.06 157.571 190.689 156.177 190.039L159.337 184.559Z" fill="#3B4559"/>
<path d="M174.575 179.172C174.575 171.556 168.443 165.427 160.916 165.427C153.297 165.427 147.164 171.556 147.164 179.079C147.164 186.695 153.297 192.825 160.823 192.825C168.443 192.825 174.575 186.695 174.575 179.172ZM147.629 179.172C147.629 171.835 153.576 165.984 160.916 165.984C168.257 165.984 174.111 171.928 174.111 179.265C174.111 186.602 168.164 192.453 160.823 192.453C153.576 192.36 147.629 186.416 147.629 179.172Z" fill="#D9D9D9"/>
<path d="M158.592 179.172C158.592 177.872 159.614 176.85 160.915 176.85C162.216 176.85 163.238 177.872 163.238 179.172C163.238 180.472 162.216 181.494 160.915 181.494C159.614 181.494 158.592 180.472 158.592 179.172ZM160.915 167.284C167.048 167.284 172.066 171.928 172.716 177.872L166.398 177.872C165.84 175.364 163.61 173.507 160.915 173.507C160.358 173.507 159.8 173.6 159.336 173.693L156.176 168.213C157.57 167.656 159.243 167.284 160.915 167.284ZM149.021 179.172C149.021 175.271 150.973 171.742 153.853 169.606L157.013 175.086C155.898 176.107 155.247 177.593 155.247 179.172C155.247 180.751 155.898 182.237 157.013 183.259L153.853 188.738C150.88 186.602 149.021 183.073 149.021 179.172ZM156.083 190.038L159.243 184.559C159.707 184.745 160.265 184.837 160.822 184.837C163.517 184.837 165.747 182.98 166.305 180.472L172.623 180.472C171.973 186.416 166.955 191.06 160.822 191.06C159.15 191.06 157.57 190.689 156.083 190.038Z" fill="white"/>
<path d="M290.075 163.476C290.075 153.817 279.483 145.923 266.381 145.923L266.381 181.029C279.483 181.029 290.075 173.135 290.075 163.476Z" fill="#3B4559"/>
<path d="M191.023 191.618L191.023 144.623C191.023 139.608 195.112 135.521 200.13 135.521L267.218 135.521C272.236 135.521 276.324 139.608 276.324 144.623L276.324 191.618C276.324 196.633 272.236 200.719 267.218 200.719L200.13 200.719C195.112 200.719 191.116 196.633 191.023 191.618Z" fill="#697181"/>
<path d="M188.05 125.212L190.652 124.005C191.302 123.726 191.488 122.983 191.209 122.333L185.076 109.609C184.798 108.959 184.054 108.774 183.404 109.052L180.802 110.26C180.152 110.538 179.966 111.281 180.245 111.931L186.377 124.655C186.656 125.212 187.399 125.491 188.05 125.212Z" fill="#7B8AA0"/>
<path d="M195.855 87.041L199.386 88.0626C200.222 88.3412 200.687 89.1771 200.408 90.0129L192.789 115.925C192.51 116.761 191.674 117.225 190.837 116.947L187.306 115.925C186.47 115.646 186.005 114.81 186.284 113.975L193.904 88.0626C194.182 87.2267 195.112 86.7623 195.855 87.041Z" fill="#0B112A"/>
<path d="M179.685 69.6732L181.823 66.7012C182.287 65.9582 183.309 65.8654 183.96 66.3297L196.597 75.3385C197.34 75.8029 197.433 76.8245 196.969 77.4746L194.831 80.4466C194.367 81.1896 193.345 81.2825 192.694 80.8181L180.057 71.8093C179.314 71.3449 179.128 70.4162 179.685 69.6732Z" fill="#0B112A"/>
<path d="M201.057 83.7897C201.243 81.6536 199.756 79.7961 197.619 79.6104C195.482 79.4246 193.623 80.9106 193.438 83.0467C193.252 85.1828 194.738 87.0403 196.876 87.2261C198.92 87.3189 200.778 85.833 201.057 83.7897Z" fill="#697181"/>
<path d="M196.504 204.155L196.318 207.035C196.318 207.685 195.668 208.242 195.017 208.242L180.894 207.592C180.243 207.592 179.686 206.942 179.686 206.292L179.871 203.412C179.871 202.762 180.522 202.205 181.172 202.205L195.296 202.855C196.039 202.948 196.504 203.505 196.504 204.155Z" fill="#7B8AA0"/>
<path d="M109.81 184.374L109.624 180.752C109.624 179.916 108.881 179.266 108.045 179.266L81.0981 180.38C80.2618 180.38 79.6113 181.123 79.6113 181.959L79.7972 185.581C79.7972 186.417 80.5405 187.067 81.3768 187.067L108.324 185.953C109.16 185.953 109.81 185.21 109.81 184.374Z" fill="#0B112A"/>
<path d="M73.9434 173.693L77.5673 173.135C78.4036 173.043 78.9611 172.207 78.8682 171.371L76.4523 156.047C76.3594 155.211 75.5231 154.654 74.6868 154.746L71.0629 155.304C70.2266 155.397 69.6691 156.232 69.762 157.068L72.178 172.393C72.2709 173.228 73.1072 173.878 73.9434 173.693Z" fill="#0B112A"/>
<path d="M80.5416 173.971C82.2141 175.272 82.5858 177.593 81.2849 179.265C79.9841 180.937 77.6611 181.308 75.9885 180.008C74.316 178.708 73.9443 176.386 75.2451 174.714C76.4531 173.043 78.869 172.671 80.5416 173.971Z" fill="#697181"/>
<path d="M276.045 197.747L288.217 193.382L293.328 201.555L289.797 204.062L286.917 199.233L280.784 201.369L281.527 206.663L277.16 208.242L276.045 197.747Z" fill="#697181"/>
<path d="M90.2054 209.914L81.7496 208.335C80.9134 208.149 80.3558 207.406 80.5417 206.57L83.608 189.481C83.7939 188.646 84.5372 188.088 85.3735 188.274L93.8292 189.853C94.6655 190.039 95.223 190.782 95.0372 191.618L91.9708 208.614C91.785 209.449 90.9487 210.007 90.2054 209.914Z" fill="#7B8AA0"/>
<path d="M88.4396 194.961C80.6343 193.475 73.1078 198.676 71.6211 206.477L99.9617 211.678C101.448 203.877 96.3378 196.447 88.4396 194.961Z" fill="#3B4559"/>
<path d="M50.714 180.286L56.6609 175.457C57.3113 174.899 58.2405 174.992 58.7981 175.642L69.7626 189.109C70.3201 189.759 70.2272 190.688 69.5768 191.245L63.6299 196.075C62.9795 196.632 62.0503 196.539 61.4927 195.889L50.5282 182.422C49.9707 181.772 50.0636 180.843 50.714 180.286Z" fill="#0B112A"/>
<path d="M38.1691 168.12L47.2753 160.69C47.9257 160.133 48.8549 160.226 49.4124 160.876L60.377 174.436C60.9345 175.086 60.8416 176.014 60.1911 176.572L51.085 184.002C50.4345 184.559 49.5053 184.466 48.9478 183.816L37.9833 170.349C37.4257 169.606 37.5187 168.677 38.1691 168.12Z" fill="#7B8AA0"/>
<path d="M34.2665 192.36C26.3683 191.803 19.3993 197.747 18.8418 205.641L47.5541 207.778C48.2045 199.883 42.2576 192.918 34.2665 192.36Z" fill="#3B4559"/>
<path d="M232.744 148.895C234.138 151.31 237.018 152.982 239.248 154.561C241.85 156.418 244.452 158.833 247.425 159.947C248.912 160.505 249.841 158.461 248.819 157.44C246.775 155.304 243.709 153.818 241.107 152.239C238.691 150.753 235.996 148.524 233.116 148.152C232.93 148.245 232.558 148.524 232.744 148.895Z" fill="#3B4559"/>
<path d="M235.624 161.527C238.318 160.505 240.456 157.997 242.5 155.954C244.358 154.097 247.796 151.775 248.354 149.081C248.54 148.06 247.796 147.224 246.774 147.502C244.079 148.06 241.849 151.589 239.991 153.446C238.04 155.49 235.531 157.719 234.602 160.412C234.323 161.062 235.066 161.712 235.624 161.527Z" fill="#3B4559"/>
<path d="M232.744 183.444C234.138 185.859 237.018 187.531 239.248 189.11C241.85 190.967 244.452 193.382 247.425 194.496C248.912 195.053 249.841 193.01 248.819 191.989C246.775 189.853 243.709 188.367 241.107 186.788C238.691 185.302 235.996 183.073 233.116 182.701C232.93 182.794 232.558 183.073 232.744 183.444Z" fill="#3B4559"/>
<path d="M235.624 196.075C238.318 195.054 240.456 192.546 242.5 190.503C244.358 188.645 247.796 186.324 248.354 183.63C248.54 182.609 247.796 181.773 246.774 182.051C244.079 182.609 241.849 186.138 239.991 187.995C238.04 190.038 235.531 192.267 234.602 194.961C234.323 195.611 235.066 196.261 235.624 196.075Z" fill="#3B4559"/>
<path d="M158.129 96.3283C157.107 95.8639 156.085 95.3066 155.063 94.8423C155.713 92.6133 156.456 90.4771 157.107 88.2482C157.2 87.9695 157.571 87.6909 157.85 87.4123C159.058 86.5764 159.801 85.4619 160.452 84.1617C163.611 77.7534 166.863 71.345 170.116 64.8438C170.301 64.4723 170.487 64.1937 170.859 63.6364C169.744 63.1721 168.815 62.8006 167.978 62.3362C167.7 62.2433 167.607 61.6861 167.607 61.3146C167.7 60.9431 167.978 60.5716 168.164 60.1072C168.443 59.55 168.722 59.3642 169.372 59.55C169.837 59.6429 170.673 59.3642 170.766 58.9927C170.952 58.6212 170.673 57.8782 170.301 57.5067C169.837 57.0424 169.837 56.7637 170.116 56.2994C172.996 50.634 175.784 44.8758 178.664 39.2105C179.408 37.8174 180.523 37.0744 182.102 36.8886C184.797 36.7029 186.841 37.7245 188.235 39.9535C189.071 41.2537 189.164 42.7397 188.421 44.1328C185.633 49.7982 182.753 55.3706 179.965 61.036C179.686 61.5932 179.408 61.8718 178.664 61.6861C178.293 61.5932 177.549 61.8718 177.27 62.2433C177.085 62.522 177.27 63.3578 177.549 63.5436C178.385 64.1008 178.2 64.7509 177.735 65.4011C177.456 65.8654 177.27 66.3298 176.806 67.0728C175.784 66.3298 174.762 65.6797 173.646 64.8438C172.996 66.2369 172.531 67.2585 172.067 68.1873C169.001 74.317 165.934 80.3538 162.961 86.4836C162.682 87.0408 162.403 87.7838 162.496 88.4339C162.496 89.7342 162.124 90.8486 161.288 91.8703C160.173 93.4491 159.151 94.9351 158.129 96.3283ZM174.483 57.1352C174.669 56.9495 174.947 56.578 175.133 56.2065C177.456 51.5628 179.779 46.9191 182.102 42.2753C182.195 42.0896 182.474 41.811 182.381 41.5323C182.288 41.068 182.195 40.5107 181.916 40.325C181.545 40.1392 180.987 40.325 180.523 40.5107C180.337 40.6036 180.244 40.9751 180.058 41.2537C177.735 45.8046 175.505 50.3554 173.182 54.9991C173.089 55.2777 172.903 55.5564 172.81 55.835C172.717 56.6709 173.461 57.4139 174.483 57.1352ZM178.385 59.0856C178.571 58.8999 178.85 58.6212 179.036 58.2497C181.452 53.5131 183.775 48.8694 186.098 44.1328C186.191 43.9471 186.284 43.6684 186.377 43.3898C186.469 42.554 185.633 41.811 184.89 42.2753C184.518 42.4611 184.239 42.8326 184.054 43.2041C181.731 47.8478 179.408 52.4915 177.085 57.1352C176.992 57.4139 176.806 57.6925 176.806 57.9711C176.713 58.7141 177.456 59.3642 178.385 59.0856Z" fill="#3B4559"/>
<path d="M177.178 73.2029L184.24 62.3366L177.55 55.4639L174.205 58.2501L178.2 62.2437L174.669 67.7233L169.744 65.7729L167.143 69.5808L177.178 73.2029Z" fill="#697181"/>
<path d="M169.465 115.46L126.35 115.46C125.793 115.46 125.328 114.996 125.328 114.439L125.328 110.817C125.328 110.259 125.793 109.795 126.35 109.795L169.465 109.795C170.023 109.795 170.487 110.259 170.487 110.817L170.487 114.439C170.487 114.996 170.023 115.46 169.465 115.46Z" fill="#697181"/>
<path d="M149.859 112.953C154.226 99.3001 146.421 84.3473 132.762 79.9822C131.368 79.5178 130.717 81.7468 132.111 82.2112C144.562 86.1119 151.624 99.8573 147.629 112.302C147.164 113.788 149.394 114.346 149.859 112.953Z" fill="#3B4559"/>
<path d="M154.783 106.545C156.27 106.545 156.27 104.223 154.783 104.223C153.296 104.316 153.296 106.545 154.783 106.545Z" fill="#3B4559"/>
<path d="M139.73 95.7711C141.217 95.7711 141.217 93.4492 139.73 93.4492C138.244 93.5421 138.244 95.7711 139.73 95.7711Z" fill="#3B4559"/>
<path d="M131.925 96.2352C130.624 96.2352 129.323 95.6779 128.58 94.6563C128.301 94.2848 128.115 93.8204 128.023 93.356C127.93 93.356 127.93 93.356 127.837 93.356C126.629 93.0774 125.7 91.9629 125.514 90.6627C125.421 90.1054 125.421 89.5482 125.514 88.8981C125.235 88.8052 125.049 88.7123 124.77 88.6194C124.584 88.5266 123.376 87.9693 123.005 86.5762C122.819 86.019 122.819 85.3688 123.005 84.8116C122.076 84.3472 121.146 83.6042 120.682 82.5826C120.124 81.561 120.124 80.4465 120.682 79.332C120.868 79.0534 121.146 78.9605 121.425 79.0534C121.704 79.2391 121.797 79.5177 121.704 79.7964C121.239 80.7251 121.425 81.4681 121.704 82.0253C122.076 82.6755 122.633 83.3256 123.377 83.6042C123.562 83.2327 123.748 82.8612 124.027 82.3969C124.677 81.3752 126.443 80.7251 127.465 80.9109C128.208 81.0037 128.673 81.3752 128.859 81.9325C129.045 82.4897 128.859 83.047 128.394 83.6042C127.465 84.533 125.607 85.1831 124.12 84.9973C124.027 85.4617 124.027 85.8332 124.12 86.1118C124.399 87.0406 125.235 87.4121 125.235 87.4121C125.421 87.505 125.607 87.5978 125.792 87.5978C125.885 87.4121 125.978 87.2263 125.978 87.0406C126.536 85.8332 127.186 85.1831 128.022 84.9045C128.673 84.7187 129.416 84.8116 129.974 85.276C130.438 85.6474 130.624 86.1118 130.624 86.6691C130.531 87.4121 129.881 88.1551 128.952 88.4337C128.301 88.6195 127.465 88.8052 126.629 88.8052C126.536 89.2696 126.536 89.7339 126.536 90.1983C126.722 91.0342 127.186 91.6843 127.837 91.9629C127.837 91.87 127.837 91.7772 127.93 91.6843C128.115 90.7556 128.673 89.9197 129.416 89.4553C130.253 88.8981 131.461 88.8981 132.111 89.7339C132.576 90.3841 132.39 91.3128 131.925 91.87C131.553 92.3344 130.903 92.613 130.346 92.8917C129.974 93.0774 129.602 93.1703 129.138 93.2632C129.23 93.5418 129.323 93.7275 129.509 93.9133C130.253 94.9349 131.925 95.3993 133.226 94.7492C133.505 94.6563 133.876 94.7491 133.969 95.0278C134.062 95.3064 133.969 95.6779 133.691 95.7708C133.133 96.1423 132.483 96.2352 131.925 96.2352ZM130.717 90.2912C130.531 90.2912 130.253 90.3841 130.067 90.4769C129.602 90.7555 129.23 91.3128 129.138 91.9629L129.138 92.0558C129.416 91.9629 129.695 91.87 129.974 91.7772C130.438 91.5914 130.81 91.4057 131.089 91.1271C131.275 90.8484 131.368 90.5698 131.182 90.384C131.089 90.2912 130.903 90.2912 130.717 90.2912ZM128.673 86.019C128.58 86.019 128.487 86.019 128.394 86.019C127.837 86.2047 127.465 86.6691 127 87.5978C127 87.6907 127 87.6907 126.907 87.6907C127.465 87.5978 128.023 87.505 128.487 87.3192C128.952 87.2263 129.323 86.8548 129.416 86.5762C129.416 86.3905 129.323 86.2976 129.23 86.2047C129.138 86.1118 128.952 86.019 128.673 86.019ZM124.399 83.8828C125.421 83.8828 126.815 83.5114 127.465 82.8612C127.744 82.5826 127.651 82.3969 127.651 82.304C127.651 82.2111 127.465 82.1182 127.186 82.1182C126.35 82.0254 125.235 82.4897 124.863 83.1399C124.677 83.3256 124.584 83.6042 124.399 83.8828Z" fill="#3B4559"/>
<path d="M83.3287 135.707C83.1428 135.707 83.0499 135.614 82.8641 135.522C81.4703 133.943 81.2844 131.435 82.4924 129.763C82.8641 129.299 83.2358 128.928 83.7004 128.649C83.7004 128.556 83.7004 128.463 83.7004 128.463C83.6074 127.163 84.4437 125.77 85.7446 125.12C86.3021 124.841 86.9526 124.655 87.603 124.562C87.603 124.284 87.603 123.912 87.603 123.634C87.603 123.355 87.8818 121.962 89.1826 121.126C89.7402 120.755 90.3906 120.569 91.134 120.476C91.2269 119.269 91.7844 118.061 92.7136 117.225C93.6428 116.297 94.8508 115.925 96.0587 116.111C96.3375 116.204 96.6162 116.482 96.5233 116.761C96.4304 117.04 96.2446 117.318 95.8729 117.225C94.7578 117.04 93.9216 117.597 93.457 117.968C92.8065 118.618 92.3419 119.454 92.249 120.383C92.7136 120.476 93.1782 120.569 93.7357 120.662C95.0366 121.033 96.2446 122.612 96.4304 123.819C96.5233 124.562 96.3375 125.213 95.78 125.584C95.2224 125.956 94.572 125.956 93.9216 125.677C92.6207 125.027 91.3198 123.169 91.041 121.59C90.5764 121.683 90.1118 121.776 89.7402 122.055C88.811 122.705 88.718 123.727 88.718 123.727C88.718 124.005 88.718 124.191 88.718 124.47C88.9039 124.47 89.1826 124.47 89.4614 124.562C90.8552 124.748 91.8773 125.213 92.4348 125.956C92.8994 126.513 92.9924 127.349 92.7136 128.092C92.5278 128.649 92.0632 129.113 91.5056 129.206C90.6694 129.392 89.8331 128.928 89.0897 127.999C88.6251 127.349 88.1605 126.513 87.8818 125.584C87.2313 125.677 86.7667 125.77 86.3021 126.048C85.4658 126.513 84.8154 127.349 84.9083 128.185C85.0012 128.185 85.1871 128.092 85.3729 128.092C86.395 127.999 87.5101 128.277 88.2534 128.835C89.0897 129.485 89.5543 130.785 88.9039 131.621C88.3464 132.364 87.3242 132.457 86.5809 132.178C85.9304 131.9 85.4658 131.435 85.0012 130.878C84.7225 130.506 84.4437 130.135 84.165 129.671C83.8862 129.856 83.7004 130.042 83.5145 130.321C82.6782 131.528 82.7712 133.478 83.8862 134.593C84.072 134.872 84.072 135.15 83.8862 135.429C83.6074 135.707 83.5145 135.707 83.3287 135.707ZM85.1871 129.392C85.3729 129.763 85.5588 130.042 85.8375 130.321C86.2092 130.785 86.5809 131.157 86.9526 131.249C87.2313 131.342 87.6959 131.342 87.8818 131.064C88.0676 130.785 87.8818 130.135 87.4172 129.856C86.9526 129.392 86.2092 129.206 85.4658 129.299C85.3729 129.392 85.28 129.392 85.1871 129.392ZM89.0897 125.77C89.3685 126.42 89.7402 126.977 90.0189 127.442C90.2977 127.813 90.7623 128.277 91.2269 128.185C91.4127 128.092 91.5986 127.906 91.5986 127.813C91.6915 127.442 91.6915 127.07 91.5056 126.791C91.134 126.327 90.3906 125.956 89.3685 125.863C89.2756 125.77 89.1826 125.77 89.0897 125.77ZM92.3419 121.683C92.6207 122.891 93.6428 124.284 94.572 124.655C95.0366 124.841 95.2224 124.748 95.3154 124.655C95.4083 124.562 95.5012 124.377 95.4083 124.098C95.2224 123.169 94.2932 122.148 93.5499 121.869C93.0853 121.776 92.7136 121.776 92.3419 121.683Z" fill="#3B4559"/>
<path d="M160.266 108.866C159.523 108.866 158.78 108.68 158.036 108.402C157.758 108.309 157.665 107.937 157.758 107.659C157.85 107.38 158.222 107.287 158.501 107.38C160.173 108.216 162.403 107.659 163.426 106.266C163.704 105.987 163.797 105.523 163.89 105.151C163.333 105.058 162.682 104.872 162.218 104.687C161.474 104.408 160.824 104.037 160.266 103.479C159.709 102.829 159.43 101.715 160.081 100.879C160.824 99.8573 162.311 99.9501 163.24 100.6C164.169 101.157 164.819 102.179 165.005 103.386C165.005 103.572 165.098 103.758 165.098 103.944C166.12 103.665 166.864 102.736 167.142 101.529C167.235 100.879 167.235 100.229 167.05 99.4858C165.842 99.4858 164.819 99.2071 163.983 98.9285C162.775 98.557 162.032 97.7212 161.939 96.7924C161.846 96.1423 162.125 95.585 162.682 95.1207C163.333 94.5634 164.262 94.3777 165.005 94.6563C166.027 95.0278 166.864 95.8637 167.514 97.3496C167.607 97.6283 167.793 97.9069 167.886 98.1855C168.165 98.0927 168.536 97.9998 168.815 97.9069C168.908 97.814 170.023 97.3497 170.395 96.1423C170.58 95.585 170.58 95.0278 170.395 94.4706C168.536 94.7492 166.027 94.0062 164.912 92.7988C164.169 92.0558 164.169 91.3128 164.355 90.8484C164.541 90.1054 165.191 89.734 166.027 89.6411C167.328 89.4553 169.465 90.1983 170.302 91.4986C170.673 92.0558 170.952 92.6131 171.138 93.0774C172.067 92.6131 172.996 91.7772 173.461 90.8484C173.833 90.1983 174.111 89.0838 173.461 87.8765C173.275 87.5978 173.461 87.2263 173.74 87.1335C174.018 87.0406 174.39 87.1335 174.483 87.4121C175.134 88.7123 175.134 90.1054 174.483 91.4057C173.833 92.6131 172.718 93.7275 171.51 94.1919C171.696 95.0278 171.696 95.8637 171.51 96.5138C171.045 98.2784 169.465 98.9285 169.28 99.0214C168.908 99.2071 168.536 99.3 168.165 99.3929C168.35 100.229 168.35 100.972 168.257 101.715C167.979 103.386 166.771 104.687 165.377 105.058C165.284 105.058 165.191 105.058 165.098 105.151C165.005 105.801 164.726 106.358 164.355 106.916C163.519 108.123 161.939 108.866 160.266 108.866ZM161.846 101.158C161.567 101.158 161.288 101.25 161.196 101.436C160.917 101.715 161.103 102.272 161.381 102.643C161.753 103.015 162.311 103.294 162.868 103.572C163.333 103.758 163.797 103.944 164.262 103.944C164.262 103.851 164.262 103.665 164.169 103.572C163.983 102.736 163.519 101.993 162.868 101.529C162.496 101.343 162.125 101.158 161.846 101.158ZM164.448 95.7708C164.169 95.7708 163.797 95.8637 163.519 96.0494C163.333 96.1423 163.147 96.4209 163.147 96.6995C163.24 97.2568 163.89 97.6283 164.448 97.814C165.098 97.9998 165.934 98.2784 166.864 98.2784C166.771 98.1855 166.771 97.9998 166.678 97.814C166.12 96.6066 165.563 95.9565 164.819 95.7708C164.726 95.7708 164.541 95.7708 164.448 95.7708ZM166.585 90.6627C166.492 90.6627 166.399 90.6627 166.306 90.6627C165.934 90.7556 165.656 90.8485 165.563 91.1271C165.563 91.2199 165.47 91.4986 165.842 91.9629C166.678 92.8917 168.629 93.4489 170.116 93.3561C169.93 92.9846 169.651 92.5202 169.372 92.0558C169.001 91.3128 167.607 90.6627 166.585 90.6627Z" fill="#3B4559"/>
<path d="M145.12 111.931C145.771 106.823 143.355 101.622 138.337 99.5787C132.297 97.071 126.629 101.065 123.005 105.615C117.43 112.488 113.713 121.404 111.111 129.763C107.766 140.536 107.302 152.424 99.6823 161.433C98.7531 162.547 100.333 164.219 101.355 163.105C108.696 154.375 109.718 143.508 112.691 132.921C114.642 125.862 117.43 118.989 121.147 112.674C123.191 109.145 125.607 105.151 129.138 102.922C136.014 98.557 143.912 104.129 142.89 111.931C142.611 113.417 144.934 113.417 145.12 111.931Z" fill="#3B4559"/>
<path d="M180.43 121.59C180.43 122.519 180.337 123.355 180.43 124.284C180.43 124.47 180.709 124.47 180.709 124.284C180.802 123.355 180.709 122.519 180.709 121.59C180.709 121.405 180.43 121.405 180.43 121.59Z" fill="#697181"/>
<path d="M116.223 126.141C115.386 127.534 115.108 129.391 115.665 130.97C115.758 131.249 116.223 131.342 116.315 130.97C116.594 129.484 116.687 127.812 116.594 126.326C116.594 126.048 116.315 125.955 116.223 126.141Z" fill="#697181"/>
<path d="M179.037 125.119C179.222 125.398 179.408 125.583 179.594 125.769C179.687 125.862 179.873 125.769 179.78 125.584C179.594 125.305 179.501 125.119 179.222 124.933C179.222 124.748 178.944 124.933 179.037 125.119Z" fill="#697181"/>
<path d="M181.916 124.469C181.823 125.398 181.916 126.327 181.916 127.255C181.916 128.184 181.823 129.113 181.916 130.041C181.916 130.227 182.288 130.32 182.381 130.134C182.66 128.37 182.381 126.141 181.916 124.469C181.916 124.376 181.916 124.376 181.916 124.469Z" fill="#697181"/>
<path d="M111.762 189.575C111.669 190.132 111.576 190.596 111.669 191.153C111.669 191.432 112.041 191.432 112.041 191.153C112.134 190.596 112.041 190.132 111.948 189.575C111.948 189.482 111.762 189.482 111.762 189.575Z" fill="#697181"/>
<path d="M112.878 190.039C112.785 190.875 112.692 191.71 112.785 192.546C112.785 192.732 113.063 192.732 113.156 192.546C113.342 191.71 113.156 190.875 113.063 190.039C113.156 189.853 112.97 189.853 112.878 190.039Z" fill="#697181"/>
<path d="M114.177 192.825C114.084 193.382 114.177 194.125 114.363 194.682C114.456 194.868 114.735 194.868 114.735 194.589C114.735 194.032 114.642 193.289 114.363 192.825C114.27 192.732 114.177 192.732 114.177 192.825Z" fill="#697181"/>
<path d="M112.041 193.475C112.041 193.846 112.227 194.125 112.413 194.497C112.506 194.589 112.691 194.497 112.599 194.404C112.506 193.939 112.413 193.661 112.041 193.475C112.134 193.382 112.041 193.382 112.041 193.475Z" fill="#697181"/>
<path d="M147.35 134.685C147.35 135.335 147.164 136.078 147.443 136.636C147.536 136.914 147.907 136.914 148 136.636C148.186 135.985 148.093 135.335 148.093 134.685C148 134.221 147.35 134.221 147.35 134.685Z" fill="#697181"/>
<path d="M148 134.685C147.907 135.149 147.814 135.521 148 135.892C148.093 136.171 148.464 136.171 148.557 135.892C148.65 135.428 148.557 135.056 148.557 134.685C148.464 134.313 148 134.313 148 134.685Z" fill="#697181"/>
<path d="M148.465 131.621C148.651 132.828 148.558 134.128 148.837 135.243C148.837 135.429 149.115 135.429 149.115 135.243C149.487 134.128 149.022 132.642 148.744 131.528C148.744 131.342 148.465 131.435 148.465 131.621Z" fill="#697181"/>
<path d="M147.443 139.422C147.35 139.886 147.257 140.444 147.722 140.815C147.815 140.908 148.094 140.815 148.094 140.629C148.094 140.258 147.908 139.979 148.001 139.515C148.001 139.236 147.536 139.05 147.443 139.422Z" fill="#697181"/>
<path d="M114.642 146.387C114.734 146.945 114.734 147.409 115.106 147.781C115.199 147.966 115.478 147.873 115.478 147.688C115.478 147.13 115.292 146.759 115.013 146.295C114.827 146.109 114.549 146.202 114.642 146.387Z" fill="#697181"/>
<path d="M115.293 145.645C115.572 145.924 115.572 146.109 115.665 146.481C115.757 146.667 115.943 146.759 116.036 146.574C116.222 146.109 116.036 145.645 115.665 145.366C115.479 144.995 115.107 145.366 115.293 145.645Z" fill="#697181"/>
<path d="M124.12 118.897C124.027 119.733 123.934 120.476 124.027 121.219C124.027 121.405 124.306 121.405 124.398 121.219C124.491 120.383 124.398 119.64 124.306 118.897C124.306 118.711 124.12 118.711 124.12 118.897Z" fill="#697181"/>
<path d="M124.678 119.454C124.678 120.382 124.585 121.497 124.77 122.426C124.77 122.611 125.049 122.611 125.142 122.426C125.514 121.497 125.235 120.382 124.956 119.454C124.956 119.268 124.678 119.268 124.678 119.454Z" fill="#697181"/>
<path d="M133.783 167.47C133.226 168.863 133.133 170.349 133.876 171.649C133.969 171.835 134.248 171.742 134.155 171.556C133.876 170.256 133.69 168.956 134.155 167.655C134.341 167.284 133.876 167.191 133.783 167.47Z" fill="#697181"/>
<path d="M131.275 167.099C131.275 167.377 131.275 167.656 131.275 167.934C131.368 168.12 131.554 168.12 131.647 167.934C131.74 167.656 131.74 167.47 131.647 167.099C131.74 166.82 131.275 166.82 131.275 167.099Z" fill="#697181"/>
<path d="M171.23 144.994C171.044 145.644 170.951 146.109 170.951 146.759C170.951 146.945 171.23 147.038 171.323 146.852C171.602 146.295 171.695 145.737 171.787 145.087C171.88 144.716 171.323 144.623 171.23 144.994Z" fill="#697181"/>
<path d="M172.16 146.945C172.067 147.595 171.788 148.245 171.695 148.802C171.695 148.988 171.881 149.267 172.067 148.988C172.532 148.431 172.625 147.595 172.439 146.852C172.346 146.759 172.16 146.759 172.16 146.945Z" fill="#697181"/>
<path d="M204.496 145.18C204.403 145.458 204.31 145.551 204.217 145.83C204.217 146.016 204.217 146.294 204.403 146.387C204.588 146.573 204.681 146.573 204.96 146.573C205.146 146.573 205.332 146.387 205.332 146.201C205.425 145.923 205.425 145.83 205.425 145.551C205.518 144.901 204.774 144.715 204.496 145.18Z" fill="#697181"/>
<path d="M201.893 147.223C201.522 147.687 201.336 148.152 201.615 148.616C201.708 148.802 201.986 148.802 202.079 148.523C202.172 148.152 202.079 147.78 202.172 147.316C202.265 147.223 202.079 147.037 201.893 147.223Z" fill="#697181"/>
<path d="M265.637 143.323C265.73 143.694 265.637 143.973 265.544 144.344C265.451 144.53 265.73 144.623 265.823 144.437C266.102 144.066 266.102 143.694 266.102 143.23C266.102 142.951 265.637 143.044 265.637 143.323Z" fill="#697181"/>
<path d="M267.124 143.88C267.031 144.345 267.031 144.623 267.124 145.088C267.124 145.18 267.31 145.18 267.403 145.088C267.496 144.716 267.403 144.345 267.403 143.88C267.31 143.787 267.217 143.787 267.124 143.88Z" fill="#697181"/>
<path d="M268.146 185.581C267.867 186.045 267.496 186.416 267.31 186.881C267.217 187.067 267.496 187.159 267.588 187.067C267.96 186.695 268.146 186.138 268.332 185.673C268.332 185.488 268.239 185.488 268.146 185.581Z" fill="#697181"/>
<path d="M265.822 184.373C265.822 184.931 265.822 185.395 265.822 185.952C265.822 186.138 266.101 186.138 266.101 185.952C266.101 185.395 266.101 184.931 266.101 184.373C266.008 184.28 265.822 184.28 265.822 184.373Z" fill="#697181"/>
<path d="M208.956 188.274C209.235 189.11 209.885 190.225 210.721 190.689C210.907 190.782 211.279 190.596 211.186 190.318C210.907 189.482 210.164 188.553 209.513 187.996C209.235 187.81 208.863 187.996 208.956 188.274Z" fill="#697181"/>
<path d="M206.725 190.874C206.911 191.432 207.097 191.989 207.468 192.453C207.654 192.639 207.84 192.453 207.84 192.267C207.747 191.71 207.468 191.246 207.19 190.689C207.097 190.41 206.632 190.596 206.725 190.874Z" fill="#697181"/>
<path d="M257.646 163.941C256.996 164.312 256.624 165.334 257.368 165.798C257.46 165.891 257.739 165.798 257.739 165.613C257.832 165.148 257.646 164.777 258.018 164.312C258.204 164.034 257.832 163.755 257.646 163.941Z" fill="#697181"/>
<path d="M202.453 46.2686C202.732 46.8258 203.011 47.383 203.29 47.9403C203.29 48.0332 203.475 48.0332 203.568 48.0332C204.033 48.0332 204.498 48.0332 204.962 48.0332C205.148 48.0332 205.334 47.9403 205.427 47.7545C205.706 47.383 205.891 47.0116 206.077 46.5472C206.17 46.3614 206.356 46.2685 206.542 46.3614C207.192 46.5472 207.75 46.7329 208.4 46.9187C208.4 47.4759 208.4 48.0332 208.4 48.5904C208.4 48.869 208.4 49.0548 208.772 49.2405C209.051 49.3334 209.329 49.5192 209.515 49.7049C209.98 50.0764 210.352 49.9835 210.723 49.7049C211.095 49.4263 211.467 49.2405 211.745 49.0548C212.303 49.612 212.86 50.0764 213.418 50.5408C213.139 51.098 212.86 51.5624 212.489 52.0268C212.303 52.3054 212.303 52.4911 212.489 52.6769C212.675 52.9555 212.86 53.2341 212.953 53.5128C213.139 53.9771 213.418 54.07 213.79 54.07C214.161 54.07 214.533 54.07 214.905 54.07C215.183 54.07 215.276 54.1629 215.369 54.4415C215.462 54.9987 215.648 55.556 215.834 56.0204C215.834 56.1132 215.834 56.1132 215.834 56.2061C215.276 56.4847 214.812 56.7633 214.254 57.042C214.161 57.1348 214.068 57.3206 214.068 57.4135C214.068 57.9707 213.883 58.6208 214.161 58.9923C214.44 59.4567 215.09 59.6425 215.555 59.9211C215.741 60.014 215.834 60.1997 215.741 60.3855C215.555 60.8498 215.462 61.4071 215.276 61.9643C215.183 62.2429 215.09 62.3358 214.812 62.2429C214.347 62.2429 213.883 62.2429 213.511 62.1501C213.232 62.1501 213.139 62.2429 213.046 62.4287C212.86 62.8002 212.582 63.2646 212.396 63.6361C212.303 63.8218 212.21 64.0076 212.396 64.1933C212.675 64.6577 212.953 65.1221 213.232 65.6793C213.046 65.8651 212.86 65.9579 212.767 66.1437C212.582 66.3294 212.396 66.4223 212.303 66.608C211.652 67.2582 211.652 67.2581 210.909 66.7938C210.259 66.3294 209.794 66.3294 209.144 66.7009C208.4 67.0724 208.121 67.5368 208.214 68.3727C208.307 69.2085 208.214 69.2085 207.471 69.3943C207.006 69.4872 206.449 69.7658 206.077 69.6729C205.706 69.58 205.613 68.9299 205.427 68.5584C205.241 68.1869 205.055 68.0011 204.59 68.094C204.219 68.1869 203.847 68.094 203.475 68.094C203.197 68.094 203.104 68.1869 202.918 68.3727C202.639 68.837 202.36 69.3014 202.082 69.7658C201.431 69.58 200.874 69.3943 200.223 69.2085C199.945 69.1156 199.944 69.0228 199.944 68.7441C199.944 68.2798 199.944 67.9083 199.944 67.4439C199.944 67.2582 199.852 67.0724 199.666 66.9795C199.294 66.7009 198.829 66.4223 198.365 66.2365C198.272 66.1437 197.993 66.1437 197.9 66.2365C197.529 66.4223 197.064 66.7009 196.692 66.8867C196.599 66.9795 196.414 66.9795 196.321 66.8867C195.856 66.4223 195.391 65.9579 194.927 65.4007C195.206 64.9363 195.484 64.4719 195.763 64.0075C195.856 63.9147 195.856 63.6361 195.763 63.5432C195.577 63.0788 195.298 62.7073 195.02 62.2429C194.927 62.0572 194.741 61.9643 194.555 61.9643C193.998 61.9643 193.533 61.9643 193.068 61.9643C193.068 61.8714 192.975 61.8715 192.975 61.8715C192.883 61.5 192.79 61.0356 192.604 60.6641C192.418 59.8282 192.418 59.8282 193.161 59.4567C193.812 59.1781 194.183 58.7137 193.998 57.9707C193.905 57.785 193.998 57.5063 193.998 57.3206C194.091 56.9491 193.905 56.6705 193.533 56.5776C193.161 56.3919 192.604 56.2061 192.511 55.9275C192.418 55.6489 192.697 55.0916 192.79 54.7201C193.068 53.8842 193.068 53.8842 193.905 53.8842C194.091 53.8842 194.276 53.8842 194.555 53.8842C194.834 53.8842 194.927 53.7914 195.02 53.6056C195.298 53.1413 195.577 52.7698 195.763 52.3054C195.856 52.2125 195.856 51.9339 195.763 51.841C195.484 51.3766 195.206 50.9123 195.113 50.6336C195.67 49.9835 196.135 49.4263 196.599 48.869C196.971 49.1477 197.343 49.3334 197.714 49.5192C198.086 49.7978 198.365 49.8907 198.829 49.5192C199.108 49.3334 199.48 49.1477 199.759 48.9619C200.037 48.869 200.13 48.6833 200.13 48.4047C200.13 48.0332 200.13 47.5688 200.13 47.1973C200.13 46.9187 200.223 46.8258 200.502 46.7329C201.06 46.6401 201.617 46.4543 202.082 46.2686C202.267 46.2686 202.36 46.2686 202.453 46.2686ZM211.095 58.1565C211.095 54.2557 208.029 51.098 204.219 51.098C200.409 51.098 197.25 54.2557 197.25 58.0636C197.25 61.8714 200.316 64.9363 204.219 64.9363C207.936 64.9363 211.095 61.8714 211.095 58.1565Z" fill="#3B4559"/>
<path d="M115.945 51.0981C115.388 51.8411 115.759 52.7699 116.688 52.9556C116.967 53.0485 117.246 53.0485 117.525 53.1414C119.197 53.5129 119.197 53.5129 119.197 55.2775C119.197 55.7418 119.104 56.0205 118.64 56.1133C118.082 56.2991 117.525 56.4848 116.967 56.6706C116.038 57.0421 115.759 57.9708 116.41 58.7138C116.596 58.8996 116.781 59.1782 116.967 59.3639C118.082 60.5713 118.082 60.5713 117.06 61.9644C116.781 62.3359 116.503 62.5217 116.038 62.3359C115.48 62.1502 114.83 61.9644 114.273 61.7787C113.529 61.5929 112.693 62.2431 112.693 62.9861C112.693 63.6362 112.786 64.2863 112.879 65.0293C112.879 65.215 112.879 65.4937 112.786 65.5865C112.135 65.8652 111.485 66.2367 110.834 66.3295C110.556 66.3295 110.277 65.8652 109.998 65.4937C109.812 65.215 109.627 65.0293 109.441 64.7507C108.604 63.7291 107.768 63.729 107.025 64.8435C106.746 65.3079 106.467 65.7723 106.188 66.2367C106.096 66.3295 105.91 66.6082 105.817 66.6082C105.166 66.5153 104.423 66.3295 103.865 66.0509C103.68 65.958 103.68 65.3079 103.587 64.9364C103.494 64.5649 103.587 64.1006 103.587 63.7291C103.587 62.8003 102.658 62.1502 101.821 62.5217C101.264 62.8003 100.706 62.9861 100.149 63.2647C99.9629 63.3576 99.6841 63.3576 99.5912 63.2647C99.1266 62.8003 98.5691 62.2431 98.3832 61.5929C98.2903 61.3143 98.7549 60.8499 99.0337 60.3856C99.1266 60.1998 99.3124 60.0141 99.4053 59.7355C100.149 58.7138 99.777 57.878 98.5691 57.5065C98.0115 57.4136 97.5469 57.2278 96.9894 57.135C96.8036 57.135 96.6177 56.9492 96.6177 56.8563C96.5248 56.1133 96.4319 55.3703 96.5248 54.7202C96.5248 54.4416 97.1753 54.3487 97.5469 54.163C97.9186 53.9772 98.3832 53.8844 98.8478 53.6986C99.4983 53.42 99.6841 52.3984 99.3124 51.934C98.7549 51.2839 98.1974 50.6338 97.6399 49.9836C98.0115 49.4264 98.2903 48.8691 98.7549 48.3119C98.8478 48.1261 99.2195 48.0333 99.4983 48.0333C100.149 48.1261 100.706 48.4048 101.357 48.4976C102.193 48.7763 102.936 48.1261 102.843 47.1974C102.843 46.9188 102.75 46.733 102.75 46.4544C102.658 44.5969 102.658 44.5969 104.516 44.1325C104.702 44.0397 105.073 44.2254 105.259 44.4112C105.724 44.9684 106.096 45.5257 106.56 46.0829C106.746 46.2687 107.025 46.3615 107.304 46.4544C108.233 46.6402 108.419 45.8043 108.79 45.247C109.812 43.5753 109.812 43.5753 111.578 44.3183C111.764 44.4112 111.95 44.6898 112.042 44.9684C112.135 45.6185 112.042 46.2687 112.135 47.0117C112.135 47.2903 112.414 47.5689 112.6 47.8475C113.157 48.4976 113.715 48.0333 114.18 47.8475C116.224 47.0116 116.224 47.0116 117.525 48.962C116.874 49.7979 116.41 50.448 115.945 51.0981ZM101.542 55.1846C101.357 58.4352 104.051 61.3143 107.489 61.5929C110.742 61.7787 113.715 59.0853 113.901 55.649C114.087 52.3984 111.392 49.5193 107.954 49.3335C104.609 49.1478 101.728 51.7482 101.542 55.1846Z" fill="#3B4559"/>
<path d="M159.523 65.8652C159.059 66.2367 159.059 67.4441 159.616 67.7227C160.453 68.0942 160.545 68.5586 160.174 69.3016C160.081 69.4873 160.081 69.6731 159.988 69.8588C159.337 69.9517 158.594 69.5802 158.129 70.509C157.572 71.4377 158.315 71.8092 158.501 72.6451C158.315 72.738 158.037 72.9237 157.851 73.1095C157.479 73.5738 157.014 73.6667 156.643 73.2023C156.085 72.6451 155.714 73.1094 155.156 73.2952C154.691 73.4809 154.691 73.8524 154.691 74.2239C154.784 74.874 154.506 75.0598 153.855 75.1527C153.298 75.2455 152.833 75.4313 152.647 74.6883C152.554 74.4097 152.276 74.1311 151.997 74.0382C151.253 73.9453 150.51 73.8524 150.231 74.7812C150.231 74.9669 150.045 75.0598 149.953 75.2456C149.674 75.1527 149.395 75.0598 149.116 75.0598C148.838 74.9669 148.652 74.8741 148.373 74.7812C148.373 74.4097 148.373 74.0382 148.373 73.7596C148.373 73.1094 147.165 72.4593 146.7 72.8308C145.957 73.3881 145.492 73.2023 145.028 72.5522C144.935 72.3665 144.749 72.2736 144.656 72.0878C144.842 71.8092 144.935 71.6234 145.121 71.3448C145.492 70.6947 144.842 69.3945 144.099 69.4873C143.355 69.5802 143.076 69.2087 142.984 68.5586C142.984 68.3728 142.891 68.0942 142.891 67.9085C142.984 67.8156 143.076 67.7227 143.169 67.7227C143.634 67.4441 144.099 67.2584 144.099 66.5154C144.099 65.7724 143.913 65.4009 143.262 65.1222C142.612 64.8436 143.169 64.2864 143.169 63.9149C143.169 63.5434 143.355 63.2648 143.82 63.3576C144.099 63.3576 144.563 63.3576 144.749 63.1719C145.492 62.4289 145.492 61.9645 145.028 61.1286C144.935 61.0358 144.935 60.9429 144.842 60.7571C145.214 60.3856 145.678 60.0141 146.05 59.6426C146.7 59.9213 147.072 60.4785 148.001 60.0142C148.93 59.5498 148.559 58.8068 148.745 58.1567C149.302 58.0638 149.767 57.878 150.324 57.7852C150.51 58.0638 150.696 58.3424 150.789 58.621C150.975 59.2712 151.532 59.0854 151.997 59.1783C152.461 59.2711 152.74 58.9925 152.833 58.621C153.112 57.9709 153.483 57.7852 154.134 58.0638C154.413 58.1567 154.599 58.2495 154.877 58.3424C154.877 58.7139 154.97 58.9925 154.877 59.2712C154.691 59.9213 155.249 60.0141 155.621 60.2928C155.992 60.5714 156.271 60.5714 156.643 60.2928C157.2 59.7355 157.758 59.9213 158.129 60.4785C158.222 60.6643 158.408 60.85 158.594 60.9429C158.408 61.6859 157.665 62.0574 158.129 62.9861C158.594 63.9149 159.337 63.4505 160.081 63.6362C160.638 65.1222 160.638 65.1222 159.523 65.8652ZM146.515 66.794C146.515 69.6731 148.838 71.9949 151.718 71.9949C154.506 71.9949 156.922 69.6731 156.922 66.794C156.922 63.9149 154.599 61.593 151.718 61.593C148.838 61.593 146.514 63.9149 146.515 66.794Z" fill="#3B4559"/>
<path d="M169.931 16.1772C169.467 16.3629 169.281 16.0843 169.002 15.8986C168.259 15.2484 167.33 15.1556 166.493 15.8986C166.215 16.1772 165.936 16.3629 165.564 16.0843C165.192 15.8986 165.192 15.6199 165.192 15.2484C165.285 14.2268 164.635 13.391 163.706 13.1123C163.427 13.0195 163.148 12.7408 163.055 12.5551C162.869 12.1836 163.055 11.905 163.427 11.6263C164.263 11.162 164.542 10.1403 164.077 9.2116C163.985 8.93298 163.985 8.56148 164.077 8.37574C164.263 8.09711 164.542 7.81849 165.007 8.00424C165.936 8.37574 166.772 8.00424 167.33 7.0755C167.423 6.88975 167.794 6.61112 168.073 6.70399C168.352 6.70399 168.723 6.88974 168.816 7.16836C169.281 8.18998 169.931 8.56148 171.046 8.37573C171.325 8.37573 171.604 8.56148 171.883 8.74723C172.161 9.02585 172.162 9.30447 171.976 9.67597C171.418 10.6047 171.511 11.3477 172.44 11.9978C172.812 12.2765 172.812 12.5551 172.719 12.9266C172.626 13.3909 172.347 13.4838 171.976 13.4838C171.046 13.5767 170.396 14.3197 170.396 15.3413C170.489 15.6199 170.489 15.9914 169.931 16.1772ZM167.887 9.11873C166.493 9.11873 165.378 10.2332 165.471 11.6263C165.471 12.9266 166.586 14.0411 167.887 14.0411C169.188 14.0411 170.303 12.9266 170.303 11.6263C170.303 10.2332 169.281 9.11873 167.887 9.11873Z" fill="#3B4559"/>
<path d="M6.94899 199.511C6.48439 199.697 6.29855 199.418 6.01979 199.232C5.27643 198.582 4.34723 198.489 3.51095 199.232C3.23219 199.511 2.95343 199.697 2.58175 199.418C2.21007 199.232 2.21007 198.954 2.21007 198.582C2.30299 197.561 1.65255 196.725 0.723347 196.446C0.444587 196.353 0.165827 196.075 0.072907 195.889C-0.112933 195.518 0.0729068 195.239 0.444587 194.96C1.28087 194.496 1.55963 193.474 1.09503 192.546C1.00211 192.267 1.00211 191.895 1.09503 191.71C1.28087 191.431 1.55963 191.152 2.02423 191.338C2.95343 191.71 3.78971 191.338 4.34723 190.409C4.44015 190.224 4.81183 189.945 5.09059 190.038C5.36935 190.038 5.74103 190.224 5.83395 190.502C6.29855 191.524 6.94899 191.895 8.06403 191.71C8.34279 191.71 8.62155 191.895 8.90031 192.081C9.17907 192.36 9.17907 192.638 8.99323 193.01C8.43571 193.939 8.52863 194.682 9.45783 195.332C9.82951 195.61 9.82951 195.889 9.73659 196.261C9.64367 196.725 9.36491 196.818 8.99323 196.818C8.06403 196.911 7.41359 197.654 7.41359 198.675C7.50651 198.954 7.50651 199.232 6.94899 199.511ZM4.99767 192.453C3.60387 192.453 2.48883 193.567 2.58175 194.96C2.58175 196.261 3.69679 197.375 4.99767 197.375C6.29855 197.375 7.41359 196.261 7.41359 194.96C7.32067 193.474 6.29855 192.453 4.99767 192.453Z" fill="#3B4559"/>
<path d="M149.766 49.6122C149.023 49.6122 148.28 49.4264 147.536 49.1478C147.258 49.0549 147.165 48.6834 147.258 48.4048C147.35 48.1262 147.722 48.0333 148.001 48.1262C149.673 48.9621 151.904 48.4048 152.926 47.0117C153.204 46.7331 153.297 46.2687 153.39 45.8972C152.833 45.8043 152.182 45.6186 151.718 45.4328C150.974 45.1542 150.324 44.7827 149.766 44.2255C149.209 43.5753 148.93 42.4608 149.581 41.625C150.324 40.6034 151.811 40.6962 152.74 41.3463C153.669 41.9036 154.319 42.9252 154.505 44.1326C154.505 44.3183 154.598 44.5041 154.598 44.6898C155.62 44.4112 156.364 43.4825 156.642 42.2751C156.735 41.625 156.735 40.9748 156.55 40.2319C155.342 40.2319 154.319 39.9532 153.483 39.6746C152.275 39.3031 151.532 38.4672 151.439 37.5385C151.346 36.8884 151.625 36.3311 152.182 35.8668C152.833 35.3095 153.762 35.1238 154.505 35.4024C155.527 35.7739 156.364 36.6097 157.014 38.0957C157.107 38.3744 157.293 38.653 157.386 38.9316C157.665 38.8387 158.036 38.7459 158.315 38.653C158.408 38.5601 159.523 38.0957 159.895 36.8884C160.08 36.3311 160.08 35.7739 159.895 35.2166C158.036 35.4952 155.527 34.7523 154.412 33.5449C153.669 32.8019 153.669 32.0589 153.855 31.5945C154.041 30.8515 154.691 30.48 155.527 30.3872C156.828 30.2014 158.965 30.9444 159.802 32.2446C160.173 32.8019 160.452 33.3591 160.638 33.8235C161.567 33.3591 162.496 32.5233 162.961 31.5945C163.333 30.9444 163.611 29.8299 162.961 28.6225C162.775 28.3439 162.961 27.9724 163.24 27.8796C163.518 27.7867 163.89 27.8796 163.983 28.1582C164.634 29.4584 164.634 30.8515 163.983 32.1518C163.333 33.3591 162.218 34.4736 161.01 34.938C161.196 35.7739 161.196 36.6098 161.01 37.2599C160.545 39.0245 158.965 39.6746 158.78 39.7675C158.408 39.9532 158.036 40.0461 157.665 40.139C157.85 40.9748 157.85 41.7178 157.757 42.4608C157.479 44.1326 156.271 45.4328 154.877 45.8043C154.784 45.8043 154.691 45.8043 154.598 45.8972C154.505 46.5473 154.227 47.1046 153.855 47.6618C152.926 48.8692 151.346 49.6122 149.766 49.6122ZM151.253 41.9036C150.974 41.9036 150.696 41.9965 150.603 42.1822C150.324 42.4608 150.51 43.0181 150.788 43.3896C151.16 43.7611 151.718 44.0397 152.275 44.3183C152.74 44.5041 153.204 44.6898 153.669 44.6898C153.669 44.597 153.669 44.4112 153.576 44.3183C153.39 43.4825 152.926 42.7395 152.275 42.2751C151.903 41.9965 151.532 41.9036 151.253 41.9036ZM153.855 36.5169C153.576 36.5169 153.204 36.6098 152.926 36.7955C152.74 36.8884 152.554 37.167 152.554 37.4456C152.647 38.0029 153.297 38.3744 153.855 38.5601C154.505 38.7459 155.342 39.0245 156.271 39.0245C156.178 38.9316 156.178 38.7459 156.085 38.5601C155.527 37.3527 154.97 36.7026 154.227 36.5169C154.134 36.5169 153.948 36.5169 153.855 36.5169ZM155.992 31.4088C155.899 31.4088 155.806 31.4088 155.713 31.4088C155.342 31.5017 155.063 31.5945 154.97 31.8732C154.97 31.966 154.877 32.2446 155.249 32.709C156.085 33.6378 158.036 34.195 159.523 34.1021C159.337 33.7306 159.058 33.2663 158.78 32.8019C158.408 32.0589 157.014 31.4088 155.992 31.4088Z" fill="#3B4559"/>
</svg>
