<svg width="75" height="75" viewBox="0 0 75 75" fill="none" xmlns="http://www.w3.org/2000/svg">
<path fill-rule="evenodd" clip-rule="evenodd" d="M31.9657 23.4436C31.9657 28.7266 27.8003 33.0393 22.6645 33.0393C17.5287 33.0393 13.3633 28.7266 13.3633 23.4436C13.3633 18.1606 17.5436 13.8479 22.6645 13.8479C27.7854 13.8479 31.9657 18.1606 31.9657 23.4436ZM28.3081 23.4436C28.3081 20.2398 25.785 17.6214 22.6647 17.6214C19.5444 17.6214 17.0212 20.2398 17.0212 23.4436C17.0212 26.6473 19.5593 29.2657 22.6647 29.2657C25.7701 29.2657 28.3081 26.6473 28.3081 23.4436Z" fill="#3969ED"/>
<path fill-rule="evenodd" clip-rule="evenodd" d="M0 67.0924C0 71.4599 3.55537 75 7.90764 75H67.0924C71.4599 75 75 71.4446 75 67.0924V7.90764C75 3.54005 71.4446 0 67.0924 0H7.90764C3.54005 0 0 3.55537 0 7.90764V67.0924ZM67.0924 71.2452H7.90768C5.62427 71.2452 3.75464 69.3755 3.75464 67.0921V57.2076L17.9761 42.9861L30.1288 55.1387C30.8644 55.8743 32.0444 55.8743 32.78 55.1387L54.7252 33.1935L71.2454 49.7137V67.0921C71.2454 69.3755 69.3758 71.2452 67.0924 71.2452ZM67.0924 3.7545H7.90768C5.62427 3.7545 3.75464 5.62413 3.75464 7.90754V51.89L16.6429 39.0017C17.3785 38.2661 18.5585 38.2661 19.2941 39.0017L31.4467 51.1544L53.3919 29.2091C54.1275 28.4735 55.3076 28.4735 56.0432 29.2091L71.2454 44.3961V7.90754C71.2454 5.62413 69.3758 3.7545 67.0924 3.7545Z" fill="#3969ED"/>
</svg>
