<svg width="489" height="468" viewBox="0 0 489 468" fill="none" xmlns="http://www.w3.org/2000/svg">
<g filter="url(#filter0_d_4064_37969)">
<rect x="4" width="481" height="460" rx="10" fill="#212238"/>
<rect x="4.5" y="0.5" width="480" height="459" rx="9.5" stroke="#354A5E"/>
</g>
<path d="M387.704 115V94.52L389.944 96.76H383.224V92.6H392.888V115H387.704ZM396.523 110.296V106.808L407.083 92.6H412.523L402.187 106.808L399.659 106.072H417.291V110.296H396.523ZM408.587 115V110.296L408.747 106.072V101.88H413.643V115H408.587ZM421.485 115V94.52L423.725 96.76H417.005V92.6H426.669V115H421.485ZM434.016 115V94.52L436.257 96.76H429.537V92.6H439.201V115H434.016Z" fill="#3B4559"/>
<g filter="url(#filter1_d_4064_37969)">
<path d="M131.991 295.26C131.174 295.26 130.475 295.08 129.895 294.72C129.315 294.36 128.872 293.841 128.564 293.165C128.265 292.479 128.116 291.644 128.116 290.66C128.116 289.615 128.3 288.732 128.669 288.011C129.038 287.291 129.552 286.746 130.212 286.377C130.871 286.008 131.626 285.823 132.479 285.823C132.918 285.823 133.335 285.867 133.731 285.955C134.135 286.043 134.482 286.179 134.772 286.364L134.271 287.392C134.034 287.225 133.761 287.11 133.454 287.049C133.155 286.987 132.839 286.957 132.505 286.957C131.565 286.957 130.818 287.251 130.264 287.84C129.711 288.42 129.434 289.285 129.434 290.436C129.434 290.621 129.443 290.84 129.46 291.095C129.478 291.35 129.522 291.6 129.592 291.847L129.144 291.398C129.276 290.994 129.482 290.656 129.763 290.384C130.053 290.102 130.396 289.896 130.791 289.764C131.196 289.623 131.631 289.553 132.096 289.553C132.711 289.553 133.256 289.667 133.731 289.896C134.205 290.124 134.579 290.449 134.851 290.871C135.123 291.284 135.26 291.776 135.26 292.347C135.26 292.936 135.115 293.45 134.825 293.889C134.535 294.329 134.144 294.667 133.652 294.904C133.16 295.142 132.606 295.26 131.991 295.26ZM131.938 294.193C132.342 294.193 132.694 294.118 132.993 293.969C133.3 293.819 133.542 293.613 133.717 293.349C133.893 293.077 133.981 292.76 133.981 292.4C133.981 291.855 133.792 291.425 133.414 291.108C133.036 290.783 132.522 290.621 131.872 290.621C131.45 290.621 131.081 290.7 130.765 290.858C130.449 291.016 130.198 291.231 130.014 291.504C129.838 291.767 129.75 292.071 129.75 292.413C129.75 292.73 129.834 293.024 130.001 293.296C130.168 293.56 130.414 293.775 130.739 293.942C131.064 294.109 131.464 294.193 131.938 294.193ZM140.02 295.26C139.3 295.26 138.654 295.076 138.083 294.707C137.52 294.338 137.072 293.802 136.738 293.099C136.413 292.396 136.251 291.543 136.251 290.542C136.251 289.54 136.413 288.688 136.738 287.985C137.072 287.282 137.52 286.746 138.083 286.377C138.654 286.008 139.3 285.823 140.02 285.823C140.732 285.823 141.373 286.008 141.944 286.377C142.516 286.746 142.964 287.282 143.289 287.985C143.614 288.688 143.777 289.54 143.777 290.542C143.777 291.543 143.614 292.396 143.289 293.099C142.964 293.802 142.516 294.338 141.944 294.707C141.373 295.076 140.732 295.26 140.02 295.26ZM140.02 294.087C140.503 294.087 140.925 293.955 141.285 293.692C141.655 293.428 141.94 293.033 142.142 292.506C142.353 291.978 142.459 291.324 142.459 290.542C142.459 289.76 142.353 289.105 142.142 288.578C141.94 288.051 141.655 287.655 141.285 287.392C140.925 287.128 140.503 286.996 140.02 286.996C139.537 286.996 139.111 287.128 138.742 287.392C138.373 287.655 138.083 288.051 137.872 288.578C137.67 289.105 137.569 289.76 137.569 290.542C137.569 291.324 137.67 291.978 137.872 292.506C138.083 293.033 138.373 293.428 138.742 293.692C139.111 293.955 139.537 294.087 140.02 294.087ZM146.307 295.155L152.607 285.929H153.622L147.322 295.155H146.307ZM147.045 290.884C146.623 290.884 146.25 290.779 145.925 290.568C145.6 290.357 145.345 290.063 145.16 289.685C144.985 289.307 144.897 288.868 144.897 288.367C144.897 287.866 144.985 287.427 145.16 287.049C145.345 286.671 145.6 286.377 145.925 286.166C146.25 285.955 146.623 285.849 147.045 285.849C147.476 285.849 147.849 285.955 148.165 286.166C148.491 286.377 148.741 286.671 148.917 287.049C149.093 287.427 149.18 287.866 149.18 288.367C149.18 288.868 149.093 289.307 148.917 289.685C148.741 290.063 148.491 290.357 148.165 290.568C147.849 290.779 147.476 290.884 147.045 290.884ZM147.045 290.133C147.449 290.133 147.766 289.979 147.994 289.672C148.223 289.355 148.337 288.92 148.337 288.367C148.337 287.813 148.223 287.383 147.994 287.075C147.766 286.759 147.449 286.601 147.045 286.601C146.65 286.601 146.333 286.759 146.096 287.075C145.868 287.383 145.753 287.813 145.753 288.367C145.753 288.912 145.868 289.342 146.096 289.659C146.333 289.975 146.65 290.133 147.045 290.133ZM152.884 295.234C152.462 295.234 152.089 295.128 151.764 294.918C151.439 294.707 151.188 294.412 151.012 294.034C150.837 293.657 150.749 293.217 150.749 292.716C150.749 292.216 150.837 291.776 151.012 291.398C151.188 291.021 151.439 290.726 151.764 290.515C152.089 290.304 152.462 290.199 152.884 290.199C153.315 290.199 153.688 290.304 154.004 290.515C154.329 290.726 154.58 291.021 154.756 291.398C154.94 291.776 155.032 292.216 155.032 292.716C155.032 293.217 154.94 293.657 154.756 294.034C154.58 294.412 154.329 294.707 154.004 294.918C153.688 295.128 153.315 295.234 152.884 295.234ZM152.884 294.483C153.279 294.483 153.591 294.329 153.82 294.021C154.057 293.705 154.176 293.27 154.176 292.716C154.176 292.172 154.057 291.741 153.82 291.425C153.591 291.108 153.279 290.95 152.884 290.95C152.489 290.95 152.172 291.108 151.935 291.425C151.707 291.732 151.592 292.163 151.592 292.716C151.592 293.27 151.707 293.705 151.935 294.021C152.172 294.329 152.489 294.483 152.884 294.483Z" fill="white"/>
<path d="M360.442 293.396V292.473L365.16 286.437H366.584L361.905 292.473L361.232 292.263H368.6V293.396H360.442ZM365.569 295.663V293.396L365.608 292.263V290.259H366.847V295.663H365.569ZM373.16 295.769C372.439 295.769 371.794 295.584 371.222 295.215C370.66 294.846 370.212 294.31 369.878 293.607C369.553 292.904 369.39 292.052 369.39 291.05C369.39 290.048 369.553 289.196 369.878 288.493C370.212 287.79 370.66 287.254 371.222 286.885C371.794 286.516 372.439 286.331 373.16 286.331C373.872 286.331 374.513 286.516 375.084 286.885C375.655 287.254 376.104 287.79 376.429 288.493C376.754 289.196 376.916 290.048 376.916 291.05C376.916 292.052 376.754 292.904 376.429 293.607C376.104 294.31 375.655 294.846 375.084 295.215C374.513 295.584 373.872 295.769 373.16 295.769ZM373.16 294.595C373.643 294.595 374.065 294.464 374.425 294.2C374.794 293.936 375.08 293.541 375.282 293.014C375.493 292.487 375.598 291.832 375.598 291.05C375.598 290.268 375.493 289.613 375.282 289.086C375.08 288.559 374.794 288.163 374.425 287.9C374.065 287.636 373.643 287.504 373.16 287.504C372.677 287.504 372.251 287.636 371.881 287.9C371.512 288.163 371.222 288.559 371.012 289.086C370.809 289.613 370.708 290.268 370.708 291.05C370.708 291.832 370.809 292.487 371.012 293.014C371.222 293.541 371.512 293.936 371.881 294.2C372.251 294.464 372.677 294.595 373.16 294.595ZM379.447 295.663L385.747 286.437H386.762L380.462 295.663H379.447ZM380.185 291.393C379.763 291.393 379.39 291.287 379.065 291.076C378.74 290.865 378.485 290.571 378.3 290.193C378.124 289.815 378.037 289.376 378.037 288.875C378.037 288.374 378.124 287.935 378.3 287.557C378.485 287.179 378.74 286.885 379.065 286.674C379.39 286.463 379.763 286.358 380.185 286.358C380.616 286.358 380.989 286.463 381.305 286.674C381.63 286.885 381.881 287.179 382.057 287.557C382.232 287.935 382.32 288.374 382.32 288.875C382.32 289.376 382.232 289.815 382.057 290.193C381.881 290.571 381.63 290.865 381.305 291.076C380.989 291.287 380.616 291.393 380.185 291.393ZM380.185 290.641C380.589 290.641 380.905 290.488 381.134 290.18C381.362 289.864 381.477 289.429 381.477 288.875C381.477 288.322 381.362 287.891 381.134 287.584C380.905 287.267 380.589 287.109 380.185 287.109C379.79 287.109 379.473 287.267 379.236 287.584C379.008 287.891 378.893 288.322 378.893 288.875C378.893 289.42 379.008 289.851 379.236 290.167C379.473 290.483 379.79 290.641 380.185 290.641ZM386.024 295.742C385.602 295.742 385.229 295.637 384.904 295.426C384.578 295.215 384.328 294.921 384.152 294.543C383.977 294.165 383.889 293.726 383.889 293.225C383.889 292.724 383.977 292.285 384.152 291.907C384.328 291.529 384.578 291.234 384.904 291.024C385.229 290.813 385.602 290.707 386.024 290.707C386.454 290.707 386.828 290.813 387.144 291.024C387.469 291.234 387.72 291.529 387.895 291.907C388.08 292.285 388.172 292.724 388.172 293.225C388.172 293.726 388.08 294.165 387.895 294.543C387.72 294.921 387.469 295.215 387.144 295.426C386.828 295.637 386.454 295.742 386.024 295.742ZM386.024 294.991C386.419 294.991 386.731 294.837 386.96 294.53C387.197 294.213 387.316 293.778 387.316 293.225C387.316 292.68 387.197 292.249 386.96 291.933C386.731 291.617 386.419 291.459 386.024 291.459C385.628 291.459 385.312 291.617 385.075 291.933C384.846 292.241 384.732 292.671 384.732 293.225C384.732 293.778 384.846 294.213 385.075 294.53C385.312 294.837 385.628 294.991 386.024 294.991Z" fill="white"/>
<path opacity="0.05" d="M292.944 264.721C292.944 287.875 273.625 306.668 249.765 306.668C225.906 306.668 206.587 287.875 206.587 264.721C206.587 241.567 225.906 222.774 249.765 222.774C273.625 222.774 292.944 241.567 292.944 264.721Z" fill="white" stroke="#354A5E" stroke-width="0.941452"/>
<path d="M263.719 245.316L263.719 245.316L261.289 267.795C261.289 267.796 261.289 267.797 261.289 267.797C261.04 269.898 260.25 271.921 259.003 273.655C254.85 279.432 246.628 280.855 240.674 276.813C234.719 272.771 233.265 264.779 237.418 259.002C238.664 257.267 240.347 255.85 242.284 254.904C242.285 254.903 242.285 254.903 242.286 254.903L263.176 244.947L263.177 244.947C263.297 244.89 263.444 244.899 263.559 244.977C263.674 245.055 263.733 245.186 263.719 245.316ZM254.191 270.388C256.499 267.178 255.685 262.749 252.391 260.513C249.097 258.276 244.538 259.058 242.23 262.268C239.922 265.479 240.736 269.907 244.03 272.144C247.324 274.38 251.883 273.599 254.191 270.388Z" fill="#285CED" stroke="#354A5E" stroke-width="0.941452"/>
<path d="M114.698 265.085C114.781 242.643 120.746 220.589 132.037 201.004C143.406 181.282 159.795 164.725 179.636 152.917C199.477 141.11 222.105 134.448 245.355 133.57C268.444 132.699 291.376 137.561 311.989 147.692L291.367 186.964C277.672 180.258 262.446 177.042 247.118 177.621C231.635 178.205 216.566 182.641 203.351 190.505C190.136 198.37 179.218 209.399 171.643 222.54C164.146 235.544 160.172 250.183 160.09 265.085H114.698Z" fill="#285CED" stroke="#354A5E" stroke-width="0.941452"/>
<path opacity="0.05" d="M368.356 199.518C380.204 219.461 386.479 242.064 386.564 265.084H341.172C341.088 249.797 336.908 234.792 329.04 221.55C321.173 208.308 309.894 197.29 296.318 189.579L319.003 151.395C339.49 162.979 356.504 179.569 368.356 199.518Z" fill="white" stroke="#354A5E" stroke-width="0.941452"/>
</g>
<rect opacity="0.05" x="216.5" y="343.5" width="45" height="43.8205" rx="6.5" fill="#FCEAEC" stroke="#354A5E"/>
<path d="M239.666 358.528V370.807M239.666 370.807L235.796 367.035M239.666 370.807L243.537 367.035" stroke="#DA5263" stroke-width="2"/>
<path d="M218.368 400V391.6H219.256V400H218.368ZM224.785 393.64C225.297 393.64 225.745 393.74 226.129 393.94C226.521 394.132 226.825 394.428 227.041 394.828C227.265 395.228 227.377 395.732 227.377 396.34V400H226.525V396.424C226.525 395.76 226.357 395.26 226.021 394.924C225.693 394.58 225.229 394.408 224.629 394.408C224.181 394.408 223.789 394.5 223.453 394.684C223.125 394.86 222.869 395.12 222.685 395.464C222.509 395.8 222.421 396.208 222.421 396.688V400H221.569V393.7H222.385V395.428L222.253 395.104C222.453 394.648 222.773 394.292 223.213 394.036C223.653 393.772 224.177 393.64 224.785 393.64ZM233.386 400V398.608L233.35 398.38V396.052C233.35 395.516 233.198 395.104 232.894 394.816C232.598 394.528 232.154 394.384 231.562 394.384C231.154 394.384 230.766 394.452 230.398 394.588C230.03 394.724 229.718 394.904 229.462 395.128L229.078 394.492C229.398 394.22 229.782 394.012 230.23 393.868C230.678 393.716 231.15 393.64 231.646 393.64C232.462 393.64 233.09 393.844 233.53 394.252C233.978 394.652 234.202 395.264 234.202 396.088V400H233.386ZM231.214 400.06C230.742 400.06 230.33 399.984 229.978 399.832C229.634 399.672 229.37 399.456 229.186 399.184C229.002 398.904 228.91 398.584 228.91 398.224C228.91 397.896 228.986 397.6 229.138 397.336C229.298 397.064 229.554 396.848 229.906 396.688C230.266 396.52 230.746 396.436 231.346 396.436H233.518V397.072H231.37C230.762 397.072 230.338 397.18 230.098 397.396C229.866 397.612 229.75 397.88 229.75 398.2C229.75 398.56 229.89 398.848 230.17 399.064C230.45 399.28 230.842 399.388 231.346 399.388C231.826 399.388 232.238 399.28 232.582 399.064C232.934 398.84 233.19 398.52 233.35 398.104L233.542 398.692C233.382 399.108 233.102 399.44 232.702 399.688C232.31 399.936 231.814 400.06 231.214 400.06ZM238.893 400.06C238.269 400.06 237.709 399.924 237.213 399.652C236.725 399.372 236.341 398.992 236.061 398.512C235.781 398.024 235.641 397.468 235.641 396.844C235.641 396.212 235.781 395.656 236.061 395.176C236.341 394.696 236.725 394.32 237.213 394.048C237.709 393.776 238.269 393.64 238.893 393.64C239.429 393.64 239.913 393.744 240.345 393.952C240.777 394.16 241.117 394.472 241.365 394.888L240.729 395.32C240.513 395 240.245 394.764 239.925 394.612C239.605 394.46 239.257 394.384 238.881 394.384C238.433 394.384 238.029 394.488 237.669 394.696C237.309 394.896 237.025 395.18 236.817 395.548C236.609 395.916 236.505 396.348 236.505 396.844C236.505 397.34 236.609 397.772 236.817 398.14C237.025 398.508 237.309 398.796 237.669 399.004C238.029 399.204 238.433 399.304 238.881 399.304C239.257 399.304 239.605 399.228 239.925 399.076C240.245 398.924 240.513 398.692 240.729 398.38L241.365 398.812C241.117 399.22 240.777 399.532 240.345 399.748C239.913 399.956 239.429 400.06 238.893 400.06ZM244.861 400.06C244.269 400.06 243.813 399.9 243.493 399.58C243.173 399.26 243.013 398.808 243.013 398.224V392.308H243.865V398.176C243.865 398.544 243.957 398.828 244.141 399.028C244.333 399.228 244.605 399.328 244.957 399.328C245.333 399.328 245.645 399.22 245.893 399.004L246.193 399.616C246.025 399.768 245.821 399.88 245.581 399.952C245.349 400.024 245.109 400.06 244.861 400.06ZM241.885 394.408V393.7H245.785V394.408H241.885ZM247.504 400V393.7H248.356V400H247.504ZM247.936 392.308C247.76 392.308 247.612 392.248 247.492 392.128C247.372 392.008 247.312 391.864 247.312 391.696C247.312 391.528 247.372 391.388 247.492 391.276C247.612 391.156 247.76 391.096 247.936 391.096C248.112 391.096 248.26 391.152 248.38 391.264C248.5 391.376 248.56 391.516 248.56 391.684C248.56 391.86 248.5 392.008 248.38 392.128C248.268 392.248 248.12 392.308 247.936 392.308ZM252.106 400L249.31 393.7H250.198L252.766 399.544H252.346L254.95 393.7H255.79L252.982 400H252.106ZM259.142 400.06C258.534 400.06 257.986 399.924 257.498 399.652C257.018 399.372 256.638 398.992 256.358 398.512C256.078 398.024 255.938 397.468 255.938 396.844C255.938 396.212 256.078 395.656 256.358 395.176C256.638 394.696 257.018 394.32 257.498 394.048C257.978 393.776 258.526 393.64 259.142 393.64C259.766 393.64 260.318 393.776 260.798 394.048C261.286 394.32 261.666 394.696 261.938 395.176C262.218 395.656 262.358 396.212 262.358 396.844C262.358 397.468 262.218 398.024 261.938 398.512C261.666 398.992 261.286 399.372 260.798 399.652C260.31 399.924 259.758 400.06 259.142 400.06ZM259.142 399.304C259.598 399.304 260.002 399.204 260.354 399.004C260.706 398.796 260.982 398.508 261.182 398.14C261.39 397.764 261.494 397.332 261.494 396.844C261.494 396.348 261.39 395.916 261.182 395.548C260.982 395.18 260.706 394.896 260.354 394.696C260.002 394.488 259.602 394.384 259.154 394.384C258.706 394.384 258.306 394.488 257.954 394.696C257.602 394.896 257.322 395.18 257.114 395.548C256.906 395.916 256.802 396.348 256.802 396.844C256.802 397.332 256.906 397.764 257.114 398.14C257.322 398.508 257.602 398.796 257.954 399.004C258.306 399.204 258.702 399.304 259.142 399.304ZM265.55 400.06C265.03 400.06 264.538 399.988 264.074 399.844C263.61 399.692 263.246 399.504 262.982 399.28L263.366 398.608C263.622 398.8 263.95 398.968 264.35 399.112C264.75 399.248 265.17 399.316 265.61 399.316C266.21 399.316 266.642 399.224 266.906 399.04C267.17 398.848 267.302 398.596 267.302 398.284C267.302 398.052 267.226 397.872 267.074 397.744C266.93 397.608 266.738 397.508 266.498 397.444C266.258 397.372 265.99 397.312 265.694 397.264C265.398 397.216 265.102 397.16 264.806 397.096C264.518 397.032 264.254 396.94 264.014 396.82C263.774 396.692 263.578 396.52 263.426 396.304C263.282 396.088 263.21 395.8 263.21 395.44C263.21 395.096 263.306 394.788 263.498 394.516C263.69 394.244 263.97 394.032 264.338 393.88C264.714 393.72 265.17 393.64 265.706 393.64C266.114 393.64 266.522 393.696 266.93 393.808C267.338 393.912 267.674 394.052 267.938 394.228L267.566 394.912C267.286 394.72 266.986 394.584 266.666 394.504C266.346 394.416 266.026 394.372 265.706 394.372C265.138 394.372 264.718 394.472 264.446 394.672C264.182 394.864 264.05 395.112 264.05 395.416C264.05 395.656 264.122 395.844 264.266 395.98C264.418 396.116 264.614 396.224 264.854 396.304C265.102 396.376 265.37 396.436 265.658 396.484C265.954 396.532 266.246 396.592 266.534 396.664C266.83 396.728 267.098 396.82 267.338 396.94C267.586 397.052 267.782 397.216 267.926 397.432C268.078 397.64 268.154 397.916 268.154 398.26C268.154 398.628 268.05 398.948 267.842 399.22C267.642 399.484 267.346 399.692 266.954 399.844C266.57 399.988 266.102 400.06 265.55 400.06Z" fill="#DA5263"/>
<path d="M273.666 373V371.776L278.796 366.826C279.252 366.394 279.588 366.016 279.804 365.692C280.032 365.356 280.182 365.05 280.254 364.774C280.338 364.486 280.38 364.21 280.38 363.946C280.38 363.298 280.152 362.788 279.696 362.416C279.24 362.044 278.574 361.858 277.698 361.858C277.026 361.858 276.42 361.972 275.88 362.2C275.34 362.416 274.872 362.758 274.476 363.226L273.252 362.164C273.732 361.552 274.374 361.084 275.178 360.76C275.994 360.424 276.888 360.256 277.86 360.256C278.736 360.256 279.498 360.4 280.146 360.688C280.794 360.964 281.292 361.366 281.64 361.894C282 362.422 282.18 363.046 282.18 363.766C282.18 364.174 282.126 364.576 282.018 364.972C281.91 365.368 281.706 365.788 281.406 366.232C281.106 366.676 280.674 367.174 280.11 367.726L275.538 372.136L275.106 371.434H282.72V373H273.666ZM287.908 373.144C287.02 373.144 286.156 373.006 285.316 372.73C284.488 372.454 283.81 372.082 283.282 371.614L284.11 370.192C284.53 370.588 285.076 370.912 285.748 371.164C286.42 371.416 287.134 371.542 287.89 371.542C288.85 371.542 289.588 371.338 290.104 370.93C290.62 370.522 290.878 369.976 290.878 369.292C290.878 368.824 290.764 368.416 290.536 368.068C290.308 367.72 289.912 367.456 289.348 367.276C288.796 367.084 288.034 366.988 287.062 366.988H284.2L284.866 360.4H291.976V361.966H285.532L286.468 361.084L285.946 366.286L285.01 365.422H287.44C288.7 365.422 289.714 365.584 290.482 365.908C291.25 366.232 291.808 366.682 292.156 367.258C292.504 367.822 292.678 368.476 292.678 369.22C292.678 369.94 292.504 370.6 292.156 371.2C291.808 371.788 291.28 372.262 290.572 372.622C289.876 372.97 288.988 373.144 287.908 373.144ZM299.108 373.144C297.992 373.144 297.038 372.898 296.246 372.406C295.454 371.914 294.848 371.206 294.428 370.282C294.02 369.346 293.816 368.206 293.816 366.862C293.816 365.434 294.068 364.228 294.572 363.244C295.076 362.26 295.778 361.516 296.678 361.012C297.578 360.508 298.61 360.256 299.774 360.256C300.374 360.256 300.944 360.316 301.484 360.436C302.036 360.556 302.51 360.742 302.906 360.994L302.222 362.398C301.898 362.17 301.526 362.014 301.106 361.93C300.698 361.846 300.266 361.804 299.81 361.804C298.526 361.804 297.506 362.206 296.75 363.01C295.994 363.802 295.616 364.984 295.616 366.556C295.616 366.808 295.628 367.108 295.652 367.456C295.676 367.804 295.736 368.146 295.832 368.482L295.22 367.87C295.4 367.318 295.682 366.856 296.066 366.484C296.462 366.1 296.93 365.818 297.47 365.638C298.022 365.446 298.616 365.35 299.252 365.35C300.092 365.35 300.836 365.506 301.484 365.818C302.132 366.13 302.642 366.574 303.014 367.15C303.386 367.714 303.572 368.386 303.572 369.166C303.572 369.97 303.374 370.672 302.978 371.272C302.582 371.872 302.048 372.334 301.376 372.658C300.704 372.982 299.948 373.144 299.108 373.144ZM299.036 371.686C299.588 371.686 300.068 371.584 300.476 371.38C300.896 371.176 301.226 370.894 301.466 370.534C301.706 370.162 301.826 369.73 301.826 369.238C301.826 368.494 301.568 367.906 301.052 367.474C300.536 367.03 299.834 366.808 298.946 366.808C298.37 366.808 297.866 366.916 297.434 367.132C297.002 367.348 296.66 367.642 296.408 368.014C296.168 368.374 296.048 368.788 296.048 369.256C296.048 369.688 296.162 370.09 296.39 370.462C296.618 370.822 296.954 371.116 297.398 371.344C297.842 371.572 298.388 371.686 299.036 371.686Z" fill="#DA5263"/>
<path d="M38.024 402L41.864 393.6H42.74L46.58 402H45.644L42.116 394.116H42.476L38.948 402H38.024ZM39.536 399.756L39.8 399.036H44.684L44.948 399.756H39.536ZM50.107 402.06C49.483 402.06 48.923 401.924 48.427 401.652C47.939 401.372 47.555 400.992 47.275 400.512C46.995 400.024 46.855 399.468 46.855 398.844C46.855 398.212 46.995 397.656 47.275 397.176C47.555 396.696 47.939 396.32 48.427 396.048C48.923 395.776 49.483 395.64 50.107 395.64C50.643 395.64 51.127 395.744 51.559 395.952C51.991 396.16 52.331 396.472 52.579 396.888L51.943 397.32C51.727 397 51.459 396.764 51.139 396.612C50.819 396.46 50.471 396.384 50.095 396.384C49.647 396.384 49.243 396.488 48.883 396.696C48.523 396.896 48.239 397.18 48.031 397.548C47.823 397.916 47.719 398.348 47.719 398.844C47.719 399.34 47.823 399.772 48.031 400.14C48.239 400.508 48.523 400.796 48.883 401.004C49.243 401.204 49.647 401.304 50.095 401.304C50.471 401.304 50.819 401.228 51.139 401.076C51.459 400.924 51.727 400.692 51.943 400.38L52.579 400.812C52.331 401.22 51.991 401.532 51.559 401.748C51.127 401.956 50.643 402.06 50.107 402.06ZM56.075 402.06C55.483 402.06 55.027 401.9 54.707 401.58C54.387 401.26 54.227 400.808 54.227 400.224V394.308H55.079V400.176C55.079 400.544 55.171 400.828 55.355 401.028C55.547 401.228 55.819 401.328 56.171 401.328C56.547 401.328 56.859 401.22 57.107 401.004L57.407 401.616C57.239 401.768 57.035 401.88 56.795 401.952C56.563 402.024 56.323 402.06 56.075 402.06ZM53.099 396.408V395.7H56.999V396.408H53.099ZM58.718 402V395.7H59.57V402H58.718ZM59.15 394.308C58.974 394.308 58.826 394.248 58.706 394.128C58.586 394.008 58.526 393.864 58.526 393.696C58.526 393.528 58.586 393.388 58.706 393.276C58.826 393.156 58.974 393.096 59.15 393.096C59.326 393.096 59.474 393.152 59.594 393.264C59.714 393.376 59.774 393.516 59.774 393.684C59.774 393.86 59.714 394.008 59.594 394.128C59.482 394.248 59.334 394.308 59.15 394.308ZM63.3207 402L60.5247 395.7H61.4127L63.9807 401.544H63.5607L66.1647 395.7H67.0047L64.1967 402H63.3207ZM70.3568 402.06C69.7488 402.06 69.2008 401.924 68.7128 401.652C68.2328 401.372 67.8528 400.992 67.5728 400.512C67.2928 400.024 67.1528 399.468 67.1528 398.844C67.1528 398.212 67.2928 397.656 67.5728 397.176C67.8528 396.696 68.2328 396.32 68.7128 396.048C69.1928 395.776 69.7408 395.64 70.3568 395.64C70.9808 395.64 71.5328 395.776 72.0128 396.048C72.5008 396.32 72.8808 396.696 73.1528 397.176C73.4328 397.656 73.5728 398.212 73.5728 398.844C73.5728 399.468 73.4328 400.024 73.1528 400.512C72.8808 400.992 72.5008 401.372 72.0128 401.652C71.5248 401.924 70.9728 402.06 70.3568 402.06ZM70.3568 401.304C70.8128 401.304 71.2168 401.204 71.5688 401.004C71.9208 400.796 72.1968 400.508 72.3968 400.14C72.6048 399.764 72.7088 399.332 72.7088 398.844C72.7088 398.348 72.6048 397.916 72.3968 397.548C72.1968 397.18 71.9208 396.896 71.5688 396.696C71.2168 396.488 70.8168 396.384 70.3688 396.384C69.9208 396.384 69.5208 396.488 69.1688 396.696C68.8168 396.896 68.5368 397.18 68.3288 397.548C68.1208 397.916 68.0168 398.348 68.0168 398.844C68.0168 399.332 68.1208 399.764 68.3288 400.14C68.5368 400.508 68.8168 400.796 69.1688 401.004C69.5208 401.204 69.9168 401.304 70.3568 401.304ZM76.7642 402.06C76.2442 402.06 75.7522 401.988 75.2882 401.844C74.8242 401.692 74.4602 401.504 74.1962 401.28L74.5802 400.608C74.8362 400.8 75.1642 400.968 75.5642 401.112C75.9642 401.248 76.3842 401.316 76.8242 401.316C77.4242 401.316 77.8562 401.224 78.1202 401.04C78.3842 400.848 78.5162 400.596 78.5162 400.284C78.5162 400.052 78.4402 399.872 78.2882 399.744C78.1442 399.608 77.9522 399.508 77.7122 399.444C77.4722 399.372 77.2042 399.312 76.9082 399.264C76.6122 399.216 76.3162 399.16 76.0202 399.096C75.7322 399.032 75.4682 398.94 75.2282 398.82C74.9882 398.692 74.7922 398.52 74.6402 398.304C74.4962 398.088 74.4242 397.8 74.4242 397.44C74.4242 397.096 74.5202 396.788 74.7122 396.516C74.9042 396.244 75.1842 396.032 75.5522 395.88C75.9282 395.72 76.3842 395.64 76.9202 395.64C77.3282 395.64 77.7362 395.696 78.1442 395.808C78.5522 395.912 78.8882 396.052 79.1522 396.228L78.7802 396.912C78.5002 396.72 78.2002 396.584 77.8802 396.504C77.5602 396.416 77.2402 396.372 76.9202 396.372C76.3522 396.372 75.9322 396.472 75.6602 396.672C75.3962 396.864 75.2642 397.112 75.2642 397.416C75.2642 397.656 75.3362 397.844 75.4802 397.98C75.6322 398.116 75.8282 398.224 76.0682 398.304C76.3162 398.376 76.5842 398.436 76.8722 398.484C77.1682 398.532 77.4602 398.592 77.7482 398.664C78.0442 398.728 78.3122 398.82 78.5522 398.94C78.8002 399.052 78.9962 399.216 79.1402 399.432C79.2922 399.64 79.3682 399.916 79.3682 400.26C79.3682 400.628 79.2642 400.948 79.0562 401.22C78.8562 401.484 78.5602 401.692 78.1682 401.844C77.7842 401.988 77.3162 402.06 76.7642 402.06Z" fill="#285CED"/>
<path d="M99.778 373.144C98.758 373.144 97.876 372.994 97.132 372.694C96.388 372.394 95.812 371.968 95.404 371.416C94.996 370.852 94.792 370.192 94.792 369.436C94.792 368.692 94.984 368.062 95.368 367.546C95.764 367.018 96.334 366.622 97.078 366.358C97.822 366.082 98.722 365.944 99.778 365.944C100.834 365.944 101.734 366.082 102.478 366.358C103.234 366.622 103.81 367.018 104.206 367.546C104.602 368.074 104.8 368.704 104.8 369.436C104.8 370.192 104.596 370.852 104.188 371.416C103.78 371.968 103.198 372.394 102.442 372.694C101.686 372.994 100.798 373.144 99.778 373.144ZM99.778 371.686C100.786 371.686 101.572 371.482 102.136 371.074C102.712 370.654 103 370.09 103 369.382C103 368.686 102.712 368.14 102.136 367.744C101.572 367.336 100.786 367.132 99.778 367.132C98.782 367.132 98.002 367.336 97.438 367.744C96.874 368.14 96.592 368.686 96.592 369.382C96.592 370.09 96.874 370.654 97.438 371.074C98.002 371.482 98.782 371.686 99.778 371.686ZM99.778 366.916C98.818 366.916 98.002 366.79 97.33 366.538C96.658 366.274 96.142 365.902 95.782 365.422C95.422 364.93 95.242 364.348 95.242 363.676C95.242 362.968 95.428 362.362 95.8 361.858C96.184 361.342 96.718 360.946 97.402 360.67C98.086 360.394 98.878 360.256 99.778 360.256C100.69 360.256 101.488 360.394 102.172 360.67C102.856 360.946 103.39 361.342 103.774 361.858C104.158 362.362 104.35 362.968 104.35 363.676C104.35 364.348 104.17 364.93 103.81 365.422C103.45 365.902 102.928 366.274 102.244 366.538C101.56 366.79 100.738 366.916 99.778 366.916ZM99.778 365.764C100.654 365.764 101.338 365.584 101.83 365.224C102.334 364.864 102.586 364.372 102.586 363.748C102.586 363.112 102.328 362.614 101.812 362.254C101.296 361.894 100.618 361.714 99.778 361.714C98.938 361.714 98.266 361.894 97.762 362.254C97.27 362.614 97.024 363.112 97.024 363.748C97.024 364.372 97.264 364.864 97.744 365.224C98.236 365.584 98.914 365.764 99.778 365.764ZM109.94 373.144C109.052 373.144 108.188 373.006 107.348 372.73C106.52 372.454 105.842 372.082 105.314 371.614L106.142 370.192C106.562 370.588 107.108 370.912 107.78 371.164C108.452 371.416 109.172 371.542 109.94 371.542C110.876 371.542 111.602 371.344 112.118 370.948C112.646 370.54 112.91 369.994 112.91 369.31C112.91 368.65 112.658 368.122 112.154 367.726C111.662 367.318 110.876 367.114 109.796 367.114H108.788V365.854L112.532 361.246L112.784 361.966H105.89V360.4H114.206V361.624L110.48 366.214L109.544 365.656H110.138C111.662 365.656 112.802 365.998 113.558 366.682C114.326 367.366 114.71 368.236 114.71 369.292C114.71 370 114.536 370.648 114.188 371.236C113.84 371.824 113.312 372.292 112.604 372.64C111.908 372.976 111.02 373.144 109.94 373.144ZM115.849 369.904V368.644L122.293 360.4H124.237L117.847 368.644L116.929 368.356H126.991V369.904H115.849ZM122.851 373V369.904L122.905 368.356V365.62H124.597V373H122.851Z" fill="#285CED"/>
<g filter="url(#filter2_d_4064_37969)">
<rect opacity="0.05" x="38.5" y="343.5" width="45" height="43.8205" rx="6.5" fill="#EEF1F8" stroke="#354A5E"/>
<path d="M61.0003 371.549V359.271M61.0003 359.271L57.1299 363.042M61.0003 359.271L64.8707 363.042" stroke="#285CED" stroke-width="2"/>
</g>
<rect opacity="0.05" x="377.5" y="343.5" width="45" height="43.8205" rx="6.5" fill="#DBDBDB" stroke="#354A5E"/>
<path d="M388.092 394.6V403H387.24V396.28L383.94 401.932H383.52L380.22 396.316V403H379.368V394.6H380.1L383.748 400.828L387.36 394.6H388.092ZM392.617 396.64C393.441 396.64 394.073 396.848 394.513 397.264C394.953 397.672 395.173 398.28 395.173 399.088V403H394.357V402.016C394.165 402.344 393.881 402.6 393.505 402.784C393.137 402.968 392.697 403.06 392.185 403.06C391.481 403.06 390.921 402.892 390.505 402.556C390.089 402.22 389.881 401.776 389.881 401.224C389.881 400.688 390.073 400.256 390.457 399.928C390.849 399.6 391.469 399.436 392.317 399.436H394.321V399.052C394.321 398.508 394.169 398.096 393.865 397.816C393.561 397.528 393.117 397.384 392.533 397.384C392.133 397.384 391.749 397.452 391.381 397.588C391.013 397.716 390.697 397.896 390.433 398.128L390.049 397.492C390.369 397.22 390.753 397.012 391.201 396.868C391.649 396.716 392.121 396.64 392.617 396.64ZM392.317 402.388C392.797 402.388 393.209 402.28 393.553 402.064C393.897 401.84 394.153 401.52 394.321 401.104V400.072H392.341C391.261 400.072 390.721 400.448 390.721 401.2C390.721 401.568 390.861 401.86 391.141 402.076C391.421 402.284 391.813 402.388 392.317 402.388ZM400.463 396.64C401.255 396.64 401.883 396.872 402.347 397.336C402.819 397.792 403.055 398.46 403.055 399.34V403H402.203V399.424C402.203 398.768 402.039 398.268 401.711 397.924C401.383 397.58 400.915 397.408 400.307 397.408C399.627 397.408 399.087 397.612 398.687 398.02C398.295 398.42 398.099 398.976 398.099 399.688V403H397.247V396.688H398.063V397.852C398.295 397.468 398.615 397.172 399.023 396.964C399.439 396.748 399.919 396.64 400.463 396.64ZM408.452 402.616C408.292 402.76 408.092 402.872 407.852 402.952C407.62 403.024 407.376 403.06 407.12 403.06C406.528 403.06 406.072 402.9 405.752 402.58C405.432 402.26 405.272 401.808 405.272 401.224V397.408H404.144V396.688H405.272V395.308H406.124V396.688H408.044V397.408H406.124V401.176C406.124 401.552 406.216 401.84 406.4 402.04C406.592 402.232 406.864 402.328 407.216 402.328C407.392 402.328 407.56 402.3 407.72 402.244C407.888 402.188 408.032 402.108 408.152 402.004L408.452 402.616ZM415.037 400.108H409.757C409.805 400.764 410.057 401.296 410.513 401.704C410.969 402.104 411.545 402.304 412.241 402.304C412.633 402.304 412.993 402.236 413.321 402.1C413.649 401.956 413.933 401.748 414.173 401.476L414.653 402.028C414.373 402.364 414.021 402.62 413.597 402.796C413.181 402.972 412.721 403.06 412.217 403.06C411.569 403.06 410.993 402.924 410.489 402.652C409.993 402.372 409.605 401.988 409.325 401.5C409.045 401.012 408.905 400.46 408.905 399.844C408.905 399.228 409.037 398.676 409.301 398.188C409.573 397.7 409.941 397.32 410.405 397.048C410.877 396.776 411.405 396.64 411.989 396.64C412.573 396.64 413.097 396.776 413.561 397.048C414.025 397.32 414.389 397.7 414.653 398.188C414.917 398.668 415.049 399.22 415.049 399.844L415.037 400.108ZM411.989 397.372C411.381 397.372 410.869 397.568 410.453 397.96C410.045 398.344 409.813 398.848 409.757 399.472H414.233C414.177 398.848 413.941 398.344 413.525 397.96C413.117 397.568 412.605 397.372 411.989 397.372ZM419.759 396.64C420.551 396.64 421.179 396.872 421.643 397.336C422.115 397.792 422.351 398.46 422.351 399.34V403H421.499V399.424C421.499 398.768 421.335 398.268 421.007 397.924C420.679 397.58 420.211 397.408 419.603 397.408C418.923 397.408 418.383 397.612 417.983 398.02C417.591 398.42 417.395 398.976 417.395 399.688V403H416.543V396.688H417.359V397.852C417.591 397.468 417.911 397.172 418.319 396.964C418.735 396.748 419.215 396.64 419.759 396.64ZM424.424 396.688H425.276V403H424.424V396.688ZM424.856 395.308C424.68 395.308 424.532 395.248 424.412 395.128C424.292 395.008 424.232 394.864 424.232 394.696C424.232 394.536 424.292 394.396 424.412 394.276C424.532 394.156 424.68 394.096 424.856 394.096C425.032 394.096 425.18 394.156 425.3 394.276C425.42 394.388 425.48 394.524 425.48 394.684C425.48 394.86 425.42 395.008 425.3 395.128C425.18 395.248 425.032 395.308 424.856 395.308ZM435.278 396.64C436.07 396.64 436.69 396.868 437.138 397.324C437.594 397.78 437.822 398.452 437.822 399.34V403H436.97V399.424C436.97 398.768 436.81 398.268 436.49 397.924C436.178 397.58 435.734 397.408 435.158 397.408C434.502 397.408 433.986 397.612 433.61 398.02C433.234 398.42 433.046 398.976 433.046 399.688V403H432.194V399.424C432.194 398.768 432.034 398.268 431.714 397.924C431.402 397.58 430.954 397.408 430.37 397.408C429.722 397.408 429.206 397.612 428.822 398.02C428.446 398.42 428.258 398.976 428.258 399.688V403H427.406V396.688H428.222V397.84C428.446 397.456 428.758 397.16 429.158 396.952C429.558 396.744 430.018 396.64 430.538 396.64C431.066 396.64 431.522 396.752 431.906 396.976C432.298 397.2 432.59 397.532 432.782 397.972C433.014 397.556 433.346 397.232 433.778 397C434.218 396.76 434.718 396.64 435.278 396.64ZM439.893 396.688H440.745V403H439.893V396.688ZM440.325 395.308C440.149 395.308 440.001 395.248 439.881 395.128C439.761 395.008 439.701 394.864 439.701 394.696C439.701 394.536 439.761 394.396 439.881 394.276C440.001 394.156 440.149 394.096 440.325 394.096C440.501 394.096 440.649 394.156 440.769 394.276C440.889 394.388 440.949 394.524 440.949 394.684C440.949 394.86 440.889 395.008 440.769 395.128C440.649 395.248 440.501 395.308 440.325 395.308ZM448.372 400.108H443.092C443.14 400.764 443.392 401.296 443.848 401.704C444.304 402.104 444.88 402.304 445.576 402.304C445.968 402.304 446.328 402.236 446.656 402.1C446.984 401.956 447.268 401.748 447.508 401.476L447.988 402.028C447.708 402.364 447.356 402.62 446.932 402.796C446.516 402.972 446.056 403.06 445.552 403.06C444.904 403.06 444.328 402.924 443.824 402.652C443.328 402.372 442.94 401.988 442.66 401.5C442.38 401.012 442.24 400.46 442.24 399.844C442.24 399.228 442.372 398.676 442.636 398.188C442.908 397.7 443.276 397.32 443.74 397.048C444.212 396.776 444.74 396.64 445.324 396.64C445.908 396.64 446.432 396.776 446.896 397.048C447.36 397.32 447.724 397.7 447.988 398.188C448.252 398.668 448.384 399.22 448.384 399.844L448.372 400.108ZM445.324 397.372C444.716 397.372 444.204 397.568 443.788 397.96C443.38 398.344 443.148 398.848 443.092 399.472H447.568C447.512 398.848 447.276 398.344 446.86 397.96C446.452 397.568 445.94 397.372 445.324 397.372ZM453.094 396.64C453.886 396.64 454.514 396.872 454.978 397.336C455.45 397.792 455.686 398.46 455.686 399.34V403H454.834V399.424C454.834 398.768 454.67 398.268 454.342 397.924C454.014 397.58 453.546 397.408 452.938 397.408C452.258 397.408 451.718 397.612 451.318 398.02C450.926 398.42 450.73 398.976 450.73 399.688V403H449.878V396.688H450.694V397.852C450.926 397.468 451.246 397.172 451.654 396.964C452.07 396.748 452.55 396.64 453.094 396.64ZM461.083 402.616C460.923 402.76 460.723 402.872 460.483 402.952C460.251 403.024 460.007 403.06 459.751 403.06C459.159 403.06 458.703 402.9 458.383 402.58C458.063 402.26 457.903 401.808 457.903 401.224V397.408H456.775V396.688H457.903V395.308H458.755V396.688H460.675V397.408H458.755V401.176C458.755 401.552 458.847 401.84 459.031 402.04C459.223 402.232 459.495 402.328 459.847 402.328C460.023 402.328 460.191 402.3 460.351 402.244C460.519 402.188 460.663 402.108 460.783 402.004L461.083 402.616ZM464.751 403.06C464.143 403.06 463.595 402.924 463.107 402.652C462.619 402.372 462.235 401.988 461.955 401.5C461.675 401.012 461.535 400.46 461.535 399.844C461.535 399.228 461.675 398.676 461.955 398.188C462.235 397.7 462.619 397.32 463.107 397.048C463.595 396.776 464.143 396.64 464.751 396.64C465.359 396.64 465.907 396.776 466.395 397.048C466.883 397.32 467.263 397.7 467.535 398.188C467.815 398.676 467.955 399.228 467.955 399.844C467.955 400.46 467.815 401.012 467.535 401.5C467.263 401.988 466.883 402.372 466.395 402.652C465.907 402.924 465.359 403.06 464.751 403.06ZM464.751 402.304C465.199 402.304 465.599 402.204 465.951 402.004C466.311 401.796 466.591 401.504 466.791 401.128C466.991 400.752 467.091 400.324 467.091 399.844C467.091 399.364 466.991 398.936 466.791 398.56C466.591 398.184 466.311 397.896 465.951 397.696C465.599 397.488 465.199 397.384 464.751 397.384C464.303 397.384 463.899 397.488 463.539 397.696C463.187 397.896 462.907 398.184 462.699 398.56C462.499 398.936 462.399 399.364 462.399 399.844C462.399 400.324 462.499 400.752 462.699 401.128C462.907 401.504 463.187 401.796 463.539 402.004C463.899 402.204 464.303 402.304 464.751 402.304Z" fill="#838383"/>
<path d="M436.688 366.692C437.924 366.812 438.866 367.196 439.514 367.844C440.162 368.48 440.486 369.296 440.486 370.292C440.486 371.012 440.306 371.666 439.946 372.254C439.586 372.83 439.046 373.292 438.326 373.64C437.618 373.976 436.748 374.144 435.716 374.144C434.816 374.144 433.952 374.012 433.124 373.748C432.296 373.472 431.618 373.094 431.09 372.614L431.918 371.192C432.35 371.6 432.902 371.93 433.574 372.182C434.246 372.422 434.96 372.542 435.716 372.542C436.652 372.542 437.378 372.344 437.894 371.948C438.422 371.552 438.686 371.006 438.686 370.31C438.686 369.614 438.428 369.074 437.912 368.69C437.396 368.306 436.616 368.114 435.572 368.114H434.564V366.854L437.732 362.966H431.666V361.4H439.982V362.624L436.688 366.692ZM450.573 372.434V374H441.519V372.776L446.649 367.826C447.273 367.226 447.693 366.71 447.909 366.278C448.125 365.834 448.233 365.39 448.233 364.946C448.233 364.286 447.999 363.776 447.531 363.416C447.075 363.044 446.415 362.858 445.551 362.858C444.159 362.858 443.085 363.314 442.329 364.226L441.105 363.164C441.597 362.564 442.239 362.096 443.031 361.76C443.835 361.424 444.729 361.256 445.713 361.256C447.033 361.256 448.083 361.574 448.863 362.21C449.643 362.834 450.033 363.686 450.033 364.766C450.033 365.438 449.889 366.074 449.601 366.674C449.313 367.274 448.767 367.958 447.963 368.726L444.111 372.434H450.573ZM455.599 361.4V374H453.817V362.966H450.973V361.4H455.599Z" fill="#838383"/>
<path d="M411 365V362.608C411 361.382 410.438 360.224 409.475 359.466L402.475 353.95C401.023 352.806 398.977 352.806 397.525 353.95L390.525 359.466C389.562 360.224 389 361.382 389 362.608L389 371.111C389 373.32 390.791 375.111 393 375.111H396.526H404" stroke="#354A5E" stroke-width="1.5"/>
<path d="M408 366.5V363.63C408 362.525 407.105 361.63 406 361.63H394C392.895 361.63 392 362.525 392 363.63V369.259C392 370.364 392.895 371.259 394 371.259H408" stroke="#354A5E" stroke-width="1.5"/>
<ellipse rx="1" ry="0.962963" transform="matrix(1 0 0 -1 404 366.444)" stroke="#354A5E" stroke-width="1.5"/>
<path d="M395 366.444H399.5" stroke="#354A5E" stroke-width="2" stroke-linecap="round"/>
<path d="M415.782 368.232C415.851 368.334 415.899 368.448 415.921 368.569C416.075 369.368 416.004 370.193 415.717 370.954C415.43 371.715 414.937 372.381 414.293 372.879C413.65 373.376 412.881 373.685 412.073 373.772C411.264 373.859 410.448 373.719 409.713 373.37L405.532 377.478C405.191 377.812 404.732 378 404.255 378H403.854C403.627 378 403.41 377.91 403.25 377.75C403.09 377.59 403 377.373 403 377.146V376.75C403 376.27 403.191 375.809 403.53 375.47L407.648 371.35C407.28 370.616 407.125 369.794 407.202 368.976C407.278 368.159 407.583 367.379 408.081 366.726C408.578 366.073 409.25 365.573 410.018 365.283C410.786 364.993 411.62 364.924 412.425 365.085C412.548 365.122 412.661 365.185 412.757 365.271C412.853 365.357 412.929 365.463 412.979 365.581L410.671 367.889C410.46 368.104 410.341 368.394 410.341 368.696C410.341 368.998 410.46 369.284 410.671 369.5L411.548 370.289C411.656 370.4 411.785 370.489 411.927 370.55C412.07 370.611 412.224 370.642 412.379 370.642C412.534 370.642 412.687 370.611 412.83 370.55C412.973 370.489 413.102 370.4 413.21 370.289L415.517 367.981C415.622 368.045 415.712 368.131 415.782 368.232Z" stroke="#354A5E" stroke-width="1.5" stroke-linecap="round" stroke-linejoin="round"/>
<path d="M29.816 28L24.92 16.8H27.176L31.544 26.928H30.248L34.664 16.8H36.744L31.864 28H29.816ZM41.1093 28.112C40.1599 28.112 39.3279 27.9253 38.6133 27.552C37.9093 27.168 37.3599 26.6453 36.9653 25.984C36.5813 25.3227 36.3893 24.5707 36.3893 23.728C36.3893 22.8747 36.5759 22.1227 36.9493 21.472C37.3333 20.8107 37.8559 20.2933 38.5173 19.92C39.1893 19.5467 39.9519 19.36 40.8053 19.36C41.6373 19.36 42.3786 19.5413 43.0293 19.904C43.6799 20.2667 44.1919 20.7787 44.5653 21.44C44.9386 22.1013 45.1253 22.88 45.1253 23.776C45.1253 23.8613 45.1199 23.9573 45.1093 24.064C45.1093 24.1707 45.1039 24.272 45.0933 24.368H37.9733V23.04H44.0373L43.2533 23.456C43.2639 22.9653 43.1626 22.5333 42.9493 22.16C42.7359 21.7867 42.4426 21.4933 42.0693 21.28C41.7066 21.0667 41.2853 20.96 40.8053 20.96C40.3146 20.96 39.8826 21.0667 39.5093 21.28C39.1466 21.4933 38.8586 21.792 38.6453 22.176C38.4426 22.5493 38.3413 22.992 38.3413 23.504V23.824C38.3413 24.336 38.4586 24.7893 38.6933 25.184C38.9279 25.5787 39.2586 25.8827 39.6853 26.096C40.1119 26.3093 40.6026 26.416 41.1573 26.416C41.6373 26.416 42.0693 26.3413 42.4533 26.192C42.8373 26.0427 43.1786 25.808 43.4773 25.488L44.5493 26.72C44.1653 27.168 43.6799 27.5147 43.0933 27.76C42.5173 27.9947 41.8559 28.112 41.1093 28.112ZM47.0464 28V16.128H49.0464V28H47.0464ZM55.5114 28.112C54.6367 28.112 53.858 27.9253 53.1754 27.552C52.4927 27.168 51.954 26.6453 51.5594 25.984C51.1647 25.3227 50.9674 24.5707 50.9674 23.728C50.9674 22.8747 51.1647 22.1227 51.5594 21.472C51.954 20.8107 52.4927 20.2933 53.1754 19.92C53.858 19.5467 54.6367 19.36 55.5114 19.36C56.3967 19.36 57.1807 19.5467 57.8634 19.92C58.5567 20.2933 59.0954 20.8053 59.4794 21.456C59.874 22.1067 60.0714 22.864 60.0714 23.728C60.0714 24.5707 59.874 25.3227 59.4794 25.984C59.0954 26.6453 58.5567 27.168 57.8634 27.552C57.1807 27.9253 56.3967 28.112 55.5114 28.112ZM55.5114 26.4C56.002 26.4 56.4394 26.2933 56.8234 26.08C57.2074 25.8667 57.506 25.5573 57.7194 25.152C57.9434 24.7467 58.0554 24.272 58.0554 23.728C58.0554 23.1733 57.9434 22.6987 57.7194 22.304C57.506 21.8987 57.2074 21.5893 56.8234 21.376C56.4394 21.1627 56.0074 21.056 55.5274 21.056C55.0367 21.056 54.5994 21.1627 54.2154 21.376C53.842 21.5893 53.5434 21.8987 53.3194 22.304C53.0954 22.6987 52.9834 23.1733 52.9834 23.728C52.9834 24.272 53.0954 24.7467 53.3194 25.152C53.5434 25.5573 53.842 25.8667 54.2154 26.08C54.5994 26.2933 55.0314 26.4 55.5114 26.4ZM65.9039 28.112C65.0079 28.112 64.2079 27.9253 63.5039 27.552C62.8105 27.168 62.2665 26.6453 61.8719 25.984C61.4772 25.3227 61.2799 24.5707 61.2799 23.728C61.2799 22.8747 61.4772 22.1227 61.8719 21.472C62.2665 20.8107 62.8105 20.2933 63.5039 19.92C64.2079 19.5467 65.0079 19.36 65.9039 19.36C66.7359 19.36 67.4665 19.5307 68.0959 19.872C68.7359 20.2027 69.2212 20.6933 69.5519 21.344L68.0159 22.24C67.7599 21.8347 67.4452 21.536 67.0719 21.344C66.7092 21.152 66.3145 21.056 65.8879 21.056C65.3972 21.056 64.9545 21.1627 64.5599 21.376C64.1652 21.5893 63.8559 21.8987 63.6319 22.304C63.4079 22.6987 63.2959 23.1733 63.2959 23.728C63.2959 24.2827 63.4079 24.7627 63.6319 25.168C63.8559 25.5627 64.1652 25.8667 64.5599 26.08C64.9545 26.2933 65.3972 26.4 65.8879 26.4C66.3145 26.4 66.7092 26.304 67.0719 26.112C67.4452 25.92 67.7599 25.6213 68.0159 25.216L69.5519 26.112C69.2212 26.752 68.7359 27.248 68.0959 27.6C67.4665 27.9413 66.7359 28.112 65.9039 28.112ZM71.2808 28V19.456H73.2808V28H71.2808ZM70.9448 18.288L73.1048 16.096H75.4568L72.6728 18.288H70.9448ZM86.6898 19.36C87.3724 19.36 87.9751 19.4933 88.4978 19.76C89.0311 20.0267 89.4471 20.4373 89.7458 20.992C90.0444 21.536 90.1938 22.24 90.1938 23.104V28H88.1938V23.36C88.1938 22.6027 88.0284 22.0373 87.6978 21.664C87.3671 21.2907 86.8924 21.104 86.2738 21.104C85.8364 21.104 85.4471 21.2 85.1058 21.392C84.7751 21.584 84.5138 21.8667 84.3218 22.24C84.1404 22.6133 84.0498 23.088 84.0498 23.664V28H82.0498V23.36C82.0498 22.6027 81.8844 22.0373 81.5538 21.664C81.2231 21.2907 80.7484 21.104 80.1298 21.104C79.6924 21.104 79.3031 21.2 78.9618 21.392C78.6311 21.584 78.3698 21.8667 78.1778 22.24C77.9964 22.6133 77.9058 23.088 77.9058 23.664V28H75.9058V19.456H77.8098V21.728L77.4738 21.056C77.7618 20.5013 78.1778 20.08 78.7218 19.792C79.2764 19.504 79.9058 19.36 80.6098 19.36C81.4098 19.36 82.1031 19.5573 82.6898 19.952C83.2871 20.3467 83.6818 20.944 83.8738 21.744L83.0898 21.472C83.3671 20.832 83.8258 20.32 84.4658 19.936C85.1058 19.552 85.8471 19.36 86.6898 19.36ZM96.7811 28.112C95.8318 28.112 94.9998 27.9253 94.2851 27.552C93.5811 27.168 93.0318 26.6453 92.6371 25.984C92.2531 25.3227 92.0611 24.5707 92.0611 23.728C92.0611 22.8747 92.2478 22.1227 92.6211 21.472C93.0051 20.8107 93.5278 20.2933 94.1891 19.92C94.8611 19.5467 95.6238 19.36 96.4771 19.36C97.3091 19.36 98.0505 19.5413 98.7011 19.904C99.3518 20.2667 99.8638 20.7787 100.237 21.44C100.61 22.1013 100.797 22.88 100.797 23.776C100.797 23.8613 100.792 23.9573 100.781 24.064C100.781 24.1707 100.776 24.272 100.765 24.368H93.6451V23.04H99.7091L98.9251 23.456C98.9358 22.9653 98.8345 22.5333 98.6211 22.16C98.4078 21.7867 98.1145 21.4933 97.7411 21.28C97.3785 21.0667 96.9571 20.96 96.4771 20.96C95.9865 20.96 95.5545 21.0667 95.1811 21.28C94.8185 21.4933 94.5305 21.792 94.3171 22.176C94.1145 22.5493 94.0131 22.992 94.0131 23.504V23.824C94.0131 24.336 94.1305 24.7893 94.3651 25.184C94.5998 25.5787 94.9305 25.8827 95.3571 26.096C95.7838 26.3093 96.2745 26.416 96.8291 26.416C97.3091 26.416 97.7411 26.3413 98.1251 26.192C98.5091 26.0427 98.8505 25.808 99.1491 25.488L100.221 26.72C99.8371 27.168 99.3518 27.5147 98.7651 27.76C98.1891 27.9947 97.5278 28.112 96.7811 28.112ZM105.934 28.112C104.996 28.112 104.27 27.872 103.758 27.392C103.246 26.9013 102.99 26.1813 102.99 25.232V17.568H104.99V25.184C104.99 25.5893 105.092 25.904 105.294 26.128C105.508 26.352 105.801 26.464 106.174 26.464C106.622 26.464 106.996 26.3467 107.294 26.112L107.854 27.536C107.62 27.728 107.332 27.872 106.99 27.968C106.649 28.064 106.297 28.112 105.934 28.112ZM101.582 21.12V19.52H107.278V21.12H101.582ZM109.5 28V19.456H111.404V21.808L111.18 21.12C111.436 20.544 111.836 20.1067 112.38 19.808C112.934 19.5093 113.622 19.36 114.444 19.36V21.264C114.358 21.2427 114.278 21.232 114.204 21.232C114.129 21.2213 114.054 21.216 113.98 21.216C113.222 21.216 112.62 21.44 112.172 21.888C111.724 22.3253 111.5 22.9813 111.5 23.856V28H109.5ZM119.902 28.112C119.027 28.112 118.249 27.9253 117.566 27.552C116.883 27.168 116.345 26.6453 115.95 25.984C115.555 25.3227 115.358 24.5707 115.358 23.728C115.358 22.8747 115.555 22.1227 115.95 21.472C116.345 20.8107 116.883 20.2933 117.566 19.92C118.249 19.5467 119.027 19.36 119.902 19.36C120.787 19.36 121.571 19.5467 122.254 19.92C122.947 20.2933 123.486 20.8053 123.87 21.456C124.265 22.1067 124.462 22.864 124.462 23.728C124.462 24.5707 124.265 25.3227 123.87 25.984C123.486 26.6453 122.947 27.168 122.254 27.552C121.571 27.9253 120.787 28.112 119.902 28.112ZM119.902 26.4C120.393 26.4 120.83 26.2933 121.214 26.08C121.598 25.8667 121.897 25.5573 122.11 25.152C122.334 24.7467 122.446 24.272 122.446 23.728C122.446 23.1733 122.334 22.6987 122.11 22.304C121.897 21.8987 121.598 21.5893 121.214 21.376C120.83 21.1627 120.398 21.056 119.918 21.056C119.427 21.056 118.99 21.1627 118.606 21.376C118.233 21.5893 117.934 21.8987 117.71 22.304C117.486 22.6987 117.374 23.1733 117.374 23.728C117.374 24.272 117.486 24.7467 117.71 25.152C117.934 25.5573 118.233 25.8667 118.606 26.08C118.99 26.2933 119.422 26.4 119.902 26.4Z" fill="#D0D0CE"/>
<path d="M368.75 111.444V99.6261C368.75 98.39 368.178 97.2233 367.202 96.4656L357.452 88.902C356.009 87.7827 353.991 87.7827 352.548 88.902L342.798 96.4656C341.822 97.2233 341.25 98.39 341.25 99.6261V111.444C341.25 113.654 343.041 115.444 345.25 115.444H350.658H359.342H364.75C366.959 115.444 368.75 113.654 368.75 111.444Z" stroke="#3B4559" stroke-width="1.5"/>
<rect width="20" height="11.8519" rx="2" transform="matrix(1 0 0 -1 345 110.704)" stroke="#3B4559" stroke-width="1.5"/>
<ellipse rx="1.25" ry="1.18519" transform="matrix(1 0 0 -1 360 104.778)" stroke="#3B4559" stroke-width="1.5"/>
<path d="M348.75 104.778H354.375" stroke="#3B4559" stroke-width="2" stroke-linecap="round"/>
<path d="M387.704 115V94.52L389.944 96.76H383.224V92.6H392.888V115H387.704ZM396.523 110.296V106.808L407.083 92.6H412.523L402.187 106.808L399.659 106.072H417.291V110.296H396.523ZM408.587 115V110.296L408.747 106.072V101.88H413.643V115H408.587ZM421.485 115V94.52L423.725 96.76H417.005V92.6H426.669V115H421.485ZM434.016 115V94.52L436.257 96.76H429.537V92.6H439.201V115H434.016Z" fill="#3B4559"/>
<path d="M343 75V67.368H340.048V66.6H346.84V67.368H343.888V75H343ZM349.99 75.06C349.382 75.06 348.834 74.924 348.346 74.652C347.866 74.372 347.486 73.992 347.206 73.512C346.926 73.024 346.786 72.468 346.786 71.844C346.786 71.212 346.926 70.656 347.206 70.176C347.486 69.696 347.866 69.32 348.346 69.048C348.826 68.776 349.374 68.64 349.99 68.64C350.614 68.64 351.166 68.776 351.646 69.048C352.134 69.32 352.514 69.696 352.786 70.176C353.066 70.656 353.206 71.212 353.206 71.844C353.206 72.468 353.066 73.024 352.786 73.512C352.514 73.992 352.134 74.372 351.646 74.652C351.158 74.924 350.606 75.06 349.99 75.06ZM349.99 74.304C350.446 74.304 350.85 74.204 351.202 74.004C351.554 73.796 351.83 73.508 352.03 73.14C352.238 72.764 352.342 72.332 352.342 71.844C352.342 71.348 352.238 70.916 352.03 70.548C351.83 70.18 351.554 69.896 351.202 69.696C350.85 69.488 350.45 69.384 350.002 69.384C349.554 69.384 349.154 69.488 348.802 69.696C348.45 69.896 348.17 70.18 347.962 70.548C347.754 70.916 347.65 71.348 347.65 71.844C347.65 72.332 347.754 72.764 347.962 73.14C348.17 73.508 348.45 73.796 348.802 74.004C349.154 74.204 349.55 74.304 349.99 74.304ZM356.938 75.06C356.346 75.06 355.89 74.9 355.57 74.58C355.25 74.26 355.09 73.808 355.09 73.224V67.308H355.942V73.176C355.942 73.544 356.034 73.828 356.218 74.028C356.41 74.228 356.682 74.328 357.034 74.328C357.41 74.328 357.722 74.22 357.97 74.004L358.27 74.616C358.102 74.768 357.898 74.88 357.658 74.952C357.426 75.024 357.186 75.06 356.938 75.06ZM353.962 69.408V68.7H357.862V69.408H353.962ZM363.769 75V73.608L363.733 73.38V71.052C363.733 70.516 363.581 70.104 363.277 69.816C362.981 69.528 362.537 69.384 361.945 69.384C361.537 69.384 361.149 69.452 360.781 69.588C360.413 69.724 360.101 69.904 359.845 70.128L359.461 69.492C359.781 69.22 360.165 69.012 360.613 68.868C361.061 68.716 361.533 68.64 362.029 68.64C362.845 68.64 363.473 68.844 363.913 69.252C364.361 69.652 364.585 70.264 364.585 71.088V75H363.769ZM361.597 75.06C361.125 75.06 360.713 74.984 360.361 74.832C360.017 74.672 359.753 74.456 359.569 74.184C359.385 73.904 359.293 73.584 359.293 73.224C359.293 72.896 359.369 72.6 359.521 72.336C359.681 72.064 359.937 71.848 360.289 71.688C360.649 71.52 361.129 71.436 361.729 71.436H363.901V72.072H361.753C361.145 72.072 360.721 72.18 360.481 72.396C360.249 72.612 360.133 72.88 360.133 73.2C360.133 73.56 360.273 73.848 360.553 74.064C360.833 74.28 361.225 74.388 361.729 74.388C362.209 74.388 362.621 74.28 362.965 74.064C363.317 73.84 363.573 73.52 363.733 73.104L363.925 73.692C363.765 74.108 363.485 74.44 363.085 74.688C362.693 74.936 362.197 75.06 361.597 75.06ZM366.899 75V66.096H367.751V75H366.899ZM375.77 75.06C375.17 75.06 374.63 74.924 374.15 74.652C373.678 74.38 373.306 74.004 373.034 73.524C372.762 73.036 372.626 72.476 372.626 71.844C372.626 71.204 372.762 70.644 373.034 70.164C373.306 69.684 373.678 69.312 374.15 69.048C374.63 68.776 375.17 68.64 375.77 68.64C376.322 68.64 376.814 68.764 377.246 69.012C377.686 69.26 378.034 69.624 378.29 70.104C378.554 70.576 378.686 71.156 378.686 71.844C378.686 72.524 378.558 73.104 378.302 73.584C378.046 74.064 377.698 74.432 377.258 74.688C376.826 74.936 376.33 75.06 375.77 75.06ZM375.83 74.304C376.278 74.304 376.678 74.204 377.03 74.004C377.39 73.796 377.67 73.508 377.87 73.14C378.078 72.764 378.182 72.332 378.182 71.844C378.182 71.348 378.078 70.916 377.87 70.548C377.67 70.18 377.39 69.896 377.03 69.696C376.678 69.488 376.278 69.384 375.83 69.384C375.39 69.384 374.994 69.488 374.642 69.696C374.29 69.896 374.01 70.18 373.802 70.548C373.594 70.916 373.49 71.348 373.49 71.844C373.49 72.332 373.594 72.764 373.802 73.14C374.01 73.508 374.29 73.796 374.642 74.004C374.994 74.204 375.39 74.304 375.83 74.304ZM378.206 75V73.104L378.29 71.832L378.17 70.56V66.096H379.022V75H378.206ZM384.071 75.06C383.415 75.06 382.839 74.924 382.343 74.652C381.847 74.372 381.459 73.992 381.179 73.512C380.899 73.024 380.759 72.468 380.759 71.844C380.759 71.22 380.891 70.668 381.155 70.188C381.427 69.708 381.795 69.332 382.259 69.06C382.731 68.78 383.259 68.64 383.843 68.64C384.435 68.64 384.959 68.776 385.415 69.048C385.879 69.312 386.243 69.688 386.507 70.176C386.771 70.656 386.903 71.212 386.903 71.844C386.903 71.884 386.899 71.928 386.891 71.976C386.891 72.016 386.891 72.06 386.891 72.108H381.407V71.472H386.435L386.099 71.724C386.099 71.268 385.999 70.864 385.799 70.512C385.607 70.152 385.343 69.872 385.007 69.672C384.671 69.472 384.283 69.372 383.843 69.372C383.411 69.372 383.023 69.472 382.679 69.672C382.335 69.872 382.067 70.152 381.875 70.512C381.683 70.872 381.587 71.284 381.587 71.748V71.88C381.587 72.36 381.691 72.784 381.899 73.152C382.115 73.512 382.411 73.796 382.787 74.004C383.171 74.204 383.607 74.304 384.095 74.304C384.479 74.304 384.835 74.236 385.163 74.1C385.499 73.964 385.787 73.756 386.027 73.476L386.507 74.028C386.227 74.364 385.875 74.62 385.451 74.796C385.035 74.972 384.575 75.06 384.071 75.06ZM394.274 75.072C393.65 75.072 393.05 74.972 392.474 74.772C391.906 74.564 391.466 74.3 391.154 73.98L391.502 73.296C391.798 73.584 392.194 73.828 392.69 74.028C393.194 74.22 393.722 74.316 394.274 74.316C394.802 74.316 395.23 74.252 395.558 74.124C395.894 73.988 396.138 73.808 396.29 73.584C396.45 73.36 396.53 73.112 396.53 72.84C396.53 72.512 396.434 72.248 396.242 72.048C396.058 71.848 395.814 71.692 395.51 71.58C395.206 71.46 394.87 71.356 394.502 71.268C394.134 71.18 393.766 71.088 393.398 70.992C393.03 70.888 392.69 70.752 392.378 70.584C392.074 70.416 391.826 70.196 391.634 69.924C391.45 69.644 391.358 69.28 391.358 68.832C391.358 68.416 391.466 68.036 391.682 67.692C391.906 67.34 392.246 67.06 392.702 66.852C393.158 66.636 393.742 66.528 394.454 66.528C394.926 66.528 395.394 66.596 395.858 66.732C396.322 66.86 396.722 67.04 397.058 67.272L396.758 67.98C396.398 67.74 396.014 67.564 395.606 67.452C395.206 67.34 394.818 67.284 394.442 67.284C393.938 67.284 393.522 67.352 393.194 67.488C392.866 67.624 392.622 67.808 392.462 68.04C392.31 68.264 392.234 68.52 392.234 68.808C392.234 69.136 392.326 69.4 392.51 69.6C392.702 69.8 392.95 69.956 393.254 70.068C393.566 70.18 393.906 70.28 394.274 70.368C394.642 70.456 395.006 70.552 395.366 70.656C395.734 70.76 396.07 70.896 396.374 71.064C396.686 71.224 396.934 71.44 397.118 71.712C397.31 71.984 397.406 72.34 397.406 72.78C397.406 73.188 397.294 73.568 397.07 73.92C396.846 74.264 396.502 74.544 396.038 74.76C395.582 74.968 394.994 75.072 394.274 75.072ZM399.161 75V68.7H400.013V75H399.161ZM399.593 67.308C399.417 67.308 399.269 67.248 399.149 67.128C399.029 67.008 398.969 66.864 398.969 66.696C398.969 66.528 399.029 66.388 399.149 66.276C399.269 66.156 399.417 66.096 399.593 66.096C399.769 66.096 399.917 66.152 400.037 66.264C400.157 66.376 400.217 66.516 400.217 66.684C400.217 66.86 400.157 67.008 400.037 67.128C399.925 67.248 399.777 67.308 399.593 67.308ZM404.375 75.06C403.783 75.06 403.327 74.9 403.007 74.58C402.687 74.26 402.527 73.808 402.527 73.224V67.308H403.379V73.176C403.379 73.544 403.471 73.828 403.655 74.028C403.847 74.228 404.119 74.328 404.471 74.328C404.847 74.328 405.159 74.22 405.407 74.004L405.707 74.616C405.539 74.768 405.335 74.88 405.095 74.952C404.863 75.024 404.623 75.06 404.375 75.06ZM401.399 69.408V68.7H405.299V69.408H401.399ZM407.258 75V68.7H408.11V75H407.258ZM407.69 67.308C407.514 67.308 407.366 67.248 407.246 67.128C407.126 67.008 407.066 66.864 407.066 66.696C407.066 66.528 407.126 66.388 407.246 66.276C407.366 66.156 407.514 66.096 407.69 66.096C407.866 66.096 408.014 66.152 408.134 66.264C408.254 66.376 408.314 66.516 408.314 66.684C408.314 66.86 408.254 67.008 408.134 67.128C408.022 67.248 407.874 67.308 407.69 67.308ZM413.049 75.06C412.441 75.06 411.893 74.924 411.405 74.652C410.925 74.372 410.545 73.992 410.265 73.512C409.985 73.024 409.845 72.468 409.845 71.844C409.845 71.212 409.985 70.656 410.265 70.176C410.545 69.696 410.925 69.32 411.405 69.048C411.885 68.776 412.433 68.64 413.049 68.64C413.673 68.64 414.225 68.776 414.705 69.048C415.193 69.32 415.573 69.696 415.845 70.176C416.125 70.656 416.265 71.212 416.265 71.844C416.265 72.468 416.125 73.024 415.845 73.512C415.573 73.992 415.193 74.372 414.705 74.652C414.217 74.924 413.665 75.06 413.049 75.06ZM413.049 74.304C413.505 74.304 413.909 74.204 414.261 74.004C414.613 73.796 414.889 73.508 415.089 73.14C415.297 72.764 415.401 72.332 415.401 71.844C415.401 71.348 415.297 70.916 415.089 70.548C414.889 70.18 414.613 69.896 414.261 69.696C413.909 69.488 413.509 69.384 413.061 69.384C412.613 69.384 412.213 69.488 411.861 69.696C411.509 69.896 411.229 70.18 411.021 70.548C410.813 70.916 410.709 71.348 410.709 71.844C410.709 72.332 410.813 72.764 411.021 73.14C411.229 73.508 411.509 73.796 411.861 74.004C412.213 74.204 412.609 74.304 413.049 74.304ZM419.696 75.06C419.176 75.06 418.684 74.988 418.22 74.844C417.756 74.692 417.392 74.504 417.128 74.28L417.512 73.608C417.768 73.8 418.096 73.968 418.496 74.112C418.896 74.248 419.316 74.316 419.756 74.316C420.356 74.316 420.788 74.224 421.052 74.04C421.316 73.848 421.448 73.596 421.448 73.284C421.448 73.052 421.372 72.872 421.22 72.744C421.076 72.608 420.884 72.508 420.644 72.444C420.404 72.372 420.136 72.312 419.84 72.264C419.544 72.216 419.248 72.16 418.952 72.096C418.664 72.032 418.4 71.94 418.16 71.82C417.92 71.692 417.724 71.52 417.572 71.304C417.428 71.088 417.356 70.8 417.356 70.44C417.356 70.096 417.452 69.788 417.644 69.516C417.836 69.244 418.116 69.032 418.484 68.88C418.86 68.72 419.316 68.64 419.852 68.64C420.26 68.64 420.668 68.696 421.076 68.808C421.484 68.912 421.82 69.052 422.084 69.228L421.712 69.912C421.432 69.72 421.132 69.584 420.812 69.504C420.492 69.416 420.172 69.372 419.852 69.372C419.284 69.372 418.864 69.472 418.592 69.672C418.328 69.864 418.196 70.112 418.196 70.416C418.196 70.656 418.268 70.844 418.412 70.98C418.564 71.116 418.76 71.224 419 71.304C419.248 71.376 419.516 71.436 419.804 71.484C420.1 71.532 420.392 71.592 420.68 71.664C420.976 71.728 421.244 71.82 421.484 71.94C421.732 72.052 421.928 72.216 422.072 72.432C422.224 72.64 422.3 72.916 422.3 73.26C422.3 73.628 422.196 73.948 421.988 74.22C421.788 74.484 421.492 74.692 421.1 74.844C420.716 74.988 420.248 75.06 419.696 75.06Z" fill="#D0D0CE"/>
<g filter="url(#filter3_d_4064_37969)">
<g opacity="0.05" filter="url(#filter4_d_4064_37969)">
<rect x="25" y="63" width="143" height="35" rx="10.4351" fill="#F8FDFF"/>
<rect x="25" y="63" width="143" height="35" rx="10.4351" stroke="#285CED"/>
</g>
<path d="M40.944 86.128C40.0907 86.128 39.2747 86 38.496 85.744C37.7173 85.4773 37.104 85.136 36.656 84.72L37.248 83.472C37.6747 83.8453 38.2187 84.1547 38.88 84.4C39.5413 84.6453 40.2293 84.768 40.944 84.768C41.5947 84.768 42.1227 84.6933 42.528 84.544C42.9333 84.3947 43.232 84.192 43.424 83.936C43.616 83.6693 43.712 83.3707 43.712 83.04C43.712 82.656 43.584 82.3467 43.328 82.112C43.0827 81.8773 42.7573 81.6907 42.352 81.552C41.9573 81.4027 41.52 81.2747 41.04 81.168C40.56 81.0613 40.0747 80.9387 39.584 80.8C39.104 80.6507 38.6613 80.464 38.256 80.24C37.8613 80.016 37.5413 79.7173 37.296 79.344C37.0507 78.96 36.928 78.4693 36.928 77.872C36.928 77.296 37.0773 76.768 37.376 76.288C37.6853 75.7973 38.1547 75.408 38.784 75.12C39.424 74.8213 40.2347 74.672 41.216 74.672C41.8667 74.672 42.512 74.7573 43.152 74.928C43.792 75.0987 44.3467 75.344 44.816 75.664L44.288 76.944C43.808 76.624 43.3013 76.3947 42.768 76.256C42.2347 76.1067 41.7173 76.032 41.216 76.032C40.5867 76.032 40.0693 76.112 39.664 76.272C39.2587 76.432 38.96 76.6453 38.768 76.912C38.5867 77.1787 38.496 77.4773 38.496 77.808C38.496 78.2027 38.6187 78.5173 38.864 78.752C39.12 78.9867 39.4453 79.1733 39.84 79.312C40.2453 79.4507 40.688 79.5787 41.168 79.696C41.648 79.8027 42.128 79.9253 42.608 80.064C43.0987 80.2027 43.5413 80.384 43.936 80.608C44.3413 80.832 44.6667 81.1307 44.912 81.504C45.1573 81.8773 45.28 82.3573 45.28 82.944C45.28 83.5093 45.1253 84.0373 44.816 84.528C44.5067 85.008 44.0267 85.3973 43.376 85.696C42.736 85.984 41.9253 86.128 40.944 86.128ZM47.3935 86V77.52H48.9295V86H47.3935ZM48.1615 75.888C47.8628 75.888 47.6122 75.792 47.4095 75.6C47.2175 75.408 47.1215 75.1733 47.1215 74.896C47.1215 74.608 47.2175 74.368 47.4095 74.176C47.6122 73.984 47.8628 73.888 48.1615 73.888C48.4602 73.888 48.7055 73.984 48.8975 74.176C49.1002 74.3573 49.2015 74.5867 49.2015 74.864C49.2015 75.152 49.1055 75.3973 48.9135 75.6C48.7215 75.792 48.4708 75.888 48.1615 75.888ZM54.7743 86.096C53.9209 86.096 53.2596 85.8667 52.7903 85.408C52.3209 84.9493 52.0863 84.2933 52.0863 83.44V75.664H53.6223V83.376C53.6223 83.8347 53.7343 84.1867 53.9583 84.432C54.1929 84.6773 54.5236 84.8 54.9503 84.8C55.4303 84.8 55.8303 84.6667 56.1503 84.4L56.6303 85.504C56.3956 85.7067 56.1129 85.856 55.7823 85.952C55.4623 86.048 55.1263 86.096 54.7743 86.096ZM50.6463 78.784V77.52H56.0543V78.784H50.6463ZM58.4873 86V77.52H60.0233V86H58.4873ZM59.2553 75.888C58.9566 75.888 58.7059 75.792 58.5033 75.6C58.3113 75.408 58.2153 75.1733 58.2153 74.896C58.2153 74.608 58.3113 74.368 58.5033 74.176C58.7059 73.984 58.9566 73.888 59.2553 73.888C59.5539 73.888 59.7993 73.984 59.9913 74.176C60.1939 74.3573 60.2953 74.5867 60.2953 74.864C60.2953 75.152 60.1993 75.3973 60.0073 75.6C59.8153 75.792 59.5646 75.888 59.2553 75.888ZM66.588 86.096C65.7347 86.096 64.9773 85.9093 64.316 85.536C63.6547 85.1627 63.132 84.6507 62.748 84C62.364 83.3387 62.172 82.592 62.172 81.76C62.172 80.9173 62.364 80.1707 62.748 79.52C63.132 78.8693 63.6547 78.3627 64.316 78C64.9773 77.6267 65.7347 77.44 66.588 77.44C67.4307 77.44 68.1827 77.6267 68.844 78C69.516 78.3627 70.0387 78.8693 70.412 79.52C70.796 80.16 70.988 80.9067 70.988 81.76C70.988 82.6027 70.796 83.3493 70.412 84C70.0387 84.6507 69.516 85.1627 68.844 85.536C68.1827 85.9093 67.4307 86.096 66.588 86.096ZM66.588 84.752C67.132 84.752 67.6173 84.6293 68.044 84.384C68.4813 84.1387 68.8227 83.792 69.068 83.344C69.3133 82.8853 69.436 82.3573 69.436 81.76C69.436 81.152 69.3133 80.6293 69.068 80.192C68.8227 79.744 68.4813 79.3973 68.044 79.152C67.6173 78.9067 67.132 78.784 66.588 78.784C66.044 78.784 65.5587 78.9067 65.132 79.152C64.7053 79.3973 64.364 79.744 64.108 80.192C63.852 80.6293 63.724 81.152 63.724 81.76C63.724 82.3573 63.852 82.8853 64.108 83.344C64.364 83.792 64.7053 84.1387 65.132 84.384C65.5587 84.6293 66.044 84.752 66.588 84.752ZM75.5443 86.096C74.8403 86.096 74.1683 86 73.5283 85.808C72.8989 85.616 72.4029 85.3813 72.0403 85.104L72.6803 83.888C73.0429 84.1333 73.4909 84.3413 74.0243 84.512C74.5576 84.6827 75.1016 84.768 75.6562 84.768C76.3709 84.768 76.8829 84.6667 77.1923 84.464C77.5123 84.2613 77.6723 83.9787 77.6723 83.616C77.6723 83.3493 77.5763 83.1413 77.3843 82.992C77.1923 82.8427 76.9363 82.7307 76.6163 82.656C76.3069 82.5813 75.9603 82.5173 75.5763 82.464C75.1923 82.4 74.8083 82.3253 74.4243 82.24C74.0403 82.144 73.6883 82.016 73.3683 81.856C73.0483 81.6853 72.7923 81.456 72.6003 81.168C72.4083 80.8693 72.3123 80.4747 72.3123 79.984C72.3123 79.472 72.4563 79.024 72.7443 78.64C73.0323 78.256 73.4376 77.9627 73.9603 77.76C74.4936 77.5467 75.1229 77.44 75.8483 77.44C76.4029 77.44 76.9629 77.5093 77.5283 77.648C78.1043 77.776 78.5736 77.9627 78.9363 78.208L78.2803 79.424C77.8963 79.168 77.4963 78.992 77.0803 78.896C76.6643 78.8 76.2483 78.752 75.8323 78.752C75.1603 78.752 74.6589 78.864 74.3283 79.088C73.9976 79.3013 73.8323 79.5787 73.8323 79.92C73.8323 80.208 73.9283 80.432 74.1203 80.592C74.3229 80.7413 74.5789 80.8587 74.8883 80.944C75.2083 81.0293 75.5603 81.104 75.9443 81.168C76.3283 81.2213 76.7123 81.296 77.0963 81.392C77.4803 81.4773 77.8269 81.6 78.1363 81.76C78.4563 81.92 78.7123 82.144 78.9043 82.432C79.1069 82.72 79.2083 83.104 79.2083 83.584C79.2083 84.096 79.0589 84.5387 78.7603 84.912C78.4616 85.2853 78.0403 85.5787 77.4963 85.792C76.9523 85.9947 76.3016 86.096 75.5443 86.096Z" fill="#285CED"/>
<path d="M156.787 79H150.201C149.756 79 149.533 79.5386 149.848 79.8536L153.141 83.1464C153.336 83.3417 153.652 83.3417 153.848 83.1464L157.141 79.8536C157.456 79.5386 157.232 79 156.787 79Z" fill="#285CED"/>
</g>
<defs>
<filter id="filter0_d_4064_37969" x="0" y="0" width="489" height="468" filterUnits="userSpaceOnUse" color-interpolation-filters="sRGB">
<feFlood flood-opacity="0" result="BackgroundImageFix"/>
<feColorMatrix in="SourceAlpha" type="matrix" values="0 0 0 0 0 0 0 0 0 0 0 0 0 0 0 0 0 0 127 0" result="hardAlpha"/>
<feOffset dy="4"/>
<feGaussianBlur stdDeviation="2"/>
<feComposite in2="hardAlpha" operator="out"/>
<feColorMatrix type="matrix" values="0 0 0 0 0 0 0 0 0 0 0 0 0 0 0 0 0 0 0.25 0"/>
<feBlend mode="normal" in2="BackgroundImageFix" result="effect1_dropShadow_4064_37969"/>
<feBlend mode="normal" in="SourceGraphic" in2="effect1_dropShadow_4064_37969" result="shape"/>
</filter>
<filter id="filter1_d_4064_37969" x="110.227" y="133" width="281.945" height="182.139" filterUnits="userSpaceOnUse" color-interpolation-filters="sRGB">
<feFlood flood-opacity="0" result="BackgroundImageFix"/>
<feColorMatrix in="SourceAlpha" type="matrix" values="0 0 0 0 0 0 0 0 0 0 0 0 0 0 0 0 0 0 127 0" result="hardAlpha"/>
<feOffset dy="4"/>
<feGaussianBlur stdDeviation="2"/>
<feComposite in2="hardAlpha" operator="out"/>
<feColorMatrix type="matrix" values="0 0 0 0 0 0 0 0 0 0 0 0 0 0 0 0 0 0 0.25 0"/>
<feBlend mode="normal" in2="BackgroundImageFix" result="effect1_dropShadow_4064_37969"/>
<feBlend mode="normal" in="SourceGraphic" in2="effect1_dropShadow_4064_37969" result="shape"/>
</filter>
<filter id="filter2_d_4064_37969" x="34" y="343" width="54" height="52.8203" filterUnits="userSpaceOnUse" color-interpolation-filters="sRGB">
<feFlood flood-opacity="0" result="BackgroundImageFix"/>
<feColorMatrix in="SourceAlpha" type="matrix" values="0 0 0 0 0 0 0 0 0 0 0 0 0 0 0 0 0 0 127 0" result="hardAlpha"/>
<feOffset dy="4"/>
<feGaussianBlur stdDeviation="2"/>
<feComposite in2="hardAlpha" operator="out"/>
<feColorMatrix type="matrix" values="0 0 0 0 0 0 0 0 0 0 0 0 0 0 0 0 0 0 0.25 0"/>
<feBlend mode="normal" in2="BackgroundImageFix" result="effect1_dropShadow_4064_37969"/>
<feBlend mode="normal" in="SourceGraphic" in2="effect1_dropShadow_4064_37969" result="shape"/>
</filter>
<filter id="filter3_d_4064_37969" x="20.5" y="62.5" width="152" height="44" filterUnits="userSpaceOnUse" color-interpolation-filters="sRGB">
<feFlood flood-opacity="0" result="BackgroundImageFix"/>
<feColorMatrix in="SourceAlpha" type="matrix" values="0 0 0 0 0 0 0 0 0 0 0 0 0 0 0 0 0 0 127 0" result="hardAlpha"/>
<feOffset dy="4"/>
<feGaussianBlur stdDeviation="2"/>
<feComposite in2="hardAlpha" operator="out"/>
<feColorMatrix type="matrix" values="0 0 0 0 0 0 0 0 0 0 0 0 0 0 0 0 0 0 0.25 0"/>
<feBlend mode="normal" in2="BackgroundImageFix" result="effect1_dropShadow_4064_37969"/>
<feBlend mode="normal" in="SourceGraphic" in2="effect1_dropShadow_4064_37969" result="shape"/>
</filter>
<filter id="filter4_d_4064_37969" x="20.5" y="62.5" width="152" height="44" filterUnits="userSpaceOnUse" color-interpolation-filters="sRGB">
<feFlood flood-opacity="0" result="BackgroundImageFix"/>
<feColorMatrix in="SourceAlpha" type="matrix" values="0 0 0 0 0 0 0 0 0 0 0 0 0 0 0 0 0 0 127 0" result="hardAlpha"/>
<feOffset dy="4"/>
<feGaussianBlur stdDeviation="2"/>
<feComposite in2="hardAlpha" operator="out"/>
<feColorMatrix type="matrix" values="0 0 0 0 0 0 0 0 0 0 0 0 0 0 0 0 0 0 0.25 0"/>
<feBlend mode="normal" in2="BackgroundImageFix" result="effect1_dropShadow_4064_37969"/>
<feBlend mode="normal" in="SourceGraphic" in2="effect1_dropShadow_4064_37969" result="shape"/>
</filter>
</defs>
</svg>
