<svg width="489" height="468" viewBox="0 0 489 468" fill="none" xmlns="http://www.w3.org/2000/svg">
<g filter="url(#filter0_d_4064_36362)">
<rect x="4" width="481" height="460" rx="10" fill="white"/>
</g>
<path d="M368.75 111.444V99.6261C368.75 98.39 368.178 97.2233 367.202 96.4656L357.452 88.902C356.009 87.7827 353.991 87.7827 352.548 88.902L342.798 96.4656C341.822 97.2233 341.25 98.39 341.25 99.6261V111.444C341.25 113.654 343.041 115.444 345.25 115.444H350.658H359.342H364.75C366.959 115.444 368.75 113.654 368.75 111.444Z" stroke="#3B4559" stroke-width="1.5"/>
<rect width="20" height="11.8519" rx="2" transform="matrix(1 0 0 -1 345 110.704)" stroke="#3B4559" stroke-width="1.5"/>
<ellipse rx="1.25" ry="1.18519" transform="matrix(1 0 0 -1 360 104.779)" stroke="#3B4559" stroke-width="1.5"/>
<path d="M348.75 104.777H354.375" stroke="#3B4559" stroke-width="2" stroke-linecap="round"/>
<path d="M29.816 28L24.92 16.8H27.176L31.544 26.928H30.248L34.664 16.8H36.744L31.864 28H29.816ZM41.1093 28.112C40.1599 28.112 39.3279 27.9253 38.6133 27.552C37.9093 27.168 37.3599 26.6453 36.9653 25.984C36.5813 25.3227 36.3893 24.5707 36.3893 23.728C36.3893 22.8747 36.5759 22.1227 36.9493 21.472C37.3333 20.8107 37.8559 20.2933 38.5173 19.92C39.1893 19.5467 39.9519 19.36 40.8053 19.36C41.6373 19.36 42.3786 19.5413 43.0293 19.904C43.6799 20.2667 44.1919 20.7787 44.5653 21.44C44.9386 22.1013 45.1253 22.88 45.1253 23.776C45.1253 23.8613 45.1199 23.9573 45.1093 24.064C45.1093 24.1707 45.1039 24.272 45.0933 24.368H37.9733V23.04H44.0373L43.2533 23.456C43.2639 22.9653 43.1626 22.5333 42.9493 22.16C42.7359 21.7867 42.4426 21.4933 42.0693 21.28C41.7066 21.0667 41.2853 20.96 40.8053 20.96C40.3146 20.96 39.8826 21.0667 39.5093 21.28C39.1466 21.4933 38.8586 21.792 38.6453 22.176C38.4426 22.5493 38.3413 22.992 38.3413 23.504V23.824C38.3413 24.336 38.4586 24.7893 38.6933 25.184C38.9279 25.5787 39.2586 25.8827 39.6853 26.096C40.1119 26.3093 40.6026 26.416 41.1573 26.416C41.6373 26.416 42.0693 26.3413 42.4533 26.192C42.8373 26.0427 43.1786 25.808 43.4773 25.488L44.5493 26.72C44.1653 27.168 43.6799 27.5147 43.0933 27.76C42.5173 27.9947 41.8559 28.112 41.1093 28.112ZM47.0464 28V16.128H49.0464V28H47.0464ZM55.5114 28.112C54.6367 28.112 53.858 27.9253 53.1754 27.552C52.4927 27.168 51.954 26.6453 51.5594 25.984C51.1647 25.3227 50.9674 24.5707 50.9674 23.728C50.9674 22.8747 51.1647 22.1227 51.5594 21.472C51.954 20.8107 52.4927 20.2933 53.1754 19.92C53.858 19.5467 54.6367 19.36 55.5114 19.36C56.3967 19.36 57.1807 19.5467 57.8634 19.92C58.5567 20.2933 59.0954 20.8053 59.4794 21.456C59.874 22.1067 60.0714 22.864 60.0714 23.728C60.0714 24.5707 59.874 25.3227 59.4794 25.984C59.0954 26.6453 58.5567 27.168 57.8634 27.552C57.1807 27.9253 56.3967 28.112 55.5114 28.112ZM55.5114 26.4C56.002 26.4 56.4394 26.2933 56.8234 26.08C57.2074 25.8667 57.506 25.5573 57.7194 25.152C57.9434 24.7467 58.0554 24.272 58.0554 23.728C58.0554 23.1733 57.9434 22.6987 57.7194 22.304C57.506 21.8987 57.2074 21.5893 56.8234 21.376C56.4394 21.1627 56.0074 21.056 55.5274 21.056C55.0367 21.056 54.5994 21.1627 54.2154 21.376C53.842 21.5893 53.5434 21.8987 53.3194 22.304C53.0954 22.6987 52.9834 23.1733 52.9834 23.728C52.9834 24.272 53.0954 24.7467 53.3194 25.152C53.5434 25.5573 53.842 25.8667 54.2154 26.08C54.5994 26.2933 55.0314 26.4 55.5114 26.4ZM65.9039 28.112C65.0079 28.112 64.2079 27.9253 63.5039 27.552C62.8105 27.168 62.2665 26.6453 61.8719 25.984C61.4772 25.3227 61.2799 24.5707 61.2799 23.728C61.2799 22.8747 61.4772 22.1227 61.8719 21.472C62.2665 20.8107 62.8105 20.2933 63.5039 19.92C64.2079 19.5467 65.0079 19.36 65.9039 19.36C66.7359 19.36 67.4665 19.5307 68.0959 19.872C68.7359 20.2027 69.2212 20.6933 69.5519 21.344L68.0159 22.24C67.7599 21.8347 67.4452 21.536 67.0719 21.344C66.7092 21.152 66.3145 21.056 65.8879 21.056C65.3972 21.056 64.9545 21.1627 64.5599 21.376C64.1652 21.5893 63.8559 21.8987 63.6319 22.304C63.4079 22.6987 63.2959 23.1733 63.2959 23.728C63.2959 24.2827 63.4079 24.7627 63.6319 25.168C63.8559 25.5627 64.1652 25.8667 64.5599 26.08C64.9545 26.2933 65.3972 26.4 65.8879 26.4C66.3145 26.4 66.7092 26.304 67.0719 26.112C67.4452 25.92 67.7599 25.6213 68.0159 25.216L69.5519 26.112C69.2212 26.752 68.7359 27.248 68.0959 27.6C67.4665 27.9413 66.7359 28.112 65.9039 28.112ZM71.2808 28V19.456H73.2808V28H71.2808ZM70.9448 18.288L73.1048 16.096H75.4568L72.6728 18.288H70.9448ZM86.6898 19.36C87.3724 19.36 87.9751 19.4933 88.4978 19.76C89.0311 20.0267 89.4471 20.4373 89.7458 20.992C90.0444 21.536 90.1938 22.24 90.1938 23.104V28H88.1938V23.36C88.1938 22.6027 88.0284 22.0373 87.6978 21.664C87.3671 21.2907 86.8924 21.104 86.2738 21.104C85.8364 21.104 85.4471 21.2 85.1058 21.392C84.7751 21.584 84.5138 21.8667 84.3218 22.24C84.1404 22.6133 84.0498 23.088 84.0498 23.664V28H82.0498V23.36C82.0498 22.6027 81.8844 22.0373 81.5538 21.664C81.2231 21.2907 80.7484 21.104 80.1298 21.104C79.6924 21.104 79.3031 21.2 78.9618 21.392C78.6311 21.584 78.3698 21.8667 78.1778 22.24C77.9964 22.6133 77.9058 23.088 77.9058 23.664V28H75.9058V19.456H77.8098V21.728L77.4738 21.056C77.7618 20.5013 78.1778 20.08 78.7218 19.792C79.2764 19.504 79.9058 19.36 80.6098 19.36C81.4098 19.36 82.1031 19.5573 82.6898 19.952C83.2871 20.3467 83.6818 20.944 83.8738 21.744L83.0898 21.472C83.3671 20.832 83.8258 20.32 84.4658 19.936C85.1058 19.552 85.8471 19.36 86.6898 19.36ZM96.7811 28.112C95.8318 28.112 94.9998 27.9253 94.2851 27.552C93.5811 27.168 93.0318 26.6453 92.6371 25.984C92.2531 25.3227 92.0611 24.5707 92.0611 23.728C92.0611 22.8747 92.2478 22.1227 92.6211 21.472C93.0051 20.8107 93.5278 20.2933 94.1891 19.92C94.8611 19.5467 95.6238 19.36 96.4771 19.36C97.3091 19.36 98.0505 19.5413 98.7011 19.904C99.3518 20.2667 99.8638 20.7787 100.237 21.44C100.61 22.1013 100.797 22.88 100.797 23.776C100.797 23.8613 100.792 23.9573 100.781 24.064C100.781 24.1707 100.776 24.272 100.765 24.368H93.6451V23.04H99.7091L98.9251 23.456C98.9358 22.9653 98.8345 22.5333 98.6211 22.16C98.4078 21.7867 98.1145 21.4933 97.7411 21.28C97.3785 21.0667 96.9571 20.96 96.4771 20.96C95.9865 20.96 95.5545 21.0667 95.1811 21.28C94.8185 21.4933 94.5305 21.792 94.3171 22.176C94.1145 22.5493 94.0131 22.992 94.0131 23.504V23.824C94.0131 24.336 94.1305 24.7893 94.3651 25.184C94.5998 25.5787 94.9305 25.8827 95.3571 26.096C95.7838 26.3093 96.2745 26.416 96.8291 26.416C97.3091 26.416 97.7411 26.3413 98.1251 26.192C98.5091 26.0427 98.8505 25.808 99.1491 25.488L100.221 26.72C99.8371 27.168 99.3518 27.5147 98.7651 27.76C98.1891 27.9947 97.5278 28.112 96.7811 28.112ZM105.934 28.112C104.996 28.112 104.27 27.872 103.758 27.392C103.246 26.9013 102.99 26.1813 102.99 25.232V17.568H104.99V25.184C104.99 25.5893 105.092 25.904 105.294 26.128C105.508 26.352 105.801 26.464 106.174 26.464C106.622 26.464 106.996 26.3467 107.294 26.112L107.854 27.536C107.62 27.728 107.332 27.872 106.99 27.968C106.649 28.064 106.297 28.112 105.934 28.112ZM101.582 21.12V19.52H107.278V21.12H101.582ZM109.5 28V19.456H111.404V21.808L111.18 21.12C111.436 20.544 111.836 20.1067 112.38 19.808C112.934 19.5093 113.622 19.36 114.444 19.36V21.264C114.358 21.2427 114.278 21.232 114.204 21.232C114.129 21.2213 114.054 21.216 113.98 21.216C113.222 21.216 112.62 21.44 112.172 21.888C111.724 22.3253 111.5 22.9813 111.5 23.856V28H109.5ZM119.902 28.112C119.027 28.112 118.249 27.9253 117.566 27.552C116.883 27.168 116.345 26.6453 115.95 25.984C115.555 25.3227 115.358 24.5707 115.358 23.728C115.358 22.8747 115.555 22.1227 115.95 21.472C116.345 20.8107 116.883 20.2933 117.566 19.92C118.249 19.5467 119.027 19.36 119.902 19.36C120.787 19.36 121.571 19.5467 122.254 19.92C122.947 20.2933 123.486 20.8053 123.87 21.456C124.265 22.1067 124.462 22.864 124.462 23.728C124.462 24.5707 124.265 25.3227 123.87 25.984C123.486 26.6453 122.947 27.168 122.254 27.552C121.571 27.9253 120.787 28.112 119.902 28.112ZM119.902 26.4C120.393 26.4 120.83 26.2933 121.214 26.08C121.598 25.8667 121.897 25.5573 122.11 25.152C122.334 24.7467 122.446 24.272 122.446 23.728C122.446 23.1733 122.334 22.6987 122.11 22.304C121.897 21.8987 121.598 21.5893 121.214 21.376C120.83 21.1627 120.398 21.056 119.918 21.056C119.427 21.056 118.99 21.1627 118.606 21.376C118.233 21.5893 117.934 21.8987 117.71 22.304C117.486 22.6987 117.374 23.1733 117.374 23.728C117.374 24.272 117.486 24.7467 117.71 25.152C117.934 25.5573 118.233 25.8667 118.606 26.08C118.99 26.2933 119.422 26.4 119.902 26.4Z" fill="#0B112A"/>
<rect x="199" y="347" width="46" height="44.8205" rx="7" fill="#FCEAEC"/>
<path d="M222.666 362.528V374.807M222.666 374.807L218.796 371.035M222.666 374.807L226.537 371.035" stroke="#DA5263" stroke-width="2"/>
<path d="M201.368 404V395.6H202.256V404H201.368ZM207.785 397.64C208.297 397.64 208.745 397.74 209.129 397.94C209.521 398.132 209.825 398.428 210.041 398.828C210.265 399.228 210.377 399.732 210.377 400.34V404H209.525V400.424C209.525 399.76 209.357 399.26 209.021 398.924C208.693 398.58 208.229 398.408 207.629 398.408C207.181 398.408 206.789 398.5 206.453 398.684C206.125 398.86 205.869 399.12 205.685 399.464C205.509 399.8 205.421 400.208 205.421 400.688V404H204.569V397.7H205.385V399.428L205.253 399.104C205.453 398.648 205.773 398.292 206.213 398.036C206.653 397.772 207.177 397.64 207.785 397.64ZM216.386 404V402.608L216.35 402.38V400.052C216.35 399.516 216.198 399.104 215.894 398.816C215.598 398.528 215.154 398.384 214.562 398.384C214.154 398.384 213.766 398.452 213.398 398.588C213.03 398.724 212.718 398.904 212.462 399.128L212.078 398.492C212.398 398.22 212.782 398.012 213.23 397.868C213.678 397.716 214.15 397.64 214.646 397.64C215.462 397.64 216.09 397.844 216.53 398.252C216.978 398.652 217.202 399.264 217.202 400.088V404H216.386ZM214.214 404.06C213.742 404.06 213.33 403.984 212.978 403.832C212.634 403.672 212.37 403.456 212.186 403.184C212.002 402.904 211.91 402.584 211.91 402.224C211.91 401.896 211.986 401.6 212.138 401.336C212.298 401.064 212.554 400.848 212.906 400.688C213.266 400.52 213.746 400.436 214.346 400.436H216.518V401.072H214.37C213.762 401.072 213.338 401.18 213.098 401.396C212.866 401.612 212.75 401.88 212.75 402.2C212.75 402.56 212.89 402.848 213.17 403.064C213.45 403.28 213.842 403.388 214.346 403.388C214.826 403.388 215.238 403.28 215.582 403.064C215.934 402.84 216.19 402.52 216.35 402.104L216.542 402.692C216.382 403.108 216.102 403.44 215.702 403.688C215.31 403.936 214.814 404.06 214.214 404.06ZM221.893 404.06C221.269 404.06 220.709 403.924 220.213 403.652C219.725 403.372 219.341 402.992 219.061 402.512C218.781 402.024 218.641 401.468 218.641 400.844C218.641 400.212 218.781 399.656 219.061 399.176C219.341 398.696 219.725 398.32 220.213 398.048C220.709 397.776 221.269 397.64 221.893 397.64C222.429 397.64 222.913 397.744 223.345 397.952C223.777 398.16 224.117 398.472 224.365 398.888L223.729 399.32C223.513 399 223.245 398.764 222.925 398.612C222.605 398.46 222.257 398.384 221.881 398.384C221.433 398.384 221.029 398.488 220.669 398.696C220.309 398.896 220.025 399.18 219.817 399.548C219.609 399.916 219.505 400.348 219.505 400.844C219.505 401.34 219.609 401.772 219.817 402.14C220.025 402.508 220.309 402.796 220.669 403.004C221.029 403.204 221.433 403.304 221.881 403.304C222.257 403.304 222.605 403.228 222.925 403.076C223.245 402.924 223.513 402.692 223.729 402.38L224.365 402.812C224.117 403.22 223.777 403.532 223.345 403.748C222.913 403.956 222.429 404.06 221.893 404.06ZM227.861 404.06C227.269 404.06 226.813 403.9 226.493 403.58C226.173 403.26 226.013 402.808 226.013 402.224V396.308H226.865V402.176C226.865 402.544 226.957 402.828 227.141 403.028C227.333 403.228 227.605 403.328 227.957 403.328C228.333 403.328 228.645 403.22 228.893 403.004L229.193 403.616C229.025 403.768 228.821 403.88 228.581 403.952C228.349 404.024 228.109 404.06 227.861 404.06ZM224.885 398.408V397.7H228.785V398.408H224.885ZM230.504 404V397.7H231.356V404H230.504ZM230.936 396.308C230.76 396.308 230.612 396.248 230.492 396.128C230.372 396.008 230.312 395.864 230.312 395.696C230.312 395.528 230.372 395.388 230.492 395.276C230.612 395.156 230.76 395.096 230.936 395.096C231.112 395.096 231.26 395.152 231.38 395.264C231.5 395.376 231.56 395.516 231.56 395.684C231.56 395.86 231.5 396.008 231.38 396.128C231.268 396.248 231.12 396.308 230.936 396.308ZM235.106 404L232.31 397.7H233.198L235.766 403.544H235.346L237.95 397.7H238.79L235.982 404H235.106ZM242.142 404.06C241.534 404.06 240.986 403.924 240.498 403.652C240.018 403.372 239.638 402.992 239.358 402.512C239.078 402.024 238.938 401.468 238.938 400.844C238.938 400.212 239.078 399.656 239.358 399.176C239.638 398.696 240.018 398.32 240.498 398.048C240.978 397.776 241.526 397.64 242.142 397.64C242.766 397.64 243.318 397.776 243.798 398.048C244.286 398.32 244.666 398.696 244.938 399.176C245.218 399.656 245.358 400.212 245.358 400.844C245.358 401.468 245.218 402.024 244.938 402.512C244.666 402.992 244.286 403.372 243.798 403.652C243.31 403.924 242.758 404.06 242.142 404.06ZM242.142 403.304C242.598 403.304 243.002 403.204 243.354 403.004C243.706 402.796 243.982 402.508 244.182 402.14C244.39 401.764 244.494 401.332 244.494 400.844C244.494 400.348 244.39 399.916 244.182 399.548C243.982 399.18 243.706 398.896 243.354 398.696C243.002 398.488 242.602 398.384 242.154 398.384C241.706 398.384 241.306 398.488 240.954 398.696C240.602 398.896 240.322 399.18 240.114 399.548C239.906 399.916 239.802 400.348 239.802 400.844C239.802 401.332 239.906 401.764 240.114 402.14C240.322 402.508 240.602 402.796 240.954 403.004C241.306 403.204 241.702 403.304 242.142 403.304ZM248.55 404.06C248.03 404.06 247.538 403.988 247.074 403.844C246.61 403.692 246.246 403.504 245.982 403.28L246.366 402.608C246.622 402.8 246.95 402.968 247.35 403.112C247.75 403.248 248.17 403.316 248.61 403.316C249.21 403.316 249.642 403.224 249.906 403.04C250.17 402.848 250.302 402.596 250.302 402.284C250.302 402.052 250.226 401.872 250.074 401.744C249.93 401.608 249.738 401.508 249.498 401.444C249.258 401.372 248.99 401.312 248.694 401.264C248.398 401.216 248.102 401.16 247.806 401.096C247.518 401.032 247.254 400.94 247.014 400.82C246.774 400.692 246.578 400.52 246.426 400.304C246.282 400.088 246.21 399.8 246.21 399.44C246.21 399.096 246.306 398.788 246.498 398.516C246.69 398.244 246.97 398.032 247.338 397.88C247.714 397.72 248.17 397.64 248.706 397.64C249.114 397.64 249.522 397.696 249.93 397.808C250.338 397.912 250.674 398.052 250.938 398.228L250.566 398.912C250.286 398.72 249.986 398.584 249.666 398.504C249.346 398.416 249.026 398.372 248.706 398.372C248.138 398.372 247.718 398.472 247.446 398.672C247.182 398.864 247.05 399.112 247.05 399.416C247.05 399.656 247.122 399.844 247.266 399.98C247.418 400.116 247.614 400.224 247.854 400.304C248.102 400.376 248.37 400.436 248.658 400.484C248.954 400.532 249.246 400.592 249.534 400.664C249.83 400.728 250.098 400.82 250.338 400.94C250.586 401.052 250.782 401.216 250.926 401.432C251.078 401.64 251.154 401.916 251.154 402.26C251.154 402.628 251.05 402.948 250.842 403.22C250.642 403.484 250.346 403.692 249.954 403.844C249.57 403.988 249.102 404.06 248.55 404.06Z" fill="#DA5263"/>
<path d="M265.72 375.434V377H256.666V375.776L261.796 370.826C262.42 370.226 262.84 369.71 263.056 369.278C263.272 368.834 263.38 368.39 263.38 367.946C263.38 367.286 263.146 366.776 262.678 366.416C262.222 366.044 261.562 365.858 260.698 365.858C259.306 365.858 258.232 366.314 257.476 367.226L256.252 366.164C256.744 365.564 257.386 365.096 258.178 364.76C258.982 364.424 259.876 364.256 260.86 364.256C262.18 364.256 263.23 364.574 264.01 365.21C264.79 365.834 265.18 366.686 265.18 367.766C265.18 368.438 265.036 369.074 264.748 369.674C264.46 370.274 263.914 370.958 263.11 371.726L259.258 375.434H265.72ZM270.44 369.422C272.24 369.422 273.56 369.764 274.4 370.448C275.252 371.12 275.678 372.044 275.678 373.22C275.678 373.964 275.498 374.636 275.138 375.236C274.79 375.824 274.256 376.292 273.536 376.64C272.828 376.976 271.952 377.144 270.908 377.144C270.02 377.144 269.162 377.012 268.334 376.748C267.506 376.472 266.822 376.094 266.282 375.614L267.11 374.192C267.542 374.6 268.094 374.93 268.766 375.182C269.438 375.422 270.146 375.542 270.89 375.542C271.838 375.542 272.57 375.344 273.086 374.948C273.614 374.54 273.878 373.988 273.878 373.292C273.878 372.536 273.59 371.966 273.014 371.582C272.438 371.186 271.454 370.988 270.062 370.988H267.2L267.866 364.4H274.976V365.966H269.378L269.036 369.422H270.44ZM282.252 369.35C283.08 369.35 283.818 369.506 284.466 369.818C285.126 370.13 285.642 370.58 286.014 371.168C286.386 371.744 286.572 372.41 286.572 373.166C286.572 373.958 286.374 374.654 285.978 375.254C285.594 375.854 285.06 376.322 284.376 376.658C283.704 376.982 282.948 377.144 282.108 377.144C280.416 377.144 279.108 376.598 278.184 375.506C277.272 374.414 276.816 372.866 276.816 370.862C276.816 369.458 277.062 368.264 277.554 367.28C278.058 366.284 278.754 365.534 279.642 365.03C280.542 364.514 281.586 364.256 282.774 364.256C283.386 364.256 283.962 364.322 284.502 364.454C285.042 364.574 285.51 364.754 285.906 364.994L285.222 366.398C284.622 366.002 283.818 365.804 282.81 365.804C281.502 365.804 280.476 366.212 279.732 367.028C278.988 367.832 278.616 369.008 278.616 370.556C278.616 370.748 278.622 370.898 278.634 371.006C278.994 370.466 279.486 370.058 280.11 369.782C280.746 369.494 281.46 369.35 282.252 369.35ZM282.036 375.686C282.864 375.686 283.536 375.464 284.052 375.02C284.568 374.576 284.826 373.982 284.826 373.238C284.826 372.494 284.562 371.906 284.034 371.474C283.518 371.03 282.822 370.808 281.946 370.808C281.382 370.808 280.878 370.916 280.434 371.132C280.002 371.348 279.66 371.642 279.408 372.014C279.168 372.386 279.048 372.8 279.048 373.256C279.048 373.7 279.162 374.108 279.39 374.48C279.63 374.84 279.972 375.134 280.416 375.362C280.872 375.578 281.412 375.686 282.036 375.686Z" fill="#DA5263"/>
<path d="M69.024 404L72.864 395.6H73.74L77.58 404H76.644L73.116 396.116H73.476L69.948 404H69.024ZM70.536 401.756L70.8 401.036H75.684L75.948 401.756H70.536ZM81.107 404.06C80.483 404.06 79.923 403.924 79.427 403.652C78.939 403.372 78.555 402.992 78.275 402.512C77.995 402.024 77.855 401.468 77.855 400.844C77.855 400.212 77.995 399.656 78.275 399.176C78.555 398.696 78.939 398.32 79.427 398.048C79.923 397.776 80.483 397.64 81.107 397.64C81.643 397.64 82.127 397.744 82.559 397.952C82.991 398.16 83.331 398.472 83.579 398.888L82.943 399.32C82.727 399 82.459 398.764 82.139 398.612C81.819 398.46 81.471 398.384 81.095 398.384C80.647 398.384 80.243 398.488 79.883 398.696C79.523 398.896 79.239 399.18 79.031 399.548C78.823 399.916 78.719 400.348 78.719 400.844C78.719 401.34 78.823 401.772 79.031 402.14C79.239 402.508 79.523 402.796 79.883 403.004C80.243 403.204 80.647 403.304 81.095 403.304C81.471 403.304 81.819 403.228 82.139 403.076C82.459 402.924 82.727 402.692 82.943 402.38L83.579 402.812C83.331 403.22 82.991 403.532 82.559 403.748C82.127 403.956 81.643 404.06 81.107 404.06ZM87.075 404.06C86.483 404.06 86.027 403.9 85.707 403.58C85.387 403.26 85.227 402.808 85.227 402.224V396.308H86.079V402.176C86.079 402.544 86.171 402.828 86.355 403.028C86.547 403.228 86.819 403.328 87.171 403.328C87.547 403.328 87.859 403.22 88.107 403.004L88.407 403.616C88.239 403.768 88.035 403.88 87.795 403.952C87.563 404.024 87.323 404.06 87.075 404.06ZM84.099 398.408V397.7H87.999V398.408H84.099ZM89.718 404V397.7H90.57V404H89.718ZM90.15 396.308C89.974 396.308 89.826 396.248 89.706 396.128C89.586 396.008 89.526 395.864 89.526 395.696C89.526 395.528 89.586 395.388 89.706 395.276C89.826 395.156 89.974 395.096 90.15 395.096C90.326 395.096 90.474 395.152 90.594 395.264C90.714 395.376 90.774 395.516 90.774 395.684C90.774 395.86 90.714 396.008 90.594 396.128C90.482 396.248 90.334 396.308 90.15 396.308ZM94.3207 404L91.5247 397.7H92.4127L94.9807 403.544H94.5607L97.1647 397.7H98.0047L95.1967 404H94.3207ZM101.357 404.06C100.749 404.06 100.201 403.924 99.7128 403.652C99.2328 403.372 98.8528 402.992 98.5728 402.512C98.2928 402.024 98.1528 401.468 98.1528 400.844C98.1528 400.212 98.2928 399.656 98.5728 399.176C98.8528 398.696 99.2328 398.32 99.7128 398.048C100.193 397.776 100.741 397.64 101.357 397.64C101.981 397.64 102.533 397.776 103.013 398.048C103.501 398.32 103.881 398.696 104.153 399.176C104.433 399.656 104.573 400.212 104.573 400.844C104.573 401.468 104.433 402.024 104.153 402.512C103.881 402.992 103.501 403.372 103.013 403.652C102.525 403.924 101.973 404.06 101.357 404.06ZM101.357 403.304C101.813 403.304 102.217 403.204 102.569 403.004C102.921 402.796 103.197 402.508 103.397 402.14C103.605 401.764 103.709 401.332 103.709 400.844C103.709 400.348 103.605 399.916 103.397 399.548C103.197 399.18 102.921 398.896 102.569 398.696C102.217 398.488 101.817 398.384 101.369 398.384C100.921 398.384 100.521 398.488 100.169 398.696C99.8168 398.896 99.5368 399.18 99.3288 399.548C99.1208 399.916 99.0168 400.348 99.0168 400.844C99.0168 401.332 99.1208 401.764 99.3288 402.14C99.5368 402.508 99.8168 402.796 100.169 403.004C100.521 403.204 100.917 403.304 101.357 403.304ZM107.764 404.06C107.244 404.06 106.752 403.988 106.288 403.844C105.824 403.692 105.46 403.504 105.196 403.28L105.58 402.608C105.836 402.8 106.164 402.968 106.564 403.112C106.964 403.248 107.384 403.316 107.824 403.316C108.424 403.316 108.856 403.224 109.12 403.04C109.384 402.848 109.516 402.596 109.516 402.284C109.516 402.052 109.44 401.872 109.288 401.744C109.144 401.608 108.952 401.508 108.712 401.444C108.472 401.372 108.204 401.312 107.908 401.264C107.612 401.216 107.316 401.16 107.02 401.096C106.732 401.032 106.468 400.94 106.228 400.82C105.988 400.692 105.792 400.52 105.64 400.304C105.496 400.088 105.424 399.8 105.424 399.44C105.424 399.096 105.52 398.788 105.712 398.516C105.904 398.244 106.184 398.032 106.552 397.88C106.928 397.72 107.384 397.64 107.92 397.64C108.328 397.64 108.736 397.696 109.144 397.808C109.552 397.912 109.888 398.052 110.152 398.228L109.78 398.912C109.5 398.72 109.2 398.584 108.88 398.504C108.56 398.416 108.24 398.372 107.92 398.372C107.352 398.372 106.932 398.472 106.66 398.672C106.396 398.864 106.264 399.112 106.264 399.416C106.264 399.656 106.336 399.844 106.48 399.98C106.632 400.116 106.828 400.224 107.068 400.304C107.316 400.376 107.584 400.436 107.872 400.484C108.168 400.532 108.46 400.592 108.748 400.664C109.044 400.728 109.312 400.82 109.552 400.94C109.8 401.052 109.996 401.216 110.14 401.432C110.292 401.64 110.368 401.916 110.368 402.26C110.368 402.628 110.264 402.948 110.056 403.22C109.856 403.484 109.56 403.692 109.168 403.844C108.784 403.988 108.316 404.06 107.764 404.06Z" fill="#3969ED"/>
<path d="M132.568 370.394C133.288 370.67 133.84 371.066 134.224 371.582C134.608 372.098 134.8 372.716 134.8 373.436C134.8 374.192 134.596 374.852 134.188 375.416C133.78 375.968 133.198 376.394 132.442 376.694C131.686 376.994 130.798 377.144 129.778 377.144C128.77 377.144 127.888 376.994 127.132 376.694C126.388 376.394 125.812 375.968 125.404 375.416C124.996 374.852 124.792 374.192 124.792 373.436C124.792 372.716 124.978 372.098 125.35 371.582C125.734 371.066 126.286 370.67 127.006 370.394C126.43 370.118 125.992 369.752 125.692 369.296C125.392 368.84 125.242 368.3 125.242 367.676C125.242 366.98 125.428 366.374 125.8 365.858C126.184 365.342 126.718 364.946 127.402 364.67C128.086 364.394 128.878 364.256 129.778 364.256C130.69 364.256 131.488 364.394 132.172 364.67C132.868 364.946 133.402 365.342 133.774 365.858C134.158 366.374 134.35 366.98 134.35 367.676C134.35 368.288 134.194 368.828 133.882 369.296C133.582 369.752 133.144 370.118 132.568 370.394ZM129.778 365.714C128.926 365.714 128.254 365.9 127.762 366.272C127.27 366.632 127.024 367.124 127.024 367.748C127.024 368.372 127.264 368.864 127.744 369.224C128.236 369.584 128.914 369.764 129.778 369.764C130.654 369.764 131.338 369.584 131.83 369.224C132.334 368.864 132.586 368.372 132.586 367.748C132.586 367.124 132.328 366.632 131.812 366.272C131.308 365.9 130.63 365.714 129.778 365.714ZM129.778 375.686C130.774 375.686 131.56 375.482 132.136 375.074C132.712 374.654 133 374.09 133 373.382C133 372.686 132.712 372.14 132.136 371.744C131.56 371.336 130.774 371.132 129.778 371.132C128.782 371.132 128.002 371.336 127.438 371.744C126.874 372.14 126.592 372.686 126.592 373.382C126.592 374.09 126.874 374.654 127.438 375.074C128.002 375.482 128.782 375.686 129.778 375.686ZM140.912 369.692C142.148 369.812 143.09 370.196 143.738 370.844C144.386 371.48 144.71 372.296 144.71 373.292C144.71 374.012 144.53 374.666 144.17 375.254C143.81 375.83 143.27 376.292 142.55 376.64C141.842 376.976 140.972 377.144 139.94 377.144C139.04 377.144 138.176 377.012 137.348 376.748C136.52 376.472 135.842 376.094 135.314 375.614L136.142 374.192C136.574 374.6 137.126 374.93 137.798 375.182C138.47 375.422 139.184 375.542 139.94 375.542C140.876 375.542 141.602 375.344 142.118 374.948C142.646 374.552 142.91 374.006 142.91 373.31C142.91 372.614 142.652 372.074 142.136 371.69C141.62 371.306 140.84 371.114 139.796 371.114H138.788V369.854L141.956 365.966H135.89V364.4H144.206V365.624L140.912 369.692ZM156.991 373.904H154.597V377H152.851V373.904H145.849V372.644L152.293 364.4H154.237L148.063 372.356H152.905V369.62H154.597V372.356H156.991V373.904Z" fill="#3969ED"/>
<rect x="68" y="347" width="46" height="44.8205" rx="7" fill="#EEF1F8"/>
<path d="M91.0003 375.549V363.271M91.0003 363.271L87.1299 367.042M91.0003 363.271L94.8707 367.042" stroke="#285CED" stroke-width="2"/>
<rect x="334" y="347" width="46" height="44.8205" rx="7" fill="#DBDBDB"/>
<path d="M345.092 398.6V407H344.24V400.28L340.94 405.932H340.52L337.22 400.316V407H336.368V398.6H337.1L340.748 404.828L344.36 398.6H345.092ZM349.617 400.64C350.441 400.64 351.073 400.848 351.513 401.264C351.953 401.672 352.173 402.28 352.173 403.088V407H351.357V406.016C351.165 406.344 350.881 406.6 350.505 406.784C350.137 406.968 349.697 407.06 349.185 407.06C348.481 407.06 347.921 406.892 347.505 406.556C347.089 406.22 346.881 405.776 346.881 405.224C346.881 404.688 347.073 404.256 347.457 403.928C347.849 403.6 348.469 403.436 349.317 403.436H351.321V403.052C351.321 402.508 351.169 402.096 350.865 401.816C350.561 401.528 350.117 401.384 349.533 401.384C349.133 401.384 348.749 401.452 348.381 401.588C348.013 401.716 347.697 401.896 347.433 402.128L347.049 401.492C347.369 401.22 347.753 401.012 348.201 400.868C348.649 400.716 349.121 400.64 349.617 400.64ZM349.317 406.388C349.797 406.388 350.209 406.28 350.553 406.064C350.897 405.84 351.153 405.52 351.321 405.104V404.072H349.341C348.261 404.072 347.721 404.448 347.721 405.2C347.721 405.568 347.861 405.86 348.141 406.076C348.421 406.284 348.813 406.388 349.317 406.388ZM357.463 400.64C358.255 400.64 358.883 400.872 359.347 401.336C359.819 401.792 360.055 402.46 360.055 403.34V407H359.203V403.424C359.203 402.768 359.039 402.268 358.711 401.924C358.383 401.58 357.915 401.408 357.307 401.408C356.627 401.408 356.087 401.612 355.687 402.02C355.295 402.42 355.099 402.976 355.099 403.688V407H354.247V400.688H355.063V401.852C355.295 401.468 355.615 401.172 356.023 400.964C356.439 400.748 356.919 400.64 357.463 400.64ZM365.452 406.616C365.292 406.76 365.092 406.872 364.852 406.952C364.62 407.024 364.376 407.06 364.12 407.06C363.528 407.06 363.072 406.9 362.752 406.58C362.432 406.26 362.272 405.808 362.272 405.224V401.408H361.144V400.688H362.272V399.308H363.124V400.688H365.044V401.408H363.124V405.176C363.124 405.552 363.216 405.84 363.4 406.04C363.592 406.232 363.864 406.328 364.216 406.328C364.392 406.328 364.56 406.3 364.72 406.244C364.888 406.188 365.032 406.108 365.152 406.004L365.452 406.616ZM372.037 404.108H366.757C366.805 404.764 367.057 405.296 367.513 405.704C367.969 406.104 368.545 406.304 369.241 406.304C369.633 406.304 369.993 406.236 370.321 406.1C370.649 405.956 370.933 405.748 371.173 405.476L371.653 406.028C371.373 406.364 371.021 406.62 370.597 406.796C370.181 406.972 369.721 407.06 369.217 407.06C368.569 407.06 367.993 406.924 367.489 406.652C366.993 406.372 366.605 405.988 366.325 405.5C366.045 405.012 365.905 404.46 365.905 403.844C365.905 403.228 366.037 402.676 366.301 402.188C366.573 401.7 366.941 401.32 367.405 401.048C367.877 400.776 368.405 400.64 368.989 400.64C369.573 400.64 370.097 400.776 370.561 401.048C371.025 401.32 371.389 401.7 371.653 402.188C371.917 402.668 372.049 403.22 372.049 403.844L372.037 404.108ZM368.989 401.372C368.381 401.372 367.869 401.568 367.453 401.96C367.045 402.344 366.813 402.848 366.757 403.472H371.233C371.177 402.848 370.941 402.344 370.525 401.96C370.117 401.568 369.605 401.372 368.989 401.372ZM376.759 400.64C377.551 400.64 378.179 400.872 378.643 401.336C379.115 401.792 379.351 402.46 379.351 403.34V407H378.499V403.424C378.499 402.768 378.335 402.268 378.007 401.924C377.679 401.58 377.211 401.408 376.603 401.408C375.923 401.408 375.383 401.612 374.983 402.02C374.591 402.42 374.395 402.976 374.395 403.688V407H373.543V400.688H374.359V401.852C374.591 401.468 374.911 401.172 375.319 400.964C375.735 400.748 376.215 400.64 376.759 400.64ZM381.424 400.688H382.276V407H381.424V400.688ZM381.856 399.308C381.68 399.308 381.532 399.248 381.412 399.128C381.292 399.008 381.232 398.864 381.232 398.696C381.232 398.536 381.292 398.396 381.412 398.276C381.532 398.156 381.68 398.096 381.856 398.096C382.032 398.096 382.18 398.156 382.3 398.276C382.42 398.388 382.48 398.524 382.48 398.684C382.48 398.86 382.42 399.008 382.3 399.128C382.18 399.248 382.032 399.308 381.856 399.308ZM392.278 400.64C393.07 400.64 393.69 400.868 394.138 401.324C394.594 401.78 394.822 402.452 394.822 403.34V407H393.97V403.424C393.97 402.768 393.81 402.268 393.49 401.924C393.178 401.58 392.734 401.408 392.158 401.408C391.502 401.408 390.986 401.612 390.61 402.02C390.234 402.42 390.046 402.976 390.046 403.688V407H389.194V403.424C389.194 402.768 389.034 402.268 388.714 401.924C388.402 401.58 387.954 401.408 387.37 401.408C386.722 401.408 386.206 401.612 385.822 402.02C385.446 402.42 385.258 402.976 385.258 403.688V407H384.406V400.688H385.222V401.84C385.446 401.456 385.758 401.16 386.158 400.952C386.558 400.744 387.018 400.64 387.538 400.64C388.066 400.64 388.522 400.752 388.906 400.976C389.298 401.2 389.59 401.532 389.782 401.972C390.014 401.556 390.346 401.232 390.778 401C391.218 400.76 391.718 400.64 392.278 400.64ZM396.893 400.688H397.745V407H396.893V400.688ZM397.325 399.308C397.149 399.308 397.001 399.248 396.881 399.128C396.761 399.008 396.701 398.864 396.701 398.696C396.701 398.536 396.761 398.396 396.881 398.276C397.001 398.156 397.149 398.096 397.325 398.096C397.501 398.096 397.649 398.156 397.769 398.276C397.889 398.388 397.949 398.524 397.949 398.684C397.949 398.86 397.889 399.008 397.769 399.128C397.649 399.248 397.501 399.308 397.325 399.308ZM405.372 404.108H400.092C400.14 404.764 400.392 405.296 400.848 405.704C401.304 406.104 401.88 406.304 402.576 406.304C402.968 406.304 403.328 406.236 403.656 406.1C403.984 405.956 404.268 405.748 404.508 405.476L404.988 406.028C404.708 406.364 404.356 406.62 403.932 406.796C403.516 406.972 403.056 407.06 402.552 407.06C401.904 407.06 401.328 406.924 400.824 406.652C400.328 406.372 399.94 405.988 399.66 405.5C399.38 405.012 399.24 404.46 399.24 403.844C399.24 403.228 399.372 402.676 399.636 402.188C399.908 401.7 400.276 401.32 400.74 401.048C401.212 400.776 401.74 400.64 402.324 400.64C402.908 400.64 403.432 400.776 403.896 401.048C404.36 401.32 404.724 401.7 404.988 402.188C405.252 402.668 405.384 403.22 405.384 403.844L405.372 404.108ZM402.324 401.372C401.716 401.372 401.204 401.568 400.788 401.96C400.38 402.344 400.148 402.848 400.092 403.472H404.568C404.512 402.848 404.276 402.344 403.86 401.96C403.452 401.568 402.94 401.372 402.324 401.372ZM410.094 400.64C410.886 400.64 411.514 400.872 411.978 401.336C412.45 401.792 412.686 402.46 412.686 403.34V407H411.834V403.424C411.834 402.768 411.67 402.268 411.342 401.924C411.014 401.58 410.546 401.408 409.938 401.408C409.258 401.408 408.718 401.612 408.318 402.02C407.926 402.42 407.73 402.976 407.73 403.688V407H406.878V400.688H407.694V401.852C407.926 401.468 408.246 401.172 408.654 400.964C409.07 400.748 409.55 400.64 410.094 400.64ZM418.083 406.616C417.923 406.76 417.723 406.872 417.483 406.952C417.251 407.024 417.007 407.06 416.751 407.06C416.159 407.06 415.703 406.9 415.383 406.58C415.063 406.26 414.903 405.808 414.903 405.224V401.408H413.775V400.688H414.903V399.308H415.755V400.688H417.675V401.408H415.755V405.176C415.755 405.552 415.847 405.84 416.031 406.04C416.223 406.232 416.495 406.328 416.847 406.328C417.023 406.328 417.191 406.3 417.351 406.244C417.519 406.188 417.663 406.108 417.783 406.004L418.083 406.616ZM421.751 407.06C421.143 407.06 420.595 406.924 420.107 406.652C419.619 406.372 419.235 405.988 418.955 405.5C418.675 405.012 418.535 404.46 418.535 403.844C418.535 403.228 418.675 402.676 418.955 402.188C419.235 401.7 419.619 401.32 420.107 401.048C420.595 400.776 421.143 400.64 421.751 400.64C422.359 400.64 422.907 400.776 423.395 401.048C423.883 401.32 424.263 401.7 424.535 402.188C424.815 402.676 424.955 403.228 424.955 403.844C424.955 404.46 424.815 405.012 424.535 405.5C424.263 405.988 423.883 406.372 423.395 406.652C422.907 406.924 422.359 407.06 421.751 407.06ZM421.751 406.304C422.199 406.304 422.599 406.204 422.951 406.004C423.311 405.796 423.591 405.504 423.791 405.128C423.991 404.752 424.091 404.324 424.091 403.844C424.091 403.364 423.991 402.936 423.791 402.56C423.591 402.184 423.311 401.896 422.951 401.696C422.599 401.488 422.199 401.384 421.751 401.384C421.303 401.384 420.899 401.488 420.539 401.696C420.187 401.896 419.907 402.184 419.699 402.56C419.499 402.936 419.399 403.364 419.399 403.844C419.399 404.324 419.499 404.752 419.699 405.128C419.907 405.504 420.187 405.796 420.539 406.004C420.899 406.204 421.303 406.304 421.751 406.304Z" fill="#838383"/>
<path d="M393.688 370.692C394.924 370.812 395.866 371.196 396.514 371.844C397.162 372.48 397.486 373.296 397.486 374.292C397.486 375.012 397.306 375.666 396.946 376.254C396.586 376.83 396.046 377.292 395.326 377.64C394.618 377.976 393.748 378.144 392.716 378.144C391.816 378.144 390.952 378.012 390.124 377.748C389.296 377.472 388.618 377.094 388.09 376.614L388.918 375.192C389.35 375.6 389.902 375.93 390.574 376.182C391.246 376.422 391.96 376.542 392.716 376.542C393.652 376.542 394.378 376.344 394.894 375.948C395.422 375.552 395.686 375.006 395.686 374.31C395.686 373.614 395.428 373.074 394.912 372.69C394.396 372.306 393.616 372.114 392.572 372.114H391.564V370.854L394.732 366.966H388.666V365.4H396.982V366.624L393.688 370.692ZM407.573 376.434V378H398.519V376.776L403.649 371.826C404.273 371.226 404.693 370.71 404.909 370.278C405.125 369.834 405.233 369.39 405.233 368.946C405.233 368.286 404.999 367.776 404.531 367.416C404.075 367.044 403.415 366.858 402.551 366.858C401.159 366.858 400.085 367.314 399.329 368.226L398.105 367.164C398.597 366.564 399.239 366.096 400.031 365.76C400.835 365.424 401.729 365.256 402.713 365.256C404.033 365.256 405.083 365.574 405.863 366.21C406.643 366.834 407.033 367.686 407.033 368.766C407.033 369.438 406.889 370.074 406.601 370.674C406.313 371.274 405.767 371.958 404.963 372.726L401.111 376.434H407.573ZM412.599 365.4V378H410.817V366.966H407.973V365.4H412.599Z" fill="#838383"/>
<path d="M368 369V366.608C368 365.382 367.438 364.224 366.475 363.466L359.475 357.95C358.023 356.806 355.977 356.806 354.525 357.95L347.525 363.466C346.562 364.224 346 365.382 346 366.608L346 375.111C346 377.32 347.791 379.111 350 379.111H353.526H361" stroke="#838383" stroke-width="1.5"/>
<path d="M365 370.5V367.629C365 366.525 364.105 365.629 363 365.629H351C349.895 365.629 349 366.525 349 367.629V373.259C349 374.363 349.895 375.259 351 375.259H365" stroke="#838383" stroke-width="1.5"/>
<ellipse rx="1" ry="0.962963" transform="matrix(1 0 0 -1 361 370.444)" stroke="#838383" stroke-width="1.5"/>
<path d="M352 370.444H356.5" stroke="#838383" stroke-width="2" stroke-linecap="round"/>
<path d="M372.782 372.232C372.851 372.334 372.899 372.448 372.921 372.569C373.075 373.368 373.004 374.193 372.717 374.954C372.43 375.715 371.937 376.381 371.293 376.879C370.65 377.376 369.881 377.685 369.073 377.772C368.264 377.859 367.448 377.719 366.713 377.37L362.532 381.478C362.191 381.812 361.732 382 361.255 382H360.854C360.627 382 360.41 381.91 360.25 381.75C360.09 381.59 360 381.373 360 381.146V380.75C360 380.27 360.191 379.809 360.53 379.47L364.648 375.35C364.28 374.616 364.125 373.794 364.202 372.976C364.278 372.159 364.583 371.379 365.081 370.726C365.578 370.073 366.25 369.573 367.018 369.283C367.786 368.993 368.62 368.924 369.425 369.085C369.548 369.122 369.661 369.185 369.757 369.271C369.853 369.357 369.929 369.463 369.979 369.581L367.671 371.889C367.46 372.104 367.341 372.394 367.341 372.696C367.341 372.998 367.46 373.284 367.671 373.5L368.548 374.289C368.656 374.4 368.785 374.489 368.927 374.55C369.07 374.611 369.224 374.642 369.379 374.642C369.534 374.642 369.687 374.611 369.83 374.55C369.973 374.489 370.102 374.4 370.21 374.289L372.517 371.981C372.622 372.045 372.712 372.131 372.782 372.232Z" stroke="#838383" stroke-width="1.5" stroke-linecap="round" stroke-linejoin="round"/>
<path d="M392.888 92.6V115H387.704V96.76H383.224V92.6H392.888ZM417.291 110.296H413.643V115H408.587V110.296H396.523V106.808L407.083 92.6H412.523L402.731 106.072H408.747V101.88H413.643V106.072H417.291V110.296ZM426.669 92.6V115H421.485V96.76H417.005V92.6H426.669ZM439.201 92.6V115H434.016V96.76H429.537V92.6H439.201Z" fill="#324886"/>
<path d="M343 75V67.368H340.048V66.6H346.84V67.368H343.888V75H343ZM349.99 75.06C349.382 75.06 348.834 74.924 348.346 74.652C347.866 74.372 347.486 73.992 347.206 73.512C346.926 73.024 346.786 72.468 346.786 71.844C346.786 71.212 346.926 70.656 347.206 70.176C347.486 69.696 347.866 69.32 348.346 69.048C348.826 68.776 349.374 68.64 349.99 68.64C350.614 68.64 351.166 68.776 351.646 69.048C352.134 69.32 352.514 69.696 352.786 70.176C353.066 70.656 353.206 71.212 353.206 71.844C353.206 72.468 353.066 73.024 352.786 73.512C352.514 73.992 352.134 74.372 351.646 74.652C351.158 74.924 350.606 75.06 349.99 75.06ZM349.99 74.304C350.446 74.304 350.85 74.204 351.202 74.004C351.554 73.796 351.83 73.508 352.03 73.14C352.238 72.764 352.342 72.332 352.342 71.844C352.342 71.348 352.238 70.916 352.03 70.548C351.83 70.18 351.554 69.896 351.202 69.696C350.85 69.488 350.45 69.384 350.002 69.384C349.554 69.384 349.154 69.488 348.802 69.696C348.45 69.896 348.17 70.18 347.962 70.548C347.754 70.916 347.65 71.348 347.65 71.844C347.65 72.332 347.754 72.764 347.962 73.14C348.17 73.508 348.45 73.796 348.802 74.004C349.154 74.204 349.55 74.304 349.99 74.304ZM356.938 75.06C356.346 75.06 355.89 74.9 355.57 74.58C355.25 74.26 355.09 73.808 355.09 73.224V67.308H355.942V73.176C355.942 73.544 356.034 73.828 356.218 74.028C356.41 74.228 356.682 74.328 357.034 74.328C357.41 74.328 357.722 74.22 357.97 74.004L358.27 74.616C358.102 74.768 357.898 74.88 357.658 74.952C357.426 75.024 357.186 75.06 356.938 75.06ZM353.962 69.408V68.7H357.862V69.408H353.962ZM363.769 75V73.608L363.733 73.38V71.052C363.733 70.516 363.581 70.104 363.277 69.816C362.981 69.528 362.537 69.384 361.945 69.384C361.537 69.384 361.149 69.452 360.781 69.588C360.413 69.724 360.101 69.904 359.845 70.128L359.461 69.492C359.781 69.22 360.165 69.012 360.613 68.868C361.061 68.716 361.533 68.64 362.029 68.64C362.845 68.64 363.473 68.844 363.913 69.252C364.361 69.652 364.585 70.264 364.585 71.088V75H363.769ZM361.597 75.06C361.125 75.06 360.713 74.984 360.361 74.832C360.017 74.672 359.753 74.456 359.569 74.184C359.385 73.904 359.293 73.584 359.293 73.224C359.293 72.896 359.369 72.6 359.521 72.336C359.681 72.064 359.937 71.848 360.289 71.688C360.649 71.52 361.129 71.436 361.729 71.436H363.901V72.072H361.753C361.145 72.072 360.721 72.18 360.481 72.396C360.249 72.612 360.133 72.88 360.133 73.2C360.133 73.56 360.273 73.848 360.553 74.064C360.833 74.28 361.225 74.388 361.729 74.388C362.209 74.388 362.621 74.28 362.965 74.064C363.317 73.84 363.573 73.52 363.733 73.104L363.925 73.692C363.765 74.108 363.485 74.44 363.085 74.688C362.693 74.936 362.197 75.06 361.597 75.06ZM366.899 75V66.096H367.751V75H366.899ZM375.77 75.06C375.17 75.06 374.63 74.924 374.15 74.652C373.678 74.38 373.306 74.004 373.034 73.524C372.762 73.036 372.626 72.476 372.626 71.844C372.626 71.204 372.762 70.644 373.034 70.164C373.306 69.684 373.678 69.312 374.15 69.048C374.63 68.776 375.17 68.64 375.77 68.64C376.322 68.64 376.814 68.764 377.246 69.012C377.686 69.26 378.034 69.624 378.29 70.104C378.554 70.576 378.686 71.156 378.686 71.844C378.686 72.524 378.558 73.104 378.302 73.584C378.046 74.064 377.698 74.432 377.258 74.688C376.826 74.936 376.33 75.06 375.77 75.06ZM375.83 74.304C376.278 74.304 376.678 74.204 377.03 74.004C377.39 73.796 377.67 73.508 377.87 73.14C378.078 72.764 378.182 72.332 378.182 71.844C378.182 71.348 378.078 70.916 377.87 70.548C377.67 70.18 377.39 69.896 377.03 69.696C376.678 69.488 376.278 69.384 375.83 69.384C375.39 69.384 374.994 69.488 374.642 69.696C374.29 69.896 374.01 70.18 373.802 70.548C373.594 70.916 373.49 71.348 373.49 71.844C373.49 72.332 373.594 72.764 373.802 73.14C374.01 73.508 374.29 73.796 374.642 74.004C374.994 74.204 375.39 74.304 375.83 74.304ZM378.206 75V73.104L378.29 71.832L378.17 70.56V66.096H379.022V75H378.206ZM384.071 75.06C383.415 75.06 382.839 74.924 382.343 74.652C381.847 74.372 381.459 73.992 381.179 73.512C380.899 73.024 380.759 72.468 380.759 71.844C380.759 71.22 380.891 70.668 381.155 70.188C381.427 69.708 381.795 69.332 382.259 69.06C382.731 68.78 383.259 68.64 383.843 68.64C384.435 68.64 384.959 68.776 385.415 69.048C385.879 69.312 386.243 69.688 386.507 70.176C386.771 70.656 386.903 71.212 386.903 71.844C386.903 71.884 386.899 71.928 386.891 71.976C386.891 72.016 386.891 72.06 386.891 72.108H381.407V71.472H386.435L386.099 71.724C386.099 71.268 385.999 70.864 385.799 70.512C385.607 70.152 385.343 69.872 385.007 69.672C384.671 69.472 384.283 69.372 383.843 69.372C383.411 69.372 383.023 69.472 382.679 69.672C382.335 69.872 382.067 70.152 381.875 70.512C381.683 70.872 381.587 71.284 381.587 71.748V71.88C381.587 72.36 381.691 72.784 381.899 73.152C382.115 73.512 382.411 73.796 382.787 74.004C383.171 74.204 383.607 74.304 384.095 74.304C384.479 74.304 384.835 74.236 385.163 74.1C385.499 73.964 385.787 73.756 386.027 73.476L386.507 74.028C386.227 74.364 385.875 74.62 385.451 74.796C385.035 74.972 384.575 75.06 384.071 75.06ZM394.274 75.072C393.65 75.072 393.05 74.972 392.474 74.772C391.906 74.564 391.466 74.3 391.154 73.98L391.502 73.296C391.798 73.584 392.194 73.828 392.69 74.028C393.194 74.22 393.722 74.316 394.274 74.316C394.802 74.316 395.23 74.252 395.558 74.124C395.894 73.988 396.138 73.808 396.29 73.584C396.45 73.36 396.53 73.112 396.53 72.84C396.53 72.512 396.434 72.248 396.242 72.048C396.058 71.848 395.814 71.692 395.51 71.58C395.206 71.46 394.87 71.356 394.502 71.268C394.134 71.18 393.766 71.088 393.398 70.992C393.03 70.888 392.69 70.752 392.378 70.584C392.074 70.416 391.826 70.196 391.634 69.924C391.45 69.644 391.358 69.28 391.358 68.832C391.358 68.416 391.466 68.036 391.682 67.692C391.906 67.34 392.246 67.06 392.702 66.852C393.158 66.636 393.742 66.528 394.454 66.528C394.926 66.528 395.394 66.596 395.858 66.732C396.322 66.86 396.722 67.04 397.058 67.272L396.758 67.98C396.398 67.74 396.014 67.564 395.606 67.452C395.206 67.34 394.818 67.284 394.442 67.284C393.938 67.284 393.522 67.352 393.194 67.488C392.866 67.624 392.622 67.808 392.462 68.04C392.31 68.264 392.234 68.52 392.234 68.808C392.234 69.136 392.326 69.4 392.51 69.6C392.702 69.8 392.95 69.956 393.254 70.068C393.566 70.18 393.906 70.28 394.274 70.368C394.642 70.456 395.006 70.552 395.366 70.656C395.734 70.76 396.07 70.896 396.374 71.064C396.686 71.224 396.934 71.44 397.118 71.712C397.31 71.984 397.406 72.34 397.406 72.78C397.406 73.188 397.294 73.568 397.07 73.92C396.846 74.264 396.502 74.544 396.038 74.76C395.582 74.968 394.994 75.072 394.274 75.072ZM399.161 75V68.7H400.013V75H399.161ZM399.593 67.308C399.417 67.308 399.269 67.248 399.149 67.128C399.029 67.008 398.969 66.864 398.969 66.696C398.969 66.528 399.029 66.388 399.149 66.276C399.269 66.156 399.417 66.096 399.593 66.096C399.769 66.096 399.917 66.152 400.037 66.264C400.157 66.376 400.217 66.516 400.217 66.684C400.217 66.86 400.157 67.008 400.037 67.128C399.925 67.248 399.777 67.308 399.593 67.308ZM404.375 75.06C403.783 75.06 403.327 74.9 403.007 74.58C402.687 74.26 402.527 73.808 402.527 73.224V67.308H403.379V73.176C403.379 73.544 403.471 73.828 403.655 74.028C403.847 74.228 404.119 74.328 404.471 74.328C404.847 74.328 405.159 74.22 405.407 74.004L405.707 74.616C405.539 74.768 405.335 74.88 405.095 74.952C404.863 75.024 404.623 75.06 404.375 75.06ZM401.399 69.408V68.7H405.299V69.408H401.399ZM407.258 75V68.7H408.11V75H407.258ZM407.69 67.308C407.514 67.308 407.366 67.248 407.246 67.128C407.126 67.008 407.066 66.864 407.066 66.696C407.066 66.528 407.126 66.388 407.246 66.276C407.366 66.156 407.514 66.096 407.69 66.096C407.866 66.096 408.014 66.152 408.134 66.264C408.254 66.376 408.314 66.516 408.314 66.684C408.314 66.86 408.254 67.008 408.134 67.128C408.022 67.248 407.874 67.308 407.69 67.308ZM413.049 75.06C412.441 75.06 411.893 74.924 411.405 74.652C410.925 74.372 410.545 73.992 410.265 73.512C409.985 73.024 409.845 72.468 409.845 71.844C409.845 71.212 409.985 70.656 410.265 70.176C410.545 69.696 410.925 69.32 411.405 69.048C411.885 68.776 412.433 68.64 413.049 68.64C413.673 68.64 414.225 68.776 414.705 69.048C415.193 69.32 415.573 69.696 415.845 70.176C416.125 70.656 416.265 71.212 416.265 71.844C416.265 72.468 416.125 73.024 415.845 73.512C415.573 73.992 415.193 74.372 414.705 74.652C414.217 74.924 413.665 75.06 413.049 75.06ZM413.049 74.304C413.505 74.304 413.909 74.204 414.261 74.004C414.613 73.796 414.889 73.508 415.089 73.14C415.297 72.764 415.401 72.332 415.401 71.844C415.401 71.348 415.297 70.916 415.089 70.548C414.889 70.18 414.613 69.896 414.261 69.696C413.909 69.488 413.509 69.384 413.061 69.384C412.613 69.384 412.213 69.488 411.861 69.696C411.509 69.896 411.229 70.18 411.021 70.548C410.813 70.916 410.709 71.348 410.709 71.844C410.709 72.332 410.813 72.764 411.021 73.14C411.229 73.508 411.509 73.796 411.861 74.004C412.213 74.204 412.609 74.304 413.049 74.304ZM419.696 75.06C419.176 75.06 418.684 74.988 418.22 74.844C417.756 74.692 417.392 74.504 417.128 74.28L417.512 73.608C417.768 73.8 418.096 73.968 418.496 74.112C418.896 74.248 419.316 74.316 419.756 74.316C420.356 74.316 420.788 74.224 421.052 74.04C421.316 73.848 421.448 73.596 421.448 73.284C421.448 73.052 421.372 72.872 421.22 72.744C421.076 72.608 420.884 72.508 420.644 72.444C420.404 72.372 420.136 72.312 419.84 72.264C419.544 72.216 419.248 72.16 418.952 72.096C418.664 72.032 418.4 71.94 418.16 71.82C417.92 71.692 417.724 71.52 417.572 71.304C417.428 71.088 417.356 70.8 417.356 70.44C417.356 70.096 417.452 69.788 417.644 69.516C417.836 69.244 418.116 69.032 418.484 68.88C418.86 68.72 419.316 68.64 419.852 68.64C420.26 68.64 420.668 68.696 421.076 68.808C421.484 68.912 421.82 69.052 422.084 69.228L421.712 69.912C421.432 69.72 421.132 69.584 420.812 69.504C420.492 69.416 420.172 69.372 419.852 69.372C419.284 69.372 418.864 69.472 418.592 69.672C418.328 69.864 418.196 70.112 418.196 70.416C418.196 70.656 418.268 70.844 418.412 70.98C418.564 71.116 418.76 71.224 419 71.304C419.248 71.376 419.516 71.436 419.804 71.484C420.1 71.532 420.392 71.592 420.68 71.664C420.976 71.728 421.244 71.82 421.484 71.94C421.732 72.052 421.928 72.216 422.072 72.432C422.224 72.64 422.3 72.916 422.3 73.26C422.3 73.628 422.196 73.948 421.988 74.22C421.788 74.484 421.492 74.692 421.1 74.844C420.716 74.988 420.248 75.06 419.696 75.06Z" fill="#3B4559"/>
<g filter="url(#filter1_d_4064_36362)">
<path d="M104.991 295.261C104.174 295.261 103.475 295.081 102.895 294.72C102.315 294.36 101.872 293.842 101.564 293.165C101.265 292.48 101.116 291.645 101.116 290.661C101.116 289.615 101.3 288.732 101.669 288.012C102.038 287.291 102.552 286.746 103.212 286.377C103.871 286.008 104.626 285.824 105.479 285.824C105.918 285.824 106.335 285.868 106.731 285.955C107.135 286.043 107.482 286.179 107.772 286.364L107.271 287.392C107.034 287.225 106.761 287.111 106.454 287.049C106.155 286.988 105.839 286.957 105.505 286.957C104.565 286.957 103.818 287.251 103.264 287.84C102.711 288.42 102.434 289.286 102.434 290.437C102.434 290.621 102.443 290.841 102.46 291.096C102.478 291.351 102.522 291.601 102.592 291.847L102.144 291.399C102.276 290.995 102.482 290.656 102.763 290.384C103.053 290.103 103.396 289.896 103.791 289.765C104.196 289.624 104.631 289.554 105.096 289.554C105.711 289.554 106.256 289.668 106.731 289.896C107.205 290.125 107.579 290.45 107.851 290.872C108.123 291.285 108.26 291.777 108.26 292.348C108.26 292.937 108.115 293.451 107.825 293.89C107.535 294.329 107.144 294.668 106.652 294.905C106.16 295.142 105.606 295.261 104.991 295.261ZM104.938 294.193C105.342 294.193 105.694 294.118 105.993 293.969C106.3 293.82 106.542 293.613 106.717 293.35C106.893 293.077 106.981 292.761 106.981 292.401C106.981 291.856 106.792 291.425 106.414 291.109C106.036 290.784 105.522 290.621 104.872 290.621C104.45 290.621 104.081 290.7 103.765 290.858C103.449 291.017 103.198 291.232 103.014 291.504C102.838 291.768 102.75 292.071 102.75 292.414C102.75 292.73 102.834 293.024 103.001 293.297C103.168 293.56 103.414 293.776 103.739 293.943C104.064 294.11 104.464 294.193 104.938 294.193ZM113.02 295.261C112.3 295.261 111.654 295.076 111.083 294.707C110.52 294.338 110.072 293.802 109.738 293.099C109.413 292.396 109.251 291.544 109.251 290.542C109.251 289.54 109.413 288.688 109.738 287.985C110.072 287.282 110.52 286.746 111.083 286.377C111.654 286.008 112.3 285.824 113.02 285.824C113.732 285.824 114.373 286.008 114.944 286.377C115.516 286.746 115.964 287.282 116.289 287.985C116.614 288.688 116.777 289.54 116.777 290.542C116.777 291.544 116.614 292.396 116.289 293.099C115.964 293.802 115.516 294.338 114.944 294.707C114.373 295.076 113.732 295.261 113.02 295.261ZM113.02 294.088C113.503 294.088 113.925 293.956 114.285 293.692C114.655 293.429 114.94 293.033 115.142 292.506C115.353 291.979 115.459 291.324 115.459 290.542C115.459 289.76 115.353 289.106 115.142 288.578C114.94 288.051 114.655 287.656 114.285 287.392C113.925 287.128 113.503 286.997 113.02 286.997C112.537 286.997 112.111 287.128 111.742 287.392C111.373 287.656 111.083 288.051 110.872 288.578C110.67 289.106 110.569 289.76 110.569 290.542C110.569 291.324 110.67 291.979 110.872 292.506C111.083 293.033 111.373 293.429 111.742 293.692C112.111 293.956 112.537 294.088 113.02 294.088ZM119.307 295.155L125.607 285.929H126.622L120.322 295.155H119.307ZM120.045 290.885C119.623 290.885 119.25 290.779 118.925 290.569C118.6 290.358 118.345 290.063 118.16 289.685C117.985 289.308 117.897 288.868 117.897 288.367C117.897 287.867 117.985 287.427 118.16 287.049C118.345 286.672 118.6 286.377 118.925 286.166C119.25 285.955 119.623 285.85 120.045 285.85C120.476 285.85 120.849 285.955 121.165 286.166C121.491 286.377 121.741 286.672 121.917 287.049C122.093 287.427 122.18 287.867 122.18 288.367C122.18 288.868 122.093 289.308 121.917 289.685C121.741 290.063 121.491 290.358 121.165 290.569C120.849 290.779 120.476 290.885 120.045 290.885ZM120.045 290.134C120.449 290.134 120.766 289.98 120.994 289.672C121.223 289.356 121.337 288.921 121.337 288.367C121.337 287.814 121.223 287.383 120.994 287.076C120.766 286.759 120.449 286.601 120.045 286.601C119.65 286.601 119.333 286.759 119.096 287.076C118.868 287.383 118.753 287.814 118.753 288.367C118.753 288.912 118.868 289.343 119.096 289.659C119.333 289.975 119.65 290.134 120.045 290.134ZM125.884 295.234C125.462 295.234 125.089 295.129 124.764 294.918C124.439 294.707 124.188 294.413 124.012 294.035C123.837 293.657 123.749 293.218 123.749 292.717C123.749 292.216 123.837 291.777 124.012 291.399C124.188 291.021 124.439 290.727 124.764 290.516C125.089 290.305 125.462 290.199 125.884 290.199C126.315 290.199 126.688 290.305 127.004 290.516C127.329 290.727 127.58 291.021 127.756 291.399C127.94 291.777 128.032 292.216 128.032 292.717C128.032 293.218 127.94 293.657 127.756 294.035C127.58 294.413 127.329 294.707 127.004 294.918C126.688 295.129 126.315 295.234 125.884 295.234ZM125.884 294.483C126.279 294.483 126.591 294.329 126.82 294.022C127.057 293.705 127.176 293.27 127.176 292.717C127.176 292.172 127.057 291.742 126.82 291.425C126.591 291.109 126.279 290.951 125.884 290.951C125.489 290.951 125.172 291.109 124.935 291.425C124.707 291.733 124.592 292.163 124.592 292.717C124.592 293.27 124.707 293.705 124.935 294.022C125.172 294.329 125.489 294.483 125.884 294.483Z" fill="black"/>
<path d="M341.6 293.396H339.847V295.663H338.569V293.396H333.442V292.473L338.16 286.437H339.584L335.063 292.263H338.608V290.259H339.847V292.263H341.6V293.396ZM346.16 295.769C345.431 295.769 344.78 295.584 344.209 295.215C343.647 294.837 343.203 294.292 342.878 293.581C342.553 292.869 342.39 292.025 342.39 291.05C342.39 290.075 342.553 289.231 342.878 288.519C343.203 287.808 343.647 287.267 344.209 286.898C344.78 286.52 345.431 286.331 346.16 286.331C346.88 286.331 347.522 286.52 348.084 286.898C348.655 287.267 349.104 287.808 349.429 288.519C349.754 289.231 349.916 290.075 349.916 291.05C349.916 292.025 349.754 292.869 349.429 293.581C349.104 294.292 348.655 294.837 348.084 295.215C347.522 295.584 346.88 295.769 346.16 295.769ZM346.16 294.595C346.898 294.595 347.487 294.292 347.926 293.686C348.374 293.08 348.598 292.201 348.598 291.05C348.598 289.899 348.374 289.02 347.926 288.414C347.487 287.808 346.898 287.504 346.16 287.504C345.413 287.504 344.816 287.808 344.367 288.414C343.928 289.02 343.708 289.899 343.708 291.05C343.708 292.201 343.928 293.08 344.367 293.686C344.816 294.292 345.413 294.595 346.16 294.595ZM353.185 291.393C352.544 291.393 352.025 291.16 351.63 290.694C351.234 290.228 351.037 289.622 351.037 288.875C351.037 288.128 351.234 287.522 351.63 287.056C352.025 286.591 352.544 286.358 353.185 286.358C353.826 286.358 354.34 286.591 354.727 287.056C355.122 287.513 355.32 288.12 355.32 288.875C355.32 289.631 355.122 290.242 354.727 290.707C354.34 291.164 353.826 291.393 353.185 291.393ZM358.747 286.437H359.762L353.462 295.663H352.447L358.747 286.437ZM353.185 290.641C353.589 290.641 353.905 290.488 354.134 290.18C354.362 289.864 354.477 289.429 354.477 288.875C354.477 288.322 354.362 287.891 354.134 287.584C353.905 287.267 353.589 287.109 353.185 287.109C352.79 287.109 352.473 287.267 352.236 287.584C352.008 287.9 351.893 288.33 351.893 288.875C351.893 289.42 352.008 289.851 352.236 290.167C352.473 290.483 352.79 290.641 353.185 290.641ZM359.024 295.742C358.382 295.742 357.864 295.514 357.469 295.057C357.082 294.591 356.889 293.98 356.889 293.225C356.889 292.469 357.082 291.863 357.469 291.406C357.864 290.94 358.382 290.707 359.024 290.707C359.665 290.707 360.184 290.94 360.579 291.406C360.975 291.872 361.172 292.478 361.172 293.225C361.172 293.972 360.975 294.578 360.579 295.044C360.184 295.509 359.665 295.742 359.024 295.742ZM359.024 294.991C359.419 294.991 359.731 294.833 359.96 294.516C360.197 294.2 360.316 293.77 360.316 293.225C360.316 292.68 360.197 292.249 359.96 291.933C359.731 291.617 359.419 291.459 359.024 291.459C358.62 291.459 358.303 291.617 358.075 291.933C357.846 292.241 357.732 292.671 357.732 293.225C357.732 293.778 357.846 294.213 358.075 294.53C358.303 294.837 358.62 294.991 359.024 294.991Z" fill="black"/>
<ellipse cx="222.765" cy="264.721" rx="43.6493" ry="42.4178" fill="#EEF1F8"/>
<path d="M213.399 277.196C219.565 281.382 228.085 279.912 232.393 273.92C233.686 272.122 234.505 270.024 234.762 267.845L237.193 245.361C237.226 245.062 237.088 244.769 236.834 244.596C236.579 244.423 236.249 244.398 235.97 244.531L215.076 254.489C213.066 255.47 211.321 256.939 210.028 258.738C205.721 264.73 207.233 273.01 213.399 277.196ZM225.116 260.896C228.199 262.989 228.955 267.129 226.802 270.125C224.648 273.121 220.388 273.855 217.305 271.763C214.222 269.67 213.466 265.53 215.619 262.534C217.773 259.538 222.033 258.803 225.116 260.896Z" fill="#285CED"/>
<path d="M87.2267 265.556C87.2267 242.869 93.2186 220.561 104.629 200.769C116.039 180.976 132.486 164.361 152.395 152.513C172.304 140.664 195.009 133.98 218.337 133.1C241.665 132.219 264.835 137.172 285.63 147.484L264.571 187.589C250.839 180.78 235.539 177.51 220.135 178.091C204.731 178.673 189.738 183.086 176.592 190.91C163.445 198.734 152.585 209.705 145.05 222.775C137.516 235.845 133.559 250.575 133.559 265.556H87.2267Z" fill="#285CED"/>
<path d="M360.035 265.555C360.035 242.287 353.733 219.428 341.761 199.277C329.789 179.126 312.569 162.393 291.833 150.759L268.667 189.752C282.36 197.434 293.73 208.484 301.636 221.79C309.541 235.096 313.703 250.19 313.703 265.555H360.035Z" fill="#EEF1F8"/>
</g>
<g filter="url(#filter2_d_4064_36362)">
<g filter="url(#filter3_d_4064_36362)">
<rect x="21" y="63" width="143" height="35" rx="10.4351" fill="white"/>
<rect x="21" y="63" width="143" height="35" rx="10.4351" stroke="#285CED"/>
</g>
<path d="M36.944 86.128C36.0907 86.128 35.2747 86 34.496 85.744C33.7173 85.4773 33.104 85.136 32.656 84.72L33.248 83.472C33.6747 83.8453 34.2187 84.1547 34.88 84.4C35.5413 84.6453 36.2293 84.768 36.944 84.768C37.5947 84.768 38.1227 84.6933 38.528 84.544C38.9333 84.3947 39.232 84.192 39.424 83.936C39.616 83.6693 39.712 83.3707 39.712 83.04C39.712 82.656 39.584 82.3467 39.328 82.112C39.0827 81.8773 38.7573 81.6907 38.352 81.552C37.9573 81.4027 37.52 81.2747 37.04 81.168C36.56 81.0613 36.0747 80.9387 35.584 80.8C35.104 80.6507 34.6613 80.464 34.256 80.24C33.8613 80.016 33.5413 79.7173 33.296 79.344C33.0507 78.96 32.928 78.4693 32.928 77.872C32.928 77.296 33.0773 76.768 33.376 76.288C33.6853 75.7973 34.1547 75.408 34.784 75.12C35.424 74.8213 36.2347 74.672 37.216 74.672C37.8667 74.672 38.512 74.7573 39.152 74.928C39.792 75.0987 40.3467 75.344 40.816 75.664L40.288 76.944C39.808 76.624 39.3013 76.3947 38.768 76.256C38.2347 76.1067 37.7173 76.032 37.216 76.032C36.5867 76.032 36.0693 76.112 35.664 76.272C35.2587 76.432 34.96 76.6453 34.768 76.912C34.5867 77.1787 34.496 77.4773 34.496 77.808C34.496 78.2027 34.6187 78.5173 34.864 78.752C35.12 78.9867 35.4453 79.1733 35.84 79.312C36.2453 79.4507 36.688 79.5787 37.168 79.696C37.648 79.8027 38.128 79.9253 38.608 80.064C39.0987 80.2027 39.5413 80.384 39.936 80.608C40.3413 80.832 40.6667 81.1307 40.912 81.504C41.1573 81.8773 41.28 82.3573 41.28 82.944C41.28 83.5093 41.1253 84.0373 40.816 84.528C40.5067 85.008 40.0267 85.3973 39.376 85.696C38.736 85.984 37.9253 86.128 36.944 86.128ZM43.3935 86V77.52H44.9295V86H43.3935ZM44.1615 75.888C43.8628 75.888 43.6122 75.792 43.4095 75.6C43.2175 75.408 43.1215 75.1733 43.1215 74.896C43.1215 74.608 43.2175 74.368 43.4095 74.176C43.6122 73.984 43.8628 73.888 44.1615 73.888C44.4602 73.888 44.7055 73.984 44.8975 74.176C45.1002 74.3573 45.2015 74.5867 45.2015 74.864C45.2015 75.152 45.1055 75.3973 44.9135 75.6C44.7215 75.792 44.4708 75.888 44.1615 75.888ZM50.7743 86.096C49.9209 86.096 49.2596 85.8667 48.7903 85.408C48.3209 84.9493 48.0863 84.2933 48.0863 83.44V75.664H49.6223V83.376C49.6223 83.8347 49.7343 84.1867 49.9583 84.432C50.1929 84.6773 50.5236 84.8 50.9503 84.8C51.4303 84.8 51.8303 84.6667 52.1503 84.4L52.6303 85.504C52.3956 85.7067 52.1129 85.856 51.7823 85.952C51.4623 86.048 51.1263 86.096 50.7743 86.096ZM46.6463 78.784V77.52H52.0543V78.784H46.6463ZM54.4873 86V77.52H56.0233V86H54.4873ZM55.2553 75.888C54.9566 75.888 54.7059 75.792 54.5033 75.6C54.3113 75.408 54.2153 75.1733 54.2153 74.896C54.2153 74.608 54.3113 74.368 54.5033 74.176C54.7059 73.984 54.9566 73.888 55.2553 73.888C55.5539 73.888 55.7993 73.984 55.9913 74.176C56.1939 74.3573 56.2953 74.5867 56.2953 74.864C56.2953 75.152 56.1993 75.3973 56.0073 75.6C55.8153 75.792 55.5646 75.888 55.2553 75.888ZM62.588 86.096C61.7347 86.096 60.9773 85.9093 60.316 85.536C59.6547 85.1627 59.132 84.6507 58.748 84C58.364 83.3387 58.172 82.592 58.172 81.76C58.172 80.9173 58.364 80.1707 58.748 79.52C59.132 78.8693 59.6547 78.3627 60.316 78C60.9773 77.6267 61.7347 77.44 62.588 77.44C63.4307 77.44 64.1827 77.6267 64.844 78C65.516 78.3627 66.0387 78.8693 66.412 79.52C66.796 80.16 66.988 80.9067 66.988 81.76C66.988 82.6027 66.796 83.3493 66.412 84C66.0387 84.6507 65.516 85.1627 64.844 85.536C64.1827 85.9093 63.4307 86.096 62.588 86.096ZM62.588 84.752C63.132 84.752 63.6173 84.6293 64.044 84.384C64.4813 84.1387 64.8227 83.792 65.068 83.344C65.3133 82.8853 65.436 82.3573 65.436 81.76C65.436 81.152 65.3133 80.6293 65.068 80.192C64.8227 79.744 64.4813 79.3973 64.044 79.152C63.6173 78.9067 63.132 78.784 62.588 78.784C62.044 78.784 61.5587 78.9067 61.132 79.152C60.7053 79.3973 60.364 79.744 60.108 80.192C59.852 80.6293 59.724 81.152 59.724 81.76C59.724 82.3573 59.852 82.8853 60.108 83.344C60.364 83.792 60.7053 84.1387 61.132 84.384C61.5587 84.6293 62.044 84.752 62.588 84.752ZM71.5443 86.096C70.8403 86.096 70.1683 86 69.5283 85.808C68.8989 85.616 68.4029 85.3813 68.0403 85.104L68.6803 83.888C69.0429 84.1333 69.4909 84.3413 70.0243 84.512C70.5576 84.6827 71.1016 84.768 71.6562 84.768C72.3709 84.768 72.8829 84.6667 73.1923 84.464C73.5123 84.2613 73.6723 83.9787 73.6723 83.616C73.6723 83.3493 73.5763 83.1413 73.3843 82.992C73.1923 82.8427 72.9363 82.7307 72.6163 82.656C72.3069 82.5813 71.9603 82.5173 71.5763 82.464C71.1923 82.4 70.8083 82.3253 70.4243 82.24C70.0403 82.144 69.6883 82.016 69.3683 81.856C69.0483 81.6853 68.7923 81.456 68.6003 81.168C68.4083 80.8693 68.3123 80.4747 68.3123 79.984C68.3123 79.472 68.4563 79.024 68.7443 78.64C69.0323 78.256 69.4376 77.9627 69.9603 77.76C70.4936 77.5467 71.1229 77.44 71.8483 77.44C72.4029 77.44 72.9629 77.5093 73.5283 77.648C74.1043 77.776 74.5736 77.9627 74.9363 78.208L74.2803 79.424C73.8963 79.168 73.4963 78.992 73.0803 78.896C72.6643 78.8 72.2483 78.752 71.8323 78.752C71.1603 78.752 70.6589 78.864 70.3283 79.088C69.9976 79.3013 69.8323 79.5787 69.8323 79.92C69.8323 80.208 69.9283 80.432 70.1203 80.592C70.3229 80.7413 70.5789 80.8587 70.8883 80.944C71.2083 81.0293 71.5603 81.104 71.9443 81.168C72.3283 81.2213 72.7123 81.296 73.0963 81.392C73.4803 81.4773 73.8269 81.6 74.1363 81.76C74.4563 81.92 74.7123 82.144 74.9043 82.432C75.1069 82.72 75.2083 83.104 75.2083 83.584C75.2083 84.096 75.0589 84.5387 74.7603 84.912C74.4616 85.2853 74.0403 85.5787 73.4963 85.792C72.9523 85.9947 72.3016 86.096 71.5443 86.096Z" fill="#285CED"/>
<path d="M152.787 79H146.201C145.756 79 145.533 79.5386 145.848 79.8536L149.141 83.1464C149.336 83.3417 149.652 83.3417 149.848 83.1464L153.141 79.8536C153.456 79.5386 153.232 79 152.787 79Z" fill="#285CED"/>
</g>
<defs>
<filter id="filter0_d_4064_36362" x="0" y="0" width="489" height="468" filterUnits="userSpaceOnUse" color-interpolation-filters="sRGB">
<feFlood flood-opacity="0" result="BackgroundImageFix"/>
<feColorMatrix in="SourceAlpha" type="matrix" values="0 0 0 0 0 0 0 0 0 0 0 0 0 0 0 0 0 0 127 0" result="hardAlpha"/>
<feOffset dy="4"/>
<feGaussianBlur stdDeviation="2"/>
<feComposite in2="hardAlpha" operator="out"/>
<feColorMatrix type="matrix" values="0 0 0 0 0 0 0 0 0 0 0 0 0 0 0 0 0 0 0.25 0"/>
<feBlend mode="normal" in2="BackgroundImageFix" result="effect1_dropShadow_4064_36362"/>
<feBlend mode="normal" in="SourceGraphic" in2="effect1_dropShadow_4064_36362" result="shape"/>
</filter>
<filter id="filter1_d_4064_36362" x="83.2267" y="133" width="281.945" height="182.14" filterUnits="userSpaceOnUse" color-interpolation-filters="sRGB">
<feFlood flood-opacity="0" result="BackgroundImageFix"/>
<feColorMatrix in="SourceAlpha" type="matrix" values="0 0 0 0 0 0 0 0 0 0 0 0 0 0 0 0 0 0 127 0" result="hardAlpha"/>
<feOffset dy="4"/>
<feGaussianBlur stdDeviation="2"/>
<feComposite in2="hardAlpha" operator="out"/>
<feColorMatrix type="matrix" values="0 0 0 0 0 0 0 0 0 0 0 0 0 0 0 0 0 0 0.25 0"/>
<feBlend mode="normal" in2="BackgroundImageFix" result="effect1_dropShadow_4064_36362"/>
<feBlend mode="normal" in="SourceGraphic" in2="effect1_dropShadow_4064_36362" result="shape"/>
</filter>
<filter id="filter2_d_4064_36362" x="16.5" y="62.5" width="152" height="44" filterUnits="userSpaceOnUse" color-interpolation-filters="sRGB">
<feFlood flood-opacity="0" result="BackgroundImageFix"/>
<feColorMatrix in="SourceAlpha" type="matrix" values="0 0 0 0 0 0 0 0 0 0 0 0 0 0 0 0 0 0 127 0" result="hardAlpha"/>
<feOffset dy="4"/>
<feGaussianBlur stdDeviation="2"/>
<feComposite in2="hardAlpha" operator="out"/>
<feColorMatrix type="matrix" values="0 0 0 0 0 0 0 0 0 0 0 0 0 0 0 0 0 0 0.25 0"/>
<feBlend mode="normal" in2="BackgroundImageFix" result="effect1_dropShadow_4064_36362"/>
<feBlend mode="normal" in="SourceGraphic" in2="effect1_dropShadow_4064_36362" result="shape"/>
</filter>
<filter id="filter3_d_4064_36362" x="16.5" y="62.5" width="152" height="44" filterUnits="userSpaceOnUse" color-interpolation-filters="sRGB">
<feFlood flood-opacity="0" result="BackgroundImageFix"/>
<feColorMatrix in="SourceAlpha" type="matrix" values="0 0 0 0 0 0 0 0 0 0 0 0 0 0 0 0 0 0 127 0" result="hardAlpha"/>
<feOffset dy="4"/>
<feGaussianBlur stdDeviation="2"/>
<feComposite in2="hardAlpha" operator="out"/>
<feColorMatrix type="matrix" values="0 0 0 0 0 0 0 0 0 0 0 0 0 0 0 0 0 0 0.25 0"/>
<feBlend mode="normal" in2="BackgroundImageFix" result="effect1_dropShadow_4064_36362"/>
<feBlend mode="normal" in="SourceGraphic" in2="effect1_dropShadow_4064_36362" result="shape"/>
</filter>
</defs>
</svg>
