<svg width="20" height="20" viewBox="0 0 20 20" fill="none" xmlns="http://www.w3.org/2000/svg">
<path fill-rule="evenodd" clip-rule="evenodd" d="M9.99996 0.666016C4.84796 0.666016 0.666626 4.84735 0.666626 9.99935C0.666626 15.1514 4.84796 19.3327 9.99996 19.3327C15.152 19.3327 19.3333 15.1514 19.3333 9.99935C19.3333 4.84735 15.152 0.666016 9.99996 0.666016ZM13.7333 10.9327H10.9333V13.7327C10.9333 14.246 10.5133 14.666 9.99996 14.666C9.48663 14.666 9.06663 14.246 9.06663 13.7327V10.9327H6.26663C5.75329 10.9327 5.33329 10.5127 5.33329 9.99935C5.33329 9.48602 5.75329 9.06602 6.26663 9.06602H9.06663V6.26602C9.06663 5.75268 9.48663 5.33268 9.99996 5.33268C10.5133 5.33268 10.9333 5.75268 10.9333 6.26602V9.06602H13.7333C14.2466 9.06602 14.6666 9.48602 14.6666 9.99935C14.6666 10.5127 14.2466 10.9327 13.7333 10.9327Z" fill="#285CED"/>
</svg>
