<svg width="24" height="24" viewBox="0 0 24 24" fill="none" xmlns="http://www.w3.org/2000/svg">
<path d="M0.5 12C0.5 12.663 0.763392 13.2989 1.23223 13.7678C1.70107 14.2366 2.33696 14.5 3 14.5C3.66304 14.5 4.29893 14.2366 4.76777 13.7678C5.23661 13.2989 5.5 12.663 5.5 12C5.5 11.337 5.23661 10.7011 4.76777 10.2322C4.29893 9.76339 3.66304 9.5 3 9.5C2.33696 9.5 1.70107 9.76339 1.23223 10.2322C0.763392 10.7011 0.5 11.337 0.5 12Z" fill="#285CED" stroke="#285CED" stroke-linecap="round" stroke-linejoin="round"/>
<path d="M9.5 12C9.5 12.663 9.76339 13.2989 10.2322 13.7678C10.7011 14.2366 11.337 14.5 12 14.5C12.663 14.5 13.2989 14.2366 13.7678 13.7678C14.2366 13.2989 14.5 12.663 14.5 12C14.5 11.337 14.2366 10.7011 13.7678 10.2322C13.2989 9.76339 12.663 9.5 12 9.5C11.337 9.5 10.7011 9.76339 10.2322 10.2322C9.76339 10.7011 9.5 11.337 9.5 12Z" fill="#285CED" stroke="#285CED" stroke-linecap="round" stroke-linejoin="round"/>
<path d="M18.5 12C18.5 12.663 18.7634 13.2989 19.2322 13.7678C19.7011 14.2366 20.337 14.5 21 14.5C21.663 14.5 22.2989 14.2366 22.7678 13.7678C23.2366 13.2989 23.5 12.663 23.5 12C23.5 11.337 23.2366 10.7011 22.7678 10.2322C22.2989 9.76339 21.663 9.5 21 9.5C20.337 9.5 19.7011 9.76339 19.2322 10.2322C18.7634 10.7011 18.5 11.337 18.5 12Z" fill="#285CED" stroke="#285CED" stroke-linecap="round" stroke-linejoin="round"/>
</svg>
