<svg width="25" height="26" viewBox="0 0 25 26" fill="none" xmlns="http://www.w3.org/2000/svg">
<path d="M23.38 16.1204L15.75 23.7504L12 24.5004L12.75 20.7504L20.38 13.1204C20.5763 12.9237 20.8095 12.7677 21.0662 12.6612C21.3229 12.5548 21.5981 12.5 21.876 12.5C22.1539 12.5 22.4291 12.5548 22.6858 12.6612C22.9425 12.7677 23.1757 12.9237 23.372 13.1204L23.38 13.1284C23.5767 13.3247 23.7327 13.5579 23.8391 13.8146C23.9456 14.0713 24.0004 14.3465 24.0004 14.6244C24.0004 14.9022 23.9456 15.1774 23.8391 15.4341C23.7327 15.6908 23.5767 15.924 23.38 16.1204Z" stroke="#3B4559" stroke-width="1.5" stroke-linecap="round" stroke-linejoin="round"/>
<path d="M9 24.5H2C1.73478 24.5 1.48043 24.3946 1.29289 24.2071C1.10536 24.0196 1 23.7652 1 23.5V2.5C1 2.23478 1.10536 1.98043 1.29289 1.79289C1.48043 1.60536 1.73478 1.5 2 1.5H15.293C15.5582 1.50006 15.8125 1.60545 16 1.793L19.707 5.5C19.8946 5.68749 19.9999 5.9418 20 6.207V9.5" stroke="#3B4559" stroke-width="1.5" stroke-linecap="round" stroke-linejoin="round"/>
</svg>
