<svg width="45" height="46" viewBox="0 0 45 46" fill="none" xmlns="http://www.w3.org/2000/svg">
<rect y="0.5" width="45" height="45" rx="10" fill="#285CED"/>
<path fill-rule="evenodd" clip-rule="evenodd" d="M12 17.8571C12 15.7269 13.7269 14 15.8571 14H30.4286C32.5587 14 34.2857 15.7269 34.2857 17.8571V19.8515C34.2857 20.0224 34.1841 20.177 34.0272 20.2449C32.9611 20.7057 32.2166 21.7664 32.2166 23C32.2166 24.2336 32.9611 25.2942 34.0272 25.7551C34.1841 25.823 34.2857 25.9776 34.2857 26.1485V28.1429C34.2857 30.2731 32.5587 32.0001 30.4286 32.0001H15.8571C13.7269 32.0001 12 30.2731 12 28.1429V26.1486C12 25.9776 12.1016 25.8231 12.2585 25.7552C13.3247 25.2944 14.0694 24.2337 14.0694 23C14.0694 21.7663 13.3247 20.7056 12.2585 20.2448C12.1016 20.1769 12 20.0223 12 19.8514V17.8571ZM27.6429 22.5214C27.6429 21.9297 27.1632 21.45 26.5714 21.45C25.9797 21.45 25.5 21.9297 25.5 22.5214V23.4794C25.5 24.0712 25.9797 24.5508 26.5714 24.5508C27.1632 24.5508 27.6429 24.0712 27.6429 23.4794V22.5214ZM26.5714 16.1809C27.1632 16.1809 27.6429 16.6606 27.6429 17.2524V18.2104C27.6429 18.8021 27.1632 19.2818 26.5714 19.2818C25.9797 19.2818 25.5 18.8021 25.5 18.2104V17.2524C25.5 16.6606 25.9797 16.1809 26.5714 16.1809ZM27.6429 27.7905C27.6429 27.1987 27.1632 26.719 26.5714 26.719C25.9797 26.719 25.5 27.1987 25.5 27.7905V28.7484C25.5 29.3402 25.9797 29.8198 26.5714 29.8198C27.1632 29.8198 27.6429 29.3402 27.6429 28.7484V27.7905Z" fill="white"/>
</svg>
