<svg width="24" height="16" viewBox="0 0 24 16" fill="none" xmlns="http://www.w3.org/2000/svg">
<path d="M17 7.99977C18.4359 7.99977 19.6001 6.83577 19.6001 5.39983C19.6001 3.96389 18.4359 2.7998 17 2.7998C15.5641 2.7998 14.3999 3.96389 14.3999 5.39983C14.3999 6.83577 15.5641 7.99977 17 7.99977Z" fill="#7B8AA0"/>
<path fill-rule="evenodd" clip-rule="evenodd" d="M8 0C5.79086 0 4 1.79086 4 4C4 6.20914 5.79086 8 8 8C10.2091 8 12 6.20914 12 4C12 1.79086 10.2091 0 8 0ZM8.00001 9C4.36098 9 1.18963 11.3825 0.0546339 14.674C-0.0507464 14.9796 -0.00189881 15.3173 0.185762 15.5805C0.373422 15.8437 0.676745 16 1.00001 16H15C15.3233 16 15.6266 15.8437 15.8143 15.5805C16.0019 15.3173 16.0508 14.9796 15.9454 14.674C14.8104 11.3825 11.639 9 8.00001 9ZM17 9.7001C16.6 9.7001 16.2384 9.9385 16.0809 10.3062C15.9233 10.6737 16.0002 11.1001 16.2759 11.3897L16.2866 11.4014C16.2972 11.4129 16.3145 11.4319 16.3375 11.4578C16.3835 11.5097 16.4521 11.5892 16.5357 11.6924C16.7038 11.8997 16.9284 12.1974 17.152 12.5551C17.6153 13.2964 18 14.1782 18 15.0001C18 15.5523 18.4477 16.0001 19 16.0001H23C23.3256 16.0001 23.6309 15.8415 23.8181 15.5751C24.0054 15.3087 24.0512 14.9677 23.9409 14.6613C22.9099 11.7975 20.2557 9.7001 17 9.7001Z" fill="#7B8AA0"/>
</svg>
