<svg width="45" height="46" viewBox="0 0 45 46" fill="none" xmlns="http://www.w3.org/2000/svg">
<rect y="0.5" width="45" height="45" rx="10" fill="#285CED"/>
<path d="M28 22.9998C29.4359 22.9998 30.6001 21.8358 30.6001 20.3998C30.6001 18.9639 29.4359 17.7998 28 17.7998C26.5641 17.7998 25.3999 18.9639 25.3999 20.3998C25.3999 21.8358 26.5641 22.9998 28 22.9998Z" fill="white"/>
<path fill-rule="evenodd" clip-rule="evenodd" d="M19 15C16.7909 15 15 16.7909 15 19C15 21.2091 16.7909 23 19 23C21.2091 23 23 21.2091 23 19C23 16.7909 21.2091 15 19 15ZM19 24C15.361 24 12.1896 26.3825 11.0546 29.674C10.9493 29.9796 10.9981 30.3173 11.1858 30.5805C11.3734 30.8437 11.6767 31 12 31H26C26.3233 31 26.6266 30.8437 26.8143 30.5805C27.0019 30.3173 27.0508 29.9796 26.9454 29.674C25.8104 26.3825 22.639 24 19 24ZM28 24.7001C27.6 24.7001 27.2384 24.9385 27.0809 25.3062C26.9233 25.6737 27.0002 26.1001 27.2759 26.3897L27.2866 26.4014C27.2972 26.4129 27.3145 26.4319 27.3375 26.4578C27.3835 26.5097 27.4521 26.5892 27.5357 26.6924C27.7038 26.8997 27.9284 27.1974 28.152 27.5551C28.6153 28.2964 29 29.1782 29 30.0001C29 30.5523 29.4477 31.0001 30 31.0001H34C34.3256 31.0001 34.6309 30.8415 34.8181 30.5751C35.0054 30.3087 35.0512 29.9677 34.9409 29.6613C33.9099 26.7975 31.2557 24.7001 28 24.7001Z" fill="white"/>
</svg>
