<svg width="23" height="18" viewBox="0 0 23 18" fill="none" xmlns="http://www.w3.org/2000/svg">
<path fill-rule="evenodd" clip-rule="evenodd" d="M0.5 3.85714C0.5 1.7269 2.2269 0 4.35714 0H18.9286C21.0587 0 22.7857 1.7269 22.7857 3.85714V5.85147C22.7857 6.02242 22.6841 6.17702 22.5272 6.24485C21.4611 6.70574 20.7166 7.7664 20.7166 9C20.7166 10.2336 21.4611 11.2942 22.5272 11.7551C22.6841 11.823 22.7857 11.9776 22.7857 12.1485V14.1429C22.7857 16.2731 21.0587 18.0001 18.9286 18.0001H4.35714C2.2269 18.0001 0.5 16.2731 0.5 14.1429V12.1486C0.5 11.9776 0.601602 11.8231 0.758526 11.7552C1.82468 11.2944 2.5694 10.2337 2.5694 9C2.5694 7.76631 1.82468 6.70562 0.758526 6.24477C0.601602 6.17695 0.5 6.02234 0.5 5.85139V3.85714ZM16.1429 8.52141C16.1429 7.92967 15.6632 7.44998 15.0714 7.44998C14.4797 7.44998 14 7.92967 14 8.52141V9.47942C14 10.0712 14.4797 10.5508 15.0714 10.5508C15.6632 10.5508 16.1429 10.0712 16.1429 9.47942V8.52141ZM15.0714 2.18093C15.6632 2.18093 16.1429 2.66062 16.1429 3.25236V4.21037C16.1429 4.80211 15.6632 5.2818 15.0714 5.2818C14.4797 5.2818 14 4.80211 14 4.21037V3.25236C14 2.66062 14.4797 2.18093 15.0714 2.18093ZM16.1429 13.7905C16.1429 13.1987 15.6632 12.719 15.0714 12.719C14.4797 12.719 14 13.1987 14 13.7905V14.7484C14 15.3402 14.4797 15.8198 15.0714 15.8198C15.6632 15.8198 16.1429 15.3402 16.1429 14.7484V13.7905Z" fill="#7B8AA0"/>
</svg>
