<svg width="40" height="40" viewBox="0 0 40 40" fill="none" xmlns="http://www.w3.org/2000/svg">
<rect x="0.5" y="0.5" width="39" height="39" rx="9.5" stroke="#285CED"/>
<path d="M10.3153 16.6359L10.0708 17.345L10.3153 16.6359ZM10.3153 21.3641L10.0708 20.655L10.3153 21.3641ZM29.6847 21.3641L29.9292 20.655L29.6847 21.3641ZM29.6847 16.6359L29.4403 15.9269L29.6847 16.6359ZM14 10.25C11.3766 10.25 9.25 12.3766 9.25 15H10.75C10.75 13.2051 12.2051 11.75 14 11.75V10.25ZM26 10.25H14V11.75H26V10.25ZM30.75 15C30.75 12.3766 28.6234 10.25 26 10.25V11.75C27.7949 11.75 29.25 13.2051 29.25 15H30.75ZM30.75 16.223V15H29.25V16.223H30.75ZM28.75 19C28.75 18.2345 29.242 17.5819 29.9292 17.345L29.4403 15.9269C28.1667 16.366 27.25 17.575 27.25 19H28.75ZM29.9292 20.655C29.242 20.4181 28.75 19.7655 28.75 19H27.25C27.25 20.425 28.1667 21.634 29.4403 22.0731L29.9292 20.655ZM30.75 23V21.777H29.25V23H30.75ZM26 27.75C28.6234 27.75 30.75 25.6234 30.75 23H29.25C29.25 24.7949 27.7949 26.25 26 26.25V27.75ZM14 27.75H26V26.25H14V27.75ZM9.25 23C9.25 25.6234 11.3766 27.75 14 27.75V26.25C12.2051 26.25 10.75 24.7949 10.75 23H9.25ZM9.25 21.777V23H10.75V21.777H9.25ZM10.5597 22.0731C11.8333 21.634 12.75 20.425 12.75 19H11.25C11.25 19.7655 10.758 20.4181 10.0708 20.655L10.5597 22.0731ZM12.75 19C12.75 17.575 11.8333 16.366 10.5597 15.9269L10.0708 17.345C10.758 17.5819 11.25 18.2345 11.25 19H12.75ZM9.25 15V16.223H10.75V15H9.25ZM10.5597 15.9269C10.6265 15.9499 10.75 16.038 10.75 16.223H9.25C9.25 16.7886 9.64428 17.1979 10.0708 17.345L10.5597 15.9269ZM10.75 21.777C10.75 21.962 10.6265 22.0501 10.5597 22.0731L10.0708 20.655C9.64428 20.8021 9.25 21.2114 9.25 21.777H10.75ZM29.4403 22.0731C29.3735 22.0501 29.25 21.962 29.25 21.777H30.75C30.75 21.2114 30.3557 20.8021 29.9292 20.655L29.4403 22.0731ZM29.25 16.223C29.25 16.038 29.3735 15.9499 29.4403 15.9269L29.9292 17.345C30.3557 17.1979 30.75 16.7886 30.75 16.223H29.25Z" fill="#285CED"/>
<path d="M21.9286 14L21.9286 11" stroke="#285CED" stroke-width="1.5" stroke-linecap="round" stroke-linejoin="round"/>
<path d="M21.9286 20.5L21.9286 17.5" stroke="#285CED" stroke-width="1.5" stroke-linecap="round" stroke-linejoin="round"/>
<path d="M21.9286 27L21.9286 24" stroke="#285CED" stroke-width="1.5" stroke-linecap="round" stroke-linejoin="round"/>
</svg>
