<svg width="25" height="34" viewBox="0 0 25 34" fill="none" xmlns="http://www.w3.org/2000/svg">
<g filter="url(#filter0_d_3338_33837)">
<path d="M12.4709 24.6717L12.4707 24.6714L5.52492 12.5675C5.52453 12.5668 5.52413 12.5661 5.52374 12.5654C4.90391 11.4594 4.58002 10.2133 4.58326 8.95784C4.59407 4.78032 8.15335 1.34546 12.5604 1.34546C16.9674 1.34546 20.5089 4.78032 20.4981 8.95779C20.4949 10.2134 20.1644 11.4596 19.5415 12.5615C19.5411 12.5622 19.5407 12.5629 19.5403 12.5636L12.5294 24.6714L12.5292 24.6717C12.5291 24.6718 12.5288 24.6723 12.5279 24.6733C12.5275 24.6736 12.527 24.6741 12.5264 24.6745C12.5255 24.6753 12.5242 24.6762 12.5226 24.6771C12.5174 24.68 12.5096 24.6825 12.5 24.6825C12.4904 24.6825 12.4827 24.68 12.4774 24.6771C12.4749 24.6756 12.4732 24.6742 12.4722 24.6733C12.4713 24.6723 12.4709 24.6718 12.4709 24.6717ZM7.812 8.95784C7.80545 11.4899 9.94092 13.514 12.5289 13.514C15.1169 13.514 17.2628 11.4899 17.2694 8.95784C17.2759 6.42573 15.1404 4.40167 12.5525 4.40167C9.96449 4.40167 7.81855 6.42573 7.812 8.95784Z" fill="#FC8A2E" stroke="#CB2B00"/>
</g>
<defs>
<filter id="filter0_d_3338_33837" x="0.083252" y="0.845459" width="24.9149" height="32.3372" filterUnits="userSpaceOnUse" color-interpolation-filters="sRGB">
<feFlood flood-opacity="0" result="BackgroundImageFix"/>
<feColorMatrix in="SourceAlpha" type="matrix" values="0 0 0 0 0 0 0 0 0 0 0 0 0 0 0 0 0 0 127 0" result="hardAlpha"/>
<feOffset dy="4"/>
<feGaussianBlur stdDeviation="2"/>
<feComposite in2="hardAlpha" operator="out"/>
<feColorMatrix type="matrix" values="0 0 0 0 0 0 0 0 0 0 0 0 0 0 0 0 0 0 0.25 0"/>
<feBlend mode="normal" in2="BackgroundImageFix" result="effect1_dropShadow_3338_33837"/>
<feBlend mode="normal" in="SourceGraphic" in2="effect1_dropShadow_3338_33837" result="shape"/>
</filter>
</defs>
</svg>
