<svg width="45" height="20" viewBox="0 0 45 20" fill="none" xmlns="http://www.w3.org/2000/svg">
<rect width="45" height="20" rx="8" fill="#3B4559"/>
<path d="M7.53941 14V7H10.5594C11.3394 7 11.9427 7.15667 12.3694 7.47C12.8027 7.78333 13.0194 8.22667 13.0194 8.8C13.0194 9.18 12.9294 9.5 12.7494 9.76C12.5761 10.02 12.3361 10.2167 12.0294 10.35C11.7294 10.4833 11.3994 10.55 11.0394 10.55L11.2094 10.31C11.6561 10.31 12.0394 10.38 12.3594 10.52C12.6861 10.6533 12.9394 10.8567 13.1194 11.13C13.2994 11.3967 13.3894 11.73 13.3894 12.13C13.3894 12.7233 13.1694 13.1833 12.7294 13.51C12.2961 13.8367 11.6394 14 10.7594 14H7.53941ZM8.27941 13.39H10.7494C11.3627 13.39 11.8327 13.2867 12.1594 13.08C12.4861 12.8667 12.6494 12.53 12.6494 12.07C12.6494 11.6167 12.4861 11.2867 12.1594 11.08C11.8327 10.8667 11.3627 10.76 10.7494 10.76H8.19941V10.15H10.5094C11.0694 10.15 11.5027 10.0433 11.8094 9.83C12.1227 9.61667 12.2794 9.3 12.2794 8.88C12.2794 8.45333 12.1227 8.13667 11.8094 7.93C11.5027 7.71667 11.0694 7.61 10.5094 7.61H8.27941V13.39ZM17.0685 14.05C16.5618 14.05 16.1051 13.9367 15.6985 13.71C15.2985 13.4767 14.9818 13.16 14.7485 12.76C14.5151 12.3533 14.3985 11.89 14.3985 11.37C14.3985 10.8433 14.5151 10.38 14.7485 9.98C14.9818 9.58 15.2985 9.26667 15.6985 9.04C16.0985 8.81333 16.5551 8.7 17.0685 8.7C17.5885 8.7 18.0485 8.81333 18.4485 9.04C18.8551 9.26667 19.1718 9.58 19.3985 9.98C19.6318 10.38 19.7485 10.8433 19.7485 11.37C19.7485 11.89 19.6318 12.3533 19.3985 12.76C19.1718 13.16 18.8551 13.4767 18.4485 13.71C18.0418 13.9367 17.5818 14.05 17.0685 14.05ZM17.0685 13.42C17.4485 13.42 17.7851 13.3367 18.0785 13.17C18.3718 12.9967 18.6018 12.7567 18.7685 12.45C18.9418 12.1367 19.0285 11.7767 19.0285 11.37C19.0285 10.9567 18.9418 10.5967 18.7685 10.29C18.6018 9.98333 18.3718 9.74667 18.0785 9.58C17.7851 9.40667 17.4518 9.32 17.0785 9.32C16.7051 9.32 16.3718 9.40667 16.0785 9.58C15.7851 9.74667 15.5518 9.98333 15.3785 10.29C15.2051 10.5967 15.1185 10.9567 15.1185 11.37C15.1185 11.7767 15.2051 12.1367 15.3785 12.45C15.5518 12.7567 15.7851 12.9967 16.0785 13.17C16.3718 13.3367 16.7018 13.42 17.0685 13.42ZM21.198 14V8.75H21.878V10.18L21.808 9.93C21.9547 9.53 22.2013 9.22667 22.548 9.02C22.8947 8.80667 23.3247 8.7 23.838 8.7V9.39C23.8113 9.39 23.7847 9.39 23.758 9.39C23.7313 9.38333 23.7047 9.38 23.678 9.38C23.1247 9.38 22.6913 9.55 22.378 9.89C22.0647 10.2233 21.908 10.7 21.908 11.32V14H21.198ZM25.1336 14V8.75H25.8136V10.18L25.7436 9.93C25.8902 9.53 26.1369 9.22667 26.4836 9.02C26.8302 8.80667 27.2602 8.7 27.7736 8.7V9.39C27.7469 9.39 27.7202 9.39 27.6936 9.39C27.6669 9.38333 27.6402 9.38 27.6136 9.38C27.0602 9.38 26.6269 9.55 26.3136 9.89C26.0002 10.2233 25.8436 10.7 25.8436 11.32V14H25.1336ZM31.9685 14V12.84L31.9385 12.65V10.71C31.9385 10.2633 31.8118 9.92 31.5585 9.68C31.3118 9.44 30.9418 9.32 30.4485 9.32C30.1085 9.32 29.7851 9.37667 29.4785 9.49C29.1718 9.60333 28.9118 9.75333 28.6985 9.94L28.3785 9.41C28.6451 9.18333 28.9651 9.01 29.3385 8.89C29.7118 8.76333 30.1051 8.7 30.5185 8.7C31.1985 8.7 31.7218 8.87 32.0885 9.21C32.4618 9.54333 32.6485 10.0533 32.6485 10.74V14H31.9685ZM30.1585 14.05C29.7651 14.05 29.4218 13.9867 29.1285 13.86C28.8418 13.7267 28.6218 13.5467 28.4685 13.32C28.3151 13.0867 28.2385 12.82 28.2385 12.52C28.2385 12.2467 28.3018 12 28.4285 11.78C28.5618 11.5533 28.7751 11.3733 29.0685 11.24C29.3685 11.1 29.7685 11.03 30.2685 11.03H32.0785V11.56H30.2885C29.7818 11.56 29.4285 11.65 29.2285 11.83C29.0351 12.01 28.9385 12.2333 28.9385 12.5C28.9385 12.8 29.0551 13.04 29.2885 13.22C29.5218 13.4 29.8485 13.49 30.2685 13.49C30.6685 13.49 31.0118 13.4 31.2985 13.22C31.5918 13.0333 31.8051 12.7667 31.9385 12.42L32.0985 12.91C31.9651 13.2567 31.7318 13.5333 31.3985 13.74C31.0718 13.9467 30.6585 14.05 30.1585 14.05ZM34.5769 14V8.75H35.2569V10.18L35.1869 9.93C35.3336 9.53 35.5802 9.22667 35.9269 9.02C36.2736 8.80667 36.7036 8.7 37.2169 8.7V9.39C37.1902 9.39 37.1636 9.39 37.1369 9.39C37.1102 9.38333 37.0836 9.38 37.0569 9.38C36.5036 9.38 36.0702 9.55 35.7569 9.89C35.4436 10.2233 35.2869 10.7 35.2869 11.32V14H34.5769Z" fill="white"/>
</svg>
