<svg width="23" height="25" viewBox="0 0 23 25" fill="none" xmlns="http://www.w3.org/2000/svg">
<path d="M16.5 7.00195H6.5C5.94772 7.00195 5.5 7.44967 5.5 8.00195V15.002C5.5 15.5542 5.94772 16.002 6.5 16.002H16.5C17.0523 16.002 17.5 15.5542 17.5 15.002V8.00195C17.5 7.44967 17.0523 7.00195 16.5 7.00195Z" stroke="#81D871" stroke-linecap="round" stroke-linejoin="round"/>
<path d="M5.5 13.002H17.5" stroke="#81D871" stroke-linecap="round" stroke-linejoin="round"/>
<path d="M5.5 10.002H17.5" stroke="#81D871" stroke-linecap="round" stroke-linejoin="round"/>
<path d="M11.5 13.502V16.002" stroke="#81D871" stroke-linecap="round" stroke-linejoin="round"/>
<path d="M9.5 10.002V13.002" stroke="#81D871" stroke-linecap="round" stroke-linejoin="round"/>
<path d="M11.5 7.00195V10.002" stroke="#81D871" stroke-linecap="round" stroke-linejoin="round"/>
<path d="M13.5 10.002V13.002" stroke="#81D871" stroke-linecap="round" stroke-linejoin="round"/>
<path d="M1 4.27116V11.9112C1.02891 14.4351 1.833 16.8892 3.30335 18.9409C4.77369 20.9926 6.83919 22.5427 9.22 23.3812L10.34 23.7912C11.088 24.0711 11.912 24.0711 12.66 23.7912L13.78 23.3812C16.1608 22.5427 18.2263 20.9926 19.6967 18.9409C21.167 16.8892 21.9711 14.4351 22 11.9112V4.27116C21.9985 3.9725 21.9097 3.6808 21.7445 3.43203C21.5792 3.18325 21.3447 2.98828 21.07 2.87116C18.0398 1.60522 14.7838 0.968982 11.5 1.00116C8.21619 0.968982 4.96016 1.60522 1.93 2.87116C1.65526 2.98828 1.4208 3.18325 1.25555 3.43203C1.09029 3.6808 1.00145 3.9725 1 4.27116V4.27116Z" stroke="#81D871" stroke-linecap="round" stroke-linejoin="round"/>
</svg>
