<svg width="25" height="22" viewBox="0 0 25 22" fill="none" xmlns="http://www.w3.org/2000/svg">
<path d="M24 15.5C24 14.9696 23.7893 14.4609 23.4142 14.0858C23.0391 13.7107 22.5304 13.5 22 13.5H3C2.46957 13.5 1.96086 13.7107 1.58579 14.0858C1.21071 14.4609 1 14.9696 1 15.5V17.5C1 18.0304 1.21071 18.5391 1.58579 18.9142C1.96086 19.2893 2.46957 19.5 3 19.5H22C22.5304 19.5 23.0391 19.2893 23.4142 18.9142C23.7893 18.5391 24 18.0304 24 17.5V15.5Z" stroke="#7B8AA0" stroke-linecap="round" stroke-linejoin="round"/>
<path d="M4 16V16.5" stroke="#7B8AA0" stroke-linecap="round" stroke-linejoin="round"/>
<path d="M7 16V16.5" stroke="#7B8AA0" stroke-linecap="round" stroke-linejoin="round"/>
<path d="M10 16V16.5" stroke="#7B8AA0" stroke-linecap="round" stroke-linejoin="round"/>
<path d="M19 13.5V8" stroke="#7B8AA0" stroke-linecap="round" stroke-linejoin="round"/>
<path d="M23.7141 2.42795C22.3183 1.49687 20.678 1 19.0001 1C17.3223 1 15.682 1.49687 14.2861 2.42795" stroke="#7B8AA0" stroke-linecap="round" stroke-linejoin="round"/>
<path d="M22.6045 4.09131C21.5369 3.37971 20.2826 3 18.9995 3C17.7165 3 16.4622 3.37971 15.3945 4.09131" stroke="#7B8AA0" stroke-linecap="round" stroke-linejoin="round"/>
<path d="M21.4998 5.75601C20.7606 5.26306 19.8919 5 19.0033 5C18.1148 5 17.2461 5.26306 16.5068 5.75601" stroke="#7B8AA0" stroke-linecap="round" stroke-linejoin="round"/>
<path d="M6 13.5V8" stroke="#7B8AA0" stroke-linecap="round" stroke-linejoin="round"/>
<path d="M10.7141 2.42795C9.3183 1.49687 7.678 1 6.00013 1C4.32226 1 2.68197 1.49687 1.28613 2.42795" stroke="#7B8AA0" stroke-linecap="round" stroke-linejoin="round"/>
<path d="M9.60453 4.09131C8.53691 3.37971 7.28257 3 5.99953 3C4.71649 3 3.46215 3.37971 2.39453 4.09131" stroke="#7B8AA0" stroke-linecap="round" stroke-linejoin="round"/>
<path d="M8.5 5.75639C7.75999 5.26195 6.88999 4.99805 6 4.99805C5.11001 4.99805 4.24001 5.26195 3.5 5.75639" stroke="#7B8AA0" stroke-linecap="round" stroke-linejoin="round"/>
<path d="M20.5 15.5H14C13.7239 15.5 13.5 15.7239 13.5 16V17C13.5 17.2761 13.7239 17.5 14 17.5H20.5C20.7761 17.5 21 17.2761 21 17V16C21 15.7239 20.7761 15.5 20.5 15.5Z" stroke="#7B8AA0" stroke-linecap="round" stroke-linejoin="round"/>
<path d="M4 19.5V21" stroke="#7B8AA0" stroke-linecap="round" stroke-linejoin="round"/>
<path d="M21 19.5V21" stroke="#7B8AA0" stroke-linecap="round" stroke-linejoin="round"/>
</svg>
