<svg width="24" height="24" viewBox="0 0 24 24" fill="none" xmlns="http://www.w3.org/2000/svg">
<path d="M5 13H1" stroke="#81D871" stroke-linecap="round" stroke-linejoin="round"/>
<path d="M1 11H5" stroke="#81D871" stroke-linecap="round" stroke-linejoin="round"/>
<path d="M19 11H23" stroke="#81D871" stroke-linecap="round" stroke-linejoin="round"/>
<path d="M23 13H19" stroke="#81D871" stroke-linecap="round" stroke-linejoin="round"/>
<path d="M13 5V1" stroke="#81D871" stroke-linecap="round" stroke-linejoin="round"/>
<path d="M11 1V5" stroke="#81D871" stroke-linecap="round" stroke-linejoin="round"/>
<path d="M11 19V23" stroke="#81D871" stroke-linecap="round" stroke-linejoin="round"/>
<path d="M13 23V19" stroke="#81D871" stroke-linecap="round" stroke-linejoin="round"/>
<path d="M14 19C14.2652 19 14.5196 18.8946 14.7071 18.7071C14.8946 18.5196 15 18.2652 15 18V16C15 15.7348 15.1054 15.4804 15.2929 15.2929C15.4804 15.1054 15.7348 15 16 15H18C18.2652 15 18.5196 14.8946 18.7071 14.7071C18.8946 14.5196 19 14.2652 19 14V10C19 9.73478 18.8946 9.48043 18.7071 9.29289C18.5196 9.10536 18.2652 9 18 9H16C15.7348 9 15.4804 8.89464 15.2929 8.70711C15.1054 8.51957 15 8.26522 15 8V6C15 5.73478 14.8946 5.48043 14.7071 5.29289C14.5196 5.10536 14.2652 5 14 5H10C9.73478 5 9.48043 5.10536 9.29289 5.29289C9.10536 5.48043 9 5.73478 9 6V8C9 8.26522 8.89464 8.51957 8.70711 8.70711C8.51957 8.89464 8.26522 9 8 9H6C5.73478 9 5.48043 9.10536 5.29289 9.29289C5.10536 9.48043 5 9.73478 5 10V14C5 14.2652 5.10536 14.5196 5.29289 14.7071C5.48043 14.8946 5.73478 15 6 15H8C8.26522 15 8.51957 15.1054 8.70711 15.2929C8.89464 15.4804 9 15.7348 9 16V18C9 18.2652 9.10536 18.5196 9.29289 18.7071C9.48043 18.8946 9.73478 19 10 19H14Z" stroke="#81D871" stroke-linecap="round" stroke-linejoin="round"/>
</svg>
