<svg width="274" height="187" viewBox="0 0 274 187" fill="none" xmlns="http://www.w3.org/2000/svg">
<g opacity="0.7">
<g opacity="0.7">
<path opacity="0.7" d="M272.488 177.762C272.488 182.688 212.485 186.779 138.437 186.779C64.3896 186.779 4.38678 182.771 4.38678 177.762C4.38678 172.753 64.3896 168.745 138.437 168.745C212.485 168.829 272.488 172.836 272.488 177.762Z" fill="#7B8AA0"/>
</g>
</g>
<path d="M213.781 173.512C215.287 169.401 213.191 164.842 209.099 163.329C205.008 161.816 200.47 163.922 198.964 168.033C197.458 172.143 199.554 176.702 203.645 178.215C207.737 179.728 212.275 177.622 213.781 173.512Z" fill="#3B4559"/>
<path d="M206.418 123.578C202.014 123.578 198.523 119.988 198.44 115.647C198.44 111.222 202.014 107.716 206.335 107.632C210.74 107.632 214.23 111.222 214.313 115.564C214.313 120.072 210.74 123.578 206.418 123.578Z" fill="#3B4559"/>
<path d="M254.121 143.365C256.781 143.782 259.523 144.033 261.767 145.619C263.014 146.454 264.094 147.539 264.842 148.792C265.507 149.877 265.507 150.795 266.67 151.463C267.252 151.797 267.834 151.463 268.083 150.879C269.163 148.124 265.091 144.701 263.014 143.532C260.271 141.946 256.864 141.111 254.038 142.864C253.789 142.948 253.789 143.365 254.121 143.365Z" fill="#3B4559"/>
<path d="M263.263 153.383C265.839 160.062 276.227 156.055 273.568 149.293C270.992 142.614 260.687 146.704 263.263 153.383Z" fill="#7B8AA0"/>
<path d="M128.049 180.267C117.993 181.018 107.937 181.519 97.8813 181.268C87.8255 181.018 77.8527 178.847 67.7968 178.764C66.7996 178.764 66.6334 180.267 67.5475 180.517C76.9385 183.523 88.0748 183.439 97.8813 183.69C108.103 183.856 118.159 183.272 128.215 181.769C129.129 181.686 128.963 180.183 128.049 180.267Z" fill="#7B8AA0"/>
<path d="M22.8363 173.254C35.2191 174.005 47.5189 174.088 59.9017 173.921C71.1211 173.755 83.587 174.673 94.5571 172.335C95.3881 172.168 95.1388 170.999 94.3908 170.916C88.241 170.248 82.008 171.25 75.8581 171.417C70.1238 171.584 64.3895 171.667 58.6551 171.667C46.6878 171.751 34.8036 171.584 22.8363 171.584C21.7559 171.584 21.7559 173.17 22.8363 173.254Z" fill="#7B8AA0"/>
<path d="M134.697 125.666L134.614 160.396L130.127 160.396L122.398 143.031L131.539 125.666L134.697 125.666Z" fill="#F1EFE8"/>
<path d="M97.9644 167.827L98.0475 101.788C98.0475 98.1147 100.956 95.1926 104.613 95.1926L159.214 95.2761C162.87 95.2761 165.779 98.1982 165.779 101.872L165.696 167.91C165.696 171.584 162.787 174.506 159.131 174.506L104.53 174.422C100.873 174.422 97.9644 171.5 97.9644 167.827Z" fill="#697181"/>
<path d="M100.042 144.45L119.323 104.126C119.905 102.957 121.234 102.456 122.398 103.04L127.301 105.378C128.464 105.962 128.963 107.298 128.381 108.467L109.101 148.792C108.519 149.961 107.189 150.461 106.026 149.877L101.122 147.539C99.959 147.038 99.4604 145.619 100.042 144.45Z" fill="#3B4559"/>
<path d="M118.907 109.219C117.162 112.809 122.73 115.564 124.475 111.89C126.221 108.3 120.653 105.545 118.907 109.219Z" fill="#353831"/>
<path d="M113.422 120.74C111.677 124.33 117.245 127.085 118.99 123.411C120.736 119.822 115.084 117.15 113.422 120.74Z" fill="#353831"/>
<path d="M108.187 131.593C106.441 135.183 112.009 137.938 113.755 134.265C115.5 130.675 109.932 127.92 108.187 131.593Z" fill="#353831"/>
<path d="M103.699 141.027C101.954 144.617 107.522 147.372 109.267 143.699C111.012 140.109 105.444 137.354 103.699 141.027Z" fill="#353831"/>
<path d="M143.257 174.506C143.424 174.506 143.673 174.506 143.839 174.506C144.005 174.506 144.255 174.506 144.421 174.506L145.003 169.163C145.252 169.163 145.501 169.079 145.667 169.079L147.33 174.255C147.662 174.172 148.077 174.088 148.41 174.005L147.828 168.662C148.077 168.578 148.244 168.495 148.493 168.411L151.152 173.087C151.485 172.92 151.817 172.753 152.15 172.586L150.488 167.409C150.654 167.326 150.903 167.159 151.069 167.075L154.643 171.083C154.975 170.832 155.225 170.665 155.557 170.415L152.898 165.74C153.064 165.573 153.23 165.406 153.396 165.239L157.718 168.411C157.967 168.161 158.216 167.827 158.466 167.576L154.892 163.569C155.058 163.402 155.142 163.235 155.308 162.985L160.211 165.155C160.377 164.821 160.627 164.487 160.793 164.153L156.471 160.981C156.554 160.73 156.637 160.563 156.721 160.313L161.956 161.482C162.122 161.148 162.206 160.73 162.289 160.396L157.385 158.226C157.468 157.975 157.469 157.808 157.552 157.558L162.954 157.558C163.037 157.224 163.037 156.807 163.037 156.389L157.801 155.304C157.801 155.22 157.801 155.053 157.801 154.97C157.801 154.886 157.801 154.719 157.801 154.636L163.037 153.55C163.037 153.133 162.954 152.799 162.954 152.382L157.552 152.382C157.469 152.131 157.468 151.881 157.385 151.714L162.289 149.543C162.206 149.209 162.039 148.792 161.956 148.458L156.721 149.543C156.637 149.293 156.554 149.126 156.471 148.875L160.793 145.703C160.627 145.369 160.46 145.035 160.211 144.701L155.308 146.871C155.142 146.705 155.058 146.454 154.892 146.287L158.466 142.28C158.216 142.029 157.967 141.695 157.718 141.445L153.396 144.617C153.23 144.45 153.064 144.283 152.898 144.116L155.64 139.441C155.308 139.191 155.058 139.024 154.726 138.773L151.152 142.781C150.986 142.697 150.737 142.53 150.571 142.447L152.233 137.27C151.9 137.103 151.568 136.936 151.236 136.769L148.576 141.445C148.327 141.361 148.161 141.278 147.911 141.194L148.493 135.851C148.161 135.768 147.745 135.684 147.413 135.601L145.751 140.777C145.501 140.777 145.252 140.693 145.086 140.693L144.504 135.35C144.338 135.35 144.088 135.35 143.922 135.35C143.756 135.35 143.507 135.35 143.34 135.35L142.759 140.693C142.509 140.693 142.26 140.777 142.094 140.777L140.432 135.601C140.099 135.684 139.684 135.768 139.351 135.851L139.933 141.194C139.684 141.278 139.518 141.361 139.268 141.445L136.609 136.769C136.276 136.936 135.944 137.103 135.612 137.27L137.274 142.447C137.107 142.53 136.858 142.697 136.692 142.781L133.118 138.773C132.786 139.024 132.537 139.191 132.204 139.441L134.864 144.116C134.697 144.283 134.531 144.45 134.365 144.617L130.043 141.445C129.794 141.695 129.545 142.029 129.295 142.28L132.869 146.287C132.703 146.454 132.62 146.621 132.453 146.871L127.55 144.701C127.384 145.035 127.135 145.369 126.968 145.703L131.29 148.875C131.207 149.126 131.124 149.293 131.041 149.543L125.805 148.374C125.639 148.708 125.556 149.126 125.473 149.46L130.376 151.63C130.293 151.881 130.293 152.048 130.21 152.298L124.808 152.298C124.725 152.632 124.725 153.05 124.725 153.467L129.96 154.552C129.96 154.636 129.96 154.803 129.96 154.886C129.96 154.97 129.96 155.137 129.96 155.22L124.725 156.306C124.725 156.723 124.808 157.057 124.808 157.474L130.21 157.474C130.293 157.725 130.293 157.975 130.376 158.142L125.473 160.313C125.556 160.647 125.722 161.064 125.805 161.398L131.041 160.313C131.124 160.563 131.207 160.73 131.29 160.981L126.885 164.153C127.052 164.487 127.218 164.821 127.467 165.155L132.37 162.985C132.537 163.152 132.62 163.402 132.786 163.569L129.212 167.576C129.462 167.827 129.711 168.161 129.96 168.411L134.282 165.239C134.448 165.406 134.614 165.573 134.78 165.74L132.038 170.415C132.37 170.665 132.62 170.832 132.952 171.083L136.526 167.075C136.692 167.159 136.941 167.326 137.107 167.409L135.445 172.586C135.778 172.753 136.11 172.92 136.443 173.087L139.102 168.411C139.351 168.495 139.518 168.578 139.767 168.662L139.185 174.005C139.518 174.088 139.933 174.172 140.265 174.255L141.928 169.079C142.177 169.079 142.426 169.163 142.592 169.163L143.257 174.506ZM146 155.053C146 156.222 145.086 157.14 143.922 157.14C142.759 157.14 141.845 156.222 141.845 155.053C141.845 153.884 142.759 152.966 143.922 152.966C145.086 152.883 146 153.884 146 155.053ZM143.922 144.367C149.407 144.367 153.895 148.541 154.477 153.884L148.825 153.884C148.327 151.63 146.332 149.961 143.922 149.961C143.424 149.961 142.925 150.044 142.509 150.127L139.684 145.202C140.93 144.701 142.426 144.367 143.922 144.367ZM133.285 155.053C133.285 151.547 135.03 148.374 137.606 146.454L140.432 151.38C139.434 152.298 138.853 153.634 138.853 155.053C138.853 156.473 139.434 157.808 140.432 158.727L137.606 163.653C134.947 161.732 133.285 158.56 133.285 155.053ZM139.601 164.821L142.426 159.896C142.842 160.063 143.34 160.146 143.839 160.146C146.249 160.146 148.244 158.476 148.742 156.222L154.394 156.222C153.812 161.565 149.324 165.74 143.839 165.74C142.343 165.74 140.93 165.406 139.601 164.821Z" fill="#3B4559"/>
<path d="M157.219 155.053C157.219 147.623 151.235 141.612 143.839 141.612C136.443 141.612 130.459 147.623 130.459 155.053C130.459 162.484 136.443 168.495 143.839 168.495C151.236 168.495 157.219 162.484 157.219 155.053ZM143.922 157.14C142.759 157.14 141.844 156.222 141.844 155.053C141.844 153.884 142.759 152.966 143.922 152.966C145.086 152.966 146 153.884 146 155.053C146 156.222 145.086 157.14 143.922 157.14ZM139.684 145.202C141.013 144.617 142.426 144.283 143.922 144.283C149.407 144.283 153.895 148.458 154.477 153.801L148.825 153.801C148.327 151.547 146.332 149.877 143.922 149.877C143.424 149.877 142.925 149.961 142.509 150.044L139.684 145.202ZM133.285 155.053C133.285 151.547 135.03 148.374 137.606 146.454L140.432 151.38C139.434 152.298 138.853 153.634 138.853 155.053C138.853 156.473 139.434 157.808 140.432 158.727L137.606 163.652C134.947 161.732 133.285 158.56 133.285 155.053ZM142.509 159.896C142.925 160.063 143.424 160.146 143.922 160.146C146.332 160.146 148.327 158.476 148.825 156.222L154.477 156.222C153.895 161.565 149.407 165.74 143.922 165.74C142.426 165.74 140.93 165.406 139.684 164.821L142.509 159.896Z" fill="#3B4559"/>
<path d="M156.139 155.053C156.139 148.207 150.654 142.697 143.922 142.697C137.107 142.697 131.622 148.207 131.622 154.97C131.622 161.816 137.107 167.326 143.839 167.326C150.654 167.326 156.139 161.816 156.139 155.053ZM132.038 155.053C132.038 148.458 137.357 143.198 143.922 143.198C150.488 143.198 155.723 148.541 155.723 155.137C155.723 161.732 150.404 166.992 143.839 166.992C137.357 166.909 132.038 161.565 132.038 155.053Z" fill="#D9D9D9"/>
<path d="M141.845 155.053C141.845 153.884 142.759 152.966 143.922 152.966C145.086 152.966 146 153.884 146 155.053C146 156.222 145.086 157.14 143.922 157.14C142.759 157.14 141.845 156.222 141.845 155.053ZM143.922 144.367C149.407 144.367 153.895 148.541 154.477 153.884L148.825 153.884C148.327 151.63 146.332 149.961 143.922 149.961C143.424 149.961 142.925 150.044 142.509 150.127L139.684 145.202C140.93 144.701 142.426 144.367 143.922 144.367ZM133.285 155.053C133.285 151.547 135.03 148.374 137.606 146.454L140.432 151.38C139.434 152.298 138.853 153.634 138.853 155.053C138.853 156.473 139.434 157.808 140.432 158.727L137.606 163.653C134.947 161.732 133.285 158.56 133.285 155.053ZM139.601 164.821L142.426 159.896C142.842 160.063 143.34 160.146 143.839 160.146C146.249 160.146 148.244 158.476 148.742 156.222L154.394 156.222C153.812 161.565 149.324 165.74 143.839 165.74C142.343 165.74 140.93 165.406 139.601 164.821Z" fill="white"/>
<path d="M259.44 140.944C259.44 132.261 249.966 125.165 238.248 125.165L238.248 156.723C249.966 156.723 259.44 149.627 259.44 140.944Z" fill="#3B4559"/>
<path d="M170.849 166.241L170.849 123.996C170.849 119.487 174.505 115.814 178.993 115.814L238.996 115.814C243.484 115.814 247.14 119.487 247.14 123.996L247.14 166.241C247.14 170.749 243.484 174.422 238.996 174.422L178.993 174.422C174.505 174.422 170.932 170.749 170.849 166.241Z" fill="#697181"/>
<path d="M168.189 106.547L170.516 105.462C171.098 105.211 171.264 104.543 171.015 103.959L165.53 92.521C165.28 91.9366 164.616 91.7696 164.034 92.0201L161.707 93.1054C161.125 93.3559 160.959 94.0238 161.208 94.6082L166.693 106.046C166.943 106.547 167.607 106.797 168.189 106.547Z" fill="#7B8AA0"/>
<path d="M175.17 72.2335L178.328 73.1518C179.076 73.4023 179.492 74.1537 179.242 74.9051L172.428 98.1981C172.178 98.9495 171.43 99.367 170.682 99.1165L167.524 98.1981C166.776 97.9477 166.361 97.1963 166.61 96.4449L173.425 73.1518C173.674 72.4004 174.505 71.983 175.17 72.2335Z" fill="#3B4559"/>
<path d="M160.71 56.6213L162.621 53.9497C163.037 53.2818 163.951 53.1983 164.533 53.6157L175.835 61.714C176.5 62.1314 176.583 63.0498 176.167 63.6342L174.256 66.3058C173.84 66.9737 172.926 67.0572 172.345 66.6398L161.042 58.5415C160.377 58.124 160.211 57.2892 160.71 56.6213Z" fill="#3B4559"/>
<path d="M179.824 69.3115C179.99 67.3912 178.661 65.7215 176.749 65.5545C174.838 65.3875 173.176 66.7233 173.009 68.6435C172.843 70.5638 174.173 72.2335 176.084 72.4005C177.913 72.484 179.575 71.1482 179.824 69.3115Z" fill="#7B8AA0"/>
<path d="M175.752 177.511L175.586 180.1C175.586 180.684 175.004 181.185 174.422 181.185L161.79 180.601C161.208 180.601 160.71 180.016 160.71 179.432L160.876 176.844C160.876 176.259 161.458 175.758 162.039 175.758L174.672 176.343C175.336 176.426 175.752 176.927 175.752 177.511Z" fill="#7B8AA0"/>
<path d="M98.2138 159.729L98.0476 156.473C98.0476 155.721 97.3828 155.137 96.6348 155.137L72.534 156.139C71.786 156.139 71.2043 156.807 71.2043 157.558L71.3705 160.814C71.3705 161.565 72.0354 162.15 72.7833 162.15L96.8841 161.148C97.6321 161.148 98.2138 160.48 98.2138 159.729Z" fill="#3B4559"/>
<path d="M66.1347 150.127L69.3759 149.627C70.1238 149.543 70.6225 148.792 70.5394 148.04L68.3786 134.265C68.2955 133.513 67.5475 133.013 66.7996 133.096L63.5584 133.597C62.8105 133.68 62.3118 134.432 62.395 135.183L64.5557 148.959C64.6388 149.71 65.3868 150.294 66.1347 150.127Z" fill="#3B4559"/>
<path d="M72.0353 150.378C73.5312 151.547 73.8637 153.634 72.7002 155.137C71.5367 156.64 69.459 156.973 67.9631 155.805C66.4672 154.636 66.1348 152.549 67.2983 151.046C68.3787 149.543 70.5394 149.209 72.0353 150.378Z" fill="#7B8AA0"/>
<path d="M246.891 171.751L257.778 167.827L262.349 175.174L259.191 177.428L256.614 173.087L251.129 175.007L251.794 179.766L247.888 181.185L246.891 171.751Z" fill="#7B8AA0"/>
<path d="M80.6783 182.688L73.1157 181.268C72.3677 181.101 71.8691 180.434 72.0353 179.682L74.7778 164.32C74.944 163.569 75.6088 163.068 76.3568 163.235L83.9195 164.654C84.6674 164.821 85.1661 165.489 84.9999 166.241L82.2573 181.519C82.0911 182.27 81.3432 182.771 80.6783 182.688Z" fill="#7B8AA0"/>
<path d="M79.0993 169.246C72.1184 167.91 65.3868 172.586 64.0571 179.599L89.4045 184.274C90.7342 177.261 86.1634 170.582 79.0993 169.246Z" fill="#3B4559"/>
<path d="M45.3581 156.055L50.6769 151.714C51.2587 151.213 52.0897 151.296 52.5884 151.881L62.3949 163.986C62.8936 164.571 62.8105 165.406 62.2287 165.907L56.9099 170.248C56.3282 170.749 55.4971 170.665 54.9985 170.081L45.1919 157.975C44.6933 157.391 44.7764 156.556 45.3581 156.055Z" fill="#3B4559"/>
<path d="M34.1387 145.118L42.2831 138.439C42.8649 137.938 43.6959 138.022 44.1946 138.606L54.0011 150.795C54.4998 151.38 54.4166 152.215 53.8349 152.716L45.6905 159.395C45.1087 159.896 44.2777 159.812 43.779 159.228L33.9725 147.122C33.4739 146.454 33.557 145.619 34.1387 145.118Z" fill="#7B8AA0"/>
<path d="M30.6483 166.909C23.5842 166.408 17.3512 171.751 16.8526 178.847L42.5325 180.768C43.1142 173.671 37.7954 167.41 30.6483 166.909Z" fill="#3B4559"/>
<path d="M208.163 127.836C209.41 130.007 211.986 131.51 213.981 132.929C216.308 134.599 218.635 136.769 221.294 137.771C222.624 138.272 223.455 136.435 222.541 135.517C220.712 133.597 217.97 132.261 215.643 130.842C213.482 129.506 211.072 127.502 208.496 127.168C208.33 127.252 207.997 127.502 208.163 127.836Z" fill="#353831"/>
<path d="M210.74 139.191C213.15 138.272 215.061 136.018 216.89 134.181C218.552 132.512 221.627 130.424 222.125 128.003C222.291 127.085 221.627 126.333 220.712 126.584C218.302 127.085 216.308 130.257 214.646 131.927C212.9 133.764 210.657 135.768 209.826 138.189C209.576 138.773 210.241 139.358 210.74 139.191Z" fill="#353831"/>
<path d="M208.163 158.894C209.41 161.064 211.986 162.567 213.981 163.986C216.308 165.656 218.635 167.827 221.294 168.829C222.624 169.33 223.455 167.493 222.541 166.575C220.712 164.654 217.97 163.318 215.643 161.899C213.482 160.563 211.072 158.56 208.496 158.226C208.33 158.309 207.997 158.56 208.163 158.894Z" fill="#353831"/>
<path d="M210.74 170.248C213.15 169.33 215.061 167.075 216.89 165.239C218.552 163.569 221.627 161.482 222.125 159.061C222.291 158.142 221.627 157.391 220.712 157.641C218.302 158.142 216.308 161.315 214.646 162.985C212.9 164.821 210.657 166.825 209.826 169.246C209.576 169.831 210.241 170.415 210.74 170.248Z" fill="#353831"/>
<path d="M141.429 80.5823C140.515 80.1648 139.601 79.6639 138.687 79.2465C139.268 77.2428 139.933 75.3225 140.515 73.3188C140.598 73.0684 140.93 72.8179 141.18 72.5675C142.26 71.8161 142.925 70.8142 143.507 69.6454C146.332 63.8847 149.241 58.1241 152.15 52.2799C152.316 51.946 152.482 51.6955 152.815 51.1946C151.817 50.7772 150.986 50.4432 150.238 50.0258C149.989 49.9423 149.906 49.4414 149.906 49.1074C149.989 48.7735 150.238 48.4395 150.405 48.0221C150.654 47.5211 150.903 47.3542 151.485 47.5212C151.9 47.6046 152.648 47.3542 152.731 47.0202C152.898 46.6863 152.648 46.0184 152.316 45.6844C151.9 45.267 151.9 45.0165 152.15 44.5991C154.726 39.5063 157.219 34.3301 159.796 29.2373C160.46 27.985 161.458 27.3171 162.87 27.1502C165.281 26.9832 167.109 27.9015 168.355 29.9052C169.103 31.0741 169.187 32.4099 168.522 33.6622C166.028 38.7549 163.452 43.7642 160.959 48.8569C160.71 49.3579 160.46 49.6083 159.796 49.4414C159.463 49.3579 158.798 49.6083 158.549 49.9423C158.383 50.1928 158.549 50.9441 158.798 51.1111C159.546 51.612 159.38 52.1965 158.964 52.7809C158.715 53.1983 158.549 53.6158 158.133 54.2837C157.219 53.6158 156.305 53.0313 155.308 52.2799C154.726 53.5323 154.311 54.4506 153.895 55.2855C151.152 60.7957 148.41 66.2224 145.751 71.7326C145.501 72.2335 145.252 72.9014 145.335 73.4858C145.335 74.6547 145.003 75.6565 144.255 76.5749C143.257 77.9941 142.343 79.33 141.429 80.5823ZM156.056 45.3505C156.222 45.1835 156.471 44.8495 156.637 44.5156C158.715 40.3412 160.793 36.1668 162.87 31.9924C162.954 31.8255 163.203 31.575 163.12 31.3245C163.037 30.9071 162.954 30.4062 162.704 30.2392C162.372 30.0722 161.873 30.2392 161.458 30.4062C161.291 30.4897 161.208 30.8236 161.042 31.0741C158.964 35.165 156.97 39.2559 154.892 43.4302C154.809 43.6807 154.643 43.9312 154.56 44.1816C154.477 44.933 155.142 45.6009 156.056 45.3505ZM159.546 47.1037C159.712 46.9367 159.962 46.6863 160.128 46.3523C162.289 42.0944 164.366 37.9201 166.444 33.6622C166.527 33.4952 166.61 33.2448 166.693 32.9943C166.776 32.2429 166.028 31.575 165.364 31.9924C165.031 32.1594 164.782 32.4934 164.616 32.8273C162.538 37.0017 160.46 41.1761 158.383 45.3505C158.3 45.6009 158.133 45.8514 158.133 46.1019C158.05 46.7698 158.715 47.3542 159.546 47.1037Z" fill="#353831"/>
<path d="M158.466 59.7938L164.782 50.0258L158.798 43.8477L155.807 46.3523L159.38 49.9423L156.222 54.8681L151.817 53.1148L149.49 56.5378L158.466 59.7938Z" fill="#7B8AA0"/>
<path d="M151.568 97.7807L113.007 97.7807C112.508 97.7807 112.092 97.3633 112.092 96.8624L112.092 93.6063C112.092 93.1054 112.508 92.688 113.007 92.688L151.568 92.688C152.067 92.688 152.482 93.1054 152.482 93.6063L152.482 96.8624C152.482 97.3633 152.067 97.7807 151.568 97.7807Z" fill="#7B8AA0"/>
<path d="M134.033 95.5266C137.939 83.2539 130.958 69.8124 118.741 65.8885C117.494 65.471 116.913 67.4747 118.159 67.8922C129.296 71.3986 135.612 83.7548 132.038 94.9422C131.622 96.278 133.617 96.7789 134.033 95.5266Z" fill="#353831"/>
<path d="M138.437 89.7659C139.767 89.7659 139.767 87.6787 138.437 87.6787C137.108 87.7622 137.108 89.7659 138.437 89.7659Z" fill="#353831"/>
<path d="M124.974 80.0814C126.304 80.0814 126.304 77.9942 124.974 77.9942C123.644 78.0777 123.644 80.0814 124.974 80.0814Z" fill="#353831"/>
<path d="M117.993 80.4988C116.83 80.4988 115.666 79.9979 115.001 79.0795C114.752 78.7456 114.586 78.3281 114.503 77.9107C114.42 77.9107 114.42 77.9107 114.336 77.9107C113.256 77.6602 112.425 76.6584 112.259 75.4895C112.176 74.9886 112.176 74.4877 112.259 73.9033C112.009 73.8198 111.843 73.7363 111.594 73.6528C111.428 73.5693 110.347 73.0684 110.015 71.8161C109.849 71.3152 109.849 70.7307 110.015 70.2298C109.184 69.8124 108.353 69.1445 107.937 68.2261C107.439 67.3077 107.439 66.3059 107.937 65.304C108.103 65.0536 108.353 64.9701 108.602 65.0536C108.851 65.2206 108.934 65.471 108.851 65.7215C108.436 66.5564 108.602 67.2243 108.851 67.7252C109.184 68.3096 109.682 68.894 110.347 69.1445C110.514 68.8105 110.68 68.4766 110.929 68.0591C111.511 67.1408 113.09 66.5564 114.004 66.7233C114.669 66.8068 115.084 67.1408 115.251 67.6417C115.417 68.1426 115.251 68.6436 114.835 69.1445C114.004 69.9794 112.342 70.5638 111.012 70.3968C110.929 70.8142 110.929 71.1482 111.012 71.3987C111.261 72.2335 112.009 72.5675 112.009 72.5675C112.176 72.651 112.342 72.7344 112.508 72.7344C112.591 72.5675 112.674 72.4005 112.674 72.2335C113.173 71.1482 113.755 70.5638 114.503 70.3133C115.084 70.1463 115.749 70.2298 116.248 70.6472C116.663 70.9812 116.83 71.3986 116.83 71.8996C116.746 72.5675 116.165 73.2354 115.334 73.4858C114.752 73.6528 114.004 73.8198 113.256 73.8198C113.173 74.2372 113.173 74.6547 113.173 75.0721C113.339 75.8235 113.755 76.4079 114.336 76.6584C114.336 76.5749 114.336 76.4914 114.42 76.4079C114.586 75.573 115.084 74.8216 115.749 74.4042C116.497 73.9033 117.578 73.9033 118.159 74.6547C118.575 75.2391 118.409 76.074 117.993 76.5749C117.661 76.9923 117.079 77.2428 116.58 77.4932C116.248 77.6602 115.915 77.7437 115.5 77.8272C115.583 78.0777 115.666 78.2446 115.832 78.4116C116.497 79.33 117.993 79.7474 119.157 79.163C119.406 79.0795 119.738 79.163 119.821 79.4135C119.905 79.6639 119.821 79.9979 119.572 80.0814C119.073 80.4153 118.492 80.4988 117.993 80.4988ZM116.913 75.1556C116.746 75.1556 116.497 75.2391 116.331 75.3226C115.915 75.573 115.583 76.074 115.5 76.6584L115.5 76.7419C115.749 76.6584 115.999 76.5749 116.248 76.4914C116.663 76.3244 116.996 76.1574 117.245 75.907C117.411 75.6565 117.494 75.406 117.328 75.2391C117.245 75.1556 117.079 75.1556 116.913 75.1556ZM115.084 71.3152C115.001 71.3152 114.918 71.3152 114.835 71.3152C114.336 71.4821 114.004 71.8996 113.588 72.7344C113.588 72.8179 113.588 72.8179 113.505 72.8179C114.004 72.7344 114.503 72.651 114.918 72.484C115.334 72.4005 115.666 72.0666 115.749 71.8161C115.749 71.6491 115.666 71.5656 115.583 71.4821C115.5 71.3986 115.334 71.3152 115.084 71.3152ZM111.261 69.3949C112.176 69.3949 113.422 69.061 114.004 68.4766C114.253 68.2261 114.17 68.0591 114.17 67.9757C114.17 67.8922 114.004 67.8087 113.755 67.8087C113.007 67.7252 112.009 68.1426 111.677 68.727C111.511 68.894 111.428 69.1445 111.261 69.3949Z" fill="#353831"/>
<path d="M74.5284 115.981C74.3622 115.981 74.2791 115.898 74.1129 115.814C72.8663 114.395 72.7001 112.141 73.7805 110.638C74.1129 110.22 74.4453 109.886 74.8609 109.636C74.8609 109.552 74.8609 109.469 74.8609 109.469C74.7778 108.3 75.5257 107.048 76.6892 106.463C77.1878 106.213 77.7696 106.046 78.3513 105.963C78.3513 105.712 78.3513 105.378 78.3513 105.128C78.3513 104.877 78.6007 103.625 79.7641 102.873C80.2628 102.54 80.8445 102.373 81.5094 102.289C81.5925 101.204 82.0911 100.118 82.9222 99.367C83.7532 98.5321 84.8336 98.1982 85.914 98.3651C86.1633 98.4486 86.4127 98.6991 86.3295 98.9496C86.2464 99.2 86.0802 99.4505 85.7478 99.367C84.7505 99.2 84.0026 99.7009 83.587 100.035C83.0053 100.619 82.5898 101.371 82.5067 102.206C82.9222 102.289 83.3377 102.373 83.8364 102.456C84.9998 102.79 86.0802 104.209 86.2464 105.295C86.3295 105.962 86.1633 106.547 85.6647 106.881C85.1661 107.215 84.5843 107.215 84.0026 106.964C82.8391 106.38 81.6756 104.71 81.4263 103.291C81.0107 103.374 80.5952 103.458 80.2628 103.708C79.4317 104.293 79.3486 105.211 79.3486 105.211C79.3486 105.462 79.3486 105.629 79.3486 105.879C79.5148 105.879 79.7641 105.879 80.0135 105.963C81.2601 106.129 82.1742 106.547 82.6729 107.215C83.0884 107.716 83.1715 108.467 82.9222 109.135C82.756 109.636 82.3404 110.053 81.8418 110.137C81.0938 110.304 80.3459 109.886 79.681 109.052C79.2655 108.467 78.85 107.716 78.6007 106.881C78.0189 106.964 77.6034 107.048 77.1878 107.298C76.4399 107.716 75.8581 108.467 75.9413 109.219C76.0244 109.219 76.1906 109.135 76.3568 109.135C77.271 109.052 78.2682 109.302 78.9331 109.803C79.681 110.387 80.0966 111.556 79.5148 112.308C79.0162 112.975 78.102 113.059 77.4372 112.808C76.8554 112.558 76.4399 112.141 76.0244 111.64C75.775 111.306 75.5257 110.972 75.2764 110.554C75.0271 110.721 74.8609 110.888 74.6947 111.139C73.9467 112.224 74.0298 113.977 75.0271 114.979C75.1933 115.23 75.1933 115.48 75.0271 115.731C74.7778 115.981 74.6947 115.981 74.5284 115.981ZM76.1906 110.304C76.3568 110.638 76.523 110.888 76.7723 111.139C77.1047 111.556 77.4372 111.89 77.7696 111.974C78.0189 112.057 78.4344 112.057 78.6007 111.807C78.7669 111.556 78.6007 110.972 78.1851 110.721C77.7696 110.304 77.1047 110.137 76.4399 110.22C76.3568 110.304 76.2737 110.304 76.1906 110.304ZM79.681 107.048C79.9304 107.632 80.2628 108.133 80.5121 108.551C80.7614 108.885 81.1769 109.302 81.5925 109.219C81.7587 109.135 81.9249 108.968 81.9249 108.885C82.008 108.551 82.008 108.217 81.8418 107.966C81.5094 107.549 80.8445 107.215 79.9304 107.131C79.8472 107.048 79.7641 107.048 79.681 107.048ZM82.5898 103.374C82.8391 104.46 83.7532 105.712 84.5843 106.046C84.9998 106.213 85.1661 106.129 85.2492 106.046C85.3323 105.963 85.4154 105.796 85.3323 105.545C85.1661 104.71 84.335 103.792 83.6701 103.541C83.2546 103.458 82.9222 103.458 82.5898 103.374Z" fill="#353831"/>
<path d="M143.34 91.8531C142.676 91.8531 142.011 91.6861 141.346 91.4357C141.097 91.3522 141.013 91.0182 141.097 90.7678C141.18 90.5173 141.512 90.4338 141.761 90.5173C143.257 91.2687 145.252 90.7678 146.166 89.5154C146.415 89.265 146.498 88.8476 146.582 88.5136C146.083 88.4301 145.501 88.2631 145.086 88.0962C144.421 87.8457 143.839 87.5117 143.34 87.0108C142.842 86.4264 142.593 85.4246 143.174 84.6732C143.839 83.7548 145.169 83.8383 146 84.4227C146.831 84.9236 147.413 85.842 147.579 86.9273C147.579 87.0943 147.662 87.2613 147.662 87.4283C148.576 87.1778 149.241 86.3429 149.49 85.2576C149.573 84.6732 149.573 84.0888 149.407 83.4209C148.327 83.4209 147.413 83.1704 146.665 82.9199C145.584 82.586 144.919 81.8346 144.836 80.9997C144.753 80.4153 145.003 79.9144 145.501 79.4969C146.083 78.996 146.914 78.829 147.579 79.0795C148.493 79.4134 149.241 80.1648 149.823 81.5006C149.906 81.7511 150.072 82.0016 150.155 82.252C150.404 82.1685 150.737 82.085 150.986 82.0016C151.069 81.9181 152.067 81.5006 152.399 80.4153C152.565 79.9144 152.565 79.4135 152.399 78.9125C150.737 79.163 148.493 78.4951 147.496 77.4097C146.831 76.7418 146.831 76.0739 146.997 75.6565C147.163 74.9886 147.745 74.6546 148.493 74.5712C149.657 74.4042 151.568 75.0721 152.316 76.2409C152.648 76.7418 152.898 77.2428 153.064 77.6602C153.895 77.2428 154.726 76.4914 155.142 75.6565C155.474 75.0721 155.723 74.0702 155.142 72.9849C154.975 72.7344 155.142 72.4005 155.391 72.317C155.64 72.2335 155.973 72.317 156.056 72.5675C156.637 73.7363 156.637 74.9886 156.056 76.1574C155.474 77.2428 154.477 78.2446 153.396 78.662C153.563 79.4134 153.563 80.1648 153.396 80.7492C152.981 82.3355 151.568 82.9199 151.402 83.0034C151.069 83.1704 150.737 83.2539 150.405 83.3374C150.571 84.0888 150.571 84.7567 150.488 85.4246C150.238 86.9273 149.158 88.0962 147.911 88.4301C147.828 88.4301 147.745 88.4301 147.662 88.5136C147.579 89.098 147.33 89.5989 146.997 90.0999C146.249 91.1852 144.836 91.8531 143.34 91.8531ZM144.753 84.9236C144.504 84.9236 144.255 85.0071 144.172 85.1741C143.922 85.4246 144.088 85.9255 144.338 86.2594C144.67 86.5934 145.169 86.8438 145.667 87.0943C146.083 87.2613 146.499 87.4283 146.914 87.4283C146.914 87.3448 146.914 87.1778 146.831 87.0943C146.665 86.3429 146.249 85.675 145.667 85.2576C145.335 85.0906 145.003 84.9236 144.753 84.9236ZM147.08 80.0813C146.831 80.0813 146.499 80.1648 146.249 80.3318C146.083 80.4153 145.917 80.6658 145.917 80.9162C146 81.4172 146.582 81.7511 147.08 81.9181C147.662 82.085 148.41 82.3355 149.241 82.3355C149.158 82.252 149.158 82.085 149.075 81.9181C148.576 80.8327 148.078 80.2483 147.413 80.0813C147.33 80.0813 147.163 80.0813 147.08 80.0813ZM148.992 75.4895C148.909 75.4895 148.825 75.4895 148.742 75.4895C148.41 75.573 148.161 75.6565 148.078 75.907C148.078 75.9905 147.994 76.2409 148.327 76.6583C149.075 77.4932 150.82 77.9942 152.15 77.9107C151.984 77.5767 151.734 77.1593 151.485 76.7418C151.152 76.0739 149.906 75.4895 148.992 75.4895Z" fill="#353831"/>
<path d="M129.794 94.6082C130.376 90.0164 128.215 85.3411 123.727 83.5043C118.325 81.2502 113.256 84.8401 110.015 88.931C105.028 95.1091 101.704 103.124 99.3772 110.638C96.3854 120.322 95.9699 131.009 89.1552 139.107C88.3241 140.109 89.7369 141.612 90.6511 140.61C97.2165 132.762 98.1307 122.994 100.79 113.476C102.535 107.131 105.028 100.953 108.353 95.2761C110.181 92.1035 112.342 88.5136 115.5 86.5099C121.65 82.5859 128.714 87.5952 127.8 94.6082C127.55 95.944 129.628 95.944 129.794 94.6082Z" fill="#353831"/>
<path d="M161.374 103.291C161.374 104.126 161.291 104.877 161.374 105.712C161.374 105.879 161.624 105.879 161.624 105.712C161.707 104.877 161.624 104.126 161.624 103.291C161.624 103.124 161.374 103.124 161.374 103.291Z" fill="#3B4559"/>
<path d="M103.948 107.382C103.2 108.634 102.951 110.304 103.449 111.723C103.533 111.974 103.948 112.057 104.031 111.723C104.28 110.387 104.364 108.885 104.28 107.549C104.28 107.298 104.031 107.215 103.948 107.382Z" fill="#3B4559"/>
<path d="M160.128 106.463C160.294 106.714 160.46 106.881 160.627 107.048C160.71 107.131 160.876 107.048 160.793 106.881C160.627 106.63 160.544 106.463 160.294 106.296C160.294 106.129 160.045 106.296 160.128 106.463Z" fill="#3B4559"/>
<path d="M162.704 105.879C162.621 106.714 162.704 107.549 162.704 108.384C162.704 109.218 162.621 110.053 162.704 110.888C162.704 111.055 163.037 111.139 163.12 110.972C163.369 109.385 163.12 107.382 162.704 105.879C162.704 105.795 162.704 105.795 162.704 105.879Z" fill="#3B4559"/>
<path d="M99.959 164.404C99.8759 164.905 99.7927 165.322 99.8759 165.823C99.8759 166.074 100.208 166.074 100.208 165.823C100.291 165.322 100.208 164.905 100.125 164.404C100.125 164.32 99.959 164.32 99.959 164.404Z" fill="#3B4559"/>
<path d="M100.956 164.821C100.873 165.573 100.79 166.324 100.873 167.075C100.873 167.242 101.122 167.242 101.206 167.075C101.372 166.324 101.206 165.573 101.122 164.821C101.206 164.654 101.039 164.654 100.956 164.821Z" fill="#3B4559"/>
<path d="M102.12 167.326C102.037 167.827 102.12 168.495 102.286 168.996C102.369 169.163 102.618 169.163 102.618 168.912C102.618 168.411 102.535 167.743 102.286 167.326C102.203 167.242 102.12 167.242 102.12 167.326Z" fill="#3B4559"/>
<path d="M100.208 167.91C100.208 168.244 100.374 168.495 100.541 168.829C100.624 168.912 100.79 168.829 100.707 168.745C100.624 168.328 100.541 168.077 100.208 167.91C100.291 167.827 100.208 167.827 100.208 167.91Z" fill="#3B4559"/>
<path d="M131.789 115.063C131.789 115.647 131.622 116.315 131.872 116.816C131.955 117.066 132.287 117.066 132.37 116.816C132.537 116.232 132.454 115.647 132.454 115.063C132.37 114.645 131.789 114.645 131.789 115.063Z" fill="#3B4559"/>
<path d="M132.37 115.063C132.287 115.48 132.204 115.814 132.37 116.148C132.454 116.398 132.786 116.398 132.869 116.148C132.952 115.731 132.869 115.397 132.869 115.063C132.786 114.729 132.37 114.729 132.37 115.063Z" fill="#3B4559"/>
<path d="M132.786 112.308C132.952 113.393 132.869 114.562 133.118 115.564C133.118 115.731 133.368 115.731 133.368 115.564C133.7 114.562 133.285 113.226 133.035 112.224C133.035 112.057 132.786 112.141 132.786 112.308Z" fill="#3B4559"/>
<path d="M131.872 119.321C131.789 119.738 131.706 120.239 132.121 120.573C132.204 120.656 132.454 120.573 132.454 120.406C132.454 120.072 132.287 119.821 132.37 119.404C132.37 119.154 131.955 118.987 131.872 119.321Z" fill="#3B4559"/>
<path d="M102.535 125.582C102.618 126.083 102.618 126.5 102.951 126.834C103.034 127.001 103.283 126.918 103.283 126.751C103.283 126.25 103.117 125.916 102.868 125.499C102.701 125.332 102.452 125.415 102.535 125.582Z" fill="#3B4559"/>
<path d="M103.117 124.914C103.366 125.165 103.366 125.332 103.449 125.666C103.532 125.833 103.699 125.916 103.782 125.749C103.948 125.332 103.782 124.914 103.449 124.664C103.283 124.33 102.951 124.664 103.117 124.914Z" fill="#3B4559"/>
<path d="M111.012 100.87C110.929 101.621 110.846 102.289 110.929 102.957C110.929 103.124 111.178 103.124 111.261 102.957C111.344 102.206 111.261 101.538 111.178 100.87C111.178 100.703 111.012 100.703 111.012 100.87Z" fill="#3B4559"/>
<path d="M111.511 101.371C111.511 102.206 111.428 103.207 111.594 104.042C111.594 104.209 111.843 104.209 111.926 104.042C112.259 103.207 112.009 102.206 111.76 101.371C111.76 101.204 111.511 101.204 111.511 101.371Z" fill="#3B4559"/>
<path d="M119.655 144.534C119.157 145.786 119.073 147.122 119.738 148.291C119.821 148.458 120.071 148.374 119.988 148.207C119.738 147.038 119.572 145.87 119.988 144.701C120.154 144.367 119.738 144.283 119.655 144.534Z" fill="#3B4559"/>
<path d="M117.411 144.2C117.411 144.45 117.411 144.701 117.411 144.951C117.494 145.118 117.661 145.118 117.744 144.951C117.827 144.701 117.827 144.534 117.744 144.2C117.827 143.949 117.411 143.949 117.411 144.2Z" fill="#3B4559"/>
<path d="M153.147 124.33C152.981 124.914 152.898 125.332 152.898 125.916C152.898 126.083 153.147 126.167 153.23 126C153.479 125.499 153.562 124.998 153.646 124.413C153.729 124.079 153.23 123.996 153.147 124.33Z" fill="#3B4559"/>
<path d="M153.978 126.083C153.895 126.667 153.646 127.252 153.563 127.753C153.563 127.92 153.729 128.17 153.895 127.92C154.311 127.419 154.394 126.667 154.227 126C154.144 125.916 153.978 125.916 153.978 126.083Z" fill="#3B4559"/>
<path d="M182.899 124.497C182.816 124.747 182.733 124.831 182.65 125.081C182.65 125.248 182.65 125.499 182.816 125.582C182.982 125.749 183.065 125.749 183.315 125.749C183.481 125.749 183.647 125.582 183.647 125.415C183.73 125.165 183.73 125.081 183.73 124.831C183.813 124.246 183.148 124.079 182.899 124.497Z" fill="#3B4559"/>
<path d="M180.572 126.333C180.24 126.751 180.073 127.168 180.323 127.586C180.406 127.753 180.655 127.753 180.738 127.502C180.821 127.168 180.738 126.834 180.821 126.417C180.905 126.334 180.738 126.167 180.572 126.333Z" fill="#3B4559"/>
<path d="M237.583 122.827C237.666 123.161 237.583 123.411 237.5 123.745C237.417 123.912 237.666 123.996 237.749 123.829C237.999 123.495 237.999 123.161 237.999 122.744C237.999 122.493 237.583 122.577 237.583 122.827Z" fill="#3B4559"/>
<path d="M238.913 123.328C238.83 123.745 238.83 123.996 238.913 124.413C238.913 124.497 239.079 124.497 239.162 124.413C239.245 124.079 239.162 123.745 239.162 123.328C239.079 123.244 238.996 123.244 238.913 123.328Z" fill="#3B4559"/>
<path d="M239.827 160.814C239.578 161.231 239.245 161.565 239.079 161.983C238.996 162.15 239.245 162.233 239.328 162.15C239.661 161.816 239.827 161.315 239.993 160.897C239.993 160.73 239.91 160.73 239.827 160.814Z" fill="#3B4559"/>
<path d="M237.749 159.729C237.749 160.229 237.749 160.647 237.749 161.148C237.749 161.315 237.999 161.315 237.999 161.148C237.999 160.647 237.999 160.229 237.999 159.729C237.915 159.645 237.749 159.645 237.749 159.729Z" fill="#3B4559"/>
<path d="M186.888 163.235C187.137 163.986 187.719 164.988 188.467 165.406C188.633 165.489 188.966 165.322 188.883 165.072C188.633 164.32 187.969 163.486 187.387 162.985C187.137 162.818 186.805 162.985 186.888 163.235Z" fill="#3B4559"/>
<path d="M184.894 165.573C185.06 166.074 185.226 166.575 185.558 166.992C185.725 167.159 185.891 166.992 185.891 166.825C185.808 166.324 185.558 165.907 185.309 165.406C185.226 165.155 184.811 165.322 184.894 165.573Z" fill="#3B4559"/>
<path d="M230.436 141.361C229.854 141.695 229.522 142.614 230.187 143.031C230.27 143.115 230.519 143.031 230.519 142.864C230.602 142.447 230.436 142.113 230.768 141.695C230.935 141.445 230.602 141.194 230.436 141.361Z" fill="#3B4559"/>
<path d="M181.071 35.5825C181.32 36.0834 181.569 36.5843 181.819 37.0852C181.819 37.1687 181.985 37.1687 182.068 37.1687C182.484 37.1687 182.899 37.1687 183.315 37.1687C183.481 37.1687 183.647 37.0852 183.73 36.9183C183.98 36.5843 184.146 36.2504 184.312 35.8329C184.395 35.6659 184.561 35.5824 184.727 35.6659C185.309 35.8329 185.808 35.9999 186.39 36.1669C186.39 36.6678 186.39 37.1687 186.39 37.6696C186.39 37.9201 186.39 38.0871 186.722 38.2541C186.971 38.3375 187.221 38.5045 187.387 38.6715C187.802 39.0054 188.135 38.922 188.467 38.6715C188.8 38.421 189.132 38.2541 189.381 38.0871C189.88 38.588 190.379 39.0054 190.877 39.4229C190.628 39.9238 190.379 40.3412 190.046 40.7587C189.88 41.0091 189.88 41.1761 190.046 41.3431C190.212 41.5936 190.379 41.844 190.462 42.0945C190.628 42.5119 190.877 42.5954 191.21 42.5954C191.542 42.5954 191.875 42.5954 192.207 42.5954C192.456 42.5954 192.539 42.6789 192.623 42.9294C192.706 43.4303 192.872 43.9312 193.038 44.3487C193.038 44.4321 193.038 44.4321 193.038 44.5156C192.539 44.7661 192.124 45.0166 191.625 45.267C191.542 45.3505 191.459 45.5175 191.459 45.601C191.459 46.1019 191.293 46.6863 191.542 47.0203C191.792 47.4377 192.373 47.6047 192.789 47.8551C192.955 47.9386 193.038 48.1056 192.955 48.2726C192.789 48.69 192.706 49.1909 192.539 49.6919C192.456 49.9423 192.373 50.0258 192.124 49.9423C191.708 49.9423 191.293 49.9423 190.96 49.8588C190.711 49.8588 190.628 49.9423 190.545 50.1093C190.379 50.4433 190.129 50.8607 189.963 51.1946C189.88 51.3616 189.797 51.5286 189.963 51.6956C190.213 52.113 190.462 52.5305 190.711 53.0314C190.545 53.1984 190.379 53.2818 190.296 53.4488C190.129 53.6158 189.963 53.6993 189.88 53.8663C189.298 54.4507 189.298 54.4507 188.633 54.0332C188.052 53.6158 187.636 53.6158 187.054 53.9497C186.39 54.2837 186.14 54.7011 186.223 55.4525C186.307 56.2039 186.223 56.2039 185.559 56.3709C185.143 56.4544 184.644 56.7048 184.312 56.6213C183.98 56.5379 183.896 55.9534 183.73 55.6195C183.564 55.2855 183.398 55.1186 182.982 55.202C182.65 55.2855 182.317 55.202 181.985 55.202C181.736 55.202 181.653 55.2855 181.486 55.4525C181.237 55.87 180.988 56.2874 180.738 56.7048C180.157 56.5379 179.658 56.3709 179.076 56.2039C178.827 56.1204 178.827 56.0369 178.827 55.7865C178.827 55.369 178.827 55.0351 178.827 54.6176C178.827 54.4507 178.744 54.2837 178.578 54.2002C178.245 53.9497 177.83 53.6993 177.414 53.5323C177.331 53.4488 177.082 53.4488 176.999 53.5323C176.666 53.6993 176.251 53.9497 175.918 54.1167C175.835 54.2002 175.669 54.2002 175.586 54.1167C175.17 53.6993 174.755 53.2818 174.339 52.7809C174.589 52.3635 174.838 51.946 175.087 51.5286C175.17 51.4451 175.17 51.1946 175.087 51.1112C174.921 50.6937 174.672 50.3598 174.422 49.9423C174.339 49.7754 174.173 49.6919 174.007 49.6919C173.508 49.6919 173.093 49.6919 172.677 49.6919C172.677 49.6084 172.594 49.6084 172.594 49.6084C172.511 49.2744 172.428 48.857 172.262 48.523C172.095 47.7717 172.095 47.7717 172.76 47.4377C173.342 47.1872 173.674 46.7698 173.508 46.1019C173.425 45.9349 173.508 45.6845 173.508 45.5175C173.591 45.1835 173.425 44.9331 173.093 44.8496C172.76 44.6826 172.262 44.5156 172.178 44.2652C172.095 44.0147 172.345 43.5138 172.428 43.1798C172.677 42.4284 172.677 42.4284 173.425 42.4284C173.591 42.4284 173.757 42.4284 174.007 42.4284C174.256 42.4284 174.339 42.345 174.422 42.178C174.672 41.7605 174.921 41.4266 175.087 41.0092C175.17 40.9257 175.17 40.6752 175.087 40.5917C174.838 40.1743 174.588 39.7568 174.505 39.5064C175.004 38.922 175.42 38.421 175.835 37.9201C176.168 38.1706 176.5 38.3375 176.832 38.5045C177.165 38.755 177.414 38.8385 177.83 38.5045C178.079 38.3375 178.411 38.1706 178.661 38.0036C178.91 37.9201 178.993 37.7531 178.993 37.5027C178.993 37.1687 178.993 36.7513 178.993 36.4173C178.993 36.1669 179.076 36.0834 179.326 35.9999C179.824 35.9164 180.323 35.7494 180.738 35.5825C180.905 35.5825 180.988 35.5825 181.071 35.5825ZM188.8 46.2689C188.8 42.7624 186.057 39.9238 182.65 39.9238C179.242 39.9238 176.417 42.7624 176.417 46.1854C176.417 49.6084 179.159 52.3635 182.65 52.3635C185.974 52.3635 188.8 49.6084 188.8 46.2689Z" fill="#353831"/>
<path d="M103.699 39.9238C103.2 40.5917 103.533 41.4265 104.364 41.5935C104.613 41.677 104.862 41.677 105.112 41.7605C106.608 42.0944 106.608 42.0944 106.608 43.6807C106.608 44.0981 106.524 44.3486 106.109 44.4321C105.61 44.5991 105.112 44.7661 104.613 44.933C103.782 45.267 103.533 46.1019 104.114 46.7698C104.281 46.9367 104.447 47.1872 104.613 47.3542C105.61 48.4395 105.61 48.4395 104.696 49.6918C104.447 50.0258 104.197 50.1928 103.782 50.0258C103.283 49.8588 102.702 49.6918 102.203 49.5248C101.538 49.3579 100.79 49.9423 100.79 50.6102C100.79 51.1946 100.873 51.779 100.956 52.4469C100.956 52.6139 100.956 52.8644 100.873 52.9479C100.291 53.1983 99.7097 53.5323 99.128 53.6157C98.8786 53.6157 98.6293 53.1983 98.38 52.8644C98.2138 52.6139 98.0476 52.4469 97.8814 52.1965C97.1334 51.2781 96.3854 51.2781 95.7206 52.2799C95.4713 52.6974 95.222 53.1148 94.9726 53.5323C94.8895 53.6157 94.7233 53.8662 94.6402 53.8662C94.0585 53.7827 93.3936 53.6158 92.895 53.3653C92.7288 53.2818 92.7288 52.6974 92.6457 52.3634C92.5626 52.0295 92.6457 51.612 92.6457 51.2781C92.6457 50.4432 91.8146 49.8588 91.0666 50.1928C90.568 50.4432 90.0694 50.6102 89.5707 50.8607C89.4045 50.9441 89.1552 50.9441 89.0721 50.8607C88.6566 50.4432 88.1579 49.9423 87.9917 49.3579C87.9086 49.1074 88.3241 48.69 88.5735 48.2725C88.6566 48.1056 88.8228 47.9386 88.9059 47.6881C89.5707 46.7698 89.2383 46.0184 88.1579 45.6844C87.6593 45.6009 87.2438 45.434 86.7451 45.3505C86.5789 45.3505 86.4127 45.1835 86.4127 45.1C86.3296 44.4321 86.2465 43.7642 86.3296 43.1798C86.3296 42.9293 86.9113 42.8458 87.2438 42.6789C87.5762 42.5119 87.9917 42.4284 88.4072 42.2614C88.989 42.011 89.1552 41.0926 88.8228 40.6751C88.3241 40.0907 87.8255 39.5063 87.3269 38.9219C87.6593 38.421 87.9086 37.9201 88.3241 37.4191C88.4072 37.2522 88.7397 37.1687 88.989 37.1687C89.5707 37.2522 90.0694 37.5026 90.6511 37.5861C91.3991 37.8366 92.0639 37.2522 91.9808 36.4173C91.9808 36.1668 91.8977 35.9998 91.8977 35.7494C91.8146 34.0796 91.8146 34.0796 93.4767 33.6622C93.6429 33.5787 93.9754 33.7457 94.1416 33.9127C94.5571 34.4136 94.8895 34.9145 95.3051 35.4154C95.4713 35.5824 95.7206 35.6659 95.9699 35.7494C96.801 35.9164 96.9672 35.165 97.2996 34.664C98.2138 33.1613 98.2138 33.1613 99.7928 33.8292C99.959 33.9126 100.125 34.1631 100.208 34.4136C100.291 34.998 100.208 35.5824 100.291 36.2503C100.291 36.5008 100.541 36.7512 100.707 37.0017C101.206 37.5861 101.704 37.1687 102.12 37.0017C103.948 36.2503 103.948 36.2503 105.112 38.0035C104.53 38.7549 104.114 39.3393 103.699 39.9238ZM90.8173 43.5972C90.6511 46.5193 93.0612 49.1074 96.1361 49.3579C99.0449 49.5249 101.704 47.1037 101.87 44.0147C102.037 41.0926 99.6266 38.5045 96.5517 38.3375C93.5598 38.1705 90.9835 40.5082 90.8173 43.5972Z" fill="#353831"/>
<path d="M142.676 53.1983C142.26 53.5322 142.26 54.6176 142.759 54.868C143.507 55.202 143.59 55.6194 143.257 56.2873C143.174 56.4543 143.174 56.6213 143.091 56.7883C142.509 56.8717 141.845 56.5378 141.429 57.3727C140.93 58.2075 141.595 58.5415 141.761 59.2929C141.595 59.3764 141.346 59.5434 141.18 59.7103C140.847 60.1278 140.432 60.2112 140.099 59.7938C139.601 59.2929 139.268 59.7103 138.77 59.8773C138.354 60.0443 138.354 60.3782 138.354 60.7122C138.437 61.2966 138.188 61.4636 137.606 61.547C137.108 61.6305 136.692 61.7975 136.526 61.1296C136.443 60.8791 136.193 60.6287 135.944 60.5452C135.279 60.4617 134.614 60.3782 134.365 61.2131C134.365 61.3801 134.199 61.4636 134.116 61.6305C133.866 61.547 133.617 61.4636 133.368 61.4636C133.118 61.3801 132.952 61.2966 132.703 61.2131C132.703 60.8791 132.703 60.5452 132.703 60.2947C132.703 59.7103 131.623 59.1259 131.207 59.4599C130.542 59.9608 130.127 59.7938 129.711 59.2094C129.628 59.0424 129.462 58.9589 129.379 58.792C129.545 58.5415 129.628 58.3745 129.794 58.124C130.127 57.5396 129.545 56.3708 128.88 56.4543C128.215 56.5378 127.966 56.2038 127.883 55.6194C127.883 55.4524 127.8 55.202 127.8 55.035C127.883 54.9515 127.966 54.868 128.049 54.868C128.464 54.6176 128.88 54.4506 128.88 53.7827C128.88 53.1148 128.714 52.7808 128.132 52.5304C127.55 52.2799 128.049 51.779 128.049 51.445C128.049 51.1111 128.215 50.8606 128.631 50.9441C128.88 50.9441 129.296 50.9441 129.462 50.7771C130.127 50.1092 130.127 49.6918 129.711 48.9404C129.628 48.8569 129.628 48.7734 129.545 48.6064C129.877 48.2725 130.293 47.9385 130.625 47.6046C131.207 47.8551 131.539 48.356 132.37 47.9386C133.202 47.5211 132.869 46.8532 133.035 46.2688C133.534 46.1853 133.949 46.0183 134.448 45.9348C134.614 46.1853 134.781 46.4358 134.864 46.6862C135.03 47.2707 135.529 47.1037 135.944 47.1872C136.36 47.2706 136.609 47.0202 136.692 46.6862C136.941 46.1018 137.274 45.9348 137.855 46.1853C138.105 46.2688 138.271 46.3523 138.52 46.4358C138.52 46.7697 138.603 47.0202 138.52 47.2707C138.354 47.8551 138.853 47.9385 139.185 48.189C139.518 48.4395 139.767 48.4395 140.099 48.189C140.598 47.6881 141.097 47.8551 141.429 48.356C141.512 48.523 141.678 48.6899 141.845 48.7734C141.678 49.4413 141.014 49.7753 141.429 50.6102C141.845 51.445 142.509 51.0276 143.174 51.1946C143.673 52.5304 143.673 52.5304 142.676 53.1983ZM131.041 54.0332C131.041 56.6213 133.118 58.7085 135.695 58.7085C138.188 58.7085 140.349 56.6213 140.349 54.0331C140.349 51.445 138.271 49.3578 135.695 49.3578C133.118 49.3578 131.041 51.445 131.041 54.0332Z" fill="#353831"/>
<path d="M151.984 8.53235C151.568 8.69932 151.402 8.44887 151.153 8.2819C150.488 7.69748 149.657 7.614 148.909 8.2819C148.659 8.53236 148.41 8.69933 148.078 8.44887C147.745 8.2819 147.745 8.03142 147.745 7.69747C147.828 6.77911 147.247 6.02773 146.415 5.77727C146.166 5.69378 145.917 5.44331 145.834 5.27634C145.667 4.94239 145.834 4.69192 146.166 4.44146C146.914 4.02402 147.163 3.10565 146.748 2.27078C146.665 2.02031 146.665 1.68637 146.748 1.51939C146.914 1.26893 147.163 1.01847 147.579 1.18545C148.41 1.5194 149.158 1.18545 149.657 0.350571C149.74 0.183595 150.072 -0.0668751 150.321 0.0166125C150.571 0.0166124 150.903 0.183588 150.986 0.434051C151.402 1.35241 151.984 1.68637 152.981 1.51939C153.23 1.51939 153.479 1.68636 153.729 1.85334C153.978 2.1038 153.978 2.35426 153.812 2.68821C153.313 3.52309 153.396 4.19099 154.227 4.77541C154.56 5.02587 154.56 5.27633 154.477 5.61028C154.394 6.02772 154.144 6.11121 153.812 6.11121C152.981 6.1947 152.399 6.8626 152.399 7.78097C152.482 8.03143 152.482 8.36537 151.984 8.53235ZM150.155 2.1873C148.909 2.1873 147.911 3.18915 147.994 4.44146C147.994 5.61029 148.992 6.61214 150.155 6.61214C151.319 6.61214 152.316 5.61029 152.316 4.44146C152.316 3.18915 151.402 2.1873 150.155 2.1873Z" fill="#353831"/>
<path d="M6.21508 173.337C5.79954 173.504 5.63333 173.254 5.38401 173.087C4.71916 172.502 3.8881 172.419 3.14014 173.087C2.89082 173.337 2.6415 173.504 2.30908 173.254C1.97665 173.087 1.97665 172.836 1.97665 172.502C2.05976 171.584 1.47801 170.832 0.646951 170.582C0.397632 170.499 0.148313 170.248 0.065207 170.081C-0.101006 169.747 0.0652068 169.497 0.397632 169.246C1.14559 168.829 1.39491 167.91 0.979376 167.076C0.89627 166.825 0.89627 166.491 0.979376 166.324C1.14559 166.074 1.39491 165.823 1.81044 165.99C2.6415 166.324 3.38946 165.99 3.8881 165.155C3.9712 164.988 4.30363 164.738 4.55295 164.821C4.80227 164.821 5.13469 164.988 5.2178 165.239C5.63333 166.157 6.21507 166.491 7.21235 166.324C7.46167 166.324 7.71099 166.491 7.96031 166.658C8.20963 166.909 8.20963 167.159 8.04341 167.493C7.54478 168.328 7.62788 168.996 8.45895 169.58C8.79137 169.831 8.79137 170.081 8.70826 170.415C8.62516 170.832 8.37584 170.916 8.04341 170.916C7.21235 170.999 6.63061 171.667 6.63061 172.586C6.71371 172.836 6.71371 173.087 6.21508 173.337ZM4.46984 166.992C3.22325 166.992 2.22597 167.994 2.30908 169.246C2.30908 170.415 3.30635 171.417 4.46984 171.417C5.63333 171.417 6.63061 170.415 6.63061 169.246C6.5475 167.91 5.63333 166.992 4.46984 166.992Z" fill="#353831"/>
<path d="M133.949 38.588C133.285 38.588 132.62 38.421 131.955 38.1706C131.706 38.0871 131.622 37.7531 131.706 37.5027C131.789 37.2522 132.121 37.1687 132.37 37.2522C133.866 38.0036 135.861 37.5027 136.775 36.2503C137.024 35.9999 137.108 35.5824 137.191 35.2485C136.692 35.165 136.11 34.998 135.695 34.831C135.03 34.5806 134.448 34.2466 133.949 33.7457C133.451 33.1613 133.202 32.1594 133.783 31.4081C134.448 30.4897 135.778 30.5732 136.609 31.1576C137.44 31.6585 138.022 32.5769 138.188 33.6622C138.188 33.8292 138.271 33.9962 138.271 34.1632C139.185 33.9127 139.85 33.0778 140.099 31.9925C140.182 31.4081 140.182 30.8236 140.016 30.1557C138.936 30.1557 138.022 29.9053 137.274 29.6548C136.193 29.3209 135.528 28.5695 135.445 27.7346C135.362 27.1502 135.612 26.6493 136.11 26.2318C136.692 25.7309 137.523 25.5639 138.188 25.8144C139.102 26.1483 139.85 26.8997 140.432 28.2355C140.515 28.486 140.681 28.7364 140.764 28.9869C141.014 28.9034 141.346 28.8199 141.595 28.7365C141.678 28.653 142.676 28.2355 143.008 27.1502C143.174 26.6493 143.174 26.1483 143.008 25.6474C141.346 25.8979 139.102 25.23 138.105 24.1446C137.44 23.4767 137.44 22.8088 137.606 22.3914C137.772 21.7235 138.354 21.3895 139.102 21.306C140.266 21.1391 142.177 21.807 142.925 22.9758C143.257 23.4767 143.507 23.9776 143.673 24.3951C144.504 23.9776 145.335 23.2263 145.751 22.3914C146.083 21.807 146.332 20.8051 145.751 19.7198C145.584 19.4693 145.751 19.1354 146 19.0519C146.249 18.9684 146.582 19.0519 146.665 19.3023C147.246 20.4712 147.246 21.7235 146.665 22.8923C146.083 23.9777 145.086 24.9795 144.005 25.3969C144.172 26.1483 144.172 26.8997 144.005 27.4841C143.59 29.0704 142.177 29.6548 142.011 29.7383C141.678 29.9053 141.346 29.9888 141.014 30.0722C141.18 30.8236 141.18 31.4915 141.097 32.1594C140.847 33.6622 139.767 34.8311 138.52 35.165C138.437 35.165 138.354 35.165 138.271 35.2485C138.188 35.8329 137.939 36.3338 137.606 36.8348C136.775 37.9201 135.362 38.588 133.949 38.588ZM135.279 31.6585C135.03 31.6585 134.781 31.742 134.697 31.909C134.448 32.1594 134.614 32.6604 134.864 32.9943C135.196 33.3283 135.695 33.5787 136.193 33.8292C136.609 33.9962 137.024 34.1632 137.44 34.1632C137.44 34.0797 137.44 33.9127 137.357 33.8292C137.191 33.0778 136.775 32.4099 136.193 31.9925C135.861 31.742 135.528 31.6585 135.279 31.6585ZM137.606 26.8162C137.357 26.8162 137.024 26.8997 136.775 27.0667C136.609 27.1502 136.443 27.4006 136.443 27.6511C136.526 28.152 137.108 28.486 137.606 28.653C138.188 28.8199 138.936 29.0704 139.767 29.0704C139.684 28.9869 139.684 28.8199 139.601 28.653C139.102 27.5676 138.603 26.9832 137.939 26.8162C137.855 26.8162 137.689 26.8162 137.606 26.8162ZM139.518 22.2244C139.434 22.2244 139.351 22.2244 139.268 22.2244C138.936 22.3079 138.687 22.3914 138.603 22.6418C138.603 22.7253 138.52 22.9758 138.853 23.3932C139.601 24.2281 141.346 24.729 142.676 24.6455C142.509 24.3116 142.26 23.8942 142.011 23.4767C141.678 22.8088 140.432 22.2244 139.518 22.2244Z" fill="#353831"/>
</svg>
