<svg width="78" height="78" viewBox="0 0 78 78" fill="none" xmlns="http://www.w3.org/2000/svg">
<path d="M9.39467 63.3535C4.78007 57.7425 1.85489 50.9359 0.959961 43.7265C0.0650278 36.5169 1.23718 29.2016 4.33987 22.6327C7.44253 16.0638 12.348 10.5118 18.4846 6.62355C24.6213 2.73528 31.7365 0.670898 39.0013 0.670898C46.266 0.670898 53.3813 2.73528 59.518 6.62355C65.6546 10.5118 70.56 16.0638 73.6626 22.6327C76.7656 29.2016 77.9376 36.5169 77.0426 43.7265C76.1476 50.9359 73.2226 57.7425 68.608 63.3535" stroke="#3B4559" stroke-linecap="round" stroke-linejoin="round"/>
<path d="M25.638 33.1638C25.1778 33.1638 24.8047 32.7908 24.8047 32.3304C24.8047 31.8702 25.1778 31.4971 25.638 31.4971" stroke="#3B4559"/>
<path d="M25.6367 33.1638C26.097 33.1638 26.4701 32.7908 26.4701 32.3304C26.4701 31.8702 26.097 31.4971 25.6367 31.4971" stroke="#3B4559"/>
<path d="M53.138 33.1638C52.6777 33.1638 52.3047 32.7908 52.3047 32.3304C52.3047 31.8702 52.6777 31.4971 53.138 31.4971" stroke="#3B4559"/>
<path d="M53.1367 33.1638C53.5971 33.1638 53.9701 32.7908 53.9701 32.3304C53.9701 31.8702 53.5971 31.4971 53.1367 31.4971" stroke="#3B4559"/>
<path d="M29.448 17.9666C26.82 17.3929 24.0748 17.7352 21.668 18.9366C19.228 20.0699 17.2478 22.0019 16.0547 24.4132" stroke="#3B4559" stroke-linecap="round" stroke-linejoin="round"/>
<path d="M48.9556 49.7101C47.0996 48.9214 45.0366 48.7621 43.0816 49.2561C41.1266 49.7504 39.3872 50.8711 38.1289 52.4467" stroke="#3B4559" stroke-linecap="round" stroke-linejoin="round"/>
<path d="M48.5547 23.0004C51.1847 22.4656 53.9177 22.8062 56.336 23.9703C58.7544 25.1343 60.7254 27.0578 61.948 29.4471" stroke="#3B4559" stroke-linecap="round" stroke-linejoin="round"/>
<path d="M15.668 71.43L26.1046 67.7633L24.9313 59.5133C24.8067 58.638 25.0348 57.7493 25.5655 57.0423C26.0962 56.3353 26.8861 55.868 27.7613 55.7433C28.6365 55.6186 29.5254 55.8466 30.2324 56.3776C30.9394 56.9083 31.4066 57.698 31.5313 58.5733L32.7046 66.8233L55.1146 59.91C55.5733 59.7763 56.0553 59.7426 56.528 59.8113C57.0006 59.8803 57.453 60.0496 57.8546 60.3086C58.256 60.5676 58.597 60.9096 58.8546 61.312C59.1123 61.714 59.2806 62.167 59.348 62.64L59.378 62.86C59.4826 63.5956 59.3383 64.3453 58.9683 64.9896C58.598 65.6343 58.023 66.1363 57.3346 66.4166L49.9113 69.4166L50.668 74.75C50.7916 75.6053 50.759 76.4763 50.5713 77.32" stroke="#3B4559" stroke-linecap="round" stroke-linejoin="round"/>
</svg>
