<svg width="276" height="199" viewBox="0 0 276 199" fill="none" xmlns="http://www.w3.org/2000/svg">
<path d="M99.1054 105.802L96.5836 105.319C95.9654 105.181 95.4395 105.625 95.2992 106.244L93.0446 118.727C92.9044 119.347 93.3454 119.872 93.9636 120.01L96.4853 120.493C97.1035 120.631 97.6295 120.187 97.7697 119.567L100.024 107.084C100.116 106.532 99.7236 105.94 99.1054 105.802Z" fill="#7B8AA0"/>
<path d="M73.3474 129.523L71.3258 126.928C70.8663 126.287 70.9697 125.435 71.6119 124.972L90.7797 110.086C91.4219 109.623 92.2726 109.722 92.7321 110.364L94.7536 112.958C95.2131 113.599 95.1097 114.451 94.4675 114.914L75.2998 129.801C74.6576 130.264 73.7395 130.115 73.3474 129.523Z" fill="#3B4559"/>
<path d="M63.3552 150.194L60.3302 148.913C59.5876 148.653 59.3061 147.78 59.5862 147.121L65.0158 134.32C65.2776 133.58 66.1556 133.298 66.8167 133.576L69.8418 134.857C70.5844 135.116 70.8658 135.99 70.5858 136.649L65.1562 149.449C64.8943 150.189 64.116 150.534 63.3552 150.194Z" fill="#3B4559"/>
<path d="M67.864 129.165C66.6044 130.624 66.704 132.756 68.1554 134.011C69.6067 135.266 71.7363 135.157 72.9958 133.698C74.2554 132.239 74.1558 130.107 72.7044 128.852C71.2715 127.713 69.1419 127.822 67.864 129.165Z" fill="#7B8AA0"/>
<path d="M66.9416 151.689L56.0284 147.663L51.309 154.853L54.4075 157.224L57.1287 152.952L62.626 154.956L61.8788 159.637L65.728 161.159L66.9416 151.689Z" fill="#7B8AA0"/>
<path d="M177.668 105.656L175.177 106.28C174.558 106.415 174.268 107.039 174.401 107.66L177.612 119.932C177.745 120.553 178.366 120.844 178.985 120.708L181.476 120.085C182.095 119.95 182.385 119.326 182.251 118.705L179.041 106.433C178.891 105.893 178.286 105.521 177.668 105.656Z" fill="#7B8AA0"/>
<path d="M202.365 125.689L200.261 128.217C199.733 128.802 198.878 128.883 198.289 128.354L179.661 112.797C179.072 112.268 178.989 111.415 179.517 110.83L181.621 108.302C182.15 107.717 183.005 107.636 183.594 108.165L202.221 123.722C202.81 124.251 202.861 125.18 202.365 125.689Z" fill="#3B4559"/>
<path d="M223.771 122.522L224.515 125.721C224.742 126.474 224.201 127.216 223.504 127.377L209.959 130.518C209.206 130.741 208.462 130.197 208.297 129.499L207.553 126.3C207.326 125.546 207.867 124.805 208.565 124.644L222.11 121.503C222.862 121.28 223.599 121.706 223.771 122.522Z" fill="#3B4559"/>
<path d="M204.114 131.248C206.035 131.408 207.701 130.073 207.861 128.161C208.022 126.249 206.681 124.591 204.761 124.431C202.84 124.271 201.174 125.605 201.013 127.517C200.936 129.346 202.277 131.004 204.114 131.248Z" fill="#7B8AA0"/>
<path d="M222.871 118.742L226.035 129.935L234.626 129.521L234.721 125.621L229.665 125.934L228.051 120.309L232.277 118.159L231.243 114.152L222.871 118.742Z" fill="#7B8AA0"/>
<path d="M204.5 161.823L201.161 167.822C200.805 168.502 200.002 168.731 199.323 168.373L185.738 160.745C185.059 160.386 184.828 159.58 185.184 158.899L188.523 152.9C188.878 152.22 189.681 151.991 190.361 152.35L203.945 159.977C204.624 160.336 204.856 161.142 204.5 161.823Z" fill="#3B4559"/>
<path d="M218.966 167.842L213.864 177.057C213.509 177.737 212.706 177.967 212.026 177.608L198.411 169.903C197.732 169.544 197.501 168.738 197.856 168.057L202.958 158.842C203.313 158.162 204.116 157.932 204.795 158.291L218.38 165.919C219.09 166.355 219.321 167.162 218.966 167.842Z" fill="#7B8AA0"/>
<path d="M223.881 172.583C218.602 177.303 218.095 185.498 222.84 190.798L242.103 173.708C237.416 168.348 229.218 167.803 223.881 172.583Z" fill="#3B4559"/>
<g opacity="0.7">
<g opacity="0.7">
<path opacity="0.7" d="M268.101 180.518C268.101 184.624 208.098 188.035 134.051 188.035C60.0028 188.035 2.04441e-06 184.694 1.31426e-06 180.518C5.84118e-07 176.342 60.0028 173.001 134.051 173.001C208.098 173.071 268.101 176.412 268.101 180.518Z" fill="#7B8AA0"/>
</g>
</g>
<path d="M169.32 60.2189C165.209 58.7128 160.65 60.8089 159.138 64.9007C157.625 68.9924 159.73 73.5303 163.841 75.0364C167.951 76.5425 172.51 74.4463 174.023 70.3546C175.536 66.2629 173.43 61.7249 169.32 60.2189Z" fill="#3B4559"/>
<path d="M116.387 67.5819C116.387 71.9865 112.797 75.477 108.455 75.5601C104.031 75.5601 100.524 71.9865 100.441 67.665C100.441 63.2603 104.031 59.7699 108.372 59.6868C112.88 59.6868 116.387 63.2603 116.387 67.5819Z" fill="#3B4559"/>
<path d="M136.173 19.8787C136.591 17.2193 136.841 14.4768 138.428 12.233C139.262 10.9864 140.348 9.90597 141.6 9.15801C142.685 8.49316 143.604 8.49317 144.272 7.32969C144.606 6.74794 144.272 6.16619 143.687 5.91687C140.932 4.83649 137.509 8.9087 136.34 10.9864C134.754 13.7289 133.919 17.1362 135.672 19.9618C135.756 20.2111 136.173 20.2112 136.173 19.8787Z" fill="#3B4559"/>
<path d="M146.192 10.7371C152.871 8.16082 148.863 -2.22748 142.101 0.431915C135.422 3.00821 139.513 13.3134 146.192 10.7371Z" fill="#7B8AA0"/>
<path d="M118.474 139.303L153.205 139.386V143.873L135.839 151.602L118.474 142.461V139.303Z" fill="#F1EFE8"/>
<g filter="url(#filter0_d_424_6605)">
<path d="M170.635 176.036L104.597 175.952C100.923 175.952 98.0011 173.044 98.0011 169.387L98.0846 114.786C98.0846 111.13 101.007 108.221 104.68 108.221L170.719 108.304C174.392 108.304 177.314 111.213 177.314 114.869L177.231 169.47C177.231 173.127 174.309 176.036 170.635 176.036Z" fill="#697181"/>
</g>
<path d="M173.314 130.743C173.314 130.576 173.314 130.327 173.314 130.161C173.314 129.995 173.314 129.745 173.314 129.579L167.971 128.997C167.971 128.748 167.888 128.499 167.888 128.333L173.064 126.67C172.98 126.338 172.897 125.923 172.814 125.59L167.47 126.172C167.387 125.923 167.303 125.756 167.22 125.507L171.895 122.848C171.728 122.515 171.561 122.183 171.394 121.85L166.218 123.512C166.135 123.346 165.968 123.097 165.884 122.931L169.891 119.357C169.641 119.025 169.474 118.775 169.224 118.443L164.548 121.102C164.381 120.936 164.214 120.77 164.047 120.604L167.22 116.282C166.969 116.033 166.635 115.784 166.385 115.534L162.378 119.108C162.211 118.942 162.044 118.858 161.793 118.692L163.964 113.789C163.63 113.623 163.296 113.373 162.962 113.207L159.789 117.529C159.539 117.446 159.372 117.363 159.122 117.279L160.29 112.044C159.956 111.878 159.539 111.794 159.205 111.711L157.034 116.615C156.784 116.532 156.617 116.531 156.366 116.448V111.046C156.032 110.963 155.615 110.963 155.198 110.963L154.112 116.199C154.029 116.199 153.862 116.199 153.778 116.199C153.695 116.199 153.528 116.199 153.444 116.199L152.359 110.963C151.942 110.963 151.608 111.046 151.19 111.046V116.448C150.94 116.531 150.689 116.532 150.522 116.615L148.352 111.711C148.018 111.794 147.6 111.961 147.266 112.044L148.352 117.279C148.101 117.363 147.934 117.446 147.684 117.529L144.511 113.207C144.177 113.373 143.843 113.54 143.509 113.789L145.68 118.692C145.513 118.858 145.263 118.942 145.096 119.108L141.088 115.534C140.838 115.784 140.504 116.033 140.253 116.282L143.426 120.604C143.259 120.77 143.092 120.936 142.925 121.102L138.25 118.36C137.999 118.692 137.832 118.942 137.582 119.274L141.589 122.848C141.506 123.014 141.339 123.263 141.255 123.429L136.079 121.767C135.912 122.1 135.745 122.432 135.578 122.764L140.253 125.424C140.17 125.673 140.086 125.839 140.003 126.089L134.66 125.507C134.576 125.839 134.493 126.255 134.409 126.587L139.585 128.25C139.585 128.499 139.502 128.748 139.502 128.914L134.159 129.496C134.159 129.662 134.159 129.912 134.159 130.078C134.159 130.244 134.159 130.493 134.159 130.66L139.502 131.241C139.502 131.491 139.585 131.74 139.585 131.906L134.409 133.568C134.493 133.901 134.576 134.316 134.66 134.649L140.003 134.067C140.086 134.316 140.17 134.482 140.253 134.732L135.578 137.391C135.745 137.724 135.912 138.056 136.079 138.388L141.255 136.726C141.339 136.893 141.506 137.142 141.589 137.308L137.582 140.882C137.832 141.214 137.999 141.463 138.25 141.796L142.925 139.136C143.092 139.303 143.259 139.469 143.426 139.635L140.253 143.957C140.504 144.206 140.838 144.455 141.088 144.705L145.096 141.131C145.263 141.297 145.43 141.38 145.68 141.547L143.509 146.45C143.843 146.616 144.177 146.865 144.511 147.032L147.684 142.71C147.934 142.793 148.101 142.876 148.352 142.959L147.183 148.195C147.517 148.361 147.934 148.444 148.268 148.527L150.439 143.624C150.689 143.707 150.856 143.707 151.107 143.79V149.192C151.441 149.275 151.858 149.275 152.276 149.275L153.361 144.04C153.444 144.04 153.611 144.04 153.695 144.04C153.778 144.04 153.945 144.04 154.029 144.04L155.114 149.275C155.532 149.275 155.866 149.192 156.283 149.192V143.79C156.533 143.707 156.784 143.707 156.951 143.624L159.122 148.527C159.455 148.444 159.873 148.278 160.207 148.195L159.122 142.959C159.372 142.876 159.539 142.793 159.789 142.71L162.962 147.115C163.296 146.948 163.63 146.782 163.964 146.533L161.793 141.63C161.96 141.463 162.211 141.38 162.378 141.214L166.385 144.788C166.635 144.538 166.969 144.289 167.22 144.04L164.047 139.718C164.214 139.552 164.381 139.386 164.548 139.22L169.224 141.962C169.474 141.63 169.641 141.38 169.891 141.048L165.884 137.474C165.968 137.308 166.135 137.059 166.218 136.893L171.394 138.555C171.561 138.222 171.728 137.89 171.895 137.557L167.22 134.898C167.303 134.649 167.387 134.482 167.47 134.233L172.814 134.815C172.897 134.482 172.98 134.067 173.064 133.735L167.888 132.072C167.888 131.823 167.971 131.574 167.971 131.408L173.314 130.743ZM153.862 128C155.031 128 155.949 128.914 155.949 130.078C155.949 131.241 155.031 132.155 153.862 132.155C152.693 132.155 151.775 131.241 151.775 130.078C151.691 128.914 152.693 128 153.862 128ZM143.175 130.078C143.175 124.593 147.35 120.105 152.693 119.523V125.175C150.439 125.673 148.769 127.668 148.769 130.078C148.769 130.576 148.853 131.075 148.936 131.491L144.01 134.316C143.509 133.07 143.175 131.574 143.175 130.078ZM153.862 140.715C150.355 140.715 147.183 138.97 145.263 136.394L150.188 133.568C151.107 134.566 152.443 135.147 153.862 135.147C155.281 135.147 156.617 134.566 157.535 133.568L162.461 136.394C160.541 139.053 157.368 140.715 153.862 140.715ZM163.63 134.399L158.704 131.574C158.871 131.158 158.955 130.66 158.955 130.161C158.955 127.751 157.285 125.756 155.031 125.258V119.606C160.374 120.188 164.548 124.676 164.548 130.161C164.548 131.657 164.214 133.07 163.63 134.399Z" fill="#3B4559"/>
<path d="M153.862 116.781C146.431 116.781 140.42 122.765 140.42 130.161C140.42 137.557 146.431 143.541 153.862 143.541C161.292 143.541 167.303 137.557 167.303 130.161C167.303 122.765 161.292 116.781 153.862 116.781ZM155.949 130.078C155.949 131.241 155.031 132.156 153.862 132.156C152.693 132.156 151.775 131.241 151.775 130.078C151.775 128.914 152.693 128 153.862 128C155.031 128 155.949 128.914 155.949 130.078ZM144.01 134.316C143.426 132.987 143.092 131.574 143.092 130.078C143.092 124.593 147.266 120.105 152.609 119.523V125.175C150.355 125.673 148.686 127.668 148.686 130.078C148.686 130.576 148.769 131.075 148.853 131.491L144.01 134.316ZM153.862 140.715C150.355 140.715 147.183 138.97 145.263 136.394L150.188 133.568C151.107 134.566 152.443 135.147 153.862 135.147C155.281 135.147 156.617 134.566 157.535 133.568L162.461 136.394C160.541 139.053 157.368 140.715 153.862 140.715ZM158.704 131.491C158.871 131.075 158.955 130.576 158.955 130.078C158.955 127.668 157.285 125.673 155.031 125.175V119.523C160.374 120.105 164.548 124.593 164.548 130.078C164.548 131.574 164.214 133.07 163.63 134.316L158.704 131.491Z" fill="#3B4559"/>
<path d="M153.862 117.861C147.016 117.861 141.506 123.346 141.506 130.078C141.506 136.893 147.016 142.378 153.778 142.378C160.624 142.378 166.134 136.893 166.134 130.161C166.134 123.346 160.624 117.861 153.862 117.861ZM153.862 141.962C147.266 141.962 142.007 136.643 142.007 130.078C142.007 123.512 147.35 118.277 153.945 118.277C160.541 118.277 165.801 123.596 165.801 130.161C165.717 136.643 160.374 141.962 153.862 141.962Z" fill="#D9D9D9"/>
<path d="M153.862 132.155C152.693 132.155 151.775 131.241 151.775 130.078C151.775 128.914 152.693 128 153.862 128C155.031 128 155.949 128.914 155.949 130.078C155.949 131.241 155.031 132.155 153.862 132.155ZM143.175 130.078C143.175 124.593 147.35 120.105 152.693 119.523V125.175C150.439 125.673 148.769 127.668 148.769 130.078C148.769 130.576 148.853 131.075 148.936 131.491L144.01 134.316C143.509 133.07 143.175 131.574 143.175 130.078ZM153.862 140.715C150.355 140.715 147.183 138.97 145.263 136.394L150.188 133.568C151.107 134.566 152.443 135.147 153.862 135.147C155.281 135.147 156.617 134.566 157.535 133.568L162.461 136.394C160.541 139.053 157.368 140.715 153.862 140.715ZM163.63 134.399L158.704 131.574C158.871 131.158 158.955 130.66 158.955 130.161C158.955 127.751 157.285 125.756 155.031 125.258V119.606C160.374 120.188 164.548 124.676 164.548 130.161C164.548 131.657 164.214 133.07 163.63 134.399Z" fill="white"/>
<path d="M133.752 14.5599C125.07 14.5599 117.973 24.0341 117.973 35.7521L149.531 35.7521C149.531 24.0341 142.435 14.5599 133.752 14.5599Z" fill="#3B4559"/>
<path d="M159.049 103.151L116.804 103.151C112.296 103.151 108.622 99.4947 108.622 95.007L108.622 35.0042C108.622 30.5164 112.296 26.8598 116.804 26.8598L159.049 26.8598C163.557 26.8598 167.231 30.5164 167.231 35.0042V95.007C167.231 99.4947 163.557 103.068 159.049 103.151Z" fill="#697181"/>
<path d="M120.645 65.8366C122.816 64.59 124.318 62.0137 125.738 60.0192C127.407 57.6922 129.578 55.3652 130.58 52.7058C131.081 51.3761 129.244 50.5451 128.326 51.4592C126.405 53.2876 125.07 56.0301 123.65 58.357C122.315 60.5178 120.311 62.9279 119.977 65.5042C120.06 65.6704 120.311 66.0028 120.645 65.8366Z" fill="#353831"/>
<path d="M131.999 63.2603C131.081 60.8502 128.827 58.9388 126.99 57.1104C125.32 55.4483 123.233 52.3734 120.812 51.8748C119.893 51.7085 119.142 52.3734 119.392 53.2875C119.893 55.6976 123.066 57.6922 124.736 59.3543C126.572 61.0996 128.576 63.3434 130.997 64.1745C131.582 64.4238 132.166 63.7589 131.999 63.2603Z" fill="#353831"/>
<path d="M151.702 65.8366C153.873 64.59 155.376 62.0137 156.795 60.0192C158.465 57.6922 160.635 55.3652 161.637 52.7058C162.138 51.3761 160.301 50.5451 159.383 51.4592C157.463 53.2876 156.127 56.0301 154.708 58.357C153.372 60.5178 151.368 62.9279 151.034 65.5042C151.118 65.6704 151.368 66.0028 151.702 65.8366Z" fill="#353831"/>
<path d="M163.056 63.2603C162.138 60.8502 159.884 58.9388 158.047 57.1104C156.377 55.4483 154.29 52.3734 151.869 51.8748C150.951 51.7085 150.199 52.3734 150.45 53.2875C150.951 55.6976 154.123 57.6922 155.793 59.3543C157.63 61.0996 159.633 63.3434 162.055 64.1745C162.639 64.4238 163.223 63.7589 163.056 63.2603Z" fill="#353831"/>
<path d="M100.948 171.319L103.056 173.805C103.512 174.403 104.395 174.464 104.99 174.01L123.536 158.586C124.13 158.132 124.187 157.248 123.731 156.651L121.623 154.164C121.167 153.567 120.284 153.506 119.689 153.96L101.143 169.384C100.549 169.838 100.492 170.721 100.948 171.319Z" fill="#3B4559"/>
<path d="M124.028 157.293C122.498 156.171 122.102 154.094 123.219 152.557C124.336 151.02 126.403 150.623 127.934 151.745C129.464 152.868 129.86 154.944 128.743 156.482C127.709 158.017 125.559 158.416 124.028 157.293Z" fill="#7B8AA0"/>
<path d="M154.712 164.258L155.828 167.322C156.049 168.04 156.857 168.403 157.571 168.183L180.312 160.138C181.027 159.918 181.387 159.108 181.166 158.39L180.049 155.327C179.828 154.609 179.021 154.246 178.306 154.466L155.565 162.511C154.851 162.731 154.491 163.54 154.712 164.258Z" fill="#3B4559"/>
<path d="M217.286 169.956L215.224 172.506C214.727 173.071 214.863 173.963 215.429 174.463L226.291 183.207C226.857 183.708 227.748 183.575 228.245 183.011L230.308 180.461C230.805 179.896 230.669 179.005 230.102 178.504L219.241 169.76C218.674 169.26 217.728 169.33 217.286 169.956Z" fill="#3B4559"/>
<path d="M181.55 158.293C180.019 157.171 179.624 155.094 180.741 153.557C181.858 152.02 183.925 151.623 185.456 152.745C186.986 153.868 187.382 155.944 186.265 157.482C185.231 159.017 183.081 159.416 181.55 158.293Z" fill="#7B8AA0"/>
<path d="M160.881 178.583C155.602 183.303 155.095 191.498 159.84 196.798L179.103 179.708C174.416 174.348 166.218 173.803 160.881 178.583Z" fill="#3B4559"/>
<path opacity="0.5" fill-rule="evenodd" clip-rule="evenodd" d="M274.858 79.9138C274.621 81.8938 274.264 83.8574 273.788 85.7938C273.778 85.8342 273.761 85.8722 273.737 85.9057C273.713 85.9393 273.682 85.9676 273.646 85.989C273.611 86.0105 273.572 86.0246 273.531 86.0306C273.49 86.0365 273.448 86.0343 273.408 86.0238C273.367 86.0145 273.329 85.9971 273.296 85.9728C273.262 85.9486 273.234 85.9178 273.213 85.8824C273.191 85.8469 273.177 85.8076 273.171 85.7666C273.165 85.7257 273.167 85.6839 273.178 85.6438C273.468 84.4238 273.738 82.9138 273.928 81.5038C274.098 80.4009 274.205 79.2891 274.248 78.1738C274.258 78.0407 274.258 77.907 274.248 77.7738C274.136 77.7939 274.028 77.831 273.928 77.8838C273.018 78.4038 271.628 79.5438 270.928 79.9438C270.782 80.0495 270.607 80.1064 270.428 80.1064C270.248 80.1064 270.073 80.0495 269.928 79.9438C268.498 78.3238 267.248 75.8438 265.848 73.9438C265.304 73.1332 264.628 72.4199 263.848 71.8338C263.848 71.8338 263.778 71.8338 263.738 71.8338C263.593 71.8819 263.455 71.9492 263.328 72.0338C262.648 72.4438 261.828 73.1738 261.118 73.6238C260.781 73.857 260.4 74.0171 259.998 74.0938C259.717 74.1012 259.441 74.0208 259.208 73.8638C258.019 73.0437 256.911 72.1128 255.898 71.0838C255.128 70.3438 254.338 69.5338 253.628 68.7938C255.098 72.2238 257.288 77.1838 258.218 78.3938C258.366 78.3765 258.513 78.3498 258.658 78.3138C259.658 77.9038 261.208 76.9438 261.988 76.5338C262.185 76.4311 262.393 76.3506 262.608 76.2938C262.696 76.2793 262.787 76.2863 262.872 76.3141C262.958 76.3419 263.035 76.3899 263.098 76.4538C264.304 77.8503 265.433 79.3126 266.478 80.8338C266.598 80.9937 266.708 81.1606 266.808 81.3338C266.868 81.4298 266.894 81.5434 266.881 81.6561C266.869 81.7687 266.818 81.8737 266.738 81.9538C265.74 82.5523 264.693 83.0642 263.608 83.4838C263.323 83.6042 263.069 83.789 262.868 84.0238L263.048 84.1738C264.74 85.2324 266.545 86.101 268.428 86.7638C269.75 87.3488 271.182 87.6486 272.628 87.6438C272.665 87.6439 272.701 87.6324 272.732 87.6109C272.762 87.5894 272.785 87.559 272.798 87.5238C272.862 87.3956 272.903 87.2567 272.918 87.1138C272.924 87.0667 272.939 87.0212 272.964 86.9803C272.988 86.9394 273.02 86.9038 273.058 86.8757C273.097 86.8476 273.14 86.8277 273.187 86.817C273.233 86.8064 273.281 86.8053 273.328 86.8138C273.422 86.8286 273.506 86.88 273.562 86.9569C273.619 87.0337 273.642 87.1297 273.628 87.2238C273.603 87.5066 273.506 87.7784 273.348 88.0138C273.276 88.109 273.186 88.189 273.083 88.2491C272.98 88.3091 272.866 88.3482 272.748 88.3638C271.378 88.6138 268.468 87.7038 266.018 86.7038C264.723 86.1709 263.489 85.5004 262.338 84.7038C262.2 84.6164 262.089 84.4927 262.016 84.3463C261.944 84.1999 261.913 84.0365 261.928 83.8738C262.081 83.4795 262.358 83.1459 262.718 82.9238C263.558 82.3338 265.028 81.9238 265.768 81.4638L265.688 81.3438C265.008 80.3938 263.438 78.3438 262.598 77.4238C262.467 77.4679 262.34 77.5214 262.218 77.5838C261.398 78.0538 260.108 78.8538 259.218 79.2538C258.905 79.4102 258.566 79.5085 258.218 79.5438C258.109 79.5465 258.001 79.5276 257.9 79.4881C257.798 79.4486 257.706 79.3894 257.628 79.3138C256.508 78.3038 253.018 70.4438 251.638 67.2038C251.393 66.7205 251.186 66.219 251.018 65.7038C250.996 65.6213 250.994 65.5349 251.011 65.4514C251.029 65.3678 251.065 65.2893 251.117 65.2218C251.169 65.1543 251.236 65.0995 251.312 65.0618C251.388 65.024 251.473 65.0042 251.558 65.0038C251.641 64.9942 251.725 65.0027 251.804 65.0286C251.884 65.0545 251.956 65.0972 252.018 65.1538C252.178 65.2938 252.018 65.2438 252.488 65.7638C253.278 66.7038 255.018 68.5938 256.728 70.2338C257.576 71.0861 258.471 71.8906 259.408 72.6438C259.628 72.8038 259.878 73.0738 259.908 72.9638C260.271 72.8283 260.61 72.6322 260.908 72.3838C261.544 71.8849 262.213 71.4273 262.908 71.0138C263.123 70.869 263.374 70.7859 263.633 70.7735C263.892 70.7612 264.15 70.8201 264.378 70.9438C265.255 71.6073 266.012 72.4156 266.618 73.3338C267.918 75.1938 269.058 77.5638 270.368 79.1838C270.488 79.1468 270.605 79.1 270.718 79.0438C271.468 78.5938 272.618 77.7138 273.438 77.2438C273.718 77.0674 274.031 76.9484 274.358 76.8938C274.457 76.8823 274.558 76.8975 274.649 76.9379C274.741 76.9784 274.82 77.0426 274.878 77.1238C274.957 77.2539 275.001 77.4018 275.008 77.5538C275.025 78.3433 274.975 79.1329 274.858 79.9138Z" fill="#697181"/>
<path d="M144.76 165.447L140.341 170.701C139.862 171.301 139.03 171.374 138.432 170.892L126.546 160.819C125.948 160.338 125.874 159.502 126.353 158.902L130.772 153.648C131.251 153.047 132.083 152.975 132.682 153.457L144.567 163.529C145.165 164.011 145.239 164.847 144.76 165.447Z" fill="#3B4559"/>
<path d="M157.816 174.109L151.055 182.185C150.576 182.785 149.744 182.857 149.146 182.376L137.245 172.221C136.646 171.739 136.573 170.904 137.052 170.303L143.813 162.227C144.292 161.627 145.124 161.555 145.722 162.036L157.607 172.109C158.221 172.672 158.295 173.508 157.816 174.109Z" fill="#7B8AA0"/>
<g opacity="0.5">
<path d="M34.6979 116.499C33.5344 116.499 32.3709 115.998 31.7061 115.079C31.4568 114.745 31.2906 114.328 31.2075 113.911C31.1243 113.911 31.1243 113.911 31.0412 113.911C29.9609 113.66 29.1298 112.658 28.9636 111.489C28.8805 110.989 28.8805 110.488 28.9636 109.903C28.7143 109.82 28.5481 109.736 28.2987 109.653C28.1325 109.569 27.0521 109.068 26.7197 107.816C26.5535 107.315 26.5535 106.731 26.7197 106.23C25.8886 105.812 25.0576 105.144 24.642 104.226C24.1434 103.308 24.1434 102.306 24.642 101.304C24.8083 101.054 25.0576 100.97 25.3069 101.054C25.5562 101.221 25.6393 101.471 25.5562 101.721C25.1407 102.556 25.3069 103.224 25.5562 103.725C25.8886 104.31 26.3873 104.894 27.0521 105.144C27.2183 104.81 27.3846 104.477 27.6339 104.059C28.2156 103.141 29.7946 102.556 30.7088 102.723C31.3737 102.807 31.7892 103.141 31.9554 103.642C32.1216 104.143 31.9554 104.643 31.5399 105.144C30.7088 105.979 29.0467 106.564 27.717 106.397C27.6339 106.814 27.6339 107.148 27.717 107.399C27.9663 108.233 28.7143 108.567 28.7143 108.567C28.8805 108.651 29.0467 108.734 29.2129 108.734C29.296 108.567 29.3791 108.4 29.3791 108.233C29.8778 107.148 30.4595 106.564 31.2075 106.313C31.7892 106.146 32.454 106.23 32.9527 106.647C33.3682 106.981 33.5344 107.399 33.5344 107.9C33.4513 108.567 32.8696 109.235 32.0385 109.486C31.4568 109.653 30.7088 109.82 29.9609 109.82C29.8778 110.237 29.8777 110.655 29.8777 111.072C30.044 111.823 30.4595 112.408 31.0412 112.658C31.0412 112.575 31.0412 112.491 31.1243 112.408C31.2906 111.573 31.7892 110.822 32.454 110.404C33.202 109.903 34.2824 109.903 34.8641 110.655C35.2797 111.239 35.1134 112.074 34.6979 112.575C34.3655 112.992 33.7837 113.243 33.2851 113.493C32.9527 113.66 32.6203 113.744 32.2047 113.827C32.2878 114.078 32.3709 114.245 32.5371 114.412C33.202 115.33 34.6979 115.747 35.8614 115.163C36.1107 115.079 36.4431 115.163 36.5263 115.413C36.6094 115.664 36.5262 115.998 36.2769 116.081C35.7783 116.415 35.1966 116.499 34.6979 116.499ZM33.6175 111.156C33.4513 111.156 33.202 111.239 33.0358 111.323C32.6203 111.573 32.2878 112.074 32.2047 112.658L32.2047 112.742C32.454 112.658 32.7034 112.575 32.9527 112.491C33.3682 112.324 33.7006 112.157 33.95 111.907C34.1162 111.656 34.1993 111.406 34.0331 111.239C33.95 111.156 33.7837 111.156 33.6175 111.156ZM31.7892 107.315C31.7061 107.315 31.623 107.315 31.5399 107.315C31.0412 107.482 30.7088 107.9 30.2933 108.734C30.2933 108.818 30.2933 108.818 30.2102 108.818C30.7088 108.734 31.2075 108.651 31.623 108.484C32.0385 108.4 32.3709 108.066 32.454 107.816C32.454 107.649 32.3709 107.566 32.2878 107.482C32.2047 107.399 32.0385 107.315 31.7892 107.315ZM27.9663 105.395C28.8805 105.395 30.1271 105.061 30.7088 104.477C30.9581 104.226 30.875 104.059 30.875 103.976C30.875 103.892 30.7088 103.809 30.4595 103.809C29.7115 103.725 28.7143 104.143 28.3818 104.727C28.2156 104.894 28.1325 105.144 27.9663 105.395Z" fill="#697181"/>
</g>
<g opacity="0.5">
<path d="M20.4036 75.9237C19.905 76.5916 20.2374 77.4265 21.0685 77.5935C21.3178 77.677 21.5671 77.677 21.8164 77.7605C23.3124 78.0944 23.3124 78.0944 23.3124 79.6807C23.3124 80.0981 23.2292 80.3486 22.8137 80.4321C22.3151 80.599 21.8164 80.766 21.3178 80.933C20.4867 81.2669 20.2374 82.1018 20.8192 82.7697C20.9854 82.9367 21.1516 83.1872 21.3178 83.3541C22.3151 84.4395 22.3151 84.4395 21.4009 85.6918C21.1516 86.0257 20.9023 86.1927 20.4867 86.0257C19.9881 85.8588 19.4064 85.6918 18.9077 85.5248C18.2429 85.3578 17.4949 85.9423 17.4949 86.6102C17.4949 87.1946 17.578 87.779 17.6611 88.4469C17.6611 88.6139 17.6611 88.8643 17.578 88.9478C16.9963 89.1983 16.4145 89.5322 15.8328 89.6157C15.5835 89.6157 15.3342 89.1983 15.0848 88.8643C14.9186 88.6139 14.7524 88.4469 14.5862 88.1964C13.8382 87.2781 13.0903 87.2781 12.4254 88.2799C12.1761 88.6973 11.9268 89.1148 11.6775 89.5322C11.5944 89.6157 11.4282 89.8662 11.3451 89.8662C10.7633 89.7827 10.0985 89.6157 9.59983 89.3653C9.43361 89.2818 9.43361 88.6974 9.3505 88.3634C9.2674 88.0294 9.3505 87.612 9.3505 87.2781C9.3505 86.4432 8.51944 85.8588 7.77148 86.1927C7.27285 86.4432 6.77421 86.6102 6.27557 86.8606C6.10936 86.9441 5.86004 86.9441 5.77693 86.8606C5.3614 86.4432 4.86277 85.9423 4.69655 85.3578C4.61345 85.1074 5.02898 84.6899 5.27829 84.2725C5.3614 84.1055 5.52761 83.9386 5.61072 83.6881C6.27557 82.7697 5.94314 82.0183 4.86276 81.6844C4.36412 81.6009 3.9486 81.4339 3.44996 81.3504C3.28374 81.3504 3.11753 81.1835 3.11753 81.1C3.03442 80.4321 2.95132 79.7642 3.03443 79.1798C3.03443 78.9293 3.61617 78.8458 3.94859 78.6788C4.28102 78.5119 4.69655 78.4284 5.11208 78.2614C5.69383 78.0109 5.86004 77.0926 5.52761 76.6751C5.02898 76.0907 4.53034 75.5063 4.0317 74.9219C4.36412 74.421 4.61345 73.92 5.02898 73.4191C5.11208 73.2521 5.4445 73.1686 5.69382 73.1686C6.27557 73.2521 6.77421 73.5026 7.35595 73.5861C8.10391 73.8365 8.76875 73.2521 8.68565 72.4173C8.68565 72.1668 8.60254 71.9998 8.60254 71.7493C8.51944 70.0796 8.51944 70.0796 10.1816 69.6622C10.3478 69.5787 10.6802 69.7456 10.8464 69.9126C11.2619 70.4135 11.5944 70.9145 12.0099 71.4154C12.1761 71.5824 12.4254 71.6659 12.6748 71.7493C13.5058 71.9163 13.672 71.1649 14.0045 70.664C14.9186 69.1612 14.9186 69.1612 16.4976 69.8291C16.6639 69.9126 16.8301 70.1631 16.9132 70.4135C16.9963 70.998 16.9132 71.5824 16.9963 72.2503C16.9963 72.5007 17.2456 72.7512 17.4118 73.0017C17.9104 73.5861 18.4091 73.1686 18.8246 73.0017C20.653 72.2503 20.653 72.2503 21.8164 74.0035C21.2347 74.7549 20.8192 75.3393 20.4036 75.9237ZM7.52217 79.5972C7.35595 82.5193 9.76603 85.1074 12.841 85.3578C15.7497 85.5248 18.4091 83.1037 18.5753 80.0146C18.7415 77.0926 16.3314 74.5044 13.2565 74.3375C10.2647 74.1705 7.68838 76.5081 7.52217 79.5972Z" fill="#697181"/>
</g>
<g opacity="0.5">
<path fill-rule="evenodd" clip-rule="evenodd" d="M211.793 85.1806C211.849 84.8928 211.836 84.5957 211.753 84.3143C211.67 84.0329 211.521 83.7755 211.318 83.5638C211.115 83.3521 210.865 83.1922 210.587 83.0977C210.309 83.0032 210.013 82.9767 209.723 83.0206C207.873 83.2706 207.523 85.6106 208.623 85.4806C208.694 85.4822 208.764 85.4595 208.82 85.4161C208.876 85.3727 208.916 85.3113 208.932 85.2423C208.948 85.1732 208.94 85.1006 208.91 85.0366C208.879 84.9726 208.827 84.921 208.763 84.8906C208.703 84.2406 209.973 83.8006 210.503 84.4706C211.243 85.2706 209.213 86.4706 209.293 87.1406C209.373 87.8106 210.293 87.6906 210.243 87.1406C210.42 86.9868 210.578 86.8123 210.713 86.6206C211.186 86.2363 211.556 85.7418 211.793 85.1806Z" fill="#697181"/>
<path fill-rule="evenodd" clip-rule="evenodd" d="M209.733 88.0706C208.813 87.9906 208.443 89.7706 209.803 89.6706C210.023 89.6706 210.373 89.5806 210.513 89.2906C210.564 89.1928 210.595 89.0857 210.603 88.9757C210.612 88.8657 210.598 88.7552 210.563 88.6506C210.489 88.4888 210.373 88.3498 210.227 88.2478C210.081 88.1458 209.911 88.0847 209.733 88.0706Z" fill="#697181"/>
<path d="M219.847 81.2423C219.135 82.1888 219.61 83.3719 220.796 83.6085C221.152 83.7268 221.508 83.7268 221.864 83.8451C224 84.3184 224 84.3184 224 86.5662C224 87.1578 223.881 87.5127 223.288 87.631C222.576 87.8676 221.864 88.1043 221.152 88.3409C219.966 88.8141 219.61 89.9972 220.44 90.9437C220.678 91.1803 220.915 91.5352 221.152 91.7718C222.576 93.3099 222.576 93.3099 221.271 95.0845C220.915 95.5578 220.559 95.7944 219.966 95.5578C219.254 95.3211 218.423 95.0845 217.711 94.8479C216.762 94.6113 215.694 95.4395 215.694 96.3859C215.694 97.2141 215.813 98.0423 215.932 98.9887C215.932 99.2253 215.932 99.5803 215.813 99.6986C214.983 100.054 214.152 100.527 213.321 100.645C212.965 100.645 212.61 100.054 212.254 99.5803C212.016 99.2253 211.779 98.9887 211.542 98.6338C210.474 97.3324 209.406 97.3324 208.457 98.7521C208.101 99.3436 207.745 99.9352 207.389 100.527C207.27 100.645 207.033 101 206.914 101C206.084 100.882 205.134 100.645 204.423 100.29C204.185 100.172 204.185 99.3437 204.067 98.8704C203.948 98.3972 204.067 97.8056 204.067 97.3324C204.067 96.1493 202.88 95.3211 201.812 95.7944C201.1 96.1493 200.388 96.3859 199.677 96.7409C199.439 96.8592 199.083 96.8592 198.965 96.7409C198.371 96.1493 197.659 95.4395 197.422 94.6113C197.304 94.2564 197.897 93.6648 198.253 93.0733C198.371 92.8366 198.609 92.6 198.727 92.2451C199.677 90.9437 199.202 89.8789 197.659 89.4057C196.948 89.2874 196.354 89.0507 195.642 88.9324C195.405 88.9324 195.168 88.6958 195.168 88.5775C195.049 87.631 194.93 86.6846 195.049 85.8564C195.049 85.5015 195.88 85.3832 196.354 85.1465C196.829 84.9099 197.422 84.7916 198.015 84.555C198.846 84.2001 199.083 82.8987 198.609 82.3071C197.897 81.4789 197.185 80.6508 196.473 79.8226C196.948 79.1128 197.304 78.4029 197.897 77.693C198.015 77.4564 198.49 77.3381 198.846 77.3381C199.677 77.4564 200.388 77.8114 201.219 77.9297C202.287 78.2846 203.236 77.4564 203.117 76.2733C203.117 75.9184 202.999 75.6818 202.999 75.3269C202.88 72.9607 202.88 72.9607 205.253 72.3691C205.49 72.2508 205.965 72.4874 206.202 72.7241C206.796 73.4339 207.27 74.1438 207.863 74.8536C208.101 75.0902 208.457 75.2086 208.813 75.3269C209.999 75.5635 210.236 74.4987 210.711 73.7888C212.016 71.6593 212.016 71.6593 214.271 72.6057C214.508 72.724 214.745 73.079 214.864 73.4339C214.983 74.2621 214.864 75.0902 214.983 76.0367C214.983 76.3917 215.338 76.7466 215.576 77.1015C216.288 77.9297 217 77.3381 217.593 77.1015C220.203 76.0367 220.203 76.0367 221.864 78.5212C221.034 79.586 220.44 80.4142 219.847 81.2423ZM201.456 86.4479C201.219 90.5888 204.66 94.2564 209.05 94.6113C213.203 94.8479 217 91.4169 217.237 87.0395C217.474 82.8987 214.033 79.2311 209.643 78.9945C205.372 78.7578 201.694 82.0705 201.456 86.4479Z" fill="#697181"/>
</g>
<g opacity="0.5">
<path d="M59.3804 89.1982C58.9649 89.5322 58.9649 90.6175 59.4635 90.868C60.2115 91.2019 60.2946 91.6194 59.9622 92.2873C59.8791 92.4543 59.8791 92.6213 59.796 92.7882C59.2142 92.8717 58.5494 92.5377 58.1338 93.3726C57.6352 94.2075 58.3 94.5415 58.4663 95.2929C58.3 95.3763 58.0507 95.5433 57.8845 95.7103C57.5521 96.1277 57.1366 96.2112 56.8041 95.7938C56.3055 95.2928 55.9731 95.7103 55.4744 95.8773C55.0589 96.0442 55.0589 96.3782 55.0589 96.7121C55.142 97.2965 54.8927 97.4635 54.3109 97.547C53.8123 97.6305 53.3968 97.7975 53.2306 97.1296C53.1475 96.8791 52.8981 96.6287 52.6488 96.5452C51.984 96.4617 51.3191 96.3782 51.0698 97.2131C51.0698 97.38 50.9036 97.4635 50.8205 97.6305C50.5711 97.547 50.3218 97.4635 50.0725 97.4635C49.8232 97.38 49.657 97.2966 49.4077 97.2131C49.4077 96.8791 49.4077 96.5452 49.4077 96.2947C49.4077 95.7103 48.3273 95.1259 47.9117 95.4598C47.2469 95.9607 46.8314 95.7938 46.4158 95.2094C46.3327 95.0424 46.1665 94.9589 46.0834 94.7919C46.2496 94.5415 46.3327 94.3745 46.4989 94.124C46.8314 93.5396 46.2496 92.3708 45.5848 92.4543C44.9199 92.5377 44.6706 92.2038 44.5875 91.6194C44.5875 91.4524 44.5044 91.202 44.5044 91.035C44.5875 90.9515 44.6706 90.868 44.7537 90.868C45.1692 90.6175 45.5848 90.4506 45.5848 89.7827C45.5848 89.1148 45.4186 88.7808 44.8368 88.5304C44.2551 88.2799 44.7537 87.7789 44.7537 87.445C44.7537 87.111 44.9199 86.8606 45.3355 86.9441C45.5848 86.9441 46.0003 86.9441 46.1665 86.7771C46.8314 86.1092 46.8314 85.6918 46.4158 84.9404C46.3327 84.8569 46.3327 84.7734 46.2496 84.6064C46.582 84.2725 46.9976 83.9385 47.33 83.6046C47.9117 83.855 48.2442 84.356 49.0752 83.9385C49.9063 83.5211 49.5739 82.8532 49.7401 82.2688C50.2387 82.1853 50.6543 82.0183 51.1529 81.9348C51.3191 82.1853 51.4853 82.4357 51.5684 82.6862C51.7346 83.2706 52.2333 83.1036 52.6488 83.1871C53.0643 83.2706 53.3137 83.0202 53.3968 82.6862C53.6461 82.1018 53.9785 81.9348 54.5602 82.1853C54.8096 82.2688 54.9758 82.3523 55.2251 82.4357C55.2251 82.7697 55.3082 83.0202 55.2251 83.2706C55.0589 83.855 55.5575 83.9385 55.89 84.189C56.2224 84.4394 56.4717 84.4394 56.8041 84.189C57.3028 83.6881 57.8014 83.855 58.1338 84.356C58.2169 84.5229 58.3831 84.6899 58.5494 84.7734C58.3831 85.4413 57.7183 85.7753 58.1338 86.6101C58.5494 87.445 59.2142 87.0276 59.8791 87.1945C60.3777 88.5303 60.3777 88.5303 59.3804 89.1982ZM47.7455 90.0331C47.7455 92.6212 49.8232 94.7084 52.3995 94.7084C54.8927 94.7084 57.0534 92.6212 57.0534 90.0331C57.0534 87.445 54.9758 85.3578 52.3995 85.3578C49.8232 85.3578 47.7455 87.445 47.7455 90.0331Z" fill="#697181"/>
</g>
<g opacity="0.5">
<path d="M68.6885 44.5323C68.2729 44.6993 68.1067 44.4488 67.8574 44.2819C67.1926 43.6975 66.3615 43.614 65.6135 44.2819C65.3642 44.5323 65.1149 44.6993 64.7825 44.4488C64.45 44.2819 64.45 44.0314 64.45 43.6974C64.5332 42.7791 63.9514 42.0277 63.1203 41.7772C62.871 41.6938 62.6217 41.4433 62.5386 41.2763C62.3724 40.9424 62.5386 40.6919 62.871 40.4414C63.619 40.024 63.8683 39.1056 63.4528 38.2707C63.3697 38.0203 63.3697 37.6863 63.4528 37.5194C63.619 37.2689 63.8683 37.0184 64.2838 37.1854C65.1149 37.5194 65.8629 37.1854 66.3615 36.3505C66.4446 36.1836 66.777 35.9331 67.0263 36.0166C67.2757 36.0166 67.6081 36.1836 67.6912 36.434C68.1067 37.3524 68.6885 37.6863 69.6858 37.5194C69.9351 37.5194 70.1844 37.6863 70.4337 37.8533C70.683 38.1038 70.683 38.3542 70.5168 38.6882C70.0182 39.5231 70.1013 40.191 70.9323 40.7754C71.2648 41.0258 71.2648 41.2763 71.1817 41.6103C71.0986 42.0277 70.8492 42.1112 70.5168 42.1112C69.6858 42.1947 69.104 42.8626 69.104 43.7809C69.1871 44.0314 69.1871 44.3653 68.6885 44.5323ZM66.8601 38.1873C65.6135 38.1873 64.6163 39.1891 64.6994 40.4414C64.6994 41.6103 65.6966 42.6121 66.8601 42.6121C68.0236 42.6121 69.0209 41.6103 69.0209 40.4414C69.0209 39.1891 68.1067 38.1873 66.8601 38.1873Z" fill="#697181"/>
</g>
<g opacity="0.5">
<path d="M50.6542 74.5879C49.9893 74.5879 49.3245 74.421 48.6596 74.1705C48.4103 74.087 48.3272 73.7531 48.4103 73.5026C48.4934 73.2521 48.8259 73.1686 49.0752 73.2521C50.5711 74.0035 52.5656 73.5026 53.4798 72.2503C53.7291 71.9998 53.8122 71.5824 53.8953 71.2484C53.3967 71.1649 52.815 70.998 52.3994 70.831C51.7346 70.5805 51.1528 70.2466 50.6542 69.7457C50.1555 69.1612 49.9062 68.1594 50.488 67.408C51.1528 66.4896 52.4825 66.5731 53.3136 67.1575C54.1446 67.6585 54.7264 68.5768 54.8926 69.6622C54.8926 69.8291 54.9757 69.9961 54.9757 70.1631C55.8899 69.9126 56.5547 69.0777 56.8041 67.9924C56.8872 67.408 56.8872 66.8236 56.7209 66.1557C55.6406 66.1557 54.7264 65.9052 53.9784 65.6547C52.8981 65.3208 52.2332 64.5694 52.1501 63.7345C52.067 63.1501 52.3163 62.6492 52.815 62.2318C53.3967 61.7308 54.2278 61.5639 54.8926 61.8143C55.8068 62.1483 56.5547 62.8997 57.1365 64.2355C57.2196 64.4859 57.3858 64.7364 57.4689 64.9868C57.7182 64.9034 58.0506 64.8199 58.3 64.7364C58.3831 64.6529 59.3804 64.2355 59.7128 63.1501C59.879 62.6492 59.879 62.1483 59.7128 61.6473C58.0507 61.8978 55.8068 61.2299 54.8095 60.1446C54.1446 59.4767 54.1447 58.8088 54.3109 58.3913C54.4771 57.7234 55.0588 57.3895 55.8068 57.306C56.9703 57.139 58.8817 57.8069 59.6297 58.9757C59.9621 59.4767 60.2114 59.9776 60.3776 60.395C61.2087 59.9776 62.0397 59.2262 62.4553 58.3913C62.7877 57.8069 63.037 56.8051 62.4553 55.7197C62.2891 55.4693 62.4553 55.1353 62.7046 55.0518C62.9539 54.9683 63.2863 55.0518 63.3695 55.3023C63.9512 56.4711 63.9512 57.7234 63.3695 58.8923C62.7877 59.9776 61.7904 60.9794 60.7101 61.3969C60.8763 62.1483 60.8763 62.8997 60.7101 63.4841C60.2945 65.0703 58.8817 65.6548 58.7155 65.7382C58.3831 65.9052 58.0506 65.9887 57.7182 66.0722C57.8844 66.8236 57.8844 67.4915 57.8013 68.1594C57.552 69.6622 56.4716 70.831 55.225 71.1649C55.1419 71.1649 55.0588 71.1649 54.9757 71.2484C54.8926 71.8328 54.6433 72.3338 54.3109 72.8347C53.4798 73.92 52.067 74.5879 50.6542 74.5879ZM51.9839 67.6585C51.7346 67.6585 51.4853 67.7419 51.4021 67.9089C51.1528 68.1594 51.319 68.6603 51.5684 68.9943C51.9008 69.3282 52.3994 69.5787 52.8981 69.8291C53.3136 69.9961 53.7291 70.1631 54.1446 70.1631C54.1446 70.0796 54.1447 69.9126 54.0615 69.8291C53.8953 69.0777 53.4798 68.4098 52.8981 67.9924C52.5656 67.7419 52.2332 67.6585 51.9839 67.6585ZM54.3109 62.8162C54.0616 62.8162 53.7291 62.8997 53.4798 63.0666C53.3136 63.1501 53.1474 63.4006 53.1474 63.651C53.2305 64.152 53.8122 64.4859 54.3109 64.6529C54.8926 64.8199 55.6406 65.0703 56.4716 65.0703C56.3885 64.9868 56.3885 64.8199 56.3054 64.6529C55.8068 63.5676 55.3081 62.9831 54.6433 62.8162C54.5602 62.8162 54.394 62.8162 54.3109 62.8162ZM56.2223 58.2243C56.1392 58.2243 56.0561 58.2243 55.973 58.2243C55.6406 58.3078 55.3912 58.3913 55.3081 58.6418C55.3081 58.7253 55.225 58.9757 55.5575 59.3932C56.3054 60.228 58.0506 60.729 59.3803 60.6455C59.2141 60.3115 58.9648 59.8941 58.7155 59.4767C58.3831 58.8088 57.1365 58.2243 56.2223 58.2243Z" fill="#697181"/>
</g>
<g opacity="0.5">
<path d="M243.265 23.4408C241.767 25.4316 242.766 27.9202 245.261 28.4179C246.01 28.6668 246.759 28.6668 247.508 28.9156C252 29.911 252 29.911 252 34.6393C252 35.8836 251.75 36.6302 250.503 36.879C249.005 37.3768 247.508 37.8745 246.01 38.3722C243.514 39.3676 242.766 41.8562 244.513 43.8471C245.012 44.3448 245.511 45.0913 246.01 45.5891C249.005 48.8242 249.005 48.8242 246.26 52.5571C245.511 53.5525 244.762 54.0502 243.514 53.5525C242.017 53.0548 240.27 52.5571 238.772 52.0594C236.776 51.5617 234.53 53.3037 234.53 55.2945C234.53 57.0365 234.779 58.7785 235.029 60.7694C235.029 61.2671 235.029 62.0137 234.779 62.2626C233.032 63.0091 231.285 64.0045 229.538 64.2534C228.789 64.2534 228.041 63.0091 227.292 62.0137C226.793 61.2671 226.294 60.7694 225.794 60.0229C223.548 57.2854 221.302 57.2854 219.305 60.2716C218.557 61.5159 217.808 62.7602 217.059 64.0045C216.81 64.2534 216.311 65 216.061 65C214.314 64.7511 212.317 64.2534 210.82 63.5068C210.321 63.258 210.321 61.516 210.071 60.5205C209.822 59.5251 210.071 58.2808 210.071 57.2854C210.071 54.7968 207.575 53.0548 205.329 54.0502C203.832 54.7968 202.334 55.2945 200.837 56.0411C200.338 56.29 199.589 56.29 199.339 56.0411C198.092 54.7968 196.594 53.3037 196.095 51.5617C195.845 50.8151 197.093 49.5708 197.842 48.3265C198.092 47.8288 198.591 47.3311 198.84 46.5845C200.837 43.8471 199.839 41.6074 196.594 40.6119C195.097 40.3631 193.849 39.8654 192.351 39.6165C191.852 39.6165 191.353 39.1188 191.353 38.8699C191.103 36.8791 190.854 34.8882 191.103 33.1462C191.103 32.3996 192.85 32.1508 193.849 31.6531C194.847 31.1554 196.095 30.9065 197.343 30.4088C199.09 29.6622 199.589 26.9248 198.591 25.6805C197.093 23.9385 195.596 22.1965 194.098 20.4545C195.097 18.9613 195.845 17.4682 197.093 15.975C197.343 15.4773 198.341 15.2285 199.09 15.2285C200.837 15.4773 202.334 16.2239 204.081 16.4727C206.328 17.2193 208.324 15.4773 208.075 12.9887C208.075 12.2422 207.825 11.7445 207.825 10.9979C207.575 6.02073 207.575 6.02073 212.567 4.77644C213.066 4.52758 214.064 5.0253 214.564 5.52302C215.811 7.01616 216.81 8.50932 218.058 10.0025C218.557 10.5002 219.305 10.749 220.054 10.9979C222.55 11.4956 223.049 9.25587 224.047 7.76272C226.793 3.28328 226.793 3.28328 231.535 5.27414C232.034 5.523 232.533 6.26957 232.783 7.01614C233.032 8.75814 232.783 10.5002 233.032 12.491C233.032 13.2376 233.781 13.9842 234.28 14.7307C235.778 16.4727 237.275 15.2285 238.523 14.7307C244.014 12.491 244.014 12.491 247.508 17.717C245.761 19.9567 244.513 21.6987 243.265 23.4408ZM204.581 34.3905C204.081 43.1005 211.319 50.8151 220.553 51.5617C229.289 52.0594 237.275 44.8425 237.774 35.6348C238.273 26.9247 231.036 19.2102 221.801 18.7125C212.817 18.2148 205.08 25.1827 204.581 34.3905Z" fill="#697181"/>
<path d="M209.75 43.75H232.25" stroke="#697181" stroke-width="1.5" stroke-linecap="round" stroke-linejoin="round"/>
<path d="M215 33.25H212C211.801 33.25 211.61 33.329 211.47 33.4697C211.329 33.6103 211.25 33.8011 211.25 34V43.75H215.75V34C215.75 33.8011 215.671 33.6103 215.53 33.4697C215.39 33.329 215.199 33.25 215 33.25Z" stroke="#697181" stroke-width="1.5" stroke-linecap="round" stroke-linejoin="round"/>
<path d="M222.5 24.25H219.5C219.301 24.25 219.11 24.329 218.97 24.4697C218.829 24.6103 218.75 24.8011 218.75 25V43.75H223.25V25C223.25 24.8011 223.171 24.6103 223.03 24.4697C222.89 24.329 222.699 24.25 222.5 24.25Z" stroke="#697181" stroke-width="1.5" stroke-linecap="round" stroke-linejoin="round"/>
<path d="M230 28.75H227C226.801 28.75 226.61 28.829 226.47 28.9697C226.329 29.1103 226.25 29.3011 226.25 29.5V43.75H230.75V29.5C230.75 29.3011 230.671 29.1103 230.53 28.9697C230.39 28.829 230.199 28.75 230 28.75Z" stroke="#697181" stroke-width="1.5" stroke-linecap="round" stroke-linejoin="round"/>
</g>
<defs>
<filter id="filter0_d_424_6605" x="94.0011" y="108.221" width="87.3132" height="75.8148" filterUnits="userSpaceOnUse" color-interpolation-filters="sRGB">
<feFlood flood-opacity="0" result="BackgroundImageFix"/>
<feColorMatrix in="SourceAlpha" type="matrix" values="0 0 0 0 0 0 0 0 0 0 0 0 0 0 0 0 0 0 127 0" result="hardAlpha"/>
<feOffset dy="4"/>
<feGaussianBlur stdDeviation="2"/>
<feComposite in2="hardAlpha" operator="out"/>
<feColorMatrix type="matrix" values="0 0 0 0 0 0 0 0 0 0 0 0 0 0 0 0 0 0 0.25 0"/>
<feBlend mode="normal" in2="BackgroundImageFix" result="effect1_dropShadow_424_6605"/>
<feBlend mode="normal" in="SourceGraphic" in2="effect1_dropShadow_424_6605" result="shape"/>
</filter>
</defs>
</svg>
