<svg width="489" height="468" viewBox="0 0 489 468" fill="none" xmlns="http://www.w3.org/2000/svg">
<g filter="url(#filter0_d_4064_36904)">
<rect x="4" width="481" height="460" rx="10" fill="white"/>
</g>
<g filter="url(#filter1_d_4064_36904)">
<circle cx="52.5" cy="284.5" r="26.5" fill="white"/>
</g>
<path d="M43.3153 282.636L43.0708 283.345L43.3153 282.636ZM43.3153 287.364L43.0708 286.655L43.3153 287.364ZM62.6847 287.364L62.9292 286.655L62.6847 287.364ZM62.6847 282.636L62.4403 281.927L62.6847 282.636ZM47 276.25C44.3766 276.25 42.25 278.377 42.25 281H43.75C43.75 279.205 45.2051 277.75 47 277.75V276.25ZM59 276.25H47V277.75H59V276.25ZM63.75 281C63.75 278.377 61.6234 276.25 59 276.25V277.75C60.7949 277.75 62.25 279.205 62.25 281H63.75ZM63.75 282.223V281H62.25V282.223H63.75ZM61.75 285C61.75 284.234 62.242 283.582 62.9292 283.345L62.4403 281.927C61.1667 282.366 60.25 283.575 60.25 285H61.75ZM62.9292 286.655C62.242 286.418 61.75 285.766 61.75 285H60.25C60.25 286.425 61.1667 287.634 62.4403 288.073L62.9292 286.655ZM63.75 289V287.777H62.25V289H63.75ZM59 293.75C61.6234 293.75 63.75 291.623 63.75 289H62.25C62.25 290.795 60.7949 292.25 59 292.25V293.75ZM47 293.75H59V292.25H47V293.75ZM42.25 289C42.25 291.623 44.3766 293.75 47 293.75V292.25C45.2051 292.25 43.75 290.795 43.75 289H42.25ZM42.25 287.777V289H43.75V287.777H42.25ZM43.5597 288.073C44.8333 287.634 45.75 286.425 45.75 285H44.25C44.25 285.766 43.758 286.418 43.0708 286.655L43.5597 288.073ZM45.75 285C45.75 283.575 44.8333 282.366 43.5597 281.927L43.0708 283.345C43.758 283.582 44.25 284.234 44.25 285H45.75ZM42.25 281V282.223H43.75V281H42.25ZM43.5597 281.927C43.6265 281.95 43.75 282.038 43.75 282.223H42.25C42.25 282.789 42.6443 283.198 43.0708 283.345L43.5597 281.927ZM43.75 287.777C43.75 287.962 43.6265 288.05 43.5597 288.073L43.0708 286.655C42.6443 286.802 42.25 287.211 42.25 287.777H43.75ZM62.4403 288.073C62.3735 288.05 62.25 287.962 62.25 287.777H63.75C63.75 287.211 63.3557 286.802 62.9292 286.655L62.4403 288.073ZM62.25 282.223C62.25 282.038 62.3735 281.95 62.4403 281.927L62.9292 283.345C63.3557 283.198 63.75 282.789 63.75 282.223H62.25Z" fill="#1A7F1C"/>
<path d="M51 285.857L52.4643 287.029C52.5036 287.061 52.5497 287.084 52.5991 287.097C52.6485 287.109 52.7001 287.11 52.75 287.1C52.8004 287.091 52.8482 287.07 52.8901 287.041C52.932 287.011 52.9671 286.973 52.9929 286.929L55.2857 283" stroke="#1A7F1C" stroke-width="1.71429" stroke-linecap="round" stroke-linejoin="round"/>
<path d="M149.824 288V276.8H154.016C154.965 276.8 155.781 276.955 156.464 277.264C157.147 277.563 157.669 278 158.032 278.576C158.405 279.141 158.592 279.829 158.592 280.64C158.592 281.429 158.405 282.112 158.032 282.688C157.669 283.253 157.147 283.691 156.464 284C155.781 284.299 154.965 284.448 154.016 284.448H150.48L151.008 283.904V288H149.824ZM157.472 288L154.592 283.936H155.872L158.768 288H157.472ZM151.008 284L150.48 283.44H153.984C155.104 283.44 155.952 283.195 156.528 282.704C157.115 282.213 157.408 281.525 157.408 280.64C157.408 279.744 157.115 279.051 156.528 278.56C155.952 278.069 155.104 277.824 153.984 277.824H150.48L151.008 277.264V284ZM164.715 288.08C163.84 288.08 163.072 287.899 162.411 287.536C161.749 287.163 161.232 286.656 160.859 286.016C160.485 285.365 160.299 284.624 160.299 283.792C160.299 282.96 160.475 282.224 160.827 281.584C161.189 280.944 161.68 280.443 162.299 280.08C162.928 279.707 163.632 279.52 164.411 279.52C165.2 279.52 165.899 279.701 166.507 280.064C167.125 280.416 167.611 280.917 167.963 281.568C168.315 282.208 168.491 282.949 168.491 283.792C168.491 283.845 168.485 283.904 168.475 283.968C168.475 284.021 168.475 284.08 168.475 284.144H161.163V283.296H167.867L167.419 283.632C167.419 283.024 167.285 282.485 167.019 282.016C166.763 281.536 166.411 281.163 165.963 280.896C165.515 280.629 164.997 280.496 164.411 280.496C163.835 280.496 163.317 280.629 162.859 280.896C162.4 281.163 162.043 281.536 161.787 282.016C161.531 282.496 161.403 283.045 161.403 283.664V283.84C161.403 284.48 161.541 285.045 161.819 285.536C162.107 286.016 162.501 286.395 163.003 286.672C163.515 286.939 164.096 287.072 164.747 287.072C165.259 287.072 165.733 286.981 166.171 286.8C166.619 286.619 167.003 286.341 167.323 285.968L167.963 286.704C167.589 287.152 167.12 287.493 166.555 287.728C166 287.963 165.387 288.08 164.715 288.08ZM173.059 288.08C172.365 288.08 171.709 287.984 171.091 287.792C170.472 287.589 169.987 287.339 169.635 287.04L170.147 286.144C170.488 286.4 170.925 286.624 171.459 286.816C171.992 286.997 172.552 287.088 173.139 287.088C173.939 287.088 174.515 286.965 174.867 286.72C175.219 286.464 175.395 286.128 175.395 285.712C175.395 285.403 175.293 285.163 175.091 284.992C174.899 284.811 174.643 284.677 174.323 284.592C174.003 284.496 173.645 284.416 173.251 284.352C172.856 284.288 172.461 284.213 172.067 284.128C171.683 284.043 171.331 283.92 171.011 283.76C170.691 283.589 170.429 283.36 170.227 283.072C170.035 282.784 169.939 282.4 169.939 281.92C169.939 281.461 170.067 281.051 170.323 280.688C170.579 280.325 170.952 280.043 171.443 279.84C171.944 279.627 172.552 279.52 173.267 279.52C173.811 279.52 174.355 279.595 174.899 279.744C175.443 279.883 175.891 280.069 176.243 280.304L175.747 281.216C175.373 280.96 174.973 280.779 174.547 280.672C174.12 280.555 173.693 280.496 173.267 280.496C172.509 280.496 171.949 280.629 171.587 280.896C171.235 281.152 171.059 281.483 171.059 281.888C171.059 282.208 171.155 282.459 171.347 282.64C171.549 282.821 171.811 282.965 172.131 283.072C172.461 283.168 172.819 283.248 173.203 283.312C173.597 283.376 173.987 283.456 174.371 283.552C174.765 283.637 175.123 283.76 175.443 283.92C175.773 284.069 176.035 284.288 176.227 284.576C176.429 284.853 176.531 285.221 176.531 285.68C176.531 286.171 176.392 286.597 176.115 286.96C175.848 287.312 175.453 287.589 174.931 287.792C174.419 287.984 173.795 288.08 173.059 288.08ZM182.087 288.08C181.373 288.08 180.749 287.947 180.215 287.68C179.682 287.413 179.266 287.013 178.967 286.48C178.679 285.947 178.535 285.28 178.535 284.48V279.6H179.671V284.352C179.671 285.248 179.89 285.925 180.327 286.384C180.775 286.832 181.399 287.056 182.199 287.056C182.786 287.056 183.293 286.939 183.719 286.704C184.157 286.459 184.487 286.107 184.711 285.648C184.946 285.189 185.063 284.64 185.063 284V279.6H186.199V288H185.111V285.696L185.287 286.112C185.021 286.731 184.605 287.216 184.039 287.568C183.485 287.909 182.834 288.08 182.087 288.08ZM192.933 288.08C192.059 288.08 191.291 287.899 190.629 287.536C189.968 287.163 189.451 286.656 189.077 286.016C188.704 285.365 188.517 284.624 188.517 283.792C188.517 282.96 188.693 282.224 189.045 281.584C189.408 280.944 189.899 280.443 190.517 280.08C191.147 279.707 191.851 279.52 192.629 279.52C193.419 279.52 194.117 279.701 194.725 280.064C195.344 280.416 195.829 280.917 196.181 281.568C196.533 282.208 196.709 282.949 196.709 283.792C196.709 283.845 196.704 283.904 196.693 283.968C196.693 284.021 196.693 284.08 196.693 284.144H189.381V283.296H196.085L195.637 283.632C195.637 283.024 195.504 282.485 195.237 282.016C194.981 281.536 194.629 281.163 194.181 280.896C193.733 280.629 193.216 280.496 192.629 280.496C192.053 280.496 191.536 280.629 191.077 280.896C190.619 281.163 190.261 281.536 190.005 282.016C189.749 282.496 189.621 283.045 189.621 283.664V283.84C189.621 284.48 189.76 285.045 190.037 285.536C190.325 286.016 190.72 286.395 191.221 286.672C191.733 286.939 192.315 287.072 192.965 287.072C193.477 287.072 193.952 286.981 194.389 286.8C194.837 286.619 195.221 286.341 195.541 285.968L196.181 286.704C195.808 287.152 195.339 287.493 194.773 287.728C194.219 287.963 193.605 288.08 192.933 288.08ZM199.022 288V276.128H200.158V288H199.022ZM206.021 288.08C205.232 288.08 204.624 287.867 204.197 287.44C203.771 287.013 203.557 286.411 203.557 285.632V277.744H204.693V285.568C204.693 286.059 204.816 286.437 205.061 286.704C205.317 286.971 205.68 287.104 206.149 287.104C206.651 287.104 207.067 286.96 207.397 286.672L207.797 287.488C207.573 287.691 207.301 287.84 206.981 287.936C206.672 288.032 206.352 288.08 206.021 288.08ZM202.053 280.544V279.6H207.253V280.544H202.053ZM212.992 288.08C212.182 288.08 211.451 287.899 210.8 287.536C210.16 287.163 209.654 286.656 209.28 286.016C208.907 285.365 208.72 284.624 208.72 283.792C208.72 282.949 208.907 282.208 209.28 281.568C209.654 280.928 210.16 280.427 210.8 280.064C211.44 279.701 212.171 279.52 212.992 279.52C213.824 279.52 214.56 279.701 215.2 280.064C215.851 280.427 216.358 280.928 216.72 281.568C217.094 282.208 217.28 282.949 217.28 283.792C217.28 284.624 217.094 285.365 216.72 286.016C216.358 286.656 215.851 287.163 215.2 287.536C214.55 287.899 213.814 288.08 212.992 288.08ZM212.992 287.072C213.6 287.072 214.139 286.939 214.608 286.672C215.078 286.395 215.446 286.011 215.712 285.52C215.99 285.019 216.128 284.443 216.128 283.792C216.128 283.131 215.99 282.555 215.712 282.064C215.446 281.573 215.078 281.195 214.608 280.928C214.139 280.651 213.606 280.512 213.008 280.512C212.411 280.512 211.878 280.651 211.408 280.928C210.939 281.195 210.566 281.573 210.288 282.064C210.011 282.555 209.872 283.131 209.872 283.792C209.872 284.443 210.011 285.019 210.288 285.52C210.566 286.011 210.939 286.395 211.408 286.672C211.878 286.939 212.406 287.072 212.992 287.072ZM221.856 288.08C221.162 288.08 220.506 287.984 219.888 287.792C219.269 287.589 218.784 287.339 218.432 287.04L218.944 286.144C219.285 286.4 219.722 286.624 220.256 286.816C220.789 286.997 221.349 287.088 221.936 287.088C222.736 287.088 223.312 286.965 223.664 286.72C224.016 286.464 224.192 286.128 224.192 285.712C224.192 285.403 224.09 285.163 223.888 284.992C223.696 284.811 223.44 284.677 223.12 284.592C222.8 284.496 222.442 284.416 222.048 284.352C221.653 284.288 221.258 284.213 220.864 284.128C220.48 284.043 220.128 283.92 219.808 283.76C219.488 283.589 219.226 283.36 219.024 283.072C218.832 282.784 218.736 282.4 218.736 281.92C218.736 281.461 218.864 281.051 219.12 280.688C219.376 280.325 219.749 280.043 220.24 279.84C220.741 279.627 221.349 279.52 222.064 279.52C222.608 279.52 223.152 279.595 223.696 279.744C224.24 279.883 224.688 280.069 225.04 280.304L224.544 281.216C224.17 280.96 223.77 280.779 223.344 280.672C222.917 280.555 222.49 280.496 222.064 280.496C221.306 280.496 220.746 280.629 220.384 280.896C220.032 281.152 219.856 281.483 219.856 281.888C219.856 282.208 219.952 282.459 220.144 282.64C220.346 282.821 220.608 282.965 220.928 283.072C221.258 283.168 221.616 283.248 222 283.312C222.394 283.376 222.784 283.456 223.168 283.552C223.562 283.637 223.92 283.76 224.24 283.92C224.57 284.069 224.832 284.288 225.024 284.576C225.226 284.853 225.328 285.221 225.328 285.68C225.328 286.171 225.189 286.597 224.912 286.96C224.645 287.312 224.25 287.589 223.728 287.792C223.216 287.984 222.592 288.08 221.856 288.08Z" fill="#838383"/>
<path d="M109.18 291.216C108.304 291.216 107.434 291.102 106.57 290.874C105.706 290.634 104.974 290.298 104.374 289.866L105.508 287.634C105.988 287.982 106.546 288.258 107.182 288.462C107.818 288.666 108.46 288.768 109.108 288.768C109.84 288.768 110.416 288.624 110.836 288.336C111.256 288.048 111.466 287.652 111.466 287.148C111.466 286.668 111.28 286.29 110.908 286.014C110.536 285.738 109.936 285.6 109.108 285.6H107.776V283.674L111.286 279.696L111.61 280.74H105.004V278.4H113.824V280.29L110.332 284.268L108.856 283.422H109.702C111.25 283.422 112.42 283.77 113.212 284.466C114.004 285.162 114.4 286.056 114.4 287.148C114.4 287.856 114.214 288.522 113.842 289.146C113.47 289.758 112.9 290.256 112.132 290.64C111.364 291.024 110.38 291.216 109.18 291.216ZM119.744 291.216C118.868 291.216 117.998 291.102 117.134 290.874C116.27 290.634 115.538 290.298 114.938 289.866L116.072 287.634C116.552 287.982 117.11 288.258 117.746 288.462C118.382 288.666 119.024 288.768 119.672 288.768C120.404 288.768 120.98 288.624 121.4 288.336C121.82 288.048 122.03 287.652 122.03 287.148C122.03 286.668 121.844 286.29 121.472 286.014C121.1 285.738 120.5 285.6 119.672 285.6H118.34V283.674L121.85 279.696L122.174 280.74H115.568V278.4H124.388V280.29L120.896 284.268L119.42 283.422H120.266C121.814 283.422 122.984 283.77 123.776 284.466C124.568 285.162 124.964 286.056 124.964 287.148C124.964 287.856 124.778 288.522 124.406 289.146C124.034 289.758 123.464 290.256 122.696 290.64C121.928 291.024 120.944 291.216 119.744 291.216Z" fill="#838383"/>
<g opacity="0.5">
<rect x="300.899" y="269.912" width="2.12678" height="28.087" rx="0.941452" fill="#1A7F1C"/>
<rect x="353.846" y="269.912" width="2.12678" height="28.087" rx="0.941452" fill="#1A7F1C"/>
<rect x="284.016" y="269.912" width="2.12678" height="28.087" rx="0.941452" fill="#1A7F1C"/>
<rect x="336.965" y="269.912" width="2.12678" height="28.087" rx="0.941452" fill="#1A7F1C"/>
<rect x="389.911" y="269.912" width="2.12678" height="28.087" rx="0.941452" fill="#1A7F1C"/>
<rect x="318.933" y="260" width="2.12678" height="38" rx="0.941452" fill="#1A7F1C"/>
<rect x="371.88" y="260" width="2.12678" height="38" rx="0.941452" fill="#1A7F1C"/>
<rect x="306.911" y="280.651" width="2.12678" height="17.3478" rx="0.941452" fill="#1A7F1C"/>
<rect x="359.858" y="280.651" width="2.12678" height="17.3478" rx="0.941452" fill="#1A7F1C"/>
<rect x="290.03" y="280.651" width="2.12678" height="17.3478" rx="0.941452" fill="#1A7F1C"/>
<rect x="342.976" y="280.651" width="2.12678" height="17.3478" rx="0.941452" fill="#1A7F1C"/>
<rect x="395.923" y="280.651" width="2.12678" height="17.3478" rx="0.941452" fill="#1A7F1C"/>
<rect x="272" y="270.738" width="2.12678" height="27.2609" rx="0.941452" fill="#1A7F1C"/>
<rect x="324.943" y="270.738" width="2.12678" height="27.2609" rx="0.941452" fill="#1A7F1C"/>
<rect x="377.891" y="270.738" width="2.12678" height="27.2609" rx="0.941452" fill="#1A7F1C"/>
<rect x="312.923" y="285.609" width="2.12678" height="12.3913" rx="0.941452" fill="#1A7F1C"/>
<rect x="365.87" y="285.609" width="2.12678" height="12.3913" rx="0.941452" fill="#1A7F1C"/>
<rect x="296.04" y="285.609" width="2.12678" height="12.3913" rx="0.941452" fill="#1A7F1C"/>
<rect x="348.986" y="285.609" width="2.12678" height="12.3913" rx="0.941452" fill="#1A7F1C"/>
<rect x="401.933" y="285.609" width="2.12678" height="12.3913" rx="0.941452" fill="#1A7F1C"/>
<rect x="278.003" y="264.957" width="2.12678" height="33.0435" rx="0.941452" fill="#1A7F1C"/>
<rect x="330.953" y="264.957" width="2.12678" height="33.0435" rx="0.941452" fill="#1A7F1C"/>
<rect x="383.898" y="264.957" width="2.12678" height="33.0435" rx="0.941452" fill="#1A7F1C"/>
</g>
<g filter="url(#filter2_d_4064_36904)">
<circle cx="52.5" cy="107.5" r="26.5" fill="white"/>
</g>
<path d="M43.3153 104.636L43.0708 105.345L43.3153 104.636ZM43.3153 109.364L43.0708 108.655L43.3153 109.364ZM62.6847 109.364L62.9292 108.655L62.6847 109.364ZM62.6847 104.636L62.4403 103.927L62.6847 104.636ZM47 98.25C44.3766 98.25 42.25 100.377 42.25 103H43.75C43.75 101.205 45.2051 99.75 47 99.75V98.25ZM59 98.25H47V99.75H59V98.25ZM63.75 103C63.75 100.377 61.6234 98.25 59 98.25V99.75C60.7949 99.75 62.25 101.205 62.25 103H63.75ZM63.75 104.223V103H62.25V104.223H63.75ZM61.75 107C61.75 106.234 62.242 105.582 62.9292 105.345L62.4403 103.927C61.1667 104.366 60.25 105.575 60.25 107H61.75ZM62.9292 108.655C62.242 108.418 61.75 107.766 61.75 107H60.25C60.25 108.425 61.1667 109.634 62.4403 110.073L62.9292 108.655ZM63.75 111V109.777H62.25V111H63.75ZM59 115.75C61.6234 115.75 63.75 113.623 63.75 111H62.25C62.25 112.795 60.7949 114.25 59 114.25V115.75ZM47 115.75H59V114.25H47V115.75ZM42.25 111C42.25 113.623 44.3766 115.75 47 115.75V114.25C45.2051 114.25 43.75 112.795 43.75 111H42.25ZM42.25 109.777V111H43.75V109.777H42.25ZM43.5597 110.073C44.8333 109.634 45.75 108.425 45.75 107H44.25C44.25 107.766 43.758 108.418 43.0708 108.655L43.5597 110.073ZM45.75 107C45.75 105.575 44.8333 104.366 43.5597 103.927L43.0708 105.345C43.758 105.582 44.25 106.234 44.25 107H45.75ZM42.25 103V104.223H43.75V103H42.25ZM43.5597 103.927C43.6265 103.95 43.75 104.038 43.75 104.223H42.25C42.25 104.789 42.6443 105.198 43.0708 105.345L43.5597 103.927ZM43.75 109.777C43.75 109.962 43.6265 110.05 43.5597 110.073L43.0708 108.655C42.6443 108.802 42.25 109.211 42.25 109.777H43.75ZM62.4403 110.073C62.3735 110.05 62.25 109.962 62.25 109.777H63.75C63.75 109.211 63.3557 108.802 62.9292 108.655L62.4403 110.073ZM62.25 104.223C62.25 104.038 62.3735 103.95 62.4403 103.927L62.9292 105.345C63.3557 105.198 63.75 104.789 63.75 104.223H62.25Z" fill="#FDA700"/>
<path d="M52.6089 103.491C52.8091 103.24 53.1909 103.24 53.3911 103.491L55.1356 105.681C55.1666 105.72 55.1916 105.764 55.2098 105.81L56.2344 108.416C56.352 108.715 56.161 109.045 55.8433 109.093L53.0742 109.509C53.025 109.516 52.975 109.516 52.9258 109.509L50.1567 109.093C49.839 109.045 49.648 108.715 49.7656 108.416L50.7902 105.81C50.8084 105.764 50.8334 105.72 50.8644 105.681L52.6089 103.491Z" stroke="#FDA700" stroke-width="1.5"/>
<path d="M150.88 104.808H156.8V105.816H150.88V104.808ZM151.008 109.976H157.744V111H149.824V99.8H157.504V100.824H151.008V109.976ZM164.575 102.52C165.258 102.52 165.855 102.653 166.367 102.92C166.89 103.176 167.295 103.571 167.583 104.104C167.882 104.637 168.031 105.309 168.031 106.12V111H166.895V106.232C166.895 105.347 166.671 104.68 166.223 104.232C165.786 103.773 165.167 103.544 164.367 103.544C163.77 103.544 163.247 103.667 162.799 103.912C162.362 104.147 162.02 104.493 161.775 104.952C161.54 105.4 161.423 105.944 161.423 106.584V111H160.287V102.6H161.375V104.904L161.199 104.472C161.466 103.864 161.892 103.389 162.479 103.048C163.066 102.696 163.764 102.52 164.575 102.52ZM178.775 111.08C177.943 111.08 177.196 110.899 176.535 110.536C175.884 110.163 175.372 109.656 174.999 109.016C174.626 108.365 174.439 107.624 174.439 106.792C174.439 105.949 174.626 105.208 174.999 104.568C175.372 103.928 175.884 103.427 176.535 103.064C177.196 102.701 177.943 102.52 178.775 102.52C179.49 102.52 180.135 102.659 180.711 102.936C181.287 103.213 181.74 103.629 182.071 104.184L181.223 104.76C180.935 104.333 180.578 104.019 180.151 103.816C179.724 103.613 179.26 103.512 178.759 103.512C178.162 103.512 177.623 103.651 177.143 103.928C176.663 104.195 176.284 104.573 176.007 105.064C175.73 105.555 175.591 106.131 175.591 106.792C175.591 107.453 175.73 108.029 176.007 108.52C176.284 109.011 176.663 109.395 177.143 109.672C177.623 109.939 178.162 110.072 178.759 110.072C179.26 110.072 179.724 109.971 180.151 109.768C180.578 109.565 180.935 109.256 181.223 108.84L182.071 109.416C181.74 109.96 181.287 110.376 180.711 110.664C180.135 110.941 179.49 111.08 178.775 111.08ZM187.775 111.08C187.06 111.08 186.436 110.947 185.903 110.68C185.369 110.413 184.953 110.013 184.655 109.48C184.367 108.947 184.223 108.28 184.223 107.48V102.6H185.359V107.352C185.359 108.248 185.577 108.925 186.015 109.384C186.463 109.832 187.087 110.056 187.887 110.056C188.473 110.056 188.98 109.939 189.407 109.704C189.844 109.459 190.175 109.107 190.399 108.648C190.633 108.189 190.751 107.64 190.751 107V102.6H191.887V111H190.799V108.696L190.975 109.112C190.708 109.731 190.292 110.216 189.727 110.568C189.172 110.909 188.521 111.08 187.775 111.08ZM195.053 111V102.6H196.141V104.888L196.029 104.488C196.263 103.848 196.658 103.363 197.213 103.032C197.767 102.691 198.455 102.52 199.277 102.52V103.624C199.234 103.624 199.191 103.624 199.149 103.624C199.106 103.613 199.063 103.608 199.021 103.608C198.135 103.608 197.442 103.88 196.941 104.424C196.439 104.957 196.189 105.72 196.189 106.712V111H195.053ZM203.699 111.08C203.006 111.08 202.35 110.984 201.731 110.792C201.113 110.589 200.627 110.339 200.275 110.04L200.787 109.144C201.129 109.4 201.566 109.624 202.099 109.816C202.633 109.997 203.193 110.088 203.779 110.088C204.579 110.088 205.155 109.965 205.507 109.72C205.859 109.464 206.035 109.128 206.035 108.712C206.035 108.403 205.934 108.163 205.731 107.992C205.539 107.811 205.283 107.677 204.963 107.592C204.643 107.496 204.286 107.416 203.891 107.352C203.497 107.288 203.102 107.213 202.707 107.128C202.323 107.043 201.971 106.92 201.651 106.76C201.331 106.589 201.07 106.36 200.867 106.072C200.675 105.784 200.579 105.4 200.579 104.92C200.579 104.461 200.707 104.051 200.963 103.688C201.219 103.325 201.593 103.043 202.083 102.84C202.585 102.627 203.193 102.52 203.907 102.52C204.451 102.52 204.995 102.595 205.539 102.744C206.083 102.883 206.531 103.069 206.883 103.304L206.387 104.216C206.014 103.96 205.614 103.779 205.187 103.672C204.761 103.555 204.334 103.496 203.907 103.496C203.15 103.496 202.59 103.629 202.227 103.896C201.875 104.152 201.699 104.483 201.699 104.888C201.699 105.208 201.795 105.459 201.987 105.64C202.19 105.821 202.451 105.965 202.771 106.072C203.102 106.168 203.459 106.248 203.843 106.312C204.238 106.376 204.627 106.456 205.011 106.552C205.406 106.637 205.763 106.76 206.083 106.92C206.414 107.069 206.675 107.288 206.867 107.576C207.07 107.853 207.171 108.221 207.171 108.68C207.171 109.171 207.033 109.597 206.755 109.96C206.489 110.312 206.094 110.589 205.571 110.792C205.059 110.984 204.435 111.08 203.699 111.08ZM212.68 111.08C211.869 111.08 211.139 110.899 210.488 110.536C209.848 110.163 209.341 109.656 208.968 109.016C208.595 108.365 208.408 107.624 208.408 106.792C208.408 105.949 208.595 105.208 208.968 104.568C209.341 103.928 209.848 103.427 210.488 103.064C211.128 102.701 211.859 102.52 212.68 102.52C213.512 102.52 214.248 102.701 214.888 103.064C215.539 103.427 216.045 103.928 216.408 104.568C216.781 105.208 216.968 105.949 216.968 106.792C216.968 107.624 216.781 108.365 216.408 109.016C216.045 109.656 215.539 110.163 214.888 110.536C214.237 110.899 213.501 111.08 212.68 111.08ZM212.68 110.072C213.288 110.072 213.827 109.939 214.296 109.672C214.765 109.395 215.133 109.011 215.4 108.52C215.677 108.019 215.816 107.443 215.816 106.792C215.816 106.131 215.677 105.555 215.4 105.064C215.133 104.573 214.765 104.195 214.296 103.928C213.827 103.651 213.293 103.512 212.696 103.512C212.099 103.512 211.565 103.651 211.096 103.928C210.627 104.195 210.253 104.573 209.976 105.064C209.699 105.555 209.56 106.131 209.56 106.792C209.56 107.443 209.699 108.019 209.976 108.52C210.253 109.011 210.627 109.395 211.096 109.672C211.565 109.939 212.093 110.072 212.68 110.072Z" fill="#838383"/>
<path d="M109.497 113.216C108.345 113.216 107.343 112.976 106.491 112.496C105.651 112.016 105.003 111.314 104.547 110.39C104.091 109.466 103.863 108.326 103.863 106.97C103.863 105.518 104.133 104.288 104.673 103.28C105.225 102.272 105.981 101.504 106.941 100.976C107.913 100.448 109.029 100.184 110.289 100.184C110.961 100.184 111.603 100.256 112.215 100.4C112.827 100.544 113.355 100.76 113.799 101.048L112.719 103.19C112.371 102.95 111.999 102.788 111.603 102.704C111.207 102.608 110.793 102.56 110.361 102.56C109.269 102.56 108.405 102.89 107.769 103.55C107.133 104.21 106.815 105.188 106.815 106.484C106.815 106.7 106.815 106.94 106.815 107.204C106.827 107.468 106.863 107.732 106.923 107.996L106.113 107.24C106.341 106.772 106.635 106.382 106.995 106.07C107.355 105.746 107.781 105.506 108.273 105.35C108.777 105.182 109.329 105.098 109.929 105.098C110.745 105.098 111.477 105.26 112.125 105.584C112.773 105.908 113.289 106.364 113.673 106.952C114.069 107.54 114.267 108.23 114.267 109.022C114.267 109.874 114.051 110.618 113.619 111.254C113.199 111.878 112.629 112.364 111.909 112.712C111.201 113.048 110.397 113.216 109.497 113.216ZM109.335 111.038C109.743 111.038 110.103 110.966 110.415 110.822C110.739 110.666 110.991 110.444 111.171 110.156C111.351 109.868 111.441 109.538 111.441 109.166C111.441 108.59 111.243 108.134 110.847 107.798C110.463 107.45 109.947 107.276 109.299 107.276C108.867 107.276 108.489 107.36 108.165 107.528C107.841 107.684 107.583 107.906 107.391 108.194C107.211 108.47 107.121 108.794 107.121 109.166C107.121 109.526 107.211 109.85 107.391 110.138C107.571 110.414 107.823 110.636 108.147 110.804C108.471 110.96 108.867 111.038 109.335 111.038ZM120.724 113.216C119.692 113.216 118.768 112.964 117.952 112.46C117.136 111.944 116.494 111.2 116.026 110.228C115.558 109.256 115.324 108.08 115.324 106.7C115.324 105.32 115.558 104.144 116.026 103.172C116.494 102.2 117.136 101.462 117.952 100.958C118.768 100.442 119.692 100.184 120.724 100.184C121.768 100.184 122.692 100.442 123.496 100.958C124.312 101.462 124.954 102.2 125.422 103.172C125.89 104.144 126.124 105.32 126.124 106.7C126.124 108.08 125.89 109.256 125.422 110.228C124.954 111.2 124.312 111.944 123.496 112.46C122.692 112.964 121.768 113.216 120.724 113.216ZM120.724 110.75C121.216 110.75 121.642 110.612 122.002 110.336C122.374 110.06 122.662 109.622 122.866 109.022C123.082 108.422 123.19 107.648 123.19 106.7C123.19 105.752 123.082 104.978 122.866 104.378C122.662 103.778 122.374 103.34 122.002 103.064C121.642 102.788 121.216 102.65 120.724 102.65C120.244 102.65 119.818 102.788 119.446 103.064C119.086 103.34 118.798 103.778 118.582 104.378C118.378 104.978 118.276 105.752 118.276 106.7C118.276 107.648 118.378 108.422 118.582 109.022C118.798 109.622 119.086 110.06 119.446 110.336C119.818 110.612 120.244 110.75 120.724 110.75Z" fill="#838383"/>
<g opacity="0.5">
<rect x="300.899" y="92.9121" width="2.12678" height="28.087" rx="0.941452" fill="#FDA700"/>
<rect x="353.846" y="92.9121" width="2.12678" height="28.087" rx="0.941452" fill="#FDA700"/>
<rect x="284.016" y="92.9121" width="2.12678" height="28.087" rx="0.941452" fill="#FDA700"/>
<rect x="336.965" y="92.9121" width="2.12678" height="28.087" rx="0.941452" fill="#FDA700"/>
<rect x="389.911" y="92.9121" width="2.12678" height="28.087" rx="0.941452" fill="#FDA700"/>
<rect x="318.933" y="83" width="2.12678" height="38" rx="0.941452" fill="#FDA700"/>
<rect x="371.88" y="83" width="2.12678" height="38" rx="0.941452" fill="#FDA700"/>
<rect x="306.911" y="103.651" width="2.12678" height="17.3478" rx="0.941452" fill="#FDA700"/>
<rect x="359.858" y="103.651" width="2.12678" height="17.3478" rx="0.941452" fill="#FDA700"/>
<rect x="290.03" y="103.651" width="2.12678" height="17.3478" rx="0.941452" fill="#FDA700"/>
<rect x="342.976" y="103.651" width="2.12678" height="17.3478" rx="0.941452" fill="#FDA700"/>
<rect x="395.923" y="103.651" width="2.12678" height="17.3478" rx="0.941452" fill="#FDA700"/>
<rect x="272" y="93.7383" width="2.12678" height="27.2609" rx="0.941452" fill="#FDA700"/>
<rect x="324.943" y="93.7383" width="2.12678" height="27.2609" rx="0.941452" fill="#FDA700"/>
<rect x="377.891" y="93.7383" width="2.12678" height="27.2609" rx="0.941452" fill="#FDA700"/>
<rect x="312.923" y="108.609" width="2.12678" height="12.3913" rx="0.941452" fill="#FDA700"/>
<rect x="365.87" y="108.609" width="2.12678" height="12.3913" rx="0.941452" fill="#FDA700"/>
<rect x="296.04" y="108.609" width="2.12678" height="12.3913" rx="0.941452" fill="#FDA700"/>
<rect x="348.986" y="108.609" width="2.12678" height="12.3913" rx="0.941452" fill="#FDA700"/>
<rect x="401.933" y="108.609" width="2.12678" height="12.3913" rx="0.941452" fill="#FDA700"/>
<rect x="278.003" y="87.957" width="2.12678" height="33.0435" rx="0.941452" fill="#FDA700"/>
<rect x="330.953" y="87.957" width="2.12678" height="33.0435" rx="0.941452" fill="#FDA700"/>
<rect x="383.898" y="87.957" width="2.12678" height="33.0435" rx="0.941452" fill="#FDA700"/>
</g>
<path d="M453 110L455.293 107.707C455.683 107.317 455.683 106.683 455.293 106.293L453 104M455 107L448 107M452 117C457.523 117 462 112.523 462 107C462 101.477 457.523 97 452 97C446.477 97 442 101.477 442 107C442 112.523 446.477 117 452 117Z" stroke="#3B4559" stroke-width="1.5" stroke-linecap="round"/>
<path d="M149.824 200V188.8H154.016C154.965 188.8 155.781 188.955 156.464 189.264C157.147 189.563 157.669 190 158.032 190.576C158.405 191.141 158.592 191.829 158.592 192.64C158.592 193.429 158.405 194.112 158.032 194.688C157.669 195.253 157.147 195.691 156.464 196C155.781 196.309 154.965 196.464 154.016 196.464H150.48L151.008 195.904V200H149.824ZM151.008 196L150.48 195.424H153.984C155.104 195.424 155.952 195.184 156.528 194.704C157.115 194.213 157.408 193.525 157.408 192.64C157.408 191.744 157.115 191.051 156.528 190.56C155.952 190.069 155.104 189.824 153.984 189.824H150.48L151.008 189.264V196ZM164.433 200.08C163.559 200.08 162.791 199.899 162.129 199.536C161.468 199.163 160.951 198.656 160.577 198.016C160.204 197.365 160.017 196.624 160.017 195.792C160.017 194.96 160.193 194.224 160.545 193.584C160.908 192.944 161.399 192.443 162.017 192.08C162.647 191.707 163.351 191.52 164.129 191.52C164.919 191.52 165.617 191.701 166.225 192.064C166.844 192.416 167.329 192.917 167.681 193.568C168.033 194.208 168.209 194.949 168.209 195.792C168.209 195.845 168.204 195.904 168.193 195.968C168.193 196.021 168.193 196.08 168.193 196.144H160.881V195.296H167.585L167.137 195.632C167.137 195.024 167.004 194.485 166.737 194.016C166.481 193.536 166.129 193.163 165.681 192.896C165.233 192.629 164.716 192.496 164.129 192.496C163.553 192.496 163.036 192.629 162.577 192.896C162.119 193.163 161.761 193.536 161.505 194.016C161.249 194.496 161.121 195.045 161.121 195.664V195.84C161.121 196.48 161.26 197.045 161.537 197.536C161.825 198.016 162.22 198.395 162.721 198.672C163.233 198.939 163.815 199.072 164.465 199.072C164.977 199.072 165.452 198.981 165.889 198.8C166.337 198.619 166.721 198.341 167.041 197.968L167.681 198.704C167.308 199.152 166.839 199.493 166.273 199.728C165.719 199.963 165.105 200.08 164.433 200.08ZM174.81 191.52C175.492 191.52 176.09 191.653 176.602 191.92C177.124 192.176 177.53 192.571 177.818 193.104C178.116 193.637 178.266 194.309 178.266 195.12V200H177.13V195.232C177.13 194.347 176.906 193.68 176.458 193.232C176.02 192.773 175.402 192.544 174.602 192.544C174.004 192.544 173.482 192.667 173.034 192.912C172.596 193.147 172.255 193.493 172.01 193.952C171.775 194.4 171.658 194.944 171.658 195.584V200H170.522V191.6H171.61V193.904L171.434 193.472C171.7 192.864 172.127 192.389 172.714 192.048C173.3 191.696 173.999 191.52 174.81 191.52ZM184.678 200.08C183.878 200.08 183.158 199.899 182.518 199.536C181.889 199.173 181.393 198.672 181.03 198.032C180.667 197.381 180.486 196.635 180.486 195.792C180.486 194.939 180.667 194.192 181.03 193.552C181.393 192.912 181.889 192.416 182.518 192.064C183.158 191.701 183.878 191.52 184.678 191.52C185.414 191.52 186.07 191.685 186.646 192.016C187.233 192.347 187.697 192.832 188.038 193.472C188.39 194.101 188.566 194.875 188.566 195.792C188.566 196.699 188.395 197.472 188.054 198.112C187.713 198.752 187.249 199.243 186.662 199.584C186.086 199.915 185.425 200.08 184.678 200.08ZM184.758 199.072C185.355 199.072 185.889 198.939 186.358 198.672C186.838 198.395 187.211 198.011 187.478 197.52C187.755 197.019 187.894 196.443 187.894 195.792C187.894 195.131 187.755 194.555 187.478 194.064C187.211 193.573 186.838 193.195 186.358 192.928C185.889 192.651 185.355 192.512 184.758 192.512C184.171 192.512 183.643 192.651 183.174 192.928C182.705 193.195 182.331 193.573 182.054 194.064C181.777 194.555 181.638 195.131 181.638 195.792C181.638 196.443 181.777 197.019 182.054 197.52C182.331 198.011 182.705 198.395 183.174 198.672C183.643 198.939 184.171 199.072 184.758 199.072ZM187.926 200V197.472L188.038 195.776L187.878 194.08V188.128H189.014V200H187.926ZM192.178 200V191.6H193.314V200H192.178ZM192.754 189.744C192.519 189.744 192.322 189.664 192.162 189.504C192.002 189.344 191.922 189.152 191.922 188.928C191.922 188.704 192.002 188.517 192.162 188.368C192.322 188.208 192.519 188.128 192.754 188.128C192.988 188.128 193.186 188.203 193.346 188.352C193.506 188.501 193.586 188.688 193.586 188.912C193.586 189.147 193.506 189.344 193.346 189.504C193.196 189.664 192.999 189.744 192.754 189.744ZM200.043 200.08C199.168 200.08 198.4 199.899 197.739 199.536C197.077 199.163 196.56 198.656 196.187 198.016C195.813 197.365 195.627 196.624 195.627 195.792C195.627 194.96 195.803 194.224 196.155 193.584C196.517 192.944 197.008 192.443 197.627 192.08C198.256 191.707 198.96 191.52 199.739 191.52C200.528 191.52 201.227 191.701 201.835 192.064C202.453 192.416 202.939 192.917 203.291 193.568C203.643 194.208 203.819 194.949 203.819 195.792C203.819 195.845 203.813 195.904 203.803 195.968C203.803 196.021 203.803 196.08 203.803 196.144H196.491V195.296H203.195L202.747 195.632C202.747 195.024 202.613 194.485 202.347 194.016C202.091 193.536 201.739 193.163 201.291 192.896C200.843 192.629 200.325 192.496 199.739 192.496C199.163 192.496 198.645 192.629 198.187 192.896C197.728 193.163 197.371 193.536 197.115 194.016C196.859 194.496 196.731 195.045 196.731 195.664V195.84C196.731 196.48 196.869 197.045 197.147 197.536C197.435 198.016 197.829 198.395 198.331 198.672C198.843 198.939 199.424 199.072 200.075 199.072C200.587 199.072 201.061 198.981 201.499 198.8C201.947 198.619 202.331 198.341 202.651 197.968L203.291 198.704C202.917 199.152 202.448 199.493 201.883 199.728C201.328 199.963 200.715 200.08 200.043 200.08ZM210.419 191.52C211.102 191.52 211.699 191.653 212.211 191.92C212.734 192.176 213.139 192.571 213.427 193.104C213.726 193.637 213.875 194.309 213.875 195.12V200H212.739V195.232C212.739 194.347 212.515 193.68 212.067 193.232C211.63 192.773 211.011 192.544 210.211 192.544C209.614 192.544 209.091 192.667 208.643 192.912C208.206 193.147 207.864 193.493 207.619 193.952C207.384 194.4 207.267 194.944 207.267 195.584V200H206.131V191.6H207.219V193.904L207.043 193.472C207.31 192.864 207.736 192.389 208.323 192.048C208.91 191.696 209.608 191.52 210.419 191.52ZM219.599 200.08C218.81 200.08 218.202 199.867 217.775 199.44C217.349 199.013 217.135 198.411 217.135 197.632V189.744H218.271V197.568C218.271 198.059 218.394 198.437 218.639 198.704C218.895 198.971 219.258 199.104 219.727 199.104C220.229 199.104 220.645 198.96 220.975 198.672L221.375 199.488C221.151 199.691 220.879 199.84 220.559 199.936C220.25 200.032 219.93 200.08 219.599 200.08ZM215.631 192.544V191.6H220.831V192.544H215.631ZM226.715 200.08C225.84 200.08 225.072 199.899 224.411 199.536C223.749 199.163 223.232 198.656 222.859 198.016C222.485 197.365 222.299 196.624 222.299 195.792C222.299 194.96 222.475 194.224 222.827 193.584C223.189 192.944 223.68 192.443 224.299 192.08C224.928 191.707 225.632 191.52 226.411 191.52C227.2 191.52 227.899 191.701 228.507 192.064C229.125 192.416 229.611 192.917 229.963 193.568C230.315 194.208 230.491 194.949 230.491 195.792C230.491 195.845 230.485 195.904 230.475 195.968C230.475 196.021 230.475 196.08 230.475 196.144H223.163V195.296H229.867L229.419 195.632C229.419 195.024 229.285 194.485 229.019 194.016C228.763 193.536 228.411 193.163 227.963 192.896C227.515 192.629 226.997 192.496 226.411 192.496C225.835 192.496 225.317 192.629 224.859 192.896C224.4 193.163 224.043 193.536 223.787 194.016C223.531 194.496 223.403 195.045 223.403 195.664V195.84C223.403 196.48 223.541 197.045 223.819 197.536C224.107 198.016 224.501 198.395 225.003 198.672C225.515 198.939 226.096 199.072 226.747 199.072C227.259 199.072 227.733 198.981 228.171 198.8C228.619 198.619 229.003 198.341 229.323 197.968L229.963 198.704C229.589 199.152 229.12 199.493 228.555 199.728C228 199.963 227.387 200.08 226.715 200.08ZM235.059 200.08C234.365 200.08 233.709 199.984 233.091 199.792C232.472 199.589 231.987 199.339 231.635 199.04L232.147 198.144C232.488 198.4 232.925 198.624 233.459 198.816C233.992 198.997 234.552 199.088 235.139 199.088C235.939 199.088 236.515 198.965 236.867 198.72C237.219 198.464 237.395 198.128 237.395 197.712C237.395 197.403 237.293 197.163 237.091 196.992C236.899 196.811 236.643 196.677 236.323 196.592C236.003 196.496 235.645 196.416 235.251 196.352C234.856 196.288 234.461 196.213 234.067 196.128C233.683 196.043 233.331 195.92 233.011 195.76C232.691 195.589 232.429 195.36 232.227 195.072C232.035 194.784 231.939 194.4 231.939 193.92C231.939 193.461 232.067 193.051 232.323 192.688C232.579 192.325 232.952 192.043 233.443 191.84C233.944 191.627 234.552 191.52 235.267 191.52C235.811 191.52 236.355 191.595 236.899 191.744C237.443 191.883 237.891 192.069 238.243 192.304L237.747 193.216C237.373 192.96 236.973 192.779 236.547 192.672C236.12 192.555 235.693 192.496 235.267 192.496C234.509 192.496 233.949 192.629 233.587 192.896C233.235 193.152 233.059 193.483 233.059 193.888C233.059 194.208 233.155 194.459 233.347 194.64C233.549 194.821 233.811 194.965 234.131 195.072C234.461 195.168 234.819 195.248 235.203 195.312C235.597 195.376 235.987 195.456 236.371 195.552C236.765 195.637 237.123 195.76 237.443 195.92C237.773 196.069 238.035 196.288 238.227 196.576C238.429 196.853 238.531 197.221 238.531 197.68C238.531 198.171 238.392 198.597 238.115 198.96C237.848 199.312 237.453 199.589 236.931 199.792C236.419 199.984 235.795 200.08 235.059 200.08Z" fill="#838383"/>
<g filter="url(#filter3_d_4064_36904)">
<circle cx="52.5" cy="193.5" r="26.5" fill="white"/>
</g>
<path d="M43.3153 189.636L43.0708 190.345L43.3153 189.636ZM43.3153 194.364L43.0708 193.655L43.3153 194.364ZM62.6847 194.364L62.9292 193.655L62.6847 194.364ZM62.6847 189.636L62.4403 188.927L62.6847 189.636ZM47 183.25C44.3766 183.25 42.25 185.377 42.25 188H43.75C43.75 186.205 45.2051 184.75 47 184.75V183.25ZM59 183.25H47V184.75H59V183.25ZM63.75 188C63.75 185.377 61.6234 183.25 59 183.25V184.75C60.7949 184.75 62.25 186.205 62.25 188H63.75ZM63.75 189.223V188H62.25V189.223H63.75ZM61.75 192C61.75 191.234 62.242 190.582 62.9292 190.345L62.4403 188.927C61.1667 189.366 60.25 190.575 60.25 192H61.75ZM62.9292 193.655C62.242 193.418 61.75 192.766 61.75 192H60.25C60.25 193.425 61.1667 194.634 62.4403 195.073L62.9292 193.655ZM63.75 196V194.777H62.25V196H63.75ZM59 200.75C61.6234 200.75 63.75 198.623 63.75 196H62.25C62.25 197.795 60.7949 199.25 59 199.25V200.75ZM47 200.75H59V199.25H47V200.75ZM42.25 196C42.25 198.623 44.3766 200.75 47 200.75V199.25C45.2051 199.25 43.75 197.795 43.75 196H42.25ZM42.25 194.777V196H43.75V194.777H42.25ZM43.5597 195.073C44.8333 194.634 45.75 193.425 45.75 192H44.25C44.25 192.766 43.758 193.418 43.0708 193.655L43.5597 195.073ZM45.75 192C45.75 190.575 44.8333 189.366 43.5597 188.927L43.0708 190.345C43.758 190.582 44.25 191.234 44.25 192H45.75ZM42.25 188V189.223H43.75V188H42.25ZM43.5597 188.927C43.6265 188.95 43.75 189.038 43.75 189.223H42.25C42.25 189.789 42.6443 190.198 43.0708 190.345L43.5597 188.927ZM43.75 194.777C43.75 194.962 43.6265 195.05 43.5597 195.073L43.0708 193.655C42.6443 193.802 42.25 194.211 42.25 194.777H43.75ZM62.4403 195.073C62.3735 195.05 62.25 194.962 62.25 194.777H63.75C63.75 194.211 63.3557 193.802 62.9292 193.655L62.4403 195.073ZM62.25 189.223C62.25 189.038 62.3735 188.95 62.4403 188.927L62.9292 190.345C63.3557 190.198 63.75 189.789 63.75 189.223H62.25Z" fill="#F95A36"/>
<path d="M52.8572 187V192.143" stroke="#F95A36" stroke-width="2" stroke-linecap="round" stroke-linejoin="round"/>
<path d="M52.8571 196.714C53.3305 196.714 53.7143 196.331 53.7143 195.857C53.7143 195.384 53.3305 195 52.8571 195C52.3838 195 52 195.384 52 195.857C52 196.331 52.3838 196.714 52.8571 196.714Z" stroke="#F95A36" stroke-linecap="round" stroke-linejoin="round"/>
<path d="M110.285 201V199.11L115.145 194.52C115.529 194.172 115.811 193.86 115.991 193.584C116.171 193.308 116.291 193.056 116.351 192.828C116.423 192.6 116.459 192.39 116.459 192.198C116.459 191.694 116.285 191.31 115.937 191.046C115.601 190.77 115.103 190.632 114.443 190.632C113.915 190.632 113.423 190.734 112.967 190.938C112.523 191.142 112.145 191.46 111.833 191.892L109.709 190.524C110.189 189.804 110.861 189.234 111.725 188.814C112.589 188.394 113.585 188.184 114.713 188.184C115.649 188.184 116.465 188.34 117.161 188.652C117.869 188.952 118.415 189.378 118.799 189.93C119.195 190.482 119.393 191.142 119.393 191.91C119.393 192.318 119.339 192.726 119.231 193.134C119.135 193.53 118.931 193.95 118.619 194.394C118.319 194.838 117.875 195.336 117.287 195.888L113.255 199.686L112.697 198.624H119.807V201H110.285Z" fill="#838383"/>
<g opacity="0.5">
<rect x="300.899" y="181.912" width="2.12678" height="28.087" rx="0.941452" fill="#F95A36"/>
<rect x="353.846" y="181.912" width="2.12678" height="28.087" rx="0.941452" fill="#F95A36"/>
<rect x="284.016" y="181.912" width="2.12678" height="28.087" rx="0.941452" fill="#F95A36"/>
<rect x="336.965" y="181.912" width="2.12678" height="28.087" rx="0.941452" fill="#F95A36"/>
<rect x="389.911" y="181.912" width="2.12678" height="28.087" rx="0.941452" fill="#F95A36"/>
<rect x="318.933" y="172" width="2.12678" height="38" rx="0.941452" fill="#F95A36"/>
<rect x="371.88" y="172" width="2.12678" height="38" rx="0.941452" fill="#F95A36"/>
<rect x="306.911" y="192.651" width="2.12678" height="17.3478" rx="0.941452" fill="#F95A36"/>
<rect x="359.858" y="192.651" width="2.12678" height="17.3478" rx="0.941452" fill="#F95A36"/>
<rect x="290.03" y="192.651" width="2.12678" height="17.3478" rx="0.941452" fill="#F95A36"/>
<rect x="342.976" y="192.651" width="2.12678" height="17.3478" rx="0.941452" fill="#F95A36"/>
<rect x="395.923" y="192.651" width="2.12678" height="17.3478" rx="0.941452" fill="#F95A36"/>
<rect x="272" y="182.738" width="2.12678" height="27.2609" rx="0.941452" fill="#F95A36"/>
<rect x="324.943" y="182.738" width="2.12678" height="27.2609" rx="0.941452" fill="#F95A36"/>
<rect x="377.891" y="182.738" width="2.12678" height="27.2609" rx="0.941452" fill="#F95A36"/>
<rect x="312.923" y="197.609" width="2.12678" height="12.3913" rx="0.941452" fill="#F95A36"/>
<rect x="365.87" y="197.609" width="2.12678" height="12.3913" rx="0.941452" fill="#F95A36"/>
<rect x="296.04" y="197.609" width="2.12678" height="12.3913" rx="0.941452" fill="#F95A36"/>
<rect x="348.986" y="197.609" width="2.12678" height="12.3913" rx="0.941452" fill="#F95A36"/>
<rect x="401.933" y="197.609" width="2.12678" height="12.3913" rx="0.941452" fill="#F95A36"/>
<rect x="278.003" y="176.957" width="2.12678" height="33.0435" rx="0.941452" fill="#F95A36"/>
<rect x="330.953" y="176.957" width="2.12678" height="33.0435" rx="0.941452" fill="#F95A36"/>
<rect x="383.898" y="176.957" width="2.12678" height="33.0435" rx="0.941452" fill="#F95A36"/>
</g>
<path d="M453 199L455.293 196.707C455.683 196.317 455.683 195.683 455.293 195.293L453 193M455 196L448 196M452 206C457.523 206 462 201.523 462 196C462 190.477 457.523 186 452 186C446.477 186 442 190.477 442 196C442 201.523 446.477 206 452 206Z" stroke="#3B4559" stroke-width="1.5" stroke-linecap="round"/>
<path d="M151.776 376V366.56H148.064V364.8H157.568V366.56H153.856V376H151.776ZM161.902 376.112C161.027 376.112 160.249 375.925 159.566 375.552C158.883 375.168 158.345 374.645 157.95 373.984C157.555 373.323 157.358 372.571 157.358 371.728C157.358 370.875 157.555 370.123 157.95 369.472C158.345 368.811 158.883 368.293 159.566 367.92C160.249 367.547 161.027 367.36 161.902 367.36C162.787 367.36 163.571 367.547 164.254 367.92C164.947 368.293 165.486 368.805 165.87 369.456C166.265 370.107 166.462 370.864 166.462 371.728C166.462 372.571 166.265 373.323 165.87 373.984C165.486 374.645 164.947 375.168 164.254 375.552C163.571 375.925 162.787 376.112 161.902 376.112ZM161.902 374.4C162.393 374.4 162.83 374.293 163.214 374.08C163.598 373.867 163.897 373.557 164.11 373.152C164.334 372.747 164.446 372.272 164.446 371.728C164.446 371.173 164.334 370.699 164.11 370.304C163.897 369.899 163.598 369.589 163.214 369.376C162.83 369.163 162.398 369.056 161.918 369.056C161.427 369.056 160.99 369.163 160.606 369.376C160.233 369.589 159.934 369.899 159.71 370.304C159.486 370.699 159.374 371.173 159.374 371.728C159.374 372.272 159.486 372.747 159.71 373.152C159.934 373.557 160.233 373.867 160.606 374.08C160.99 374.293 161.422 374.4 161.902 374.4ZM171.591 376.112C170.652 376.112 169.927 375.872 169.414 375.392C168.903 374.901 168.647 374.181 168.647 373.232V365.568H170.647V373.184C170.647 373.589 170.748 373.904 170.951 374.128C171.164 374.352 171.457 374.464 171.831 374.464C172.279 374.464 172.652 374.347 172.951 374.112L173.511 375.536C173.276 375.728 172.988 375.872 172.647 375.968C172.305 376.064 171.953 376.112 171.591 376.112ZM167.239 369.12V367.52H172.935V369.12H167.239ZM180.42 376V374.272L180.308 373.904V370.88C180.308 370.293 180.132 369.84 179.78 369.52C179.428 369.189 178.894 369.024 178.18 369.024C177.7 369.024 177.225 369.099 176.756 369.248C176.297 369.397 175.908 369.605 175.588 369.872L174.804 368.416C175.262 368.064 175.806 367.803 176.436 367.632C177.076 367.451 177.737 367.36 178.42 367.36C179.657 367.36 180.612 367.659 181.284 368.256C181.966 368.843 182.308 369.755 182.308 370.992V376H180.42ZM177.732 376.112C177.092 376.112 176.532 376.005 176.052 375.792C175.572 375.568 175.198 375.264 174.932 374.88C174.676 374.485 174.548 374.043 174.548 373.552C174.548 373.072 174.66 372.64 174.884 372.256C175.118 371.872 175.497 371.568 176.02 371.344C176.542 371.12 177.236 371.008 178.1 371.008H180.58V372.336H178.244C177.561 372.336 177.102 372.448 176.868 372.672C176.633 372.885 176.516 373.152 176.516 373.472C176.516 373.835 176.66 374.123 176.948 374.336C177.236 374.549 177.636 374.656 178.148 374.656C178.638 374.656 179.076 374.544 179.46 374.32C179.854 374.096 180.137 373.765 180.308 373.328L180.644 374.528C180.452 375.029 180.105 375.419 179.604 375.696C179.113 375.973 178.489 376.112 177.732 376.112ZM184.875 376V364.128H186.875V376H184.875Z" fill="#3B4559"/>
<g filter="url(#filter4_d_4064_36904)">
<circle cx="52.5" cy="369.5" r="26.5" fill="white"/>
</g>
<path d="M43.3153 366.636L43.0708 367.345L43.3153 366.636ZM43.3153 371.364L43.0708 370.655L43.3153 371.364ZM62.6847 371.364L62.9292 370.655L62.6847 371.364ZM62.6847 366.636L62.4403 365.927L62.6847 366.636ZM47 360.25C44.3766 360.25 42.25 362.377 42.25 365H43.75C43.75 363.205 45.2051 361.75 47 361.75V360.25ZM59 360.25H47V361.75H59V360.25ZM63.75 365C63.75 362.377 61.6234 360.25 59 360.25V361.75C60.7949 361.75 62.25 363.205 62.25 365H63.75ZM63.75 366.223V365H62.25V366.223H63.75ZM61.75 369C61.75 368.234 62.242 367.582 62.9292 367.345L62.4403 365.927C61.1667 366.366 60.25 367.575 60.25 369H61.75ZM62.9292 370.655C62.242 370.418 61.75 369.766 61.75 369H60.25C60.25 370.425 61.1667 371.634 62.4403 372.073L62.9292 370.655ZM63.75 373V371.777H62.25V373H63.75ZM59 377.75C61.6234 377.75 63.75 375.623 63.75 373H62.25C62.25 374.795 60.7949 376.25 59 376.25V377.75ZM47 377.75H59V376.25H47V377.75ZM42.25 373C42.25 375.623 44.3766 377.75 47 377.75V376.25C45.2051 376.25 43.75 374.795 43.75 373H42.25ZM42.25 371.777V373H43.75V371.777H42.25ZM43.5597 372.073C44.8333 371.634 45.75 370.425 45.75 369H44.25C44.25 369.766 43.758 370.418 43.0708 370.655L43.5597 372.073ZM45.75 369C45.75 367.575 44.8333 366.366 43.5597 365.927L43.0708 367.345C43.758 367.582 44.25 368.234 44.25 369H45.75ZM42.25 365V366.223H43.75V365H42.25ZM43.5597 365.927C43.6265 365.95 43.75 366.038 43.75 366.223H42.25C42.25 366.789 42.6443 367.198 43.0708 367.345L43.5597 365.927ZM43.75 371.777C43.75 371.962 43.6265 372.05 43.5597 372.073L43.0708 370.655C42.6443 370.802 42.25 371.211 42.25 371.777H43.75ZM62.4403 372.073C62.3735 372.05 62.25 371.962 62.25 371.777H63.75C63.75 371.211 63.3557 370.802 62.9292 370.655L62.4403 372.073ZM62.25 366.223C62.25 366.038 62.3735 365.95 62.4403 365.927L62.9292 367.345C63.3557 367.198 63.75 366.789 63.75 366.223H62.25Z" fill="#285CED"/>
<path d="M54.9286 364L54.9286 361" stroke="#285CED" stroke-width="1.5" stroke-linecap="round" stroke-linejoin="round"/>
<path d="M54.9286 370.5L54.9286 367.5" stroke="#285CED" stroke-width="1.5" stroke-linecap="round" stroke-linejoin="round"/>
<path d="M54.9286 377L54.9286 374" stroke="#285CED" stroke-width="1.5" stroke-linecap="round" stroke-linejoin="round"/>
<path d="M102.775 377V365.48L104.035 366.74H100.255V364.4H105.691V377H102.775ZM113.28 377.216C112.248 377.216 111.324 376.964 110.508 376.46C109.692 375.944 109.05 375.2 108.582 374.228C108.114 373.256 107.88 372.08 107.88 370.7C107.88 369.32 108.114 368.144 108.582 367.172C109.05 366.2 109.692 365.462 110.508 364.958C111.324 364.442 112.248 364.184 113.28 364.184C114.324 364.184 115.248 364.442 116.052 364.958C116.868 365.462 117.51 366.2 117.978 367.172C118.446 368.144 118.68 369.32 118.68 370.7C118.68 372.08 118.446 373.256 117.978 374.228C117.51 375.2 116.868 375.944 116.052 376.46C115.248 376.964 114.324 377.216 113.28 377.216ZM113.28 374.75C113.772 374.75 114.198 374.612 114.558 374.336C114.93 374.06 115.218 373.622 115.422 373.022C115.638 372.422 115.746 371.648 115.746 370.7C115.746 369.752 115.638 368.978 115.422 368.378C115.218 367.778 114.93 367.34 114.558 367.064C114.198 366.788 113.772 366.65 113.28 366.65C112.8 366.65 112.374 366.788 112.002 367.064C111.642 367.34 111.354 367.778 111.138 368.378C110.934 368.978 110.832 369.752 110.832 370.7C110.832 371.648 110.934 372.422 111.138 373.022C111.354 373.622 111.642 374.06 112.002 374.336C112.374 374.612 112.8 374.75 113.28 374.75ZM124.007 377.216C123.131 377.216 122.261 377.102 121.397 376.874C120.533 376.634 119.801 376.298 119.201 375.866L120.335 373.634C120.815 373.982 121.373 374.258 122.009 374.462C122.645 374.666 123.287 374.768 123.935 374.768C124.667 374.768 125.243 374.624 125.663 374.336C126.083 374.048 126.293 373.652 126.293 373.148C126.293 372.668 126.107 372.29 125.735 372.014C125.363 371.738 124.763 371.6 123.935 371.6H122.603V369.674L126.113 365.696L126.437 366.74H119.831V364.4H128.651V366.29L125.159 370.268L123.683 369.422H124.529C126.077 369.422 127.247 369.77 128.039 370.466C128.831 371.162 129.227 372.056 129.227 373.148C129.227 373.856 129.041 374.522 128.669 375.146C128.297 375.758 127.727 376.256 126.959 376.64C126.191 377.024 125.207 377.216 124.007 377.216Z" fill="#3B4559"/>
<g opacity="0.5">
<rect x="297.899" y="357.912" width="2.12678" height="28.087" rx="0.941452" fill="#285CED"/>
<rect x="350.846" y="357.912" width="2.12678" height="28.087" rx="0.941452" fill="#285CED"/>
<rect x="281.016" y="357.912" width="2.12678" height="28.087" rx="0.941452" fill="#285CED"/>
<rect x="333.965" y="357.912" width="2.12678" height="28.087" rx="0.941452" fill="#285CED"/>
<rect x="386.911" y="357.912" width="2.12678" height="28.087" rx="0.941452" fill="#285CED"/>
<rect x="315.933" y="348" width="2.12678" height="38" rx="0.941452" fill="#285CED"/>
<rect x="368.88" y="348" width="2.12678" height="38" rx="0.941452" fill="#285CED"/>
<rect x="303.911" y="368.651" width="2.12678" height="17.3478" rx="0.941452" fill="#285CED"/>
<rect x="356.858" y="368.651" width="2.12678" height="17.3478" rx="0.941452" fill="#285CED"/>
<rect x="287.03" y="368.651" width="2.12678" height="17.3478" rx="0.941452" fill="#285CED"/>
<rect x="339.976" y="368.651" width="2.12678" height="17.3478" rx="0.941452" fill="#285CED"/>
<rect x="392.923" y="368.651" width="2.12678" height="17.3478" rx="0.941452" fill="#285CED"/>
<rect x="269" y="358.738" width="2.12678" height="27.2609" rx="0.941452" fill="#285CED"/>
<rect x="321.943" y="358.738" width="2.12678" height="27.2609" rx="0.941452" fill="#285CED"/>
<rect x="374.891" y="358.738" width="2.12678" height="27.2609" rx="0.941452" fill="#285CED"/>
<rect x="309.923" y="373.609" width="2.12678" height="12.3913" rx="0.941452" fill="#285CED"/>
<rect x="362.87" y="373.609" width="2.12678" height="12.3913" rx="0.941452" fill="#285CED"/>
<rect x="293.04" y="373.609" width="2.12678" height="12.3913" rx="0.941452" fill="#285CED"/>
<rect x="345.986" y="373.609" width="2.12678" height="12.3913" rx="0.941452" fill="#285CED"/>
<rect x="398.933" y="373.609" width="2.12678" height="12.3913" rx="0.941452" fill="#285CED"/>
<rect x="275.003" y="352.957" width="2.12678" height="33.0435" rx="0.941452" fill="#285CED"/>
<rect x="327.953" y="352.957" width="2.12678" height="33.0435" rx="0.941452" fill="#285CED"/>
<rect x="380.898" y="352.957" width="2.12678" height="33.0435" rx="0.941452" fill="#285CED"/>
</g>
<path d="M453 375L455.293 372.707C455.683 372.317 455.683 371.683 455.293 371.293L453 369M455 372L448 372M452 382C457.523 382 462 377.523 462 372C462 366.477 457.523 362 452 362C446.477 362 442 366.477 442 372C442 377.523 446.477 382 452 382Z" stroke="#3B4559" stroke-width="1.5" stroke-linecap="round"/>
<path d="M453 289L455.293 286.707C455.683 286.317 455.683 285.683 455.293 285.293L453 283M455 286L448 286M452 296C457.523 296 462 291.523 462 286C462 280.477 457.523 276 452 276C446.477 276 442 280.477 442 286C442 291.523 446.477 296 452 296Z" stroke="#3B4559" stroke-width="1.5" stroke-linecap="round"/>
<path d="M24.424 22.456H29.992V24.168H24.424V22.456ZM24.584 27.256H30.904V29H22.504V17.8H30.68V19.544H24.584V27.256ZM35.5926 29.112C34.878 29.112 34.19 29.0213 33.5286 28.84C32.878 28.648 32.3606 28.4187 31.9766 28.152L32.7446 26.632C33.1286 26.8773 33.5873 27.08 34.1206 27.24C34.654 27.4 35.1873 27.48 35.7206 27.48C36.35 27.48 36.8033 27.3947 37.0806 27.224C37.3686 27.0533 37.5126 26.824 37.5126 26.536C37.5126 26.3013 37.4166 26.1253 37.2246 26.008C37.0326 25.88 36.782 25.784 36.4726 25.72C36.1633 25.656 35.8166 25.5973 35.4326 25.544C35.0593 25.4907 34.6806 25.4213 34.2966 25.336C33.9233 25.24 33.582 25.1067 33.2726 24.936C32.9633 24.7547 32.7126 24.5147 32.5206 24.216C32.3286 23.9173 32.2326 23.5227 32.2326 23.032C32.2326 22.488 32.3873 22.0187 32.6966 21.624C33.006 21.2187 33.438 20.9093 33.9926 20.696C34.558 20.472 35.2246 20.36 35.9926 20.36C36.5686 20.36 37.15 20.424 37.7366 20.552C38.3233 20.68 38.8086 20.8613 39.1926 21.096L38.4246 22.616C38.0193 22.3707 37.6086 22.2053 37.1926 22.12C36.7873 22.024 36.382 21.976 35.9766 21.976C35.3686 21.976 34.9153 22.0667 34.6166 22.248C34.3286 22.4293 34.1846 22.6587 34.1846 22.936C34.1846 23.192 34.2806 23.384 34.4726 23.512C34.6646 23.64 34.9153 23.7413 35.2246 23.816C35.534 23.8907 35.8753 23.9547 36.2486 24.008C36.6326 24.0507 37.0113 24.12 37.3846 24.216C37.758 24.312 38.0993 24.4453 38.4086 24.616C38.7286 24.776 38.9846 25.0053 39.1766 25.304C39.3686 25.6027 39.4646 25.992 39.4646 26.472C39.4646 27.0053 39.3046 27.4693 38.9846 27.864C38.6753 28.2587 38.2326 28.568 37.6566 28.792C37.0806 29.0053 36.3926 29.112 35.5926 29.112ZM44.403 29.112C43.4643 29.112 42.739 28.872 42.227 28.392C41.715 27.9013 41.459 27.1813 41.459 26.232V18.568H43.459V26.184C43.459 26.5893 43.5603 26.904 43.763 27.128C43.9763 27.352 44.2697 27.464 44.643 27.464C45.091 27.464 45.4643 27.3467 45.763 27.112L46.323 28.536C46.0883 28.728 45.8003 28.872 45.459 28.968C45.1177 29.064 44.7657 29.112 44.403 29.112ZM40.051 22.12V20.52H45.747V22.12H40.051ZM53.2323 29V27.272L53.1203 26.904V23.88C53.1203 23.2933 52.9443 22.84 52.5923 22.52C52.2403 22.1893 51.7069 22.024 50.9923 22.024C50.5123 22.024 50.0376 22.0987 49.5683 22.248C49.1096 22.3973 48.7203 22.6053 48.4003 22.872L47.6163 21.416C48.0749 21.064 48.6189 20.8027 49.2483 20.632C49.8883 20.4507 50.5496 20.36 51.2323 20.36C52.4696 20.36 53.4243 20.6587 54.0963 21.256C54.7789 21.8427 55.1203 22.7547 55.1203 23.992V29H53.2323ZM50.5443 29.112C49.9043 29.112 49.3443 29.0053 48.8643 28.792C48.3843 28.568 48.0109 28.264 47.7443 27.88C47.4883 27.4853 47.3603 27.0427 47.3603 26.552C47.3603 26.072 47.4723 25.64 47.6963 25.256C47.9309 24.872 48.3096 24.568 48.8323 24.344C49.3549 24.12 50.0483 24.008 50.9123 24.008H53.3923V25.336H51.0563C50.3736 25.336 49.9149 25.448 49.6803 25.672C49.4456 25.8853 49.3283 26.152 49.3283 26.472C49.3283 26.8347 49.4723 27.1227 49.7603 27.336C50.0483 27.5493 50.4483 27.656 50.9603 27.656C51.4509 27.656 51.8883 27.544 52.2723 27.32C52.6669 27.096 52.9496 26.7653 53.1203 26.328L53.4563 27.528C53.2643 28.0293 52.9176 28.4187 52.4163 28.696C51.9256 28.9733 51.3016 29.112 50.5443 29.112ZM60.903 29.112C59.9643 29.112 59.239 28.872 58.727 28.392C58.215 27.9013 57.959 27.1813 57.959 26.232V18.568H59.959V26.184C59.959 26.5893 60.0603 26.904 60.263 27.128C60.4763 27.352 60.7697 27.464 61.143 27.464C61.591 27.464 61.9643 27.3467 62.263 27.112L62.823 28.536C62.5883 28.728 62.3003 28.872 61.959 28.968C61.6177 29.064 61.2657 29.112 60.903 29.112ZM56.551 22.12V20.52H62.247V22.12H56.551ZM68.0843 29.112C67.3589 29.112 66.7189 28.9787 66.1643 28.712C65.6096 28.4347 65.1776 28.0187 64.8683 27.464C64.5589 26.8987 64.4043 26.1893 64.4043 25.336V20.456H66.4043V25.064C66.4043 25.832 66.5749 26.408 66.9163 26.792C67.2683 27.1653 67.7643 27.352 68.4043 27.352C68.8736 27.352 69.2789 27.256 69.6203 27.064C69.9723 26.872 70.2443 26.584 70.4363 26.2C70.6389 25.816 70.7403 25.3413 70.7403 24.776V20.456H72.7403V29H70.8363V26.696L71.1723 27.4C70.8843 27.9547 70.4629 28.3813 69.9083 28.68C69.3536 28.968 68.7456 29.112 68.0843 29.112ZM77.9989 29.112C77.2842 29.112 76.5962 29.0213 75.9349 28.84C75.2842 28.648 74.7669 28.4187 74.3829 28.152L75.1509 26.632C75.5349 26.8773 75.9935 27.08 76.5269 27.24C77.0602 27.4 77.5935 27.48 78.1269 27.48C78.7562 27.48 79.2095 27.3947 79.4869 27.224C79.7749 27.0533 79.9189 26.824 79.9189 26.536C79.9189 26.3013 79.8229 26.1253 79.6309 26.008C79.4389 25.88 79.1882 25.784 78.8789 25.72C78.5695 25.656 78.2229 25.5973 77.8389 25.544C77.4655 25.4907 77.0869 25.4213 76.7029 25.336C76.3295 25.24 75.9882 25.1067 75.6789 24.936C75.3695 24.7547 75.1189 24.5147 74.9269 24.216C74.7349 23.9173 74.6389 23.5227 74.6389 23.032C74.6389 22.488 74.7935 22.0187 75.1029 21.624C75.4122 21.2187 75.8442 20.9093 76.3989 20.696C76.9642 20.472 77.6309 20.36 78.3989 20.36C78.9749 20.36 79.5562 20.424 80.1429 20.552C80.7295 20.68 81.2149 20.8613 81.5989 21.096L80.8309 22.616C80.4255 22.3707 80.0149 22.2053 79.5989 22.12C79.1935 22.024 78.7882 21.976 78.3829 21.976C77.7749 21.976 77.3215 22.0667 77.0229 22.248C76.7349 22.4293 76.5909 22.6587 76.5909 22.936C76.5909 23.192 76.6869 23.384 76.8789 23.512C77.0709 23.64 77.3215 23.7413 77.6309 23.816C77.9402 23.8907 78.2815 23.9547 78.6549 24.008C79.0389 24.0507 79.4175 24.12 79.7909 24.216C80.1642 24.312 80.5055 24.4453 80.8149 24.616C81.1349 24.776 81.3909 25.0053 81.5829 25.304C81.7749 25.6027 81.8709 25.992 81.8709 26.472C81.8709 27.0053 81.7109 27.4693 81.3909 27.864C81.0815 28.2587 80.6389 28.568 80.0629 28.792C79.4869 29.0053 78.7989 29.112 77.9989 29.112ZM91.8871 32.216C91.0978 32.216 90.3245 32.1093 89.5671 31.896C88.8205 31.6933 88.2071 31.3947 87.7271 31L88.6231 29.496C88.9965 29.8053 89.4658 30.0507 90.0311 30.232C90.6071 30.424 91.1885 30.52 91.7751 30.52C92.7138 30.52 93.4018 30.3013 93.8391 29.864C94.2765 29.4373 94.4951 28.792 94.4951 27.928V26.408L94.6551 24.472L94.5911 22.536V20.456H96.4951V27.704C96.4951 29.2507 96.1005 30.3867 95.3111 31.112C94.5218 31.848 93.3805 32.216 91.8871 32.216ZM91.6311 28.616C90.8205 28.616 90.0845 28.4453 89.4231 28.104C88.7725 27.752 88.2551 27.2667 87.8711 26.648C87.4978 26.0293 87.3111 25.304 87.3111 24.472C87.3111 23.6507 87.4978 22.9307 87.8711 22.312C88.2551 21.6933 88.7725 21.2133 89.4231 20.872C90.0845 20.5307 90.8205 20.36 91.6311 20.36C92.3565 20.36 93.0071 20.504 93.5831 20.792C94.1591 21.08 94.6178 21.528 94.9591 22.136C95.3111 22.744 95.4871 23.5227 95.4871 24.472C95.4871 25.4213 95.3111 26.2053 94.9591 26.824C94.6178 27.432 94.1591 27.8853 93.5831 28.184C93.0071 28.472 92.3565 28.616 91.6311 28.616ZM91.9351 26.92C92.4365 26.92 92.8845 26.8187 93.2791 26.616C93.6738 26.4027 93.9778 26.1147 94.1911 25.752C94.4151 25.3787 94.5271 24.952 94.5271 24.472C94.5271 23.992 94.4151 23.5707 94.1911 23.208C93.9778 22.8347 93.6738 22.552 93.2791 22.36C92.8845 22.1573 92.4365 22.056 91.9351 22.056C91.4338 22.056 90.9805 22.1573 90.5751 22.36C90.1805 22.552 89.8711 22.8347 89.6471 23.208C89.4338 23.5707 89.3271 23.992 89.3271 24.472C89.3271 24.952 89.4338 25.3787 89.6471 25.752C89.8711 26.1147 90.1805 26.4027 90.5751 26.616C90.9805 26.8187 91.4338 26.92 91.9351 26.92ZM99.1245 29V17.128H101.125V29H99.1245ZM107.59 29.112C106.715 29.112 105.936 28.9253 105.254 28.552C104.571 28.168 104.032 27.6453 103.638 26.984C103.243 26.3227 103.046 25.5707 103.046 24.728C103.046 23.8747 103.243 23.1227 103.638 22.472C104.032 21.8107 104.571 21.2933 105.254 20.92C105.936 20.5467 106.715 20.36 107.59 20.36C108.475 20.36 109.259 20.5467 109.942 20.92C110.635 21.2933 111.174 21.8053 111.558 22.456C111.952 23.1067 112.15 23.864 112.15 24.728C112.15 25.5707 111.952 26.3227 111.558 26.984C111.174 27.6453 110.635 28.168 109.942 28.552C109.259 28.9253 108.475 29.112 107.59 29.112ZM107.59 27.4C108.08 27.4 108.518 27.2933 108.902 27.08C109.286 26.8667 109.584 26.5573 109.798 26.152C110.022 25.7467 110.134 25.272 110.134 24.728C110.134 24.1733 110.022 23.6987 109.798 23.304C109.584 22.8987 109.286 22.5893 108.902 22.376C108.518 22.1627 108.086 22.056 107.606 22.056C107.115 22.056 106.678 22.1627 106.294 22.376C105.92 22.5893 105.622 22.8987 105.398 23.304C105.174 23.6987 105.062 24.1733 105.062 24.728C105.062 25.272 105.174 25.7467 105.398 26.152C105.622 26.5573 105.92 26.8667 106.294 27.08C106.678 27.2933 107.11 27.4 107.59 27.4ZM118.798 29.112C118.073 29.112 117.427 28.952 116.862 28.632C116.297 28.312 115.849 27.832 115.518 27.192C115.198 26.5413 115.038 25.72 115.038 24.728C115.038 23.7253 115.203 22.904 115.534 22.264C115.875 21.624 116.329 21.1493 116.894 20.84C117.47 20.52 118.105 20.36 118.798 20.36C119.641 20.36 120.382 20.5413 121.022 20.904C121.673 21.2667 122.185 21.7733 122.558 22.424C122.942 23.0747 123.134 23.8427 123.134 24.728C123.134 25.6133 122.942 26.3813 122.558 27.032C122.185 27.6827 121.673 28.1947 121.022 28.568C120.382 28.9307 119.641 29.112 118.798 29.112ZM114.062 29V17.128H116.062V22.44L115.902 24.712L115.966 26.984V29H114.062ZM118.574 27.4C119.054 27.4 119.481 27.2933 119.854 27.08C120.238 26.8667 120.542 26.5573 120.766 26.152C120.99 25.7467 121.102 25.272 121.102 24.728C121.102 24.1733 120.99 23.6987 120.766 23.304C120.542 22.8987 120.238 22.5893 119.854 22.376C119.481 22.1627 119.054 22.056 118.574 22.056C118.094 22.056 117.662 22.1627 117.278 22.376C116.894 22.5893 116.59 22.8987 116.366 23.304C116.142 23.6987 116.03 24.1733 116.03 24.728C116.03 25.272 116.142 25.7467 116.366 26.152C116.59 26.5573 116.894 26.8667 117.278 27.08C117.662 27.2933 118.094 27.4 118.574 27.4ZM130.185 29V27.272L130.073 26.904V23.88C130.073 23.2933 129.897 22.84 129.545 22.52C129.193 22.1893 128.66 22.024 127.945 22.024C127.465 22.024 126.991 22.0987 126.521 22.248C126.063 22.3973 125.673 22.6053 125.353 22.872L124.569 21.416C125.028 21.064 125.572 20.8027 126.201 20.632C126.841 20.4507 127.503 20.36 128.185 20.36C129.423 20.36 130.377 20.6587 131.049 21.256C131.732 21.8427 132.073 22.7547 132.073 23.992V29H130.185ZM127.497 29.112C126.857 29.112 126.297 29.0053 125.817 28.792C125.337 28.568 124.964 28.264 124.697 27.88C124.441 27.4853 124.313 27.0427 124.313 26.552C124.313 26.072 124.425 25.64 124.649 25.256C124.884 24.872 125.263 24.568 125.785 24.344C126.308 24.12 127.001 24.008 127.865 24.008H130.345V25.336H128.009C127.327 25.336 126.868 25.448 126.633 25.672C126.399 25.8853 126.281 26.152 126.281 26.472C126.281 26.8347 126.425 27.1227 126.713 27.336C127.001 27.5493 127.401 27.656 127.913 27.656C128.404 27.656 128.841 27.544 129.225 27.32C129.62 27.096 129.903 26.7653 130.073 26.328L130.409 27.528C130.217 28.0293 129.871 28.4187 129.369 28.696C128.879 28.9733 128.255 29.112 127.497 29.112ZM134.64 29V17.128H136.64V29H134.64Z" fill="#0B112A"/>
<defs>
<filter id="filter0_d_4064_36904" x="0" y="0" width="489" height="468" filterUnits="userSpaceOnUse" color-interpolation-filters="sRGB">
<feFlood flood-opacity="0" result="BackgroundImageFix"/>
<feColorMatrix in="SourceAlpha" type="matrix" values="0 0 0 0 0 0 0 0 0 0 0 0 0 0 0 0 0 0 127 0" result="hardAlpha"/>
<feOffset dy="4"/>
<feGaussianBlur stdDeviation="2"/>
<feComposite in2="hardAlpha" operator="out"/>
<feColorMatrix type="matrix" values="0 0 0 0 0 0 0 0 0 0 0 0 0 0 0 0 0 0 0.25 0"/>
<feBlend mode="normal" in2="BackgroundImageFix" result="effect1_dropShadow_4064_36904"/>
<feBlend mode="normal" in="SourceGraphic" in2="effect1_dropShadow_4064_36904" result="shape"/>
</filter>
<filter id="filter1_d_4064_36904" x="22" y="258" width="61" height="61" filterUnits="userSpaceOnUse" color-interpolation-filters="sRGB">
<feFlood flood-opacity="0" result="BackgroundImageFix"/>
<feColorMatrix in="SourceAlpha" type="matrix" values="0 0 0 0 0 0 0 0 0 0 0 0 0 0 0 0 0 0 127 0" result="hardAlpha"/>
<feOffset dy="4"/>
<feGaussianBlur stdDeviation="2"/>
<feComposite in2="hardAlpha" operator="out"/>
<feColorMatrix type="matrix" values="0 0 0 0 0 0 0 0 0 0 0 0 0 0 0 0 0 0 0.25 0"/>
<feBlend mode="normal" in2="BackgroundImageFix" result="effect1_dropShadow_4064_36904"/>
<feBlend mode="normal" in="SourceGraphic" in2="effect1_dropShadow_4064_36904" result="shape"/>
</filter>
<filter id="filter2_d_4064_36904" x="22" y="81" width="61" height="61" filterUnits="userSpaceOnUse" color-interpolation-filters="sRGB">
<feFlood flood-opacity="0" result="BackgroundImageFix"/>
<feColorMatrix in="SourceAlpha" type="matrix" values="0 0 0 0 0 0 0 0 0 0 0 0 0 0 0 0 0 0 127 0" result="hardAlpha"/>
<feOffset dy="4"/>
<feGaussianBlur stdDeviation="2"/>
<feComposite in2="hardAlpha" operator="out"/>
<feColorMatrix type="matrix" values="0 0 0 0 0 0 0 0 0 0 0 0 0 0 0 0 0 0 0.25 0"/>
<feBlend mode="normal" in2="BackgroundImageFix" result="effect1_dropShadow_4064_36904"/>
<feBlend mode="normal" in="SourceGraphic" in2="effect1_dropShadow_4064_36904" result="shape"/>
</filter>
<filter id="filter3_d_4064_36904" x="22" y="167" width="61" height="61" filterUnits="userSpaceOnUse" color-interpolation-filters="sRGB">
<feFlood flood-opacity="0" result="BackgroundImageFix"/>
<feColorMatrix in="SourceAlpha" type="matrix" values="0 0 0 0 0 0 0 0 0 0 0 0 0 0 0 0 0 0 127 0" result="hardAlpha"/>
<feOffset dy="4"/>
<feGaussianBlur stdDeviation="2"/>
<feComposite in2="hardAlpha" operator="out"/>
<feColorMatrix type="matrix" values="0 0 0 0 0 0 0 0 0 0 0 0 0 0 0 0 0 0 0.25 0"/>
<feBlend mode="normal" in2="BackgroundImageFix" result="effect1_dropShadow_4064_36904"/>
<feBlend mode="normal" in="SourceGraphic" in2="effect1_dropShadow_4064_36904" result="shape"/>
</filter>
<filter id="filter4_d_4064_36904" x="22" y="343" width="61" height="61" filterUnits="userSpaceOnUse" color-interpolation-filters="sRGB">
<feFlood flood-opacity="0" result="BackgroundImageFix"/>
<feColorMatrix in="SourceAlpha" type="matrix" values="0 0 0 0 0 0 0 0 0 0 0 0 0 0 0 0 0 0 127 0" result="hardAlpha"/>
<feOffset dy="4"/>
<feGaussianBlur stdDeviation="2"/>
<feComposite in2="hardAlpha" operator="out"/>
<feColorMatrix type="matrix" values="0 0 0 0 0 0 0 0 0 0 0 0 0 0 0 0 0 0 0.25 0"/>
<feBlend mode="normal" in2="BackgroundImageFix" result="effect1_dropShadow_4064_36904"/>
<feBlend mode="normal" in="SourceGraphic" in2="effect1_dropShadow_4064_36904" result="shape"/>
</filter>
</defs>
</svg>
