<svg width="24" height="23" viewBox="0 0 24 23" fill="none" xmlns="http://www.w3.org/2000/svg">
<path d="M20.5045 13.4076C21.2725 13.0523 21.9189 12.479 22.3635 11.7591C22.808 11.0391 23.0309 10.2043 23.0045 9.35859C22.9952 8.72537 22.8582 8.10053 22.6019 7.52144C22.3455 6.94234 21.9751 6.42087 21.5126 5.9882C21.0502 5.55553 20.5052 5.22054 19.9104 5.00326C19.3155 4.78598 18.683 4.69086 18.0505 4.7236C17.4921 3.59945 16.6294 2.65457 15.5606 1.99641C14.4918 1.33826 13.2597 0.993237 12.0045 1.0006C10.3234 0.978041 8.69691 1.59744 7.45663 2.73255C6.21635 3.86766 5.45563 5.43303 5.32953 7.1096C4.81506 6.99648 4.2819 6.99892 3.76849 7.11672C3.25507 7.23452 2.77418 7.46476 2.36049 7.79084C1.94679 8.11692 1.61059 8.53072 1.37611 9.00241C1.14163 9.4741 1.01472 9.99194 1.00453 10.5186C0.964264 11.2733 1.19359 12.0177 1.65154 12.6189C2.1095 13.2201 2.76626 13.6389 3.50453 13.8006" stroke="#7B8AA0" stroke-linecap="round" stroke-linejoin="round"/>
<path d="M6.00452 16.0016C6.00452 17.5929 6.63666 19.119 7.76188 20.2442C8.88709 21.3694 10.4132 22.0016 12.0045 22.0016C13.5958 22.0016 15.1219 21.3694 16.2472 20.2442C17.3724 19.119 18.0045 17.5929 18.0045 16.0016C18.0045 14.4103 17.3724 12.8842 16.2472 11.7589C15.1219 10.6337 13.5958 10.0016 12.0045 10.0016C10.4132 10.0016 8.88709 10.6337 7.76188 11.7589C6.63666 12.8842 6.00452 14.4103 6.00452 16.0016V16.0016Z" stroke="#7B8AA0" stroke-linecap="round" stroke-linejoin="round"/>
<path d="M14.6785 14.2576L11.7785 18.1316C11.714 18.2175 11.6318 18.2885 11.5375 18.3399C11.4431 18.3912 11.3389 18.4217 11.2317 18.4293C11.1246 18.4369 11.0171 18.4214 10.9165 18.3838C10.8158 18.3463 10.7245 18.2875 10.6485 18.2116L9.1485 16.7116" stroke="#7B8AA0" stroke-linecap="round" stroke-linejoin="round"/>
</svg>
