<svg width="24" height="24" viewBox="0 0 24 24" fill="none" xmlns="http://www.w3.org/2000/svg">
<path d="M2 18.143C2 18.6481 2.20068 19.1326 2.55789 19.4898C2.9151 19.8471 3.39959 20.0477 3.90476 20.0477H4.85714C5.10973 20.0477 5.35197 19.9474 5.53058 19.7688C5.70918 19.5902 5.80952 19.3479 5.80952 19.0954V11.4763C5.80952 11.2237 5.70918 10.9815 5.53058 10.8029C5.35197 10.6243 5.10973 10.5239 4.85714 10.5239H3.90476C3.39959 10.5239 2.9151 10.7246 2.55789 11.0818C2.20068 11.439 2 11.9235 2 12.4287V18.143Z" stroke="#7B8AA0" stroke-linecap="round" stroke-linejoin="round"/>
<path d="M3.9043 10.5238V9.09524C3.9043 6.94825 4.75719 4.88919 6.27534 3.37104C7.79349 1.85289 9.85254 1 11.9995 1C14.1465 1 16.2056 1.85289 17.7237 3.37104C19.2419 4.88919 20.0948 6.94825 20.0948 9.09524V10.5238" stroke="#7B8AA0" stroke-linecap="round" stroke-linejoin="round"/>
<path d="M13.4284 21.9524C13.4284 22.205 13.3281 22.4472 13.1495 22.6258C12.9709 22.8044 12.7286 22.9048 12.4761 22.9048H11.5237C11.2711 22.9048 11.0288 22.8044 10.8502 22.6258C10.6716 22.4472 10.5713 22.205 10.5713 21.9524C10.5713 21.6998 10.6716 21.4576 10.8502 21.2789C11.0288 21.1003 11.2711 21 11.5237 21H12.4761C12.7286 21 12.9709 21.1003 13.1495 21.2789C13.3281 21.4576 13.4284 21.6998 13.4284 21.9524Z" stroke="#7B8AA0" stroke-linecap="round" stroke-linejoin="round"/>
<path d="M13.4287 21.9525H15.8097C16.4411 21.9525 17.0467 21.7016 17.4933 21.2551C17.9398 20.8086 18.1906 20.203 18.1906 19.5715" stroke="#7B8AA0" stroke-linecap="round" stroke-linejoin="round"/>
<path d="M5.43652 10.72L6.95271 11.8571C7.18928 12.0345 7.38128 12.2646 7.51353 12.5291C7.64577 12.7936 7.71462 13.0852 7.71462 13.3809V17.1904C7.71462 17.4862 7.64577 17.7778 7.51353 18.0423C7.38128 18.3068 7.18928 18.5368 6.95271 18.7143L5.43652 19.8514" stroke="#7B8AA0" stroke-linecap="round" stroke-linejoin="round"/>
<path d="M22 18.143C22 18.6481 21.7993 19.1326 21.4421 19.4898C21.0848 19.8471 20.6004 20.0477 20.0952 20.0477H19.1428C18.8902 20.0477 18.648 19.9474 18.4694 19.7688C18.2908 19.5902 18.1904 19.3479 18.1904 19.0954V11.4763C18.1904 11.2237 18.2908 10.9815 18.4694 10.8029C18.648 10.6243 18.8902 10.5239 19.1428 10.5239H20.0952C20.6004 10.5239 21.0848 10.7246 21.4421 11.0818C21.7993 11.439 22 11.9235 22 12.4287V18.143Z" stroke="#7B8AA0" stroke-linecap="round" stroke-linejoin="round"/>
<path d="M18.5642 10.72L17.048 11.8571C16.8115 12.0345 16.6195 12.2646 16.4872 12.5291C16.355 12.7936 16.2861 13.0852 16.2861 13.3809V17.1904C16.2861 17.4862 16.355 17.7778 16.4872 18.0423C16.6195 18.3068 16.8115 18.5368 17.048 18.7143L18.5642 19.8514" stroke="#7B8AA0" stroke-linecap="round" stroke-linejoin="round"/>
</svg>
