<svg width="19" height="20" viewBox="0 0 19 20" fill="none" xmlns="http://www.w3.org/2000/svg">
<path d="M8.8244 4.29004H9.90478C10.0036 4.29004 10.0845 4.3709 10.0845 4.46973V10.6532C10.0845 10.7116 10.0575 10.7655 10.0103 10.7992L6.29755 13.5103C6.21669 13.5687 6.10439 13.5529 6.04599 13.4721L5.4036 12.5961C5.34296 12.513 5.36093 12.4007 5.44179 12.3445L8.64472 10.0288V4.46973C8.64472 4.3709 8.72558 4.29004 8.8244 4.29004ZM3.88749 5.9791L0.365616 6.83936C0.253311 6.86631 0.143253 6.78096 0.143253 6.66641L0.125282 3.03897C0.125282 2.88848 0.298233 2.80313 0.41503 2.89746L3.95487 5.6624C3.98163 5.6831 4.002 5.71093 4.01364 5.74268C4.02528 5.77444 4.02772 5.80884 4.02068 5.84192C4.01364 5.87501 3.99741 5.90543 3.97385 5.9297C3.95028 5.95397 3.92035 5.97109 3.88749 5.9791ZM0.120792 12.7421L1.39433 12.3041C1.43873 12.2889 1.48733 12.2916 1.52972 12.3118C1.57211 12.3319 1.60494 12.3679 1.62118 12.4119C1.66386 12.5265 1.70878 12.6388 1.75595 12.7511C2.15575 13.6967 2.72851 14.548 3.46073 15.2779C4.18483 16.0043 5.04297 16.5832 5.98759 16.9827C6.96615 17.3964 8.01803 17.6088 9.08046 17.6071C10.1541 17.6071 11.194 17.3982 12.1733 16.9827C13.1179 16.5832 13.9761 16.0043 14.7002 15.2779C15.4302 14.548 16.0029 13.6967 16.405 12.7511C16.8164 11.772 17.0272 10.7203 17.0249 9.65821C17.0249 8.58457 16.816 7.54239 16.4005 6.56309C16.0007 5.61748 15.4279 4.76621 14.6957 4.03623C13.9716 3.30989 13.1135 2.73093 12.1688 2.33145C11.194 1.91592 10.1518 1.70703 9.07821 1.70703C8.00458 1.70703 6.96464 1.91592 5.98534 2.33145C5.04072 2.73093 4.18258 3.30989 3.45849 4.03623C3.22939 4.26758 3.01376 4.50791 2.8161 4.76172L1.47294 3.71055C3.24061 1.45098 5.99208 -0.00224349 9.08271 2.59994e-06C14.4643 0.00224869 18.7858 4.37315 18.7319 9.75703C18.678 15.0466 14.3767 19.3164 9.07821 19.3164C4.91171 19.3164 1.36288 16.675 0.0107327 12.9757C-0.0229588 12.8813 0.0264568 12.7758 0.120792 12.7421Z" fill="#3B4559"/>
</svg>
