<svg width="25" height="25" viewBox="0 0 25 25" fill="none" xmlns="http://www.w3.org/2000/svg">
<path d="M23 3H2C1.44772 3 1 3.44772 1 4V23C1 23.5523 1.44772 24 2 24H23C23.5523 24 24 23.5523 24 23V4C24 3.44772 23.5523 3 23 3Z" stroke="#7B8AA0" stroke-linecap="round" stroke-linejoin="round"/>
<path d="M6 1V6" stroke="#7B8AA0" stroke-linecap="round" stroke-linejoin="round"/>
<path d="M19 1V6" stroke="#7B8AA0" stroke-linecap="round" stroke-linejoin="round"/>
<path d="M1 8H24" stroke="#7B8AA0" stroke-linecap="round" stroke-linejoin="round"/>
<path d="M12 19C14.2091 19 16 17.2091 16 15C16 12.7909 14.2091 11 12 11C9.79086 11 8 12.7909 8 15C8 17.2091 9.79086 19 12 19Z" stroke="#7B8AA0" stroke-linecap="round" stroke-linejoin="round"/>
<path d="M14.828 17.8281L18 21.0001" stroke="#7B8AA0" stroke-linecap="round" stroke-linejoin="round"/>
</svg>
