<svg width="106" height="106" viewBox="0 0 106 106" fill="none" xmlns="http://www.w3.org/2000/svg">
<path fill-rule="evenodd" clip-rule="evenodd" d="M0 94.8239C0 100.997 5.02493 106 11.1761 106H94.8239C100.997 106 106 100.975 106 94.8239V11.1761C106 5.00327 100.975 0 94.8239 0H11.1761C5.00327 0 0 5.02493 0 11.1761V94.8239ZM94.8241 100.693H11.1764C7.94915 100.693 5.30673 98.0511 5.30673 94.8239V80.8537L25.4064 60.754L42.5822 77.9297C43.6218 78.9693 45.2896 78.9693 46.3292 77.9297L77.3451 46.9138L100.694 70.2624V94.8239C100.694 98.0511 98.0513 100.693 94.8241 100.693ZM94.8241 5.30653H11.1764C7.94915 5.30653 5.30673 7.94895 5.30673 11.1762V73.338L23.5221 55.1226C24.5617 54.083 26.2295 54.083 27.2691 55.1226L44.4449 72.2984L75.4608 41.2824C76.5004 40.2428 78.1682 40.2428 79.2078 41.2824L100.694 62.7467V11.1762C100.694 7.94895 98.0513 5.30653 94.8241 5.30653Z" fill="#8D98AC"/>
</svg>
