<svg width="26" height="26" viewBox="0 0 26 26" fill="none" xmlns="http://www.w3.org/2000/svg">
<path d="M20.0905 24.9997H5.90871L4.06508 17.6252C4.02572 17.4634 4.02394 17.2947 4.05987 17.1321C4.09579 16.9694 4.16848 16.8172 4.27235 16.687C4.37394 16.5585 4.50319 16.4544 4.6505 16.3827C4.79781 16.3109 4.9594 16.2732 5.12326 16.2725H20.876C21.0417 16.2716 21.2054 16.3085 21.3547 16.3803C21.5041 16.4521 21.6351 16.557 21.7378 16.687C21.8398 16.8181 21.9105 16.9708 21.9445 17.1334C21.9786 17.296 21.975 17.4642 21.9342 17.6252L20.0905 24.9997Z" stroke="#3B4559" stroke-linecap="round" stroke-linejoin="round"/>
<path d="M1 25H25" stroke="#3B4559" stroke-linecap="round" stroke-linejoin="round"/>
<path d="M13 13V14.6364" stroke="#3B4559" stroke-linecap="round" stroke-linejoin="round"/>
<path d="M9.72754 2.8877C10.3178 3.49779 11.0247 3.98309 11.8061 4.31478C12.5876 4.64648 13.4277 4.81781 14.2766 4.8186C15.1411 4.80686 15.9944 4.62136 16.7857 4.27315" stroke="#3B4559" stroke-linecap="round" stroke-linejoin="round"/>
<path d="M13.0001 8.63636C15.1088 8.63636 16.8182 6.92691 16.8182 4.81818C16.8182 2.70946 15.1088 1 13.0001 1C10.8913 1 9.18188 2.70946 9.18188 4.81818C9.18188 6.92691 10.8913 8.63636 13.0001 8.63636Z" stroke="#3B4559" stroke-linecap="round" stroke-linejoin="round"/>
<path d="M13.0004 21.7273C13.7535 21.7273 14.364 21.1168 14.364 20.3636C14.364 19.6105 13.7535 19 13.0004 19C12.2472 19 11.6367 19.6105 11.6367 20.3636C11.6367 21.1168 12.2472 21.7273 13.0004 21.7273Z" stroke="#3B4559" stroke-linecap="round" stroke-linejoin="round"/>
<path d="M18.182 14.0912C17.8233 12.9999 17.1292 12.0497 16.1988 11.3761C15.2683 10.7025 14.1489 10.3398 13.0002 10.3398C11.8515 10.3398 10.7321 10.7025 9.80158 11.3761C8.87111 12.0497 8.17705 12.9999 7.81836 14.0912" stroke="#3B4559" stroke-linecap="round" stroke-linejoin="round"/>
</svg>
