<svg width="15" height="15" viewBox="0 0 15 15" fill="none" xmlns="http://www.w3.org/2000/svg">
<g clip-path="url(#clip0_3189_35853)">
<path d="M10.625 3.4375C10.625 5.16312 7.5 7.90187 7.5 7.90187C7.5 7.90187 4.375 5.16312 4.375 3.4375C4.375 2.6087 4.70424 1.81384 5.29029 1.22779C5.87634 0.64174 6.6712 0.3125 7.5 0.3125C8.3288 0.3125 9.12366 0.64174 9.70971 1.22779C10.2958 1.81384 10.625 2.6087 10.625 3.4375V3.4375Z" stroke="#3B4559" stroke-linecap="round" stroke-linejoin="round"/>
<path d="M11.875 2.8125H12.8125C12.9783 2.8125 13.1372 2.87835 13.2544 2.99556C13.3717 3.11277 13.4375 3.27174 13.4375 3.4375V14.0625C13.4375 14.2283 13.3717 14.3872 13.2544 14.5044C13.1372 14.6217 12.9783 14.6875 12.8125 14.6875H2.1875C2.02174 14.6875 1.86277 14.6217 1.74556 14.5044C1.62835 14.3872 1.5625 14.2283 1.5625 14.0625V3.4375C1.5625 3.27174 1.62835 3.11277 1.74556 2.99556C1.86277 2.87835 2.02174 2.8125 2.1875 2.8125H3.125" stroke="#3B4559" stroke-linecap="round" stroke-linejoin="round"/>
</g>
<defs>
<clipPath id="clip0_3189_35853">
<rect width="15" height="15" fill="white"/>
</clipPath>
</defs>
</svg>
