<svg width="26" height="26" viewBox="0 0 26 26" fill="none" xmlns="http://www.w3.org/2000/svg">
<path d="M10.5723 11.9561V13.1623" stroke="#3B4559" stroke-linecap="round" stroke-linejoin="round"/>
<path d="M12.4116 10.201C11.1166 9.71538 9.6814 9.76116 8.42013 10.3283C7.15887 10.8954 6.17422 11.9377 5.68164 13.227" stroke="#3B4559" stroke-linecap="round" stroke-linejoin="round"/>
<path d="M11.793 4.65219C12.6152 4.65302 13.4289 4.48723 14.1849 4.16489C14.0876 3.41263 13.7564 2.70968 13.2378 2.15481C12.7193 1.59995 12.0394 1.22105 11.2938 1.07137C10.5482 0.92169 9.77433 1.00874 9.08089 1.3203C8.38745 1.63185 7.80932 2.15225 7.42773 2.80837C7.99424 3.39187 8.67262 3.85578 9.42254 4.17254C10.1725 4.48929 10.9786 4.65241 11.793 4.65219V4.65219Z" stroke="#3B4559" stroke-linejoin="round"/>
<path d="M10.5723 8.30431C12.5948 8.30431 14.2344 6.66919 14.2344 4.65216C14.2344 2.63513 12.5948 1 10.5723 1C8.54975 1 6.91016 2.63513 6.91016 4.65216C6.91016 6.66919 8.54975 8.30431 10.5723 8.30431Z" stroke="#3B4559" stroke-linejoin="round"/>
<path d="M19.8766 18.2811C22.0985 18.2811 23.8997 16.4848 23.8997 14.269C23.8997 12.0531 22.0985 10.2568 19.8766 10.2568C17.6547 10.2568 15.8535 12.0531 15.8535 14.269C15.8535 16.4848 17.6547 18.2811 19.8766 18.2811Z" stroke="#3B4559" stroke-linecap="round" stroke-linejoin="round"/>
<path d="M14.7574 24.8478C14.7477 24.171 14.873 23.4989 15.126 22.8708C15.379 22.2427 15.7547 21.671 16.2312 21.1889C16.7077 20.7069 17.2755 20.3241 17.9017 20.0628C18.5278 19.8015 19.1998 19.667 19.8786 19.667C20.5573 19.667 21.2293 19.8015 21.8555 20.0628C22.4817 20.3241 23.0495 20.7069 23.526 21.1889C24.0025 21.671 24.3782 22.2427 24.6312 22.8708C24.8842 23.4989 25.0095 24.171 24.9998 24.8478V24.8478" stroke="#3B4559" stroke-linecap="round" stroke-linejoin="round"/>
<path d="M12.412 21.1899H1.53961C1.44857 21.1899 1.35902 21.1668 1.27928 21.123C1.19955 21.0792 1.13222 21.016 1.08357 20.9392C1.03491 20.8625 1.00651 20.7747 1.00099 20.6841C0.995477 20.5935 1.01303 20.5029 1.05203 20.4209L2.94482 16.4651C3.03262 16.2819 3.17056 16.1271 3.34274 16.0188C3.51491 15.9104 3.7143 15.8528 3.91791 15.8525H13.3348" stroke="#3B4559" stroke-linecap="round" stroke-linejoin="round"/>
<path d="M2.26172 21.2344V25.0003" stroke="#3B4559" stroke-linecap="round" stroke-linejoin="round"/>
<path d="M16.5898 11.9561C19.2841 14.643 22.3446 14.2684 23.9016 14.2684" stroke="#3B4559" stroke-linecap="round" stroke-linejoin="round"/>
<path d="M19.8779 23.0087V21.5781" stroke="#3B4559" stroke-linecap="round" stroke-linejoin="round"/>
</svg>
