<svg width="15" height="15" viewBox="0 0 15 15" fill="none" xmlns="http://www.w3.org/2000/svg">
<g clip-path="url(#clip0_3189_35834)">
<path d="M4.6875 2.8125C4.6875 3.47554 4.95089 4.11143 5.41973 4.58027C5.88857 5.04911 6.52446 5.3125 7.1875 5.3125C7.85054 5.3125 8.48643 5.04911 8.95527 4.58027C9.42411 4.11143 9.6875 3.47554 9.6875 2.8125C9.6875 2.14946 9.42411 1.51357 8.95527 1.04473C8.48643 0.575892 7.85054 0.3125 7.1875 0.3125C6.52446 0.3125 5.88857 0.575892 5.41973 1.04473C4.95089 1.51357 4.6875 2.14946 4.6875 2.8125V2.8125Z" stroke="#3B4559" stroke-linecap="round" stroke-linejoin="round"/>
<path d="M7.1875 5.3125V12.8125" stroke="#3B4559" stroke-linecap="round" stroke-linejoin="round"/>
<path d="M9.0625 12.2168C12.2806 12.3418 14.6875 12.8418 14.6875 13.4374C14.6875 14.1249 11.4694 14.6874 7.5 14.6874C3.53063 14.6874 0.3125 14.1249 0.3125 13.4374C0.3125 12.8812 2.40625 12.4087 5.29875 12.2499" stroke="#3B4559" stroke-linecap="round" stroke-linejoin="round"/>
</g>
<defs>
<clipPath id="clip0_3189_35834">
<rect width="15" height="15" fill="white"/>
</clipPath>
</defs>
</svg>
