<svg width="25" height="25" viewBox="0 0 25 25" fill="none" xmlns="http://www.w3.org/2000/svg">
<path d="M18.1429 23.2857C19.5068 23.2857 20.8149 22.7439 21.7794 21.7794C22.7439 20.8149 23.2857 19.5068 23.2857 18.1429C23.2857 16.7789 22.7439 15.4708 21.7794 14.5063C20.8149 13.5418 19.5068 13 18.1429 13H6.14286C4.77889 13 3.47078 13.5418 2.50631 14.5063C1.54184 15.4708 1 16.7789 1 18.1429C1 19.5068 1.54184 20.8149 2.50631 21.7794C3.47078 22.7439 4.77889 23.2857 6.14286 23.2857H18.1429Z" stroke="#3B4559" stroke-width="1.71429" stroke-linecap="round" stroke-linejoin="round"/>
<path d="M1.13721 16.9264L3.86292 3.74355C4.02321 2.95747 4.45409 2.25248 5.08055 1.75131C5.70702 1.25014 6.48939 0.984522 7.29149 1.0007H17.0629C17.865 0.984522 18.6474 1.25014 19.2739 1.75131C19.9003 2.25248 20.3312 2.95747 20.4915 3.74355L23.2172 16.9264" stroke="#3B4559" stroke-width="1.71429" stroke-linecap="round" stroke-linejoin="round"/>
<path d="M6.14282 18.1445H11.2857" stroke="#3B4559" stroke-width="1.71429" stroke-linecap="round" stroke-linejoin="round"/>
<path d="M18.1428 18.9994C18.6162 18.9994 18.9999 18.6157 18.9999 18.1423C18.9999 17.6689 18.6162 17.2852 18.1428 17.2852C17.6694 17.2852 17.2856 17.6689 17.2856 18.1423C17.2856 18.6157 17.6694 18.9994 18.1428 18.9994Z" stroke="#3B4559" stroke-width="1.71429" stroke-linecap="round" stroke-linejoin="round"/>
</svg>
