<svg width="24" height="21" viewBox="0 0 24 21" fill="none" xmlns="http://www.w3.org/2000/svg">
<path d="M3.625 5.125C3.625 6.21902 4.0596 7.26823 4.83318 8.04182C5.60677 8.8154 6.65598 9.25 7.75 9.25C8.84402 9.25 9.89323 8.8154 10.6668 8.04182C11.4404 7.26823 11.875 6.21902 11.875 5.125C11.875 4.03098 11.4404 2.98177 10.6668 2.20818C9.89323 1.4346 8.84402 1 7.75 1C6.65598 1 5.60677 1.4346 4.83318 2.20818C4.0596 2.98177 3.625 4.03098 3.625 5.125V5.125Z" stroke="white" stroke-width="1.5" stroke-linecap="round" stroke-linejoin="round"/>
<path d="M21.88 11.119L14.25 18.75L10.5 19.5L11.25 15.75L18.88 8.11904C19.2768 7.72236 19.8149 7.49951 20.376 7.49951C20.9371 7.49951 21.4752 7.72236 21.872 8.11904L21.88 8.12804C22.0766 8.3243 22.2326 8.55741 22.3391 8.81402C22.4455 9.07064 22.5003 9.34572 22.5003 9.62354C22.5003 9.90135 22.4455 10.1764 22.3391 10.4331C22.2326 10.6897 22.0766 10.9228 21.88 11.119V11.119Z" stroke="white" stroke-width="1.5" stroke-linecap="round" stroke-linejoin="round"/>
<path d="M9 18.0003H1C0.999951 16.7434 1.33832 15.5097 1.97957 14.4287C2.62082 13.3477 3.54131 12.4593 4.64436 11.8567C5.74742 11.2542 6.99236 10.9598 8.24846 11.0044C9.50455 11.049 10.7255 11.431 11.783 12.1103" stroke="white" stroke-linecap="round" stroke-linejoin="round"/>
</svg>
