<svg width="25" height="22" viewBox="0 0 25 22" fill="none" xmlns="http://www.w3.org/2000/svg">
<path d="M13.5 6.47998H1.5C1.36739 6.47998 1.24021 6.4273 1.14645 6.33353C1.05268 6.23977 1 6.11259 1 5.97998V2.97998C1 2.84737 1.05268 2.7202 1.14645 2.62643C1.24021 2.53266 1.36739 2.47998 1.5 2.47998H13.5" stroke="white" stroke-linecap="round" stroke-linejoin="round"/>
<path d="M15.52 4.18C15.52 4.5976 15.6023 5.01112 15.7621 5.39693C15.9219 5.78275 16.1561 6.13331 16.4514 6.4286C16.7467 6.72389 17.0973 6.95813 17.4831 7.11794C17.8689 7.27775 18.2824 7.36 18.7 7.36C19.1176 7.36 19.5311 7.27775 19.917 7.11794C20.3028 6.95813 20.6533 6.72389 20.9486 6.4286C21.2439 6.13331 21.4781 5.78275 21.638 5.39693C21.7978 5.01112 21.88 4.5976 21.88 4.18C21.88 3.7624 21.7978 3.34888 21.638 2.96307C21.4781 2.57725 21.2439 2.22669 20.9486 1.9314C20.6533 1.63611 20.3028 1.40187 19.917 1.24206C19.5311 1.08225 19.1176 1 18.7 1C18.2824 1 17.8689 1.08225 17.4831 1.24206C17.0973 1.40187 16.7467 1.63611 16.4514 1.9314C16.1561 2.22669 15.9219 2.57725 15.7621 2.96307C15.6023 3.34888 15.52 3.7624 15.52 4.18Z" stroke="white" stroke-linecap="round" stroke-linejoin="round"/>
<path d="M20.949 6.42902L24 9.48002" stroke="white" stroke-linecap="round" stroke-linejoin="round"/>
<path d="M1 15.48C1 15.7452 1.10536 15.9996 1.29289 16.1871C1.48043 16.3746 1.73478 16.48 2 16.48C2.26522 16.48 2.51957 16.3746 2.70711 16.1871C2.89464 15.9996 3 15.7452 3 15.48C3 15.2148 2.89464 14.9604 2.70711 14.7729C2.51957 14.5853 2.26522 14.48 2 14.48C1.73478 14.48 1.48043 14.5853 1.29289 14.7729C1.10536 14.9604 1 15.2148 1 15.48Z" stroke="white" stroke-linecap="round" stroke-linejoin="round"/>
<path d="M1 20.48C1 20.7452 1.10536 20.9996 1.29289 21.1871C1.48043 21.3746 1.73478 21.48 2 21.48C2.26522 21.48 2.51957 21.3746 2.70711 21.1871C2.89464 20.9996 3 20.7452 3 20.48C3 20.2148 2.89464 19.9604 2.70711 19.7729C2.51957 19.5853 2.26522 19.48 2 19.48C1.73478 19.48 1.48043 19.5853 1.29289 19.7729C1.10536 19.9604 1 20.2148 1 20.48Z" stroke="white" stroke-linecap="round" stroke-linejoin="round"/>
<path d="M5 15.48H16" stroke="white" stroke-linecap="round" stroke-linejoin="round"/>
<path d="M1 10.48C1 10.7452 1.10536 10.9996 1.29289 11.1871C1.48043 11.3746 1.73478 11.48 2 11.48C2.26522 11.48 2.51957 11.3746 2.70711 11.1871C2.89464 10.9996 3 10.7452 3 10.48C3 10.2148 2.89464 9.96041 2.70711 9.77287C2.51957 9.58534 2.26522 9.47998 2 9.47998C1.73478 9.47998 1.48043 9.58534 1.29289 9.77287C1.10536 9.96041 1 10.2148 1 10.48Z" stroke="white" stroke-linecap="round" stroke-linejoin="round"/>
<path d="M5 10.48H16" stroke="white" stroke-linecap="round" stroke-linejoin="round"/>
<path d="M5 20.48H16" stroke="white" stroke-linecap="round" stroke-linejoin="round"/>
</svg>
