<svg width="25" height="20" viewBox="0 0 25 20" fill="none" xmlns="http://www.w3.org/2000/svg">
<path d="M15.5 14C15.4999 13.6665 15.611 13.3425 15.8156 13.0792C16.0203 12.8159 16.3068 12.6283 16.63 12.546C16.7361 12.5192 16.8301 12.4577 16.8972 12.3712C16.9642 12.2848 17.0004 12.1784 17 12.069V10C17 9.7348 16.8946 9.4804 16.7071 9.2929C16.5196 9.1054 16.2652 9 16 9H2C1.73478 9 1.48043 9.1054 1.2929 9.2929C1.10536 9.4804 1 9.7348 1 10V12.069C0.999575 12.1784 1.03577 12.2848 1.10282 12.3712C1.16988 12.4577 1.26393 12.5192 1.37 12.546C1.69344 12.628 1.9803 12.8155 2.18521 13.0788C2.39012 13.3422 2.50138 13.6663 2.50138 14C2.50138 14.3337 2.39012 14.6578 2.18521 14.9212C1.9803 15.1845 1.69344 15.372 1.37 15.454C1.26393 15.4808 1.16988 15.5423 1.10282 15.6288C1.03577 15.7152 0.999575 15.8216 1 15.931V18C1 18.2652 1.10536 18.5196 1.2929 18.7071C1.48043 18.8946 1.73478 19 2 19H16C16.2652 19 16.5196 18.8946 16.7071 18.7071C16.8946 18.5196 17 18.2652 17 18V15.931C17.0004 15.8216 16.9642 15.7152 16.8972 15.6288C16.8301 15.5423 16.7361 15.4808 16.63 15.454C16.3068 15.3717 16.0203 15.1841 15.8156 14.9208C15.611 14.6575 15.4999 14.3335 15.5 14Z" stroke="white" stroke-linecap="round" stroke-linejoin="round"/>
<path d="M19 11H23C23.2652 11 23.5196 10.8946 23.7071 10.7071C23.8946 10.5196 24 10.2652 24 10V7.931C24.0004 7.8216 23.9642 7.7152 23.8972 7.62875C23.8301 7.54231 23.7361 7.48079 23.63 7.454C23.3066 7.372 23.0197 7.1845 22.8148 6.92116C22.6099 6.65782 22.4986 6.33367 22.4986 6C22.4986 5.66633 22.6099 5.34218 22.8148 5.07884C23.0197 4.8155 23.3066 4.628 23.63 4.546C23.7361 4.51921 23.8301 4.45769 23.8972 4.37124C23.9642 4.2848 24.0004 4.1784 24 4.069V2C24 1.73478 23.8946 1.48043 23.7071 1.29289C23.5196 1.10536 23.2652 1 23 1H9C8.73478 1 8.48043 1.10536 8.29289 1.29289C8.10536 1.48043 8 1.73478 8 2V4.069C7.99957 4.1784 8.03577 4.2848 8.10282 4.37124C8.16987 4.45769 8.26393 4.51921 8.37 4.546C8.61992 4.60957 8.84923 4.7365 9.03579 4.91453C9.22235 5.09256 9.35987 5.31569 9.43505 5.56236C9.51024 5.80903 9.52057 6.07093 9.46503 6.32275C9.40949 6.57458 9.28997 6.80783 9.118 7" stroke="white" stroke-linecap="round" stroke-linejoin="round"/>
<path d="M5.25 11.5C5.11193 11.5 5 11.3881 5 11.25C5 11.1119 5.11193 11 5.25 11" stroke="white"/>
<path d="M5.25 11.5C5.38807 11.5 5.5 11.3881 5.5 11.25C5.5 11.1119 5.38807 11 5.25 11" stroke="white"/>
<path d="M5.25 14C5.11193 14 5 13.8881 5 13.75C5 13.6119 5.11193 13.5 5.25 13.5" stroke="white"/>
<path d="M5.25 14C5.38807 14 5.5 13.8881 5.5 13.75C5.5 13.6119 5.38807 13.5 5.25 13.5" stroke="white"/>
<path d="M5.25 16.5C5.11193 16.5 5 16.3881 5 16.25C5 16.1119 5.11193 16 5.25 16" stroke="white"/>
<path d="M5.25 16.5C5.38807 16.5 5.5 16.3881 5.5 16.25C5.5 16.1119 5.38807 16 5.25 16" stroke="white"/>
<path d="M12.25 6C12.1119 6 12 5.88807 12 5.75C12 5.61193 12.1119 5.5 12.25 5.5" stroke="white"/>
<path d="M12.25 6C12.3881 6 12.5 5.88807 12.5 5.75C12.5 5.61193 12.3881 5.5 12.25 5.5" stroke="white"/>
<path d="M12.25 3.5C12.1119 3.5 12 3.38807 12 3.25C12 3.11193 12.1119 3 12.25 3" stroke="white"/>
<path d="M12.25 3.5C12.3881 3.5 12.5 3.38807 12.5 3.25C12.5 3.11193 12.3881 3 12.25 3" stroke="white"/>
</svg>
