<svg width="25" height="25" viewBox="0 0 25 25" fill="none" xmlns="http://www.w3.org/2000/svg">
<path d="M5.705 15.463H4.218C3.9801 15.4629 3.75004 15.3779 3.56914 15.2234C3.38824 15.0689 3.26835 14.855 3.231 14.62L2.892 12.5H1L2.419 8.366C2.892 6.946 3.478 6 4.785 6C6.092 6 6.677 6.946 7.15 8.366L7.638 9.829" stroke="white" stroke-linecap="round" stroke-linejoin="round"/>
<path d="M4.77002 5C5.87459 5 6.77002 4.10457 6.77002 3C6.77002 1.89543 5.87459 1 4.77002 1C3.66545 1 2.77002 1.89543 2.77002 3C2.77002 4.10457 3.66545 5 4.77002 5Z" stroke="white" stroke-linecap="round" stroke-linejoin="round"/>
<path d="M19.319 15.463H20.806C21.0439 15.4629 21.274 15.3779 21.4549 15.2234C21.6358 15.0689 21.7557 14.855 21.793 14.62L22.132 12.5H24.024L22.605 8.366C22.132 6.946 21.546 6 20.239 6C18.932 6 18.347 6.946 17.874 8.366L17.384 9.834" stroke="white" stroke-linecap="round" stroke-linejoin="round"/>
<path d="M20.254 5C21.3586 5 22.254 4.10457 22.254 3C22.254 1.89543 21.3586 1 20.254 1C19.1495 1 18.254 1.89543 18.254 3C18.254 4.10457 19.1495 5 20.254 5Z" stroke="white" stroke-linecap="round" stroke-linejoin="round"/>
<path d="M9.50195 18.954V14.704" stroke="white" stroke-linecap="round" stroke-linejoin="round"/>
<path d="M15.502 18.954V14.704" stroke="white" stroke-linecap="round" stroke-linejoin="round"/>
<path d="M9.50195 17.5H15.502" stroke="white" stroke-linecap="round" stroke-linejoin="round"/>
<path d="M12.502 23.954V19.5" stroke="white" stroke-linecap="round" stroke-linejoin="round"/>
<path d="M12.502 10.453V14.453" stroke="white" stroke-linecap="round" stroke-linejoin="round"/>
<path d="M14.082 23.953C14.3334 23.9539 14.576 23.86 14.7613 23.69C14.9466 23.5201 15.0611 23.2866 15.082 23.036L15.506 18.953H16.506C16.7712 18.953 17.0256 18.8476 17.2131 18.6601C17.4006 18.4726 17.506 18.2182 17.506 17.953V15.453C17.506 14.1269 16.9792 12.8552 16.0415 11.9175C15.1038 10.9798 13.8321 10.453 12.506 10.453C11.1799 10.453 9.90813 10.9798 8.97045 11.9175C8.03277 12.8552 7.50598 14.1269 7.50598 15.453V17.953C7.50598 18.2182 7.61134 18.4726 7.79887 18.6601C7.98641 18.8476 8.24076 18.953 8.50598 18.953H9.50598L9.92898 23.036C9.94985 23.2866 10.0644 23.5201 10.2497 23.69C10.435 23.86 10.6775 23.9539 10.929 23.953H14.082Z" stroke="white" stroke-linecap="round" stroke-linejoin="round"/>
<path d="M12.502 8.953C14.4349 8.953 16.002 7.386 16.002 5.453C16.002 3.52001 14.4349 1.953 12.502 1.953C10.569 1.953 9.00195 3.52001 9.00195 5.453C9.00195 7.386 10.569 8.953 12.502 8.953Z" stroke="white" stroke-linecap="round" stroke-linejoin="round"/>
</svg>
