<svg width="82" height="81" viewBox="0 0 82 81" fill="none" xmlns="http://www.w3.org/2000/svg">
<path d="M10.167 24.6662C12.4282 18.5693 16.3143 13.1881 21.4153 9.09036C26.5162 4.99271 32.6429 2.33051 39.1486 1.38472C45.6545 0.438944 52.2982 1.24464 58.3789 3.71679C64.4594 6.18897 69.7514 10.2359 73.6964 15.4306C77.6417 20.6253 80.0934 26.7751 80.793 33.2311C81.4927 39.6871 80.4145 46.2098 77.6719 52.1114C74.9297 58.0127 70.6247 63.0737 65.2115 66.7603C59.7984 70.4469 53.4779 72.6224 46.9167 73.0573" stroke="#3B4559" stroke-linecap="round" stroke-linejoin="round"/>
<path d="M34.9127 28.4744C34.4323 28.4744 34.043 28.0899 34.043 27.6156C34.043 27.1413 34.4323 26.7568 34.9127 26.7568" stroke="#3B4559"/>
<path d="M34.9126 28.4744C35.3931 28.4744 35.7824 28.0899 35.7824 27.6156C35.7824 27.1413 35.3931 26.7568 34.9126 26.7568" stroke="#3B4559"/>
<path d="M66.2365 28.4744C65.756 28.4744 65.3667 28.0899 65.3667 27.6156C65.3667 27.1413 65.756 26.7568 66.2365 26.7568" stroke="#3B4559"/>
<path d="M66.2363 28.4744C66.7168 28.4744 67.1061 28.0899 67.1061 27.6156C67.1061 27.1413 66.7168 26.7568 66.2363 26.7568" stroke="#3B4559"/>
<path d="M62.4947 40.4692C62.9268 40.4555 63.3565 40.5417 63.7489 40.7203C64.1417 40.8993 64.4868 41.1658 64.7568 41.4991C65.0268 41.8326 65.2147 42.2235 65.3051 42.6409C65.3956 43.0586 65.3862 43.4911 65.278 43.9043C64.2757 47.4745 61.8925 50.5129 58.6423 52.3641C55.3921 54.2153 51.5352 54.7313 47.9034 53.801C45.4496 53.2112 43.2017 51.9818 41.3936 50.2408C39.5859 48.4999 38.2847 46.3114 37.6261 43.9043C37.5353 43.5512 37.5165 43.184 37.5708 42.8236C37.6254 42.4633 37.7517 42.1174 37.9427 41.8055C38.1337 41.4939 38.3856 41.2229 38.6834 41.0082C38.9816 40.7935 39.3198 40.6396 39.6788 40.5551C39.9133 40.4977 40.154 40.4688 40.3955 40.4692H62.4947Z" stroke="#3B4559" stroke-linecap="round" stroke-linejoin="round"/>
<path d="M6.20943 49.808L3.94106 42.9652C3.48801 41.6059 3.59997 40.1246 4.2523 38.8468C4.90463 37.5689 6.044 36.5988 7.42015 36.1498C8.79916 35.7043 10.3009 35.8176 11.5953 36.4648C12.8897 37.1124 13.8707 38.2408 14.3227 39.6022L16.5945 46.445" stroke="#3B4559" stroke-linecap="round" stroke-linejoin="round"/>
<path d="M28.2916 46.9811L28.2603 46.8849C27.9253 45.877 27.1989 45.0419 26.2406 44.5627C25.2823 44.0835 24.1705 43.9993 23.1495 44.3291L16.995 46.3387L14.4726 47.1528L10.0855 48.575C6.76415 49.6495 4.01028 51.9809 2.42847 55.0585C0.846676 58.1357 0.566236 61.7069 1.64872 64.9881L3.65614 71.0306C4.74551 74.3129 7.11046 77.0335 10.231 78.5941C13.3515 80.155 16.9721 80.4285 20.2967 79.3539L24.6838 77.9421L33.3815 75.1356C34.4023 74.8041 35.2485 74.0861 35.7338 73.1394C36.2191 72.1927 36.304 71.0945 35.97 70.0859L35.9387 69.9931C35.7734 69.4937 35.5104 69.031 35.1639 68.6321C34.8177 68.233 34.395 67.9053 33.9206 67.6675C33.4459 67.4298 32.9284 67.2869 32.3977 67.2467C31.8671 67.2069 31.3336 67.2704 30.8279 67.434C31.8485 67.1031 32.6944 66.3859 33.1798 65.4398C33.6651 64.4935 33.7502 63.3959 33.4163 62.3877L33.385 62.2915C33.0501 61.283 32.3231 60.4472 31.364 59.968C30.4049 59.4884 29.2922 59.405 28.2707 59.7358C28.7767 59.5726 29.2451 59.3129 29.6493 58.9708C30.0534 58.629 30.3854 58.2119 30.6261 57.743C30.8668 57.2745 31.0116 56.7637 31.0522 56.2395C31.0928 55.7156 31.0284 55.189 30.8627 54.6895L30.8174 54.583C30.4817 53.5752 29.7546 52.7397 28.7958 52.2605C27.8369 51.7813 26.7246 51.6975 25.7032 52.0273C26.2091 51.8641 26.6775 51.6044 27.0815 51.2623C27.4855 50.9205 27.8172 50.5031 28.0576 50.0342C28.2981 49.5657 28.4425 49.0545 28.4827 48.5307C28.5228 48.0068 28.4579 47.4802 28.2916 46.9811Z" stroke="#3B4559" stroke-linecap="round" stroke-linejoin="round"/>
<path d="M16.9956 46.3381L23.1571 44.3457C24.1781 44.0159 25.2898 44.1001 26.2482 44.5793C27.2064 45.0585 27.9329 45.8936 28.2679 46.9015L28.2992 46.9977C28.6279 48.0059 28.5382 49.1013 28.0496 50.0443C27.5611 50.9872 26.7137 51.7 25.6933 52.0267L19.5319 54.0191" stroke="#3B4559" stroke-linecap="round" stroke-linejoin="round"/>
<path d="M19.5425 54.0169L25.704 52.0245C26.7254 51.6948 27.8377 51.7786 28.7965 52.2578C29.7554 52.737 30.4825 53.5724 30.8182 54.5803L30.8495 54.6765C31.0168 55.1766 31.0825 55.7043 31.0427 56.2292C31.0029 56.7544 30.8584 57.2666 30.6176 57.7365C30.3767 58.2065 30.0443 58.6245 29.6393 58.967C29.2343 59.3098 28.7648 59.5702 28.2576 59.733L22.0996 61.7254" stroke="#3B4559" stroke-linecap="round" stroke-linejoin="round"/>
<path d="M22.0986 61.7171L28.2566 59.7247C29.2781 59.3939 30.3907 59.4773 31.3499 59.9569C32.309 60.4361 33.036 61.2719 33.3709 62.2804L33.4022 62.3766C33.7361 63.3848 33.651 64.4824 33.1657 65.4287C32.6803 66.3748 31.8344 67.092 30.8138 67.4229L24.6488 69.4187" stroke="#3B4559" stroke-linecap="round" stroke-linejoin="round"/>
<path d="M24.6484 69.4182L30.8099 67.4224C31.3157 67.2589 31.8491 67.1953 32.3798 67.2352C32.9105 67.2754 33.4279 67.4183 33.9026 67.656C34.3774 67.8937 34.7997 68.2214 35.1459 68.6206C35.4924 69.0194 35.7554 69.4821 35.9207 69.9816L35.952 70.0743C36.286 71.0829 36.2011 72.1811 35.7158 73.1278C35.2305 74.0746 34.3843 74.7925 33.3636 75.124L27.2021 77.1164" stroke="#3B4559" stroke-linecap="round" stroke-linejoin="round"/>
</svg>
