<svg width="24" height="24" viewBox="0 0 24 24" fill="none" xmlns="http://www.w3.org/2000/svg">
<path d="M19.0711 19.0711C20.4696 17.6726 21.422 15.8908 21.8079 13.9509C22.1937 12.0111 21.9957 10.0005 21.2388 8.17321C20.4819 6.34595 19.2002 4.78416 17.5557 3.68535C15.9112 2.58654 13.9778 2.00005 12 2.00005C10.0222 2.00005 8.08879 2.58654 6.4443 3.68535C4.79981 4.78416 3.51808 6.34595 2.7612 8.17321C2.00433 10.0005 1.8063 12.0111 2.19215 13.9509C2.578 15.8908 3.53041 17.6726 4.92893 19.0711" stroke="#3B4559" stroke-width="1.5" stroke-linecap="round"/>
<path d="M16.2426 15.7279C17.0818 14.8888 17.6532 13.8197 17.8847 12.6558C18.1162 11.4919 17.9974 10.2855 17.5433 9.18918C17.0892 8.09283 16.3201 7.15576 15.3334 6.49647C14.3467 5.83718 13.1867 5.48529 12 5.48529C10.8133 5.48529 9.65327 5.83718 8.66658 6.49647C7.67988 7.15576 6.91085 8.09283 6.45672 9.18918C6.0026 10.2855 5.88378 11.4919 6.11529 12.6558C6.3468 13.8197 6.91824 14.8888 7.75736 15.7279" stroke="#3B4559" stroke-width="1.5" stroke-linecap="round"/>
<path d="M12 23L12 15" stroke="#3B4559" stroke-width="1.5" stroke-linecap="round"/>
<circle cx="12" cy="11.5" r="2.5" stroke="#3B4559" stroke-width="1.5"/>
</svg>
