<svg width="25" height="28" viewBox="0 0 25 28" fill="none" xmlns="http://www.w3.org/2000/svg">
<path d="M11.5 24.5C11.5 25.0304 11.2893 25.5391 10.9142 25.9142C10.5391 26.2893 10.0304 26.5 9.5 26.5C8.96957 26.5 8.46086 26.2893 8.08579 25.9142C7.71071 25.5391 7.5 25.0304 7.5 24.5" stroke="#285CED" stroke-width="1.5" stroke-linecap="round" stroke-linejoin="round"/>
<path d="M10 7.552C9.83555 7.51763 9.66801 7.50021 9.5 7.5C8.83696 7.5 8.20107 7.76339 7.73223 8.23223C7.26339 8.70107 7 9.33696 7 10C5.81545 10.4936 4.8035 11.3267 4.09167 12.3944C3.37985 13.4622 3 14.7167 3 16V20.5C3 21.0304 2.78929 21.5391 2.41421 21.9142C2.03914 22.2893 1.53043 22.5 1 22.5H18C17.4696 22.5 16.9609 22.2893 16.5858 21.9142C16.2107 21.5391 16 21.0304 16 20.5V16C15.9961 15.7397 15.9764 15.4799 15.941 15.222" stroke="#285CED" stroke-width="1.5" stroke-linecap="round" stroke-linejoin="round"/>
<path d="M18 5V10.0006M20.5 7.5H15.5" stroke="#285CED" stroke-width="1.5" stroke-linecap="round" stroke-linejoin="round"/>
<path d="M12 7.5C12 9.0913 12.6321 10.6174 13.7574 11.7426C14.8826 12.8679 16.4087 13.5 18 13.5C19.5913 13.5 21.1174 12.8679 22.2426 11.7426C23.3679 10.6174 24 9.0913 24 7.5C24 5.9087 23.3679 4.38258 22.2426 3.25736C21.1174 2.13214 19.5913 1.5 18 1.5C16.4087 1.5 14.8826 2.13214 13.7574 3.25736C12.6321 4.38258 12 5.9087 12 7.5V7.5Z" stroke="#285CED" stroke-width="1.5" stroke-linecap="round" stroke-linejoin="round"/>
</svg>
