<svg width="19" height="19" viewBox="0 0 19 19" fill="none" xmlns="http://www.w3.org/2000/svg">
<path d="M9.47852 5C10.5831 5 11.4785 4.10457 11.4785 3C11.4785 1.89543 10.5831 1 9.47852 1C8.37395 1 7.47852 1.89543 7.47852 3C7.47852 4.10457 8.37395 5 9.47852 5Z" stroke="#3B4559" stroke-linecap="round" stroke-linejoin="round"/>
<path d="M11.4766 3H17.9996" stroke="#3B4559" stroke-linecap="round" stroke-linejoin="round"/>
<path d="M1 3H7.475" stroke="#3B4559" stroke-linecap="round" stroke-linejoin="round"/>
<path d="M5.47852 11.5C6.58309 11.5 7.47852 10.6046 7.47852 9.5C7.47852 8.39543 6.58309 7.5 5.47852 7.5C4.37395 7.5 3.47852 8.39543 3.47852 9.5C3.47852 10.6046 4.37395 11.5 5.47852 11.5Z" stroke="#3B4559" stroke-linecap="round" stroke-linejoin="round"/>
<path d="M7.47461 9.5H17.9996" stroke="#3B4559" stroke-linecap="round" stroke-linejoin="round"/>
<path d="M1 9.5H3.475" stroke="#3B4559" stroke-linecap="round" stroke-linejoin="round"/>
<path d="M7.47852 18C8.58309 18 9.47852 17.1046 9.47852 16C9.47852 14.8954 8.58309 14 7.47852 14C6.37395 14 5.47852 14.8954 5.47852 16C5.47852 17.1046 6.37395 18 7.47852 18Z" stroke="#3B4559" stroke-linecap="round" stroke-linejoin="round"/>
<path d="M9.47461 16H17.9996" stroke="#3B4559" stroke-linecap="round" stroke-linejoin="round"/>
<path d="M1 16H5.479" stroke="#3B4559" stroke-linecap="round" stroke-linejoin="round"/>
</svg>
