<svg width="19" height="25" viewBox="0 0 19 25" fill="none" xmlns="http://www.w3.org/2000/svg">
<path d="M13.8571 2.71436H16.4286C16.8832 2.71436 17.3193 2.89497 17.6408 3.21646C17.9622 3.53795 18.1429 3.97398 18.1429 4.42864V21.5715C18.1429 22.0262 17.9622 22.4622 17.6408 22.7837C17.3193 23.1052 16.8832 23.2858 16.4286 23.2858H2.71429C2.25963 23.2858 1.82359 23.1052 1.5021 22.7837C1.18061 22.4622 1 22.0262 1 21.5715V4.42864C1 3.97398 1.18061 3.53795 1.5021 3.21646C1.82359 2.89497 2.25963 2.71436 2.71429 2.71436H5.28571" stroke="#697181" stroke-width="1.71429" stroke-linecap="round" stroke-linejoin="round"/>
<path d="M12.1428 1H6.99999C6.05322 1 5.28571 1.76751 5.28571 2.71429V3.57143C5.28571 4.5182 6.05322 5.28571 6.99999 5.28571H12.1428C13.0896 5.28571 13.8571 4.5182 13.8571 3.57143V2.71429C13.8571 1.76751 13.0896 1 12.1428 1Z" stroke="#697181" stroke-width="1.71429" stroke-linecap="round" stroke-linejoin="round"/>
<path d="M5.28571 14.7144L8.71428 17.2859L13 10.4287" stroke="#697181" stroke-width="1.71429" stroke-linecap="round" stroke-linejoin="round"/>
</svg>
