<svg width="19" height="19" viewBox="0 0 19 19" fill="none" xmlns="http://www.w3.org/2000/svg">
<path d="M9.479 5C10.5836 5 11.479 4.10457 11.479 3C11.479 1.89543 10.5836 1 9.479 1C8.37443 1 7.479 1.89543 7.479 3C7.479 4.10457 8.37443 5 9.479 5Z" stroke="#3B4559" stroke-linecap="round" stroke-linejoin="round"/>
<path d="M11.4771 3H18.0001" stroke="#3B4559" stroke-linecap="round" stroke-linejoin="round"/>
<path d="M1 3H7.475" stroke="#3B4559" stroke-linecap="round" stroke-linejoin="round"/>
<path d="M5.479 11.5C6.58357 11.5 7.479 10.6046 7.479 9.5C7.479 8.39543 6.58357 7.5 5.479 7.5C4.37443 7.5 3.479 8.39543 3.479 9.5C3.479 10.6046 4.37443 11.5 5.479 11.5Z" stroke="#3B4559" stroke-linecap="round" stroke-linejoin="round"/>
<path d="M7.4751 9.5H18.0001" stroke="#3B4559" stroke-linecap="round" stroke-linejoin="round"/>
<path d="M1 9.5H3.475" stroke="#3B4559" stroke-linecap="round" stroke-linejoin="round"/>
<path d="M7.479 18C8.58357 18 9.479 17.1046 9.479 16C9.479 14.8954 8.58357 14 7.479 14C6.37443 14 5.479 14.8954 5.479 16C5.479 17.1046 6.37443 18 7.479 18Z" stroke="#3B4559" stroke-linecap="round" stroke-linejoin="round"/>
<path d="M9.4751 16H18.0001" stroke="#3B4559" stroke-linecap="round" stroke-linejoin="round"/>
<path d="M1 16H5.479" stroke="#3B4559" stroke-linecap="round" stroke-linejoin="round"/>
</svg>
