<svg width="19" height="19" viewBox="0 0 19 19" fill="none" xmlns="http://www.w3.org/2000/svg">
<path d="M1 18H15.3782" stroke="#3B4559" stroke-width="1.71429" stroke-linecap="round" stroke-linejoin="round"/>
<path d="M9.35349 12.9128C9.02098 13.2463 8.59422 13.4698 8.13073 13.5533V13.5533C6.56536 13.835 5.19501 12.4673 5.45314 10.8979V10.8979C5.53196 10.4187 5.75997 9.97287 6.10387 9.62999L14.3718 1.38664C14.4933 1.26413 14.6379 1.16689 14.7972 1.10053C14.9564 1.03417 15.1273 1 15.2998 1C15.4724 1 15.6432 1.03417 15.8025 1.10053C15.9618 1.16689 16.1064 1.26413 16.2279 1.38664L17.6134 2.77218C17.7359 2.89369 17.8332 3.03826 17.8995 3.19754C17.9659 3.35682 18.0001 3.52767 18.0001 3.70022C18.0001 3.87278 17.9659 4.04362 17.8995 4.20291C17.8332 4.36219 17.7359 4.50676 17.6134 4.62827L9.35349 12.9128Z" stroke="#3B4559" stroke-width="1.71429" stroke-linecap="round" stroke-linejoin="round"/>
</svg>
