<svg width="25" height="25" viewBox="0 0 25 25" fill="none" xmlns="http://www.w3.org/2000/svg">
<path d="M14.5024 21.5616C12.4289 22.1803 10.2149 22.1433 8.16317 21.4557C6.11148 20.768 4.32235 19.4633 3.04053 17.7199C1.75872 15.9766 1.04682 13.8798 1.00223 11.7164C0.957642 9.55296 1.58254 7.42861 2.79143 5.63392C4.00033 3.83924 5.73418 2.46188 7.7558 1.69027C9.77741 0.91865 11.9881 0.790468 14.0853 1.32325C16.1826 1.85604 18.064 3.02377 19.4722 4.6667C20.8804 6.30963 21.7467 8.34752 21.9524 10.5016" stroke="#0B112A" stroke-linecap="round" stroke-linejoin="round"/>
<path d="M1.1626 9.67188H6.7126C7.07495 9.67403 7.43322 9.74855 7.76636 9.89109C8.09951 10.0336 8.40082 10.2413 8.6526 10.5019L9.6526 11.5019C10.1495 11.995 10.438 12.6601 10.4585 13.3599C10.479 14.0597 10.2299 14.7406 9.7626 15.2619L8.5026 16.6619C8.0658 17.1737 7.83422 17.8293 7.8526 18.5019V21.3719" stroke="#0B112A" stroke-linecap="round" stroke-linejoin="round"/>
<path d="M19.0426 4.20117H13.7526C13.2089 4.20117 12.6875 4.41715 12.3031 4.8016C11.9186 5.18605 11.7026 5.70748 11.7026 6.25117C11.7026 6.79487 11.9186 7.31629 12.3031 7.70074C12.6875 8.08519 13.2089 8.30117 13.7526 8.30117H14.1426C14.5919 8.29893 15.0349 8.4072 15.4325 8.61646C15.8301 8.82572 16.1701 9.12955 16.4226 9.50117L17.4226 11.0612" stroke="#0B112A" stroke-linecap="round" stroke-linejoin="round"/>
<path d="M19.6026 12.3008C20.7696 12.3008 21.8887 12.7644 22.7139 13.5895C23.5391 14.4147 24.0026 15.5338 24.0026 16.7008C24.0026 18.6108 21.3026 22.2508 20.1326 23.7008C20.07 23.7817 19.9897 23.8472 19.8978 23.8923C19.8059 23.9374 19.705 23.9608 19.6026 23.9608C19.5 23.9623 19.3985 23.9396 19.3064 23.8944C19.2143 23.8492 19.1342 23.7829 19.0726 23.7008C17.9026 22.2108 15.2026 18.5708 15.2026 16.7008C15.2026 16.123 15.3164 15.5508 15.5376 15.017C15.7587 14.4831 16.0828 13.9981 16.4914 13.5895C16.8999 13.1809 17.385 12.8568 17.9188 12.6357C18.4527 12.4146 19.0248 12.3008 19.6026 12.3008V12.3008Z" stroke="#0B112A" stroke-linecap="round" stroke-linejoin="round"/>
<path d="M21.2526 16.7008C21.2526 17.0271 21.1559 17.3461 20.9746 17.6175C20.7933 17.8888 20.5356 18.1003 20.2341 18.2252C19.9326 18.3501 19.6008 18.3827 19.2807 18.3191C18.9607 18.2554 18.6667 18.0983 18.4359 17.8675C18.2052 17.6368 18.048 17.3427 17.9843 17.0227C17.9207 16.7026 17.9534 16.3709 18.0782 16.0694C18.2031 15.7679 18.4146 15.5102 18.6859 15.3289C18.9573 15.1476 19.2763 15.0508 19.6026 15.0508C20.0402 15.0508 20.4599 15.2246 20.7694 15.5341C21.0788 15.8435 21.2526 16.2632 21.2526 16.7008V16.7008Z" stroke="#0B112A" stroke-linecap="round" stroke-linejoin="round"/>
</svg>
