<svg width="23" height="23" viewBox="0 0 23 23" fill="none" xmlns="http://www.w3.org/2000/svg">
<path d="M10.9592 6.13184H12.0395C12.1384 6.13184 12.2192 6.2127 12.2192 6.31153V12.495C12.2192 12.5534 12.1923 12.6073 12.1451 12.641L8.43231 15.3521C8.35146 15.4105 8.23915 15.3947 8.18075 15.3139L7.53837 14.4379C7.47772 14.3548 7.49569 14.2425 7.57655 14.1863L10.7795 11.8706V6.31153C10.7795 6.2127 10.8603 6.13184 10.9592 6.13184ZM6.02226 7.8209L2.50038 8.68115C2.38808 8.70811 2.27802 8.62276 2.27802 8.5082L2.26005 4.88076C2.26005 4.73028 2.433 4.64492 2.5498 4.73926L6.08964 7.5042C6.11639 7.5249 6.13676 7.55272 6.1484 7.58448C6.16004 7.61624 6.16249 7.65064 6.15545 7.68372C6.14841 7.7168 6.13217 7.74723 6.10861 7.7715C6.08505 7.79576 6.05512 7.81289 6.02226 7.8209ZM2.25556 14.5839L3.52909 14.1459C3.57349 14.1307 3.62209 14.1334 3.66449 14.1536C3.70688 14.1737 3.73971 14.2097 3.75595 14.2537C3.79862 14.3683 3.84355 14.4806 3.89071 14.5929C4.29052 15.5385 4.86327 16.3897 5.5955 17.1197C6.31959 17.8461 7.17773 18.425 8.12235 18.8245C9.10092 19.2382 10.1528 19.4506 11.2152 19.4489C12.2889 19.4489 13.3288 19.24 14.3081 18.8245C15.2527 18.425 16.1109 17.8461 16.835 17.1197C17.5649 16.3897 18.1377 15.5385 18.5397 14.5929C18.9512 13.6138 19.162 12.562 19.1597 11.5C19.1597 10.4264 18.9508 9.38418 18.5352 8.40489C18.1354 7.45928 17.5627 6.60801 16.8305 5.87803C16.1064 5.15169 15.2482 4.57273 14.3036 4.17324C13.3288 3.75772 12.2866 3.54883 11.213 3.54883C10.1393 3.54883 9.0994 3.75772 8.12011 4.17324C7.17549 4.57273 6.31735 5.15169 5.59325 5.87803C5.36415 6.10938 5.14853 6.34971 4.95087 6.60352L3.6077 5.55235C5.37538 3.29278 8.12685 1.83955 11.2175 1.8418C16.5991 1.84405 20.9206 6.21494 20.8667 11.5988C20.8128 16.8884 16.5115 21.1582 11.213 21.1582C7.04648 21.1582 3.49765 18.5168 2.1455 14.8175C2.11181 14.7231 2.16122 14.6176 2.25556 14.5839Z" fill="#3B4559"/>
</svg>
