<svg width="25" height="27" viewBox="0 0 25 27" fill="none" xmlns="http://www.w3.org/2000/svg">
<path d="M11.5 24C11.5 24.5304 11.2893 25.0391 10.9142 25.4142C10.5391 25.7893 10.0304 26 9.5 26C8.96957 26 8.46086 25.7893 8.08579 25.4142C7.71071 25.0391 7.5 24.5304 7.5 24" stroke="#0B112A" stroke-width="1.5" stroke-linecap="round" stroke-linejoin="round"/>
<path d="M10 7.052C9.83555 7.01763 9.66801 7.00021 9.5 7C8.83696 7 8.20107 7.26339 7.73223 7.73223C7.26339 8.20107 7 8.83696 7 9.5C5.81545 9.99356 4.8035 10.8267 4.09167 11.8944C3.37985 12.9622 3 14.2167 3 15.5V20C3 20.5304 2.78929 21.0391 2.41421 21.4142C2.03914 21.7893 1.53043 22 1 22H18C17.4696 22 16.9609 21.7893 16.5858 21.4142C16.2107 21.0391 16 20.5304 16 20V15.5C15.9961 15.2397 15.9764 14.9799 15.941 14.722" stroke="#0B112A" stroke-width="1.5" stroke-linecap="round" stroke-linejoin="round"/>
<path d="M18 4.5V9.50055M20.5 7H15.5" stroke="#0B112A" stroke-width="1.5" stroke-linecap="round" stroke-linejoin="round"/>
<path d="M12 7C12 8.5913 12.6321 10.1174 13.7574 11.2426C14.8826 12.3679 16.4087 13 18 13C19.5913 13 21.1174 12.3679 22.2426 11.2426C23.3679 10.1174 24 8.5913 24 7C24 5.4087 23.3679 3.88258 22.2426 2.75736C21.1174 1.63214 19.5913 1 18 1C16.4087 1 14.8826 1.63214 13.7574 2.75736C12.6321 3.88258 12 5.4087 12 7V7Z" stroke="#0B112A" stroke-width="1.5" stroke-linecap="round" stroke-linejoin="round"/>
</svg>
