<svg width="18" height="22" viewBox="0 0 18 22" fill="none" xmlns="http://www.w3.org/2000/svg">
<path d="M0.999986 13.8851H0.249986H0.999986ZM3.7329 17.0834L3.83591 16.3405H3.83591L3.7329 17.0834ZM13.9192 17.0834L13.8162 16.3405L13.9192 17.0834ZM1.46645 12.1872L0.822301 11.8031L1.46645 12.1872ZM3.48912 7.08696C3.48912 4.13944 5.87856 1.75 8.82608 1.75V0.25C5.05013 0.25 1.98912 3.31101 1.98912 7.08696H3.48912ZM3.48912 9.17949V7.08696H1.98912V9.17949H3.48912ZM1.74999 13.8851C1.74999 13.4037 1.88169 12.9552 2.1106 12.5714L0.822301 11.8031C0.458687 12.4128 0.249986 13.1257 0.249986 13.8851H1.74999ZM3.83591 16.3405C2.63627 16.1742 1.74999 15.1313 1.74999 13.8851H0.249986C0.249986 15.8448 1.6541 17.5524 3.62989 17.8263L3.83591 16.3405ZM8.82607 16.772C7.33409 16.772 5.4065 16.5583 3.83591 16.3405L3.62989 17.8263C5.21266 18.0458 7.22536 18.272 8.82607 18.272V16.772ZM13.8162 16.3405C12.2456 16.5583 10.3181 16.772 8.82607 16.772V18.272C10.4268 18.272 12.4395 18.0458 14.0223 17.8263L13.8162 16.3405ZM15.9022 13.8851C15.9022 15.1313 15.0159 16.1742 13.8162 16.3405L14.0223 17.8263C15.998 17.5524 17.4022 15.8448 17.4022 13.8851H15.9022ZM15.5415 12.5714C15.7705 12.9552 15.9022 13.4037 15.9022 13.8851H17.4022C17.4022 13.1257 17.1935 12.4128 16.8298 11.8031L15.5415 12.5714ZM14.163 7.08696V9.17951L15.663 9.17951V7.08696H14.163ZM8.82608 1.75C11.7736 1.75 14.163 4.13944 14.163 7.08696H15.663C15.663 3.31101 12.602 0.25 8.82608 0.25V1.75ZM16.8298 11.8031C16.521 11.2851 16.2404 10.8701 16.0091 10.4066C15.7876 9.96289 15.663 9.567 15.663 9.17951L14.163 9.17951C14.163 9.89235 14.3931 10.5278 14.667 11.0766C14.9311 11.6056 15.2869 12.1443 15.5415 12.5714L16.8298 11.8031ZM1.98912 9.17949C1.98912 9.56698 1.8646 9.96287 1.64309 10.4066C1.41175 10.8701 1.1312 11.2851 0.822301 11.8031L2.1106 12.5714C2.3653 12.1443 2.72108 11.6056 2.98518 11.0766C3.2591 10.5278 3.48912 9.89234 3.48912 9.17949H1.98912Z" fill="#0B112A"/>
<path d="M11 19.834C10.5326 20.5369 9.73347 21.0002 8.82609 21.0002C7.91871 21.0002 7.11954 20.5369 6.65218 19.834" stroke="#0B112A" stroke-width="1.5" stroke-linecap="round"/>
</svg>
