<svg width="24" height="24" viewBox="0 0 24 24" fill="none" xmlns="http://www.w3.org/2000/svg">
<path d="M16.6956 13.3903C11.7079 15.0711 10.0636 16.9426 8.84779 21.6039C7.63195 16.9426 5.98772 15.0711 1 13.3903C5.98772 11.7096 7.63195 9.83811 8.84779 5.17676C10.0636 9.83811 11.7079 11.7096 16.6956 13.3903Z" stroke="#0B112A" stroke-linecap="round" stroke-linejoin="round"/>
<path d="M22.8833 5.61467C20.0698 6.55895 19.1424 7.61046 18.4565 10.2293C17.7707 7.61046 16.8432 6.55895 14.0298 5.61467C16.8432 4.67039 17.7707 3.61888 18.4565 1C19.1424 3.61888 20.0698 4.67039 22.8833 5.61467Z" stroke="#0B112A" stroke-linecap="round" stroke-linejoin="round"/>
<path d="M23.249 19.2287C21.1666 19.9129 20.4801 20.6749 19.9724 22.5726C19.4648 20.6749 18.7783 19.9129 16.6958 19.2287C18.7783 18.5444 19.4648 17.7825 19.9724 15.8848C20.4801 17.7825 21.1666 18.5444 23.249 19.2287Z" stroke="#0B112A" stroke-linecap="round" stroke-linejoin="round"/>
</svg>
