<svg width="19" height="19" viewBox="0 0 19 19" fill="none" xmlns="http://www.w3.org/2000/svg">
<path fill-rule="evenodd" clip-rule="evenodd" d="M9.33333 0C4.18133 0 0 4.18133 0 9.33333C0 14.4853 4.18133 18.6667 9.33333 18.6667C14.4853 18.6667 18.6667 14.4853 18.6667 9.33333C18.6667 4.18133 14.4853 0 9.33333 0ZM13.0667 10.2667H10.2667V13.0667C10.2667 13.58 9.84667 14 9.33333 14C8.82 14 8.4 13.58 8.4 13.0667V10.2667H5.6C5.08667 10.2667 4.66667 9.84667 4.66667 9.33333C4.66667 8.82 5.08667 8.4 5.6 8.4H8.4V5.6C8.4 5.08667 8.82 4.66667 9.33333 4.66667C9.84667 4.66667 10.2667 5.08667 10.2667 5.6V8.4H13.0667C13.58 8.4 14 8.82 14 9.33333C14 9.84667 13.58 10.2667 13.0667 10.2667Z" fill="#285CED"/>
</svg>
